<?xml version="1.0" encoding="utf-8" standalone="no"?>
<!DOCTYPE svg PUBLIC "-//W3C//DTD SVG 1.1//EN"
  "http://www.w3.org/Graphics/SVG/1.1/DTD/svg11.dtd">
<svg xmlns:xlink="http://www.w3.org/1999/xlink" width="864pt" height="360pt" viewBox="0 0 864 360" xmlns="http://www.w3.org/2000/svg" version="1.1">
 <metadata>
  <rdf:RDF xmlns:dc="http://purl.org/dc/elements/1.1/" xmlns:cc="http://creativecommons.org/ns#" xmlns:rdf="http://www.w3.org/1999/02/22-rdf-syntax-ns#">
   <cc:Work>
    <dc:type rdf:resource="http://purl.org/dc/dcmitype/StillImage"/>
    <dc:date>2025-06-23T20:06:56.649026</dc:date>
    <dc:format>image/svg+xml</dc:format>
    <dc:creator>
     <cc:Agent>
      <dc:title>Matplotlib v3.10.3, https://matplotlib.org/</dc:title>
     </cc:Agent>
    </dc:creator>
   </cc:Work>
  </rdf:RDF>
 </metadata>
 <defs>
  <style type="text/css">*{stroke-linejoin: round; stroke-linecap: butt}</style>
 </defs>
 <g id="figure_1">
  <g id="patch_1">
   <path d="M 0 360 
L 864 360 
L 864 0 
L 0 0 
L 0 360 
z
" style="fill: none; opacity: 0"/>
  </g>
  <g id="axes_1">
   <g id="patch_2">
    <path d="M 108 320.4 
L 777.6 320.4 
L 777.6 43.2 
L 108 43.2 
L 108 320.4 
z
" style="fill: none; opacity: 0"/>
   </g>
   <g id="matplotlib.axis_1">
    <g id="xtick_1">
     <g id="line2d_1">
      <path d="M 128.645645 320.4 
L 128.645645 43.2 
" clip-path="url(#pa8bea3b6a4)" style="fill: none; stroke-dasharray: 5.12,1.28,0.8,1.28; stroke-dashoffset: 0; stroke: #b0b0b0; stroke-width: 0.8"/>
     </g>
     <g id="line2d_2">
      <defs>
       <path id="mf1b15732d9" d="M 0 0 
L 0 3.5 
" style="stroke: #a9a9a9; stroke-width: 0.8"/>
      </defs>
      <g>
       <use xlink:href="#mf1b15732d9" x="128.645645" y="320.4" style="fill: #a9a9a9; stroke: #a9a9a9; stroke-width: 0.8"/>
      </g>
     </g>
     <g id="text_1">
      <!-- 2021-07 -->
      <g style="fill: #a9a9a9" transform="translate(107.754239 334.998438) scale(0.1 -0.1)">
       <defs>
        <path id="DejaVuSans-32" d="M 1228 531 
L 3431 531 
L 3431 0 
L 469 0 
L 469 531 
Q 828 903 1448 1529 
Q 2069 2156 2228 2338 
Q 2531 2678 2651 2914 
Q 2772 3150 2772 3378 
Q 2772 3750 2511 3984 
Q 2250 4219 1831 4219 
Q 1534 4219 1204 4116 
Q 875 4013 500 3803 
L 500 4441 
Q 881 4594 1212 4672 
Q 1544 4750 1819 4750 
Q 2544 4750 2975 4387 
Q 3406 4025 3406 3419 
Q 3406 3131 3298 2873 
Q 3191 2616 2906 2266 
Q 2828 2175 2409 1742 
Q 1991 1309 1228 531 
z
" transform="scale(0.015625)"/>
        <path id="DejaVuSans-30" d="M 2034 4250 
Q 1547 4250 1301 3770 
Q 1056 3291 1056 2328 
Q 1056 1369 1301 889 
Q 1547 409 2034 409 
Q 2525 409 2770 889 
Q 3016 1369 3016 2328 
Q 3016 3291 2770 3770 
Q 2525 4250 2034 4250 
z
M 2034 4750 
Q 2819 4750 3233 4129 
Q 3647 3509 3647 2328 
Q 3647 1150 3233 529 
Q 2819 -91 2034 -91 
Q 1250 -91 836 529 
Q 422 1150 422 2328 
Q 422 3509 836 4129 
Q 1250 4750 2034 4750 
z
" transform="scale(0.015625)"/>
        <path id="DejaVuSans-31" d="M 794 531 
L 1825 531 
L 1825 4091 
L 703 3866 
L 703 4441 
L 1819 4666 
L 2450 4666 
L 2450 531 
L 3481 531 
L 3481 0 
L 794 0 
L 794 531 
z
" transform="scale(0.015625)"/>
        <path id="DejaVuSans-2d" d="M 313 2009 
L 1997 2009 
L 1997 1497 
L 313 1497 
L 313 2009 
z
" transform="scale(0.015625)"/>
        <path id="DejaVuSans-37" d="M 525 4666 
L 3525 4666 
L 3525 4397 
L 1831 0 
L 1172 0 
L 2766 4134 
L 525 4134 
L 525 4666 
z
" transform="scale(0.015625)"/>
       </defs>
       <use xlink:href="#DejaVuSans-32"/>
       <use xlink:href="#DejaVuSans-30" transform="translate(63.623047 0)"/>
       <use xlink:href="#DejaVuSans-32" transform="translate(127.246094 0)"/>
       <use xlink:href="#DejaVuSans-31" transform="translate(190.869141 0)"/>
       <use xlink:href="#DejaVuSans-2d" transform="translate(254.492188 0)"/>
       <use xlink:href="#DejaVuSans-30" transform="translate(290.576172 0)"/>
       <use xlink:href="#DejaVuSans-37" transform="translate(354.199219 0)"/>
      </g>
     </g>
    </g>
    <g id="xtick_2">
     <g id="line2d_3">
      <path d="M 206.971392 320.4 
L 206.971392 43.2 
" clip-path="url(#pa8bea3b6a4)" style="fill: none; stroke-dasharray: 5.12,1.28,0.8,1.28; stroke-dashoffset: 0; stroke: #b0b0b0; stroke-width: 0.8"/>
     </g>
     <g id="line2d_4">
      <g>
       <use xlink:href="#mf1b15732d9" x="206.971392" y="320.4" style="fill: #a9a9a9; stroke: #a9a9a9; stroke-width: 0.8"/>
      </g>
     </g>
     <g id="text_2">
      <!-- 2022-01 -->
      <g style="fill: #a9a9a9" transform="translate(186.079986 334.998438) scale(0.1 -0.1)">
       <use xlink:href="#DejaVuSans-32"/>
       <use xlink:href="#DejaVuSans-30" transform="translate(63.623047 0)"/>
       <use xlink:href="#DejaVuSans-32" transform="translate(127.246094 0)"/>
       <use xlink:href="#DejaVuSans-32" transform="translate(190.869141 0)"/>
       <use xlink:href="#DejaVuSans-2d" transform="translate(254.492188 0)"/>
       <use xlink:href="#DejaVuSans-30" transform="translate(290.576172 0)"/>
       <use xlink:href="#DejaVuSans-31" transform="translate(354.199219 0)"/>
      </g>
     </g>
    </g>
    <g id="xtick_3">
     <g id="line2d_5">
      <path d="M 284.020089 320.4 
L 284.020089 43.2 
" clip-path="url(#pa8bea3b6a4)" style="fill: none; stroke-dasharray: 5.12,1.28,0.8,1.28; stroke-dashoffset: 0; stroke: #b0b0b0; stroke-width: 0.8"/>
     </g>
     <g id="line2d_6">
      <g>
       <use xlink:href="#mf1b15732d9" x="284.020089" y="320.4" style="fill: #a9a9a9; stroke: #a9a9a9; stroke-width: 0.8"/>
      </g>
     </g>
     <g id="text_3">
      <!-- 2022-07 -->
      <g style="fill: #a9a9a9" transform="translate(263.128683 334.998438) scale(0.1 -0.1)">
       <use xlink:href="#DejaVuSans-32"/>
       <use xlink:href="#DejaVuSans-30" transform="translate(63.623047 0)"/>
       <use xlink:href="#DejaVuSans-32" transform="translate(127.246094 0)"/>
       <use xlink:href="#DejaVuSans-32" transform="translate(190.869141 0)"/>
       <use xlink:href="#DejaVuSans-2d" transform="translate(254.492188 0)"/>
       <use xlink:href="#DejaVuSans-30" transform="translate(290.576172 0)"/>
       <use xlink:href="#DejaVuSans-37" transform="translate(354.199219 0)"/>
      </g>
     </g>
    </g>
    <g id="xtick_4">
     <g id="line2d_7">
      <path d="M 362.345836 320.4 
L 362.345836 43.2 
" clip-path="url(#pa8bea3b6a4)" style="fill: none; stroke-dasharray: 5.12,1.28,0.8,1.28; stroke-dashoffset: 0; stroke: #b0b0b0; stroke-width: 0.8"/>
     </g>
     <g id="line2d_8">
      <g>
       <use xlink:href="#mf1b15732d9" x="362.345836" y="320.4" style="fill: #a9a9a9; stroke: #a9a9a9; stroke-width: 0.8"/>
      </g>
     </g>
     <g id="text_4">
      <!-- 2023-01 -->
      <g style="fill: #a9a9a9" transform="translate(341.45443 334.998438) scale(0.1 -0.1)">
       <defs>
        <path id="DejaVuSans-33" d="M 2597 2516 
Q 3050 2419 3304 2112 
Q 3559 1806 3559 1356 
Q 3559 666 3084 287 
Q 2609 -91 1734 -91 
Q 1441 -91 1130 -33 
Q 819 25 488 141 
L 488 750 
Q 750 597 1062 519 
Q 1375 441 1716 441 
Q 2309 441 2620 675 
Q 2931 909 2931 1356 
Q 2931 1769 2642 2001 
Q 2353 2234 1838 2234 
L 1294 2234 
L 1294 2753 
L 1863 2753 
Q 2328 2753 2575 2939 
Q 2822 3125 2822 3475 
Q 2822 3834 2567 4026 
Q 2313 4219 1838 4219 
Q 1578 4219 1281 4162 
Q 984 4106 628 3988 
L 628 4550 
Q 988 4650 1302 4700 
Q 1616 4750 1894 4750 
Q 2613 4750 3031 4423 
Q 3450 4097 3450 3541 
Q 3450 3153 3228 2886 
Q 3006 2619 2597 2516 
z
" transform="scale(0.015625)"/>
       </defs>
       <use xlink:href="#DejaVuSans-32"/>
       <use xlink:href="#DejaVuSans-30" transform="translate(63.623047 0)"/>
       <use xlink:href="#DejaVuSans-32" transform="translate(127.246094 0)"/>
       <use xlink:href="#DejaVuSans-33" transform="translate(190.869141 0)"/>
       <use xlink:href="#DejaVuSans-2d" transform="translate(254.492188 0)"/>
       <use xlink:href="#DejaVuSans-30" transform="translate(290.576172 0)"/>
       <use xlink:href="#DejaVuSans-31" transform="translate(354.199219 0)"/>
      </g>
     </g>
    </g>
    <g id="xtick_5">
     <g id="line2d_9">
      <path d="M 439.394533 320.4 
L 439.394533 43.2 
" clip-path="url(#pa8bea3b6a4)" style="fill: none; stroke-dasharray: 5.12,1.28,0.8,1.28; stroke-dashoffset: 0; stroke: #b0b0b0; stroke-width: 0.8"/>
     </g>
     <g id="line2d_10">
      <g>
       <use xlink:href="#mf1b15732d9" x="439.394533" y="320.4" style="fill: #a9a9a9; stroke: #a9a9a9; stroke-width: 0.8"/>
      </g>
     </g>
     <g id="text_5">
      <!-- 2023-07 -->
      <g style="fill: #a9a9a9" transform="translate(418.503126 334.998438) scale(0.1 -0.1)">
       <use xlink:href="#DejaVuSans-32"/>
       <use xlink:href="#DejaVuSans-30" transform="translate(63.623047 0)"/>
       <use xlink:href="#DejaVuSans-32" transform="translate(127.246094 0)"/>
       <use xlink:href="#DejaVuSans-33" transform="translate(190.869141 0)"/>
       <use xlink:href="#DejaVuSans-2d" transform="translate(254.492188 0)"/>
       <use xlink:href="#DejaVuSans-30" transform="translate(290.576172 0)"/>
       <use xlink:href="#DejaVuSans-37" transform="translate(354.199219 0)"/>
      </g>
     </g>
    </g>
    <g id="xtick_6">
     <g id="line2d_11">
      <path d="M 517.72028 320.4 
L 517.72028 43.2 
" clip-path="url(#pa8bea3b6a4)" style="fill: none; stroke-dasharray: 5.12,1.28,0.8,1.28; stroke-dashoffset: 0; stroke: #b0b0b0; stroke-width: 0.8"/>
     </g>
     <g id="line2d_12">
      <g>
       <use xlink:href="#mf1b15732d9" x="517.72028" y="320.4" style="fill: #a9a9a9; stroke: #a9a9a9; stroke-width: 0.8"/>
      </g>
     </g>
     <g id="text_6">
      <!-- 2024-01 -->
      <g style="fill: #a9a9a9" transform="translate(496.828873 334.998438) scale(0.1 -0.1)">
       <defs>
        <path id="DejaVuSans-34" d="M 2419 4116 
L 825 1625 
L 2419 1625 
L 2419 4116 
z
M 2253 4666 
L 3047 4666 
L 3047 1625 
L 3713 1625 
L 3713 1100 
L 3047 1100 
L 3047 0 
L 2419 0 
L 2419 1100 
L 313 1100 
L 313 1709 
L 2253 4666 
z
" transform="scale(0.015625)"/>
       </defs>
       <use xlink:href="#DejaVuSans-32"/>
       <use xlink:href="#DejaVuSans-30" transform="translate(63.623047 0)"/>
       <use xlink:href="#DejaVuSans-32" transform="translate(127.246094 0)"/>
       <use xlink:href="#DejaVuSans-34" transform="translate(190.869141 0)"/>
       <use xlink:href="#DejaVuSans-2d" transform="translate(254.492188 0)"/>
       <use xlink:href="#DejaVuSans-30" transform="translate(290.576172 0)"/>
       <use xlink:href="#DejaVuSans-31" transform="translate(354.199219 0)"/>
      </g>
     </g>
    </g>
    <g id="xtick_7">
     <g id="line2d_13">
      <path d="M 595.19466 320.4 
L 595.19466 43.2 
" clip-path="url(#pa8bea3b6a4)" style="fill: none; stroke-dasharray: 5.12,1.28,0.8,1.28; stroke-dashoffset: 0; stroke: #b0b0b0; stroke-width: 0.8"/>
     </g>
     <g id="line2d_14">
      <g>
       <use xlink:href="#mf1b15732d9" x="595.19466" y="320.4" style="fill: #a9a9a9; stroke: #a9a9a9; stroke-width: 0.8"/>
      </g>
     </g>
     <g id="text_7">
      <!-- 2024-07 -->
      <g style="fill: #a9a9a9" transform="translate(574.303254 334.998438) scale(0.1 -0.1)">
       <use xlink:href="#DejaVuSans-32"/>
       <use xlink:href="#DejaVuSans-30" transform="translate(63.623047 0)"/>
       <use xlink:href="#DejaVuSans-32" transform="translate(127.246094 0)"/>
       <use xlink:href="#DejaVuSans-34" transform="translate(190.869141 0)"/>
       <use xlink:href="#DejaVuSans-2d" transform="translate(254.492188 0)"/>
       <use xlink:href="#DejaVuSans-30" transform="translate(290.576172 0)"/>
       <use xlink:href="#DejaVuSans-37" transform="translate(354.199219 0)"/>
      </g>
     </g>
    </g>
    <g id="xtick_8">
     <g id="line2d_15">
      <path d="M 673.520407 320.4 
L 673.520407 43.2 
" clip-path="url(#pa8bea3b6a4)" style="fill: none; stroke-dasharray: 5.12,1.28,0.8,1.28; stroke-dashoffset: 0; stroke: #b0b0b0; stroke-width: 0.8"/>
     </g>
     <g id="line2d_16">
      <g>
       <use xlink:href="#mf1b15732d9" x="673.520407" y="320.4" style="fill: #a9a9a9; stroke: #a9a9a9; stroke-width: 0.8"/>
      </g>
     </g>
     <g id="text_8">
      <!-- 2025-01 -->
      <g style="fill: #a9a9a9" transform="translate(652.629001 334.998438) scale(0.1 -0.1)">
       <defs>
        <path id="DejaVuSans-35" d="M 691 4666 
L 3169 4666 
L 3169 4134 
L 1269 4134 
L 1269 2991 
Q 1406 3038 1543 3061 
Q 1681 3084 1819 3084 
Q 2600 3084 3056 2656 
Q 3513 2228 3513 1497 
Q 3513 744 3044 326 
Q 2575 -91 1722 -91 
Q 1428 -91 1123 -41 
Q 819 9 494 109 
L 494 744 
Q 775 591 1075 516 
Q 1375 441 1709 441 
Q 2250 441 2565 725 
Q 2881 1009 2881 1497 
Q 2881 1984 2565 2268 
Q 2250 2553 1709 2553 
Q 1456 2553 1204 2497 
Q 953 2441 691 2322 
L 691 4666 
z
" transform="scale(0.015625)"/>
       </defs>
       <use xlink:href="#DejaVuSans-32"/>
       <use xlink:href="#DejaVuSans-30" transform="translate(63.623047 0)"/>
       <use xlink:href="#DejaVuSans-32" transform="translate(127.246094 0)"/>
       <use xlink:href="#DejaVuSans-35" transform="translate(190.869141 0)"/>
       <use xlink:href="#DejaVuSans-2d" transform="translate(254.492188 0)"/>
       <use xlink:href="#DejaVuSans-30" transform="translate(290.576172 0)"/>
       <use xlink:href="#DejaVuSans-31" transform="translate(354.199219 0)"/>
      </g>
     </g>
    </g>
    <g id="xtick_9">
     <g id="line2d_17">
      <path d="M 750.569104 320.4 
L 750.569104 43.2 
" clip-path="url(#pa8bea3b6a4)" style="fill: none; stroke-dasharray: 5.12,1.28,0.8,1.28; stroke-dashoffset: 0; stroke: #b0b0b0; stroke-width: 0.8"/>
     </g>
     <g id="line2d_18">
      <g>
       <use xlink:href="#mf1b15732d9" x="750.569104" y="320.4" style="fill: #a9a9a9; stroke: #a9a9a9; stroke-width: 0.8"/>
      </g>
     </g>
     <g id="text_9">
      <!-- 2025-07 -->
      <g style="fill: #a9a9a9" transform="translate(729.677697 334.998438) scale(0.1 -0.1)">
       <use xlink:href="#DejaVuSans-32"/>
       <use xlink:href="#DejaVuSans-30" transform="translate(63.623047 0)"/>
       <use xlink:href="#DejaVuSans-32" transform="translate(127.246094 0)"/>
       <use xlink:href="#DejaVuSans-35" transform="translate(190.869141 0)"/>
       <use xlink:href="#DejaVuSans-2d" transform="translate(254.492188 0)"/>
       <use xlink:href="#DejaVuSans-30" transform="translate(290.576172 0)"/>
       <use xlink:href="#DejaVuSans-37" transform="translate(354.199219 0)"/>
      </g>
     </g>
    </g>
   </g>
   <g id="matplotlib.axis_2">
    <g id="ytick_1">
     <g id="line2d_19">
      <path d="M 108 307.832445 
L 777.6 307.832445 
" clip-path="url(#pa8bea3b6a4)" style="fill: none; stroke-dasharray: 5.12,1.28,0.8,1.28; stroke-dashoffset: 0; stroke: #b0b0b0; stroke-width: 0.8"/>
     </g>
     <g id="line2d_20">
      <defs>
       <path id="mb309e049cc" d="M 0 0 
L -3.5 0 
" style="stroke: #a9a9a9; stroke-width: 0.8"/>
      </defs>
      <g>
       <use xlink:href="#mb309e049cc" x="108" y="307.832445" style="fill: #a9a9a9; stroke: #a9a9a9; stroke-width: 0.8"/>
      </g>
     </g>
     <g id="text_10">
      <!-- 0 -->
      <g style="fill: #a9a9a9" transform="translate(94.6375 311.631664) scale(0.1 -0.1)">
       <use xlink:href="#DejaVuSans-30"/>
      </g>
     </g>
    </g>
    <g id="ytick_2">
     <g id="line2d_21">
      <path d="M 108 275.387486 
L 777.6 275.387486 
" clip-path="url(#pa8bea3b6a4)" style="fill: none; stroke-dasharray: 5.12,1.28,0.8,1.28; stroke-dashoffset: 0; stroke: #b0b0b0; stroke-width: 0.8"/>
     </g>
     <g id="line2d_22">
      <g>
       <use xlink:href="#mb309e049cc" x="108" y="275.387486" style="fill: #a9a9a9; stroke: #a9a9a9; stroke-width: 0.8"/>
      </g>
     </g>
     <g id="text_11">
      <!-- 1000 -->
      <g style="fill: #a9a9a9" transform="translate(75.55 279.186704) scale(0.1 -0.1)">
       <use xlink:href="#DejaVuSans-31"/>
       <use xlink:href="#DejaVuSans-30" transform="translate(63.623047 0)"/>
       <use xlink:href="#DejaVuSans-30" transform="translate(127.246094 0)"/>
       <use xlink:href="#DejaVuSans-30" transform="translate(190.869141 0)"/>
      </g>
     </g>
    </g>
    <g id="ytick_3">
     <g id="line2d_23">
      <path d="M 108 242.942526 
L 777.6 242.942526 
" clip-path="url(#pa8bea3b6a4)" style="fill: none; stroke-dasharray: 5.12,1.28,0.8,1.28; stroke-dashoffset: 0; stroke: #b0b0b0; stroke-width: 0.8"/>
     </g>
     <g id="line2d_24">
      <g>
       <use xlink:href="#mb309e049cc" x="108" y="242.942526" style="fill: #a9a9a9; stroke: #a9a9a9; stroke-width: 0.8"/>
      </g>
     </g>
     <g id="text_12">
      <!-- 2000 -->
      <g style="fill: #a9a9a9" transform="translate(75.55 246.741745) scale(0.1 -0.1)">
       <use xlink:href="#DejaVuSans-32"/>
       <use xlink:href="#DejaVuSans-30" transform="translate(63.623047 0)"/>
       <use xlink:href="#DejaVuSans-30" transform="translate(127.246094 0)"/>
       <use xlink:href="#DejaVuSans-30" transform="translate(190.869141 0)"/>
      </g>
     </g>
    </g>
    <g id="ytick_4">
     <g id="line2d_25">
      <path d="M 108 210.497567 
L 777.6 210.497567 
" clip-path="url(#pa8bea3b6a4)" style="fill: none; stroke-dasharray: 5.12,1.28,0.8,1.28; stroke-dashoffset: 0; stroke: #b0b0b0; stroke-width: 0.8"/>
     </g>
     <g id="line2d_26">
      <g>
       <use xlink:href="#mb309e049cc" x="108" y="210.497567" style="fill: #a9a9a9; stroke: #a9a9a9; stroke-width: 0.8"/>
      </g>
     </g>
     <g id="text_13">
      <!-- 3000 -->
      <g style="fill: #a9a9a9" transform="translate(75.55 214.296785) scale(0.1 -0.1)">
       <use xlink:href="#DejaVuSans-33"/>
       <use xlink:href="#DejaVuSans-30" transform="translate(63.623047 0)"/>
       <use xlink:href="#DejaVuSans-30" transform="translate(127.246094 0)"/>
       <use xlink:href="#DejaVuSans-30" transform="translate(190.869141 0)"/>
      </g>
     </g>
    </g>
    <g id="ytick_5">
     <g id="line2d_27">
      <path d="M 108 178.052607 
L 777.6 178.052607 
" clip-path="url(#pa8bea3b6a4)" style="fill: none; stroke-dasharray: 5.12,1.28,0.8,1.28; stroke-dashoffset: 0; stroke: #b0b0b0; stroke-width: 0.8"/>
     </g>
     <g id="line2d_28">
      <g>
       <use xlink:href="#mb309e049cc" x="108" y="178.052607" style="fill: #a9a9a9; stroke: #a9a9a9; stroke-width: 0.8"/>
      </g>
     </g>
     <g id="text_14">
      <!-- 4000 -->
      <g style="fill: #a9a9a9" transform="translate(75.55 181.851826) scale(0.1 -0.1)">
       <use xlink:href="#DejaVuSans-34"/>
       <use xlink:href="#DejaVuSans-30" transform="translate(63.623047 0)"/>
       <use xlink:href="#DejaVuSans-30" transform="translate(127.246094 0)"/>
       <use xlink:href="#DejaVuSans-30" transform="translate(190.869141 0)"/>
      </g>
     </g>
    </g>
    <g id="ytick_6">
     <g id="line2d_29">
      <path d="M 108 145.607648 
L 777.6 145.607648 
" clip-path="url(#pa8bea3b6a4)" style="fill: none; stroke-dasharray: 5.12,1.28,0.8,1.28; stroke-dashoffset: 0; stroke: #b0b0b0; stroke-width: 0.8"/>
     </g>
     <g id="line2d_30">
      <g>
       <use xlink:href="#mb309e049cc" x="108" y="145.607648" style="fill: #a9a9a9; stroke: #a9a9a9; stroke-width: 0.8"/>
      </g>
     </g>
     <g id="text_15">
      <!-- 5000 -->
      <g style="fill: #a9a9a9" transform="translate(75.55 149.406866) scale(0.1 -0.1)">
       <use xlink:href="#DejaVuSans-35"/>
       <use xlink:href="#DejaVuSans-30" transform="translate(63.623047 0)"/>
       <use xlink:href="#DejaVuSans-30" transform="translate(127.246094 0)"/>
       <use xlink:href="#DejaVuSans-30" transform="translate(190.869141 0)"/>
      </g>
     </g>
    </g>
    <g id="ytick_7">
     <g id="line2d_31">
      <path d="M 108 113.162688 
L 777.6 113.162688 
" clip-path="url(#pa8bea3b6a4)" style="fill: none; stroke-dasharray: 5.12,1.28,0.8,1.28; stroke-dashoffset: 0; stroke: #b0b0b0; stroke-width: 0.8"/>
     </g>
     <g id="line2d_32">
      <g>
       <use xlink:href="#mb309e049cc" x="108" y="113.162688" style="fill: #a9a9a9; stroke: #a9a9a9; stroke-width: 0.8"/>
      </g>
     </g>
     <g id="text_16">
      <!-- 6000 -->
      <g style="fill: #a9a9a9" transform="translate(75.55 116.961907) scale(0.1 -0.1)">
       <defs>
        <path id="DejaVuSans-36" d="M 2113 2584 
Q 1688 2584 1439 2293 
Q 1191 2003 1191 1497 
Q 1191 994 1439 701 
Q 1688 409 2113 409 
Q 2538 409 2786 701 
Q 3034 994 3034 1497 
Q 3034 2003 2786 2293 
Q 2538 2584 2113 2584 
z
M 3366 4563 
L 3366 3988 
Q 3128 4100 2886 4159 
Q 2644 4219 2406 4219 
Q 1781 4219 1451 3797 
Q 1122 3375 1075 2522 
Q 1259 2794 1537 2939 
Q 1816 3084 2150 3084 
Q 2853 3084 3261 2657 
Q 3669 2231 3669 1497 
Q 3669 778 3244 343 
Q 2819 -91 2113 -91 
Q 1303 -91 875 529 
Q 447 1150 447 2328 
Q 447 3434 972 4092 
Q 1497 4750 2381 4750 
Q 2619 4750 2861 4703 
Q 3103 4656 3366 4563 
z
" transform="scale(0.015625)"/>
       </defs>
       <use xlink:href="#DejaVuSans-36"/>
       <use xlink:href="#DejaVuSans-30" transform="translate(63.623047 0)"/>
       <use xlink:href="#DejaVuSans-30" transform="translate(127.246094 0)"/>
       <use xlink:href="#DejaVuSans-30" transform="translate(190.869141 0)"/>
      </g>
     </g>
    </g>
    <g id="ytick_8">
     <g id="line2d_33">
      <path d="M 108 80.717729 
L 777.6 80.717729 
" clip-path="url(#pa8bea3b6a4)" style="fill: none; stroke-dasharray: 5.12,1.28,0.8,1.28; stroke-dashoffset: 0; stroke: #b0b0b0; stroke-width: 0.8"/>
     </g>
     <g id="line2d_34">
      <g>
       <use xlink:href="#mb309e049cc" x="108" y="80.717729" style="fill: #a9a9a9; stroke: #a9a9a9; stroke-width: 0.8"/>
      </g>
     </g>
     <g id="text_17">
      <!-- 7000 -->
      <g style="fill: #a9a9a9" transform="translate(75.55 84.516948) scale(0.1 -0.1)">
       <use xlink:href="#DejaVuSans-37"/>
       <use xlink:href="#DejaVuSans-30" transform="translate(63.623047 0)"/>
       <use xlink:href="#DejaVuSans-30" transform="translate(127.246094 0)"/>
       <use xlink:href="#DejaVuSans-30" transform="translate(190.869141 0)"/>
      </g>
     </g>
    </g>
    <g id="ytick_9">
     <g id="line2d_35">
      <path d="M 108 48.272769 
L 777.6 48.272769 
" clip-path="url(#pa8bea3b6a4)" style="fill: none; stroke-dasharray: 5.12,1.28,0.8,1.28; stroke-dashoffset: 0; stroke: #b0b0b0; stroke-width: 0.8"/>
     </g>
     <g id="line2d_36">
      <g>
       <use xlink:href="#mb309e049cc" x="108" y="48.272769" style="fill: #a9a9a9; stroke: #a9a9a9; stroke-width: 0.8"/>
      </g>
     </g>
     <g id="text_18">
      <!-- 8000 -->
      <g style="fill: #a9a9a9" transform="translate(75.55 52.071988) scale(0.1 -0.1)">
       <defs>
        <path id="DejaVuSans-38" d="M 2034 2216 
Q 1584 2216 1326 1975 
Q 1069 1734 1069 1313 
Q 1069 891 1326 650 
Q 1584 409 2034 409 
Q 2484 409 2743 651 
Q 3003 894 3003 1313 
Q 3003 1734 2745 1975 
Q 2488 2216 2034 2216 
z
M 1403 2484 
Q 997 2584 770 2862 
Q 544 3141 544 3541 
Q 544 4100 942 4425 
Q 1341 4750 2034 4750 
Q 2731 4750 3128 4425 
Q 3525 4100 3525 3541 
Q 3525 3141 3298 2862 
Q 3072 2584 2669 2484 
Q 3125 2378 3379 2068 
Q 3634 1759 3634 1313 
Q 3634 634 3220 271 
Q 2806 -91 2034 -91 
Q 1263 -91 848 271 
Q 434 634 434 1313 
Q 434 1759 690 2068 
Q 947 2378 1403 2484 
z
M 1172 3481 
Q 1172 3119 1398 2916 
Q 1625 2713 2034 2713 
Q 2441 2713 2670 2916 
Q 2900 3119 2900 3481 
Q 2900 3844 2670 4047 
Q 2441 4250 2034 4250 
Q 1625 4250 1398 4047 
Q 1172 3844 1172 3481 
z
" transform="scale(0.015625)"/>
       </defs>
       <use xlink:href="#DejaVuSans-38"/>
       <use xlink:href="#DejaVuSans-30" transform="translate(63.623047 0)"/>
       <use xlink:href="#DejaVuSans-30" transform="translate(127.246094 0)"/>
       <use xlink:href="#DejaVuSans-30" transform="translate(190.869141 0)"/>
      </g>
     </g>
    </g>
   </g>
   <g id="line2d_37">
    <path d="M 138.436364 307.73511 
L 140.990464 307.507995 
L 141.416147 307.313326 
L 143.118881 307.086211 
L 144.821615 306.729316 
L 145.672982 306.599537 
L 147.801399 306.404867 
L 148.652765 306.047972 
L 149.078449 305.463963 
L 149.504132 305.171958 
L 149.929816 304.19861 
L 150.355499 304.13372 
L 150.781182 303.776825 
L 151.632549 303.322596 
L 153.335283 301.895017 
L 155.038017 301.019003 
L 156.315067 300.402549 
L 156.74075 299.68876 
L 157.592117 299.039861 
L 158.0178 298.845191 
L 162.274634 298.196292 
L 162.700318 298.001622 
L 165.680102 297.742063 
L 167.382835 297.320278 
L 170.788303 296.833604 
L 171.213986 296.606489 
L 171.639669 296.541599 
L 172.491036 296.249594 
L 175.47082 295.730475 
L 176.322187 295.470915 
L 180.153338 294.822016 
L 181.004704 294.627346 
L 181.856071 294.594902 
L 183.558805 294.173117 
L 183.984488 293.556663 
L 185.261538 293.037543 
L 186.538589 292.680649 
L 186.964272 292.453534 
L 187.815639 292.291309 
L 189.518373 291.77219 
L 190.369739 291.7073 
L 191.221106 291.480185 
L 192.92384 291.025956 
L 193.349523 290.993511 
L 194.20089 290.571727 
L 194.626573 290.506837 
L 195.052257 290.279722 
L 199.734774 289.468598 
L 201.437508 288.949479 
L 201.863191 288.657474 
L 203.991608 287.943685 
L 204.842975 287.327231 
L 206.120025 287.067671 
L 215.48506 284.244959 
L 215.910744 284.212514 
L 217.187794 283.823175 
L 217.613477 283.823175 
L 218.039161 283.628505 
L 218.890528 283.53117 
L 219.316211 283.368946 
L 221.018945 283.304056 
L 221.870312 283.141831 
L 222.721678 282.687601 
L 223.998729 282.200927 
L 224.850095 281.746698 
L 225.701462 281.292468 
L 226.552829 281.000463 
L 226.978512 280.870684 
L 227.829879 280.319119 
L 228.255563 279.832445 
L 229.106929 278.469757 
L 229.532613 278.339977 
L 229.958296 278.339977 
L 231.66103 277.366628 
L 232.086713 277.269293 
L 232.512397 276.847509 
L 233.363764 276.490614 
L 234.21513 276.101275 
L 234.640814 275.582155 
L 235.066497 274.868366 
L 235.492181 274.576362 
L 235.917864 273.797683 
L 236.343547 273.311008 
L 238.897648 271.88343 
L 239.749015 271.169641 
L 240.174698 270.910081 
L 240.600381 270.293627 
L 241.026065 269.287833 
L 241.451748 268.606489 
L 241.877432 268.249594 
L 242.303115 268.054925 
L 245.708582 264.810429 
L 246.559949 263.999305 
L 249.11405 262.344612 
L 249.539733 262.182387 
L 251.242467 261.144148 
L 251.66815 260.949479 
L 253.796567 258.937891 
L 254.647934 258.580997 
L 255.499301 257.964542 
L 255.924984 257.704983 
L 256.350668 257.640093 
L 257.627718 256.893859 
L 258.053401 256.407184 
L 260.181818 255.206721 
L 260.607502 255.044496 
L 261.884552 254.136037 
L 268.269803 251.8 
L 269.12117 250.988876 
L 270.39822 250.339977 
L 271.249587 249.788413 
L 272.100954 249.528853 
L 272.526637 249.236848 
L 272.95232 249.107068 
L 274.229371 248.231054 
L 276.357788 247.74438 
L 277.634838 246.965701 
L 278.911888 246.673696 
L 279.337572 246.576362 
L 280.614622 245.570568 
L 282.317355 245.083893 
L 282.743039 244.726999 
L 285.297139 243.81854 
L 286.148506 243.656315 
L 286.999873 243.299421 
L 289.979657 242.163847 
L 290.831024 242.034067 
L 292.108074 241.579838 
L 294.236491 240.509154 
L 296.790591 239.049131 
L 297.641958 238.822016 
L 298.919008 238.173117 
L 299.770375 238.010892 
L 300.621742 237.491773 
L 301.473109 237.264658 
L 302.750159 236.745539 
L 304.452893 236.518424 
L 305.304259 236.064195 
L 305.729943 235.674855 
L 306.155626 234.896176 
L 307.85836 234.409502 
L 309.13541 233.728158 
L 309.986777 233.436153 
L 311.263827 232.787254 
L 313.392244 231.91124 
L 314.243611 231.71657 
L 315.520661 231.067671 
L 315.946345 231.002781 
L 318.074762 229.932097 
L 318.926128 229.380533 
L 320.203179 229.120973 
L 322.331596 228.569409 
L 322.757279 228.212514 
L 323.608646 227.92051 
L 325.737063 227.044496 
L 326.162746 226.720046 
L 326.58843 226.557822 
L 327.439797 226.071147 
L 329.14253 225.519583 
L 329.993897 224.968019 
L 330.41958 224.513789 
L 330.845264 224.254229 
L 331.270947 224.156895 
L 332.122314 223.443105 
L 332.547997 223.378216 
L 332.973681 222.664426 
L 333.399364 222.469757 
L 333.825048 222.112862 
L 334.250731 222.047972 
L 335.102098 221.496408 
L 335.953465 221.204403 
L 336.379148 220.879954 
L 336.804832 220.717729 
L 338.507565 219.54971 
L 339.784615 218.900811 
L 340.635982 218.673696 
L 341.487349 218.187022 
L 341.913032 217.440788 
L 342.764399 216.791889 
L 343.190083 216.694554 
L 345.744183 215.4292 
L 346.59555 215.072306 
L 347.446917 214.455852 
L 348.723967 213.255388 
L 349.575334 212.736269 
L 350.001017 212.249594 
L 351.703751 211.049131 
L 352.555118 210.173117 
L 353.406484 209.881112 
L 354.257851 209.297103 
L 355.534901 208.615759 
L 355.960585 208.550869 
L 357.237635 207.83708 
L 358.089002 207.285516 
L 362.345836 205.663268 
L 362.771519 205.306373 
L 364.474253 204.625029 
L 364.899936 204.495249 
L 365.751303 203.943685 
L 366.60267 203.58679 
L 367.454037 202.970336 
L 368.305404 201.218308 
L 369.156771 200.18007 
L 370.433821 199.498725 
L 371.285188 199.141831 
L 371.710871 199.076941 
L 372.562238 198.687601 
L 374.264971 198.103592 
L 375.116338 197.616918 
L 375.967705 197.195133 
L 376.393388 197.065353 
L 378.947489 195.507995 
L 379.373172 195.021321 
L 380.650223 194.275087 
L 381.075906 194.112862 
L 381.927273 193.593743 
L 383.630006 192.652839 
L 384.05569 192.555504 
L 384.481373 192.19861 
L 387.461157 191.192816 
L 387.88684 190.868366 
L 388.738207 190.608806 
L 389.589574 190.251912 
L 390.015257 189.895017 
L 391.717991 189.278563 
L 392.569358 188.662109 
L 393.420725 188.305214 
L 394.272092 187.62387 
L 395.123458 187.364311 
L 395.549142 186.974971 
L 395.974825 186.910081 
L 396.826192 186.228737 
L 398.954609 184.963384 
L 399.805976 184.703824 
L 400.231659 184.444264 
L 400.657343 184.379374 
L 401.934393 183.665585 
L 403.637127 183.081576 
L 404.488493 182.951796 
L 404.914177 182.757126 
L 405.33986 182.692236 
L 406.191227 182.302897 
L 406.61691 182.270452 
L 408.319644 181.621553 
L 409.596694 180.680649 
L 410.022378 180.518424 
L 410.873744 180.03175 
L 411.299428 179.90197 
L 413.853528 178.441947 
L 414.279212 178.344612 
L 415.556262 177.565933 
L 416.833312 177.111703 
L 417.684679 176.819699 
L 419.387413 176.235689 
L 420.238779 175.943685 
L 421.941513 175.58679 
L 422.367196 175.392121 
L 423.218563 175.165006 
L 423.644247 174.970336 
L 424.06993 174.905446 
L 424.495613 174.678331 
L 425.34698 174.516107 
L 426.624031 174.029432 
L 427.475397 173.932097 
L 428.752448 173.640093 
L 430.880865 173.250753 
L 441.948633 169.876477 
L 442.374317 169.422248 
L 444.928417 168.351564 
L 446.631151 167.767555 
L 447.056834 167.507995 
L 448.333884 167.118656 
L 449.185251 166.891541 
L 449.610935 166.599537 
L 450.036618 166.502202 
L 450.462301 166.112862 
L 451.739352 165.853302 
L 452.590718 165.463963 
L 453.016402 164.944844 
L 457.698919 163.906605 
L 458.124603 163.906605 
L 458.550286 163.711935 
L 460.25302 163.387486 
L 460.678703 163.192816 
L 462.381437 162.868366 
L 463.232804 162.511472 
L 464.08417 162.349247 
L 466.212587 161.797683 
L 467.915321 161.246118 
L 468.341004 161.148783 
L 468.766688 160.921669 
L 469.618055 160.694554 
L 470.469421 160.337659 
L 471.320788 160.01321 
L 471.746472 159.721205 
L 472.597839 159.461645 
L 475.577622 158.326072 
L 477.280356 158.098957 
L 480.685823 156.833604 
L 481.111507 156.509154 
L 481.53719 156.411819 
L 481.962873 156.184705 
L 482.388557 156.15226 
L 487.071074 154.432677 
L 489.199491 153.848667 
L 490.050858 153.426883 
L 491.327908 153.134878 
L 493.030642 151.7073 
L 494.733376 150.961066 
L 495.584743 150.571727 
L 498.138843 149.565933 
L 498.564526 149.273928 
L 500.692943 148.560139 
L 501.969994 147.813905 
L 502.395677 147.71657 
L 504.524094 146.548552 
L 505.801144 145.964542 
L 506.226828 145.640093 
L 507.078195 145.348088 
L 509.206612 144.244959 
L 510.483662 143.79073 
L 512.186395 143.076941 
L 513.463446 142.590267 
L 513.889129 142.428042 
L 514.740496 142.298262 
L 515.166179 142.006257 
L 516.868913 141.681808 
L 517.72028 141.324913 
L 519.423013 140.513789 
L 525.382581 137.853302 
L 526.659631 137.431518 
L 527.085315 137.139513 
L 527.936682 137.042178 
L 528.362365 136.750174 
L 529.213732 136.620394 
L 530.065099 136.19861 
L 530.490782 136.00394 
L 531.342149 135.776825 
L 532.193516 135.517265 
L 533.470566 135.030591 
L 534.747616 134.608806 
L 536.024666 134.316802 
L 537.7274 133.603013 
L 538.578767 133.116338 
L 540.2815 132.240324 
L 541.132867 132.045655 
L 541.558551 131.786095 
L 541.984234 131.68876 
L 543.261284 130.942526 
L 544.112651 130.585632 
L 553.477686 126.951796 
L 555.18042 126.140672 
L 559.437254 124.453534 
L 560.28862 124.03175 
L 560.714304 123.934415 
L 561.139987 123.7073 
L 562.842721 123.220626 
L 564.545455 121.793048 
L 564.971138 121.663268 
L 565.396821 121.403708 
L 566.673872 121.046813 
L 567.099555 120.722364 
L 567.525238 120.625029 
L 568.802289 119.84635 
L 569.227972 119.554345 
L 570.505022 119.067671 
L 570.930706 118.840556 
L 572.207756 118.548552 
L 574.336173 117.802317 
L 575.18754 117.542758 
L 576.46459 116.893859 
L 577.315957 116.472074 
L 578.167324 116.244959 
L 579.444374 115.628505 
L 583.275524 114.168482 
L 584.552575 113.357358 
L 584.978258 113.260023 
L 585.829625 112.838239 
L 586.680992 112.513789 
L 587.106675 112.12445 
L 587.958042 111.767555 
L 589.235092 111.313326 
L 589.660776 110.956431 
L 590.086459 110.923986 
L 590.937826 110.664426 
L 591.789193 110.372422 
L 592.214876 110.177752 
L 592.640559 110.112862 
L 593.491926 109.755968 
L 594.768976 109.463963 
L 595.620343 108.977289 
L 596.046027 108.815064 
L 596.47171 108.490614 
L 597.74876 108.166165 
L 598.174444 107.906605 
L 599.025811 107.67949 
L 600.302861 106.933256 
L 600.728544 106.900811 
L 602.005594 106.479027 
L 602.856961 106.414137 
L 603.282645 106.187022 
L 604.134011 105.959907 
L 604.559695 105.732793 
L 606.688112 105.311008 
L 607.539479 105.148783 
L 608.816529 104.662109 
L 610.093579 104.370104 
L 611.370629 103.68876 
L 611.796313 103.299421 
L 613.073363 102.520742 
L 613.499046 102.196292 
L 614.776097 101.774508 
L 615.627463 101.547393 
L 619.458614 99.860255 
L 621.161348 99.406025 
L 622.012715 99.016686 
L 622.438398 98.789571 
L 623.289765 98.530012 
L 623.715448 98.302897 
L 624.566815 98.140672 
L 627.972282 96.648204 
L 628.397966 96.583314 
L 629.675016 95.739745 
L 630.100699 95.674855 
L 631.803433 94.993511 
L 633.506167 94.571727 
L 633.93185 94.506837 
L 634.357533 94.312167 
L 634.783217 94.279722 
L 635.634584 93.987717 
L 636.060267 93.955272 
L 637.337317 93.468598 
L 639.040051 92.981924 
L 639.891418 92.333024 
L 641.594151 91.359676 
L 642.019835 91.262341 
L 642.445518 91.035226 
L 643.296885 90.743221 
L 643.722568 90.613441 
L 644.148252 90.256547 
L 645.425302 89.769873 
L 646.276669 89.283198 
L 646.702352 89.056083 
L 647.128036 88.666744 
L 649.256453 88.082735 
L 650.533503 87.498725 
L 651.38487 87.271611 
L 651.810553 87.044496 
L 652.236236 86.687601 
L 653.93897 86.233372 
L 654.364654 85.908922 
L 659.898538 83.86489 
L 660.749905 83.702665 
L 662.878322 83.021321 
L 663.729688 82.664426 
L 664.581055 82.339977 
L 665.432422 82.112862 
L 665.858106 81.918192 
L 666.283789 81.918192 
L 667.135156 81.561298 
L 667.986523 81.074623 
L 670.966306 80.06883 
L 672.66904 79.48482 
L 673.94609 79.192816 
L 675.22314 78.771031 
L 675.648824 78.673696 
L 676.074507 78.381692 
L 676.925874 78.187022 
L 678.628608 77.700348 
L 679.054291 77.667903 
L 679.905658 77.278563 
L 682.885442 76.532329 
L 683.736809 76.175435 
L 687.993643 75.202086 
L 689.270693 74.520742 
L 690.547743 74.131402 
L 694.804577 72.541599 
L 695.230261 72.217149 
L 696.507311 71.925145 
L 697.358678 71.665585 
L 698.210045 71.243801 
L 698.635728 70.886906 
L 699.487095 70.627346 
L 699.912778 70.367787 
L 700.764145 70.270452 
L 703.743929 69.426883 
L 705.020979 69.167323 
L 706.298029 68.842874 
L 707.149396 68.615759 
L 708.426446 67.934415 
L 710.12918 67.285516 
L 710.980547 66.831286 
L 711.40623 66.798841 
L 712.257597 66.377057 
L 715.237381 65.533488 
L 716.514431 65.338818 
L 717.365798 65.046813 
L 718.642848 64.657474 
L 722.473999 63.58679 
L 723.325366 63.359676 
L 723.751049 63.262341 
L 724.176732 63.002781 
L 725.028099 62.840556 
L 725.879466 62.743221 
L 726.305149 62.516107 
L 726.730833 62.483662 
L 728.007883 61.834762 
L 729.284933 61.542758 
L 730.1363 61.153418 
L 730.987667 60.861414 
L 731.839034 60.634299 
L 732.690401 60.277404 
L 733.541767 59.9854 
L 735.244501 59.498725 
L 736.095868 59.433835 
L 736.947235 59.141831 
L 737.372918 58.979606 
L 738.224285 58.849826 
L 739.927018 58.071147 
L 740.352702 58.006257 
L 740.778385 57.779143 
L 741.629752 57.616918 
L 742.481119 57.552028 
L 743.758169 57.260023 
L 744.183853 57.032908 
L 745.035219 56.805794 
L 745.886586 56.416454 
L 746.31227 56.351564 
L 747.163636 55.8 
L 747.163636 55.8 
" clip-path="url(#pa8bea3b6a4)" style="fill: none; stroke: #1f77b4; stroke-width: 1.5; stroke-linecap: square"/>
   </g>
   <g id="line2d_38">
    <path d="M 138.862047 307.8 
L 142.693198 307.702665 
L 146.098665 307.54044 
L 147.801399 307.54044 
L 148.227082 307.41066 
L 150.355499 307.313326 
L 152.909599 307.021321 
L 155.4637 306.923986 
L 156.315067 306.826651 
L 159.294851 306.696871 
L 162.274634 306.599537 
L 164.403051 306.534647 
L 169.936936 306.437312 
L 172.065353 306.372422 
L 175.896503 306.275087 
L 177.599237 306.242642 
L 181.856071 306.145307 
L 183.558805 305.983082 
L 185.261538 305.950637 
L 187.815639 305.853302 
L 189.518373 305.820857 
L 191.64679 305.755968 
L 193.349523 305.593743 
L 197.180674 305.496408 
L 198.032041 305.431518 
L 199.734774 305.334183 
L 202.288875 305.236848 
L 203.991608 305.139513 
L 211.65391 304.652839 
L 214.633694 304.555504 
L 215.910744 304.425724 
L 218.039161 304.328389 
L 222.295995 304.101275 
L 226.552829 304.036385 
L 228.255563 303.841715 
L 230.38398 303.74438 
L 234.640814 303.322596 
L 237.194914 302.998146 
L 238.897648 302.933256 
L 242.303115 302.479027 
L 244.857216 302.414137 
L 246.134266 302.284357 
L 247.411316 302.187022 
L 259.330451 301.246118 
L 260.181818 301.083893 
L 262.735919 300.986559 
L 269.546853 300.564774 
L 272.526637 300.467439 
L 274.229371 300.272769 
L 276.357788 300.175435 
L 278.911888 300.0781 
L 281.040305 299.980765 
L 282.743039 299.94832 
L 284.871456 299.88343 
L 285.722823 299.75365 
L 291.68239 299.656315 
L 292.533757 299.55898 
L 297.641958 299.461645 
L 301.473109 299.266976 
L 304.452893 299.169641 
L 306.155626 298.974971 
L 309.13541 298.877636 
L 309.986777 298.747856 
L 312.115194 298.682966 
L 316.372028 298.618076 
L 318.074762 298.455852 
L 319.777495 298.423407 
L 321.054545 298.326072 
L 322.757279 298.163847 
L 327.014113 297.936732 
L 331.270947 297.839397 
L 335.102098 297.644728 
L 336.379148 297.612283 
L 337.230515 297.482503 
L 339.358932 297.385168 
L 340.210299 297.320278 
L 341.061666 297.255388 
L 341.913032 297.190498 
L 346.169866 297.093163 
L 358.089002 296.282039 
L 360.643102 296.184705 
L 362.771519 296.119815 
L 368.731087 296.02248 
L 369.582454 295.8927 
L 375.542022 295.795365 
L 379.798856 295.56825 
L 380.650223 295.535805 
L 381.501589 295.43847 
L 383.630006 295.341136 
L 385.758423 295.276246 
L 387.88684 295.178911 
L 390.015257 295.114021 
L 393.846408 295.016686 
L 396.400509 294.919351 
L 402.360076 294.822016 
L 407.042594 294.562457 
L 408.745327 294.497567 
L 410.022378 294.400232 
L 415.981945 294.302897 
L 418.536046 294.205562 
L 426.198347 294.108227 
L 427.901081 294.075782 
L 433.009282 294.010892 
L 433.860648 293.946002 
L 439.820216 293.848667 
L 441.52295 293.816222 
L 452.590718 293.718888 
L 455.144819 293.621553 
L 473.023522 293.524218 
L 475.151939 293.459328 
L 486.219708 293.394438 
L 487.071074 293.329548 
L 489.199491 293.264658 
L 490.476542 293.134878 
L 493.030642 293.037543 
L 496.010426 292.907764 
L 499.841577 292.810429 
L 501.969994 292.745539 
L 504.949777 292.648204 
L 508.355245 292.485979 
L 510.483662 292.388644 
L 512.186395 292.356199 
L 516.017546 292.258864 
L 517.72028 292.226419 
L 523.254164 292.129085 
L 524.956898 292.09664 
L 527.085315 291.999305 
L 529.639415 291.90197 
L 532.619199 291.83708 
L 533.470566 291.77219 
L 543.686968 291.674855 
L 547.943802 291.44774 
L 550.923586 291.350406 
L 555.606103 291.090846 
L 558.585887 290.993511 
L 560.28862 290.961066 
L 563.268404 290.863731 
L 565.396821 290.636616 
L 569.653655 290.539282 
L 570.505022 290.441947 
L 574.761856 290.344612 
L 576.890273 290.279722 
L 581.572791 290.247277 
L 582.424158 290.149942 
L 587.106675 290.052607 
L 587.958042 289.987717 
L 597.323077 289.890382 
L 599.877177 289.793048 
L 606.262428 289.695713 
L 607.965162 289.663268 
L 611.796313 289.598378 
L 612.64768 289.501043 
L 618.181564 289.403708 
L 620.309981 289.338818 
L 627.972282 289.241483 
L 629.249332 289.144148 
L 630.526383 289.046813 
L 631.803433 288.949479 
L 638.188684 288.852144 
L 640.742784 288.754809 
L 652.236236 288.657474 
L 656.067387 288.462804 
L 661.175588 288.365469 
L 662.026955 288.300579 
L 668.412206 288.235689 
L 669.263573 288.1708 
L 673.94609 288.073465 
L 675.648824 288.04102 
L 681.608392 287.943685 
L 684.162492 287.84635 
L 691.39911 287.749015 
L 693.101844 287.71657 
L 696.932994 287.619235 
L 700.338462 287.45701 
L 705.020979 287.359676 
L 708.000763 287.229896 
L 711.831914 287.132561 
L 712.68328 287.067671 
L 721.196949 286.970336 
L 723.325366 286.905446 
L 725.879466 286.808111 
L 728.433566 286.710776 
L 741.204069 286.613441 
L 744.183853 286.483662 
L 747.163636 286.386327 
L 747.163636 286.386327 
" clip-path="url(#pa8bea3b6a4)" style="fill: none; stroke: #ff7f0e; stroke-width: 1.5; stroke-linecap: square"/>
   </g>
   <g id="patch_3">
    <path d="M 108 320.4 
L 108 43.2 
" style="fill: none; stroke: #a9a9a9; stroke-width: 0.8; stroke-linejoin: miter; stroke-linecap: square"/>
   </g>
   <g id="patch_4">
    <path d="M 777.6 320.4 
L 777.6 43.2 
" style="fill: none"/>
   </g>
   <g id="patch_5">
    <path d="M 108 320.4 
L 777.6 320.4 
" style="fill: none; stroke: #a9a9a9; stroke-width: 0.8; stroke-linejoin: miter; stroke-linecap: square"/>
   </g>
   <g id="patch_6">
    <path d="M 108 43.2 
L 777.6 43.2 
" style="fill: none"/>
   </g>
   <g id="text_19">
    <!-- get_subscribe history -->
    <g style="fill: #a9a9a9" transform="translate(378.6075 37.2) scale(0.12 -0.12)">
     <defs>
      <path id="DejaVuSans-67" d="M 2906 1791 
Q 2906 2416 2648 2759 
Q 2391 3103 1925 3103 
Q 1463 3103 1205 2759 
Q 947 2416 947 1791 
Q 947 1169 1205 825 
Q 1463 481 1925 481 
Q 2391 481 2648 825 
Q 2906 1169 2906 1791 
z
M 3481 434 
Q 3481 -459 3084 -895 
Q 2688 -1331 1869 -1331 
Q 1566 -1331 1297 -1286 
Q 1028 -1241 775 -1147 
L 775 -588 
Q 1028 -725 1275 -790 
Q 1522 -856 1778 -856 
Q 2344 -856 2625 -561 
Q 2906 -266 2906 331 
L 2906 616 
Q 2728 306 2450 153 
Q 2172 0 1784 0 
Q 1141 0 747 490 
Q 353 981 353 1791 
Q 353 2603 747 3093 
Q 1141 3584 1784 3584 
Q 2172 3584 2450 3431 
Q 2728 3278 2906 2969 
L 2906 3500 
L 3481 3500 
L 3481 434 
z
" transform="scale(0.015625)"/>
      <path id="DejaVuSans-65" d="M 3597 1894 
L 3597 1613 
L 953 1613 
Q 991 1019 1311 708 
Q 1631 397 2203 397 
Q 2534 397 2845 478 
Q 3156 559 3463 722 
L 3463 178 
Q 3153 47 2828 -22 
Q 2503 -91 2169 -91 
Q 1331 -91 842 396 
Q 353 884 353 1716 
Q 353 2575 817 3079 
Q 1281 3584 2069 3584 
Q 2775 3584 3186 3129 
Q 3597 2675 3597 1894 
z
M 3022 2063 
Q 3016 2534 2758 2815 
Q 2500 3097 2075 3097 
Q 1594 3097 1305 2825 
Q 1016 2553 972 2059 
L 3022 2063 
z
" transform="scale(0.015625)"/>
      <path id="DejaVuSans-74" d="M 1172 4494 
L 1172 3500 
L 2356 3500 
L 2356 3053 
L 1172 3053 
L 1172 1153 
Q 1172 725 1289 603 
Q 1406 481 1766 481 
L 2356 481 
L 2356 0 
L 1766 0 
Q 1100 0 847 248 
Q 594 497 594 1153 
L 594 3053 
L 172 3053 
L 172 3500 
L 594 3500 
L 594 4494 
L 1172 4494 
z
" transform="scale(0.015625)"/>
      <path id="DejaVuSans-5f" d="M 3263 -1063 
L 3263 -1509 
L -63 -1509 
L -63 -1063 
L 3263 -1063 
z
" transform="scale(0.015625)"/>
      <path id="DejaVuSans-73" d="M 2834 3397 
L 2834 2853 
Q 2591 2978 2328 3040 
Q 2066 3103 1784 3103 
Q 1356 3103 1142 2972 
Q 928 2841 928 2578 
Q 928 2378 1081 2264 
Q 1234 2150 1697 2047 
L 1894 2003 
Q 2506 1872 2764 1633 
Q 3022 1394 3022 966 
Q 3022 478 2636 193 
Q 2250 -91 1575 -91 
Q 1294 -91 989 -36 
Q 684 19 347 128 
L 347 722 
Q 666 556 975 473 
Q 1284 391 1588 391 
Q 1994 391 2212 530 
Q 2431 669 2431 922 
Q 2431 1156 2273 1281 
Q 2116 1406 1581 1522 
L 1381 1569 
Q 847 1681 609 1914 
Q 372 2147 372 2553 
Q 372 3047 722 3315 
Q 1072 3584 1716 3584 
Q 2034 3584 2315 3537 
Q 2597 3491 2834 3397 
z
" transform="scale(0.015625)"/>
      <path id="DejaVuSans-75" d="M 544 1381 
L 544 3500 
L 1119 3500 
L 1119 1403 
Q 1119 906 1312 657 
Q 1506 409 1894 409 
Q 2359 409 2629 706 
Q 2900 1003 2900 1516 
L 2900 3500 
L 3475 3500 
L 3475 0 
L 2900 0 
L 2900 538 
Q 2691 219 2414 64 
Q 2138 -91 1772 -91 
Q 1169 -91 856 284 
Q 544 659 544 1381 
z
M 1991 3584 
L 1991 3584 
z
" transform="scale(0.015625)"/>
      <path id="DejaVuSans-62" d="M 3116 1747 
Q 3116 2381 2855 2742 
Q 2594 3103 2138 3103 
Q 1681 3103 1420 2742 
Q 1159 2381 1159 1747 
Q 1159 1113 1420 752 
Q 1681 391 2138 391 
Q 2594 391 2855 752 
Q 3116 1113 3116 1747 
z
M 1159 2969 
Q 1341 3281 1617 3432 
Q 1894 3584 2278 3584 
Q 2916 3584 3314 3078 
Q 3713 2572 3713 1747 
Q 3713 922 3314 415 
Q 2916 -91 2278 -91 
Q 1894 -91 1617 61 
Q 1341 213 1159 525 
L 1159 0 
L 581 0 
L 581 4863 
L 1159 4863 
L 1159 2969 
z
" transform="scale(0.015625)"/>
      <path id="DejaVuSans-63" d="M 3122 3366 
L 3122 2828 
Q 2878 2963 2633 3030 
Q 2388 3097 2138 3097 
Q 1578 3097 1268 2742 
Q 959 2388 959 1747 
Q 959 1106 1268 751 
Q 1578 397 2138 397 
Q 2388 397 2633 464 
Q 2878 531 3122 666 
L 3122 134 
Q 2881 22 2623 -34 
Q 2366 -91 2075 -91 
Q 1284 -91 818 406 
Q 353 903 353 1747 
Q 353 2603 823 3093 
Q 1294 3584 2113 3584 
Q 2378 3584 2631 3529 
Q 2884 3475 3122 3366 
z
" transform="scale(0.015625)"/>
      <path id="DejaVuSans-72" d="M 2631 2963 
Q 2534 3019 2420 3045 
Q 2306 3072 2169 3072 
Q 1681 3072 1420 2755 
Q 1159 2438 1159 1844 
L 1159 0 
L 581 0 
L 581 3500 
L 1159 3500 
L 1159 2956 
Q 1341 3275 1631 3429 
Q 1922 3584 2338 3584 
Q 2397 3584 2469 3576 
Q 2541 3569 2628 3553 
L 2631 2963 
z
" transform="scale(0.015625)"/>
      <path id="DejaVuSans-69" d="M 603 3500 
L 1178 3500 
L 1178 0 
L 603 0 
L 603 3500 
z
M 603 4863 
L 1178 4863 
L 1178 4134 
L 603 4134 
L 603 4863 
z
" transform="scale(0.015625)"/>
      <path id="DejaVuSans-20" transform="scale(0.015625)"/>
      <path id="DejaVuSans-68" d="M 3513 2113 
L 3513 0 
L 2938 0 
L 2938 2094 
Q 2938 2591 2744 2837 
Q 2550 3084 2163 3084 
Q 1697 3084 1428 2787 
Q 1159 2491 1159 1978 
L 1159 0 
L 581 0 
L 581 4863 
L 1159 4863 
L 1159 2956 
Q 1366 3272 1645 3428 
Q 1925 3584 2291 3584 
Q 2894 3584 3203 3211 
Q 3513 2838 3513 2113 
z
" transform="scale(0.015625)"/>
      <path id="DejaVuSans-6f" d="M 1959 3097 
Q 1497 3097 1228 2736 
Q 959 2375 959 1747 
Q 959 1119 1226 758 
Q 1494 397 1959 397 
Q 2419 397 2687 759 
Q 2956 1122 2956 1747 
Q 2956 2369 2687 2733 
Q 2419 3097 1959 3097 
z
M 1959 3584 
Q 2709 3584 3137 3096 
Q 3566 2609 3566 1747 
Q 3566 888 3137 398 
Q 2709 -91 1959 -91 
Q 1206 -91 779 398 
Q 353 888 353 1747 
Q 353 2609 779 3096 
Q 1206 3584 1959 3584 
z
" transform="scale(0.015625)"/>
      <path id="DejaVuSans-79" d="M 2059 -325 
Q 1816 -950 1584 -1140 
Q 1353 -1331 966 -1331 
L 506 -1331 
L 506 -850 
L 844 -850 
Q 1081 -850 1212 -737 
Q 1344 -625 1503 -206 
L 1606 56 
L 191 3500 
L 800 3500 
L 1894 763 
L 2988 3500 
L 3597 3500 
L 2059 -325 
z
" transform="scale(0.015625)"/>
     </defs>
     <use xlink:href="#DejaVuSans-67"/>
     <use xlink:href="#DejaVuSans-65" transform="translate(63.476562 0)"/>
     <use xlink:href="#DejaVuSans-74" transform="translate(125 0)"/>
     <use xlink:href="#DejaVuSans-5f" transform="translate(164.208984 0)"/>
     <use xlink:href="#DejaVuSans-73" transform="translate(214.208984 0)"/>
     <use xlink:href="#DejaVuSans-75" transform="translate(266.308594 0)"/>
     <use xlink:href="#DejaVuSans-62" transform="translate(329.6875 0)"/>
     <use xlink:href="#DejaVuSans-73" transform="translate(393.164062 0)"/>
     <use xlink:href="#DejaVuSans-63" transform="translate(445.263672 0)"/>
     <use xlink:href="#DejaVuSans-72" transform="translate(500.244141 0)"/>
     <use xlink:href="#DejaVuSans-69" transform="translate(541.357422 0)"/>
     <use xlink:href="#DejaVuSans-62" transform="translate(569.140625 0)"/>
     <use xlink:href="#DejaVuSans-65" transform="translate(632.617188 0)"/>
     <use xlink:href="#DejaVuSans-20" transform="translate(694.140625 0)"/>
     <use xlink:href="#DejaVuSans-68" transform="translate(725.927734 0)"/>
     <use xlink:href="#DejaVuSans-69" transform="translate(789.306641 0)"/>
     <use xlink:href="#DejaVuSans-73" transform="translate(817.089844 0)"/>
     <use xlink:href="#DejaVuSans-74" transform="translate(869.189453 0)"/>
     <use xlink:href="#DejaVuSans-6f" transform="translate(908.398438 0)"/>
     <use xlink:href="#DejaVuSans-72" transform="translate(969.580078 0)"/>
     <use xlink:href="#DejaVuSans-79" transform="translate(1010.693359 0)"/>
    </g>
   </g>
   <g id="legend_1">
    <g id="line2d_39">
     <path d="M 815.08 328.498438 
L 825.08 328.498438 
L 835.08 328.498438 
" style="fill: none; stroke: #1f77b4; stroke-width: 1.5; stroke-linecap: square"/>
    </g>
    <g id="text_20">
     <!-- star -->
     <g style="fill: #a9a9a9" transform="translate(843.08 331.998438) scale(0.1 -0.1)">
      <defs>
       <path id="DejaVuSans-61" d="M 2194 1759 
Q 1497 1759 1228 1600 
Q 959 1441 959 1056 
Q 959 750 1161 570 
Q 1363 391 1709 391 
Q 2188 391 2477 730 
Q 2766 1069 2766 1631 
L 2766 1759 
L 2194 1759 
z
M 3341 1997 
L 3341 0 
L 2766 0 
L 2766 531 
Q 2569 213 2275 61 
Q 1981 -91 1556 -91 
Q 1019 -91 701 211 
Q 384 513 384 1019 
Q 384 1609 779 1909 
Q 1175 2209 1959 2209 
L 2766 2209 
L 2766 2266 
Q 2766 2663 2505 2880 
Q 2244 3097 1772 3097 
Q 1472 3097 1187 3025 
Q 903 2953 641 2809 
L 641 3341 
Q 956 3463 1253 3523 
Q 1550 3584 1831 3584 
Q 2591 3584 2966 3190 
Q 3341 2797 3341 1997 
z
" transform="scale(0.015625)"/>
      </defs>
      <use xlink:href="#DejaVuSans-73"/>
      <use xlink:href="#DejaVuSans-74" transform="translate(52.099609 0)"/>
      <use xlink:href="#DejaVuSans-61" transform="translate(91.308594 0)"/>
      <use xlink:href="#DejaVuSans-72" transform="translate(152.587891 0)"/>
     </g>
    </g>
    <g id="line2d_40">
     <path d="M 815.08 343.176562 
L 825.08 343.176562 
L 835.08 343.176562 
" style="fill: none; stroke: #ff7f0e; stroke-width: 1.5; stroke-linecap: square"/>
    </g>
    <g id="text_21">
     <!-- fork -->
     <g style="fill: #a9a9a9" transform="translate(843.08 346.676562) scale(0.1 -0.1)">
      <defs>
       <path id="DejaVuSans-66" d="M 2375 4863 
L 2375 4384 
L 1825 4384 
Q 1516 4384 1395 4259 
Q 1275 4134 1275 3809 
L 1275 3500 
L 2222 3500 
L 2222 3053 
L 1275 3053 
L 1275 0 
L 697 0 
L 697 3053 
L 147 3053 
L 147 3500 
L 697 3500 
L 697 3744 
Q 697 4328 969 4595 
Q 1241 4863 1831 4863 
L 2375 4863 
z
" transform="scale(0.015625)"/>
       <path id="DejaVuSans-6b" d="M 581 4863 
L 1159 4863 
L 1159 1991 
L 2875 3500 
L 3609 3500 
L 1753 1863 
L 3688 0 
L 2938 0 
L 1159 1709 
L 1159 0 
L 581 0 
L 581 4863 
z
" transform="scale(0.015625)"/>
      </defs>
      <use xlink:href="#DejaVuSans-66"/>
      <use xlink:href="#DejaVuSans-6f" transform="translate(35.205078 0)"/>
      <use xlink:href="#DejaVuSans-72" transform="translate(96.386719 0)"/>
      <use xlink:href="#DejaVuSans-6b" transform="translate(137.5 0)"/>
     </g>
    </g>
   </g>
  </g>
 </g>
 <defs>
  <clipPath id="pa8bea3b6a4">
   <rect x="108" y="43.2" width="669.6" height="277.2"/>
  </clipPath>
 </defs>
</svg>
