<?xml version="1.0" encoding="utf-8" standalone="no"?>
<!DOCTYPE svg PUBLIC "-//W3C//DTD SVG 1.1//EN"
  "http://www.w3.org/Graphics/SVG/1.1/DTD/svg11.dtd">
<svg xmlns:xlink="http://www.w3.org/1999/xlink" width="864pt" height="360pt" viewBox="0 0 864 360" xmlns="http://www.w3.org/2000/svg" version="1.1">
 <metadata>
  <rdf:RDF xmlns:dc="http://purl.org/dc/elements/1.1/" xmlns:cc="http://creativecommons.org/ns#" xmlns:rdf="http://www.w3.org/1999/02/22-rdf-syntax-ns#">
   <cc:Work>
    <dc:type rdf:resource="http://purl.org/dc/dcmitype/StillImage"/>
    <dc:date>2025-06-23T08:17:14.767260</dc:date>
    <dc:format>image/svg+xml</dc:format>
    <dc:creator>
     <cc:Agent>
      <dc:title>Matplotlib v3.10.3, https://matplotlib.org/</dc:title>
     </cc:Agent>
    </dc:creator>
   </cc:Work>
  </rdf:RDF>
 </metadata>
 <defs>
  <style type="text/css">*{stroke-linejoin: round; stroke-linecap: butt}</style>
 </defs>
 <g id="figure_1">
  <g id="patch_1">
   <path d="M 0 360 
L 864 360 
L 864 0 
L 0 0 
L 0 360 
z
" style="fill: none; opacity: 0"/>
  </g>
  <g id="axes_1">
   <g id="patch_2">
    <path d="M 108 320.4 
L 777.6 320.4 
L 777.6 43.2 
L 108 43.2 
L 108 320.4 
z
" style="fill: none; opacity: 0"/>
   </g>
   <g id="matplotlib.axis_1">
    <g id="xtick_1">
     <g id="line2d_1">
      <path d="M 128.645645 320.4 
L 128.645645 43.2 
" clip-path="url(#p6b386d9b72)" style="fill: none; stroke-dasharray: 5.12,1.28,0.8,1.28; stroke-dashoffset: 0; stroke: #b0b0b0; stroke-width: 0.8"/>
     </g>
     <g id="line2d_2">
      <defs>
       <path id="m819b2b20c5" d="M 0 0 
L 0 3.5 
" style="stroke: #a9a9a9; stroke-width: 0.8"/>
      </defs>
      <g>
       <use xlink:href="#m819b2b20c5" x="128.645645" y="320.4" style="fill: #a9a9a9; stroke: #a9a9a9; stroke-width: 0.8"/>
      </g>
     </g>
     <g id="text_1">
      <!-- 2021-07 -->
      <g style="fill: #a9a9a9" transform="translate(107.754239 334.998438) scale(0.1 -0.1)">
       <defs>
        <path id="DejaVuSans-32" d="M 1228 531 
L 3431 531 
L 3431 0 
L 469 0 
L 469 531 
Q 828 903 1448 1529 
Q 2069 2156 2228 2338 
Q 2531 2678 2651 2914 
Q 2772 3150 2772 3378 
Q 2772 3750 2511 3984 
Q 2250 4219 1831 4219 
Q 1534 4219 1204 4116 
Q 875 4013 500 3803 
L 500 4441 
Q 881 4594 1212 4672 
Q 1544 4750 1819 4750 
Q 2544 4750 2975 4387 
Q 3406 4025 3406 3419 
Q 3406 3131 3298 2873 
Q 3191 2616 2906 2266 
Q 2828 2175 2409 1742 
Q 1991 1309 1228 531 
z
" transform="scale(0.015625)"/>
        <path id="DejaVuSans-30" d="M 2034 4250 
Q 1547 4250 1301 3770 
Q 1056 3291 1056 2328 
Q 1056 1369 1301 889 
Q 1547 409 2034 409 
Q 2525 409 2770 889 
Q 3016 1369 3016 2328 
Q 3016 3291 2770 3770 
Q 2525 4250 2034 4250 
z
M 2034 4750 
Q 2819 4750 3233 4129 
Q 3647 3509 3647 2328 
Q 3647 1150 3233 529 
Q 2819 -91 2034 -91 
Q 1250 -91 836 529 
Q 422 1150 422 2328 
Q 422 3509 836 4129 
Q 1250 4750 2034 4750 
z
" transform="scale(0.015625)"/>
        <path id="DejaVuSans-31" d="M 794 531 
L 1825 531 
L 1825 4091 
L 703 3866 
L 703 4441 
L 1819 4666 
L 2450 4666 
L 2450 531 
L 3481 531 
L 3481 0 
L 794 0 
L 794 531 
z
" transform="scale(0.015625)"/>
        <path id="DejaVuSans-2d" d="M 313 2009 
L 1997 2009 
L 1997 1497 
L 313 1497 
L 313 2009 
z
" transform="scale(0.015625)"/>
        <path id="DejaVuSans-37" d="M 525 4666 
L 3525 4666 
L 3525 4397 
L 1831 0 
L 1172 0 
L 2766 4134 
L 525 4134 
L 525 4666 
z
" transform="scale(0.015625)"/>
       </defs>
       <use xlink:href="#DejaVuSans-32"/>
       <use xlink:href="#DejaVuSans-30" transform="translate(63.623047 0)"/>
       <use xlink:href="#DejaVuSans-32" transform="translate(127.246094 0)"/>
       <use xlink:href="#DejaVuSans-31" transform="translate(190.869141 0)"/>
       <use xlink:href="#DejaVuSans-2d" transform="translate(254.492188 0)"/>
       <use xlink:href="#DejaVuSans-30" transform="translate(290.576172 0)"/>
       <use xlink:href="#DejaVuSans-37" transform="translate(354.199219 0)"/>
      </g>
     </g>
    </g>
    <g id="xtick_2">
     <g id="line2d_3">
      <path d="M 206.971392 320.4 
L 206.971392 43.2 
" clip-path="url(#p6b386d9b72)" style="fill: none; stroke-dasharray: 5.12,1.28,0.8,1.28; stroke-dashoffset: 0; stroke: #b0b0b0; stroke-width: 0.8"/>
     </g>
     <g id="line2d_4">
      <g>
       <use xlink:href="#m819b2b20c5" x="206.971392" y="320.4" style="fill: #a9a9a9; stroke: #a9a9a9; stroke-width: 0.8"/>
      </g>
     </g>
     <g id="text_2">
      <!-- 2022-01 -->
      <g style="fill: #a9a9a9" transform="translate(186.079986 334.998438) scale(0.1 -0.1)">
       <use xlink:href="#DejaVuSans-32"/>
       <use xlink:href="#DejaVuSans-30" transform="translate(63.623047 0)"/>
       <use xlink:href="#DejaVuSans-32" transform="translate(127.246094 0)"/>
       <use xlink:href="#DejaVuSans-32" transform="translate(190.869141 0)"/>
       <use xlink:href="#DejaVuSans-2d" transform="translate(254.492188 0)"/>
       <use xlink:href="#DejaVuSans-30" transform="translate(290.576172 0)"/>
       <use xlink:href="#DejaVuSans-31" transform="translate(354.199219 0)"/>
      </g>
     </g>
    </g>
    <g id="xtick_3">
     <g id="line2d_5">
      <path d="M 284.020089 320.4 
L 284.020089 43.2 
" clip-path="url(#p6b386d9b72)" style="fill: none; stroke-dasharray: 5.12,1.28,0.8,1.28; stroke-dashoffset: 0; stroke: #b0b0b0; stroke-width: 0.8"/>
     </g>
     <g id="line2d_6">
      <g>
       <use xlink:href="#m819b2b20c5" x="284.020089" y="320.4" style="fill: #a9a9a9; stroke: #a9a9a9; stroke-width: 0.8"/>
      </g>
     </g>
     <g id="text_3">
      <!-- 2022-07 -->
      <g style="fill: #a9a9a9" transform="translate(263.128683 334.998438) scale(0.1 -0.1)">
       <use xlink:href="#DejaVuSans-32"/>
       <use xlink:href="#DejaVuSans-30" transform="translate(63.623047 0)"/>
       <use xlink:href="#DejaVuSans-32" transform="translate(127.246094 0)"/>
       <use xlink:href="#DejaVuSans-32" transform="translate(190.869141 0)"/>
       <use xlink:href="#DejaVuSans-2d" transform="translate(254.492188 0)"/>
       <use xlink:href="#DejaVuSans-30" transform="translate(290.576172 0)"/>
       <use xlink:href="#DejaVuSans-37" transform="translate(354.199219 0)"/>
      </g>
     </g>
    </g>
    <g id="xtick_4">
     <g id="line2d_7">
      <path d="M 362.345836 320.4 
L 362.345836 43.2 
" clip-path="url(#p6b386d9b72)" style="fill: none; stroke-dasharray: 5.12,1.28,0.8,1.28; stroke-dashoffset: 0; stroke: #b0b0b0; stroke-width: 0.8"/>
     </g>
     <g id="line2d_8">
      <g>
       <use xlink:href="#m819b2b20c5" x="362.345836" y="320.4" style="fill: #a9a9a9; stroke: #a9a9a9; stroke-width: 0.8"/>
      </g>
     </g>
     <g id="text_4">
      <!-- 2023-01 -->
      <g style="fill: #a9a9a9" transform="translate(341.45443 334.998438) scale(0.1 -0.1)">
       <defs>
        <path id="DejaVuSans-33" d="M 2597 2516 
Q 3050 2419 3304 2112 
Q 3559 1806 3559 1356 
Q 3559 666 3084 287 
Q 2609 -91 1734 -91 
Q 1441 -91 1130 -33 
Q 819 25 488 141 
L 488 750 
Q 750 597 1062 519 
Q 1375 441 1716 441 
Q 2309 441 2620 675 
Q 2931 909 2931 1356 
Q 2931 1769 2642 2001 
Q 2353 2234 1838 2234 
L 1294 2234 
L 1294 2753 
L 1863 2753 
Q 2328 2753 2575 2939 
Q 2822 3125 2822 3475 
Q 2822 3834 2567 4026 
Q 2313 4219 1838 4219 
Q 1578 4219 1281 4162 
Q 984 4106 628 3988 
L 628 4550 
Q 988 4650 1302 4700 
Q 1616 4750 1894 4750 
Q 2613 4750 3031 4423 
Q 3450 4097 3450 3541 
Q 3450 3153 3228 2886 
Q 3006 2619 2597 2516 
z
" transform="scale(0.015625)"/>
       </defs>
       <use xlink:href="#DejaVuSans-32"/>
       <use xlink:href="#DejaVuSans-30" transform="translate(63.623047 0)"/>
       <use xlink:href="#DejaVuSans-32" transform="translate(127.246094 0)"/>
       <use xlink:href="#DejaVuSans-33" transform="translate(190.869141 0)"/>
       <use xlink:href="#DejaVuSans-2d" transform="translate(254.492188 0)"/>
       <use xlink:href="#DejaVuSans-30" transform="translate(290.576172 0)"/>
       <use xlink:href="#DejaVuSans-31" transform="translate(354.199219 0)"/>
      </g>
     </g>
    </g>
    <g id="xtick_5">
     <g id="line2d_9">
      <path d="M 439.394533 320.4 
L 439.394533 43.2 
" clip-path="url(#p6b386d9b72)" style="fill: none; stroke-dasharray: 5.12,1.28,0.8,1.28; stroke-dashoffset: 0; stroke: #b0b0b0; stroke-width: 0.8"/>
     </g>
     <g id="line2d_10">
      <g>
       <use xlink:href="#m819b2b20c5" x="439.394533" y="320.4" style="fill: #a9a9a9; stroke: #a9a9a9; stroke-width: 0.8"/>
      </g>
     </g>
     <g id="text_5">
      <!-- 2023-07 -->
      <g style="fill: #a9a9a9" transform="translate(418.503126 334.998438) scale(0.1 -0.1)">
       <use xlink:href="#DejaVuSans-32"/>
       <use xlink:href="#DejaVuSans-30" transform="translate(63.623047 0)"/>
       <use xlink:href="#DejaVuSans-32" transform="translate(127.246094 0)"/>
       <use xlink:href="#DejaVuSans-33" transform="translate(190.869141 0)"/>
       <use xlink:href="#DejaVuSans-2d" transform="translate(254.492188 0)"/>
       <use xlink:href="#DejaVuSans-30" transform="translate(290.576172 0)"/>
       <use xlink:href="#DejaVuSans-37" transform="translate(354.199219 0)"/>
      </g>
     </g>
    </g>
    <g id="xtick_6">
     <g id="line2d_11">
      <path d="M 517.72028 320.4 
L 517.72028 43.2 
" clip-path="url(#p6b386d9b72)" style="fill: none; stroke-dasharray: 5.12,1.28,0.8,1.28; stroke-dashoffset: 0; stroke: #b0b0b0; stroke-width: 0.8"/>
     </g>
     <g id="line2d_12">
      <g>
       <use xlink:href="#m819b2b20c5" x="517.72028" y="320.4" style="fill: #a9a9a9; stroke: #a9a9a9; stroke-width: 0.8"/>
      </g>
     </g>
     <g id="text_6">
      <!-- 2024-01 -->
      <g style="fill: #a9a9a9" transform="translate(496.828873 334.998438) scale(0.1 -0.1)">
       <defs>
        <path id="DejaVuSans-34" d="M 2419 4116 
L 825 1625 
L 2419 1625 
L 2419 4116 
z
M 2253 4666 
L 3047 4666 
L 3047 1625 
L 3713 1625 
L 3713 1100 
L 3047 1100 
L 3047 0 
L 2419 0 
L 2419 1100 
L 313 1100 
L 313 1709 
L 2253 4666 
z
" transform="scale(0.015625)"/>
       </defs>
       <use xlink:href="#DejaVuSans-32"/>
       <use xlink:href="#DejaVuSans-30" transform="translate(63.623047 0)"/>
       <use xlink:href="#DejaVuSans-32" transform="translate(127.246094 0)"/>
       <use xlink:href="#DejaVuSans-34" transform="translate(190.869141 0)"/>
       <use xlink:href="#DejaVuSans-2d" transform="translate(254.492188 0)"/>
       <use xlink:href="#DejaVuSans-30" transform="translate(290.576172 0)"/>
       <use xlink:href="#DejaVuSans-31" transform="translate(354.199219 0)"/>
      </g>
     </g>
    </g>
    <g id="xtick_7">
     <g id="line2d_13">
      <path d="M 595.19466 320.4 
L 595.19466 43.2 
" clip-path="url(#p6b386d9b72)" style="fill: none; stroke-dasharray: 5.12,1.28,0.8,1.28; stroke-dashoffset: 0; stroke: #b0b0b0; stroke-width: 0.8"/>
     </g>
     <g id="line2d_14">
      <g>
       <use xlink:href="#m819b2b20c5" x="595.19466" y="320.4" style="fill: #a9a9a9; stroke: #a9a9a9; stroke-width: 0.8"/>
      </g>
     </g>
     <g id="text_7">
      <!-- 2024-07 -->
      <g style="fill: #a9a9a9" transform="translate(574.303254 334.998438) scale(0.1 -0.1)">
       <use xlink:href="#DejaVuSans-32"/>
       <use xlink:href="#DejaVuSans-30" transform="translate(63.623047 0)"/>
       <use xlink:href="#DejaVuSans-32" transform="translate(127.246094 0)"/>
       <use xlink:href="#DejaVuSans-34" transform="translate(190.869141 0)"/>
       <use xlink:href="#DejaVuSans-2d" transform="translate(254.492188 0)"/>
       <use xlink:href="#DejaVuSans-30" transform="translate(290.576172 0)"/>
       <use xlink:href="#DejaVuSans-37" transform="translate(354.199219 0)"/>
      </g>
     </g>
    </g>
    <g id="xtick_8">
     <g id="line2d_15">
      <path d="M 673.520407 320.4 
L 673.520407 43.2 
" clip-path="url(#p6b386d9b72)" style="fill: none; stroke-dasharray: 5.12,1.28,0.8,1.28; stroke-dashoffset: 0; stroke: #b0b0b0; stroke-width: 0.8"/>
     </g>
     <g id="line2d_16">
      <g>
       <use xlink:href="#m819b2b20c5" x="673.520407" y="320.4" style="fill: #a9a9a9; stroke: #a9a9a9; stroke-width: 0.8"/>
      </g>
     </g>
     <g id="text_8">
      <!-- 2025-01 -->
      <g style="fill: #a9a9a9" transform="translate(652.629001 334.998438) scale(0.1 -0.1)">
       <defs>
        <path id="DejaVuSans-35" d="M 691 4666 
L 3169 4666 
L 3169 4134 
L 1269 4134 
L 1269 2991 
Q 1406 3038 1543 3061 
Q 1681 3084 1819 3084 
Q 2600 3084 3056 2656 
Q 3513 2228 3513 1497 
Q 3513 744 3044 326 
Q 2575 -91 1722 -91 
Q 1428 -91 1123 -41 
Q 819 9 494 109 
L 494 744 
Q 775 591 1075 516 
Q 1375 441 1709 441 
Q 2250 441 2565 725 
Q 2881 1009 2881 1497 
Q 2881 1984 2565 2268 
Q 2250 2553 1709 2553 
Q 1456 2553 1204 2497 
Q 953 2441 691 2322 
L 691 4666 
z
" transform="scale(0.015625)"/>
       </defs>
       <use xlink:href="#DejaVuSans-32"/>
       <use xlink:href="#DejaVuSans-30" transform="translate(63.623047 0)"/>
       <use xlink:href="#DejaVuSans-32" transform="translate(127.246094 0)"/>
       <use xlink:href="#DejaVuSans-35" transform="translate(190.869141 0)"/>
       <use xlink:href="#DejaVuSans-2d" transform="translate(254.492188 0)"/>
       <use xlink:href="#DejaVuSans-30" transform="translate(290.576172 0)"/>
       <use xlink:href="#DejaVuSans-31" transform="translate(354.199219 0)"/>
      </g>
     </g>
    </g>
    <g id="xtick_9">
     <g id="line2d_17">
      <path d="M 750.569104 320.4 
L 750.569104 43.2 
" clip-path="url(#p6b386d9b72)" style="fill: none; stroke-dasharray: 5.12,1.28,0.8,1.28; stroke-dashoffset: 0; stroke: #b0b0b0; stroke-width: 0.8"/>
     </g>
     <g id="line2d_18">
      <g>
       <use xlink:href="#m819b2b20c5" x="750.569104" y="320.4" style="fill: #a9a9a9; stroke: #a9a9a9; stroke-width: 0.8"/>
      </g>
     </g>
     <g id="text_9">
      <!-- 2025-07 -->
      <g style="fill: #a9a9a9" transform="translate(729.677697 334.998438) scale(0.1 -0.1)">
       <use xlink:href="#DejaVuSans-32"/>
       <use xlink:href="#DejaVuSans-30" transform="translate(63.623047 0)"/>
       <use xlink:href="#DejaVuSans-32" transform="translate(127.246094 0)"/>
       <use xlink:href="#DejaVuSans-35" transform="translate(190.869141 0)"/>
       <use xlink:href="#DejaVuSans-2d" transform="translate(254.492188 0)"/>
       <use xlink:href="#DejaVuSans-30" transform="translate(290.576172 0)"/>
       <use xlink:href="#DejaVuSans-37" transform="translate(354.199219 0)"/>
      </g>
     </g>
    </g>
   </g>
   <g id="matplotlib.axis_2">
    <g id="ytick_1">
     <g id="line2d_19">
      <path d="M 108 307.832483 
L 777.6 307.832483 
" clip-path="url(#p6b386d9b72)" style="fill: none; stroke-dasharray: 5.12,1.28,0.8,1.28; stroke-dashoffset: 0; stroke: #b0b0b0; stroke-width: 0.8"/>
     </g>
     <g id="line2d_20">
      <defs>
       <path id="m020165b198" d="M 0 0 
L -3.5 0 
" style="stroke: #a9a9a9; stroke-width: 0.8"/>
      </defs>
      <g>
       <use xlink:href="#m020165b198" x="108" y="307.832483" style="fill: #a9a9a9; stroke: #a9a9a9; stroke-width: 0.8"/>
      </g>
     </g>
     <g id="text_10">
      <!-- 0 -->
      <g style="fill: #a9a9a9" transform="translate(94.6375 311.631701) scale(0.1 -0.1)">
       <use xlink:href="#DejaVuSans-30"/>
      </g>
     </g>
    </g>
    <g id="ytick_2">
     <g id="line2d_21">
      <path d="M 108 275.349884 
L 777.6 275.349884 
" clip-path="url(#p6b386d9b72)" style="fill: none; stroke-dasharray: 5.12,1.28,0.8,1.28; stroke-dashoffset: 0; stroke: #b0b0b0; stroke-width: 0.8"/>
     </g>
     <g id="line2d_22">
      <g>
       <use xlink:href="#m020165b198" x="108" y="275.349884" style="fill: #a9a9a9; stroke: #a9a9a9; stroke-width: 0.8"/>
      </g>
     </g>
     <g id="text_11">
      <!-- 1000 -->
      <g style="fill: #a9a9a9" transform="translate(75.55 279.149103) scale(0.1 -0.1)">
       <use xlink:href="#DejaVuSans-31"/>
       <use xlink:href="#DejaVuSans-30" transform="translate(63.623047 0)"/>
       <use xlink:href="#DejaVuSans-30" transform="translate(127.246094 0)"/>
       <use xlink:href="#DejaVuSans-30" transform="translate(190.869141 0)"/>
      </g>
     </g>
    </g>
    <g id="ytick_3">
     <g id="line2d_23">
      <path d="M 108 242.867285 
L 777.6 242.867285 
" clip-path="url(#p6b386d9b72)" style="fill: none; stroke-dasharray: 5.12,1.28,0.8,1.28; stroke-dashoffset: 0; stroke: #b0b0b0; stroke-width: 0.8"/>
     </g>
     <g id="line2d_24">
      <g>
       <use xlink:href="#m020165b198" x="108" y="242.867285" style="fill: #a9a9a9; stroke: #a9a9a9; stroke-width: 0.8"/>
      </g>
     </g>
     <g id="text_12">
      <!-- 2000 -->
      <g style="fill: #a9a9a9" transform="translate(75.55 246.666504) scale(0.1 -0.1)">
       <use xlink:href="#DejaVuSans-32"/>
       <use xlink:href="#DejaVuSans-30" transform="translate(63.623047 0)"/>
       <use xlink:href="#DejaVuSans-30" transform="translate(127.246094 0)"/>
       <use xlink:href="#DejaVuSans-30" transform="translate(190.869141 0)"/>
      </g>
     </g>
    </g>
    <g id="ytick_4">
     <g id="line2d_25">
      <path d="M 108 210.384687 
L 777.6 210.384687 
" clip-path="url(#p6b386d9b72)" style="fill: none; stroke-dasharray: 5.12,1.28,0.8,1.28; stroke-dashoffset: 0; stroke: #b0b0b0; stroke-width: 0.8"/>
     </g>
     <g id="line2d_26">
      <g>
       <use xlink:href="#m020165b198" x="108" y="210.384687" style="fill: #a9a9a9; stroke: #a9a9a9; stroke-width: 0.8"/>
      </g>
     </g>
     <g id="text_13">
      <!-- 3000 -->
      <g style="fill: #a9a9a9" transform="translate(75.55 214.183906) scale(0.1 -0.1)">
       <use xlink:href="#DejaVuSans-33"/>
       <use xlink:href="#DejaVuSans-30" transform="translate(63.623047 0)"/>
       <use xlink:href="#DejaVuSans-30" transform="translate(127.246094 0)"/>
       <use xlink:href="#DejaVuSans-30" transform="translate(190.869141 0)"/>
      </g>
     </g>
    </g>
    <g id="ytick_5">
     <g id="line2d_27">
      <path d="M 108 177.902088 
L 777.6 177.902088 
" clip-path="url(#p6b386d9b72)" style="fill: none; stroke-dasharray: 5.12,1.28,0.8,1.28; stroke-dashoffset: 0; stroke: #b0b0b0; stroke-width: 0.8"/>
     </g>
     <g id="line2d_28">
      <g>
       <use xlink:href="#m020165b198" x="108" y="177.902088" style="fill: #a9a9a9; stroke: #a9a9a9; stroke-width: 0.8"/>
      </g>
     </g>
     <g id="text_14">
      <!-- 4000 -->
      <g style="fill: #a9a9a9" transform="translate(75.55 181.701307) scale(0.1 -0.1)">
       <use xlink:href="#DejaVuSans-34"/>
       <use xlink:href="#DejaVuSans-30" transform="translate(63.623047 0)"/>
       <use xlink:href="#DejaVuSans-30" transform="translate(127.246094 0)"/>
       <use xlink:href="#DejaVuSans-30" transform="translate(190.869141 0)"/>
      </g>
     </g>
    </g>
    <g id="ytick_6">
     <g id="line2d_29">
      <path d="M 108 145.41949 
L 777.6 145.41949 
" clip-path="url(#p6b386d9b72)" style="fill: none; stroke-dasharray: 5.12,1.28,0.8,1.28; stroke-dashoffset: 0; stroke: #b0b0b0; stroke-width: 0.8"/>
     </g>
     <g id="line2d_30">
      <g>
       <use xlink:href="#m020165b198" x="108" y="145.41949" style="fill: #a9a9a9; stroke: #a9a9a9; stroke-width: 0.8"/>
      </g>
     </g>
     <g id="text_15">
      <!-- 5000 -->
      <g style="fill: #a9a9a9" transform="translate(75.55 149.218708) scale(0.1 -0.1)">
       <use xlink:href="#DejaVuSans-35"/>
       <use xlink:href="#DejaVuSans-30" transform="translate(63.623047 0)"/>
       <use xlink:href="#DejaVuSans-30" transform="translate(127.246094 0)"/>
       <use xlink:href="#DejaVuSans-30" transform="translate(190.869141 0)"/>
      </g>
     </g>
    </g>
    <g id="ytick_7">
     <g id="line2d_31">
      <path d="M 108 112.936891 
L 777.6 112.936891 
" clip-path="url(#p6b386d9b72)" style="fill: none; stroke-dasharray: 5.12,1.28,0.8,1.28; stroke-dashoffset: 0; stroke: #b0b0b0; stroke-width: 0.8"/>
     </g>
     <g id="line2d_32">
      <g>
       <use xlink:href="#m020165b198" x="108" y="112.936891" style="fill: #a9a9a9; stroke: #a9a9a9; stroke-width: 0.8"/>
      </g>
     </g>
     <g id="text_16">
      <!-- 6000 -->
      <g style="fill: #a9a9a9" transform="translate(75.55 116.73611) scale(0.1 -0.1)">
       <defs>
        <path id="DejaVuSans-36" d="M 2113 2584 
Q 1688 2584 1439 2293 
Q 1191 2003 1191 1497 
Q 1191 994 1439 701 
Q 1688 409 2113 409 
Q 2538 409 2786 701 
Q 3034 994 3034 1497 
Q 3034 2003 2786 2293 
Q 2538 2584 2113 2584 
z
M 3366 4563 
L 3366 3988 
Q 3128 4100 2886 4159 
Q 2644 4219 2406 4219 
Q 1781 4219 1451 3797 
Q 1122 3375 1075 2522 
Q 1259 2794 1537 2939 
Q 1816 3084 2150 3084 
Q 2853 3084 3261 2657 
Q 3669 2231 3669 1497 
Q 3669 778 3244 343 
Q 2819 -91 2113 -91 
Q 1303 -91 875 529 
Q 447 1150 447 2328 
Q 447 3434 972 4092 
Q 1497 4750 2381 4750 
Q 2619 4750 2861 4703 
Q 3103 4656 3366 4563 
z
" transform="scale(0.015625)"/>
       </defs>
       <use xlink:href="#DejaVuSans-36"/>
       <use xlink:href="#DejaVuSans-30" transform="translate(63.623047 0)"/>
       <use xlink:href="#DejaVuSans-30" transform="translate(127.246094 0)"/>
       <use xlink:href="#DejaVuSans-30" transform="translate(190.869141 0)"/>
      </g>
     </g>
    </g>
    <g id="ytick_8">
     <g id="line2d_33">
      <path d="M 108 80.454292 
L 777.6 80.454292 
" clip-path="url(#p6b386d9b72)" style="fill: none; stroke-dasharray: 5.12,1.28,0.8,1.28; stroke-dashoffset: 0; stroke: #b0b0b0; stroke-width: 0.8"/>
     </g>
     <g id="line2d_34">
      <g>
       <use xlink:href="#m020165b198" x="108" y="80.454292" style="fill: #a9a9a9; stroke: #a9a9a9; stroke-width: 0.8"/>
      </g>
     </g>
     <g id="text_17">
      <!-- 7000 -->
      <g style="fill: #a9a9a9" transform="translate(75.55 84.253511) scale(0.1 -0.1)">
       <use xlink:href="#DejaVuSans-37"/>
       <use xlink:href="#DejaVuSans-30" transform="translate(63.623047 0)"/>
       <use xlink:href="#DejaVuSans-30" transform="translate(127.246094 0)"/>
       <use xlink:href="#DejaVuSans-30" transform="translate(190.869141 0)"/>
      </g>
     </g>
    </g>
    <g id="ytick_9">
     <g id="line2d_35">
      <path d="M 108 47.971694 
L 777.6 47.971694 
" clip-path="url(#p6b386d9b72)" style="fill: none; stroke-dasharray: 5.12,1.28,0.8,1.28; stroke-dashoffset: 0; stroke: #b0b0b0; stroke-width: 0.8"/>
     </g>
     <g id="line2d_36">
      <g>
       <use xlink:href="#m020165b198" x="108" y="47.971694" style="fill: #a9a9a9; stroke: #a9a9a9; stroke-width: 0.8"/>
      </g>
     </g>
     <g id="text_18">
      <!-- 8000 -->
      <g style="fill: #a9a9a9" transform="translate(75.55 51.770912) scale(0.1 -0.1)">
       <defs>
        <path id="DejaVuSans-38" d="M 2034 2216 
Q 1584 2216 1326 1975 
Q 1069 1734 1069 1313 
Q 1069 891 1326 650 
Q 1584 409 2034 409 
Q 2484 409 2743 651 
Q 3003 894 3003 1313 
Q 3003 1734 2745 1975 
Q 2488 2216 2034 2216 
z
M 1403 2484 
Q 997 2584 770 2862 
Q 544 3141 544 3541 
Q 544 4100 942 4425 
Q 1341 4750 2034 4750 
Q 2731 4750 3128 4425 
Q 3525 4100 3525 3541 
Q 3525 3141 3298 2862 
Q 3072 2584 2669 2484 
Q 3125 2378 3379 2068 
Q 3634 1759 3634 1313 
Q 3634 634 3220 271 
Q 2806 -91 2034 -91 
Q 1263 -91 848 271 
Q 434 634 434 1313 
Q 434 1759 690 2068 
Q 947 2378 1403 2484 
z
M 1172 3481 
Q 1172 3119 1398 2916 
Q 1625 2713 2034 2713 
Q 2441 2713 2670 2916 
Q 2900 3119 2900 3481 
Q 2900 3844 2670 4047 
Q 2441 4250 2034 4250 
Q 1625 4250 1398 4047 
Q 1172 3844 1172 3481 
z
" transform="scale(0.015625)"/>
       </defs>
       <use xlink:href="#DejaVuSans-38"/>
       <use xlink:href="#DejaVuSans-30" transform="translate(63.623047 0)"/>
       <use xlink:href="#DejaVuSans-30" transform="translate(127.246094 0)"/>
       <use xlink:href="#DejaVuSans-30" transform="translate(190.869141 0)"/>
      </g>
     </g>
    </g>
   </g>
   <g id="line2d_37">
    <path d="M 138.436364 307.735035 
L 140.990464 307.507657 
L 141.416147 307.312761 
L 143.118881 307.085383 
L 144.821615 306.728074 
L 145.672982 306.598144 
L 147.801399 306.403248 
L 148.652765 306.04594 
L 149.078449 305.461253 
L 149.504132 305.16891 
L 149.929816 304.194432 
L 150.355499 304.129466 
L 150.781182 303.772158 
L 151.632549 303.317401 
L 153.335283 301.888167 
L 155.038017 301.011137 
L 156.315067 300.393968 
L 156.74075 299.67935 
L 157.592117 299.029698 
L 158.0178 298.834803 
L 162.274634 298.185151 
L 162.700318 297.990255 
L 165.680102 297.730394 
L 167.382835 297.308121 
L 170.788303 296.820882 
L 171.213986 296.593503 
L 171.639669 296.528538 
L 172.491036 296.236195 
L 175.47082 295.716473 
L 176.322187 295.456613 
L 180.153338 294.806961 
L 181.004704 294.612065 
L 181.856071 294.579582 
L 183.558805 294.157309 
L 183.984488 293.540139 
L 185.261538 293.020418 
L 186.538589 292.663109 
L 186.964272 292.435731 
L 187.815639 292.273318 
L 189.518373 291.753596 
L 190.369739 291.688631 
L 191.221106 291.461253 
L 192.92384 291.006497 
L 193.349523 290.974014 
L 194.20089 290.55174 
L 194.626573 290.486775 
L 195.052257 290.259397 
L 199.734774 289.447332 
L 201.437508 288.92761 
L 201.863191 288.635267 
L 203.991608 287.92065 
L 204.842975 287.30348 
L 206.120025 287.043619 
L 215.48506 284.217633 
L 215.910744 284.185151 
L 217.187794 283.79536 
L 217.613477 283.79536 
L 218.039161 283.600464 
L 218.890528 283.503016 
L 219.316211 283.340603 
L 221.018945 283.275638 
L 221.870312 283.113225 
L 222.721678 282.658469 
L 223.998729 282.17123 
L 224.850095 281.716473 
L 225.701462 281.261717 
L 226.552829 280.969374 
L 226.978512 280.839443 
L 227.829879 280.287239 
L 228.255563 279.8 
L 229.106929 278.435731 
L 229.532613 278.3058 
L 229.958296 278.3058 
L 231.66103 277.331323 
L 232.086713 277.233875 
L 232.512397 276.811601 
L 233.363764 276.454292 
L 234.21513 276.064501 
L 234.640814 275.54478 
L 235.066497 274.830162 
L 235.492181 274.537819 
L 235.917864 273.758237 
L 236.343547 273.270998 
L 238.897648 271.841763 
L 239.749015 271.127146 
L 240.174698 270.867285 
L 240.600381 270.250116 
L 241.026065 269.243155 
L 241.451748 268.561021 
L 241.877432 268.203712 
L 242.303115 268.008817 
L 245.708582 264.760557 
L 246.559949 263.948492 
L 249.11405 262.291879 
L 249.539733 262.129466 
L 251.242467 261.090023 
L 251.66815 260.895128 
L 253.796567 258.881206 
L 254.647934 258.523898 
L 255.499301 257.906729 
L 255.924984 257.646868 
L 256.350668 257.581903 
L 257.627718 256.834803 
L 258.053401 256.347564 
L 260.181818 255.145708 
L 260.607502 254.983295 
L 261.884552 254.073782 
L 268.269803 251.735035 
L 269.12117 250.92297 
L 270.39822 250.273318 
L 271.249587 249.721114 
L 272.100954 249.461253 
L 272.526637 249.16891 
L 272.95232 249.038979 
L 274.229371 248.161949 
L 276.357788 247.67471 
L 277.634838 246.895128 
L 278.911888 246.602784 
L 279.337572 246.505336 
L 280.614622 245.498376 
L 282.317355 245.011137 
L 282.743039 244.653828 
L 285.297139 243.744316 
L 286.148506 243.581903 
L 286.999873 243.224594 
L 289.979657 242.087703 
L 290.831024 241.957773 
L 292.108074 241.503016 
L 294.236491 240.43109 
L 296.790591 238.969374 
L 297.641958 238.741995 
L 298.919008 238.092343 
L 299.770375 237.92993 
L 300.621742 237.410209 
L 301.473109 237.182831 
L 302.750159 236.663109 
L 304.452893 236.435731 
L 305.304259 235.980974 
L 305.729943 235.591183 
L 306.155626 234.811601 
L 307.85836 234.324362 
L 309.13541 233.642227 
L 309.986777 233.349884 
L 311.263827 232.700232 
L 313.392244 231.823202 
L 314.243611 231.628306 
L 315.520661 230.978654 
L 315.946345 230.913689 
L 318.074762 229.841763 
L 318.926128 229.289559 
L 320.203179 229.029698 
L 322.331596 228.477494 
L 322.757279 228.120186 
L 323.608646 227.827842 
L 325.737063 226.950812 
L 326.162746 226.625986 
L 326.58843 226.463573 
L 327.439797 225.976334 
L 329.14253 225.42413 
L 329.993897 224.871926 
L 330.41958 224.417169 
L 330.845264 224.157309 
L 331.270947 224.059861 
L 332.122314 223.345244 
L 332.547997 223.280278 
L 332.973681 222.565661 
L 333.399364 222.370766 
L 333.825048 222.013457 
L 334.250731 221.948492 
L 335.102098 221.396288 
L 335.953465 221.103944 
L 336.379148 220.779118 
L 336.804832 220.616705 
L 338.507565 219.447332 
L 339.784615 218.79768 
L 340.635982 218.570302 
L 341.487349 218.083063 
L 341.913032 217.335963 
L 342.764399 216.686311 
L 343.190083 216.588863 
L 345.744183 215.322042 
L 346.59555 214.964733 
L 347.446917 214.347564 
L 348.723967 213.145708 
L 349.575334 212.625986 
L 350.001017 212.138747 
L 351.703751 210.936891 
L 352.555118 210.059861 
L 353.406484 209.767517 
L 354.257851 209.182831 
L 355.534901 208.500696 
L 355.960585 208.435731 
L 357.237635 207.721114 
L 358.089002 207.16891 
L 362.345836 205.54478 
L 362.771519 205.187471 
L 364.474253 204.505336 
L 364.899936 204.375406 
L 365.751303 203.823202 
L 366.60267 203.465893 
L 367.454037 202.848724 
L 368.305404 201.094664 
L 369.156771 200.05522 
L 370.433821 199.373086 
L 371.285188 199.015777 
L 371.710871 198.950812 
L 372.562238 198.561021 
L 374.264971 197.976334 
L 375.116338 197.489095 
L 375.967705 197.066821 
L 376.393388 196.936891 
L 378.947489 195.377726 
L 379.373172 194.890487 
L 380.650223 194.143387 
L 381.075906 193.980974 
L 381.927273 193.461253 
L 383.630006 192.519258 
L 384.05569 192.42181 
L 384.481373 192.064501 
L 387.461157 191.057541 
L 387.88684 190.732715 
L 388.738207 190.472854 
L 389.589574 190.115545 
L 390.015257 189.758237 
L 391.717991 189.141067 
L 392.569358 188.523898 
L 393.420725 188.166589 
L 394.272092 187.484455 
L 395.123458 187.224594 
L 395.549142 186.834803 
L 395.974825 186.769838 
L 396.826192 186.087703 
L 398.954609 184.820882 
L 399.805976 184.561021 
L 400.231659 184.30116 
L 400.657343 184.236195 
L 401.934393 183.521578 
L 403.637127 182.936891 
L 404.488493 182.806961 
L 404.914177 182.612065 
L 405.33986 182.5471 
L 406.191227 182.157309 
L 406.61691 182.124826 
L 408.319644 181.475174 
L 409.596694 180.533179 
L 410.022378 180.370766 
L 410.873744 179.883527 
L 411.299428 179.753596 
L 413.853528 178.291879 
L 414.279212 178.194432 
L 415.556262 177.414849 
L 416.833312 176.960093 
L 417.684679 176.667749 
L 419.387413 176.083063 
L 420.238779 175.790719 
L 421.941513 175.433411 
L 422.367196 175.238515 
L 423.218563 175.011137 
L 423.644247 174.816241 
L 424.06993 174.751276 
L 424.495613 174.523898 
L 425.34698 174.361485 
L 426.624031 173.874246 
L 427.475397 173.776798 
L 428.752448 173.484455 
L 430.880865 173.094664 
L 441.948633 169.716473 
L 442.374317 169.261717 
L 444.928417 168.189791 
L 446.631151 167.605104 
L 447.056834 167.345244 
L 448.333884 166.955452 
L 449.185251 166.728074 
L 449.610935 166.435731 
L 450.036618 166.338283 
L 450.462301 165.948492 
L 451.739352 165.688631 
L 452.590718 165.29884 
L 453.016402 164.779118 
L 457.698919 163.739675 
L 458.124603 163.739675 
L 458.550286 163.54478 
L 460.25302 163.219954 
L 460.678703 163.025058 
L 462.381437 162.700232 
L 463.232804 162.342923 
L 464.08417 162.18051 
L 466.212587 161.628306 
L 467.915321 161.076102 
L 468.341004 160.978654 
L 468.766688 160.751276 
L 469.618055 160.523898 
L 470.469421 160.166589 
L 471.320788 159.841763 
L 471.746472 159.54942 
L 472.597839 159.289559 
L 475.577622 158.152668 
L 477.280356 157.92529 
L 480.685823 156.658469 
L 481.111507 156.333643 
L 481.53719 156.236195 
L 481.962873 156.008817 
L 482.388557 155.976334 
L 487.071074 154.254756 
L 489.199491 153.67007 
L 490.050858 153.247796 
L 491.327908 152.955452 
L 493.030642 151.526218 
L 494.733376 150.779118 
L 495.584743 150.389327 
L 498.138843 149.382367 
L 498.564526 149.090023 
L 500.692943 148.375406 
L 501.969994 147.628306 
L 502.395677 147.530858 
L 504.524094 146.361485 
L 505.801144 145.776798 
L 506.226828 145.451972 
L 507.078195 145.159629 
L 509.206612 144.05522 
L 510.483662 143.600464 
L 512.186395 142.885847 
L 513.463446 142.398608 
L 513.889129 142.236195 
L 514.740496 142.106265 
L 515.166179 141.813921 
L 516.868913 141.489095 
L 517.72028 141.131787 
L 519.423013 140.319722 
L 525.382581 137.656148 
L 526.659631 137.233875 
L 527.085315 136.941531 
L 527.936682 136.844084 
L 528.362365 136.55174 
L 529.213732 136.42181 
L 530.065099 135.999536 
L 530.490782 135.80464 
L 531.342149 135.577262 
L 532.193516 135.317401 
L 533.470566 134.830162 
L 534.747616 134.407889 
L 536.024666 134.115545 
L 537.7274 133.400928 
L 538.578767 132.913689 
L 540.2815 132.036659 
L 541.132867 131.841763 
L 541.558551 131.581903 
L 541.984234 131.484455 
L 543.261284 130.737355 
L 544.112651 130.380046 
L 553.477686 126.741995 
L 555.18042 125.92993 
L 559.437254 124.240835 
L 560.28862 123.818561 
L 560.714304 123.721114 
L 561.139987 123.493735 
L 562.842721 123.006497 
L 564.545455 121.577262 
L 564.971138 121.447332 
L 565.396821 121.187471 
L 566.673872 120.830162 
L 567.099555 120.505336 
L 567.525238 120.407889 
L 568.802289 119.628306 
L 569.227972 119.335963 
L 570.505022 118.848724 
L 570.930706 118.621346 
L 572.207756 118.329002 
L 574.336173 117.581903 
L 575.18754 117.322042 
L 576.46459 116.67239 
L 577.315957 116.250116 
L 578.167324 116.022738 
L 579.444374 115.405568 
L 583.275524 113.943852 
L 584.552575 113.131787 
L 584.978258 113.034339 
L 585.829625 112.612065 
L 586.680992 112.287239 
L 587.106675 111.897448 
L 587.958042 111.540139 
L 589.235092 111.085383 
L 589.660776 110.728074 
L 590.086459 110.695592 
L 590.937826 110.435731 
L 591.789193 110.143387 
L 592.214876 109.948492 
L 592.640559 109.883527 
L 593.491926 109.526218 
L 594.768976 109.233875 
L 595.620343 108.746636 
L 596.046027 108.584223 
L 596.47171 108.259397 
L 597.74876 107.934571 
L 598.174444 107.67471 
L 599.025811 107.447332 
L 600.302861 106.700232 
L 600.728544 106.667749 
L 602.005594 106.245476 
L 602.856961 106.18051 
L 603.282645 105.953132 
L 604.134011 105.725754 
L 604.559695 105.498376 
L 606.688112 105.076102 
L 607.539479 104.913689 
L 608.816529 104.42645 
L 610.093579 104.134107 
L 611.370629 103.451972 
L 611.796313 103.062181 
L 613.073363 102.282599 
L 613.499046 101.957773 
L 614.776097 101.535499 
L 615.627463 101.308121 
L 619.458614 99.619026 
L 621.161348 99.164269 
L 622.012715 98.774478 
L 622.438398 98.5471 
L 623.289765 98.287239 
L 623.715448 98.059861 
L 624.566815 97.897448 
L 627.972282 96.403248 
L 628.397966 96.338283 
L 629.675016 95.493735 
L 630.100699 95.42877 
L 631.803433 94.746636 
L 633.506167 94.324362 
L 633.93185 94.259397 
L 634.357533 94.064501 
L 634.783217 94.032019 
L 635.634584 93.739675 
L 636.060267 93.707193 
L 637.337317 93.219954 
L 639.040051 92.732715 
L 639.891418 92.083063 
L 641.594151 91.108585 
L 642.019835 91.011137 
L 642.445518 90.783759 
L 643.296885 90.491415 
L 643.722568 90.361485 
L 644.148252 90.004176 
L 645.425302 89.516937 
L 646.276669 89.029698 
L 646.702352 88.80232 
L 647.128036 88.412529 
L 649.256453 87.827842 
L 650.533503 87.243155 
L 651.38487 87.015777 
L 651.810553 86.788399 
L 652.236236 86.43109 
L 653.93897 85.976334 
L 654.364654 85.651508 
L 659.898538 83.605104 
L 660.749905 83.442691 
L 662.878322 82.760557 
L 663.729688 82.403248 
L 664.581055 82.078422 
L 665.432422 81.851044 
L 665.858106 81.656148 
L 666.283789 81.656148 
L 667.135156 81.29884 
L 667.986523 80.811601 
L 670.966306 79.80464 
L 672.66904 79.219954 
L 673.94609 78.92761 
L 675.22314 78.505336 
L 675.648824 78.407889 
L 676.074507 78.115545 
L 676.925874 77.92065 
L 678.628608 77.433411 
L 679.054291 77.400928 
L 679.905658 77.011137 
L 682.885442 76.264037 
L 683.736809 75.906729 
L 687.993643 74.932251 
L 689.270693 74.250116 
L 690.547743 73.860325 
L 694.804577 72.268677 
L 695.230261 71.943852 
L 696.507311 71.651508 
L 697.358678 71.391647 
L 698.210045 70.969374 
L 698.635728 70.612065 
L 699.487095 70.352204 
L 699.912778 70.092343 
L 700.764145 69.994896 
L 703.743929 69.150348 
L 705.020979 68.890487 
L 706.298029 68.565661 
L 707.149396 68.338283 
L 708.426446 67.656148 
L 710.12918 67.006497 
L 710.980547 66.55174 
L 711.40623 66.519258 
L 712.257597 66.096984 
L 715.237381 65.252436 
L 716.514431 65.057541 
L 717.365798 64.765197 
L 718.642848 64.375406 
L 722.473999 63.30348 
L 723.325366 63.076102 
L 723.751049 62.978654 
L 724.176732 62.718794 
L 725.028099 62.556381 
L 725.879466 62.458933 
L 726.305149 62.231555 
L 726.730833 62.199072 
L 728.007883 61.54942 
L 729.284933 61.257077 
L 730.1363 60.867285 
L 730.987667 60.574942 
L 731.839034 60.347564 
L 732.690401 59.990255 
L 733.541767 59.697912 
L 735.244501 59.210673 
L 736.095868 59.145708 
L 736.947235 58.853364 
L 737.372918 58.690951 
L 738.224285 58.561021 
L 739.927018 57.781439 
L 740.352702 57.716473 
L 740.778385 57.489095 
L 741.629752 57.326682 
L 742.481119 57.261717 
L 743.758169 56.969374 
L 744.183853 56.741995 
L 745.035219 56.514617 
L 745.886586 56.124826 
L 746.31227 56.059861 
L 746.737953 55.8 
L 747.163636 55.8 
L 747.163636 55.8 
" clip-path="url(#p6b386d9b72)" style="fill: none; stroke: #1f77b4; stroke-width: 1.5; stroke-linecap: square"/>
   </g>
   <g id="line2d_38">
    <path d="M 138.862047 307.8 
L 142.693198 307.702552 
L 146.098665 307.540139 
L 147.801399 307.540139 
L 148.227082 307.410209 
L 150.355499 307.312761 
L 152.909599 307.020418 
L 155.4637 306.92297 
L 156.315067 306.825522 
L 159.294851 306.695592 
L 162.274634 306.598144 
L 164.403051 306.533179 
L 169.936936 306.435731 
L 172.065353 306.370766 
L 175.896503 306.273318 
L 177.599237 306.240835 
L 181.856071 306.143387 
L 183.558805 305.980974 
L 185.261538 305.948492 
L 187.815639 305.851044 
L 189.518373 305.818561 
L 191.64679 305.753596 
L 193.349523 305.591183 
L 197.180674 305.493735 
L 198.032041 305.42877 
L 199.734774 305.331323 
L 202.288875 305.233875 
L 203.991608 305.136427 
L 211.65391 304.649188 
L 214.633694 304.55174 
L 215.910744 304.42181 
L 218.039161 304.324362 
L 222.295995 304.096984 
L 226.552829 304.032019 
L 228.255563 303.837123 
L 230.38398 303.739675 
L 234.640814 303.317401 
L 237.194914 302.992575 
L 238.897648 302.92761 
L 242.303115 302.472854 
L 244.857216 302.407889 
L 246.134266 302.277958 
L 247.411316 302.18051 
L 259.330451 301.238515 
L 260.181818 301.076102 
L 262.735919 300.978654 
L 269.546853 300.556381 
L 272.526637 300.458933 
L 274.229371 300.264037 
L 276.357788 300.166589 
L 278.911888 300.069142 
L 281.040305 299.971694 
L 282.743039 299.939211 
L 284.871456 299.874246 
L 285.722823 299.744316 
L 291.68239 299.646868 
L 292.533757 299.54942 
L 297.641958 299.451972 
L 301.473109 299.257077 
L 304.452893 299.159629 
L 306.155626 298.964733 
L 309.13541 298.867285 
L 309.986777 298.737355 
L 312.115194 298.67239 
L 316.372028 298.607425 
L 318.074762 298.445012 
L 319.777495 298.412529 
L 321.054545 298.315081 
L 322.757279 298.152668 
L 327.014113 297.92529 
L 331.270947 297.827842 
L 335.102098 297.632947 
L 336.379148 297.600464 
L 337.230515 297.470534 
L 339.358932 297.373086 
L 340.210299 297.308121 
L 341.061666 297.243155 
L 341.913032 297.17819 
L 346.169866 297.080742 
L 358.089002 296.268677 
L 360.643102 296.17123 
L 362.771519 296.106265 
L 368.731087 296.008817 
L 369.582454 295.878886 
L 375.542022 295.781439 
L 379.798856 295.55406 
L 380.650223 295.521578 
L 381.501589 295.42413 
L 383.630006 295.326682 
L 385.758423 295.261717 
L 387.88684 295.164269 
L 390.015257 295.099304 
L 393.846408 295.001856 
L 396.400509 294.904408 
L 402.360076 294.806961 
L 407.042594 294.5471 
L 408.745327 294.482135 
L 410.022378 294.384687 
L 415.981945 294.287239 
L 418.536046 294.189791 
L 426.198347 294.092343 
L 427.901081 294.059861 
L 433.009282 293.994896 
L 433.860648 293.92993 
L 439.820216 293.832483 
L 441.52295 293.8 
L 452.590718 293.702552 
L 455.144819 293.605104 
L 473.023522 293.507657 
L 475.151939 293.442691 
L 486.219708 293.377726 
L 487.071074 293.312761 
L 489.199491 293.247796 
L 490.476542 293.117865 
L 493.030642 293.020418 
L 496.010426 292.890487 
L 499.841577 292.793039 
L 501.969994 292.728074 
L 504.949777 292.630626 
L 508.355245 292.468213 
L 510.483662 292.370766 
L 512.186395 292.338283 
L 516.017546 292.240835 
L 517.72028 292.208353 
L 523.254164 292.110905 
L 524.956898 292.078422 
L 527.085315 291.980974 
L 529.639415 291.883527 
L 532.619199 291.818561 
L 533.470566 291.753596 
L 543.686968 291.656148 
L 547.943802 291.42877 
L 550.923586 291.331323 
L 555.606103 291.071462 
L 558.585887 290.974014 
L 560.28862 290.941531 
L 563.268404 290.844084 
L 565.396821 290.616705 
L 569.653655 290.519258 
L 570.505022 290.42181 
L 574.761856 290.324362 
L 576.890273 290.259397 
L 581.572791 290.226914 
L 582.424158 290.129466 
L 587.106675 290.032019 
L 587.958042 289.967053 
L 597.323077 289.869606 
L 599.877177 289.772158 
L 606.262428 289.67471 
L 607.965162 289.642227 
L 611.796313 289.577262 
L 612.64768 289.479814 
L 618.181564 289.382367 
L 620.309981 289.317401 
L 627.972282 289.219954 
L 629.249332 289.122506 
L 630.526383 289.025058 
L 631.803433 288.92761 
L 638.188684 288.830162 
L 640.742784 288.732715 
L 652.236236 288.635267 
L 656.067387 288.440371 
L 661.175588 288.342923 
L 662.026955 288.277958 
L 668.412206 288.212993 
L 669.263573 288.148028 
L 673.94609 288.05058 
L 675.648824 288.018097 
L 681.608392 287.92065 
L 684.162492 287.823202 
L 691.39911 287.725754 
L 693.101844 287.693271 
L 696.932994 287.595824 
L 700.338462 287.433411 
L 705.020979 287.335963 
L 708.000763 287.206032 
L 711.831914 287.108585 
L 712.68328 287.043619 
L 721.196949 286.946172 
L 723.325366 286.881206 
L 725.879466 286.783759 
L 728.433566 286.686311 
L 741.204069 286.588863 
L 744.183853 286.458933 
L 747.163636 286.42645 
L 747.163636 286.42645 
" clip-path="url(#p6b386d9b72)" style="fill: none; stroke: #ff7f0e; stroke-width: 1.5; stroke-linecap: square"/>
   </g>
   <g id="patch_3">
    <path d="M 108 320.4 
L 108 43.2 
" style="fill: none; stroke: #a9a9a9; stroke-width: 0.8; stroke-linejoin: miter; stroke-linecap: square"/>
   </g>
   <g id="patch_4">
    <path d="M 777.6 320.4 
L 777.6 43.2 
" style="fill: none"/>
   </g>
   <g id="patch_5">
    <path d="M 108 320.4 
L 777.6 320.4 
" style="fill: none; stroke: #a9a9a9; stroke-width: 0.8; stroke-linejoin: miter; stroke-linecap: square"/>
   </g>
   <g id="patch_6">
    <path d="M 108 43.2 
L 777.6 43.2 
" style="fill: none"/>
   </g>
   <g id="text_19">
    <!-- get_subscribe history -->
    <g style="fill: #a9a9a9" transform="translate(378.6075 37.2) scale(0.12 -0.12)">
     <defs>
      <path id="DejaVuSans-67" d="M 2906 1791 
Q 2906 2416 2648 2759 
Q 2391 3103 1925 3103 
Q 1463 3103 1205 2759 
Q 947 2416 947 1791 
Q 947 1169 1205 825 
Q 1463 481 1925 481 
Q 2391 481 2648 825 
Q 2906 1169 2906 1791 
z
M 3481 434 
Q 3481 -459 3084 -895 
Q 2688 -1331 1869 -1331 
Q 1566 -1331 1297 -1286 
Q 1028 -1241 775 -1147 
L 775 -588 
Q 1028 -725 1275 -790 
Q 1522 -856 1778 -856 
Q 2344 -856 2625 -561 
Q 2906 -266 2906 331 
L 2906 616 
Q 2728 306 2450 153 
Q 2172 0 1784 0 
Q 1141 0 747 490 
Q 353 981 353 1791 
Q 353 2603 747 3093 
Q 1141 3584 1784 3584 
Q 2172 3584 2450 3431 
Q 2728 3278 2906 2969 
L 2906 3500 
L 3481 3500 
L 3481 434 
z
" transform="scale(0.015625)"/>
      <path id="DejaVuSans-65" d="M 3597 1894 
L 3597 1613 
L 953 1613 
Q 991 1019 1311 708 
Q 1631 397 2203 397 
Q 2534 397 2845 478 
Q 3156 559 3463 722 
L 3463 178 
Q 3153 47 2828 -22 
Q 2503 -91 2169 -91 
Q 1331 -91 842 396 
Q 353 884 353 1716 
Q 353 2575 817 3079 
Q 1281 3584 2069 3584 
Q 2775 3584 3186 3129 
Q 3597 2675 3597 1894 
z
M 3022 2063 
Q 3016 2534 2758 2815 
Q 2500 3097 2075 3097 
Q 1594 3097 1305 2825 
Q 1016 2553 972 2059 
L 3022 2063 
z
" transform="scale(0.015625)"/>
      <path id="DejaVuSans-74" d="M 1172 4494 
L 1172 3500 
L 2356 3500 
L 2356 3053 
L 1172 3053 
L 1172 1153 
Q 1172 725 1289 603 
Q 1406 481 1766 481 
L 2356 481 
L 2356 0 
L 1766 0 
Q 1100 0 847 248 
Q 594 497 594 1153 
L 594 3053 
L 172 3053 
L 172 3500 
L 594 3500 
L 594 4494 
L 1172 4494 
z
" transform="scale(0.015625)"/>
      <path id="DejaVuSans-5f" d="M 3263 -1063 
L 3263 -1509 
L -63 -1509 
L -63 -1063 
L 3263 -1063 
z
" transform="scale(0.015625)"/>
      <path id="DejaVuSans-73" d="M 2834 3397 
L 2834 2853 
Q 2591 2978 2328 3040 
Q 2066 3103 1784 3103 
Q 1356 3103 1142 2972 
Q 928 2841 928 2578 
Q 928 2378 1081 2264 
Q 1234 2150 1697 2047 
L 1894 2003 
Q 2506 1872 2764 1633 
Q 3022 1394 3022 966 
Q 3022 478 2636 193 
Q 2250 -91 1575 -91 
Q 1294 -91 989 -36 
Q 684 19 347 128 
L 347 722 
Q 666 556 975 473 
Q 1284 391 1588 391 
Q 1994 391 2212 530 
Q 2431 669 2431 922 
Q 2431 1156 2273 1281 
Q 2116 1406 1581 1522 
L 1381 1569 
Q 847 1681 609 1914 
Q 372 2147 372 2553 
Q 372 3047 722 3315 
Q 1072 3584 1716 3584 
Q 2034 3584 2315 3537 
Q 2597 3491 2834 3397 
z
" transform="scale(0.015625)"/>
      <path id="DejaVuSans-75" d="M 544 1381 
L 544 3500 
L 1119 3500 
L 1119 1403 
Q 1119 906 1312 657 
Q 1506 409 1894 409 
Q 2359 409 2629 706 
Q 2900 1003 2900 1516 
L 2900 3500 
L 3475 3500 
L 3475 0 
L 2900 0 
L 2900 538 
Q 2691 219 2414 64 
Q 2138 -91 1772 -91 
Q 1169 -91 856 284 
Q 544 659 544 1381 
z
M 1991 3584 
L 1991 3584 
z
" transform="scale(0.015625)"/>
      <path id="DejaVuSans-62" d="M 3116 1747 
Q 3116 2381 2855 2742 
Q 2594 3103 2138 3103 
Q 1681 3103 1420 2742 
Q 1159 2381 1159 1747 
Q 1159 1113 1420 752 
Q 1681 391 2138 391 
Q 2594 391 2855 752 
Q 3116 1113 3116 1747 
z
M 1159 2969 
Q 1341 3281 1617 3432 
Q 1894 3584 2278 3584 
Q 2916 3584 3314 3078 
Q 3713 2572 3713 1747 
Q 3713 922 3314 415 
Q 2916 -91 2278 -91 
Q 1894 -91 1617 61 
Q 1341 213 1159 525 
L 1159 0 
L 581 0 
L 581 4863 
L 1159 4863 
L 1159 2969 
z
" transform="scale(0.015625)"/>
      <path id="DejaVuSans-63" d="M 3122 3366 
L 3122 2828 
Q 2878 2963 2633 3030 
Q 2388 3097 2138 3097 
Q 1578 3097 1268 2742 
Q 959 2388 959 1747 
Q 959 1106 1268 751 
Q 1578 397 2138 397 
Q 2388 397 2633 464 
Q 2878 531 3122 666 
L 3122 134 
Q 2881 22 2623 -34 
Q 2366 -91 2075 -91 
Q 1284 -91 818 406 
Q 353 903 353 1747 
Q 353 2603 823 3093 
Q 1294 3584 2113 3584 
Q 2378 3584 2631 3529 
Q 2884 3475 3122 3366 
z
" transform="scale(0.015625)"/>
      <path id="DejaVuSans-72" d="M 2631 2963 
Q 2534 3019 2420 3045 
Q 2306 3072 2169 3072 
Q 1681 3072 1420 2755 
Q 1159 2438 1159 1844 
L 1159 0 
L 581 0 
L 581 3500 
L 1159 3500 
L 1159 2956 
Q 1341 3275 1631 3429 
Q 1922 3584 2338 3584 
Q 2397 3584 2469 3576 
Q 2541 3569 2628 3553 
L 2631 2963 
z
" transform="scale(0.015625)"/>
      <path id="DejaVuSans-69" d="M 603 3500 
L 1178 3500 
L 1178 0 
L 603 0 
L 603 3500 
z
M 603 4863 
L 1178 4863 
L 1178 4134 
L 603 4134 
L 603 4863 
z
" transform="scale(0.015625)"/>
      <path id="DejaVuSans-20" transform="scale(0.015625)"/>
      <path id="DejaVuSans-68" d="M 3513 2113 
L 3513 0 
L 2938 0 
L 2938 2094 
Q 2938 2591 2744 2837 
Q 2550 3084 2163 3084 
Q 1697 3084 1428 2787 
Q 1159 2491 1159 1978 
L 1159 0 
L 581 0 
L 581 4863 
L 1159 4863 
L 1159 2956 
Q 1366 3272 1645 3428 
Q 1925 3584 2291 3584 
Q 2894 3584 3203 3211 
Q 3513 2838 3513 2113 
z
" transform="scale(0.015625)"/>
      <path id="DejaVuSans-6f" d="M 1959 3097 
Q 1497 3097 1228 2736 
Q 959 2375 959 1747 
Q 959 1119 1226 758 
Q 1494 397 1959 397 
Q 2419 397 2687 759 
Q 2956 1122 2956 1747 
Q 2956 2369 2687 2733 
Q 2419 3097 1959 3097 
z
M 1959 3584 
Q 2709 3584 3137 3096 
Q 3566 2609 3566 1747 
Q 3566 888 3137 398 
Q 2709 -91 1959 -91 
Q 1206 -91 779 398 
Q 353 888 353 1747 
Q 353 2609 779 3096 
Q 1206 3584 1959 3584 
z
" transform="scale(0.015625)"/>
      <path id="DejaVuSans-79" d="M 2059 -325 
Q 1816 -950 1584 -1140 
Q 1353 -1331 966 -1331 
L 506 -1331 
L 506 -850 
L 844 -850 
Q 1081 -850 1212 -737 
Q 1344 -625 1503 -206 
L 1606 56 
L 191 3500 
L 800 3500 
L 1894 763 
L 2988 3500 
L 3597 3500 
L 2059 -325 
z
" transform="scale(0.015625)"/>
     </defs>
     <use xlink:href="#DejaVuSans-67"/>
     <use xlink:href="#DejaVuSans-65" transform="translate(63.476562 0)"/>
     <use xlink:href="#DejaVuSans-74" transform="translate(125 0)"/>
     <use xlink:href="#DejaVuSans-5f" transform="translate(164.208984 0)"/>
     <use xlink:href="#DejaVuSans-73" transform="translate(214.208984 0)"/>
     <use xlink:href="#DejaVuSans-75" transform="translate(266.308594 0)"/>
     <use xlink:href="#DejaVuSans-62" transform="translate(329.6875 0)"/>
     <use xlink:href="#DejaVuSans-73" transform="translate(393.164062 0)"/>
     <use xlink:href="#DejaVuSans-63" transform="translate(445.263672 0)"/>
     <use xlink:href="#DejaVuSans-72" transform="translate(500.244141 0)"/>
     <use xlink:href="#DejaVuSans-69" transform="translate(541.357422 0)"/>
     <use xlink:href="#DejaVuSans-62" transform="translate(569.140625 0)"/>
     <use xlink:href="#DejaVuSans-65" transform="translate(632.617188 0)"/>
     <use xlink:href="#DejaVuSans-20" transform="translate(694.140625 0)"/>
     <use xlink:href="#DejaVuSans-68" transform="translate(725.927734 0)"/>
     <use xlink:href="#DejaVuSans-69" transform="translate(789.306641 0)"/>
     <use xlink:href="#DejaVuSans-73" transform="translate(817.089844 0)"/>
     <use xlink:href="#DejaVuSans-74" transform="translate(869.189453 0)"/>
     <use xlink:href="#DejaVuSans-6f" transform="translate(908.398438 0)"/>
     <use xlink:href="#DejaVuSans-72" transform="translate(969.580078 0)"/>
     <use xlink:href="#DejaVuSans-79" transform="translate(1010.693359 0)"/>
    </g>
   </g>
   <g id="legend_1">
    <g id="line2d_39">
     <path d="M 815.08 328.498438 
L 825.08 328.498438 
L 835.08 328.498438 
" style="fill: none; stroke: #1f77b4; stroke-width: 1.5; stroke-linecap: square"/>
    </g>
    <g id="text_20">
     <!-- star -->
     <g style="fill: #a9a9a9" transform="translate(843.08 331.998438) scale(0.1 -0.1)">
      <defs>
       <path id="DejaVuSans-61" d="M 2194 1759 
Q 1497 1759 1228 1600 
Q 959 1441 959 1056 
Q 959 750 1161 570 
Q 1363 391 1709 391 
Q 2188 391 2477 730 
Q 2766 1069 2766 1631 
L 2766 1759 
L 2194 1759 
z
M 3341 1997 
L 3341 0 
L 2766 0 
L 2766 531 
Q 2569 213 2275 61 
Q 1981 -91 1556 -91 
Q 1019 -91 701 211 
Q 384 513 384 1019 
Q 384 1609 779 1909 
Q 1175 2209 1959 2209 
L 2766 2209 
L 2766 2266 
Q 2766 2663 2505 2880 
Q 2244 3097 1772 3097 
Q 1472 3097 1187 3025 
Q 903 2953 641 2809 
L 641 3341 
Q 956 3463 1253 3523 
Q 1550 3584 1831 3584 
Q 2591 3584 2966 3190 
Q 3341 2797 3341 1997 
z
" transform="scale(0.015625)"/>
      </defs>
      <use xlink:href="#DejaVuSans-73"/>
      <use xlink:href="#DejaVuSans-74" transform="translate(52.099609 0)"/>
      <use xlink:href="#DejaVuSans-61" transform="translate(91.308594 0)"/>
      <use xlink:href="#DejaVuSans-72" transform="translate(152.587891 0)"/>
     </g>
    </g>
    <g id="line2d_40">
     <path d="M 815.08 343.176562 
L 825.08 343.176562 
L 835.08 343.176562 
" style="fill: none; stroke: #ff7f0e; stroke-width: 1.5; stroke-linecap: square"/>
    </g>
    <g id="text_21">
     <!-- fork -->
     <g style="fill: #a9a9a9" transform="translate(843.08 346.676562) scale(0.1 -0.1)">
      <defs>
       <path id="DejaVuSans-66" d="M 2375 4863 
L 2375 4384 
L 1825 4384 
Q 1516 4384 1395 4259 
Q 1275 4134 1275 3809 
L 1275 3500 
L 2222 3500 
L 2222 3053 
L 1275 3053 
L 1275 0 
L 697 0 
L 697 3053 
L 147 3053 
L 147 3500 
L 697 3500 
L 697 3744 
Q 697 4328 969 4595 
Q 1241 4863 1831 4863 
L 2375 4863 
z
" transform="scale(0.015625)"/>
       <path id="DejaVuSans-6b" d="M 581 4863 
L 1159 4863 
L 1159 1991 
L 2875 3500 
L 3609 3500 
L 1753 1863 
L 3688 0 
L 2938 0 
L 1159 1709 
L 1159 0 
L 581 0 
L 581 4863 
z
" transform="scale(0.015625)"/>
      </defs>
      <use xlink:href="#DejaVuSans-66"/>
      <use xlink:href="#DejaVuSans-6f" transform="translate(35.205078 0)"/>
      <use xlink:href="#DejaVuSans-72" transform="translate(96.386719 0)"/>
      <use xlink:href="#DejaVuSans-6b" transform="translate(137.5 0)"/>
     </g>
    </g>
   </g>
  </g>
 </g>
 <defs>
  <clipPath id="p6b386d9b72">
   <rect x="108" y="43.2" width="669.6" height="277.2"/>
  </clipPath>
 </defs>
</svg>
