<?xml version="1.0" encoding="utf-8" standalone="no"?>
<!DOCTYPE svg PUBLIC "-//W3C//DTD SVG 1.1//EN"
  "http://www.w3.org/Graphics/SVG/1.1/DTD/svg11.dtd">
<svg xmlns:xlink="http://www.w3.org/1999/xlink" width="864pt" height="360pt" viewBox="0 0 864 360" xmlns="http://www.w3.org/2000/svg" version="1.1">
 <metadata>
  <rdf:RDF xmlns:dc="http://purl.org/dc/elements/1.1/" xmlns:cc="http://creativecommons.org/ns#" xmlns:rdf="http://www.w3.org/1999/02/22-rdf-syntax-ns#">
   <cc:Work>
    <dc:type rdf:resource="http://purl.org/dc/dcmitype/StillImage"/>
    <dc:date>2025-06-27T08:16:31.342777</dc:date>
    <dc:format>image/svg+xml</dc:format>
    <dc:creator>
     <cc:Agent>
      <dc:title>Matplotlib v3.10.3, https://matplotlib.org/</dc:title>
     </cc:Agent>
    </dc:creator>
   </cc:Work>
  </rdf:RDF>
 </metadata>
 <defs>
  <style type="text/css">*{stroke-linejoin: round; stroke-linecap: butt}</style>
 </defs>
 <g id="figure_1">
  <g id="patch_1">
   <path d="M 0 360 
L 864 360 
L 864 0 
L 0 0 
L 0 360 
z
" style="fill: none; opacity: 0"/>
  </g>
  <g id="axes_1">
   <g id="patch_2">
    <path d="M 108 320.4 
L 777.6 320.4 
L 777.6 43.2 
L 108 43.2 
L 108 320.4 
z
" style="fill: none; opacity: 0"/>
   </g>
   <g id="matplotlib.axis_1">
    <g id="xtick_1">
     <g id="line2d_1">
      <path d="M 128.672955 320.4 
L 128.672955 43.2 
" clip-path="url(#p5fb550b582)" style="fill: none; stroke-dasharray: 5.12,1.28,0.8,1.28; stroke-dashoffset: 0; stroke: #b0b0b0; stroke-width: 0.8"/>
     </g>
     <g id="line2d_2">
      <defs>
       <path id="m62b43b15b4" d="M 0 0 
L 0 3.5 
" style="stroke: #a9a9a9; stroke-width: 0.8"/>
      </defs>
      <g>
       <use xlink:href="#m62b43b15b4" x="128.672955" y="320.4" style="fill: #a9a9a9; stroke: #a9a9a9; stroke-width: 0.8"/>
      </g>
     </g>
     <g id="text_1">
      <!-- 2021-07 -->
      <g style="fill: #a9a9a9" transform="translate(107.781549 334.998438) scale(0.1 -0.1)">
       <defs>
        <path id="DejaVuSans-32" d="M 1228 531 
L 3431 531 
L 3431 0 
L 469 0 
L 469 531 
Q 828 903 1448 1529 
Q 2069 2156 2228 2338 
Q 2531 2678 2651 2914 
Q 2772 3150 2772 3378 
Q 2772 3750 2511 3984 
Q 2250 4219 1831 4219 
Q 1534 4219 1204 4116 
Q 875 4013 500 3803 
L 500 4441 
Q 881 4594 1212 4672 
Q 1544 4750 1819 4750 
Q 2544 4750 2975 4387 
Q 3406 4025 3406 3419 
Q 3406 3131 3298 2873 
Q 3191 2616 2906 2266 
Q 2828 2175 2409 1742 
Q 1991 1309 1228 531 
z
" transform="scale(0.015625)"/>
        <path id="DejaVuSans-30" d="M 2034 4250 
Q 1547 4250 1301 3770 
Q 1056 3291 1056 2328 
Q 1056 1369 1301 889 
Q 1547 409 2034 409 
Q 2525 409 2770 889 
Q 3016 1369 3016 2328 
Q 3016 3291 2770 3770 
Q 2525 4250 2034 4250 
z
M 2034 4750 
Q 2819 4750 3233 4129 
Q 3647 3509 3647 2328 
Q 3647 1150 3233 529 
Q 2819 -91 2034 -91 
Q 1250 -91 836 529 
Q 422 1150 422 2328 
Q 422 3509 836 4129 
Q 1250 4750 2034 4750 
z
" transform="scale(0.015625)"/>
        <path id="DejaVuSans-31" d="M 794 531 
L 1825 531 
L 1825 4091 
L 703 3866 
L 703 4441 
L 1819 4666 
L 2450 4666 
L 2450 531 
L 3481 531 
L 3481 0 
L 794 0 
L 794 531 
z
" transform="scale(0.015625)"/>
        <path id="DejaVuSans-2d" d="M 313 2009 
L 1997 2009 
L 1997 1497 
L 313 1497 
L 313 2009 
z
" transform="scale(0.015625)"/>
        <path id="DejaVuSans-37" d="M 525 4666 
L 3525 4666 
L 3525 4397 
L 1831 0 
L 1172 0 
L 2766 4134 
L 525 4134 
L 525 4666 
z
" transform="scale(0.015625)"/>
       </defs>
       <use xlink:href="#DejaVuSans-32"/>
       <use xlink:href="#DejaVuSans-30" transform="translate(63.623047 0)"/>
       <use xlink:href="#DejaVuSans-32" transform="translate(127.246094 0)"/>
       <use xlink:href="#DejaVuSans-31" transform="translate(190.869141 0)"/>
       <use xlink:href="#DejaVuSans-2d" transform="translate(254.492188 0)"/>
       <use xlink:href="#DejaVuSans-30" transform="translate(290.576172 0)"/>
       <use xlink:href="#DejaVuSans-37" transform="translate(354.199219 0)"/>
      </g>
     </g>
    </g>
    <g id="xtick_2">
     <g id="line2d_3">
      <path d="M 206.780221 320.4 
L 206.780221 43.2 
" clip-path="url(#p5fb550b582)" style="fill: none; stroke-dasharray: 5.12,1.28,0.8,1.28; stroke-dashoffset: 0; stroke: #b0b0b0; stroke-width: 0.8"/>
     </g>
     <g id="line2d_4">
      <g>
       <use xlink:href="#m62b43b15b4" x="206.780221" y="320.4" style="fill: #a9a9a9; stroke: #a9a9a9; stroke-width: 0.8"/>
      </g>
     </g>
     <g id="text_2">
      <!-- 2022-01 -->
      <g style="fill: #a9a9a9" transform="translate(185.888814 334.998438) scale(0.1 -0.1)">
       <use xlink:href="#DejaVuSans-32"/>
       <use xlink:href="#DejaVuSans-30" transform="translate(63.623047 0)"/>
       <use xlink:href="#DejaVuSans-32" transform="translate(127.246094 0)"/>
       <use xlink:href="#DejaVuSans-32" transform="translate(190.869141 0)"/>
       <use xlink:href="#DejaVuSans-2d" transform="translate(254.492188 0)"/>
       <use xlink:href="#DejaVuSans-30" transform="translate(290.576172 0)"/>
       <use xlink:href="#DejaVuSans-31" transform="translate(354.199219 0)"/>
      </g>
     </g>
    </g>
    <g id="xtick_3">
     <g id="line2d_5">
      <path d="M 283.613998 320.4 
L 283.613998 43.2 
" clip-path="url(#p5fb550b582)" style="fill: none; stroke-dasharray: 5.12,1.28,0.8,1.28; stroke-dashoffset: 0; stroke: #b0b0b0; stroke-width: 0.8"/>
     </g>
     <g id="line2d_6">
      <g>
       <use xlink:href="#m62b43b15b4" x="283.613998" y="320.4" style="fill: #a9a9a9; stroke: #a9a9a9; stroke-width: 0.8"/>
      </g>
     </g>
     <g id="text_3">
      <!-- 2022-07 -->
      <g style="fill: #a9a9a9" transform="translate(262.722591 334.998438) scale(0.1 -0.1)">
       <use xlink:href="#DejaVuSans-32"/>
       <use xlink:href="#DejaVuSans-30" transform="translate(63.623047 0)"/>
       <use xlink:href="#DejaVuSans-32" transform="translate(127.246094 0)"/>
       <use xlink:href="#DejaVuSans-32" transform="translate(190.869141 0)"/>
       <use xlink:href="#DejaVuSans-2d" transform="translate(254.492188 0)"/>
       <use xlink:href="#DejaVuSans-30" transform="translate(290.576172 0)"/>
       <use xlink:href="#DejaVuSans-37" transform="translate(354.199219 0)"/>
      </g>
     </g>
    </g>
    <g id="xtick_4">
     <g id="line2d_7">
      <path d="M 361.721263 320.4 
L 361.721263 43.2 
" clip-path="url(#p5fb550b582)" style="fill: none; stroke-dasharray: 5.12,1.28,0.8,1.28; stroke-dashoffset: 0; stroke: #b0b0b0; stroke-width: 0.8"/>
     </g>
     <g id="line2d_8">
      <g>
       <use xlink:href="#m62b43b15b4" x="361.721263" y="320.4" style="fill: #a9a9a9; stroke: #a9a9a9; stroke-width: 0.8"/>
      </g>
     </g>
     <g id="text_4">
      <!-- 2023-01 -->
      <g style="fill: #a9a9a9" transform="translate(340.829857 334.998438) scale(0.1 -0.1)">
       <defs>
        <path id="DejaVuSans-33" d="M 2597 2516 
Q 3050 2419 3304 2112 
Q 3559 1806 3559 1356 
Q 3559 666 3084 287 
Q 2609 -91 1734 -91 
Q 1441 -91 1130 -33 
Q 819 25 488 141 
L 488 750 
Q 750 597 1062 519 
Q 1375 441 1716 441 
Q 2309 441 2620 675 
Q 2931 909 2931 1356 
Q 2931 1769 2642 2001 
Q 2353 2234 1838 2234 
L 1294 2234 
L 1294 2753 
L 1863 2753 
Q 2328 2753 2575 2939 
Q 2822 3125 2822 3475 
Q 2822 3834 2567 4026 
Q 2313 4219 1838 4219 
Q 1578 4219 1281 4162 
Q 984 4106 628 3988 
L 628 4550 
Q 988 4650 1302 4700 
Q 1616 4750 1894 4750 
Q 2613 4750 3031 4423 
Q 3450 4097 3450 3541 
Q 3450 3153 3228 2886 
Q 3006 2619 2597 2516 
z
" transform="scale(0.015625)"/>
       </defs>
       <use xlink:href="#DejaVuSans-32"/>
       <use xlink:href="#DejaVuSans-30" transform="translate(63.623047 0)"/>
       <use xlink:href="#DejaVuSans-32" transform="translate(127.246094 0)"/>
       <use xlink:href="#DejaVuSans-33" transform="translate(190.869141 0)"/>
       <use xlink:href="#DejaVuSans-2d" transform="translate(254.492188 0)"/>
       <use xlink:href="#DejaVuSans-30" transform="translate(290.576172 0)"/>
       <use xlink:href="#DejaVuSans-31" transform="translate(354.199219 0)"/>
      </g>
     </g>
    </g>
    <g id="xtick_5">
     <g id="line2d_9">
      <path d="M 438.55504 320.4 
L 438.55504 43.2 
" clip-path="url(#p5fb550b582)" style="fill: none; stroke-dasharray: 5.12,1.28,0.8,1.28; stroke-dashoffset: 0; stroke: #b0b0b0; stroke-width: 0.8"/>
     </g>
     <g id="line2d_10">
      <g>
       <use xlink:href="#m62b43b15b4" x="438.55504" y="320.4" style="fill: #a9a9a9; stroke: #a9a9a9; stroke-width: 0.8"/>
      </g>
     </g>
     <g id="text_5">
      <!-- 2023-07 -->
      <g style="fill: #a9a9a9" transform="translate(417.663634 334.998438) scale(0.1 -0.1)">
       <use xlink:href="#DejaVuSans-32"/>
       <use xlink:href="#DejaVuSans-30" transform="translate(63.623047 0)"/>
       <use xlink:href="#DejaVuSans-32" transform="translate(127.246094 0)"/>
       <use xlink:href="#DejaVuSans-33" transform="translate(190.869141 0)"/>
       <use xlink:href="#DejaVuSans-2d" transform="translate(254.492188 0)"/>
       <use xlink:href="#DejaVuSans-30" transform="translate(290.576172 0)"/>
       <use xlink:href="#DejaVuSans-37" transform="translate(354.199219 0)"/>
      </g>
     </g>
    </g>
    <g id="xtick_6">
     <g id="line2d_11">
      <path d="M 516.662305 320.4 
L 516.662305 43.2 
" clip-path="url(#p5fb550b582)" style="fill: none; stroke-dasharray: 5.12,1.28,0.8,1.28; stroke-dashoffset: 0; stroke: #b0b0b0; stroke-width: 0.8"/>
     </g>
     <g id="line2d_12">
      <g>
       <use xlink:href="#m62b43b15b4" x="516.662305" y="320.4" style="fill: #a9a9a9; stroke: #a9a9a9; stroke-width: 0.8"/>
      </g>
     </g>
     <g id="text_6">
      <!-- 2024-01 -->
      <g style="fill: #a9a9a9" transform="translate(495.770899 334.998438) scale(0.1 -0.1)">
       <defs>
        <path id="DejaVuSans-34" d="M 2419 4116 
L 825 1625 
L 2419 1625 
L 2419 4116 
z
M 2253 4666 
L 3047 4666 
L 3047 1625 
L 3713 1625 
L 3713 1100 
L 3047 1100 
L 3047 0 
L 2419 0 
L 2419 1100 
L 313 1100 
L 313 1709 
L 2253 4666 
z
" transform="scale(0.015625)"/>
       </defs>
       <use xlink:href="#DejaVuSans-32"/>
       <use xlink:href="#DejaVuSans-30" transform="translate(63.623047 0)"/>
       <use xlink:href="#DejaVuSans-32" transform="translate(127.246094 0)"/>
       <use xlink:href="#DejaVuSans-34" transform="translate(190.869141 0)"/>
       <use xlink:href="#DejaVuSans-2d" transform="translate(254.492188 0)"/>
       <use xlink:href="#DejaVuSans-30" transform="translate(290.576172 0)"/>
       <use xlink:href="#DejaVuSans-31" transform="translate(354.199219 0)"/>
      </g>
     </g>
    </g>
    <g id="xtick_7">
     <g id="line2d_13">
      <path d="M 593.920578 320.4 
L 593.920578 43.2 
" clip-path="url(#p5fb550b582)" style="fill: none; stroke-dasharray: 5.12,1.28,0.8,1.28; stroke-dashoffset: 0; stroke: #b0b0b0; stroke-width: 0.8"/>
     </g>
     <g id="line2d_14">
      <g>
       <use xlink:href="#m62b43b15b4" x="593.920578" y="320.4" style="fill: #a9a9a9; stroke: #a9a9a9; stroke-width: 0.8"/>
      </g>
     </g>
     <g id="text_7">
      <!-- 2024-07 -->
      <g style="fill: #a9a9a9" transform="translate(573.029172 334.998438) scale(0.1 -0.1)">
       <use xlink:href="#DejaVuSans-32"/>
       <use xlink:href="#DejaVuSans-30" transform="translate(63.623047 0)"/>
       <use xlink:href="#DejaVuSans-32" transform="translate(127.246094 0)"/>
       <use xlink:href="#DejaVuSans-34" transform="translate(190.869141 0)"/>
       <use xlink:href="#DejaVuSans-2d" transform="translate(254.492188 0)"/>
       <use xlink:href="#DejaVuSans-30" transform="translate(290.576172 0)"/>
       <use xlink:href="#DejaVuSans-37" transform="translate(354.199219 0)"/>
      </g>
     </g>
    </g>
    <g id="xtick_8">
     <g id="line2d_15">
      <path d="M 672.027843 320.4 
L 672.027843 43.2 
" clip-path="url(#p5fb550b582)" style="fill: none; stroke-dasharray: 5.12,1.28,0.8,1.28; stroke-dashoffset: 0; stroke: #b0b0b0; stroke-width: 0.8"/>
     </g>
     <g id="line2d_16">
      <g>
       <use xlink:href="#m62b43b15b4" x="672.027843" y="320.4" style="fill: #a9a9a9; stroke: #a9a9a9; stroke-width: 0.8"/>
      </g>
     </g>
     <g id="text_8">
      <!-- 2025-01 -->
      <g style="fill: #a9a9a9" transform="translate(651.136437 334.998438) scale(0.1 -0.1)">
       <defs>
        <path id="DejaVuSans-35" d="M 691 4666 
L 3169 4666 
L 3169 4134 
L 1269 4134 
L 1269 2991 
Q 1406 3038 1543 3061 
Q 1681 3084 1819 3084 
Q 2600 3084 3056 2656 
Q 3513 2228 3513 1497 
Q 3513 744 3044 326 
Q 2575 -91 1722 -91 
Q 1428 -91 1123 -41 
Q 819 9 494 109 
L 494 744 
Q 775 591 1075 516 
Q 1375 441 1709 441 
Q 2250 441 2565 725 
Q 2881 1009 2881 1497 
Q 2881 1984 2565 2268 
Q 2250 2553 1709 2553 
Q 1456 2553 1204 2497 
Q 953 2441 691 2322 
L 691 4666 
z
" transform="scale(0.015625)"/>
       </defs>
       <use xlink:href="#DejaVuSans-32"/>
       <use xlink:href="#DejaVuSans-30" transform="translate(63.623047 0)"/>
       <use xlink:href="#DejaVuSans-32" transform="translate(127.246094 0)"/>
       <use xlink:href="#DejaVuSans-35" transform="translate(190.869141 0)"/>
       <use xlink:href="#DejaVuSans-2d" transform="translate(254.492188 0)"/>
       <use xlink:href="#DejaVuSans-30" transform="translate(290.576172 0)"/>
       <use xlink:href="#DejaVuSans-31" transform="translate(354.199219 0)"/>
      </g>
     </g>
    </g>
    <g id="xtick_9">
     <g id="line2d_17">
      <path d="M 748.86162 320.4 
L 748.86162 43.2 
" clip-path="url(#p5fb550b582)" style="fill: none; stroke-dasharray: 5.12,1.28,0.8,1.28; stroke-dashoffset: 0; stroke: #b0b0b0; stroke-width: 0.8"/>
     </g>
     <g id="line2d_18">
      <g>
       <use xlink:href="#m62b43b15b4" x="748.86162" y="320.4" style="fill: #a9a9a9; stroke: #a9a9a9; stroke-width: 0.8"/>
      </g>
     </g>
     <g id="text_9">
      <!-- 2025-07 -->
      <g style="fill: #a9a9a9" transform="translate(727.970214 334.998438) scale(0.1 -0.1)">
       <use xlink:href="#DejaVuSans-32"/>
       <use xlink:href="#DejaVuSans-30" transform="translate(63.623047 0)"/>
       <use xlink:href="#DejaVuSans-32" transform="translate(127.246094 0)"/>
       <use xlink:href="#DejaVuSans-35" transform="translate(190.869141 0)"/>
       <use xlink:href="#DejaVuSans-2d" transform="translate(254.492188 0)"/>
       <use xlink:href="#DejaVuSans-30" transform="translate(290.576172 0)"/>
       <use xlink:href="#DejaVuSans-37" transform="translate(354.199219 0)"/>
      </g>
     </g>
    </g>
   </g>
   <g id="matplotlib.axis_2">
    <g id="ytick_1">
     <g id="line2d_19">
      <path d="M 108 307.832362 
L 777.6 307.832362 
" clip-path="url(#p5fb550b582)" style="fill: none; stroke-dasharray: 5.12,1.28,0.8,1.28; stroke-dashoffset: 0; stroke: #b0b0b0; stroke-width: 0.8"/>
     </g>
     <g id="line2d_20">
      <defs>
       <path id="me4f17bd44f" d="M 0 0 
L -3.5 0 
" style="stroke: #a9a9a9; stroke-width: 0.8"/>
      </defs>
      <g>
       <use xlink:href="#me4f17bd44f" x="108" y="307.832362" style="fill: #a9a9a9; stroke: #a9a9a9; stroke-width: 0.8"/>
      </g>
     </g>
     <g id="text_10">
      <!-- 0 -->
      <g style="fill: #a9a9a9" transform="translate(94.6375 311.63158) scale(0.1 -0.1)">
       <use xlink:href="#DejaVuSans-30"/>
      </g>
     </g>
    </g>
    <g id="ytick_2">
     <g id="line2d_21">
      <path d="M 108 275.470733 
L 777.6 275.470733 
" clip-path="url(#p5fb550b582)" style="fill: none; stroke-dasharray: 5.12,1.28,0.8,1.28; stroke-dashoffset: 0; stroke: #b0b0b0; stroke-width: 0.8"/>
     </g>
     <g id="line2d_22">
      <g>
       <use xlink:href="#me4f17bd44f" x="108" y="275.470733" style="fill: #a9a9a9; stroke: #a9a9a9; stroke-width: 0.8"/>
      </g>
     </g>
     <g id="text_11">
      <!-- 1000 -->
      <g style="fill: #a9a9a9" transform="translate(75.55 279.269952) scale(0.1 -0.1)">
       <use xlink:href="#DejaVuSans-31"/>
       <use xlink:href="#DejaVuSans-30" transform="translate(63.623047 0)"/>
       <use xlink:href="#DejaVuSans-30" transform="translate(127.246094 0)"/>
       <use xlink:href="#DejaVuSans-30" transform="translate(190.869141 0)"/>
      </g>
     </g>
    </g>
    <g id="ytick_3">
     <g id="line2d_23">
      <path d="M 108 243.109105 
L 777.6 243.109105 
" clip-path="url(#p5fb550b582)" style="fill: none; stroke-dasharray: 5.12,1.28,0.8,1.28; stroke-dashoffset: 0; stroke: #b0b0b0; stroke-width: 0.8"/>
     </g>
     <g id="line2d_24">
      <g>
       <use xlink:href="#me4f17bd44f" x="108" y="243.109105" style="fill: #a9a9a9; stroke: #a9a9a9; stroke-width: 0.8"/>
      </g>
     </g>
     <g id="text_12">
      <!-- 2000 -->
      <g style="fill: #a9a9a9" transform="translate(75.55 246.908324) scale(0.1 -0.1)">
       <use xlink:href="#DejaVuSans-32"/>
       <use xlink:href="#DejaVuSans-30" transform="translate(63.623047 0)"/>
       <use xlink:href="#DejaVuSans-30" transform="translate(127.246094 0)"/>
       <use xlink:href="#DejaVuSans-30" transform="translate(190.869141 0)"/>
      </g>
     </g>
    </g>
    <g id="ytick_4">
     <g id="line2d_25">
      <path d="M 108 210.747477 
L 777.6 210.747477 
" clip-path="url(#p5fb550b582)" style="fill: none; stroke-dasharray: 5.12,1.28,0.8,1.28; stroke-dashoffset: 0; stroke: #b0b0b0; stroke-width: 0.8"/>
     </g>
     <g id="line2d_26">
      <g>
       <use xlink:href="#me4f17bd44f" x="108" y="210.747477" style="fill: #a9a9a9; stroke: #a9a9a9; stroke-width: 0.8"/>
      </g>
     </g>
     <g id="text_13">
      <!-- 3000 -->
      <g style="fill: #a9a9a9" transform="translate(75.55 214.546695) scale(0.1 -0.1)">
       <use xlink:href="#DejaVuSans-33"/>
       <use xlink:href="#DejaVuSans-30" transform="translate(63.623047 0)"/>
       <use xlink:href="#DejaVuSans-30" transform="translate(127.246094 0)"/>
       <use xlink:href="#DejaVuSans-30" transform="translate(190.869141 0)"/>
      </g>
     </g>
    </g>
    <g id="ytick_5">
     <g id="line2d_27">
      <path d="M 108 178.385848 
L 777.6 178.385848 
" clip-path="url(#p5fb550b582)" style="fill: none; stroke-dasharray: 5.12,1.28,0.8,1.28; stroke-dashoffset: 0; stroke: #b0b0b0; stroke-width: 0.8"/>
     </g>
     <g id="line2d_28">
      <g>
       <use xlink:href="#me4f17bd44f" x="108" y="178.385848" style="fill: #a9a9a9; stroke: #a9a9a9; stroke-width: 0.8"/>
      </g>
     </g>
     <g id="text_14">
      <!-- 4000 -->
      <g style="fill: #a9a9a9" transform="translate(75.55 182.185067) scale(0.1 -0.1)">
       <use xlink:href="#DejaVuSans-34"/>
       <use xlink:href="#DejaVuSans-30" transform="translate(63.623047 0)"/>
       <use xlink:href="#DejaVuSans-30" transform="translate(127.246094 0)"/>
       <use xlink:href="#DejaVuSans-30" transform="translate(190.869141 0)"/>
      </g>
     </g>
    </g>
    <g id="ytick_6">
     <g id="line2d_29">
      <path d="M 108 146.02422 
L 777.6 146.02422 
" clip-path="url(#p5fb550b582)" style="fill: none; stroke-dasharray: 5.12,1.28,0.8,1.28; stroke-dashoffset: 0; stroke: #b0b0b0; stroke-width: 0.8"/>
     </g>
     <g id="line2d_30">
      <g>
       <use xlink:href="#me4f17bd44f" x="108" y="146.02422" style="fill: #a9a9a9; stroke: #a9a9a9; stroke-width: 0.8"/>
      </g>
     </g>
     <g id="text_15">
      <!-- 5000 -->
      <g style="fill: #a9a9a9" transform="translate(75.55 149.823439) scale(0.1 -0.1)">
       <use xlink:href="#DejaVuSans-35"/>
       <use xlink:href="#DejaVuSans-30" transform="translate(63.623047 0)"/>
       <use xlink:href="#DejaVuSans-30" transform="translate(127.246094 0)"/>
       <use xlink:href="#DejaVuSans-30" transform="translate(190.869141 0)"/>
      </g>
     </g>
    </g>
    <g id="ytick_7">
     <g id="line2d_31">
      <path d="M 108 113.662591 
L 777.6 113.662591 
" clip-path="url(#p5fb550b582)" style="fill: none; stroke-dasharray: 5.12,1.28,0.8,1.28; stroke-dashoffset: 0; stroke: #b0b0b0; stroke-width: 0.8"/>
     </g>
     <g id="line2d_32">
      <g>
       <use xlink:href="#me4f17bd44f" x="108" y="113.662591" style="fill: #a9a9a9; stroke: #a9a9a9; stroke-width: 0.8"/>
      </g>
     </g>
     <g id="text_16">
      <!-- 6000 -->
      <g style="fill: #a9a9a9" transform="translate(75.55 117.46181) scale(0.1 -0.1)">
       <defs>
        <path id="DejaVuSans-36" d="M 2113 2584 
Q 1688 2584 1439 2293 
Q 1191 2003 1191 1497 
Q 1191 994 1439 701 
Q 1688 409 2113 409 
Q 2538 409 2786 701 
Q 3034 994 3034 1497 
Q 3034 2003 2786 2293 
Q 2538 2584 2113 2584 
z
M 3366 4563 
L 3366 3988 
Q 3128 4100 2886 4159 
Q 2644 4219 2406 4219 
Q 1781 4219 1451 3797 
Q 1122 3375 1075 2522 
Q 1259 2794 1537 2939 
Q 1816 3084 2150 3084 
Q 2853 3084 3261 2657 
Q 3669 2231 3669 1497 
Q 3669 778 3244 343 
Q 2819 -91 2113 -91 
Q 1303 -91 875 529 
Q 447 1150 447 2328 
Q 447 3434 972 4092 
Q 1497 4750 2381 4750 
Q 2619 4750 2861 4703 
Q 3103 4656 3366 4563 
z
" transform="scale(0.015625)"/>
       </defs>
       <use xlink:href="#DejaVuSans-36"/>
       <use xlink:href="#DejaVuSans-30" transform="translate(63.623047 0)"/>
       <use xlink:href="#DejaVuSans-30" transform="translate(127.246094 0)"/>
       <use xlink:href="#DejaVuSans-30" transform="translate(190.869141 0)"/>
      </g>
     </g>
    </g>
    <g id="ytick_8">
     <g id="line2d_33">
      <path d="M 108 81.300963 
L 777.6 81.300963 
" clip-path="url(#p5fb550b582)" style="fill: none; stroke-dasharray: 5.12,1.28,0.8,1.28; stroke-dashoffset: 0; stroke: #b0b0b0; stroke-width: 0.8"/>
     </g>
     <g id="line2d_34">
      <g>
       <use xlink:href="#me4f17bd44f" x="108" y="81.300963" style="fill: #a9a9a9; stroke: #a9a9a9; stroke-width: 0.8"/>
      </g>
     </g>
     <g id="text_17">
      <!-- 7000 -->
      <g style="fill: #a9a9a9" transform="translate(75.55 85.100182) scale(0.1 -0.1)">
       <use xlink:href="#DejaVuSans-37"/>
       <use xlink:href="#DejaVuSans-30" transform="translate(63.623047 0)"/>
       <use xlink:href="#DejaVuSans-30" transform="translate(127.246094 0)"/>
       <use xlink:href="#DejaVuSans-30" transform="translate(190.869141 0)"/>
      </g>
     </g>
    </g>
    <g id="ytick_9">
     <g id="line2d_35">
      <path d="M 108 48.939335 
L 777.6 48.939335 
" clip-path="url(#p5fb550b582)" style="fill: none; stroke-dasharray: 5.12,1.28,0.8,1.28; stroke-dashoffset: 0; stroke: #b0b0b0; stroke-width: 0.8"/>
     </g>
     <g id="line2d_36">
      <g>
       <use xlink:href="#me4f17bd44f" x="108" y="48.939335" style="fill: #a9a9a9; stroke: #a9a9a9; stroke-width: 0.8"/>
      </g>
     </g>
     <g id="text_18">
      <!-- 8000 -->
      <g style="fill: #a9a9a9" transform="translate(75.55 52.738554) scale(0.1 -0.1)">
       <defs>
        <path id="DejaVuSans-38" d="M 2034 2216 
Q 1584 2216 1326 1975 
Q 1069 1734 1069 1313 
Q 1069 891 1326 650 
Q 1584 409 2034 409 
Q 2484 409 2743 651 
Q 3003 894 3003 1313 
Q 3003 1734 2745 1975 
Q 2488 2216 2034 2216 
z
M 1403 2484 
Q 997 2584 770 2862 
Q 544 3141 544 3541 
Q 544 4100 942 4425 
Q 1341 4750 2034 4750 
Q 2731 4750 3128 4425 
Q 3525 4100 3525 3541 
Q 3525 3141 3298 2862 
Q 3072 2584 2669 2484 
Q 3125 2378 3379 2068 
Q 3634 1759 3634 1313 
Q 3634 634 3220 271 
Q 2806 -91 2034 -91 
Q 1263 -91 848 271 
Q 434 634 434 1313 
Q 434 1759 690 2068 
Q 947 2378 1403 2484 
z
M 1172 3481 
Q 1172 3119 1398 2916 
Q 1625 2713 2034 2713 
Q 2441 2713 2670 2916 
Q 2900 3119 2900 3481 
Q 2900 3844 2670 4047 
Q 2441 4250 2034 4250 
Q 1625 4250 1398 4047 
Q 1172 3844 1172 3481 
z
" transform="scale(0.015625)"/>
       </defs>
       <use xlink:href="#DejaVuSans-38"/>
       <use xlink:href="#DejaVuSans-30" transform="translate(63.623047 0)"/>
       <use xlink:href="#DejaVuSans-30" transform="translate(127.246094 0)"/>
       <use xlink:href="#DejaVuSans-30" transform="translate(190.869141 0)"/>
      </g>
     </g>
    </g>
   </g>
   <g id="line2d_37">
    <path d="M 138.436364 307.735277 
L 140.98334 307.508745 
L 141.407836 307.314576 
L 143.10582 307.088044 
L 144.803804 306.732066 
L 145.652796 306.60262 
L 147.775276 306.40845 
L 148.624268 306.052472 
L 149.048764 305.469963 
L 149.47326 305.178708 
L 149.897756 304.207859 
L 150.322252 304.143136 
L 150.746748 303.787158 
L 151.59574 303.334095 
L 153.293724 301.910184 
L 154.991708 301.03642 
L 156.265196 300.421549 
L 156.689692 299.709593 
L 157.538684 299.06236 
L 157.96318 298.868191 
L 162.20814 298.220958 
L 162.632636 298.026788 
L 165.604108 297.767895 
L 167.302092 297.347194 
L 170.69806 296.86177 
L 171.122556 296.635238 
L 171.547052 296.570515 
L 172.396044 296.27926 
L 175.367516 295.761474 
L 176.216508 295.502581 
L 180.036972 294.855349 
L 180.885964 294.661179 
L 181.734956 294.628817 
L 183.43294 294.208116 
L 183.857436 293.593245 
L 185.130924 293.075459 
L 186.404412 292.719481 
L 186.828908 292.49295 
L 187.6779 292.331142 
L 189.375884 291.813356 
L 190.224876 291.748632 
L 191.073868 291.522101 
L 192.771852 291.069038 
L 193.196348 291.036677 
L 194.04534 290.615975 
L 194.469836 290.551252 
L 194.894332 290.324721 
L 199.563789 289.51568 
L 201.261773 288.997894 
L 201.686269 288.706639 
L 203.808749 287.994683 
L 204.657741 287.379813 
L 205.931229 287.120919 
L 215.270141 284.305458 
L 215.694637 284.273096 
L 216.968125 283.884757 
L 217.392621 283.884757 
L 217.817117 283.690587 
L 218.666109 283.593502 
L 219.090605 283.431694 
L 220.788589 283.366971 
L 221.637581 283.205162 
L 222.486573 282.7521 
L 223.760061 282.266675 
L 224.609053 281.813612 
L 225.458045 281.36055 
L 226.307037 281.069295 
L 226.731533 280.939848 
L 227.580525 280.389701 
L 228.005021 279.904276 
L 228.854013 278.545088 
L 229.278509 278.415641 
L 229.703005 278.415641 
L 231.400989 277.444793 
L 231.825485 277.347708 
L 232.249981 276.927007 
L 233.098973 276.571029 
L 233.947965 276.182689 
L 234.372461 275.664903 
L 234.796957 274.952947 
L 235.221453 274.661693 
L 235.645949 273.885013 
L 236.070445 273.399589 
L 238.617421 271.975677 
L 239.466413 271.263722 
L 239.890909 271.004829 
L 240.315405 270.389958 
L 240.739901 269.386747 
L 241.164397 268.707153 
L 241.588893 268.351175 
L 242.013389 268.157005 
L 245.409357 264.953204 
L 246.258349 264.144163 
L 248.805325 262.49372 
L 249.229821 262.331912 
L 250.927805 261.29634 
L 251.352301 261.10217 
L 253.474781 259.095749 
L 254.323773 258.739771 
L 255.172765 258.1249 
L 255.597261 257.866007 
L 256.021757 257.801284 
L 257.295245 257.056967 
L 257.719741 256.571542 
L 259.842221 255.374162 
L 260.266717 255.212354 
L 261.540205 254.306228 
L 267.907645 251.976191 
L 268.756638 251.16715 
L 270.030126 250.519918 
L 270.879118 249.96977 
L 271.72811 249.710877 
L 272.152606 249.419622 
L 272.577102 249.290176 
L 273.85059 248.416412 
L 275.97307 247.930988 
L 277.246558 247.154308 
L 278.520046 246.863054 
L 278.944542 246.765969 
L 280.21803 245.79512 
L 281.916014 245.309696 
L 282.34051 244.953718 
L 284.887486 244.047592 
L 285.736478 243.885784 
L 286.58547 243.529806 
L 289.556942 242.397149 
L 290.405934 242.267703 
L 291.679422 241.81464 
L 293.801902 240.746706 
L 296.348878 239.290433 
L 297.19787 239.063901 
L 298.471358 238.416669 
L 299.32035 238.254861 
L 300.169342 237.737075 
L 301.018334 237.510543 
L 302.291822 236.992757 
L 303.989806 236.766226 
L 304.838798 236.313163 
L 305.263294 235.924823 
L 305.68779 235.148144 
L 307.385774 234.66272 
L 308.659262 233.983126 
L 309.508254 233.691871 
L 310.781742 233.044639 
L 312.904222 232.170875 
L 313.753214 231.976705 
L 315.026702 231.329472 
L 315.451198 231.264749 
L 317.573678 230.196815 
L 318.42267 229.646668 
L 319.696158 229.387774 
L 321.818638 228.837627 
L 322.243134 228.481649 
L 323.092126 228.190394 
L 325.214606 227.31663 
L 325.639102 226.993014 
L 326.063598 226.831206 
L 326.91259 226.345781 
L 328.610574 225.795634 
L 329.459566 225.245486 
L 329.884062 224.792423 
L 330.308558 224.53353 
L 330.733054 224.436445 
L 331.582046 223.72449 
L 332.006542 223.659766 
L 332.431038 222.94781 
L 332.855534 222.753641 
L 333.28003 222.397663 
L 333.704526 222.33294 
L 334.553518 221.782792 
L 335.40251 221.491537 
L 335.827006 221.167921 
L 336.251502 221.006113 
L 337.949486 219.841094 
L 339.222975 219.193862 
L 340.071967 218.96733 
L 340.920959 218.481906 
L 341.345455 217.737588 
L 342.194447 217.090356 
L 342.618943 216.993271 
L 345.165919 215.731167 
L 346.014911 215.375189 
L 346.863903 214.760318 
L 348.137391 213.562938 
L 348.986383 213.045152 
L 349.410879 212.559728 
L 351.108863 211.362348 
L 351.957855 210.488584 
L 352.806847 210.197329 
L 353.655839 209.61482 
L 354.929327 208.935225 
L 355.353823 208.870502 
L 356.627311 208.158546 
L 357.476303 207.608399 
L 361.721263 205.990317 
L 362.145759 205.634339 
L 363.843743 204.954745 
L 364.268239 204.825299 
L 365.117231 204.275151 
L 365.966223 203.919173 
L 366.815215 203.304302 
L 367.664207 201.556774 
L 368.513199 200.521202 
L 369.786687 199.841608 
L 370.635679 199.48563 
L 371.060175 199.420907 
L 371.909167 199.032567 
L 373.607151 198.450058 
L 374.456143 197.964633 
L 375.305135 197.543932 
L 375.729631 197.414486 
L 378.276607 195.861128 
L 378.701103 195.375703 
L 379.974591 194.631386 
L 380.399087 194.469578 
L 381.248079 193.951791 
L 382.946063 193.013304 
L 383.370559 192.916219 
L 383.795055 192.560241 
L 386.766527 191.557031 
L 387.191023 191.233415 
L 388.040015 190.974522 
L 388.889007 190.618544 
L 389.313503 190.262566 
L 391.011487 189.647695 
L 391.860479 189.032824 
L 392.709471 188.676846 
L 393.558463 187.997252 
L 394.407455 187.738359 
L 394.831951 187.350019 
L 395.256447 187.285296 
L 396.105439 186.605702 
L 398.227919 185.343598 
L 399.076911 185.084705 
L 399.501407 184.825812 
L 399.925903 184.761089 
L 401.199391 184.049133 
L 402.897375 183.466624 
L 403.746367 183.337177 
L 404.170863 183.143008 
L 404.595359 183.078284 
L 405.444351 182.689945 
L 405.868847 182.657583 
L 407.566831 182.010351 
L 408.84032 181.071863 
L 409.264816 180.910055 
L 410.113808 180.424631 
L 410.538304 180.295184 
L 413.08528 178.838911 
L 413.509776 178.741826 
L 414.783264 177.965147 
L 416.056752 177.512084 
L 416.905744 177.22083 
L 418.603728 176.63832 
L 419.45272 176.347066 
L 421.150704 175.991088 
L 421.5752 175.796918 
L 422.424192 175.570387 
L 422.848688 175.376217 
L 423.273184 175.311494 
L 423.69768 175.084962 
L 424.546672 174.923154 
L 425.82016 174.43773 
L 426.669152 174.340645 
L 427.94264 174.04939 
L 430.06512 173.66105 
L 441.102016 170.295441 
L 441.526512 169.842378 
L 444.073488 168.774445 
L 445.771472 168.191935 
L 446.195968 167.933042 
L 447.469456 167.544703 
L 448.318448 167.318171 
L 448.742944 167.026917 
L 449.16744 166.929832 
L 449.591936 166.541492 
L 450.865424 166.282599 
L 451.714416 165.89426 
L 452.138912 165.376474 
L 456.808368 164.340902 
L 457.232864 164.340902 
L 457.65736 164.146732 
L 459.355344 163.823115 
L 459.77984 163.628946 
L 461.477824 163.305329 
L 462.326816 162.949351 
L 463.175808 162.787543 
L 465.298288 162.237396 
L 466.996272 161.687248 
L 467.420768 161.590163 
L 467.845264 161.363632 
L 468.694256 161.1371 
L 469.543248 160.781122 
L 470.39224 160.457506 
L 470.816736 160.166251 
L 471.665728 159.907358 
L 474.6372 158.774701 
L 476.335184 158.54817 
L 479.731153 157.286067 
L 480.155649 156.96245 
L 480.580145 156.865365 
L 481.004641 156.638834 
L 481.429137 156.606472 
L 486.098593 154.891306 
L 488.221073 154.308797 
L 489.070065 153.888096 
L 490.343553 153.596841 
L 492.041537 152.172929 
L 493.739521 151.428612 
L 494.588513 151.040272 
L 497.135489 150.037062 
L 497.559985 149.745807 
L 499.682465 149.033851 
L 500.955953 148.289534 
L 501.380449 148.192449 
L 503.502929 147.02743 
L 504.776417 146.444921 
L 505.200913 146.121305 
L 506.049905 145.83005 
L 508.172385 144.729755 
L 509.445873 144.276692 
L 511.143857 143.564736 
L 512.417345 143.079312 
L 512.841841 142.917504 
L 513.690833 142.788057 
L 514.115329 142.496802 
L 515.813313 142.173186 
L 516.662305 141.817208 
L 518.360289 141.008167 
L 524.303233 138.354514 
L 525.576721 137.933813 
L 526.001217 137.642558 
L 526.850209 137.545473 
L 527.274705 137.254219 
L 528.123697 137.124772 
L 528.972689 136.704071 
L 529.397185 136.509901 
L 530.246177 136.28337 
L 531.095169 136.024477 
L 532.368657 135.539052 
L 533.642145 135.118351 
L 534.915633 134.827096 
L 536.613617 134.115141 
L 537.462609 133.662078 
L 539.160593 132.788314 
L 540.009585 132.594144 
L 540.434081 132.335251 
L 540.858577 132.238166 
L 542.132065 131.493849 
L 542.981057 131.137871 
L 552.31997 127.513368 
L 554.017954 126.704328 
L 558.262914 125.021523 
L 559.111906 124.600822 
L 559.536402 124.503737 
L 559.960898 124.277206 
L 561.658882 123.791781 
L 563.356866 122.36787 
L 563.781362 122.238423 
L 564.205858 121.97953 
L 565.479346 121.623552 
L 565.903842 121.299936 
L 566.328338 121.202851 
L 567.601826 120.426172 
L 568.026322 120.134917 
L 569.29981 119.649493 
L 569.724306 119.422961 
L 570.997794 119.131707 
L 573.120274 118.387389 
L 573.969266 118.128496 
L 575.242754 117.448902 
L 576.091746 117.028201 
L 576.940738 116.801669 
L 578.214226 116.186799 
L 582.03469 114.730525 
L 583.308178 113.921485 
L 583.732674 113.8244 
L 584.581666 113.403698 
L 585.430658 113.080082 
L 585.855154 112.691743 
L 586.704146 112.335765 
L 587.977634 111.882702 
L 588.40213 111.526724 
L 588.826626 111.494362 
L 589.675618 111.235469 
L 590.52461 110.944215 
L 590.949106 110.750045 
L 591.373602 110.685322 
L 592.222594 110.329344 
L 593.496082 110.038089 
L 594.345074 109.552665 
L 594.76957 109.390857 
L 595.194066 109.06724 
L 596.467554 108.743624 
L 596.89205 108.484731 
L 597.741042 108.2582 
L 599.01453 107.513882 
L 599.439026 107.48152 
L 600.712514 107.060819 
L 601.561506 106.996096 
L 601.986002 106.769565 
L 602.834994 106.543033 
L 603.25949 106.316502 
L 605.38197 105.895801 
L 606.230962 105.733993 
L 607.50445 105.248568 
L 608.777938 104.957313 
L 610.051426 104.277719 
L 610.475922 103.88938 
L 611.74941 103.112701 
L 612.173906 102.789084 
L 613.447394 102.368383 
L 614.296386 102.141852 
L 618.116851 100.459047 
L 619.814835 100.005984 
L 620.663827 99.617645 
L 621.088323 99.391113 
L 621.937315 99.13222 
L 622.361811 98.905689 
L 623.210803 98.743881 
L 626.606771 97.255246 
L 627.031267 97.190523 
L 628.304755 96.34912 
L 628.729251 96.284397 
L 630.427235 95.604803 
L 632.125219 95.184102 
L 632.549715 95.119378 
L 632.974211 94.925209 
L 633.398707 94.892847 
L 634.247699 94.601592 
L 634.672195 94.569231 
L 635.945683 94.083806 
L 637.643667 93.598382 
L 638.492659 92.951149 
L 640.190643 91.980301 
L 640.615139 91.883216 
L 641.039635 91.656684 
L 641.888627 91.36543 
L 642.313123 91.235983 
L 642.737619 90.880005 
L 644.011107 90.394581 
L 644.860099 89.909156 
L 645.284595 89.682625 
L 645.709091 89.294285 
L 647.831571 88.711776 
L 649.105059 88.129267 
L 649.954051 87.902735 
L 650.378547 87.676204 
L 650.803043 87.320226 
L 652.501027 86.867163 
L 652.925523 86.543547 
L 658.443971 84.504764 
L 659.292963 84.342956 
L 661.415443 83.663362 
L 662.264435 83.307384 
L 663.113427 82.983768 
L 663.962419 82.757236 
L 664.386915 82.563067 
L 664.811411 82.563067 
L 665.660403 82.207089 
L 666.509395 81.721664 
L 669.480867 80.718454 
L 671.178851 80.135945 
L 672.452339 79.84469 
L 673.725827 79.423989 
L 674.150323 79.326904 
L 674.574819 79.035649 
L 675.423811 78.841479 
L 677.121795 78.356055 
L 677.546291 78.323693 
L 678.395283 77.935354 
L 681.366755 77.191036 
L 682.215747 76.835058 
L 686.460707 75.86421 
L 687.734196 75.184615 
L 689.007684 74.796276 
L 693.252644 73.210556 
L 693.67714 72.88694 
L 694.950628 72.595685 
L 695.79962 72.336792 
L 696.648612 71.916091 
L 697.073108 71.560113 
L 697.9221 71.30122 
L 698.346596 71.042327 
L 699.195588 70.945242 
L 702.16706 70.10384 
L 703.440548 69.844947 
L 704.714036 69.52133 
L 705.563028 69.294799 
L 706.836516 68.615205 
L 708.5345 67.967972 
L 709.383492 67.514909 
L 709.807988 67.482548 
L 710.65698 67.061847 
L 713.628452 66.220444 
L 714.90194 66.026275 
L 715.750932 65.73502 
L 717.02442 65.34668 
L 720.844884 64.278747 
L 721.693876 64.052215 
L 722.118372 63.95513 
L 722.542868 63.696237 
L 723.39186 63.534429 
L 724.240852 63.437344 
L 724.665348 63.210813 
L 725.089844 63.178451 
L 726.363332 62.531219 
L 727.63682 62.239964 
L 728.485812 61.851625 
L 729.334804 61.56037 
L 730.183796 61.333838 
L 731.032788 60.977861 
L 731.88178 60.686606 
L 733.579764 60.201181 
L 734.428756 60.136458 
L 735.277748 59.845204 
L 735.702244 59.683395 
L 736.551236 59.553949 
L 738.24922 58.77727 
L 738.673716 58.712547 
L 739.098212 58.486015 
L 739.947204 58.324207 
L 740.796196 58.259484 
L 742.918676 57.676974 
L 744.61666 57.126827 
L 745.041156 56.867934 
L 745.890148 56.123616 
L 746.73914 55.8 
L 747.163636 55.8 
L 747.163636 55.8 
" clip-path="url(#p5fb550b582)" style="fill: none; stroke: #1f77b4; stroke-width: 1.5; stroke-linecap: square"/>
   </g>
   <g id="line2d_38">
    <path d="M 138.86086 307.8 
L 142.681324 307.702915 
L 146.077292 307.541107 
L 147.775276 307.541107 
L 148.199772 307.41166 
L 150.322252 307.314576 
L 152.869228 307.023321 
L 155.416204 306.926236 
L 156.265196 306.829151 
L 159.236668 306.699705 
L 162.20814 306.60262 
L 164.33062 306.537896 
L 169.849068 306.440812 
L 171.971548 306.376088 
L 175.792012 306.279003 
L 177.489996 306.246642 
L 181.734956 306.149557 
L 183.43294 305.987749 
L 185.130924 305.955387 
L 187.6779 305.858302 
L 189.375884 305.825941 
L 191.498364 305.761217 
L 193.196348 305.599409 
L 197.016812 305.502324 
L 197.865804 305.437601 
L 199.563789 305.340516 
L 202.110765 305.243431 
L 203.808749 305.146346 
L 211.449677 304.660922 
L 214.421149 304.563837 
L 215.694637 304.434391 
L 217.817117 304.337306 
L 222.062077 304.110774 
L 226.307037 304.046051 
L 228.005021 303.851881 
L 230.127501 303.754796 
L 234.372461 303.334095 
L 236.919437 303.010479 
L 238.617421 302.945756 
L 242.013389 302.492693 
L 244.560365 302.42797 
L 245.833853 302.298523 
L 247.107341 302.201438 
L 258.993229 301.262951 
L 259.842221 301.101143 
L 262.389197 301.004058 
L 269.181134 300.583357 
L 272.152606 300.486272 
L 273.85059 300.292102 
L 275.97307 300.195017 
L 278.520046 300.097932 
L 280.642526 300.000848 
L 282.34051 299.968486 
L 284.46299 299.903763 
L 285.311982 299.774316 
L 291.254926 299.677231 
L 292.103918 299.580146 
L 297.19787 299.483062 
L 301.018334 299.288892 
L 303.989806 299.191807 
L 305.68779 298.997637 
L 308.659262 298.900552 
L 309.508254 298.771106 
L 311.630734 298.706382 
L 315.875694 298.641659 
L 317.573678 298.479851 
L 319.271662 298.447489 
L 320.54515 298.350405 
L 322.243134 298.188596 
L 326.488094 297.962065 
L 330.733054 297.86498 
L 334.553518 297.67081 
L 335.827006 297.638449 
L 336.675998 297.509002 
L 338.798479 297.411917 
L 339.647471 297.347194 
L 340.496463 297.282471 
L 341.345455 297.217748 
L 345.590415 297.120663 
L 357.476303 296.311622 
L 360.023279 296.214537 
L 362.145759 296.149814 
L 368.088703 296.052729 
L 368.937695 295.923282 
L 374.880639 295.826198 
L 379.125599 295.599666 
L 379.974591 295.567304 
L 380.823583 295.47022 
L 382.946063 295.373135 
L 385.068543 295.308411 
L 387.191023 295.211327 
L 389.313503 295.146603 
L 393.133967 295.049518 
L 395.680943 294.952434 
L 401.623887 294.855349 
L 406.293343 294.596456 
L 407.991328 294.531732 
L 409.264816 294.434647 
L 415.20776 294.337563 
L 417.754736 294.240478 
L 425.395664 294.143393 
L 427.093648 294.111031 
L 432.1876 294.046308 
L 433.036592 293.981585 
L 438.979536 293.8845 
L 440.67752 293.852138 
L 451.714416 293.755053 
L 454.261392 293.657968 
L 472.090224 293.560884 
L 474.212704 293.49616 
L 485.249601 293.431437 
L 486.098593 293.366714 
L 488.221073 293.30199 
L 489.494561 293.172544 
L 492.041537 293.075459 
L 495.013009 292.946013 
L 498.833473 292.848928 
L 500.955953 292.784204 
L 503.927425 292.68712 
L 507.323393 292.525311 
L 509.445873 292.428227 
L 511.143857 292.395865 
L 514.964321 292.29878 
L 516.662305 292.266418 
L 522.180753 292.169334 
L 523.878737 292.136972 
L 526.001217 292.039887 
L 528.548193 291.942802 
L 531.519665 291.878079 
L 532.368657 291.813356 
L 542.556561 291.716271 
L 546.801521 291.489739 
L 549.772994 291.392654 
L 554.44245 291.133761 
L 557.413922 291.036677 
L 559.111906 291.004315 
L 562.083378 290.90723 
L 564.205858 290.680699 
L 568.450818 290.583614 
L 569.29981 290.486529 
L 573.54477 290.389444 
L 575.66725 290.324721 
L 580.336706 290.292359 
L 581.185698 290.195274 
L 585.855154 290.098189 
L 586.704146 290.033466 
L 596.043058 289.936381 
L 598.590034 289.839296 
L 604.957474 289.742211 
L 606.655458 289.70985 
L 610.475922 289.645126 
L 611.324914 289.548042 
L 616.843362 289.450957 
L 618.965843 289.386233 
L 626.606771 289.289149 
L 627.880259 289.192064 
L 629.153747 289.094979 
L 630.427235 288.997894 
L 636.794675 288.900809 
L 639.341651 288.803724 
L 650.803043 288.706639 
L 654.623507 288.51247 
L 659.717459 288.415385 
L 660.566451 288.350661 
L 666.933891 288.285938 
L 667.782883 288.221215 
L 672.452339 288.12413 
L 674.150323 288.091768 
L 680.093267 287.994683 
L 682.640243 287.897599 
L 689.856676 287.800514 
L 691.55466 287.768152 
L 695.375124 287.671067 
L 698.771092 287.509259 
L 703.440548 287.412174 
L 706.41202 287.282728 
L 710.232484 287.185643 
L 711.081476 287.120919 
L 719.571396 287.023835 
L 721.693876 286.959111 
L 724.240852 286.862026 
L 726.787828 286.764942 
L 739.522708 286.667857 
L 742.49418 286.53841 
L 747.163636 286.441325 
L 747.163636 286.441325 
" clip-path="url(#p5fb550b582)" style="fill: none; stroke: #ff7f0e; stroke-width: 1.5; stroke-linecap: square"/>
   </g>
   <g id="patch_3">
    <path d="M 108 320.4 
L 108 43.2 
" style="fill: none; stroke: #a9a9a9; stroke-width: 0.8; stroke-linejoin: miter; stroke-linecap: square"/>
   </g>
   <g id="patch_4">
    <path d="M 777.6 320.4 
L 777.6 43.2 
" style="fill: none"/>
   </g>
   <g id="patch_5">
    <path d="M 108 320.4 
L 777.6 320.4 
" style="fill: none; stroke: #a9a9a9; stroke-width: 0.8; stroke-linejoin: miter; stroke-linecap: square"/>
   </g>
   <g id="patch_6">
    <path d="M 108 43.2 
L 777.6 43.2 
" style="fill: none"/>
   </g>
   <g id="text_19">
    <!-- get_subscribe history -->
    <g style="fill: #a9a9a9" transform="translate(378.6075 37.2) scale(0.12 -0.12)">
     <defs>
      <path id="DejaVuSans-67" d="M 2906 1791 
Q 2906 2416 2648 2759 
Q 2391 3103 1925 3103 
Q 1463 3103 1205 2759 
Q 947 2416 947 1791 
Q 947 1169 1205 825 
Q 1463 481 1925 481 
Q 2391 481 2648 825 
Q 2906 1169 2906 1791 
z
M 3481 434 
Q 3481 -459 3084 -895 
Q 2688 -1331 1869 -1331 
Q 1566 -1331 1297 -1286 
Q 1028 -1241 775 -1147 
L 775 -588 
Q 1028 -725 1275 -790 
Q 1522 -856 1778 -856 
Q 2344 -856 2625 -561 
Q 2906 -266 2906 331 
L 2906 616 
Q 2728 306 2450 153 
Q 2172 0 1784 0 
Q 1141 0 747 490 
Q 353 981 353 1791 
Q 353 2603 747 3093 
Q 1141 3584 1784 3584 
Q 2172 3584 2450 3431 
Q 2728 3278 2906 2969 
L 2906 3500 
L 3481 3500 
L 3481 434 
z
" transform="scale(0.015625)"/>
      <path id="DejaVuSans-65" d="M 3597 1894 
L 3597 1613 
L 953 1613 
Q 991 1019 1311 708 
Q 1631 397 2203 397 
Q 2534 397 2845 478 
Q 3156 559 3463 722 
L 3463 178 
Q 3153 47 2828 -22 
Q 2503 -91 2169 -91 
Q 1331 -91 842 396 
Q 353 884 353 1716 
Q 353 2575 817 3079 
Q 1281 3584 2069 3584 
Q 2775 3584 3186 3129 
Q 3597 2675 3597 1894 
z
M 3022 2063 
Q 3016 2534 2758 2815 
Q 2500 3097 2075 3097 
Q 1594 3097 1305 2825 
Q 1016 2553 972 2059 
L 3022 2063 
z
" transform="scale(0.015625)"/>
      <path id="DejaVuSans-74" d="M 1172 4494 
L 1172 3500 
L 2356 3500 
L 2356 3053 
L 1172 3053 
L 1172 1153 
Q 1172 725 1289 603 
Q 1406 481 1766 481 
L 2356 481 
L 2356 0 
L 1766 0 
Q 1100 0 847 248 
Q 594 497 594 1153 
L 594 3053 
L 172 3053 
L 172 3500 
L 594 3500 
L 594 4494 
L 1172 4494 
z
" transform="scale(0.015625)"/>
      <path id="DejaVuSans-5f" d="M 3263 -1063 
L 3263 -1509 
L -63 -1509 
L -63 -1063 
L 3263 -1063 
z
" transform="scale(0.015625)"/>
      <path id="DejaVuSans-73" d="M 2834 3397 
L 2834 2853 
Q 2591 2978 2328 3040 
Q 2066 3103 1784 3103 
Q 1356 3103 1142 2972 
Q 928 2841 928 2578 
Q 928 2378 1081 2264 
Q 1234 2150 1697 2047 
L 1894 2003 
Q 2506 1872 2764 1633 
Q 3022 1394 3022 966 
Q 3022 478 2636 193 
Q 2250 -91 1575 -91 
Q 1294 -91 989 -36 
Q 684 19 347 128 
L 347 722 
Q 666 556 975 473 
Q 1284 391 1588 391 
Q 1994 391 2212 530 
Q 2431 669 2431 922 
Q 2431 1156 2273 1281 
Q 2116 1406 1581 1522 
L 1381 1569 
Q 847 1681 609 1914 
Q 372 2147 372 2553 
Q 372 3047 722 3315 
Q 1072 3584 1716 3584 
Q 2034 3584 2315 3537 
Q 2597 3491 2834 3397 
z
" transform="scale(0.015625)"/>
      <path id="DejaVuSans-75" d="M 544 1381 
L 544 3500 
L 1119 3500 
L 1119 1403 
Q 1119 906 1312 657 
Q 1506 409 1894 409 
Q 2359 409 2629 706 
Q 2900 1003 2900 1516 
L 2900 3500 
L 3475 3500 
L 3475 0 
L 2900 0 
L 2900 538 
Q 2691 219 2414 64 
Q 2138 -91 1772 -91 
Q 1169 -91 856 284 
Q 544 659 544 1381 
z
M 1991 3584 
L 1991 3584 
z
" transform="scale(0.015625)"/>
      <path id="DejaVuSans-62" d="M 3116 1747 
Q 3116 2381 2855 2742 
Q 2594 3103 2138 3103 
Q 1681 3103 1420 2742 
Q 1159 2381 1159 1747 
Q 1159 1113 1420 752 
Q 1681 391 2138 391 
Q 2594 391 2855 752 
Q 3116 1113 3116 1747 
z
M 1159 2969 
Q 1341 3281 1617 3432 
Q 1894 3584 2278 3584 
Q 2916 3584 3314 3078 
Q 3713 2572 3713 1747 
Q 3713 922 3314 415 
Q 2916 -91 2278 -91 
Q 1894 -91 1617 61 
Q 1341 213 1159 525 
L 1159 0 
L 581 0 
L 581 4863 
L 1159 4863 
L 1159 2969 
z
" transform="scale(0.015625)"/>
      <path id="DejaVuSans-63" d="M 3122 3366 
L 3122 2828 
Q 2878 2963 2633 3030 
Q 2388 3097 2138 3097 
Q 1578 3097 1268 2742 
Q 959 2388 959 1747 
Q 959 1106 1268 751 
Q 1578 397 2138 397 
Q 2388 397 2633 464 
Q 2878 531 3122 666 
L 3122 134 
Q 2881 22 2623 -34 
Q 2366 -91 2075 -91 
Q 1284 -91 818 406 
Q 353 903 353 1747 
Q 353 2603 823 3093 
Q 1294 3584 2113 3584 
Q 2378 3584 2631 3529 
Q 2884 3475 3122 3366 
z
" transform="scale(0.015625)"/>
      <path id="DejaVuSans-72" d="M 2631 2963 
Q 2534 3019 2420 3045 
Q 2306 3072 2169 3072 
Q 1681 3072 1420 2755 
Q 1159 2438 1159 1844 
L 1159 0 
L 581 0 
L 581 3500 
L 1159 3500 
L 1159 2956 
Q 1341 3275 1631 3429 
Q 1922 3584 2338 3584 
Q 2397 3584 2469 3576 
Q 2541 3569 2628 3553 
L 2631 2963 
z
" transform="scale(0.015625)"/>
      <path id="DejaVuSans-69" d="M 603 3500 
L 1178 3500 
L 1178 0 
L 603 0 
L 603 3500 
z
M 603 4863 
L 1178 4863 
L 1178 4134 
L 603 4134 
L 603 4863 
z
" transform="scale(0.015625)"/>
      <path id="DejaVuSans-20" transform="scale(0.015625)"/>
      <path id="DejaVuSans-68" d="M 3513 2113 
L 3513 0 
L 2938 0 
L 2938 2094 
Q 2938 2591 2744 2837 
Q 2550 3084 2163 3084 
Q 1697 3084 1428 2787 
Q 1159 2491 1159 1978 
L 1159 0 
L 581 0 
L 581 4863 
L 1159 4863 
L 1159 2956 
Q 1366 3272 1645 3428 
Q 1925 3584 2291 3584 
Q 2894 3584 3203 3211 
Q 3513 2838 3513 2113 
z
" transform="scale(0.015625)"/>
      <path id="DejaVuSans-6f" d="M 1959 3097 
Q 1497 3097 1228 2736 
Q 959 2375 959 1747 
Q 959 1119 1226 758 
Q 1494 397 1959 397 
Q 2419 397 2687 759 
Q 2956 1122 2956 1747 
Q 2956 2369 2687 2733 
Q 2419 3097 1959 3097 
z
M 1959 3584 
Q 2709 3584 3137 3096 
Q 3566 2609 3566 1747 
Q 3566 888 3137 398 
Q 2709 -91 1959 -91 
Q 1206 -91 779 398 
Q 353 888 353 1747 
Q 353 2609 779 3096 
Q 1206 3584 1959 3584 
z
" transform="scale(0.015625)"/>
      <path id="DejaVuSans-79" d="M 2059 -325 
Q 1816 -950 1584 -1140 
Q 1353 -1331 966 -1331 
L 506 -1331 
L 506 -850 
L 844 -850 
Q 1081 -850 1212 -737 
Q 1344 -625 1503 -206 
L 1606 56 
L 191 3500 
L 800 3500 
L 1894 763 
L 2988 3500 
L 3597 3500 
L 2059 -325 
z
" transform="scale(0.015625)"/>
     </defs>
     <use xlink:href="#DejaVuSans-67"/>
     <use xlink:href="#DejaVuSans-65" transform="translate(63.476562 0)"/>
     <use xlink:href="#DejaVuSans-74" transform="translate(125 0)"/>
     <use xlink:href="#DejaVuSans-5f" transform="translate(164.208984 0)"/>
     <use xlink:href="#DejaVuSans-73" transform="translate(214.208984 0)"/>
     <use xlink:href="#DejaVuSans-75" transform="translate(266.308594 0)"/>
     <use xlink:href="#DejaVuSans-62" transform="translate(329.6875 0)"/>
     <use xlink:href="#DejaVuSans-73" transform="translate(393.164062 0)"/>
     <use xlink:href="#DejaVuSans-63" transform="translate(445.263672 0)"/>
     <use xlink:href="#DejaVuSans-72" transform="translate(500.244141 0)"/>
     <use xlink:href="#DejaVuSans-69" transform="translate(541.357422 0)"/>
     <use xlink:href="#DejaVuSans-62" transform="translate(569.140625 0)"/>
     <use xlink:href="#DejaVuSans-65" transform="translate(632.617188 0)"/>
     <use xlink:href="#DejaVuSans-20" transform="translate(694.140625 0)"/>
     <use xlink:href="#DejaVuSans-68" transform="translate(725.927734 0)"/>
     <use xlink:href="#DejaVuSans-69" transform="translate(789.306641 0)"/>
     <use xlink:href="#DejaVuSans-73" transform="translate(817.089844 0)"/>
     <use xlink:href="#DejaVuSans-74" transform="translate(869.189453 0)"/>
     <use xlink:href="#DejaVuSans-6f" transform="translate(908.398438 0)"/>
     <use xlink:href="#DejaVuSans-72" transform="translate(969.580078 0)"/>
     <use xlink:href="#DejaVuSans-79" transform="translate(1010.693359 0)"/>
    </g>
   </g>
   <g id="legend_1">
    <g id="line2d_39">
     <path d="M 815.08 328.498438 
L 825.08 328.498438 
L 835.08 328.498438 
" style="fill: none; stroke: #1f77b4; stroke-width: 1.5; stroke-linecap: square"/>
    </g>
    <g id="text_20">
     <!-- star -->
     <g style="fill: #a9a9a9" transform="translate(843.08 331.998438) scale(0.1 -0.1)">
      <defs>
       <path id="DejaVuSans-61" d="M 2194 1759 
Q 1497 1759 1228 1600 
Q 959 1441 959 1056 
Q 959 750 1161 570 
Q 1363 391 1709 391 
Q 2188 391 2477 730 
Q 2766 1069 2766 1631 
L 2766 1759 
L 2194 1759 
z
M 3341 1997 
L 3341 0 
L 2766 0 
L 2766 531 
Q 2569 213 2275 61 
Q 1981 -91 1556 -91 
Q 1019 -91 701 211 
Q 384 513 384 1019 
Q 384 1609 779 1909 
Q 1175 2209 1959 2209 
L 2766 2209 
L 2766 2266 
Q 2766 2663 2505 2880 
Q 2244 3097 1772 3097 
Q 1472 3097 1187 3025 
Q 903 2953 641 2809 
L 641 3341 
Q 956 3463 1253 3523 
Q 1550 3584 1831 3584 
Q 2591 3584 2966 3190 
Q 3341 2797 3341 1997 
z
" transform="scale(0.015625)"/>
      </defs>
      <use xlink:href="#DejaVuSans-73"/>
      <use xlink:href="#DejaVuSans-74" transform="translate(52.099609 0)"/>
      <use xlink:href="#DejaVuSans-61" transform="translate(91.308594 0)"/>
      <use xlink:href="#DejaVuSans-72" transform="translate(152.587891 0)"/>
     </g>
    </g>
    <g id="line2d_40">
     <path d="M 815.08 343.176562 
L 825.08 343.176562 
L 835.08 343.176562 
" style="fill: none; stroke: #ff7f0e; stroke-width: 1.5; stroke-linecap: square"/>
    </g>
    <g id="text_21">
     <!-- fork -->
     <g style="fill: #a9a9a9" transform="translate(843.08 346.676562) scale(0.1 -0.1)">
      <defs>
       <path id="DejaVuSans-66" d="M 2375 4863 
L 2375 4384 
L 1825 4384 
Q 1516 4384 1395 4259 
Q 1275 4134 1275 3809 
L 1275 3500 
L 2222 3500 
L 2222 3053 
L 1275 3053 
L 1275 0 
L 697 0 
L 697 3053 
L 147 3053 
L 147 3500 
L 697 3500 
L 697 3744 
Q 697 4328 969 4595 
Q 1241 4863 1831 4863 
L 2375 4863 
z
" transform="scale(0.015625)"/>
       <path id="DejaVuSans-6b" d="M 581 4863 
L 1159 4863 
L 1159 1991 
L 2875 3500 
L 3609 3500 
L 1753 1863 
L 3688 0 
L 2938 0 
L 1159 1709 
L 1159 0 
L 581 0 
L 581 4863 
z
" transform="scale(0.015625)"/>
      </defs>
      <use xlink:href="#DejaVuSans-66"/>
      <use xlink:href="#DejaVuSans-6f" transform="translate(35.205078 0)"/>
      <use xlink:href="#DejaVuSans-72" transform="translate(96.386719 0)"/>
      <use xlink:href="#DejaVuSans-6b" transform="translate(137.5 0)"/>
     </g>
    </g>
   </g>
  </g>
 </g>
 <defs>
  <clipPath id="p5fb550b582">
   <rect x="108" y="43.2" width="669.6" height="277.2"/>
  </clipPath>
 </defs>
</svg>
