<?xml version="1.0" encoding="utf-8" standalone="no"?>
<!DOCTYPE svg PUBLIC "-//W3C//DTD SVG 1.1//EN"
  "http://www.w3.org/Graphics/SVG/1.1/DTD/svg11.dtd">
<svg xmlns:xlink="http://www.w3.org/1999/xlink" width="864pt" height="360pt" viewBox="0 0 864 360" xmlns="http://www.w3.org/2000/svg" version="1.1">
 <metadata>
  <rdf:RDF xmlns:dc="http://purl.org/dc/elements/1.1/" xmlns:cc="http://creativecommons.org/ns#" xmlns:rdf="http://www.w3.org/1999/02/22-rdf-syntax-ns#">
   <cc:Work>
    <dc:type rdf:resource="http://purl.org/dc/dcmitype/StillImage"/>
    <dc:date>2025-02-28T08:14:03.614048</dc:date>
    <dc:format>image/svg+xml</dc:format>
    <dc:creator>
     <cc:Agent>
      <dc:title>Matplotlib v3.10.1, https://matplotlib.org/</dc:title>
     </cc:Agent>
    </dc:creator>
   </cc:Work>
  </rdf:RDF>
 </metadata>
 <defs>
  <style type="text/css">*{stroke-linejoin: round; stroke-linecap: butt}</style>
 </defs>
 <g id="figure_1">
  <g id="patch_1">
   <path d="M 0 360 
L 864 360 
L 864 0 
L 0 0 
L 0 360 
z
" style="fill: none; opacity: 0"/>
  </g>
  <g id="axes_1">
   <g id="patch_2">
    <path d="M 108 320.4 
L 777.6 320.4 
L 777.6 43.2 
L 108 43.2 
L 108 320.4 
z
" style="fill: none; opacity: 0"/>
   </g>
   <g id="matplotlib.axis_1">
    <g id="xtick_1">
     <g id="line2d_1">
      <path d="M 127.789423 320.4 
L 127.789423 43.2 
" clip-path="url(#p406256fd0f)" style="fill: none; stroke-dasharray: 5.12,1.28,0.8,1.28; stroke-dashoffset: 0; stroke: #b0b0b0; stroke-width: 0.8"/>
     </g>
     <g id="line2d_2">
      <defs>
       <path id="m986cdd1438" d="M 0 0 
L 0 3.5 
" style="stroke: #a9a9a9; stroke-width: 0.8"/>
      </defs>
      <g>
       <use xlink:href="#m986cdd1438" x="127.789423" y="320.4" style="fill: #a9a9a9; stroke: #a9a9a9; stroke-width: 0.8"/>
      </g>
     </g>
     <g id="text_1">
      <!-- 2021-07 -->
      <g style="fill: #a9a9a9" transform="translate(106.898016 334.998438) scale(0.1 -0.1)">
       <defs>
        <path id="DejaVuSans-32" d="M 1228 531 
L 3431 531 
L 3431 0 
L 469 0 
L 469 531 
Q 828 903 1448 1529 
Q 2069 2156 2228 2338 
Q 2531 2678 2651 2914 
Q 2772 3150 2772 3378 
Q 2772 3750 2511 3984 
Q 2250 4219 1831 4219 
Q 1534 4219 1204 4116 
Q 875 4013 500 3803 
L 500 4441 
Q 881 4594 1212 4672 
Q 1544 4750 1819 4750 
Q 2544 4750 2975 4387 
Q 3406 4025 3406 3419 
Q 3406 3131 3298 2873 
Q 3191 2616 2906 2266 
Q 2828 2175 2409 1742 
Q 1991 1309 1228 531 
z
" transform="scale(0.015625)"/>
        <path id="DejaVuSans-30" d="M 2034 4250 
Q 1547 4250 1301 3770 
Q 1056 3291 1056 2328 
Q 1056 1369 1301 889 
Q 1547 409 2034 409 
Q 2525 409 2770 889 
Q 3016 1369 3016 2328 
Q 3016 3291 2770 3770 
Q 2525 4250 2034 4250 
z
M 2034 4750 
Q 2819 4750 3233 4129 
Q 3647 3509 3647 2328 
Q 3647 1150 3233 529 
Q 2819 -91 2034 -91 
Q 1250 -91 836 529 
Q 422 1150 422 2328 
Q 422 3509 836 4129 
Q 1250 4750 2034 4750 
z
" transform="scale(0.015625)"/>
        <path id="DejaVuSans-31" d="M 794 531 
L 1825 531 
L 1825 4091 
L 703 3866 
L 703 4441 
L 1819 4666 
L 2450 4666 
L 2450 531 
L 3481 531 
L 3481 0 
L 794 0 
L 794 531 
z
" transform="scale(0.015625)"/>
        <path id="DejaVuSans-2d" d="M 313 2009 
L 1997 2009 
L 1997 1497 
L 313 1497 
L 313 2009 
z
" transform="scale(0.015625)"/>
        <path id="DejaVuSans-37" d="M 525 4666 
L 3525 4666 
L 3525 4397 
L 1831 0 
L 1172 0 
L 2766 4134 
L 525 4134 
L 525 4666 
z
" transform="scale(0.015625)"/>
       </defs>
       <use xlink:href="#DejaVuSans-32"/>
       <use xlink:href="#DejaVuSans-30" transform="translate(63.623047 0)"/>
       <use xlink:href="#DejaVuSans-32" transform="translate(127.246094 0)"/>
       <use xlink:href="#DejaVuSans-31" transform="translate(190.869141 0)"/>
       <use xlink:href="#DejaVuSans-2d" transform="translate(254.492188 0)"/>
       <use xlink:href="#DejaVuSans-30" transform="translate(290.576172 0)"/>
       <use xlink:href="#DejaVuSans-37" transform="translate(354.199219 0)"/>
      </g>
     </g>
    </g>
    <g id="xtick_2">
     <g id="line2d_3">
      <path d="M 212.96495 320.4 
L 212.96495 43.2 
" clip-path="url(#p406256fd0f)" style="fill: none; stroke-dasharray: 5.12,1.28,0.8,1.28; stroke-dashoffset: 0; stroke: #b0b0b0; stroke-width: 0.8"/>
     </g>
     <g id="line2d_4">
      <g>
       <use xlink:href="#m986cdd1438" x="212.96495" y="320.4" style="fill: #a9a9a9; stroke: #a9a9a9; stroke-width: 0.8"/>
      </g>
     </g>
     <g id="text_2">
      <!-- 2022-01 -->
      <g style="fill: #a9a9a9" transform="translate(192.073544 334.998438) scale(0.1 -0.1)">
       <use xlink:href="#DejaVuSans-32"/>
       <use xlink:href="#DejaVuSans-30" transform="translate(63.623047 0)"/>
       <use xlink:href="#DejaVuSans-32" transform="translate(127.246094 0)"/>
       <use xlink:href="#DejaVuSans-32" transform="translate(190.869141 0)"/>
       <use xlink:href="#DejaVuSans-2d" transform="translate(254.492188 0)"/>
       <use xlink:href="#DejaVuSans-30" transform="translate(290.576172 0)"/>
       <use xlink:href="#DejaVuSans-31" transform="translate(354.199219 0)"/>
      </g>
     </g>
    </g>
    <g id="xtick_3">
     <g id="line2d_5">
      <path d="M 296.751746 320.4 
L 296.751746 43.2 
" clip-path="url(#p406256fd0f)" style="fill: none; stroke-dasharray: 5.12,1.28,0.8,1.28; stroke-dashoffset: 0; stroke: #b0b0b0; stroke-width: 0.8"/>
     </g>
     <g id="line2d_6">
      <g>
       <use xlink:href="#m986cdd1438" x="296.751746" y="320.4" style="fill: #a9a9a9; stroke: #a9a9a9; stroke-width: 0.8"/>
      </g>
     </g>
     <g id="text_3">
      <!-- 2022-07 -->
      <g style="fill: #a9a9a9" transform="translate(275.860339 334.998438) scale(0.1 -0.1)">
       <use xlink:href="#DejaVuSans-32"/>
       <use xlink:href="#DejaVuSans-30" transform="translate(63.623047 0)"/>
       <use xlink:href="#DejaVuSans-32" transform="translate(127.246094 0)"/>
       <use xlink:href="#DejaVuSans-32" transform="translate(190.869141 0)"/>
       <use xlink:href="#DejaVuSans-2d" transform="translate(254.492188 0)"/>
       <use xlink:href="#DejaVuSans-30" transform="translate(290.576172 0)"/>
       <use xlink:href="#DejaVuSans-37" transform="translate(354.199219 0)"/>
      </g>
     </g>
    </g>
    <g id="xtick_4">
     <g id="line2d_7">
      <path d="M 381.927273 320.4 
L 381.927273 43.2 
" clip-path="url(#p406256fd0f)" style="fill: none; stroke-dasharray: 5.12,1.28,0.8,1.28; stroke-dashoffset: 0; stroke: #b0b0b0; stroke-width: 0.8"/>
     </g>
     <g id="line2d_8">
      <g>
       <use xlink:href="#m986cdd1438" x="381.927273" y="320.4" style="fill: #a9a9a9; stroke: #a9a9a9; stroke-width: 0.8"/>
      </g>
     </g>
     <g id="text_4">
      <!-- 2023-01 -->
      <g style="fill: #a9a9a9" transform="translate(361.035866 334.998438) scale(0.1 -0.1)">
       <defs>
        <path id="DejaVuSans-33" d="M 2597 2516 
Q 3050 2419 3304 2112 
Q 3559 1806 3559 1356 
Q 3559 666 3084 287 
Q 2609 -91 1734 -91 
Q 1441 -91 1130 -33 
Q 819 25 488 141 
L 488 750 
Q 750 597 1062 519 
Q 1375 441 1716 441 
Q 2309 441 2620 675 
Q 2931 909 2931 1356 
Q 2931 1769 2642 2001 
Q 2353 2234 1838 2234 
L 1294 2234 
L 1294 2753 
L 1863 2753 
Q 2328 2753 2575 2939 
Q 2822 3125 2822 3475 
Q 2822 3834 2567 4026 
Q 2313 4219 1838 4219 
Q 1578 4219 1281 4162 
Q 984 4106 628 3988 
L 628 4550 
Q 988 4650 1302 4700 
Q 1616 4750 1894 4750 
Q 2613 4750 3031 4423 
Q 3450 4097 3450 3541 
Q 3450 3153 3228 2886 
Q 3006 2619 2597 2516 
z
" transform="scale(0.015625)"/>
       </defs>
       <use xlink:href="#DejaVuSans-32"/>
       <use xlink:href="#DejaVuSans-30" transform="translate(63.623047 0)"/>
       <use xlink:href="#DejaVuSans-32" transform="translate(127.246094 0)"/>
       <use xlink:href="#DejaVuSans-33" transform="translate(190.869141 0)"/>
       <use xlink:href="#DejaVuSans-2d" transform="translate(254.492188 0)"/>
       <use xlink:href="#DejaVuSans-30" transform="translate(290.576172 0)"/>
       <use xlink:href="#DejaVuSans-31" transform="translate(354.199219 0)"/>
      </g>
     </g>
    </g>
    <g id="xtick_5">
     <g id="line2d_9">
      <path d="M 465.714068 320.4 
L 465.714068 43.2 
" clip-path="url(#p406256fd0f)" style="fill: none; stroke-dasharray: 5.12,1.28,0.8,1.28; stroke-dashoffset: 0; stroke: #b0b0b0; stroke-width: 0.8"/>
     </g>
     <g id="line2d_10">
      <g>
       <use xlink:href="#m986cdd1438" x="465.714068" y="320.4" style="fill: #a9a9a9; stroke: #a9a9a9; stroke-width: 0.8"/>
      </g>
     </g>
     <g id="text_5">
      <!-- 2023-07 -->
      <g style="fill: #a9a9a9" transform="translate(444.822662 334.998438) scale(0.1 -0.1)">
       <use xlink:href="#DejaVuSans-32"/>
       <use xlink:href="#DejaVuSans-30" transform="translate(63.623047 0)"/>
       <use xlink:href="#DejaVuSans-32" transform="translate(127.246094 0)"/>
       <use xlink:href="#DejaVuSans-33" transform="translate(190.869141 0)"/>
       <use xlink:href="#DejaVuSans-2d" transform="translate(254.492188 0)"/>
       <use xlink:href="#DejaVuSans-30" transform="translate(290.576172 0)"/>
       <use xlink:href="#DejaVuSans-37" transform="translate(354.199219 0)"/>
      </g>
     </g>
    </g>
    <g id="xtick_6">
     <g id="line2d_11">
      <path d="M 550.889596 320.4 
L 550.889596 43.2 
" clip-path="url(#p406256fd0f)" style="fill: none; stroke-dasharray: 5.12,1.28,0.8,1.28; stroke-dashoffset: 0; stroke: #b0b0b0; stroke-width: 0.8"/>
     </g>
     <g id="line2d_12">
      <g>
       <use xlink:href="#m986cdd1438" x="550.889596" y="320.4" style="fill: #a9a9a9; stroke: #a9a9a9; stroke-width: 0.8"/>
      </g>
     </g>
     <g id="text_6">
      <!-- 2024-01 -->
      <g style="fill: #a9a9a9" transform="translate(529.998189 334.998438) scale(0.1 -0.1)">
       <defs>
        <path id="DejaVuSans-34" d="M 2419 4116 
L 825 1625 
L 2419 1625 
L 2419 4116 
z
M 2253 4666 
L 3047 4666 
L 3047 1625 
L 3713 1625 
L 3713 1100 
L 3047 1100 
L 3047 0 
L 2419 0 
L 2419 1100 
L 313 1100 
L 313 1709 
L 2253 4666 
z
" transform="scale(0.015625)"/>
       </defs>
       <use xlink:href="#DejaVuSans-32"/>
       <use xlink:href="#DejaVuSans-30" transform="translate(63.623047 0)"/>
       <use xlink:href="#DejaVuSans-32" transform="translate(127.246094 0)"/>
       <use xlink:href="#DejaVuSans-34" transform="translate(190.869141 0)"/>
       <use xlink:href="#DejaVuSans-2d" transform="translate(254.492188 0)"/>
       <use xlink:href="#DejaVuSans-30" transform="translate(290.576172 0)"/>
       <use xlink:href="#DejaVuSans-31" transform="translate(354.199219 0)"/>
      </g>
     </g>
    </g>
    <g id="xtick_7">
     <g id="line2d_13">
      <path d="M 635.139302 320.4 
L 635.139302 43.2 
" clip-path="url(#p406256fd0f)" style="fill: none; stroke-dasharray: 5.12,1.28,0.8,1.28; stroke-dashoffset: 0; stroke: #b0b0b0; stroke-width: 0.8"/>
     </g>
     <g id="line2d_14">
      <g>
       <use xlink:href="#m986cdd1438" x="635.139302" y="320.4" style="fill: #a9a9a9; stroke: #a9a9a9; stroke-width: 0.8"/>
      </g>
     </g>
     <g id="text_7">
      <!-- 2024-07 -->
      <g style="fill: #a9a9a9" transform="translate(614.247896 334.998438) scale(0.1 -0.1)">
       <use xlink:href="#DejaVuSans-32"/>
       <use xlink:href="#DejaVuSans-30" transform="translate(63.623047 0)"/>
       <use xlink:href="#DejaVuSans-32" transform="translate(127.246094 0)"/>
       <use xlink:href="#DejaVuSans-34" transform="translate(190.869141 0)"/>
       <use xlink:href="#DejaVuSans-2d" transform="translate(254.492188 0)"/>
       <use xlink:href="#DejaVuSans-30" transform="translate(290.576172 0)"/>
       <use xlink:href="#DejaVuSans-37" transform="translate(354.199219 0)"/>
      </g>
     </g>
    </g>
    <g id="xtick_8">
     <g id="line2d_15">
      <path d="M 720.314829 320.4 
L 720.314829 43.2 
" clip-path="url(#p406256fd0f)" style="fill: none; stroke-dasharray: 5.12,1.28,0.8,1.28; stroke-dashoffset: 0; stroke: #b0b0b0; stroke-width: 0.8"/>
     </g>
     <g id="line2d_16">
      <g>
       <use xlink:href="#m986cdd1438" x="720.314829" y="320.4" style="fill: #a9a9a9; stroke: #a9a9a9; stroke-width: 0.8"/>
      </g>
     </g>
     <g id="text_8">
      <!-- 2025-01 -->
      <g style="fill: #a9a9a9" transform="translate(699.423423 334.998438) scale(0.1 -0.1)">
       <defs>
        <path id="DejaVuSans-35" d="M 691 4666 
L 3169 4666 
L 3169 4134 
L 1269 4134 
L 1269 2991 
Q 1406 3038 1543 3061 
Q 1681 3084 1819 3084 
Q 2600 3084 3056 2656 
Q 3513 2228 3513 1497 
Q 3513 744 3044 326 
Q 2575 -91 1722 -91 
Q 1428 -91 1123 -41 
Q 819 9 494 109 
L 494 744 
Q 775 591 1075 516 
Q 1375 441 1709 441 
Q 2250 441 2565 725 
Q 2881 1009 2881 1497 
Q 2881 1984 2565 2268 
Q 2250 2553 1709 2553 
Q 1456 2553 1204 2497 
Q 953 2441 691 2322 
L 691 4666 
z
" transform="scale(0.015625)"/>
       </defs>
       <use xlink:href="#DejaVuSans-32"/>
       <use xlink:href="#DejaVuSans-30" transform="translate(63.623047 0)"/>
       <use xlink:href="#DejaVuSans-32" transform="translate(127.246094 0)"/>
       <use xlink:href="#DejaVuSans-35" transform="translate(190.869141 0)"/>
       <use xlink:href="#DejaVuSans-2d" transform="translate(254.492188 0)"/>
       <use xlink:href="#DejaVuSans-30" transform="translate(290.576172 0)"/>
       <use xlink:href="#DejaVuSans-31" transform="translate(354.199219 0)"/>
      </g>
     </g>
    </g>
   </g>
   <g id="matplotlib.axis_2">
    <g id="ytick_1">
     <g id="line2d_17">
      <path d="M 108 307.83423 
L 777.6 307.83423 
" clip-path="url(#p406256fd0f)" style="fill: none; stroke-dasharray: 5.12,1.28,0.8,1.28; stroke-dashoffset: 0; stroke: #b0b0b0; stroke-width: 0.8"/>
     </g>
     <g id="line2d_18">
      <defs>
       <path id="m0ad6752754" d="M 0 0 
L -3.5 0 
" style="stroke: #a9a9a9; stroke-width: 0.8"/>
      </defs>
      <g>
       <use xlink:href="#m0ad6752754" x="108" y="307.83423" style="fill: #a9a9a9; stroke: #a9a9a9; stroke-width: 0.8"/>
      </g>
     </g>
     <g id="text_9">
      <!-- 0 -->
      <g style="fill: #a9a9a9" transform="translate(94.6375 311.633449) scale(0.1 -0.1)">
       <use xlink:href="#DejaVuSans-30"/>
      </g>
     </g>
    </g>
    <g id="ytick_2">
     <g id="line2d_19">
      <path d="M 108 273.604401 
L 777.6 273.604401 
" clip-path="url(#p406256fd0f)" style="fill: none; stroke-dasharray: 5.12,1.28,0.8,1.28; stroke-dashoffset: 0; stroke: #b0b0b0; stroke-width: 0.8"/>
     </g>
     <g id="line2d_20">
      <g>
       <use xlink:href="#m0ad6752754" x="108" y="273.604401" style="fill: #a9a9a9; stroke: #a9a9a9; stroke-width: 0.8"/>
      </g>
     </g>
     <g id="text_10">
      <!-- 1000 -->
      <g style="fill: #a9a9a9" transform="translate(75.55 277.40362) scale(0.1 -0.1)">
       <use xlink:href="#DejaVuSans-31"/>
       <use xlink:href="#DejaVuSans-30" transform="translate(63.623047 0)"/>
       <use xlink:href="#DejaVuSans-30" transform="translate(127.246094 0)"/>
       <use xlink:href="#DejaVuSans-30" transform="translate(190.869141 0)"/>
      </g>
     </g>
    </g>
    <g id="ytick_3">
     <g id="line2d_21">
      <path d="M 108 239.374572 
L 777.6 239.374572 
" clip-path="url(#p406256fd0f)" style="fill: none; stroke-dasharray: 5.12,1.28,0.8,1.28; stroke-dashoffset: 0; stroke: #b0b0b0; stroke-width: 0.8"/>
     </g>
     <g id="line2d_22">
      <g>
       <use xlink:href="#m0ad6752754" x="108" y="239.374572" style="fill: #a9a9a9; stroke: #a9a9a9; stroke-width: 0.8"/>
      </g>
     </g>
     <g id="text_11">
      <!-- 2000 -->
      <g style="fill: #a9a9a9" transform="translate(75.55 243.173791) scale(0.1 -0.1)">
       <use xlink:href="#DejaVuSans-32"/>
       <use xlink:href="#DejaVuSans-30" transform="translate(63.623047 0)"/>
       <use xlink:href="#DejaVuSans-30" transform="translate(127.246094 0)"/>
       <use xlink:href="#DejaVuSans-30" transform="translate(190.869141 0)"/>
      </g>
     </g>
    </g>
    <g id="ytick_4">
     <g id="line2d_23">
      <path d="M 108 205.144743 
L 777.6 205.144743 
" clip-path="url(#p406256fd0f)" style="fill: none; stroke-dasharray: 5.12,1.28,0.8,1.28; stroke-dashoffset: 0; stroke: #b0b0b0; stroke-width: 0.8"/>
     </g>
     <g id="line2d_24">
      <g>
       <use xlink:href="#m0ad6752754" x="108" y="205.144743" style="fill: #a9a9a9; stroke: #a9a9a9; stroke-width: 0.8"/>
      </g>
     </g>
     <g id="text_12">
      <!-- 3000 -->
      <g style="fill: #a9a9a9" transform="translate(75.55 208.943962) scale(0.1 -0.1)">
       <use xlink:href="#DejaVuSans-33"/>
       <use xlink:href="#DejaVuSans-30" transform="translate(63.623047 0)"/>
       <use xlink:href="#DejaVuSans-30" transform="translate(127.246094 0)"/>
       <use xlink:href="#DejaVuSans-30" transform="translate(190.869141 0)"/>
      </g>
     </g>
    </g>
    <g id="ytick_5">
     <g id="line2d_25">
      <path d="M 108 170.914914 
L 777.6 170.914914 
" clip-path="url(#p406256fd0f)" style="fill: none; stroke-dasharray: 5.12,1.28,0.8,1.28; stroke-dashoffset: 0; stroke: #b0b0b0; stroke-width: 0.8"/>
     </g>
     <g id="line2d_26">
      <g>
       <use xlink:href="#m0ad6752754" x="108" y="170.914914" style="fill: #a9a9a9; stroke: #a9a9a9; stroke-width: 0.8"/>
      </g>
     </g>
     <g id="text_13">
      <!-- 4000 -->
      <g style="fill: #a9a9a9" transform="translate(75.55 174.714133) scale(0.1 -0.1)">
       <use xlink:href="#DejaVuSans-34"/>
       <use xlink:href="#DejaVuSans-30" transform="translate(63.623047 0)"/>
       <use xlink:href="#DejaVuSans-30" transform="translate(127.246094 0)"/>
       <use xlink:href="#DejaVuSans-30" transform="translate(190.869141 0)"/>
      </g>
     </g>
    </g>
    <g id="ytick_6">
     <g id="line2d_27">
      <path d="M 108 136.685086 
L 777.6 136.685086 
" clip-path="url(#p406256fd0f)" style="fill: none; stroke-dasharray: 5.12,1.28,0.8,1.28; stroke-dashoffset: 0; stroke: #b0b0b0; stroke-width: 0.8"/>
     </g>
     <g id="line2d_28">
      <g>
       <use xlink:href="#m0ad6752754" x="108" y="136.685086" style="fill: #a9a9a9; stroke: #a9a9a9; stroke-width: 0.8"/>
      </g>
     </g>
     <g id="text_14">
      <!-- 5000 -->
      <g style="fill: #a9a9a9" transform="translate(75.55 140.484304) scale(0.1 -0.1)">
       <use xlink:href="#DejaVuSans-35"/>
       <use xlink:href="#DejaVuSans-30" transform="translate(63.623047 0)"/>
       <use xlink:href="#DejaVuSans-30" transform="translate(127.246094 0)"/>
       <use xlink:href="#DejaVuSans-30" transform="translate(190.869141 0)"/>
      </g>
     </g>
    </g>
    <g id="ytick_7">
     <g id="line2d_29">
      <path d="M 108 102.455257 
L 777.6 102.455257 
" clip-path="url(#p406256fd0f)" style="fill: none; stroke-dasharray: 5.12,1.28,0.8,1.28; stroke-dashoffset: 0; stroke: #b0b0b0; stroke-width: 0.8"/>
     </g>
     <g id="line2d_30">
      <g>
       <use xlink:href="#m0ad6752754" x="108" y="102.455257" style="fill: #a9a9a9; stroke: #a9a9a9; stroke-width: 0.8"/>
      </g>
     </g>
     <g id="text_15">
      <!-- 6000 -->
      <g style="fill: #a9a9a9" transform="translate(75.55 106.254475) scale(0.1 -0.1)">
       <defs>
        <path id="DejaVuSans-36" d="M 2113 2584 
Q 1688 2584 1439 2293 
Q 1191 2003 1191 1497 
Q 1191 994 1439 701 
Q 1688 409 2113 409 
Q 2538 409 2786 701 
Q 3034 994 3034 1497 
Q 3034 2003 2786 2293 
Q 2538 2584 2113 2584 
z
M 3366 4563 
L 3366 3988 
Q 3128 4100 2886 4159 
Q 2644 4219 2406 4219 
Q 1781 4219 1451 3797 
Q 1122 3375 1075 2522 
Q 1259 2794 1537 2939 
Q 1816 3084 2150 3084 
Q 2853 3084 3261 2657 
Q 3669 2231 3669 1497 
Q 3669 778 3244 343 
Q 2819 -91 2113 -91 
Q 1303 -91 875 529 
Q 447 1150 447 2328 
Q 447 3434 972 4092 
Q 1497 4750 2381 4750 
Q 2619 4750 2861 4703 
Q 3103 4656 3366 4563 
z
" transform="scale(0.015625)"/>
       </defs>
       <use xlink:href="#DejaVuSans-36"/>
       <use xlink:href="#DejaVuSans-30" transform="translate(63.623047 0)"/>
       <use xlink:href="#DejaVuSans-30" transform="translate(127.246094 0)"/>
       <use xlink:href="#DejaVuSans-30" transform="translate(190.869141 0)"/>
      </g>
     </g>
    </g>
    <g id="ytick_8">
     <g id="line2d_31">
      <path d="M 108 68.225428 
L 777.6 68.225428 
" clip-path="url(#p406256fd0f)" style="fill: none; stroke-dasharray: 5.12,1.28,0.8,1.28; stroke-dashoffset: 0; stroke: #b0b0b0; stroke-width: 0.8"/>
     </g>
     <g id="line2d_32">
      <g>
       <use xlink:href="#m0ad6752754" x="108" y="68.225428" style="fill: #a9a9a9; stroke: #a9a9a9; stroke-width: 0.8"/>
      </g>
     </g>
     <g id="text_16">
      <!-- 7000 -->
      <g style="fill: #a9a9a9" transform="translate(75.55 72.024647) scale(0.1 -0.1)">
       <use xlink:href="#DejaVuSans-37"/>
       <use xlink:href="#DejaVuSans-30" transform="translate(63.623047 0)"/>
       <use xlink:href="#DejaVuSans-30" transform="translate(127.246094 0)"/>
       <use xlink:href="#DejaVuSans-30" transform="translate(190.869141 0)"/>
      </g>
     </g>
    </g>
   </g>
   <g id="line2d_33">
    <path d="M 138.436364 307.73154 
L 141.213826 307.491932 
L 141.676737 307.286553 
L 143.528379 307.046944 
L 145.380021 306.670416 
L 146.305842 306.533496 
L 148.620394 306.328117 
L 149.546215 305.951589 
L 150.009125 305.335452 
L 150.472036 305.027384 
L 150.934946 303.966259 
L 151.397857 303.8978 
L 151.860767 303.521271 
L 152.786588 303.042054 
L 154.63823 301.535941 
L 156.489872 300.611736 
L 157.878604 299.961369 
L 158.341514 299.208313 
L 159.267335 298.523716 
L 159.730245 298.318337 
L 164.35935 297.633741 
L 164.822261 297.428362 
L 168.062634 297.154523 
L 169.914276 296.709535 
L 173.61756 296.196088 
L 174.08047 295.956479 
L 174.543381 295.88802 
L 175.469202 295.579951 
L 178.709575 295.032274 
L 179.635396 294.758435 
L 183.80159 294.039609 
L 184.727411 293.83423 
L 185.653232 293.8 
L 187.504874 293.355012 
L 187.967784 292.704645 
L 189.356516 292.156968 
L 190.745247 291.78044 
L 191.208158 291.540831 
L 192.133979 291.369682 
L 193.98562 290.822005 
L 194.911441 290.753545 
L 195.837262 290.513936 
L 197.688904 290.034719 
L 198.151815 290.000489 
L 199.077636 289.555501 
L 199.540546 289.487042 
L 200.003457 289.247433 
L 205.095472 288.391687 
L 206.947114 287.84401 
L 207.410024 287.535941 
L 209.724577 286.748655 
L 210.650398 286.098289 
L 212.039129 285.82445 
L 224.074801 282.367237 
L 224.537712 282.367237 
L 225.000622 282.161858 
L 225.926443 282.059169 
L 226.389354 281.88802 
L 228.240996 281.81956 
L 229.166816 281.648411 
L 230.092637 281.169193 
L 231.481369 280.655746 
L 231.944279 280.347677 
L 232.8701 279.936919 
L 233.333011 279.697311 
L 234.258832 279.389242 
L 234.721742 279.252323 
L 235.647563 278.670416 
L 236.110474 278.156968 
L 237.036295 276.719315 
L 237.499205 276.582396 
L 237.962115 276.582396 
L 239.350847 275.76088 
L 239.813757 275.521271 
L 240.276668 275.418582 
L 240.739578 274.973594 
L 241.665399 274.597066 
L 242.59122 274.152078 
L 244.905773 271.174083 
L 247.683235 269.667971 
L 248.609056 268.914914 
L 249.071967 268.606846 
L 249.534877 267.956479 
L 249.997788 266.895355 
L 250.460698 266.176528 
L 250.923609 265.8 
L 251.386519 265.594621 
L 255.089803 262.171638 
L 256.015624 261.315892 
L 258.793087 259.570171 
L 259.255997 259.399022 
L 260.644729 258.577506 
L 262.03346 257.653301 
L 263.885102 255.976039 
L 264.810923 255.599511 
L 265.736744 254.949144 
L 266.199654 254.675306 
L 266.662565 254.606846 
L 268.051296 253.81956 
L 268.514207 253.306112 
L 270.828759 252.039609 
L 271.29167 251.86846 
L 272.680401 250.910024 
L 279.624058 248.445477 
L 280.549879 247.589731 
L 281.93861 246.905134 
L 282.864431 246.323227 
L 283.790252 246.049389 
L 284.253163 245.74132 
L 284.716073 245.604401 
L 286.104805 244.680196 
L 288.419357 244.132518 
L 289.808088 243.311002 
L 291.19682 243.002934 
L 291.65973 242.866015 
L 293.048462 241.80489 
L 294.900104 241.291443 
L 295.363014 240.914914 
L 298.140477 239.956479 
L 299.066298 239.78533 
L 299.992119 239.408802 
L 303.232492 238.210758 
L 304.158313 238.073839 
L 305.547045 237.594621 
L 307.861597 236.465037 
L 309.713239 235.438142 
L 313.416523 233.8978 
L 313.879433 233.82934 
L 314.805254 233.247433 
L 315.268165 233.178973 
L 317.119806 232.425917 
L 318.971448 232.186308 
L 319.897269 231.70709 
L 320.36018 231.296333 
L 320.82309 230.440587 
L 322.674732 229.927139 
L 324.063464 229.208313 
L 324.989284 228.900244 
L 325.915105 228.421027 
L 328.692568 227.291443 
L 329.618389 227.086064 
L 330.54421 226.606846 
L 331.007121 226.401467 
L 331.470031 226.333007 
L 333.321673 225.477262 
L 334.710404 224.587286 
L 336.099136 224.313447 
L 337.950778 223.8 
L 338.413688 223.76577 
L 338.876599 223.389242 
L 339.80242 223.081174 
L 342.116972 222.156968 
L 342.579882 221.81467 
L 343.042793 221.643521 
L 343.968614 221.130073 
L 345.820256 220.548166 
L 346.746077 219.966259 
L 347.208987 219.487042 
L 347.671898 219.213203 
L 348.134808 219.110513 
L 349.060629 218.357457 
L 349.52354 218.288998 
L 349.98645 217.535941 
L 350.449361 217.330562 
L 350.912271 216.954034 
L 351.375181 216.885575 
L 352.301002 216.303667 
L 353.226823 215.995599 
L 353.689734 215.653301 
L 354.152644 215.482152 
L 356.004286 214.249878 
L 357.393018 213.531051 
L 358.318839 213.291443 
L 359.24466 212.777995 
L 359.70757 211.990709 
L 360.633391 211.306112 
L 361.096301 211.203423 
L 363.873764 209.86846 
L 364.799585 209.491932 
L 366.188317 208.328117 
L 367.114138 207.540831 
L 368.039959 206.993154 
L 368.502869 206.479707 
L 368.965779 206.171638 
L 369.8916 205.418582 
L 370.354511 205.213203 
L 371.280332 204.288998 
L 372.206153 203.980929 
L 373.131974 203.364792 
L 374.520705 202.645966 
L 374.983616 202.577506 
L 376.372347 201.82445 
L 377.298168 201.242543 
L 381.927273 199.531051 
L 382.390183 199.154523 
L 384.241825 198.435697 
L 384.704736 198.298778 
L 385.630557 197.682641 
L 386.556377 197.271883 
L 387.482198 196.621516 
L 388.408019 194.773105 
L 389.33384 193.677751 
L 390.722572 192.958924 
L 391.648393 192.582396 
L 392.111303 192.513936 
L 392.574214 192.240098 
L 394.888766 191.487042 
L 395.351676 191.281663 
L 396.277497 190.631296 
L 397.666229 190.049389 
L 398.59205 189.535941 
L 401.369513 187.619071 
L 403.684065 186.352567 
L 406.461528 184.949144 
L 407.850259 184.538386 
L 409.238991 183.990709 
L 409.701901 183.648411 
L 410.627722 183.374572 
L 411.553543 182.998044 
L 412.016454 182.621516 
L 413.868095 181.971149 
L 414.793916 181.286553 
L 415.719737 180.910024 
L 416.645558 180.191198 
L 417.571379 179.917359 
L 418.03429 179.506601 
L 418.4972 179.438142 
L 419.423021 178.719315 
L 420.348842 178.240098 
L 420.811753 178.034719 
L 421.274663 177.555501 
L 424.515036 176.254768 
L 425.440857 175.84401 
L 426.829589 175.399022 
L 427.75541 175.262103 
L 428.21832 175.056724 
L 428.681231 174.988264 
L 429.607052 174.577506 
L 430.069962 174.543276 
L 431.921604 173.85868 
L 433.310335 172.866015 
L 433.773246 172.694866 
L 434.699067 172.181418 
L 435.161977 172.044499 
L 437.93944 170.469927 
L 438.402351 170.367237 
L 439.791082 169.545721 
L 441.179813 169.066504 
L 442.105634 168.758435 
L 443.957276 168.142298 
L 444.883097 167.83423 
L 446.734739 167.457702 
L 447.197649 167.252323 
L 447.66056 167.183863 
L 448.586381 166.773105 
L 449.049291 166.704645 
L 449.512202 166.465037 
L 450.438023 166.293888 
L 451.826754 165.78044 
L 452.752575 165.677751 
L 454.141307 165.369682 
L 456.455859 164.958924 
L 468.491531 161.399022 
L 468.954442 160.919804 
L 469.880263 160.543276 
L 473.583546 159.139853 
L 474.046457 158.866015 
L 475.435188 158.455257 
L 476.361009 158.215648 
L 476.82392 157.907579 
L 477.28683 157.80489 
L 477.749741 157.394132 
L 479.138472 157.120293 
L 480.064293 156.675306 
L 480.527204 156.127628 
L 482.378845 155.682641 
L 485.619219 154.998044 
L 486.082129 154.998044 
L 486.54504 154.792665 
L 488.396682 154.450367 
L 488.859592 154.244988 
L 490.711234 153.902689 
L 491.637055 153.491932 
L 492.562876 153.320782 
L 494.877428 152.738875 
L 496.72907 152.156968 
L 497.191981 152.054279 
L 497.654891 151.81467 
L 498.580712 151.575061 
L 499.506533 151.198533 
L 500.432354 150.856235 
L 500.895264 150.548166 
L 501.821085 150.274328 
L 505.524369 149.007824 
L 506.45019 148.939364 
L 508.301832 148.391687 
L 508.764742 148.117848 
L 509.690563 147.84401 
L 512.005116 146.782885 
L 512.468026 146.748655 
L 517.560041 144.934474 
L 519.874594 144.318337 
L 520.800415 143.87335 
L 522.189146 143.565281 
L 524.040788 142.059169 
L 524.966609 141.78533 
L 525.42952 141.408802 
L 528.206982 140.347677 
L 528.669893 140.039609 
L 529.595714 139.76577 
L 530.058624 139.457702 
L 532.373177 138.704645 
L 533.761908 137.88313 
L 534.224819 137.78044 
L 536.539371 136.513936 
L 537.928102 135.8978 
L 538.391013 135.555501 
L 539.316834 135.247433 
L 540.242655 134.699756 
L 540.705565 134.528606 
L 541.168476 134.186308 
L 547.186312 132.064059 
L 547.649222 131.961369 
L 548.112133 131.653301 
L 549.963775 131.276773 
L 550.889596 130.900244 
L 553.667058 129.565281 
L 554.129969 129.496822 
L 555.5187 128.709535 
L 556.907432 128.230318 
L 560.147805 126.895355 
L 560.610716 126.758435 
L 561.073626 126.450367 
L 561.999447 126.347677 
L 562.462357 126.039609 
L 563.388178 125.86846 
L 564.313999 125.423472 
L 564.77691 125.218093 
L 565.23982 125.149633 
L 566.165641 124.841565 
L 569.406015 123.71198 
L 570.794746 123.403912 
L 572.183477 122.856235 
L 574.035119 121.82934 
L 574.96094 121.452812 
L 575.423851 121.144743 
L 576.349672 120.939364 
L 576.812582 120.665526 
L 577.275493 120.562836 
L 578.664224 119.77555 
L 579.590045 119.399022 
L 581.441687 118.680196 
L 583.756239 117.89291 
L 584.68206 117.413692 
L 586.996613 116.626406 
L 589.774075 115.496822 
L 591.625717 114.641076 
L 596.254822 112.826895 
L 596.717732 112.518826 
L 598.569374 111.902689 
L 599.032285 111.902689 
L 599.958106 111.491932 
L 601.809748 109.985819 
L 602.272658 109.8489 
L 602.735569 109.575061 
L 603.198479 109.472372 
L 603.66139 109.232763 
L 604.1243 109.164303 
L 604.587211 108.822005 
L 605.050121 108.719315 
L 605.975942 108.137408 
L 607.364673 107.418582 
L 608.290494 107.042054 
L 608.753405 106.802445 
L 610.142136 106.494377 
L 612.456689 105.70709 
L 613.38251 105.399022 
L 614.771241 104.680196 
L 615.697062 104.235208 
L 616.622883 103.995599 
L 618.011614 103.345232 
L 622.177809 101.80489 
L 623.56654 100.949144 
L 624.02945 100.846455 
L 624.955271 100.401467 
L 625.881092 100.059169 
L 626.344003 99.648411 
L 627.269824 99.271883 
L 628.658555 98.792665 
L 629.121466 98.416137 
L 629.584376 98.381907 
L 630.510197 98.108068 
L 631.436018 97.8 
L 631.898928 97.594621 
L 632.361839 97.526161 
L 633.75057 97.012714 
L 635.139302 96.499267 
L 636.990944 95.677751 
L 637.453854 95.609291 
L 641.157138 94.068949 
L 642.545869 93.623961 
L 643.47169 93.555501 
L 644.397511 93.178973 
L 647.174974 92.357457 
L 648.100795 92.323227 
L 651.804079 91.125183 
L 652.7299 90.611736 
L 653.19281 90.200978 
L 654.581542 89.379462 
L 655.507363 88.831785 
L 658.284825 87.941809 
L 658.747736 87.565281 
L 661.525199 86.401467 
L 663.376841 85.88802 
L 664.302662 85.477262 
L 664.765572 85.237653 
L 665.691393 84.963814 
L 666.154303 84.689976 
L 667.080124 84.518826 
L 670.783408 82.910024 
L 671.246319 82.841565 
L 671.709229 82.533496 
L 672.17214 82.362347 
L 672.63505 81.951589 
L 673.097961 81.88313 
L 674.949602 81.164303 
L 676.801244 80.719315 
L 677.264155 80.650856 
L 677.727065 80.445477 
L 678.189976 80.411247 
L 679.115797 80.103178 
L 679.578707 80.068949 
L 680.967439 79.521271 
L 682.819081 78.973594 
L 683.744901 78.288998 
L 685.596543 77.262103 
L 686.985275 76.782885 
L 690.688559 75.037164 
L 691.151469 74.797555 
L 691.61438 74.352567 
L 694.391842 73.462592 
L 695.317663 73.086064 
L 696.243484 72.846455 
L 696.706395 72.606846 
L 697.169305 72.230318 
L 699.020947 71.7511 
L 699.483858 71.408802 
L 705.501694 69.218093 
L 706.427515 69.046944 
L 710.593709 67.575061 
L 711.51953 67.335452 
L 711.98244 67.130073 
L 712.445351 67.130073 
L 713.371172 66.753545 
L 714.296993 66.205868 
L 716.611545 65.418582 
L 718.000277 64.939364 
L 718.463187 64.870905 
L 719.389008 64.494377 
L 720.777739 64.186308 
L 722.166471 63.74132 
L 722.629381 63.638631 
L 723.092292 63.330562 
L 724.018113 63.125183 
L 733.276322 60.455257 
L 735.590875 60.044499 
L 736.516695 59.599511 
L 736.979606 59.291443 
L 740.68289 57.990709 
L 741.608711 57.71687 
L 743.460353 56.963814 
L 743.923263 56.621516 
L 745.311994 56.313447 
L 746.237815 56.005379 
L 746.700726 55.8 
L 747.163636 55.8 
L 747.163636 55.8 
" clip-path="url(#p406256fd0f)" style="fill: none; stroke: #1f77b4; stroke-width: 1.5; stroke-linecap: square"/>
   </g>
   <g id="line2d_34">
    <path d="M 138.899274 307.8 
L 143.065468 307.697311 
L 146.768752 307.526161 
L 148.620394 307.526161 
L 149.083305 307.389242 
L 151.397857 307.286553 
L 154.17532 306.978484 
L 156.952783 306.875795 
L 157.878604 306.773105 
L 161.118977 306.636186 
L 164.35935 306.533496 
L 166.673903 306.465037 
L 172.691739 306.362347 
L 175.006291 306.293888 
L 178.246664 306.191198 
L 180.561217 306.122738 
L 185.653232 306.020049 
L 187.504874 305.8489 
L 189.356516 305.81467 
L 192.133979 305.71198 
L 193.98562 305.677751 
L 196.300173 305.609291 
L 198.151815 305.438142 
L 202.318009 305.335452 
L 203.24383 305.266993 
L 205.095472 305.164303 
L 207.872935 305.061614 
L 209.724577 304.958924 
L 218.056965 304.445477 
L 221.297338 304.342787 
L 222.68607 304.205868 
L 225.000622 304.103178 
L 229.629727 303.86357 
L 234.258832 303.79511 
L 236.110474 303.589731 
L 237.962115 303.487042 
L 243.054131 303.007824 
L 246.294504 302.631296 
L 247.683235 302.562836 
L 251.386519 302.083619 
L 254.163982 302.015159 
L 255.552713 301.87824 
L 256.941445 301.77555 
L 269.902938 300.782885 
L 270.828759 300.611736 
L 273.606222 300.509046 
L 281.012789 300.064059 
L 284.253163 299.961369 
L 286.104805 299.75599 
L 288.419357 299.653301 
L 291.19682 299.550611 
L 293.511372 299.447922 
L 295.363014 299.413692 
L 297.677567 299.345232 
L 298.603387 299.208313 
L 305.084134 299.105623 
L 306.009955 299.002934 
L 311.564881 298.900244 
L 315.731075 298.694866 
L 318.971448 298.592176 
L 320.82309 298.386797 
L 324.063464 298.284108 
L 324.989284 298.112958 
L 327.303837 298.044499 
L 331.932942 297.976039 
L 333.784583 297.80489 
L 335.636225 297.77066 
L 337.024957 297.667971 
L 338.876599 297.496822 
L 343.505703 297.257213 
L 348.134808 297.154523 
L 352.301002 296.949144 
L 353.689734 296.914914 
L 354.615555 296.777995 
L 356.930107 296.675306 
L 357.855928 296.606846 
L 358.781749 296.538386 
L 359.70757 296.469927 
L 363.873764 296.401467 
L 365.262496 296.298778 
L 377.761078 295.477262 
L 380.075631 295.374572 
L 382.390183 295.306112 
L 388.87093 295.203423 
L 389.796751 295.066504 
L 396.277497 294.963814 
L 400.906602 294.724205 
L 401.832423 294.689976 
L 402.758244 294.587286 
L 405.072796 294.484597 
L 407.387349 294.416137 
L 409.701901 294.313447 
L 412.016454 294.244988 
L 416.182648 294.142298 
L 418.960111 294.039609 
L 425.440857 293.936919 
L 430.532872 293.663081 
L 432.384514 293.594621 
L 433.773246 293.491932 
L 440.253992 293.389242 
L 443.031455 293.286553 
L 451.363844 293.183863 
L 453.215486 293.149633 
L 458.770411 293.081174 
L 459.696232 293.012714 
L 466.176979 292.910024 
L 468.028621 292.875795 
L 480.064293 292.773105 
L 481.453025 292.636186 
L 502.283996 292.533496 
L 504.598548 292.465037 
L 516.634221 292.396577 
L 517.560041 292.328117 
L 519.874594 292.259658 
L 521.263325 292.122738 
L 524.040788 292.020049 
L 527.281161 291.88313 
L 531.447356 291.78044 
L 533.761908 291.71198 
L 537.002281 291.609291 
L 540.705565 291.438142 
L 543.020118 291.335452 
L 544.871759 291.301222 
L 549.037954 291.198533 
L 550.889596 291.164303 
L 556.907432 291.061614 
L 558.759074 291.027384 
L 561.073626 290.924694 
L 563.851089 290.822005 
L 567.091462 290.753545 
L 568.017283 290.685086 
L 579.127134 290.582396 
L 585.144971 290.240098 
L 587.459523 290.171638 
L 588.385344 290.068949 
L 589.311165 290.000489 
L 593.014449 289.8978 
L 595.791912 289.79511 
L 600.421016 289.692421 
L 602.735569 289.452812 
L 607.364673 289.350122 
L 608.290494 289.247433 
L 612.919599 289.144743 
L 615.234151 289.076284 
L 620.326167 289.042054 
L 621.251988 288.939364 
L 626.344003 288.836675 
L 627.269824 288.768215 
L 637.453854 288.665526 
L 640.231317 288.562836 
L 647.174974 288.460147 
L 649.026616 288.425917 
L 653.19281 288.357457 
L 654.118631 288.254768 
L 660.136467 288.152078 
L 662.45102 288.083619 
L 670.783408 287.980929 
L 672.17214 287.87824 
L 673.560871 287.77555 
L 674.949602 287.672861 
L 681.89326 287.570171 
L 684.670722 287.467482 
L 697.169305 287.364792 
L 701.335499 287.159413 
L 706.890425 287.056724 
L 707.816246 286.988264 
L 714.759903 286.919804 
L 715.685724 286.851345 
L 720.777739 286.748655 
L 722.629381 286.714425 
L 729.110128 286.611736 
L 731.887591 286.509046 
L 739.757069 286.406357 
L 741.608711 286.372127 
L 745.774905 286.269438 
L 747.163636 286.200978 
L 747.163636 286.200978 
" clip-path="url(#p406256fd0f)" style="fill: none; stroke: #ff7f0e; stroke-width: 1.5; stroke-linecap: square"/>
   </g>
   <g id="patch_3">
    <path d="M 108 320.4 
L 108 43.2 
" style="fill: none; stroke: #a9a9a9; stroke-width: 0.8; stroke-linejoin: miter; stroke-linecap: square"/>
   </g>
   <g id="patch_4">
    <path d="M 777.6 320.4 
L 777.6 43.2 
" style="fill: none"/>
   </g>
   <g id="patch_5">
    <path d="M 108 320.4 
L 777.6 320.4 
" style="fill: none; stroke: #a9a9a9; stroke-width: 0.8; stroke-linejoin: miter; stroke-linecap: square"/>
   </g>
   <g id="patch_6">
    <path d="M 108 43.2 
L 777.6 43.2 
" style="fill: none"/>
   </g>
   <g id="text_17">
    <!-- get_subscribe history -->
    <g style="fill: #a9a9a9" transform="translate(378.6075 37.2) scale(0.12 -0.12)">
     <defs>
      <path id="DejaVuSans-67" d="M 2906 1791 
Q 2906 2416 2648 2759 
Q 2391 3103 1925 3103 
Q 1463 3103 1205 2759 
Q 947 2416 947 1791 
Q 947 1169 1205 825 
Q 1463 481 1925 481 
Q 2391 481 2648 825 
Q 2906 1169 2906 1791 
z
M 3481 434 
Q 3481 -459 3084 -895 
Q 2688 -1331 1869 -1331 
Q 1566 -1331 1297 -1286 
Q 1028 -1241 775 -1147 
L 775 -588 
Q 1028 -725 1275 -790 
Q 1522 -856 1778 -856 
Q 2344 -856 2625 -561 
Q 2906 -266 2906 331 
L 2906 616 
Q 2728 306 2450 153 
Q 2172 0 1784 0 
Q 1141 0 747 490 
Q 353 981 353 1791 
Q 353 2603 747 3093 
Q 1141 3584 1784 3584 
Q 2172 3584 2450 3431 
Q 2728 3278 2906 2969 
L 2906 3500 
L 3481 3500 
L 3481 434 
z
" transform="scale(0.015625)"/>
      <path id="DejaVuSans-65" d="M 3597 1894 
L 3597 1613 
L 953 1613 
Q 991 1019 1311 708 
Q 1631 397 2203 397 
Q 2534 397 2845 478 
Q 3156 559 3463 722 
L 3463 178 
Q 3153 47 2828 -22 
Q 2503 -91 2169 -91 
Q 1331 -91 842 396 
Q 353 884 353 1716 
Q 353 2575 817 3079 
Q 1281 3584 2069 3584 
Q 2775 3584 3186 3129 
Q 3597 2675 3597 1894 
z
M 3022 2063 
Q 3016 2534 2758 2815 
Q 2500 3097 2075 3097 
Q 1594 3097 1305 2825 
Q 1016 2553 972 2059 
L 3022 2063 
z
" transform="scale(0.015625)"/>
      <path id="DejaVuSans-74" d="M 1172 4494 
L 1172 3500 
L 2356 3500 
L 2356 3053 
L 1172 3053 
L 1172 1153 
Q 1172 725 1289 603 
Q 1406 481 1766 481 
L 2356 481 
L 2356 0 
L 1766 0 
Q 1100 0 847 248 
Q 594 497 594 1153 
L 594 3053 
L 172 3053 
L 172 3500 
L 594 3500 
L 594 4494 
L 1172 4494 
z
" transform="scale(0.015625)"/>
      <path id="DejaVuSans-5f" d="M 3263 -1063 
L 3263 -1509 
L -63 -1509 
L -63 -1063 
L 3263 -1063 
z
" transform="scale(0.015625)"/>
      <path id="DejaVuSans-73" d="M 2834 3397 
L 2834 2853 
Q 2591 2978 2328 3040 
Q 2066 3103 1784 3103 
Q 1356 3103 1142 2972 
Q 928 2841 928 2578 
Q 928 2378 1081 2264 
Q 1234 2150 1697 2047 
L 1894 2003 
Q 2506 1872 2764 1633 
Q 3022 1394 3022 966 
Q 3022 478 2636 193 
Q 2250 -91 1575 -91 
Q 1294 -91 989 -36 
Q 684 19 347 128 
L 347 722 
Q 666 556 975 473 
Q 1284 391 1588 391 
Q 1994 391 2212 530 
Q 2431 669 2431 922 
Q 2431 1156 2273 1281 
Q 2116 1406 1581 1522 
L 1381 1569 
Q 847 1681 609 1914 
Q 372 2147 372 2553 
Q 372 3047 722 3315 
Q 1072 3584 1716 3584 
Q 2034 3584 2315 3537 
Q 2597 3491 2834 3397 
z
" transform="scale(0.015625)"/>
      <path id="DejaVuSans-75" d="M 544 1381 
L 544 3500 
L 1119 3500 
L 1119 1403 
Q 1119 906 1312 657 
Q 1506 409 1894 409 
Q 2359 409 2629 706 
Q 2900 1003 2900 1516 
L 2900 3500 
L 3475 3500 
L 3475 0 
L 2900 0 
L 2900 538 
Q 2691 219 2414 64 
Q 2138 -91 1772 -91 
Q 1169 -91 856 284 
Q 544 659 544 1381 
z
M 1991 3584 
L 1991 3584 
z
" transform="scale(0.015625)"/>
      <path id="DejaVuSans-62" d="M 3116 1747 
Q 3116 2381 2855 2742 
Q 2594 3103 2138 3103 
Q 1681 3103 1420 2742 
Q 1159 2381 1159 1747 
Q 1159 1113 1420 752 
Q 1681 391 2138 391 
Q 2594 391 2855 752 
Q 3116 1113 3116 1747 
z
M 1159 2969 
Q 1341 3281 1617 3432 
Q 1894 3584 2278 3584 
Q 2916 3584 3314 3078 
Q 3713 2572 3713 1747 
Q 3713 922 3314 415 
Q 2916 -91 2278 -91 
Q 1894 -91 1617 61 
Q 1341 213 1159 525 
L 1159 0 
L 581 0 
L 581 4863 
L 1159 4863 
L 1159 2969 
z
" transform="scale(0.015625)"/>
      <path id="DejaVuSans-63" d="M 3122 3366 
L 3122 2828 
Q 2878 2963 2633 3030 
Q 2388 3097 2138 3097 
Q 1578 3097 1268 2742 
Q 959 2388 959 1747 
Q 959 1106 1268 751 
Q 1578 397 2138 397 
Q 2388 397 2633 464 
Q 2878 531 3122 666 
L 3122 134 
Q 2881 22 2623 -34 
Q 2366 -91 2075 -91 
Q 1284 -91 818 406 
Q 353 903 353 1747 
Q 353 2603 823 3093 
Q 1294 3584 2113 3584 
Q 2378 3584 2631 3529 
Q 2884 3475 3122 3366 
z
" transform="scale(0.015625)"/>
      <path id="DejaVuSans-72" d="M 2631 2963 
Q 2534 3019 2420 3045 
Q 2306 3072 2169 3072 
Q 1681 3072 1420 2755 
Q 1159 2438 1159 1844 
L 1159 0 
L 581 0 
L 581 3500 
L 1159 3500 
L 1159 2956 
Q 1341 3275 1631 3429 
Q 1922 3584 2338 3584 
Q 2397 3584 2469 3576 
Q 2541 3569 2628 3553 
L 2631 2963 
z
" transform="scale(0.015625)"/>
      <path id="DejaVuSans-69" d="M 603 3500 
L 1178 3500 
L 1178 0 
L 603 0 
L 603 3500 
z
M 603 4863 
L 1178 4863 
L 1178 4134 
L 603 4134 
L 603 4863 
z
" transform="scale(0.015625)"/>
      <path id="DejaVuSans-20" transform="scale(0.015625)"/>
      <path id="DejaVuSans-68" d="M 3513 2113 
L 3513 0 
L 2938 0 
L 2938 2094 
Q 2938 2591 2744 2837 
Q 2550 3084 2163 3084 
Q 1697 3084 1428 2787 
Q 1159 2491 1159 1978 
L 1159 0 
L 581 0 
L 581 4863 
L 1159 4863 
L 1159 2956 
Q 1366 3272 1645 3428 
Q 1925 3584 2291 3584 
Q 2894 3584 3203 3211 
Q 3513 2838 3513 2113 
z
" transform="scale(0.015625)"/>
      <path id="DejaVuSans-6f" d="M 1959 3097 
Q 1497 3097 1228 2736 
Q 959 2375 959 1747 
Q 959 1119 1226 758 
Q 1494 397 1959 397 
Q 2419 397 2687 759 
Q 2956 1122 2956 1747 
Q 2956 2369 2687 2733 
Q 2419 3097 1959 3097 
z
M 1959 3584 
Q 2709 3584 3137 3096 
Q 3566 2609 3566 1747 
Q 3566 888 3137 398 
Q 2709 -91 1959 -91 
Q 1206 -91 779 398 
Q 353 888 353 1747 
Q 353 2609 779 3096 
Q 1206 3584 1959 3584 
z
" transform="scale(0.015625)"/>
      <path id="DejaVuSans-79" d="M 2059 -325 
Q 1816 -950 1584 -1140 
Q 1353 -1331 966 -1331 
L 506 -1331 
L 506 -850 
L 844 -850 
Q 1081 -850 1212 -737 
Q 1344 -625 1503 -206 
L 1606 56 
L 191 3500 
L 800 3500 
L 1894 763 
L 2988 3500 
L 3597 3500 
L 2059 -325 
z
" transform="scale(0.015625)"/>
     </defs>
     <use xlink:href="#DejaVuSans-67"/>
     <use xlink:href="#DejaVuSans-65" transform="translate(63.476562 0)"/>
     <use xlink:href="#DejaVuSans-74" transform="translate(125 0)"/>
     <use xlink:href="#DejaVuSans-5f" transform="translate(164.208984 0)"/>
     <use xlink:href="#DejaVuSans-73" transform="translate(214.208984 0)"/>
     <use xlink:href="#DejaVuSans-75" transform="translate(266.308594 0)"/>
     <use xlink:href="#DejaVuSans-62" transform="translate(329.6875 0)"/>
     <use xlink:href="#DejaVuSans-73" transform="translate(393.164062 0)"/>
     <use xlink:href="#DejaVuSans-63" transform="translate(445.263672 0)"/>
     <use xlink:href="#DejaVuSans-72" transform="translate(500.244141 0)"/>
     <use xlink:href="#DejaVuSans-69" transform="translate(541.357422 0)"/>
     <use xlink:href="#DejaVuSans-62" transform="translate(569.140625 0)"/>
     <use xlink:href="#DejaVuSans-65" transform="translate(632.617188 0)"/>
     <use xlink:href="#DejaVuSans-20" transform="translate(694.140625 0)"/>
     <use xlink:href="#DejaVuSans-68" transform="translate(725.927734 0)"/>
     <use xlink:href="#DejaVuSans-69" transform="translate(789.306641 0)"/>
     <use xlink:href="#DejaVuSans-73" transform="translate(817.089844 0)"/>
     <use xlink:href="#DejaVuSans-74" transform="translate(869.189453 0)"/>
     <use xlink:href="#DejaVuSans-6f" transform="translate(908.398438 0)"/>
     <use xlink:href="#DejaVuSans-72" transform="translate(969.580078 0)"/>
     <use xlink:href="#DejaVuSans-79" transform="translate(1010.693359 0)"/>
    </g>
   </g>
   <g id="legend_1">
    <g id="line2d_35">
     <path d="M 815.08 328.498438 
L 825.08 328.498438 
L 835.08 328.498438 
" style="fill: none; stroke: #1f77b4; stroke-width: 1.5; stroke-linecap: square"/>
    </g>
    <g id="text_18">
     <!-- star -->
     <g style="fill: #a9a9a9" transform="translate(843.08 331.998438) scale(0.1 -0.1)">
      <defs>
       <path id="DejaVuSans-61" d="M 2194 1759 
Q 1497 1759 1228 1600 
Q 959 1441 959 1056 
Q 959 750 1161 570 
Q 1363 391 1709 391 
Q 2188 391 2477 730 
Q 2766 1069 2766 1631 
L 2766 1759 
L 2194 1759 
z
M 3341 1997 
L 3341 0 
L 2766 0 
L 2766 531 
Q 2569 213 2275 61 
Q 1981 -91 1556 -91 
Q 1019 -91 701 211 
Q 384 513 384 1019 
Q 384 1609 779 1909 
Q 1175 2209 1959 2209 
L 2766 2209 
L 2766 2266 
Q 2766 2663 2505 2880 
Q 2244 3097 1772 3097 
Q 1472 3097 1187 3025 
Q 903 2953 641 2809 
L 641 3341 
Q 956 3463 1253 3523 
Q 1550 3584 1831 3584 
Q 2591 3584 2966 3190 
Q 3341 2797 3341 1997 
z
" transform="scale(0.015625)"/>
      </defs>
      <use xlink:href="#DejaVuSans-73"/>
      <use xlink:href="#DejaVuSans-74" transform="translate(52.099609 0)"/>
      <use xlink:href="#DejaVuSans-61" transform="translate(91.308594 0)"/>
      <use xlink:href="#DejaVuSans-72" transform="translate(152.587891 0)"/>
     </g>
    </g>
    <g id="line2d_36">
     <path d="M 815.08 343.176562 
L 825.08 343.176562 
L 835.08 343.176562 
" style="fill: none; stroke: #ff7f0e; stroke-width: 1.5; stroke-linecap: square"/>
    </g>
    <g id="text_19">
     <!-- fork -->
     <g style="fill: #a9a9a9" transform="translate(843.08 346.676562) scale(0.1 -0.1)">
      <defs>
       <path id="DejaVuSans-66" d="M 2375 4863 
L 2375 4384 
L 1825 4384 
Q 1516 4384 1395 4259 
Q 1275 4134 1275 3809 
L 1275 3500 
L 2222 3500 
L 2222 3053 
L 1275 3053 
L 1275 0 
L 697 0 
L 697 3053 
L 147 3053 
L 147 3500 
L 697 3500 
L 697 3744 
Q 697 4328 969 4595 
Q 1241 4863 1831 4863 
L 2375 4863 
z
" transform="scale(0.015625)"/>
       <path id="DejaVuSans-6b" d="M 581 4863 
L 1159 4863 
L 1159 1991 
L 2875 3500 
L 3609 3500 
L 1753 1863 
L 3688 0 
L 2938 0 
L 1159 1709 
L 1159 0 
L 581 0 
L 581 4863 
z
" transform="scale(0.015625)"/>
      </defs>
      <use xlink:href="#DejaVuSans-66"/>
      <use xlink:href="#DejaVuSans-6f" transform="translate(35.205078 0)"/>
      <use xlink:href="#DejaVuSans-72" transform="translate(96.386719 0)"/>
      <use xlink:href="#DejaVuSans-6b" transform="translate(137.5 0)"/>
     </g>
    </g>
   </g>
  </g>
 </g>
 <defs>
  <clipPath id="p406256fd0f">
   <rect x="108" y="43.2" width="669.6" height="277.2"/>
  </clipPath>
 </defs>
</svg>
