<?xml version="1.0" encoding="utf-8" standalone="no"?>
<!DOCTYPE svg PUBLIC "-//W3C//DTD SVG 1.1//EN"
  "http://www.w3.org/Graphics/SVG/1.1/DTD/svg11.dtd">
<svg xmlns:xlink="http://www.w3.org/1999/xlink" width="864pt" height="360pt" viewBox="0 0 864 360" xmlns="http://www.w3.org/2000/svg" version="1.1">
 <metadata>
  <rdf:RDF xmlns:dc="http://purl.org/dc/elements/1.1/" xmlns:cc="http://creativecommons.org/ns#" xmlns:rdf="http://www.w3.org/1999/02/22-rdf-syntax-ns#">
   <cc:Work>
    <dc:type rdf:resource="http://purl.org/dc/dcmitype/StillImage"/>
    <dc:date>2025-08-06T08:17:33.174894</dc:date>
    <dc:format>image/svg+xml</dc:format>
    <dc:creator>
     <cc:Agent>
      <dc:title>Matplotlib v3.10.5, https://matplotlib.org/</dc:title>
     </cc:Agent>
    </dc:creator>
   </cc:Work>
  </rdf:RDF>
 </metadata>
 <defs>
  <style type="text/css">*{stroke-linejoin: round; stroke-linecap: butt}</style>
 </defs>
 <g id="figure_1">
  <g id="patch_1">
   <path d="M 0 360 
L 864 360 
L 864 0 
L 0 0 
L 0 360 
z
" style="fill: none; opacity: 0"/>
  </g>
  <g id="axes_1">
   <g id="patch_2">
    <path d="M 108 320.4 
L 777.6 320.4 
L 777.6 43.2 
L 108 43.2 
L 108 320.4 
z
" style="fill: none; opacity: 0"/>
   </g>
   <g id="matplotlib.axis_1">
    <g id="xtick_1">
     <g id="line2d_1">
      <path d="M 128.937906 320.4 
L 128.937906 43.2 
" clip-path="url(#pfde041c084)" style="fill: none; stroke-dasharray: 5.12,1.28,0.8,1.28; stroke-dashoffset: 0; stroke: #b0b0b0; stroke-width: 0.8"/>
     </g>
     <g id="line2d_2">
      <defs>
       <path id="m495944c262" d="M 0 0 
L 0 3.5 
" style="stroke: #a9a9a9; stroke-width: 0.8"/>
      </defs>
      <g>
       <use xlink:href="#m495944c262" x="128.937906" y="320.4" style="fill: #a9a9a9; stroke: #a9a9a9; stroke-width: 0.8"/>
      </g>
     </g>
     <g id="text_1">
      <!-- 2021-07 -->
      <g style="fill: #a9a9a9" transform="translate(108.046499 334.998438) scale(0.1 -0.1)">
       <defs>
        <path id="DejaVuSans-32" d="M 1228 531 
L 3431 531 
L 3431 0 
L 469 0 
L 469 531 
Q 828 903 1448 1529 
Q 2069 2156 2228 2338 
Q 2531 2678 2651 2914 
Q 2772 3150 2772 3378 
Q 2772 3750 2511 3984 
Q 2250 4219 1831 4219 
Q 1534 4219 1204 4116 
Q 875 4013 500 3803 
L 500 4441 
Q 881 4594 1212 4672 
Q 1544 4750 1819 4750 
Q 2544 4750 2975 4387 
Q 3406 4025 3406 3419 
Q 3406 3131 3298 2873 
Q 3191 2616 2906 2266 
Q 2828 2175 2409 1742 
Q 1991 1309 1228 531 
z
" transform="scale(0.015625)"/>
        <path id="DejaVuSans-30" d="M 2034 4250 
Q 1547 4250 1301 3770 
Q 1056 3291 1056 2328 
Q 1056 1369 1301 889 
Q 1547 409 2034 409 
Q 2525 409 2770 889 
Q 3016 1369 3016 2328 
Q 3016 3291 2770 3770 
Q 2525 4250 2034 4250 
z
M 2034 4750 
Q 2819 4750 3233 4129 
Q 3647 3509 3647 2328 
Q 3647 1150 3233 529 
Q 2819 -91 2034 -91 
Q 1250 -91 836 529 
Q 422 1150 422 2328 
Q 422 3509 836 4129 
Q 1250 4750 2034 4750 
z
" transform="scale(0.015625)"/>
        <path id="DejaVuSans-31" d="M 794 531 
L 1825 531 
L 1825 4091 
L 703 3866 
L 703 4441 
L 1819 4666 
L 2450 4666 
L 2450 531 
L 3481 531 
L 3481 0 
L 794 0 
L 794 531 
z
" transform="scale(0.015625)"/>
        <path id="DejaVuSans-2d" d="M 313 2009 
L 1997 2009 
L 1997 1497 
L 313 1497 
L 313 2009 
z
" transform="scale(0.015625)"/>
        <path id="DejaVuSans-37" d="M 525 4666 
L 3525 4666 
L 3525 4397 
L 1831 0 
L 1172 0 
L 2766 4134 
L 525 4134 
L 525 4666 
z
" transform="scale(0.015625)"/>
       </defs>
       <use xlink:href="#DejaVuSans-32"/>
       <use xlink:href="#DejaVuSans-30" transform="translate(63.623047 0)"/>
       <use xlink:href="#DejaVuSans-32" transform="translate(127.246094 0)"/>
       <use xlink:href="#DejaVuSans-31" transform="translate(190.869141 0)"/>
       <use xlink:href="#DejaVuSans-2d" transform="translate(254.492188 0)"/>
       <use xlink:href="#DejaVuSans-30" transform="translate(290.576172 0)"/>
       <use xlink:href="#DejaVuSans-37" transform="translate(354.199219 0)"/>
      </g>
     </g>
    </g>
    <g id="xtick_2">
     <g id="line2d_3">
      <path d="M 204.92557 320.4 
L 204.92557 43.2 
" clip-path="url(#pfde041c084)" style="fill: none; stroke-dasharray: 5.12,1.28,0.8,1.28; stroke-dashoffset: 0; stroke: #b0b0b0; stroke-width: 0.8"/>
     </g>
     <g id="line2d_4">
      <g>
       <use xlink:href="#m495944c262" x="204.92557" y="320.4" style="fill: #a9a9a9; stroke: #a9a9a9; stroke-width: 0.8"/>
      </g>
     </g>
     <g id="text_2">
      <!-- 2022-01 -->
      <g style="fill: #a9a9a9" transform="translate(184.034164 334.998438) scale(0.1 -0.1)">
       <use xlink:href="#DejaVuSans-32"/>
       <use xlink:href="#DejaVuSans-30" transform="translate(63.623047 0)"/>
       <use xlink:href="#DejaVuSans-32" transform="translate(127.246094 0)"/>
       <use xlink:href="#DejaVuSans-32" transform="translate(190.869141 0)"/>
       <use xlink:href="#DejaVuSans-2d" transform="translate(254.492188 0)"/>
       <use xlink:href="#DejaVuSans-30" transform="translate(290.576172 0)"/>
       <use xlink:href="#DejaVuSans-31" transform="translate(354.199219 0)"/>
      </g>
     </g>
    </g>
    <g id="xtick_3">
     <g id="line2d_5">
      <path d="M 279.674306 320.4 
L 279.674306 43.2 
" clip-path="url(#pfde041c084)" style="fill: none; stroke-dasharray: 5.12,1.28,0.8,1.28; stroke-dashoffset: 0; stroke: #b0b0b0; stroke-width: 0.8"/>
     </g>
     <g id="line2d_6">
      <g>
       <use xlink:href="#m495944c262" x="279.674306" y="320.4" style="fill: #a9a9a9; stroke: #a9a9a9; stroke-width: 0.8"/>
      </g>
     </g>
     <g id="text_3">
      <!-- 2022-07 -->
      <g style="fill: #a9a9a9" transform="translate(258.7829 334.998438) scale(0.1 -0.1)">
       <use xlink:href="#DejaVuSans-32"/>
       <use xlink:href="#DejaVuSans-30" transform="translate(63.623047 0)"/>
       <use xlink:href="#DejaVuSans-32" transform="translate(127.246094 0)"/>
       <use xlink:href="#DejaVuSans-32" transform="translate(190.869141 0)"/>
       <use xlink:href="#DejaVuSans-2d" transform="translate(254.492188 0)"/>
       <use xlink:href="#DejaVuSans-30" transform="translate(290.576172 0)"/>
       <use xlink:href="#DejaVuSans-37" transform="translate(354.199219 0)"/>
      </g>
     </g>
    </g>
    <g id="xtick_4">
     <g id="line2d_7">
      <path d="M 355.661971 320.4 
L 355.661971 43.2 
" clip-path="url(#pfde041c084)" style="fill: none; stroke-dasharray: 5.12,1.28,0.8,1.28; stroke-dashoffset: 0; stroke: #b0b0b0; stroke-width: 0.8"/>
     </g>
     <g id="line2d_8">
      <g>
       <use xlink:href="#m495944c262" x="355.661971" y="320.4" style="fill: #a9a9a9; stroke: #a9a9a9; stroke-width: 0.8"/>
      </g>
     </g>
     <g id="text_4">
      <!-- 2023-01 -->
      <g style="fill: #a9a9a9" transform="translate(334.770565 334.998438) scale(0.1 -0.1)">
       <defs>
        <path id="DejaVuSans-33" d="M 2597 2516 
Q 3050 2419 3304 2112 
Q 3559 1806 3559 1356 
Q 3559 666 3084 287 
Q 2609 -91 1734 -91 
Q 1441 -91 1130 -33 
Q 819 25 488 141 
L 488 750 
Q 750 597 1062 519 
Q 1375 441 1716 441 
Q 2309 441 2620 675 
Q 2931 909 2931 1356 
Q 2931 1769 2642 2001 
Q 2353 2234 1838 2234 
L 1294 2234 
L 1294 2753 
L 1863 2753 
Q 2328 2753 2575 2939 
Q 2822 3125 2822 3475 
Q 2822 3834 2567 4026 
Q 2313 4219 1838 4219 
Q 1578 4219 1281 4162 
Q 984 4106 628 3988 
L 628 4550 
Q 988 4650 1302 4700 
Q 1616 4750 1894 4750 
Q 2613 4750 3031 4423 
Q 3450 4097 3450 3541 
Q 3450 3153 3228 2886 
Q 3006 2619 2597 2516 
z
" transform="scale(0.015625)"/>
       </defs>
       <use xlink:href="#DejaVuSans-32"/>
       <use xlink:href="#DejaVuSans-30" transform="translate(63.623047 0)"/>
       <use xlink:href="#DejaVuSans-32" transform="translate(127.246094 0)"/>
       <use xlink:href="#DejaVuSans-33" transform="translate(190.869141 0)"/>
       <use xlink:href="#DejaVuSans-2d" transform="translate(254.492188 0)"/>
       <use xlink:href="#DejaVuSans-30" transform="translate(290.576172 0)"/>
       <use xlink:href="#DejaVuSans-31" transform="translate(354.199219 0)"/>
      </g>
     </g>
    </g>
    <g id="xtick_5">
     <g id="line2d_9">
      <path d="M 430.410707 320.4 
L 430.410707 43.2 
" clip-path="url(#pfde041c084)" style="fill: none; stroke-dasharray: 5.12,1.28,0.8,1.28; stroke-dashoffset: 0; stroke: #b0b0b0; stroke-width: 0.8"/>
     </g>
     <g id="line2d_10">
      <g>
       <use xlink:href="#m495944c262" x="430.410707" y="320.4" style="fill: #a9a9a9; stroke: #a9a9a9; stroke-width: 0.8"/>
      </g>
     </g>
     <g id="text_5">
      <!-- 2023-07 -->
      <g style="fill: #a9a9a9" transform="translate(409.519301 334.998438) scale(0.1 -0.1)">
       <use xlink:href="#DejaVuSans-32"/>
       <use xlink:href="#DejaVuSans-30" transform="translate(63.623047 0)"/>
       <use xlink:href="#DejaVuSans-32" transform="translate(127.246094 0)"/>
       <use xlink:href="#DejaVuSans-33" transform="translate(190.869141 0)"/>
       <use xlink:href="#DejaVuSans-2d" transform="translate(254.492188 0)"/>
       <use xlink:href="#DejaVuSans-30" transform="translate(290.576172 0)"/>
       <use xlink:href="#DejaVuSans-37" transform="translate(354.199219 0)"/>
      </g>
     </g>
    </g>
    <g id="xtick_6">
     <g id="line2d_11">
      <path d="M 506.398372 320.4 
L 506.398372 43.2 
" clip-path="url(#pfde041c084)" style="fill: none; stroke-dasharray: 5.12,1.28,0.8,1.28; stroke-dashoffset: 0; stroke: #b0b0b0; stroke-width: 0.8"/>
     </g>
     <g id="line2d_12">
      <g>
       <use xlink:href="#m495944c262" x="506.398372" y="320.4" style="fill: #a9a9a9; stroke: #a9a9a9; stroke-width: 0.8"/>
      </g>
     </g>
     <g id="text_6">
      <!-- 2024-01 -->
      <g style="fill: #a9a9a9" transform="translate(485.506966 334.998438) scale(0.1 -0.1)">
       <defs>
        <path id="DejaVuSans-34" d="M 2419 4116 
L 825 1625 
L 2419 1625 
L 2419 4116 
z
M 2253 4666 
L 3047 4666 
L 3047 1625 
L 3713 1625 
L 3713 1100 
L 3047 1100 
L 3047 0 
L 2419 0 
L 2419 1100 
L 313 1100 
L 313 1709 
L 2253 4666 
z
" transform="scale(0.015625)"/>
       </defs>
       <use xlink:href="#DejaVuSans-32"/>
       <use xlink:href="#DejaVuSans-30" transform="translate(63.623047 0)"/>
       <use xlink:href="#DejaVuSans-32" transform="translate(127.246094 0)"/>
       <use xlink:href="#DejaVuSans-34" transform="translate(190.869141 0)"/>
       <use xlink:href="#DejaVuSans-2d" transform="translate(254.492188 0)"/>
       <use xlink:href="#DejaVuSans-30" transform="translate(290.576172 0)"/>
       <use xlink:href="#DejaVuSans-31" transform="translate(354.199219 0)"/>
      </g>
     </g>
    </g>
    <g id="xtick_7">
     <g id="line2d_13">
      <path d="M 581.560084 320.4 
L 581.560084 43.2 
" clip-path="url(#pfde041c084)" style="fill: none; stroke-dasharray: 5.12,1.28,0.8,1.28; stroke-dashoffset: 0; stroke: #b0b0b0; stroke-width: 0.8"/>
     </g>
     <g id="line2d_14">
      <g>
       <use xlink:href="#m495944c262" x="581.560084" y="320.4" style="fill: #a9a9a9; stroke: #a9a9a9; stroke-width: 0.8"/>
      </g>
     </g>
     <g id="text_7">
      <!-- 2024-07 -->
      <g style="fill: #a9a9a9" transform="translate(560.668678 334.998438) scale(0.1 -0.1)">
       <use xlink:href="#DejaVuSans-32"/>
       <use xlink:href="#DejaVuSans-30" transform="translate(63.623047 0)"/>
       <use xlink:href="#DejaVuSans-32" transform="translate(127.246094 0)"/>
       <use xlink:href="#DejaVuSans-34" transform="translate(190.869141 0)"/>
       <use xlink:href="#DejaVuSans-2d" transform="translate(254.492188 0)"/>
       <use xlink:href="#DejaVuSans-30" transform="translate(290.576172 0)"/>
       <use xlink:href="#DejaVuSans-37" transform="translate(354.199219 0)"/>
      </g>
     </g>
    </g>
    <g id="xtick_8">
     <g id="line2d_15">
      <path d="M 657.547749 320.4 
L 657.547749 43.2 
" clip-path="url(#pfde041c084)" style="fill: none; stroke-dasharray: 5.12,1.28,0.8,1.28; stroke-dashoffset: 0; stroke: #b0b0b0; stroke-width: 0.8"/>
     </g>
     <g id="line2d_16">
      <g>
       <use xlink:href="#m495944c262" x="657.547749" y="320.4" style="fill: #a9a9a9; stroke: #a9a9a9; stroke-width: 0.8"/>
      </g>
     </g>
     <g id="text_8">
      <!-- 2025-01 -->
      <g style="fill: #a9a9a9" transform="translate(636.656343 334.998438) scale(0.1 -0.1)">
       <defs>
        <path id="DejaVuSans-35" d="M 691 4666 
L 3169 4666 
L 3169 4134 
L 1269 4134 
L 1269 2991 
Q 1406 3038 1543 3061 
Q 1681 3084 1819 3084 
Q 2600 3084 3056 2656 
Q 3513 2228 3513 1497 
Q 3513 744 3044 326 
Q 2575 -91 1722 -91 
Q 1428 -91 1123 -41 
Q 819 9 494 109 
L 494 744 
Q 775 591 1075 516 
Q 1375 441 1709 441 
Q 2250 441 2565 725 
Q 2881 1009 2881 1497 
Q 2881 1984 2565 2268 
Q 2250 2553 1709 2553 
Q 1456 2553 1204 2497 
Q 953 2441 691 2322 
L 691 4666 
z
" transform="scale(0.015625)"/>
       </defs>
       <use xlink:href="#DejaVuSans-32"/>
       <use xlink:href="#DejaVuSans-30" transform="translate(63.623047 0)"/>
       <use xlink:href="#DejaVuSans-32" transform="translate(127.246094 0)"/>
       <use xlink:href="#DejaVuSans-35" transform="translate(190.869141 0)"/>
       <use xlink:href="#DejaVuSans-2d" transform="translate(254.492188 0)"/>
       <use xlink:href="#DejaVuSans-30" transform="translate(290.576172 0)"/>
       <use xlink:href="#DejaVuSans-31" transform="translate(354.199219 0)"/>
      </g>
     </g>
    </g>
    <g id="xtick_9">
     <g id="line2d_17">
      <path d="M 732.296485 320.4 
L 732.296485 43.2 
" clip-path="url(#pfde041c084)" style="fill: none; stroke-dasharray: 5.12,1.28,0.8,1.28; stroke-dashoffset: 0; stroke: #b0b0b0; stroke-width: 0.8"/>
     </g>
     <g id="line2d_18">
      <g>
       <use xlink:href="#m495944c262" x="732.296485" y="320.4" style="fill: #a9a9a9; stroke: #a9a9a9; stroke-width: 0.8"/>
      </g>
     </g>
     <g id="text_9">
      <!-- 2025-07 -->
      <g style="fill: #a9a9a9" transform="translate(711.405078 334.998438) scale(0.1 -0.1)">
       <use xlink:href="#DejaVuSans-32"/>
       <use xlink:href="#DejaVuSans-30" transform="translate(63.623047 0)"/>
       <use xlink:href="#DejaVuSans-32" transform="translate(127.246094 0)"/>
       <use xlink:href="#DejaVuSans-35" transform="translate(190.869141 0)"/>
       <use xlink:href="#DejaVuSans-2d" transform="translate(254.492188 0)"/>
       <use xlink:href="#DejaVuSans-30" transform="translate(290.576172 0)"/>
       <use xlink:href="#DejaVuSans-37" transform="translate(354.199219 0)"/>
      </g>
     </g>
    </g>
   </g>
   <g id="matplotlib.axis_2">
    <g id="ytick_1">
     <g id="line2d_19">
      <path d="M 108 307.831599 
L 777.6 307.831599 
" clip-path="url(#pfde041c084)" style="fill: none; stroke-dasharray: 5.12,1.28,0.8,1.28; stroke-dashoffset: 0; stroke: #b0b0b0; stroke-width: 0.8"/>
     </g>
     <g id="line2d_20">
      <defs>
       <path id="m24e7f4b845" d="M 0 0 
L -3.5 0 
" style="stroke: #a9a9a9; stroke-width: 0.8"/>
      </defs>
      <g>
       <use xlink:href="#m24e7f4b845" x="108" y="307.831599" style="fill: #a9a9a9; stroke: #a9a9a9; stroke-width: 0.8"/>
      </g>
     </g>
     <g id="text_10">
      <!-- 0 -->
      <g style="fill: #a9a9a9" transform="translate(94.6375 311.630817) scale(0.1 -0.1)">
       <use xlink:href="#DejaVuSans-30"/>
      </g>
     </g>
    </g>
    <g id="ytick_2">
     <g id="line2d_21">
      <path d="M 108 276.232853 
L 777.6 276.232853 
" clip-path="url(#pfde041c084)" style="fill: none; stroke-dasharray: 5.12,1.28,0.8,1.28; stroke-dashoffset: 0; stroke: #b0b0b0; stroke-width: 0.8"/>
     </g>
     <g id="line2d_22">
      <g>
       <use xlink:href="#m24e7f4b845" x="108" y="276.232853" style="fill: #a9a9a9; stroke: #a9a9a9; stroke-width: 0.8"/>
      </g>
     </g>
     <g id="text_11">
      <!-- 1000 -->
      <g style="fill: #a9a9a9" transform="translate(75.55 280.032071) scale(0.1 -0.1)">
       <use xlink:href="#DejaVuSans-31"/>
       <use xlink:href="#DejaVuSans-30" transform="translate(63.623047 0)"/>
       <use xlink:href="#DejaVuSans-30" transform="translate(127.246094 0)"/>
       <use xlink:href="#DejaVuSans-30" transform="translate(190.869141 0)"/>
      </g>
     </g>
    </g>
    <g id="ytick_3">
     <g id="line2d_23">
      <path d="M 108 244.634107 
L 777.6 244.634107 
" clip-path="url(#pfde041c084)" style="fill: none; stroke-dasharray: 5.12,1.28,0.8,1.28; stroke-dashoffset: 0; stroke: #b0b0b0; stroke-width: 0.8"/>
     </g>
     <g id="line2d_24">
      <g>
       <use xlink:href="#m24e7f4b845" x="108" y="244.634107" style="fill: #a9a9a9; stroke: #a9a9a9; stroke-width: 0.8"/>
      </g>
     </g>
     <g id="text_12">
      <!-- 2000 -->
      <g style="fill: #a9a9a9" transform="translate(75.55 248.433325) scale(0.1 -0.1)">
       <use xlink:href="#DejaVuSans-32"/>
       <use xlink:href="#DejaVuSans-30" transform="translate(63.623047 0)"/>
       <use xlink:href="#DejaVuSans-30" transform="translate(127.246094 0)"/>
       <use xlink:href="#DejaVuSans-30" transform="translate(190.869141 0)"/>
      </g>
     </g>
    </g>
    <g id="ytick_4">
     <g id="line2d_25">
      <path d="M 108 213.035361 
L 777.6 213.035361 
" clip-path="url(#pfde041c084)" style="fill: none; stroke-dasharray: 5.12,1.28,0.8,1.28; stroke-dashoffset: 0; stroke: #b0b0b0; stroke-width: 0.8"/>
     </g>
     <g id="line2d_26">
      <g>
       <use xlink:href="#m24e7f4b845" x="108" y="213.035361" style="fill: #a9a9a9; stroke: #a9a9a9; stroke-width: 0.8"/>
      </g>
     </g>
     <g id="text_13">
      <!-- 3000 -->
      <g style="fill: #a9a9a9" transform="translate(75.55 216.834579) scale(0.1 -0.1)">
       <use xlink:href="#DejaVuSans-33"/>
       <use xlink:href="#DejaVuSans-30" transform="translate(63.623047 0)"/>
       <use xlink:href="#DejaVuSans-30" transform="translate(127.246094 0)"/>
       <use xlink:href="#DejaVuSans-30" transform="translate(190.869141 0)"/>
      </g>
     </g>
    </g>
    <g id="ytick_5">
     <g id="line2d_27">
      <path d="M 108 181.436614 
L 777.6 181.436614 
" clip-path="url(#pfde041c084)" style="fill: none; stroke-dasharray: 5.12,1.28,0.8,1.28; stroke-dashoffset: 0; stroke: #b0b0b0; stroke-width: 0.8"/>
     </g>
     <g id="line2d_28">
      <g>
       <use xlink:href="#m24e7f4b845" x="108" y="181.436614" style="fill: #a9a9a9; stroke: #a9a9a9; stroke-width: 0.8"/>
      </g>
     </g>
     <g id="text_14">
      <!-- 4000 -->
      <g style="fill: #a9a9a9" transform="translate(75.55 185.235833) scale(0.1 -0.1)">
       <use xlink:href="#DejaVuSans-34"/>
       <use xlink:href="#DejaVuSans-30" transform="translate(63.623047 0)"/>
       <use xlink:href="#DejaVuSans-30" transform="translate(127.246094 0)"/>
       <use xlink:href="#DejaVuSans-30" transform="translate(190.869141 0)"/>
      </g>
     </g>
    </g>
    <g id="ytick_6">
     <g id="line2d_29">
      <path d="M 108 149.837868 
L 777.6 149.837868 
" clip-path="url(#pfde041c084)" style="fill: none; stroke-dasharray: 5.12,1.28,0.8,1.28; stroke-dashoffset: 0; stroke: #b0b0b0; stroke-width: 0.8"/>
     </g>
     <g id="line2d_30">
      <g>
       <use xlink:href="#m24e7f4b845" x="108" y="149.837868" style="fill: #a9a9a9; stroke: #a9a9a9; stroke-width: 0.8"/>
      </g>
     </g>
     <g id="text_15">
      <!-- 5000 -->
      <g style="fill: #a9a9a9" transform="translate(75.55 153.637087) scale(0.1 -0.1)">
       <use xlink:href="#DejaVuSans-35"/>
       <use xlink:href="#DejaVuSans-30" transform="translate(63.623047 0)"/>
       <use xlink:href="#DejaVuSans-30" transform="translate(127.246094 0)"/>
       <use xlink:href="#DejaVuSans-30" transform="translate(190.869141 0)"/>
      </g>
     </g>
    </g>
    <g id="ytick_7">
     <g id="line2d_31">
      <path d="M 108 118.239122 
L 777.6 118.239122 
" clip-path="url(#pfde041c084)" style="fill: none; stroke-dasharray: 5.12,1.28,0.8,1.28; stroke-dashoffset: 0; stroke: #b0b0b0; stroke-width: 0.8"/>
     </g>
     <g id="line2d_32">
      <g>
       <use xlink:href="#m24e7f4b845" x="108" y="118.239122" style="fill: #a9a9a9; stroke: #a9a9a9; stroke-width: 0.8"/>
      </g>
     </g>
     <g id="text_16">
      <!-- 6000 -->
      <g style="fill: #a9a9a9" transform="translate(75.55 122.038341) scale(0.1 -0.1)">
       <defs>
        <path id="DejaVuSans-36" d="M 2113 2584 
Q 1688 2584 1439 2293 
Q 1191 2003 1191 1497 
Q 1191 994 1439 701 
Q 1688 409 2113 409 
Q 2538 409 2786 701 
Q 3034 994 3034 1497 
Q 3034 2003 2786 2293 
Q 2538 2584 2113 2584 
z
M 3366 4563 
L 3366 3988 
Q 3128 4100 2886 4159 
Q 2644 4219 2406 4219 
Q 1781 4219 1451 3797 
Q 1122 3375 1075 2522 
Q 1259 2794 1537 2939 
Q 1816 3084 2150 3084 
Q 2853 3084 3261 2657 
Q 3669 2231 3669 1497 
Q 3669 778 3244 343 
Q 2819 -91 2113 -91 
Q 1303 -91 875 529 
Q 447 1150 447 2328 
Q 447 3434 972 4092 
Q 1497 4750 2381 4750 
Q 2619 4750 2861 4703 
Q 3103 4656 3366 4563 
z
" transform="scale(0.015625)"/>
       </defs>
       <use xlink:href="#DejaVuSans-36"/>
       <use xlink:href="#DejaVuSans-30" transform="translate(63.623047 0)"/>
       <use xlink:href="#DejaVuSans-30" transform="translate(127.246094 0)"/>
       <use xlink:href="#DejaVuSans-30" transform="translate(190.869141 0)"/>
      </g>
     </g>
    </g>
    <g id="ytick_8">
     <g id="line2d_33">
      <path d="M 108 86.640376 
L 777.6 86.640376 
" clip-path="url(#pfde041c084)" style="fill: none; stroke-dasharray: 5.12,1.28,0.8,1.28; stroke-dashoffset: 0; stroke: #b0b0b0; stroke-width: 0.8"/>
     </g>
     <g id="line2d_34">
      <g>
       <use xlink:href="#m24e7f4b845" x="108" y="86.640376" style="fill: #a9a9a9; stroke: #a9a9a9; stroke-width: 0.8"/>
      </g>
     </g>
     <g id="text_17">
      <!-- 7000 -->
      <g style="fill: #a9a9a9" transform="translate(75.55 90.439595) scale(0.1 -0.1)">
       <use xlink:href="#DejaVuSans-37"/>
       <use xlink:href="#DejaVuSans-30" transform="translate(63.623047 0)"/>
       <use xlink:href="#DejaVuSans-30" transform="translate(127.246094 0)"/>
       <use xlink:href="#DejaVuSans-30" transform="translate(190.869141 0)"/>
      </g>
     </g>
    </g>
    <g id="ytick_9">
     <g id="line2d_35">
      <path d="M 108 55.04163 
L 777.6 55.04163 
" clip-path="url(#pfde041c084)" style="fill: none; stroke-dasharray: 5.12,1.28,0.8,1.28; stroke-dashoffset: 0; stroke: #b0b0b0; stroke-width: 0.8"/>
     </g>
     <g id="line2d_36">
      <g>
       <use xlink:href="#m24e7f4b845" x="108" y="55.04163" style="fill: #a9a9a9; stroke: #a9a9a9; stroke-width: 0.8"/>
      </g>
     </g>
     <g id="text_18">
      <!-- 8000 -->
      <g style="fill: #a9a9a9" transform="translate(75.55 58.840849) scale(0.1 -0.1)">
       <defs>
        <path id="DejaVuSans-38" d="M 2034 2216 
Q 1584 2216 1326 1975 
Q 1069 1734 1069 1313 
Q 1069 891 1326 650 
Q 1584 409 2034 409 
Q 2484 409 2743 651 
Q 3003 894 3003 1313 
Q 3003 1734 2745 1975 
Q 2488 2216 2034 2216 
z
M 1403 2484 
Q 997 2584 770 2862 
Q 544 3141 544 3541 
Q 544 4100 942 4425 
Q 1341 4750 2034 4750 
Q 2731 4750 3128 4425 
Q 3525 4100 3525 3541 
Q 3525 3141 3298 2862 
Q 3072 2584 2669 2484 
Q 3125 2378 3379 2068 
Q 3634 1759 3634 1313 
Q 3634 634 3220 271 
Q 2806 -91 2034 -91 
Q 1263 -91 848 271 
Q 434 634 434 1313 
Q 434 1759 690 2068 
Q 947 2378 1403 2484 
z
M 1172 3481 
Q 1172 3119 1398 2916 
Q 1625 2713 2034 2713 
Q 2441 2713 2670 2916 
Q 2900 3119 2900 3481 
Q 2900 3844 2670 4047 
Q 2441 4250 2034 4250 
Q 1625 4250 1398 4047 
Q 1172 3844 1172 3481 
z
" transform="scale(0.015625)"/>
       </defs>
       <use xlink:href="#DejaVuSans-38"/>
       <use xlink:href="#DejaVuSans-30" transform="translate(63.623047 0)"/>
       <use xlink:href="#DejaVuSans-30" transform="translate(127.246094 0)"/>
       <use xlink:href="#DejaVuSans-30" transform="translate(190.869141 0)"/>
      </g>
     </g>
    </g>
   </g>
   <g id="line2d_37">
    <path d="M 138.436364 307.736803 
L 140.914222 307.515611 
L 141.327199 307.326019 
L 142.979104 307.104828 
L 144.63101 306.757241 
L 145.456963 306.630846 
L 147.521845 306.441254 
L 148.347798 306.093668 
L 148.760775 305.52489 
L 149.173751 305.240502 
L 149.586728 304.292539 
L 149.999704 304.229342 
L 150.41268 303.881755 
L 151.238633 303.439373 
L 152.890539 302.049028 
L 154.542445 301.195862 
L 155.781374 300.595486 
L 156.194351 299.900313 
L 157.020303 299.268339 
L 157.43328 299.078746 
L 161.563044 298.446771 
L 161.976021 298.257179 
L 164.866856 298.004389 
L 166.518762 297.593605 
L 169.822573 297.119624 
L 170.23555 296.898433 
L 170.648526 296.835235 
L 171.474479 296.550846 
L 174.365314 296.045266 
L 175.191267 295.792476 
L 178.908055 295.160502 
L 179.734008 294.970909 
L 180.559961 294.93931 
L 182.211866 294.528527 
L 182.624843 293.92815 
L 183.863772 293.422571 
L 185.102701 293.074984 
L 185.515678 292.853793 
L 186.341631 292.695799 
L 187.993536 292.190219 
L 188.819489 292.127022 
L 189.645442 291.905831 
L 191.297348 291.463448 
L 191.710324 291.43185 
L 192.536277 291.021066 
L 192.949254 290.957868 
L 193.36223 290.736677 
L 197.904971 289.946708 
L 199.556877 289.441129 
L 199.969853 289.15674 
L 202.034735 288.461567 
L 202.860688 287.861191 
L 204.099618 287.608401 
L 209.468311 286.028464 
L 209.881288 285.965266 
L 211.533194 285.301693 
L 211.94617 285.238495 
L 212.772123 284.890909 
L 213.598076 284.85931 
L 214.837005 284.480125 
L 215.249981 284.480125 
L 215.662958 284.290533 
L 216.488911 284.195737 
L 216.901887 284.037743 
L 218.553793 283.974545 
L 219.379746 283.816552 
L 220.205699 283.374169 
L 221.444628 282.900188 
L 222.270581 282.457806 
L 223.096534 282.015423 
L 223.922487 281.731034 
L 224.335463 281.604639 
L 225.161416 281.067461 
L 225.574393 280.59348 
L 226.400345 279.266332 
L 226.813322 279.139937 
L 227.226298 279.139937 
L 228.878204 278.191975 
L 229.29118 278.097179 
L 229.704157 277.686395 
L 230.53011 277.338809 
L 231.356063 276.959624 
L 231.769039 276.454044 
L 232.182016 275.758871 
L 232.594992 275.474483 
L 233.007968 274.716113 
L 233.420945 274.242132 
L 235.898804 272.851787 
L 237.550709 271.335047 
L 237.963686 270.355486 
L 238.376662 269.723511 
L 238.789639 269.375925 
L 239.202615 269.186332 
L 242.506427 266.058056 
L 243.332379 265.268088 
L 245.810238 263.656552 
L 246.223215 263.498558 
L 247.87512 262.487398 
L 248.288097 262.297806 
L 250.352979 260.338683 
L 251.178932 259.991097 
L 252.004885 259.390721 
L 252.417861 259.137931 
L 252.830838 259.074734 
L 254.069767 258.347962 
L 254.482743 257.873981 
L 256.547626 256.704828 
L 256.960602 256.546834 
L 258.199531 255.662069 
L 264.394178 253.386959 
L 265.220131 252.596991 
L 266.45906 251.965016 
L 267.285013 251.427837 
L 268.110966 251.175047 
L 268.523942 250.890658 
L 268.936919 250.764263 
L 270.175848 249.911097 
L 272.24073 249.437116 
L 273.47966 248.678746 
L 274.718589 248.394357 
L 275.131565 248.299561 
L 276.370495 247.351599 
L 278.0224 246.877618 
L 278.435377 246.530031 
L 280.913235 245.645266 
L 281.739188 245.487273 
L 282.565141 245.139687 
L 285.455976 244.03373 
L 286.281929 243.938934 
L 287.520859 243.496552 
L 289.585741 242.453793 
L 292.063599 241.03185 
L 292.889552 240.810658 
L 294.128482 240.178683 
L 294.954434 240.02069 
L 295.780387 239.51511 
L 296.60634 239.293918 
L 297.84527 238.788339 
L 299.497175 238.567147 
L 300.323128 238.124765 
L 300.736105 237.74558 
L 301.149081 236.98721 
L 302.800987 236.513229 
L 304.039916 235.849655 
L 304.865869 235.565266 
L 306.104798 234.933292 
L 308.169681 234.080125 
L 308.995633 233.890533 
L 310.234563 233.258558 
L 310.647539 233.195361 
L 312.712421 232.152602 
L 313.538374 231.615423 
L 314.777304 231.362633 
L 316.842186 230.825455 
L 317.255162 230.477868 
L 318.081115 230.19348 
L 320.145997 229.340313 
L 320.558974 229.024326 
L 320.97195 228.866332 
L 321.797903 228.392351 
L 323.449809 227.855172 
L 324.275762 227.317994 
L 324.688738 226.875611 
L 325.101715 226.622821 
L 325.514691 226.528025 
L 326.340644 225.832853 
L 326.75362 225.769655 
L 327.166597 225.074483 
L 327.579573 224.88489 
L 327.99255 224.537304 
L 328.405526 224.474107 
L 329.231479 223.936928 
L 330.057432 223.652539 
L 330.470408 223.336552 
L 330.883385 223.178558 
L 332.53529 222.041003 
L 333.77422 221.409028 
L 334.600173 221.187837 
L 335.426126 220.713856 
L 335.839102 219.987085 
L 336.665055 219.35511 
L 337.078031 219.260313 
L 339.55589 218.027962 
L 340.381843 217.680376 
L 341.207796 217.08 
L 342.446725 215.910846 
L 343.272678 215.405266 
L 343.685654 214.931285 
L 345.33756 213.762132 
L 346.163513 212.908966 
L 346.989466 212.624577 
L 347.815419 212.055799 
L 349.054348 211.392226 
L 349.467325 211.329028 
L 350.706254 210.633856 
L 351.532207 210.096677 
L 355.661971 208.51674 
L 356.074948 208.169154 
L 357.726853 207.50558 
L 358.13983 207.379185 
L 358.965783 206.842006 
L 359.791736 206.49442 
L 360.617688 205.894044 
L 361.443641 204.187712 
L 362.269594 203.176552 
L 363.508523 202.512978 
L 364.334476 202.165392 
L 364.747453 202.102194 
L 365.573406 201.723009 
L 367.225311 201.154232 
L 368.051264 200.680251 
L 368.877217 200.269467 
L 369.290194 200.143072 
L 371.768052 198.626332 
L 372.181029 198.152351 
L 373.419958 197.42558 
L 373.832935 197.267586 
L 374.658887 196.762006 
L 376.310793 195.845643 
L 376.72377 195.750846 
L 377.136746 195.40326 
L 380.027581 194.423699 
L 380.440558 194.107712 
L 381.26651 193.854922 
L 382.092463 193.507335 
L 382.50544 193.159749 
L 384.157346 192.559373 
L 384.983298 191.958997 
L 385.809251 191.611411 
L 386.635204 190.947837 
L 387.461157 190.695047 
L 387.874133 190.315862 
L 388.28711 190.252665 
L 389.113063 189.589091 
L 391.177945 188.35674 
L 392.003898 188.10395 
L 392.416874 187.85116 
L 392.829851 187.787962 
L 394.06878 187.09279 
L 400.263427 185.133668 
L 401.502356 184.217304 
L 401.915332 184.05931 
L 402.741285 183.585329 
L 403.154262 183.458934 
L 405.63212 182.036991 
L 406.045097 181.942194 
L 407.284026 181.183824 
L 408.522955 180.741442 
L 409.348908 180.457053 
L 411.000814 179.888276 
L 411.826767 179.603887 
L 413.478673 179.256301 
L 413.891649 179.066708 
L 414.717602 178.845517 
L 415.130579 178.655925 
L 415.543555 178.592727 
L 415.956531 178.371536 
L 416.782484 178.213542 
L 418.021414 177.739561 
L 419.260343 177.549969 
L 421.738202 177.075987 
L 422.977131 176.791599 
L 423.390107 176.602006 
L 424.21606 176.444013 
L 425.042013 176.222821 
L 425.867966 175.843636 
L 426.280942 175.685643 
L 426.693919 175.685643 
L 431.23666 174.263699 
L 431.649636 174.042508 
L 432.062613 174.042508 
L 432.888565 173.72652 
L 433.301542 173.284138 
L 435.779401 172.241379 
L 437.431306 171.672602 
L 437.844283 171.419812 
L 439.083212 171.040627 
L 439.909165 170.819436 
L 440.322141 170.535047 
L 440.735118 170.440251 
L 441.148094 170.061066 
L 442.387024 169.808276 
L 443.212976 169.429091 
L 443.625953 168.923511 
L 448.168694 167.912351 
L 448.58167 167.912351 
L 448.994647 167.722759 
L 450.646552 167.406771 
L 451.059529 167.217179 
L 452.711435 166.901191 
L 453.537387 166.553605 
L 454.36334 166.395611 
L 456.428223 165.858433 
L 458.080128 165.321254 
L 458.493105 165.226458 
L 458.906081 165.005266 
L 459.732034 164.784075 
L 460.557987 164.436489 
L 461.38394 164.120502 
L 461.796916 163.836113 
L 462.622869 163.583323 
L 465.513704 162.477367 
L 467.16561 162.287774 
L 470.469421 161.055423 
L 470.882398 160.739436 
L 471.295374 160.644639 
L 471.708351 160.423448 
L 472.121327 160.39185 
L 476.664068 158.717116 
L 478.72895 158.148339 
L 479.554903 157.737555 
L 480.793832 157.453166 
L 482.445738 156.062821 
L 484.097644 155.33605 
L 484.923597 154.956865 
L 487.401456 153.977304 
L 487.814432 153.692915 
L 489.879314 152.997743 
L 494.009079 150.880627 
L 494.835031 150.501442 
L 495.248008 150.185455 
L 496.073961 149.901066 
L 498.138843 148.826708 
L 499.377772 148.384326 
L 500.616702 147.910345 
L 502.681584 147.120376 
L 503.507537 146.993981 
L 503.920513 146.709592 
L 505.572419 146.393605 
L 506.398372 146.046019 
L 508.050278 145.25605 
L 513.831948 142.664953 
L 515.070877 142.254169 
L 515.483853 141.969781 
L 516.309806 141.874984 
L 516.722783 141.590596 
L 517.548736 141.464201 
L 518.374689 141.053417 
L 518.787665 140.863824 
L 519.613618 140.642633 
L 520.439571 140.389843 
L 521.6785 139.915862 
L 522.917429 139.505078 
L 524.156359 139.22069 
L 525.808264 138.525517 
L 526.634217 138.083135 
L 528.286123 137.229969 
L 529.112076 137.040376 
L 529.525052 136.787586 
L 529.938029 136.69279 
L 531.176958 135.966019 
L 532.002911 135.618433 
L 537.371605 133.596113 
L 537.784581 133.532915 
L 539.436487 132.742947 
L 540.26244 132.584953 
L 541.088393 132.110972 
L 542.740299 131.321003 
L 546.870063 129.677868 
L 547.696016 129.267085 
L 548.108992 129.172288 
L 548.521969 128.951097 
L 550.173874 128.477116 
L 551.82578 127.086771 
L 552.238757 126.960376 
L 552.651733 126.707586 
L 553.890662 126.36 
L 554.303639 126.044013 
L 554.716615 125.949216 
L 555.955545 125.190846 
L 556.368521 124.906458 
L 557.60745 124.432476 
L 558.020427 124.211285 
L 559.259356 123.926897 
L 561.324238 123.200125 
L 562.150191 122.947335 
L 563.389121 122.283762 
L 564.215073 121.872978 
L 565.041026 121.651787 
L 566.279956 121.051411 
L 570.40972 119.376677 
L 572.474602 118.365517 
L 573.300555 118.04953 
L 573.713532 117.670345 
L 574.539484 117.322759 
L 575.778414 116.880376 
L 576.19139 116.53279 
L 576.604367 116.501191 
L 577.430319 116.248401 
L 578.256272 115.964013 
L 578.669249 115.77442 
L 579.082225 115.711223 
L 579.908178 115.363636 
L 581.147107 115.079248 
L 581.97306 114.605266 
L 582.386037 114.447273 
L 582.799013 114.131285 
L 584.037943 113.815298 
L 584.450919 113.562508 
L 585.276872 113.341317 
L 586.515801 112.646144 
L 586.928778 112.614545 
L 588.167707 112.203762 
L 588.99366 112.140564 
L 589.406636 111.919373 
L 590.232589 111.698182 
L 590.645566 111.476991 
L 592.710448 111.066207 
L 593.536401 110.908213 
L 594.77533 110.434232 
L 596.014259 110.149843 
L 597.253189 109.48627 
L 597.666165 109.107085 
L 598.905094 108.348715 
L 599.318071 108.032727 
L 600.557 107.621944 
L 601.382953 107.400752 
L 603.860812 106.263197 
L 604.273788 106.2 
L 605.099741 105.789216 
L 606.751647 105.346834 
L 607.5776 104.967649 
L 607.990576 104.746458 
L 608.816529 104.493668 
L 609.229505 104.272476 
L 610.055458 104.114483 
L 613.35927 102.66094 
L 613.772246 102.597743 
L 615.011176 101.776176 
L 615.424152 101.712978 
L 617.076058 101.049404 
L 618.727963 100.638621 
L 619.14094 100.575423 
L 619.553916 100.385831 
L 619.966893 100.354232 
L 620.792846 100.069843 
L 621.205822 100.038245 
L 622.444751 99.564263 
L 624.096657 99.090282 
L 624.92261 98.458307 
L 626.574516 97.541944 
L 626.987492 97.447147 
L 627.400469 97.225956 
L 628.226422 96.941567 
L 628.639398 96.815172 
L 629.052374 96.467586 
L 630.291304 95.993605 
L 631.117257 95.519624 
L 631.530233 95.298433 
L 631.94321 94.919248 
L 634.008092 94.413668 
L 635.247021 93.84489 
L 636.072974 93.623699 
L 636.48595 93.402508 
L 636.898927 93.054922 
L 638.550833 92.612539 
L 638.963809 92.296552 
L 644.332503 90.337429 
L 645.158456 90.179436 
L 647.223338 89.515862 
L 648.049291 89.168276 
L 648.875244 88.852288 
L 649.701196 88.631097 
L 650.114173 88.441505 
L 650.527149 88.441505 
L 651.353102 88.093918 
L 652.179055 87.619937 
L 655.06989 86.640376 
L 656.721796 86.071599 
L 657.960725 85.78721 
L 659.199655 85.376426 
L 659.612631 85.28163 
L 660.025607 84.997241 
L 660.85156 84.807649 
L 662.503466 84.333668 
L 662.916443 84.302069 
L 663.742395 83.922884 
L 666.633231 83.196113 
L 668.285136 82.595737 
L 668.698113 82.595737 
L 669.937042 82.311348 
L 670.762995 82.153354 
L 671.588948 81.932163 
L 672.827877 81.268589 
L 674.066806 80.889404 
L 676.957642 79.909843 
L 677.370618 79.688652 
L 677.783594 79.593856 
L 679.022524 78.961881 
L 679.848477 78.803887 
L 680.67443 78.551097 
L 681.500382 78.140313 
L 681.913359 77.792727 
L 682.739312 77.539937 
L 683.152288 77.287147 
L 683.978241 77.192351 
L 686.869076 76.370784 
L 688.108005 76.117994 
L 689.346935 75.802006 
L 690.172888 75.612414 
L 691.411817 74.980439 
L 693.063723 74.348464 
L 693.889676 73.906082 
L 694.302652 73.874483 
L 695.128605 73.463699 
L 698.01944 72.642132 
L 699.258369 72.452539 
L 700.084322 72.199749 
L 701.323252 71.820564 
L 705.040039 70.777806 
L 705.865992 70.556614 
L 706.278969 70.461818 
L 706.691945 70.209028 
L 707.517898 70.051034 
L 708.343851 69.956238 
L 708.756827 69.735047 
L 709.169804 69.703448 
L 709.995757 69.16627 
L 711.647663 68.818683 
L 712.473615 68.471097 
L 713.299568 68.186708 
L 714.125521 67.965517 
L 714.951474 67.617931 
L 715.777427 67.333542 
L 717.429333 66.859561 
L 718.255286 66.796364 
L 719.081238 66.511975 
L 719.494215 66.353981 
L 720.320168 66.227586 
L 721.972074 65.500815 
L 722.38505 65.437618 
L 722.798026 65.216426 
L 723.623979 65.058433 
L 724.449932 64.995235 
L 726.927791 64.36326 
L 727.753744 64.015674 
L 728.16672 63.952476 
L 728.579697 63.731285 
L 729.405649 63.036113 
L 733.535414 61.519373 
L 734.361367 61.266583 
L 735.18732 61.045392 
L 736.013272 60.824201 
L 736.426249 60.508213 
L 737.665178 59.971034 
L 738.491131 59.528652 
L 738.904108 59.433856 
L 739.317084 59.117868 
L 740.556013 58.770282 
L 740.96899 58.549091 
L 741.794943 58.264702 
L 742.620896 57.917116 
L 744.272801 56.842759 
L 744.685778 56.747962 
L 745.924707 56.115987 
L 746.75066 55.8 
L 747.163636 55.8 
L 747.163636 55.8 
" clip-path="url(#pfde041c084)" style="fill: none; stroke: #1f77b4; stroke-width: 1.5; stroke-linecap: square"/>
   </g>
   <g id="line2d_38">
    <path d="M 138.84934 307.8 
L 142.566128 307.705204 
L 145.86994 307.54721 
L 147.521845 307.54721 
L 147.934822 307.420815 
L 149.999704 307.326019 
L 152.477563 307.04163 
L 154.955421 306.946834 
L 155.781374 306.852038 
L 158.672209 306.725643 
L 161.563044 306.630846 
L 163.627926 306.567649 
L 168.99662 306.472853 
L 171.061502 306.409655 
L 174.77829 306.314859 
L 176.430196 306.28326 
L 180.559961 306.188464 
L 182.211866 306.03047 
L 183.863772 305.998871 
L 186.341631 305.904075 
L 187.993536 305.872476 
L 190.058419 305.809279 
L 191.710324 305.651285 
L 195.427112 305.556489 
L 196.253065 305.493292 
L 197.904971 305.398495 
L 200.38283 305.303699 
L 202.034735 305.208903 
L 209.468311 304.734922 
L 212.359146 304.640125 
L 213.598076 304.51373 
L 215.662958 304.418934 
L 219.792722 304.197743 
L 223.922487 304.134545 
L 225.574393 303.944953 
L 227.639275 303.850157 
L 231.769039 303.439373 
L 234.246898 303.123386 
L 235.898804 303.060188 
L 239.202615 302.617806 
L 241.680474 302.554608 
L 242.919403 302.428213 
L 244.158332 302.333417 
L 255.721673 301.417053 
L 256.547626 301.25906 
L 259.025484 301.164263 
L 265.633107 300.75348 
L 268.523942 300.658683 
L 270.175848 300.469091 
L 272.24073 300.374295 
L 274.718589 300.279498 
L 276.783471 300.184702 
L 278.435377 300.153103 
L 280.500259 300.089906 
L 281.326212 299.963511 
L 287.107882 299.868715 
L 287.933835 299.773918 
L 292.889552 299.679122 
L 296.60634 299.48953 
L 299.497175 299.394734 
L 301.149081 299.205141 
L 304.039916 299.110345 
L 304.865869 298.98395 
L 306.930751 298.920752 
L 311.060516 298.857555 
L 312.712421 298.699561 
L 314.364327 298.667962 
L 315.603256 298.573166 
L 317.255162 298.415172 
L 321.384927 298.193981 
L 325.514691 298.099185 
L 329.231479 297.909592 
L 330.470408 297.877994 
L 331.296361 297.751599 
L 333.361243 297.656803 
L 334.187196 297.593605 
L 335.013149 297.530408 
L 335.839102 297.46721 
L 339.968866 297.372414 
L 349.054348 296.772038 
L 349.880301 296.70884 
L 351.11923 296.614044 
L 354.010065 296.519248 
L 356.074948 296.45605 
L 361.856618 296.361254 
L 362.682571 296.234859 
L 368.464241 296.140063 
L 372.594005 295.918871 
L 373.419958 295.887273 
L 374.245911 295.792476 
L 376.310793 295.69768 
L 378.375675 295.634483 
L 380.440558 295.539687 
L 382.50544 295.476489 
L 386.222228 295.381693 
L 388.700086 295.286897 
L 394.481757 295.1921 
L 399.024497 294.93931 
L 400.676403 294.876113 
L 401.915332 294.781317 
L 407.697003 294.68652 
L 410.174861 294.591724 
L 417.608437 294.496928 
L 419.260343 294.465329 
L 424.21606 294.402132 
L 425.042013 294.338934 
L 430.823683 294.244138 
L 432.475589 294.212539 
L 443.212976 294.117743 
L 445.690835 294.022947 
L 463.035846 293.92815 
L 465.100728 293.864953 
L 475.838115 293.801755 
L 476.664068 293.738558 
L 478.72895 293.675361 
L 479.96788 293.548966 
L 482.445738 293.454169 
L 485.336573 293.327774 
L 489.053361 293.232978 
L 491.118243 293.169781 
L 494.009079 293.074984 
L 497.31289 292.916991 
L 499.377772 292.822194 
L 501.029678 292.790596 
L 508.050278 292.695799 
L 510.528136 292.601003 
L 515.070877 292.506207 
L 517.961712 292.379812 
L 520.852547 292.316614 
L 521.6785 292.253417 
L 531.589935 292.158621 
L 535.719699 291.937429 
L 538.610534 291.842633 
L 543.153275 291.589843 
L 546.04411 291.495047 
L 547.696016 291.463448 
L 550.586851 291.368652 
L 552.651733 291.147461 
L 556.781497 291.052665 
L 557.60745 290.957868 
L 561.737215 290.863072 
L 563.802097 290.799875 
L 568.344838 290.768276 
L 569.170791 290.67348 
L 573.713532 290.578683 
L 574.539484 290.515486 
L 583.624966 290.42069 
L 586.102825 290.325893 
L 592.297471 290.231097 
L 593.949377 290.199498 
L 597.666165 290.136301 
L 598.492118 290.041505 
L 603.860812 289.946708 
L 605.925694 289.883511 
L 613.35927 289.788715 
L 614.598199 289.693918 
L 615.837128 289.599122 
L 617.076058 289.504326 
L 623.270704 289.40953 
L 625.748563 289.314734 
L 636.898927 289.219937 
L 640.615715 289.030345 
L 645.571432 288.967147 
L 646.397385 288.90395 
L 652.592032 288.840752 
L 653.417984 288.777555 
L 657.960725 288.682759 
L 659.612631 288.65116 
L 666.633231 288.556364 
L 667.459183 288.493166 
L 674.892759 288.39837 
L 676.544665 288.366771 
L 680.261453 288.271975 
L 683.565265 288.113981 
L 688.108005 288.019185 
L 690.998841 287.89279 
L 694.715628 287.797994 
L 695.541581 287.734796 
L 703.80111 287.64 
L 705.865992 287.576803 
L 708.343851 287.482006 
L 710.82171 287.38721 
L 723.211003 287.292414 
L 726.101838 287.166019 
L 731.057555 287.071223 
L 732.709461 287.039624 
L 739.317084 286.944828 
L 740.556013 286.850031 
L 743.859825 286.755235 
L 747.163636 286.597241 
L 747.163636 286.597241 
" clip-path="url(#pfde041c084)" style="fill: none; stroke: #ff7f0e; stroke-width: 1.5; stroke-linecap: square"/>
   </g>
   <g id="patch_3">
    <path d="M 108 320.4 
L 108 43.2 
" style="fill: none; stroke: #a9a9a9; stroke-width: 0.8; stroke-linejoin: miter; stroke-linecap: square"/>
   </g>
   <g id="patch_4">
    <path d="M 777.6 320.4 
L 777.6 43.2 
" style="fill: none"/>
   </g>
   <g id="patch_5">
    <path d="M 108 320.4 
L 777.6 320.4 
" style="fill: none; stroke: #a9a9a9; stroke-width: 0.8; stroke-linejoin: miter; stroke-linecap: square"/>
   </g>
   <g id="patch_6">
    <path d="M 108 43.2 
L 777.6 43.2 
" style="fill: none"/>
   </g>
   <g id="text_19">
    <!-- get_subscribe history -->
    <g style="fill: #a9a9a9" transform="translate(378.6075 37.2) scale(0.12 -0.12)">
     <defs>
      <path id="DejaVuSans-67" d="M 2906 1791 
Q 2906 2416 2648 2759 
Q 2391 3103 1925 3103 
Q 1463 3103 1205 2759 
Q 947 2416 947 1791 
Q 947 1169 1205 825 
Q 1463 481 1925 481 
Q 2391 481 2648 825 
Q 2906 1169 2906 1791 
z
M 3481 434 
Q 3481 -459 3084 -895 
Q 2688 -1331 1869 -1331 
Q 1566 -1331 1297 -1286 
Q 1028 -1241 775 -1147 
L 775 -588 
Q 1028 -725 1275 -790 
Q 1522 -856 1778 -856 
Q 2344 -856 2625 -561 
Q 2906 -266 2906 331 
L 2906 616 
Q 2728 306 2450 153 
Q 2172 0 1784 0 
Q 1141 0 747 490 
Q 353 981 353 1791 
Q 353 2603 747 3093 
Q 1141 3584 1784 3584 
Q 2172 3584 2450 3431 
Q 2728 3278 2906 2969 
L 2906 3500 
L 3481 3500 
L 3481 434 
z
" transform="scale(0.015625)"/>
      <path id="DejaVuSans-65" d="M 3597 1894 
L 3597 1613 
L 953 1613 
Q 991 1019 1311 708 
Q 1631 397 2203 397 
Q 2534 397 2845 478 
Q 3156 559 3463 722 
L 3463 178 
Q 3153 47 2828 -22 
Q 2503 -91 2169 -91 
Q 1331 -91 842 396 
Q 353 884 353 1716 
Q 353 2575 817 3079 
Q 1281 3584 2069 3584 
Q 2775 3584 3186 3129 
Q 3597 2675 3597 1894 
z
M 3022 2063 
Q 3016 2534 2758 2815 
Q 2500 3097 2075 3097 
Q 1594 3097 1305 2825 
Q 1016 2553 972 2059 
L 3022 2063 
z
" transform="scale(0.015625)"/>
      <path id="DejaVuSans-74" d="M 1172 4494 
L 1172 3500 
L 2356 3500 
L 2356 3053 
L 1172 3053 
L 1172 1153 
Q 1172 725 1289 603 
Q 1406 481 1766 481 
L 2356 481 
L 2356 0 
L 1766 0 
Q 1100 0 847 248 
Q 594 497 594 1153 
L 594 3053 
L 172 3053 
L 172 3500 
L 594 3500 
L 594 4494 
L 1172 4494 
z
" transform="scale(0.015625)"/>
      <path id="DejaVuSans-5f" d="M 3263 -1063 
L 3263 -1509 
L -63 -1509 
L -63 -1063 
L 3263 -1063 
z
" transform="scale(0.015625)"/>
      <path id="DejaVuSans-73" d="M 2834 3397 
L 2834 2853 
Q 2591 2978 2328 3040 
Q 2066 3103 1784 3103 
Q 1356 3103 1142 2972 
Q 928 2841 928 2578 
Q 928 2378 1081 2264 
Q 1234 2150 1697 2047 
L 1894 2003 
Q 2506 1872 2764 1633 
Q 3022 1394 3022 966 
Q 3022 478 2636 193 
Q 2250 -91 1575 -91 
Q 1294 -91 989 -36 
Q 684 19 347 128 
L 347 722 
Q 666 556 975 473 
Q 1284 391 1588 391 
Q 1994 391 2212 530 
Q 2431 669 2431 922 
Q 2431 1156 2273 1281 
Q 2116 1406 1581 1522 
L 1381 1569 
Q 847 1681 609 1914 
Q 372 2147 372 2553 
Q 372 3047 722 3315 
Q 1072 3584 1716 3584 
Q 2034 3584 2315 3537 
Q 2597 3491 2834 3397 
z
" transform="scale(0.015625)"/>
      <path id="DejaVuSans-75" d="M 544 1381 
L 544 3500 
L 1119 3500 
L 1119 1403 
Q 1119 906 1312 657 
Q 1506 409 1894 409 
Q 2359 409 2629 706 
Q 2900 1003 2900 1516 
L 2900 3500 
L 3475 3500 
L 3475 0 
L 2900 0 
L 2900 538 
Q 2691 219 2414 64 
Q 2138 -91 1772 -91 
Q 1169 -91 856 284 
Q 544 659 544 1381 
z
M 1991 3584 
L 1991 3584 
z
" transform="scale(0.015625)"/>
      <path id="DejaVuSans-62" d="M 3116 1747 
Q 3116 2381 2855 2742 
Q 2594 3103 2138 3103 
Q 1681 3103 1420 2742 
Q 1159 2381 1159 1747 
Q 1159 1113 1420 752 
Q 1681 391 2138 391 
Q 2594 391 2855 752 
Q 3116 1113 3116 1747 
z
M 1159 2969 
Q 1341 3281 1617 3432 
Q 1894 3584 2278 3584 
Q 2916 3584 3314 3078 
Q 3713 2572 3713 1747 
Q 3713 922 3314 415 
Q 2916 -91 2278 -91 
Q 1894 -91 1617 61 
Q 1341 213 1159 525 
L 1159 0 
L 581 0 
L 581 4863 
L 1159 4863 
L 1159 2969 
z
" transform="scale(0.015625)"/>
      <path id="DejaVuSans-63" d="M 3122 3366 
L 3122 2828 
Q 2878 2963 2633 3030 
Q 2388 3097 2138 3097 
Q 1578 3097 1268 2742 
Q 959 2388 959 1747 
Q 959 1106 1268 751 
Q 1578 397 2138 397 
Q 2388 397 2633 464 
Q 2878 531 3122 666 
L 3122 134 
Q 2881 22 2623 -34 
Q 2366 -91 2075 -91 
Q 1284 -91 818 406 
Q 353 903 353 1747 
Q 353 2603 823 3093 
Q 1294 3584 2113 3584 
Q 2378 3584 2631 3529 
Q 2884 3475 3122 3366 
z
" transform="scale(0.015625)"/>
      <path id="DejaVuSans-72" d="M 2631 2963 
Q 2534 3019 2420 3045 
Q 2306 3072 2169 3072 
Q 1681 3072 1420 2755 
Q 1159 2438 1159 1844 
L 1159 0 
L 581 0 
L 581 3500 
L 1159 3500 
L 1159 2956 
Q 1341 3275 1631 3429 
Q 1922 3584 2338 3584 
Q 2397 3584 2469 3576 
Q 2541 3569 2628 3553 
L 2631 2963 
z
" transform="scale(0.015625)"/>
      <path id="DejaVuSans-69" d="M 603 3500 
L 1178 3500 
L 1178 0 
L 603 0 
L 603 3500 
z
M 603 4863 
L 1178 4863 
L 1178 4134 
L 603 4134 
L 603 4863 
z
" transform="scale(0.015625)"/>
      <path id="DejaVuSans-20" transform="scale(0.015625)"/>
      <path id="DejaVuSans-68" d="M 3513 2113 
L 3513 0 
L 2938 0 
L 2938 2094 
Q 2938 2591 2744 2837 
Q 2550 3084 2163 3084 
Q 1697 3084 1428 2787 
Q 1159 2491 1159 1978 
L 1159 0 
L 581 0 
L 581 4863 
L 1159 4863 
L 1159 2956 
Q 1366 3272 1645 3428 
Q 1925 3584 2291 3584 
Q 2894 3584 3203 3211 
Q 3513 2838 3513 2113 
z
" transform="scale(0.015625)"/>
      <path id="DejaVuSans-6f" d="M 1959 3097 
Q 1497 3097 1228 2736 
Q 959 2375 959 1747 
Q 959 1119 1226 758 
Q 1494 397 1959 397 
Q 2419 397 2687 759 
Q 2956 1122 2956 1747 
Q 2956 2369 2687 2733 
Q 2419 3097 1959 3097 
z
M 1959 3584 
Q 2709 3584 3137 3096 
Q 3566 2609 3566 1747 
Q 3566 888 3137 398 
Q 2709 -91 1959 -91 
Q 1206 -91 779 398 
Q 353 888 353 1747 
Q 353 2609 779 3096 
Q 1206 3584 1959 3584 
z
" transform="scale(0.015625)"/>
      <path id="DejaVuSans-79" d="M 2059 -325 
Q 1816 -950 1584 -1140 
Q 1353 -1331 966 -1331 
L 506 -1331 
L 506 -850 
L 844 -850 
Q 1081 -850 1212 -737 
Q 1344 -625 1503 -206 
L 1606 56 
L 191 3500 
L 800 3500 
L 1894 763 
L 2988 3500 
L 3597 3500 
L 2059 -325 
z
" transform="scale(0.015625)"/>
     </defs>
     <use xlink:href="#DejaVuSans-67"/>
     <use xlink:href="#DejaVuSans-65" transform="translate(63.476562 0)"/>
     <use xlink:href="#DejaVuSans-74" transform="translate(125 0)"/>
     <use xlink:href="#DejaVuSans-5f" transform="translate(164.208984 0)"/>
     <use xlink:href="#DejaVuSans-73" transform="translate(214.208984 0)"/>
     <use xlink:href="#DejaVuSans-75" transform="translate(266.308594 0)"/>
     <use xlink:href="#DejaVuSans-62" transform="translate(329.6875 0)"/>
     <use xlink:href="#DejaVuSans-73" transform="translate(393.164062 0)"/>
     <use xlink:href="#DejaVuSans-63" transform="translate(445.263672 0)"/>
     <use xlink:href="#DejaVuSans-72" transform="translate(500.244141 0)"/>
     <use xlink:href="#DejaVuSans-69" transform="translate(541.357422 0)"/>
     <use xlink:href="#DejaVuSans-62" transform="translate(569.140625 0)"/>
     <use xlink:href="#DejaVuSans-65" transform="translate(632.617188 0)"/>
     <use xlink:href="#DejaVuSans-20" transform="translate(694.140625 0)"/>
     <use xlink:href="#DejaVuSans-68" transform="translate(725.927734 0)"/>
     <use xlink:href="#DejaVuSans-69" transform="translate(789.306641 0)"/>
     <use xlink:href="#DejaVuSans-73" transform="translate(817.089844 0)"/>
     <use xlink:href="#DejaVuSans-74" transform="translate(869.189453 0)"/>
     <use xlink:href="#DejaVuSans-6f" transform="translate(908.398438 0)"/>
     <use xlink:href="#DejaVuSans-72" transform="translate(969.580078 0)"/>
     <use xlink:href="#DejaVuSans-79" transform="translate(1010.693359 0)"/>
    </g>
   </g>
   <g id="legend_1">
    <g id="line2d_39">
     <path d="M 815.08 328.498438 
L 825.08 328.498438 
L 835.08 328.498438 
" style="fill: none; stroke: #1f77b4; stroke-width: 1.5; stroke-linecap: square"/>
    </g>
    <g id="text_20">
     <!-- star -->
     <g style="fill: #a9a9a9" transform="translate(843.08 331.998438) scale(0.1 -0.1)">
      <defs>
       <path id="DejaVuSans-61" d="M 2194 1759 
Q 1497 1759 1228 1600 
Q 959 1441 959 1056 
Q 959 750 1161 570 
Q 1363 391 1709 391 
Q 2188 391 2477 730 
Q 2766 1069 2766 1631 
L 2766 1759 
L 2194 1759 
z
M 3341 1997 
L 3341 0 
L 2766 0 
L 2766 531 
Q 2569 213 2275 61 
Q 1981 -91 1556 -91 
Q 1019 -91 701 211 
Q 384 513 384 1019 
Q 384 1609 779 1909 
Q 1175 2209 1959 2209 
L 2766 2209 
L 2766 2266 
Q 2766 2663 2505 2880 
Q 2244 3097 1772 3097 
Q 1472 3097 1187 3025 
Q 903 2953 641 2809 
L 641 3341 
Q 956 3463 1253 3523 
Q 1550 3584 1831 3584 
Q 2591 3584 2966 3190 
Q 3341 2797 3341 1997 
z
" transform="scale(0.015625)"/>
      </defs>
      <use xlink:href="#DejaVuSans-73"/>
      <use xlink:href="#DejaVuSans-74" transform="translate(52.099609 0)"/>
      <use xlink:href="#DejaVuSans-61" transform="translate(91.308594 0)"/>
      <use xlink:href="#DejaVuSans-72" transform="translate(152.587891 0)"/>
     </g>
    </g>
    <g id="line2d_40">
     <path d="M 815.08 343.176562 
L 825.08 343.176562 
L 835.08 343.176562 
" style="fill: none; stroke: #ff7f0e; stroke-width: 1.5; stroke-linecap: square"/>
    </g>
    <g id="text_21">
     <!-- fork -->
     <g style="fill: #a9a9a9" transform="translate(843.08 346.676562) scale(0.1 -0.1)">
      <defs>
       <path id="DejaVuSans-66" d="M 2375 4863 
L 2375 4384 
L 1825 4384 
Q 1516 4384 1395 4259 
Q 1275 4134 1275 3809 
L 1275 3500 
L 2222 3500 
L 2222 3053 
L 1275 3053 
L 1275 0 
L 697 0 
L 697 3053 
L 147 3053 
L 147 3500 
L 697 3500 
L 697 3744 
Q 697 4328 969 4595 
Q 1241 4863 1831 4863 
L 2375 4863 
z
" transform="scale(0.015625)"/>
       <path id="DejaVuSans-6b" d="M 581 4863 
L 1159 4863 
L 1159 1991 
L 2875 3500 
L 3609 3500 
L 1753 1863 
L 3688 0 
L 2938 0 
L 1159 1709 
L 1159 0 
L 581 0 
L 581 4863 
z
" transform="scale(0.015625)"/>
      </defs>
      <use xlink:href="#DejaVuSans-66"/>
      <use xlink:href="#DejaVuSans-6f" transform="translate(35.205078 0)"/>
      <use xlink:href="#DejaVuSans-72" transform="translate(96.386719 0)"/>
      <use xlink:href="#DejaVuSans-6b" transform="translate(137.5 0)"/>
     </g>
    </g>
   </g>
  </g>
 </g>
 <defs>
  <clipPath id="pfde041c084">
   <rect x="108" y="43.2" width="669.6" height="277.2"/>
  </clipPath>
 </defs>
</svg>
