<?xml version="1.0" encoding="utf-8" standalone="no"?>
<!DOCTYPE svg PUBLIC "-//W3C//DTD SVG 1.1//EN"
  "http://www.w3.org/Graphics/SVG/1.1/DTD/svg11.dtd">
<svg xmlns:xlink="http://www.w3.org/1999/xlink" width="864pt" height="360pt" viewBox="0 0 864 360" xmlns="http://www.w3.org/2000/svg" version="1.1">
 <metadata>
  <rdf:RDF xmlns:dc="http://purl.org/dc/elements/1.1/" xmlns:cc="http://creativecommons.org/ns#" xmlns:rdf="http://www.w3.org/1999/02/22-rdf-syntax-ns#">
   <cc:Work>
    <dc:type rdf:resource="http://purl.org/dc/dcmitype/StillImage"/>
    <dc:date>2025-06-24T20:07:00.098254</dc:date>
    <dc:format>image/svg+xml</dc:format>
    <dc:creator>
     <cc:Agent>
      <dc:title>Matplotlib v3.10.3, https://matplotlib.org/</dc:title>
     </cc:Agent>
    </dc:creator>
   </cc:Work>
  </rdf:RDF>
 </metadata>
 <defs>
  <style type="text/css">*{stroke-linejoin: round; stroke-linecap: butt}</style>
 </defs>
 <g id="figure_1">
  <g id="patch_1">
   <path d="M 0 360 
L 864 360 
L 864 0 
L 0 0 
L 0 360 
z
" style="fill: none; opacity: 0"/>
  </g>
  <g id="axes_1">
   <g id="patch_2">
    <path d="M 108 320.4 
L 777.6 320.4 
L 777.6 43.2 
L 108 43.2 
L 108 320.4 
z
" style="fill: none; opacity: 0"/>
   </g>
   <g id="matplotlib.axis_1">
    <g id="xtick_1">
     <g id="line2d_1">
      <path d="M 128.652487 320.4 
L 128.652487 43.2 
" clip-path="url(#p6da0183244)" style="fill: none; stroke-dasharray: 5.12,1.28,0.8,1.28; stroke-dashoffset: 0; stroke: #b0b0b0; stroke-width: 0.8"/>
     </g>
     <g id="line2d_2">
      <defs>
       <path id="m6faa725283" d="M 0 0 
L 0 3.5 
" style="stroke: #a9a9a9; stroke-width: 0.8"/>
      </defs>
      <g>
       <use xlink:href="#m6faa725283" x="128.652487" y="320.4" style="fill: #a9a9a9; stroke: #a9a9a9; stroke-width: 0.8"/>
      </g>
     </g>
     <g id="text_1">
      <!-- 2021-07 -->
      <g style="fill: #a9a9a9" transform="translate(107.761081 334.998438) scale(0.1 -0.1)">
       <defs>
        <path id="DejaVuSans-32" d="M 1228 531 
L 3431 531 
L 3431 0 
L 469 0 
L 469 531 
Q 828 903 1448 1529 
Q 2069 2156 2228 2338 
Q 2531 2678 2651 2914 
Q 2772 3150 2772 3378 
Q 2772 3750 2511 3984 
Q 2250 4219 1831 4219 
Q 1534 4219 1204 4116 
Q 875 4013 500 3803 
L 500 4441 
Q 881 4594 1212 4672 
Q 1544 4750 1819 4750 
Q 2544 4750 2975 4387 
Q 3406 4025 3406 3419 
Q 3406 3131 3298 2873 
Q 3191 2616 2906 2266 
Q 2828 2175 2409 1742 
Q 1991 1309 1228 531 
z
" transform="scale(0.015625)"/>
        <path id="DejaVuSans-30" d="M 2034 4250 
Q 1547 4250 1301 3770 
Q 1056 3291 1056 2328 
Q 1056 1369 1301 889 
Q 1547 409 2034 409 
Q 2525 409 2770 889 
Q 3016 1369 3016 2328 
Q 3016 3291 2770 3770 
Q 2525 4250 2034 4250 
z
M 2034 4750 
Q 2819 4750 3233 4129 
Q 3647 3509 3647 2328 
Q 3647 1150 3233 529 
Q 2819 -91 2034 -91 
Q 1250 -91 836 529 
Q 422 1150 422 2328 
Q 422 3509 836 4129 
Q 1250 4750 2034 4750 
z
" transform="scale(0.015625)"/>
        <path id="DejaVuSans-31" d="M 794 531 
L 1825 531 
L 1825 4091 
L 703 3866 
L 703 4441 
L 1819 4666 
L 2450 4666 
L 2450 531 
L 3481 531 
L 3481 0 
L 794 0 
L 794 531 
z
" transform="scale(0.015625)"/>
        <path id="DejaVuSans-2d" d="M 313 2009 
L 1997 2009 
L 1997 1497 
L 313 1497 
L 313 2009 
z
" transform="scale(0.015625)"/>
        <path id="DejaVuSans-37" d="M 525 4666 
L 3525 4666 
L 3525 4397 
L 1831 0 
L 1172 0 
L 2766 4134 
L 525 4134 
L 525 4666 
z
" transform="scale(0.015625)"/>
       </defs>
       <use xlink:href="#DejaVuSans-32"/>
       <use xlink:href="#DejaVuSans-30" transform="translate(63.623047 0)"/>
       <use xlink:href="#DejaVuSans-32" transform="translate(127.246094 0)"/>
       <use xlink:href="#DejaVuSans-31" transform="translate(190.869141 0)"/>
       <use xlink:href="#DejaVuSans-2d" transform="translate(254.492188 0)"/>
       <use xlink:href="#DejaVuSans-30" transform="translate(290.576172 0)"/>
       <use xlink:href="#DejaVuSans-37" transform="translate(354.199219 0)"/>
      </g>
     </g>
    </g>
    <g id="xtick_2">
     <g id="line2d_3">
      <path d="M 206.923499 320.4 
L 206.923499 43.2 
" clip-path="url(#p6da0183244)" style="fill: none; stroke-dasharray: 5.12,1.28,0.8,1.28; stroke-dashoffset: 0; stroke: #b0b0b0; stroke-width: 0.8"/>
     </g>
     <g id="line2d_4">
      <g>
       <use xlink:href="#m6faa725283" x="206.923499" y="320.4" style="fill: #a9a9a9; stroke: #a9a9a9; stroke-width: 0.8"/>
      </g>
     </g>
     <g id="text_2">
      <!-- 2022-01 -->
      <g style="fill: #a9a9a9" transform="translate(186.032093 334.998438) scale(0.1 -0.1)">
       <use xlink:href="#DejaVuSans-32"/>
       <use xlink:href="#DejaVuSans-30" transform="translate(63.623047 0)"/>
       <use xlink:href="#DejaVuSans-32" transform="translate(127.246094 0)"/>
       <use xlink:href="#DejaVuSans-32" transform="translate(190.869141 0)"/>
       <use xlink:href="#DejaVuSans-2d" transform="translate(254.492188 0)"/>
       <use xlink:href="#DejaVuSans-30" transform="translate(290.576172 0)"/>
       <use xlink:href="#DejaVuSans-31" transform="translate(354.199219 0)"/>
      </g>
     </g>
    </g>
    <g id="xtick_3">
     <g id="line2d_5">
      <path d="M 283.918353 320.4 
L 283.918353 43.2 
" clip-path="url(#p6da0183244)" style="fill: none; stroke-dasharray: 5.12,1.28,0.8,1.28; stroke-dashoffset: 0; stroke: #b0b0b0; stroke-width: 0.8"/>
     </g>
     <g id="line2d_6">
      <g>
       <use xlink:href="#m6faa725283" x="283.918353" y="320.4" style="fill: #a9a9a9; stroke: #a9a9a9; stroke-width: 0.8"/>
      </g>
     </g>
     <g id="text_3">
      <!-- 2022-07 -->
      <g style="fill: #a9a9a9" transform="translate(263.026947 334.998438) scale(0.1 -0.1)">
       <use xlink:href="#DejaVuSans-32"/>
       <use xlink:href="#DejaVuSans-30" transform="translate(63.623047 0)"/>
       <use xlink:href="#DejaVuSans-32" transform="translate(127.246094 0)"/>
       <use xlink:href="#DejaVuSans-32" transform="translate(190.869141 0)"/>
       <use xlink:href="#DejaVuSans-2d" transform="translate(254.492188 0)"/>
       <use xlink:href="#DejaVuSans-30" transform="translate(290.576172 0)"/>
       <use xlink:href="#DejaVuSans-37" transform="translate(354.199219 0)"/>
      </g>
     </g>
    </g>
    <g id="xtick_4">
     <g id="line2d_7">
      <path d="M 362.189365 320.4 
L 362.189365 43.2 
" clip-path="url(#p6da0183244)" style="fill: none; stroke-dasharray: 5.12,1.28,0.8,1.28; stroke-dashoffset: 0; stroke: #b0b0b0; stroke-width: 0.8"/>
     </g>
     <g id="line2d_8">
      <g>
       <use xlink:href="#m6faa725283" x="362.189365" y="320.4" style="fill: #a9a9a9; stroke: #a9a9a9; stroke-width: 0.8"/>
      </g>
     </g>
     <g id="text_4">
      <!-- 2023-01 -->
      <g style="fill: #a9a9a9" transform="translate(341.297959 334.998438) scale(0.1 -0.1)">
       <defs>
        <path id="DejaVuSans-33" d="M 2597 2516 
Q 3050 2419 3304 2112 
Q 3559 1806 3559 1356 
Q 3559 666 3084 287 
Q 2609 -91 1734 -91 
Q 1441 -91 1130 -33 
Q 819 25 488 141 
L 488 750 
Q 750 597 1062 519 
Q 1375 441 1716 441 
Q 2309 441 2620 675 
Q 2931 909 2931 1356 
Q 2931 1769 2642 2001 
Q 2353 2234 1838 2234 
L 1294 2234 
L 1294 2753 
L 1863 2753 
Q 2328 2753 2575 2939 
Q 2822 3125 2822 3475 
Q 2822 3834 2567 4026 
Q 2313 4219 1838 4219 
Q 1578 4219 1281 4162 
Q 984 4106 628 3988 
L 628 4550 
Q 988 4650 1302 4700 
Q 1616 4750 1894 4750 
Q 2613 4750 3031 4423 
Q 3450 4097 3450 3541 
Q 3450 3153 3228 2886 
Q 3006 2619 2597 2516 
z
" transform="scale(0.015625)"/>
       </defs>
       <use xlink:href="#DejaVuSans-32"/>
       <use xlink:href="#DejaVuSans-30" transform="translate(63.623047 0)"/>
       <use xlink:href="#DejaVuSans-32" transform="translate(127.246094 0)"/>
       <use xlink:href="#DejaVuSans-33" transform="translate(190.869141 0)"/>
       <use xlink:href="#DejaVuSans-2d" transform="translate(254.492188 0)"/>
       <use xlink:href="#DejaVuSans-30" transform="translate(290.576172 0)"/>
       <use xlink:href="#DejaVuSans-31" transform="translate(354.199219 0)"/>
      </g>
     </g>
    </g>
    <g id="xtick_5">
     <g id="line2d_9">
      <path d="M 439.18422 320.4 
L 439.18422 43.2 
" clip-path="url(#p6da0183244)" style="fill: none; stroke-dasharray: 5.12,1.28,0.8,1.28; stroke-dashoffset: 0; stroke: #b0b0b0; stroke-width: 0.8"/>
     </g>
     <g id="line2d_10">
      <g>
       <use xlink:href="#m6faa725283" x="439.18422" y="320.4" style="fill: #a9a9a9; stroke: #a9a9a9; stroke-width: 0.8"/>
      </g>
     </g>
     <g id="text_5">
      <!-- 2023-07 -->
      <g style="fill: #a9a9a9" transform="translate(418.292813 334.998438) scale(0.1 -0.1)">
       <use xlink:href="#DejaVuSans-32"/>
       <use xlink:href="#DejaVuSans-30" transform="translate(63.623047 0)"/>
       <use xlink:href="#DejaVuSans-32" transform="translate(127.246094 0)"/>
       <use xlink:href="#DejaVuSans-33" transform="translate(190.869141 0)"/>
       <use xlink:href="#DejaVuSans-2d" transform="translate(254.492188 0)"/>
       <use xlink:href="#DejaVuSans-30" transform="translate(290.576172 0)"/>
       <use xlink:href="#DejaVuSans-37" transform="translate(354.199219 0)"/>
      </g>
     </g>
    </g>
    <g id="xtick_6">
     <g id="line2d_11">
      <path d="M 517.455232 320.4 
L 517.455232 43.2 
" clip-path="url(#p6da0183244)" style="fill: none; stroke-dasharray: 5.12,1.28,0.8,1.28; stroke-dashoffset: 0; stroke: #b0b0b0; stroke-width: 0.8"/>
     </g>
     <g id="line2d_12">
      <g>
       <use xlink:href="#m6faa725283" x="517.455232" y="320.4" style="fill: #a9a9a9; stroke: #a9a9a9; stroke-width: 0.8"/>
      </g>
     </g>
     <g id="text_6">
      <!-- 2024-01 -->
      <g style="fill: #a9a9a9" transform="translate(496.563825 334.998438) scale(0.1 -0.1)">
       <defs>
        <path id="DejaVuSans-34" d="M 2419 4116 
L 825 1625 
L 2419 1625 
L 2419 4116 
z
M 2253 4666 
L 3047 4666 
L 3047 1625 
L 3713 1625 
L 3713 1100 
L 3047 1100 
L 3047 0 
L 2419 0 
L 2419 1100 
L 313 1100 
L 313 1709 
L 2253 4666 
z
" transform="scale(0.015625)"/>
       </defs>
       <use xlink:href="#DejaVuSans-32"/>
       <use xlink:href="#DejaVuSans-30" transform="translate(63.623047 0)"/>
       <use xlink:href="#DejaVuSans-32" transform="translate(127.246094 0)"/>
       <use xlink:href="#DejaVuSans-34" transform="translate(190.869141 0)"/>
       <use xlink:href="#DejaVuSans-2d" transform="translate(254.492188 0)"/>
       <use xlink:href="#DejaVuSans-30" transform="translate(290.576172 0)"/>
       <use xlink:href="#DejaVuSans-31" transform="translate(354.199219 0)"/>
      </g>
     </g>
    </g>
    <g id="xtick_7">
     <g id="line2d_13">
      <path d="M 594.875472 320.4 
L 594.875472 43.2 
" clip-path="url(#p6da0183244)" style="fill: none; stroke-dasharray: 5.12,1.28,0.8,1.28; stroke-dashoffset: 0; stroke: #b0b0b0; stroke-width: 0.8"/>
     </g>
     <g id="line2d_14">
      <g>
       <use xlink:href="#m6faa725283" x="594.875472" y="320.4" style="fill: #a9a9a9; stroke: #a9a9a9; stroke-width: 0.8"/>
      </g>
     </g>
     <g id="text_7">
      <!-- 2024-07 -->
      <g style="fill: #a9a9a9" transform="translate(573.984065 334.998438) scale(0.1 -0.1)">
       <use xlink:href="#DejaVuSans-32"/>
       <use xlink:href="#DejaVuSans-30" transform="translate(63.623047 0)"/>
       <use xlink:href="#DejaVuSans-32" transform="translate(127.246094 0)"/>
       <use xlink:href="#DejaVuSans-34" transform="translate(190.869141 0)"/>
       <use xlink:href="#DejaVuSans-2d" transform="translate(254.492188 0)"/>
       <use xlink:href="#DejaVuSans-30" transform="translate(290.576172 0)"/>
       <use xlink:href="#DejaVuSans-37" transform="translate(354.199219 0)"/>
      </g>
     </g>
    </g>
    <g id="xtick_8">
     <g id="line2d_15">
      <path d="M 673.146484 320.4 
L 673.146484 43.2 
" clip-path="url(#p6da0183244)" style="fill: none; stroke-dasharray: 5.12,1.28,0.8,1.28; stroke-dashoffset: 0; stroke: #b0b0b0; stroke-width: 0.8"/>
     </g>
     <g id="line2d_16">
      <g>
       <use xlink:href="#m6faa725283" x="673.146484" y="320.4" style="fill: #a9a9a9; stroke: #a9a9a9; stroke-width: 0.8"/>
      </g>
     </g>
     <g id="text_8">
      <!-- 2025-01 -->
      <g style="fill: #a9a9a9" transform="translate(652.255077 334.998438) scale(0.1 -0.1)">
       <defs>
        <path id="DejaVuSans-35" d="M 691 4666 
L 3169 4666 
L 3169 4134 
L 1269 4134 
L 1269 2991 
Q 1406 3038 1543 3061 
Q 1681 3084 1819 3084 
Q 2600 3084 3056 2656 
Q 3513 2228 3513 1497 
Q 3513 744 3044 326 
Q 2575 -91 1722 -91 
Q 1428 -91 1123 -41 
Q 819 9 494 109 
L 494 744 
Q 775 591 1075 516 
Q 1375 441 1709 441 
Q 2250 441 2565 725 
Q 2881 1009 2881 1497 
Q 2881 1984 2565 2268 
Q 2250 2553 1709 2553 
Q 1456 2553 1204 2497 
Q 953 2441 691 2322 
L 691 4666 
z
" transform="scale(0.015625)"/>
       </defs>
       <use xlink:href="#DejaVuSans-32"/>
       <use xlink:href="#DejaVuSans-30" transform="translate(63.623047 0)"/>
       <use xlink:href="#DejaVuSans-32" transform="translate(127.246094 0)"/>
       <use xlink:href="#DejaVuSans-35" transform="translate(190.869141 0)"/>
       <use xlink:href="#DejaVuSans-2d" transform="translate(254.492188 0)"/>
       <use xlink:href="#DejaVuSans-30" transform="translate(290.576172 0)"/>
       <use xlink:href="#DejaVuSans-31" transform="translate(354.199219 0)"/>
      </g>
     </g>
    </g>
    <g id="xtick_9">
     <g id="line2d_17">
      <path d="M 750.141338 320.4 
L 750.141338 43.2 
" clip-path="url(#p6da0183244)" style="fill: none; stroke-dasharray: 5.12,1.28,0.8,1.28; stroke-dashoffset: 0; stroke: #b0b0b0; stroke-width: 0.8"/>
     </g>
     <g id="line2d_18">
      <g>
       <use xlink:href="#m6faa725283" x="750.141338" y="320.4" style="fill: #a9a9a9; stroke: #a9a9a9; stroke-width: 0.8"/>
      </g>
     </g>
     <g id="text_9">
      <!-- 2025-07 -->
      <g style="fill: #a9a9a9" transform="translate(729.249932 334.998438) scale(0.1 -0.1)">
       <use xlink:href="#DejaVuSans-32"/>
       <use xlink:href="#DejaVuSans-30" transform="translate(63.623047 0)"/>
       <use xlink:href="#DejaVuSans-32" transform="translate(127.246094 0)"/>
       <use xlink:href="#DejaVuSans-35" transform="translate(190.869141 0)"/>
       <use xlink:href="#DejaVuSans-2d" transform="translate(254.492188 0)"/>
       <use xlink:href="#DejaVuSans-30" transform="translate(290.576172 0)"/>
       <use xlink:href="#DejaVuSans-37" transform="translate(354.199219 0)"/>
      </g>
     </g>
    </g>
   </g>
   <g id="matplotlib.axis_2">
    <g id="ytick_1">
     <g id="line2d_19">
      <path d="M 108 307.832412 
L 777.6 307.832412 
" clip-path="url(#p6da0183244)" style="fill: none; stroke-dasharray: 5.12,1.28,0.8,1.28; stroke-dashoffset: 0; stroke: #b0b0b0; stroke-width: 0.8"/>
     </g>
     <g id="line2d_20">
      <defs>
       <path id="mda003fd567" d="M 0 0 
L -3.5 0 
" style="stroke: #a9a9a9; stroke-width: 0.8"/>
      </defs>
      <g>
       <use xlink:href="#mda003fd567" x="108" y="307.832412" style="fill: #a9a9a9; stroke: #a9a9a9; stroke-width: 0.8"/>
      </g>
     </g>
     <g id="text_10">
      <!-- 0 -->
      <g style="fill: #a9a9a9" transform="translate(94.6375 311.63163) scale(0.1 -0.1)">
       <use xlink:href="#DejaVuSans-30"/>
      </g>
     </g>
    </g>
    <g id="ytick_2">
     <g id="line2d_21">
      <path d="M 108 275.420836 
L 777.6 275.420836 
" clip-path="url(#p6da0183244)" style="fill: none; stroke-dasharray: 5.12,1.28,0.8,1.28; stroke-dashoffset: 0; stroke: #b0b0b0; stroke-width: 0.8"/>
     </g>
     <g id="line2d_22">
      <g>
       <use xlink:href="#mda003fd567" x="108" y="275.420836" style="fill: #a9a9a9; stroke: #a9a9a9; stroke-width: 0.8"/>
      </g>
     </g>
     <g id="text_11">
      <!-- 1000 -->
      <g style="fill: #a9a9a9" transform="translate(75.55 279.220055) scale(0.1 -0.1)">
       <use xlink:href="#DejaVuSans-31"/>
       <use xlink:href="#DejaVuSans-30" transform="translate(63.623047 0)"/>
       <use xlink:href="#DejaVuSans-30" transform="translate(127.246094 0)"/>
       <use xlink:href="#DejaVuSans-30" transform="translate(190.869141 0)"/>
      </g>
     </g>
    </g>
    <g id="ytick_3">
     <g id="line2d_23">
      <path d="M 108 243.00926 
L 777.6 243.00926 
" clip-path="url(#p6da0183244)" style="fill: none; stroke-dasharray: 5.12,1.28,0.8,1.28; stroke-dashoffset: 0; stroke: #b0b0b0; stroke-width: 0.8"/>
     </g>
     <g id="line2d_24">
      <g>
       <use xlink:href="#mda003fd567" x="108" y="243.00926" style="fill: #a9a9a9; stroke: #a9a9a9; stroke-width: 0.8"/>
      </g>
     </g>
     <g id="text_12">
      <!-- 2000 -->
      <g style="fill: #a9a9a9" transform="translate(75.55 246.808479) scale(0.1 -0.1)">
       <use xlink:href="#DejaVuSans-32"/>
       <use xlink:href="#DejaVuSans-30" transform="translate(63.623047 0)"/>
       <use xlink:href="#DejaVuSans-30" transform="translate(127.246094 0)"/>
       <use xlink:href="#DejaVuSans-30" transform="translate(190.869141 0)"/>
      </g>
     </g>
    </g>
    <g id="ytick_4">
     <g id="line2d_25">
      <path d="M 108 210.597685 
L 777.6 210.597685 
" clip-path="url(#p6da0183244)" style="fill: none; stroke-dasharray: 5.12,1.28,0.8,1.28; stroke-dashoffset: 0; stroke: #b0b0b0; stroke-width: 0.8"/>
     </g>
     <g id="line2d_26">
      <g>
       <use xlink:href="#mda003fd567" x="108" y="210.597685" style="fill: #a9a9a9; stroke: #a9a9a9; stroke-width: 0.8"/>
      </g>
     </g>
     <g id="text_13">
      <!-- 3000 -->
      <g style="fill: #a9a9a9" transform="translate(75.55 214.396904) scale(0.1 -0.1)">
       <use xlink:href="#DejaVuSans-33"/>
       <use xlink:href="#DejaVuSans-30" transform="translate(63.623047 0)"/>
       <use xlink:href="#DejaVuSans-30" transform="translate(127.246094 0)"/>
       <use xlink:href="#DejaVuSans-30" transform="translate(190.869141 0)"/>
      </g>
     </g>
    </g>
    <g id="ytick_5">
     <g id="line2d_27">
      <path d="M 108 178.186109 
L 777.6 178.186109 
" clip-path="url(#p6da0183244)" style="fill: none; stroke-dasharray: 5.12,1.28,0.8,1.28; stroke-dashoffset: 0; stroke: #b0b0b0; stroke-width: 0.8"/>
     </g>
     <g id="line2d_28">
      <g>
       <use xlink:href="#mda003fd567" x="108" y="178.186109" style="fill: #a9a9a9; stroke: #a9a9a9; stroke-width: 0.8"/>
      </g>
     </g>
     <g id="text_14">
      <!-- 4000 -->
      <g style="fill: #a9a9a9" transform="translate(75.55 181.985328) scale(0.1 -0.1)">
       <use xlink:href="#DejaVuSans-34"/>
       <use xlink:href="#DejaVuSans-30" transform="translate(63.623047 0)"/>
       <use xlink:href="#DejaVuSans-30" transform="translate(127.246094 0)"/>
       <use xlink:href="#DejaVuSans-30" transform="translate(190.869141 0)"/>
      </g>
     </g>
    </g>
    <g id="ytick_6">
     <g id="line2d_29">
      <path d="M 108 145.774534 
L 777.6 145.774534 
" clip-path="url(#p6da0183244)" style="fill: none; stroke-dasharray: 5.12,1.28,0.8,1.28; stroke-dashoffset: 0; stroke: #b0b0b0; stroke-width: 0.8"/>
     </g>
     <g id="line2d_30">
      <g>
       <use xlink:href="#mda003fd567" x="108" y="145.774534" style="fill: #a9a9a9; stroke: #a9a9a9; stroke-width: 0.8"/>
      </g>
     </g>
     <g id="text_15">
      <!-- 5000 -->
      <g style="fill: #a9a9a9" transform="translate(75.55 149.573753) scale(0.1 -0.1)">
       <use xlink:href="#DejaVuSans-35"/>
       <use xlink:href="#DejaVuSans-30" transform="translate(63.623047 0)"/>
       <use xlink:href="#DejaVuSans-30" transform="translate(127.246094 0)"/>
       <use xlink:href="#DejaVuSans-30" transform="translate(190.869141 0)"/>
      </g>
     </g>
    </g>
    <g id="ytick_7">
     <g id="line2d_31">
      <path d="M 108 113.362958 
L 777.6 113.362958 
" clip-path="url(#p6da0183244)" style="fill: none; stroke-dasharray: 5.12,1.28,0.8,1.28; stroke-dashoffset: 0; stroke: #b0b0b0; stroke-width: 0.8"/>
     </g>
     <g id="line2d_32">
      <g>
       <use xlink:href="#mda003fd567" x="108" y="113.362958" style="fill: #a9a9a9; stroke: #a9a9a9; stroke-width: 0.8"/>
      </g>
     </g>
     <g id="text_16">
      <!-- 6000 -->
      <g style="fill: #a9a9a9" transform="translate(75.55 117.162177) scale(0.1 -0.1)">
       <defs>
        <path id="DejaVuSans-36" d="M 2113 2584 
Q 1688 2584 1439 2293 
Q 1191 2003 1191 1497 
Q 1191 994 1439 701 
Q 1688 409 2113 409 
Q 2538 409 2786 701 
Q 3034 994 3034 1497 
Q 3034 2003 2786 2293 
Q 2538 2584 2113 2584 
z
M 3366 4563 
L 3366 3988 
Q 3128 4100 2886 4159 
Q 2644 4219 2406 4219 
Q 1781 4219 1451 3797 
Q 1122 3375 1075 2522 
Q 1259 2794 1537 2939 
Q 1816 3084 2150 3084 
Q 2853 3084 3261 2657 
Q 3669 2231 3669 1497 
Q 3669 778 3244 343 
Q 2819 -91 2113 -91 
Q 1303 -91 875 529 
Q 447 1150 447 2328 
Q 447 3434 972 4092 
Q 1497 4750 2381 4750 
Q 2619 4750 2861 4703 
Q 3103 4656 3366 4563 
z
" transform="scale(0.015625)"/>
       </defs>
       <use xlink:href="#DejaVuSans-36"/>
       <use xlink:href="#DejaVuSans-30" transform="translate(63.623047 0)"/>
       <use xlink:href="#DejaVuSans-30" transform="translate(127.246094 0)"/>
       <use xlink:href="#DejaVuSans-30" transform="translate(190.869141 0)"/>
      </g>
     </g>
    </g>
    <g id="ytick_8">
     <g id="line2d_33">
      <path d="M 108 80.951383 
L 777.6 80.951383 
" clip-path="url(#p6da0183244)" style="fill: none; stroke-dasharray: 5.12,1.28,0.8,1.28; stroke-dashoffset: 0; stroke: #b0b0b0; stroke-width: 0.8"/>
     </g>
     <g id="line2d_34">
      <g>
       <use xlink:href="#mda003fd567" x="108" y="80.951383" style="fill: #a9a9a9; stroke: #a9a9a9; stroke-width: 0.8"/>
      </g>
     </g>
     <g id="text_17">
      <!-- 7000 -->
      <g style="fill: #a9a9a9" transform="translate(75.55 84.750601) scale(0.1 -0.1)">
       <use xlink:href="#DejaVuSans-37"/>
       <use xlink:href="#DejaVuSans-30" transform="translate(63.623047 0)"/>
       <use xlink:href="#DejaVuSans-30" transform="translate(127.246094 0)"/>
       <use xlink:href="#DejaVuSans-30" transform="translate(190.869141 0)"/>
      </g>
     </g>
    </g>
    <g id="ytick_9">
     <g id="line2d_35">
      <path d="M 108 48.539807 
L 777.6 48.539807 
" clip-path="url(#p6da0183244)" style="fill: none; stroke-dasharray: 5.12,1.28,0.8,1.28; stroke-dashoffset: 0; stroke: #b0b0b0; stroke-width: 0.8"/>
     </g>
     <g id="line2d_36">
      <g>
       <use xlink:href="#mda003fd567" x="108" y="48.539807" style="fill: #a9a9a9; stroke: #a9a9a9; stroke-width: 0.8"/>
      </g>
     </g>
     <g id="text_18">
      <!-- 8000 -->
      <g style="fill: #a9a9a9" transform="translate(75.55 52.339026) scale(0.1 -0.1)">
       <defs>
        <path id="DejaVuSans-38" d="M 2034 2216 
Q 1584 2216 1326 1975 
Q 1069 1734 1069 1313 
Q 1069 891 1326 650 
Q 1584 409 2034 409 
Q 2484 409 2743 651 
Q 3003 894 3003 1313 
Q 3003 1734 2745 1975 
Q 2488 2216 2034 2216 
z
M 1403 2484 
Q 997 2584 770 2862 
Q 544 3141 544 3541 
Q 544 4100 942 4425 
Q 1341 4750 2034 4750 
Q 2731 4750 3128 4425 
Q 3525 4100 3525 3541 
Q 3525 3141 3298 2862 
Q 3072 2584 2669 2484 
Q 3125 2378 3379 2068 
Q 3634 1759 3634 1313 
Q 3634 634 3220 271 
Q 2806 -91 2034 -91 
Q 1263 -91 848 271 
Q 434 634 434 1313 
Q 434 1759 690 2068 
Q 947 2378 1403 2484 
z
M 1172 3481 
Q 1172 3119 1398 2916 
Q 1625 2713 2034 2713 
Q 2441 2713 2670 2916 
Q 2900 3119 2900 3481 
Q 2900 3844 2670 4047 
Q 2441 4250 2034 4250 
Q 1625 4250 1398 4047 
Q 1172 3844 1172 3481 
z
" transform="scale(0.015625)"/>
       </defs>
       <use xlink:href="#DejaVuSans-38"/>
       <use xlink:href="#DejaVuSans-30" transform="translate(63.623047 0)"/>
       <use xlink:href="#DejaVuSans-30" transform="translate(127.246094 0)"/>
       <use xlink:href="#DejaVuSans-30" transform="translate(190.869141 0)"/>
      </g>
     </g>
    </g>
   </g>
   <g id="line2d_37">
    <path d="M 138.436364 307.735177 
L 140.988679 307.508296 
L 141.414065 307.313826 
L 143.115609 307.086945 
L 144.817153 306.730418 
L 145.667925 306.600772 
L 147.794854 306.406302 
L 148.645626 306.049775 
L 149.071012 305.466367 
L 149.496398 305.174662 
L 149.921784 304.202315 
L 150.34717 304.137492 
L 150.772556 303.780965 
L 151.623328 303.327203 
L 153.324871 301.901093 
L 155.026415 301.025981 
L 156.302573 300.410161 
L 156.727959 299.697106 
L 157.578731 299.048875 
L 158.004117 298.854405 
L 162.257976 298.206174 
L 162.683362 298.011704 
L 165.661063 297.752412 
L 167.362607 297.331061 
L 170.765695 296.844887 
L 171.191081 296.618006 
L 171.616467 296.553183 
L 172.467238 296.261479 
L 175.44494 295.742894 
L 176.295712 295.483601 
L 180.124185 294.83537 
L 180.974957 294.6409 
L 181.825729 294.608489 
L 183.527273 294.187138 
L 183.952659 293.571318 
L 185.228816 293.052733 
L 186.504974 292.696206 
L 186.93036 292.469325 
L 187.781132 292.307267 
L 189.482676 291.788682 
L 190.333448 291.723859 
L 191.18422 291.496977 
L 192.885763 291.043215 
L 193.311149 291.010804 
L 194.161921 290.589453 
L 194.587307 290.52463 
L 195.012693 290.297749 
L 199.691938 289.48746 
L 201.393482 288.968875 
L 201.818868 288.67717 
L 203.945798 287.964116 
L 204.796569 287.348296 
L 206.072727 287.089003 
L 215.431218 284.269196 
L 215.856604 284.236785 
L 217.132762 283.847846 
L 217.558148 283.847846 
L 217.983533 283.653376 
L 218.834305 283.556141 
L 219.259691 283.394084 
L 220.961235 283.32926 
L 221.812007 283.167203 
L 222.662779 282.713441 
L 223.938937 282.227267 
L 224.789708 281.773505 
L 225.64048 281.319743 
L 226.491252 281.028039 
L 226.916638 280.898392 
L 227.76741 280.347395 
L 228.192796 279.861222 
L 229.043568 278.499936 
L 229.468954 278.370289 
L 229.89434 278.370289 
L 231.595883 277.397942 
L 232.021269 277.300707 
L 232.446655 276.879357 
L 233.297427 276.52283 
L 234.148199 276.133891 
L 234.573585 275.615305 
L 234.998971 274.902251 
L 235.424357 274.610547 
L 235.849743 273.832669 
L 236.275129 273.346495 
L 238.827444 271.920386 
L 239.678216 271.207331 
L 240.103602 270.948039 
L 240.528988 270.332219 
L 240.954374 269.32746 
L 241.37976 268.646817 
L 241.805146 268.290289 
L 242.230532 268.09582 
L 245.633619 264.887074 
L 246.484391 264.076785 
L 249.036707 262.423794 
L 249.462093 262.261736 
L 251.163636 261.224566 
L 251.589022 261.030096 
L 253.715952 259.020579 
L 254.566724 258.664051 
L 255.417496 258.048232 
L 255.842882 257.788939 
L 256.268268 257.724116 
L 257.544425 256.97865 
L 257.969811 256.492476 
L 260.096741 255.293248 
L 260.522127 255.13119 
L 261.798285 254.223666 
L 268.179074 251.890032 
L 269.029846 251.079743 
L 270.306003 250.431511 
L 271.156775 249.880514 
L 272.007547 249.621222 
L 272.432933 249.329518 
L 272.858319 249.199871 
L 274.134477 248.324759 
L 276.261407 247.838585 
L 277.537564 247.060707 
L 278.813722 246.769003 
L 279.239108 246.671768 
L 280.515266 245.66701 
L 282.21681 245.180836 
L 282.642196 244.824309 
L 285.194511 243.916785 
L 286.045283 243.754727 
L 286.896055 243.398199 
L 289.873756 242.263794 
L 290.724528 242.134148 
L 292.000686 241.680386 
L 294.127616 240.610804 
L 296.679931 239.152283 
L 297.530703 238.925402 
L 298.806861 238.27717 
L 299.657633 238.115113 
L 300.508405 237.596527 
L 301.359177 237.369646 
L 302.635334 236.851061 
L 304.336878 236.62418 
L 305.18765 236.170418 
L 305.613036 235.781479 
L 306.038422 235.003601 
L 307.739966 234.517428 
L 309.016123 233.836785 
L 309.866895 233.54508 
L 311.143053 232.896849 
L 313.269983 232.021736 
L 314.120755 231.827267 
L 315.396913 231.179035 
L 315.822298 231.114212 
L 317.949228 230.04463 
L 318.8 229.493633 
L 320.076158 229.234341 
L 322.203087 228.683344 
L 322.628473 228.326817 
L 323.479245 228.035113 
L 325.606175 227.16 
L 326.031561 226.835884 
L 326.456947 226.673826 
L 327.307719 226.187653 
L 329.009262 225.636656 
L 329.860034 225.085659 
L 330.28542 224.631897 
L 330.710806 224.372605 
L 331.136192 224.27537 
L 331.986964 223.562315 
L 332.41235 223.497492 
L 332.837736 222.784437 
L 333.263122 222.589968 
L 333.688508 222.233441 
L 334.113894 222.168617 
L 334.964666 221.617621 
L 335.815437 221.325916 
L 336.240823 221.001801 
L 336.666209 220.839743 
L 338.367753 219.672926 
L 339.643911 219.024695 
L 340.494683 218.797814 
L 341.345455 218.31164 
L 341.77084 217.566174 
L 342.621612 216.917942 
L 343.046998 216.820707 
L 345.599314 215.556656 
L 346.450086 215.200129 
L 347.300858 214.584309 
L 348.577015 213.38508 
L 349.427787 212.866495 
L 349.853173 212.380322 
L 351.554717 211.181093 
L 352.405489 210.305981 
L 353.256261 210.014277 
L 354.107033 209.430868 
L 355.38319 208.750225 
L 355.808576 208.685402 
L 357.084734 207.972347 
L 357.935506 207.42135 
L 362.189365 205.800772 
L 362.614751 205.444244 
L 364.316295 204.763601 
L 364.741681 204.633955 
L 365.592453 204.082958 
L 366.443225 203.726431 
L 367.293997 203.110611 
L 368.144768 201.360386 
L 368.99554 200.323215 
L 370.271698 199.642572 
L 371.12247 199.286045 
L 371.547856 199.221222 
L 372.398628 198.832283 
L 374.100172 198.248875 
L 374.950943 197.762701 
L 375.801715 197.34135 
L 376.227101 197.211704 
L 378.779417 195.655949 
L 379.204803 195.169775 
L 380.480961 194.424309 
L 380.906346 194.262251 
L 381.757118 193.743666 
L 383.458662 192.80373 
L 383.884048 192.706495 
L 384.309434 192.349968 
L 387.287136 191.345209 
L 387.712521 191.021093 
L 388.563293 190.761801 
L 389.414065 190.405273 
L 389.839451 190.048746 
L 391.540995 189.432926 
L 392.391767 188.817106 
L 393.242539 188.460579 
L 394.09331 187.779936 
L 394.944082 187.520643 
L 395.369468 187.131704 
L 395.794854 187.066881 
L 396.645626 186.386238 
L 398.772556 185.122186 
L 399.623328 184.862894 
L 400.048714 184.603601 
L 400.474099 184.538778 
L 401.750257 183.825723 
L 403.451801 183.242315 
L 404.302573 183.112669 
L 404.727959 182.918199 
L 405.153345 182.853376 
L 406.004117 182.464437 
L 406.429503 182.432026 
L 408.131046 181.783794 
L 409.407204 180.843859 
L 409.83259 180.681801 
L 410.683362 180.195627 
L 411.108748 180.065981 
L 413.661063 178.60746 
L 414.086449 178.510225 
L 415.362607 177.732347 
L 416.638765 177.278585 
L 417.489537 176.986881 
L 419.191081 176.403473 
L 420.041852 176.111768 
L 421.743396 175.755241 
L 422.168782 175.560772 
L 423.019554 175.333891 
L 423.44494 175.139421 
L 423.870326 175.074598 
L 424.295712 174.847717 
L 425.146484 174.685659 
L 426.422642 174.199486 
L 427.273413 174.102251 
L 428.549571 173.810547 
L 430.676501 173.421608 
L 441.736535 170.050804 
L 442.161921 169.597042 
L 444.714237 168.52746 
L 446.41578 167.944051 
L 446.841166 167.684759 
L 448.117324 167.29582 
L 448.968096 167.068939 
L 449.393482 166.777235 
L 449.818868 166.68 
L 450.244254 166.291061 
L 451.520412 166.031768 
L 452.371184 165.64283 
L 452.796569 165.124244 
L 457.475815 164.087074 
L 457.901201 164.087074 
L 458.326587 163.892605 
L 460.02813 163.568489 
L 460.453516 163.374019 
L 462.15506 163.049904 
L 463.005832 162.693376 
L 463.856604 162.531318 
L 465.983533 161.980322 
L 467.685077 161.429325 
L 468.110463 161.33209 
L 468.535849 161.105209 
L 469.386621 160.878328 
L 470.237393 160.521801 
L 471.088165 160.197685 
L 471.513551 159.905981 
L 472.364322 159.646688 
L 475.342024 158.512283 
L 477.043568 158.285402 
L 480.446655 157.02135 
L 480.872041 156.697235 
L 481.297427 156.6 
L 481.722813 156.373119 
L 482.148199 156.340707 
L 486.827444 154.622894 
L 488.954374 154.039486 
L 489.805146 153.618135 
L 491.081304 153.326431 
L 492.782847 151.900322 
L 494.484391 151.154855 
L 495.335163 150.765916 
L 497.887479 149.761158 
L 498.312864 149.469453 
L 500.439794 148.756399 
L 501.715952 148.010932 
L 502.141338 147.913698 
L 504.268268 146.746881 
L 505.544425 146.163473 
L 505.969811 145.839357 
L 506.820583 145.547653 
L 508.947513 144.445659 
L 510.223671 143.991897 
L 511.925214 143.278842 
L 513.201372 142.792669 
L 513.626758 142.630611 
L 514.47753 142.500965 
L 514.902916 142.20926 
L 516.60446 141.885145 
L 517.455232 141.528617 
L 519.156775 140.718328 
L 525.112178 138.060579 
L 526.388336 137.639228 
L 526.813722 137.347524 
L 527.664494 137.250289 
L 528.08988 136.958585 
L 528.940652 136.828939 
L 529.791424 136.407588 
L 530.21681 136.213119 
L 531.067581 135.986238 
L 531.918353 135.726945 
L 533.194511 135.240772 
L 534.470669 134.819421 
L 535.746827 134.527717 
L 537.44837 133.814662 
L 538.299142 133.328489 
L 540.000686 132.453376 
L 540.851458 132.258907 
L 541.276844 131.999614 
L 541.70223 131.902379 
L 542.978388 131.156913 
L 543.82916 130.800386 
L 553.18765 127.170289 
L 554.889194 126.36 
L 559.143053 124.674598 
L 559.993825 124.253248 
L 560.419211 124.156013 
L 560.844597 123.929132 
L 562.546141 123.442958 
L 564.247684 122.016849 
L 564.67307 121.887203 
L 565.098456 121.62791 
L 566.374614 121.271383 
L 566.8 120.947267 
L 567.225386 120.850032 
L 568.501544 120.072154 
L 568.92693 119.78045 
L 570.203087 119.294277 
L 570.628473 119.067395 
L 571.904631 118.775691 
L 574.031561 118.030225 
L 574.882333 117.770932 
L 576.158491 117.122701 
L 577.009262 116.70135 
L 577.860034 116.474469 
L 579.136192 115.85865 
L 582.964666 114.400129 
L 584.240823 113.589839 
L 584.666209 113.492605 
L 585.516981 113.071254 
L 586.367753 112.747138 
L 586.793139 112.358199 
L 587.643911 112.001672 
L 588.920069 111.54791 
L 589.345455 111.191383 
L 589.77084 111.158971 
L 590.621612 110.899678 
L 591.472384 110.607974 
L 591.89777 110.413505 
L 592.323156 110.348682 
L 593.173928 109.992154 
L 594.450086 109.70045 
L 595.300858 109.214277 
L 595.726244 109.052219 
L 596.15163 108.728103 
L 597.427787 108.403987 
L 597.853173 108.144695 
L 598.703945 107.917814 
L 599.980103 107.172347 
L 600.405489 107.139936 
L 601.681647 106.718585 
L 602.532419 106.653762 
L 602.957804 106.426881 
L 603.808576 106.2 
L 604.233962 105.973119 
L 606.360892 105.551768 
L 607.211664 105.389711 
L 608.487822 104.903537 
L 609.763979 104.611833 
L 611.040137 103.93119 
L 611.465523 103.542251 
L 612.741681 102.764373 
L 613.167067 102.440257 
L 614.443225 102.018907 
L 615.293997 101.792026 
L 619.12247 100.106624 
L 620.824014 99.652862 
L 621.674786 99.263923 
L 622.100172 99.037042 
L 622.950943 98.777749 
L 623.376329 98.550868 
L 624.227101 98.38881 
L 627.630189 96.897878 
L 628.055575 96.833055 
L 629.331732 95.990354 
L 629.757118 95.925531 
L 631.458662 95.244887 
L 633.160206 94.823537 
L 633.585592 94.758714 
L 634.010978 94.564244 
L 634.436364 94.531833 
L 635.287136 94.240129 
L 635.712521 94.207717 
L 636.988679 93.721543 
L 638.690223 93.23537 
L 639.540995 92.587138 
L 641.242539 91.614791 
L 641.667925 91.517556 
L 642.09331 91.290675 
L 642.944082 90.998971 
L 643.369468 90.869325 
L 643.794854 90.512797 
L 645.071012 90.026624 
L 645.921784 89.54045 
L 646.34717 89.313569 
L 646.772556 88.92463 
L 648.899485 88.341222 
L 650.175643 87.757814 
L 651.026415 87.530932 
L 651.451801 87.304051 
L 651.877187 86.947524 
L 653.578731 86.493762 
L 654.004117 86.169646 
L 659.534134 84.127717 
L 660.384906 83.965659 
L 662.511835 83.285016 
L 663.362607 82.928489 
L 664.213379 82.604373 
L 665.064151 82.377492 
L 665.489537 82.183023 
L 665.914923 82.183023 
L 666.765695 81.826495 
L 667.616467 81.340322 
L 670.594168 80.335563 
L 672.295712 79.752154 
L 673.57187 79.46045 
L 674.848027 79.0391 
L 675.273413 78.941865 
L 675.698799 78.650161 
L 676.549571 78.455691 
L 678.251115 77.969518 
L 678.676501 77.937106 
L 679.527273 77.548167 
L 682.504974 76.802701 
L 683.355746 76.446174 
L 687.609605 75.473826 
L 688.885763 74.793183 
L 690.161921 74.404244 
L 694.41578 72.816077 
L 694.841166 72.491961 
L 696.117324 72.200257 
L 696.968096 71.940965 
L 697.818868 71.519614 
L 698.244254 71.163087 
L 699.095026 70.903794 
L 699.520412 70.644502 
L 700.371184 70.547267 
L 703.348885 69.704566 
L 704.625043 69.445273 
L 705.901201 69.121158 
L 706.751973 68.894277 
L 708.02813 68.213633 
L 709.729674 67.565402 
L 710.580446 67.11164 
L 711.005832 67.079228 
L 711.856604 66.657878 
L 714.834305 65.815177 
L 716.110463 65.620707 
L 716.961235 65.329003 
L 718.237393 64.940064 
L 722.065866 63.870482 
L 722.916638 63.643601 
L 723.342024 63.546367 
L 723.76741 63.287074 
L 724.618182 63.125016 
L 725.468954 63.027781 
L 725.89434 62.8009 
L 726.319726 62.768489 
L 727.595883 62.120257 
L 728.872041 61.828553 
L 729.722813 61.439614 
L 730.573585 61.14791 
L 731.424357 60.921029 
L 732.275129 60.564502 
L 733.125901 60.272797 
L 734.827444 59.786624 
L 735.678216 59.721801 
L 736.528988 59.430096 
L 736.954374 59.268039 
L 737.805146 59.138392 
L 739.50669 58.360514 
L 739.932075 58.295691 
L 740.357461 58.06881 
L 741.208233 57.906752 
L 742.059005 57.841929 
L 744.185935 57.258521 
L 745.036707 56.901994 
L 746.312864 56.41582 
L 746.73825 55.962058 
L 747.163636 55.8 
L 747.163636 55.8 
" clip-path="url(#p6da0183244)" style="fill: none; stroke: #1f77b4; stroke-width: 1.5; stroke-linecap: square"/>
   </g>
   <g id="line2d_38">
    <path d="M 138.86175 307.8 
L 142.690223 307.702765 
L 146.09331 307.540707 
L 147.794854 307.540707 
L 148.22024 307.411061 
L 150.34717 307.313826 
L 152.899485 307.022122 
L 155.451801 306.924887 
L 156.302573 306.827653 
L 159.280274 306.698006 
L 162.257976 306.600772 
L 164.384906 306.535949 
L 169.914923 306.438714 
L 172.041852 306.373891 
L 175.870326 306.276656 
L 177.57187 306.244244 
L 181.825729 306.14701 
L 183.527273 305.984952 
L 185.228816 305.95254 
L 187.781132 305.855305 
L 189.482676 305.822894 
L 191.609605 305.758071 
L 193.311149 305.596013 
L 197.139623 305.498778 
L 197.990395 305.433955 
L 199.691938 305.33672 
L 202.244254 305.239486 
L 203.945798 305.142251 
L 211.602744 304.656077 
L 214.580446 304.558842 
L 215.856604 304.429196 
L 217.983533 304.331961 
L 222.237393 304.10508 
L 226.491252 304.040257 
L 228.192796 303.845788 
L 230.319726 303.748553 
L 234.573585 303.327203 
L 237.125901 303.003087 
L 238.827444 302.938264 
L 242.230532 302.484502 
L 244.782847 302.419678 
L 246.059005 302.290032 
L 247.335163 302.192797 
L 259.245969 301.252862 
L 260.096741 301.090804 
L 262.649057 300.993569 
L 269.455232 300.572219 
L 272.432933 300.474984 
L 274.134477 300.280514 
L 276.261407 300.18328 
L 278.813722 300.086045 
L 280.940652 299.98881 
L 282.642196 299.956399 
L 284.769125 299.891576 
L 285.619897 299.761929 
L 291.5753 299.664695 
L 292.426072 299.56746 
L 297.530703 299.470225 
L 301.359177 299.275756 
L 304.336878 299.178521 
L 306.038422 298.984051 
L 309.016123 298.886817 
L 309.866895 298.75717 
L 311.993825 298.692347 
L 316.247684 298.627524 
L 317.949228 298.465466 
L 319.650772 298.433055 
L 320.92693 298.33582 
L 322.628473 298.173762 
L 326.882333 297.946881 
L 331.136192 297.849646 
L 334.964666 297.655177 
L 336.240823 297.622765 
L 337.091595 297.493119 
L 339.218525 297.395884 
L 340.069297 297.331061 
L 340.920069 297.266238 
L 341.77084 297.201415 
L 346.0247 297.10418 
L 357.935506 296.293891 
L 360.487822 296.196656 
L 362.614751 296.131833 
L 368.570154 296.034598 
L 369.420926 295.904952 
L 375.376329 295.807717 
L 379.630189 295.580836 
L 380.480961 295.548424 
L 381.331732 295.45119 
L 383.458662 295.353955 
L 385.585592 295.289132 
L 387.712521 295.191897 
L 389.839451 295.127074 
L 393.667925 295.029839 
L 396.22024 294.932605 
L 402.175643 294.83537 
L 406.854889 294.576077 
L 408.556432 294.511254 
L 409.83259 294.414019 
L 415.787993 294.316785 
L 418.340309 294.21955 
L 425.997256 294.122315 
L 427.698799 294.089904 
L 432.803431 294.02508 
L 433.654202 293.960257 
L 439.609605 293.863023 
L 441.311149 293.830611 
L 452.371184 293.733376 
L 454.923499 293.636141 
L 472.789708 293.538907 
L 474.916638 293.474084 
L 485.976672 293.40926 
L 486.827444 293.344437 
L 488.954374 293.279614 
L 490.230532 293.149968 
L 492.782847 293.052733 
L 495.760549 292.923087 
L 499.589022 292.825852 
L 501.715952 292.761029 
L 504.693654 292.663794 
L 508.096741 292.501736 
L 510.223671 292.404502 
L 511.925214 292.37209 
L 515.753688 292.274855 
L 517.455232 292.242444 
L 522.985249 292.145209 
L 524.686792 292.112797 
L 526.813722 292.015563 
L 529.366038 291.918328 
L 532.343739 291.853505 
L 533.194511 291.788682 
L 543.403774 291.691447 
L 547.657633 291.464566 
L 550.635334 291.367331 
L 555.31458 291.108039 
L 558.292281 291.010804 
L 559.993825 290.978392 
L 562.971527 290.881158 
L 565.098456 290.654277 
L 569.352316 290.557042 
L 570.203087 290.459807 
L 574.456947 290.362572 
L 576.583877 290.297749 
L 581.263122 290.265338 
L 582.113894 290.168103 
L 586.793139 290.070868 
L 587.643911 290.006045 
L 597.002401 289.90881 
L 599.554717 289.811576 
L 605.935506 289.714341 
L 607.63705 289.681929 
L 611.465523 289.617106 
L 612.316295 289.519871 
L 617.846312 289.422637 
L 619.973242 289.357814 
L 627.630189 289.260579 
L 628.906346 289.163344 
L 630.182504 289.066109 
L 631.458662 288.968875 
L 637.839451 288.87164 
L 640.391767 288.774405 
L 651.877187 288.67717 
L 655.70566 288.482701 
L 660.810292 288.385466 
L 661.661063 288.320643 
L 668.041852 288.25582 
L 668.892624 288.190997 
L 673.57187 288.093762 
L 675.273413 288.06135 
L 681.228816 287.964116 
L 683.781132 287.866881 
L 691.012693 287.769646 
L 692.714237 287.737235 
L 696.54271 287.64 
L 699.945798 287.477942 
L 704.625043 287.380707 
L 707.602744 287.251061 
L 711.431218 287.153826 
L 712.28199 287.089003 
L 720.789708 286.991768 
L 722.916638 286.926945 
L 725.468954 286.829711 
L 728.021269 286.732476 
L 740.782847 286.635241 
L 743.760549 286.505595 
L 747.163636 286.40836 
L 747.163636 286.40836 
" clip-path="url(#p6da0183244)" style="fill: none; stroke: #ff7f0e; stroke-width: 1.5; stroke-linecap: square"/>
   </g>
   <g id="patch_3">
    <path d="M 108 320.4 
L 108 43.2 
" style="fill: none; stroke: #a9a9a9; stroke-width: 0.8; stroke-linejoin: miter; stroke-linecap: square"/>
   </g>
   <g id="patch_4">
    <path d="M 777.6 320.4 
L 777.6 43.2 
" style="fill: none"/>
   </g>
   <g id="patch_5">
    <path d="M 108 320.4 
L 777.6 320.4 
" style="fill: none; stroke: #a9a9a9; stroke-width: 0.8; stroke-linejoin: miter; stroke-linecap: square"/>
   </g>
   <g id="patch_6">
    <path d="M 108 43.2 
L 777.6 43.2 
" style="fill: none"/>
   </g>
   <g id="text_19">
    <!-- get_subscribe history -->
    <g style="fill: #a9a9a9" transform="translate(378.6075 37.2) scale(0.12 -0.12)">
     <defs>
      <path id="DejaVuSans-67" d="M 2906 1791 
Q 2906 2416 2648 2759 
Q 2391 3103 1925 3103 
Q 1463 3103 1205 2759 
Q 947 2416 947 1791 
Q 947 1169 1205 825 
Q 1463 481 1925 481 
Q 2391 481 2648 825 
Q 2906 1169 2906 1791 
z
M 3481 434 
Q 3481 -459 3084 -895 
Q 2688 -1331 1869 -1331 
Q 1566 -1331 1297 -1286 
Q 1028 -1241 775 -1147 
L 775 -588 
Q 1028 -725 1275 -790 
Q 1522 -856 1778 -856 
Q 2344 -856 2625 -561 
Q 2906 -266 2906 331 
L 2906 616 
Q 2728 306 2450 153 
Q 2172 0 1784 0 
Q 1141 0 747 490 
Q 353 981 353 1791 
Q 353 2603 747 3093 
Q 1141 3584 1784 3584 
Q 2172 3584 2450 3431 
Q 2728 3278 2906 2969 
L 2906 3500 
L 3481 3500 
L 3481 434 
z
" transform="scale(0.015625)"/>
      <path id="DejaVuSans-65" d="M 3597 1894 
L 3597 1613 
L 953 1613 
Q 991 1019 1311 708 
Q 1631 397 2203 397 
Q 2534 397 2845 478 
Q 3156 559 3463 722 
L 3463 178 
Q 3153 47 2828 -22 
Q 2503 -91 2169 -91 
Q 1331 -91 842 396 
Q 353 884 353 1716 
Q 353 2575 817 3079 
Q 1281 3584 2069 3584 
Q 2775 3584 3186 3129 
Q 3597 2675 3597 1894 
z
M 3022 2063 
Q 3016 2534 2758 2815 
Q 2500 3097 2075 3097 
Q 1594 3097 1305 2825 
Q 1016 2553 972 2059 
L 3022 2063 
z
" transform="scale(0.015625)"/>
      <path id="DejaVuSans-74" d="M 1172 4494 
L 1172 3500 
L 2356 3500 
L 2356 3053 
L 1172 3053 
L 1172 1153 
Q 1172 725 1289 603 
Q 1406 481 1766 481 
L 2356 481 
L 2356 0 
L 1766 0 
Q 1100 0 847 248 
Q 594 497 594 1153 
L 594 3053 
L 172 3053 
L 172 3500 
L 594 3500 
L 594 4494 
L 1172 4494 
z
" transform="scale(0.015625)"/>
      <path id="DejaVuSans-5f" d="M 3263 -1063 
L 3263 -1509 
L -63 -1509 
L -63 -1063 
L 3263 -1063 
z
" transform="scale(0.015625)"/>
      <path id="DejaVuSans-73" d="M 2834 3397 
L 2834 2853 
Q 2591 2978 2328 3040 
Q 2066 3103 1784 3103 
Q 1356 3103 1142 2972 
Q 928 2841 928 2578 
Q 928 2378 1081 2264 
Q 1234 2150 1697 2047 
L 1894 2003 
Q 2506 1872 2764 1633 
Q 3022 1394 3022 966 
Q 3022 478 2636 193 
Q 2250 -91 1575 -91 
Q 1294 -91 989 -36 
Q 684 19 347 128 
L 347 722 
Q 666 556 975 473 
Q 1284 391 1588 391 
Q 1994 391 2212 530 
Q 2431 669 2431 922 
Q 2431 1156 2273 1281 
Q 2116 1406 1581 1522 
L 1381 1569 
Q 847 1681 609 1914 
Q 372 2147 372 2553 
Q 372 3047 722 3315 
Q 1072 3584 1716 3584 
Q 2034 3584 2315 3537 
Q 2597 3491 2834 3397 
z
" transform="scale(0.015625)"/>
      <path id="DejaVuSans-75" d="M 544 1381 
L 544 3500 
L 1119 3500 
L 1119 1403 
Q 1119 906 1312 657 
Q 1506 409 1894 409 
Q 2359 409 2629 706 
Q 2900 1003 2900 1516 
L 2900 3500 
L 3475 3500 
L 3475 0 
L 2900 0 
L 2900 538 
Q 2691 219 2414 64 
Q 2138 -91 1772 -91 
Q 1169 -91 856 284 
Q 544 659 544 1381 
z
M 1991 3584 
L 1991 3584 
z
" transform="scale(0.015625)"/>
      <path id="DejaVuSans-62" d="M 3116 1747 
Q 3116 2381 2855 2742 
Q 2594 3103 2138 3103 
Q 1681 3103 1420 2742 
Q 1159 2381 1159 1747 
Q 1159 1113 1420 752 
Q 1681 391 2138 391 
Q 2594 391 2855 752 
Q 3116 1113 3116 1747 
z
M 1159 2969 
Q 1341 3281 1617 3432 
Q 1894 3584 2278 3584 
Q 2916 3584 3314 3078 
Q 3713 2572 3713 1747 
Q 3713 922 3314 415 
Q 2916 -91 2278 -91 
Q 1894 -91 1617 61 
Q 1341 213 1159 525 
L 1159 0 
L 581 0 
L 581 4863 
L 1159 4863 
L 1159 2969 
z
" transform="scale(0.015625)"/>
      <path id="DejaVuSans-63" d="M 3122 3366 
L 3122 2828 
Q 2878 2963 2633 3030 
Q 2388 3097 2138 3097 
Q 1578 3097 1268 2742 
Q 959 2388 959 1747 
Q 959 1106 1268 751 
Q 1578 397 2138 397 
Q 2388 397 2633 464 
Q 2878 531 3122 666 
L 3122 134 
Q 2881 22 2623 -34 
Q 2366 -91 2075 -91 
Q 1284 -91 818 406 
Q 353 903 353 1747 
Q 353 2603 823 3093 
Q 1294 3584 2113 3584 
Q 2378 3584 2631 3529 
Q 2884 3475 3122 3366 
z
" transform="scale(0.015625)"/>
      <path id="DejaVuSans-72" d="M 2631 2963 
Q 2534 3019 2420 3045 
Q 2306 3072 2169 3072 
Q 1681 3072 1420 2755 
Q 1159 2438 1159 1844 
L 1159 0 
L 581 0 
L 581 3500 
L 1159 3500 
L 1159 2956 
Q 1341 3275 1631 3429 
Q 1922 3584 2338 3584 
Q 2397 3584 2469 3576 
Q 2541 3569 2628 3553 
L 2631 2963 
z
" transform="scale(0.015625)"/>
      <path id="DejaVuSans-69" d="M 603 3500 
L 1178 3500 
L 1178 0 
L 603 0 
L 603 3500 
z
M 603 4863 
L 1178 4863 
L 1178 4134 
L 603 4134 
L 603 4863 
z
" transform="scale(0.015625)"/>
      <path id="DejaVuSans-20" transform="scale(0.015625)"/>
      <path id="DejaVuSans-68" d="M 3513 2113 
L 3513 0 
L 2938 0 
L 2938 2094 
Q 2938 2591 2744 2837 
Q 2550 3084 2163 3084 
Q 1697 3084 1428 2787 
Q 1159 2491 1159 1978 
L 1159 0 
L 581 0 
L 581 4863 
L 1159 4863 
L 1159 2956 
Q 1366 3272 1645 3428 
Q 1925 3584 2291 3584 
Q 2894 3584 3203 3211 
Q 3513 2838 3513 2113 
z
" transform="scale(0.015625)"/>
      <path id="DejaVuSans-6f" d="M 1959 3097 
Q 1497 3097 1228 2736 
Q 959 2375 959 1747 
Q 959 1119 1226 758 
Q 1494 397 1959 397 
Q 2419 397 2687 759 
Q 2956 1122 2956 1747 
Q 2956 2369 2687 2733 
Q 2419 3097 1959 3097 
z
M 1959 3584 
Q 2709 3584 3137 3096 
Q 3566 2609 3566 1747 
Q 3566 888 3137 398 
Q 2709 -91 1959 -91 
Q 1206 -91 779 398 
Q 353 888 353 1747 
Q 353 2609 779 3096 
Q 1206 3584 1959 3584 
z
" transform="scale(0.015625)"/>
      <path id="DejaVuSans-79" d="M 2059 -325 
Q 1816 -950 1584 -1140 
Q 1353 -1331 966 -1331 
L 506 -1331 
L 506 -850 
L 844 -850 
Q 1081 -850 1212 -737 
Q 1344 -625 1503 -206 
L 1606 56 
L 191 3500 
L 800 3500 
L 1894 763 
L 2988 3500 
L 3597 3500 
L 2059 -325 
z
" transform="scale(0.015625)"/>
     </defs>
     <use xlink:href="#DejaVuSans-67"/>
     <use xlink:href="#DejaVuSans-65" transform="translate(63.476562 0)"/>
     <use xlink:href="#DejaVuSans-74" transform="translate(125 0)"/>
     <use xlink:href="#DejaVuSans-5f" transform="translate(164.208984 0)"/>
     <use xlink:href="#DejaVuSans-73" transform="translate(214.208984 0)"/>
     <use xlink:href="#DejaVuSans-75" transform="translate(266.308594 0)"/>
     <use xlink:href="#DejaVuSans-62" transform="translate(329.6875 0)"/>
     <use xlink:href="#DejaVuSans-73" transform="translate(393.164062 0)"/>
     <use xlink:href="#DejaVuSans-63" transform="translate(445.263672 0)"/>
     <use xlink:href="#DejaVuSans-72" transform="translate(500.244141 0)"/>
     <use xlink:href="#DejaVuSans-69" transform="translate(541.357422 0)"/>
     <use xlink:href="#DejaVuSans-62" transform="translate(569.140625 0)"/>
     <use xlink:href="#DejaVuSans-65" transform="translate(632.617188 0)"/>
     <use xlink:href="#DejaVuSans-20" transform="translate(694.140625 0)"/>
     <use xlink:href="#DejaVuSans-68" transform="translate(725.927734 0)"/>
     <use xlink:href="#DejaVuSans-69" transform="translate(789.306641 0)"/>
     <use xlink:href="#DejaVuSans-73" transform="translate(817.089844 0)"/>
     <use xlink:href="#DejaVuSans-74" transform="translate(869.189453 0)"/>
     <use xlink:href="#DejaVuSans-6f" transform="translate(908.398438 0)"/>
     <use xlink:href="#DejaVuSans-72" transform="translate(969.580078 0)"/>
     <use xlink:href="#DejaVuSans-79" transform="translate(1010.693359 0)"/>
    </g>
   </g>
   <g id="legend_1">
    <g id="line2d_39">
     <path d="M 815.08 328.498438 
L 825.08 328.498438 
L 835.08 328.498438 
" style="fill: none; stroke: #1f77b4; stroke-width: 1.5; stroke-linecap: square"/>
    </g>
    <g id="text_20">
     <!-- star -->
     <g style="fill: #a9a9a9" transform="translate(843.08 331.998438) scale(0.1 -0.1)">
      <defs>
       <path id="DejaVuSans-61" d="M 2194 1759 
Q 1497 1759 1228 1600 
Q 959 1441 959 1056 
Q 959 750 1161 570 
Q 1363 391 1709 391 
Q 2188 391 2477 730 
Q 2766 1069 2766 1631 
L 2766 1759 
L 2194 1759 
z
M 3341 1997 
L 3341 0 
L 2766 0 
L 2766 531 
Q 2569 213 2275 61 
Q 1981 -91 1556 -91 
Q 1019 -91 701 211 
Q 384 513 384 1019 
Q 384 1609 779 1909 
Q 1175 2209 1959 2209 
L 2766 2209 
L 2766 2266 
Q 2766 2663 2505 2880 
Q 2244 3097 1772 3097 
Q 1472 3097 1187 3025 
Q 903 2953 641 2809 
L 641 3341 
Q 956 3463 1253 3523 
Q 1550 3584 1831 3584 
Q 2591 3584 2966 3190 
Q 3341 2797 3341 1997 
z
" transform="scale(0.015625)"/>
      </defs>
      <use xlink:href="#DejaVuSans-73"/>
      <use xlink:href="#DejaVuSans-74" transform="translate(52.099609 0)"/>
      <use xlink:href="#DejaVuSans-61" transform="translate(91.308594 0)"/>
      <use xlink:href="#DejaVuSans-72" transform="translate(152.587891 0)"/>
     </g>
    </g>
    <g id="line2d_40">
     <path d="M 815.08 343.176562 
L 825.08 343.176562 
L 835.08 343.176562 
" style="fill: none; stroke: #ff7f0e; stroke-width: 1.5; stroke-linecap: square"/>
    </g>
    <g id="text_21">
     <!-- fork -->
     <g style="fill: #a9a9a9" transform="translate(843.08 346.676562) scale(0.1 -0.1)">
      <defs>
       <path id="DejaVuSans-66" d="M 2375 4863 
L 2375 4384 
L 1825 4384 
Q 1516 4384 1395 4259 
Q 1275 4134 1275 3809 
L 1275 3500 
L 2222 3500 
L 2222 3053 
L 1275 3053 
L 1275 0 
L 697 0 
L 697 3053 
L 147 3053 
L 147 3500 
L 697 3500 
L 697 3744 
Q 697 4328 969 4595 
Q 1241 4863 1831 4863 
L 2375 4863 
z
" transform="scale(0.015625)"/>
       <path id="DejaVuSans-6b" d="M 581 4863 
L 1159 4863 
L 1159 1991 
L 2875 3500 
L 3609 3500 
L 1753 1863 
L 3688 0 
L 2938 0 
L 1159 1709 
L 1159 0 
L 581 0 
L 581 4863 
z
" transform="scale(0.015625)"/>
      </defs>
      <use xlink:href="#DejaVuSans-66"/>
      <use xlink:href="#DejaVuSans-6f" transform="translate(35.205078 0)"/>
      <use xlink:href="#DejaVuSans-72" transform="translate(96.386719 0)"/>
      <use xlink:href="#DejaVuSans-6b" transform="translate(137.5 0)"/>
     </g>
    </g>
   </g>
  </g>
 </g>
 <defs>
  <clipPath id="p6da0183244">
   <rect x="108" y="43.2" width="669.6" height="277.2"/>
  </clipPath>
 </defs>
</svg>
