<?xml version="1.0" encoding="utf-8" standalone="no"?>
<!DOCTYPE svg PUBLIC "-//W3C//DTD SVG 1.1//EN"
  "http://www.w3.org/Graphics/SVG/1.1/DTD/svg11.dtd">
<svg xmlns:xlink="http://www.w3.org/1999/xlink" width="864pt" height="360pt" viewBox="0 0 864 360" xmlns="http://www.w3.org/2000/svg" version="1.1">
 <metadata>
  <rdf:RDF xmlns:dc="http://purl.org/dc/elements/1.1/" xmlns:cc="http://creativecommons.org/ns#" xmlns:rdf="http://www.w3.org/1999/02/22-rdf-syntax-ns#">
   <cc:Work>
    <dc:type rdf:resource="http://purl.org/dc/dcmitype/StillImage"/>
    <dc:date>2025-04-06T20:06:03.602322</dc:date>
    <dc:format>image/svg+xml</dc:format>
    <dc:creator>
     <cc:Agent>
      <dc:title>Matplotlib v3.10.1, https://matplotlib.org/</dc:title>
     </cc:Agent>
    </dc:creator>
   </cc:Work>
  </rdf:RDF>
 </metadata>
 <defs>
  <style type="text/css">*{stroke-linejoin: round; stroke-linecap: butt}</style>
 </defs>
 <g id="figure_1">
  <g id="patch_1">
   <path d="M 0 360 
L 864 360 
L 864 0 
L 0 0 
L 0 360 
z
" style="fill: none; opacity: 0"/>
  </g>
  <g id="axes_1">
   <g id="patch_2">
    <path d="M 108 320.4 
L 777.6 320.4 
L 777.6 43.2 
L 108 43.2 
L 108 320.4 
z
" style="fill: none; opacity: 0"/>
   </g>
   <g id="matplotlib.axis_1">
    <g id="xtick_1">
     <g id="line2d_1">
      <path d="M 128.080796 320.4 
L 128.080796 43.2 
" clip-path="url(#p715ddf636c)" style="fill: none; stroke-dasharray: 5.12,1.28,0.8,1.28; stroke-dashoffset: 0; stroke: #b0b0b0; stroke-width: 0.8"/>
     </g>
     <g id="line2d_2">
      <defs>
       <path id="m73fdd610c6" d="M 0 0 
L 0 3.5 
" style="stroke: #a9a9a9; stroke-width: 0.8"/>
      </defs>
      <g>
       <use xlink:href="#m73fdd610c6" x="128.080796" y="320.4" style="fill: #a9a9a9; stroke: #a9a9a9; stroke-width: 0.8"/>
      </g>
     </g>
     <g id="text_1">
      <!-- 2021-07 -->
      <g style="fill: #a9a9a9" transform="translate(107.18939 334.998438) scale(0.1 -0.1)">
       <defs>
        <path id="DejaVuSans-32" d="M 1228 531 
L 3431 531 
L 3431 0 
L 469 0 
L 469 531 
Q 828 903 1448 1529 
Q 2069 2156 2228 2338 
Q 2531 2678 2651 2914 
Q 2772 3150 2772 3378 
Q 2772 3750 2511 3984 
Q 2250 4219 1831 4219 
Q 1534 4219 1204 4116 
Q 875 4013 500 3803 
L 500 4441 
Q 881 4594 1212 4672 
Q 1544 4750 1819 4750 
Q 2544 4750 2975 4387 
Q 3406 4025 3406 3419 
Q 3406 3131 3298 2873 
Q 3191 2616 2906 2266 
Q 2828 2175 2409 1742 
Q 1991 1309 1228 531 
z
" transform="scale(0.015625)"/>
        <path id="DejaVuSans-30" d="M 2034 4250 
Q 1547 4250 1301 3770 
Q 1056 3291 1056 2328 
Q 1056 1369 1301 889 
Q 1547 409 2034 409 
Q 2525 409 2770 889 
Q 3016 1369 3016 2328 
Q 3016 3291 2770 3770 
Q 2525 4250 2034 4250 
z
M 2034 4750 
Q 2819 4750 3233 4129 
Q 3647 3509 3647 2328 
Q 3647 1150 3233 529 
Q 2819 -91 2034 -91 
Q 1250 -91 836 529 
Q 422 1150 422 2328 
Q 422 3509 836 4129 
Q 1250 4750 2034 4750 
z
" transform="scale(0.015625)"/>
        <path id="DejaVuSans-31" d="M 794 531 
L 1825 531 
L 1825 4091 
L 703 3866 
L 703 4441 
L 1819 4666 
L 2450 4666 
L 2450 531 
L 3481 531 
L 3481 0 
L 794 0 
L 794 531 
z
" transform="scale(0.015625)"/>
        <path id="DejaVuSans-2d" d="M 313 2009 
L 1997 2009 
L 1997 1497 
L 313 1497 
L 313 2009 
z
" transform="scale(0.015625)"/>
        <path id="DejaVuSans-37" d="M 525 4666 
L 3525 4666 
L 3525 4397 
L 1831 0 
L 1172 0 
L 2766 4134 
L 525 4134 
L 525 4666 
z
" transform="scale(0.015625)"/>
       </defs>
       <use xlink:href="#DejaVuSans-32"/>
       <use xlink:href="#DejaVuSans-30" transform="translate(63.623047 0)"/>
       <use xlink:href="#DejaVuSans-32" transform="translate(127.246094 0)"/>
       <use xlink:href="#DejaVuSans-31" transform="translate(190.869141 0)"/>
       <use xlink:href="#DejaVuSans-2d" transform="translate(254.492188 0)"/>
       <use xlink:href="#DejaVuSans-30" transform="translate(290.576172 0)"/>
       <use xlink:href="#DejaVuSans-37" transform="translate(354.199219 0)"/>
      </g>
     </g>
    </g>
    <g id="xtick_2">
     <g id="line2d_3">
      <path d="M 210.925336 320.4 
L 210.925336 43.2 
" clip-path="url(#p715ddf636c)" style="fill: none; stroke-dasharray: 5.12,1.28,0.8,1.28; stroke-dashoffset: 0; stroke: #b0b0b0; stroke-width: 0.8"/>
     </g>
     <g id="line2d_4">
      <g>
       <use xlink:href="#m73fdd610c6" x="210.925336" y="320.4" style="fill: #a9a9a9; stroke: #a9a9a9; stroke-width: 0.8"/>
      </g>
     </g>
     <g id="text_2">
      <!-- 2022-01 -->
      <g style="fill: #a9a9a9" transform="translate(190.03393 334.998438) scale(0.1 -0.1)">
       <use xlink:href="#DejaVuSans-32"/>
       <use xlink:href="#DejaVuSans-30" transform="translate(63.623047 0)"/>
       <use xlink:href="#DejaVuSans-32" transform="translate(127.246094 0)"/>
       <use xlink:href="#DejaVuSans-32" transform="translate(190.869141 0)"/>
       <use xlink:href="#DejaVuSans-2d" transform="translate(254.492188 0)"/>
       <use xlink:href="#DejaVuSans-30" transform="translate(290.576172 0)"/>
       <use xlink:href="#DejaVuSans-31" transform="translate(354.199219 0)"/>
      </g>
     </g>
    </g>
    <g id="xtick_3">
     <g id="line2d_5">
      <path d="M 292.41915 320.4 
L 292.41915 43.2 
" clip-path="url(#p715ddf636c)" style="fill: none; stroke-dasharray: 5.12,1.28,0.8,1.28; stroke-dashoffset: 0; stroke: #b0b0b0; stroke-width: 0.8"/>
     </g>
     <g id="line2d_6">
      <g>
       <use xlink:href="#m73fdd610c6" x="292.41915" y="320.4" style="fill: #a9a9a9; stroke: #a9a9a9; stroke-width: 0.8"/>
      </g>
     </g>
     <g id="text_3">
      <!-- 2022-07 -->
      <g style="fill: #a9a9a9" transform="translate(271.527744 334.998438) scale(0.1 -0.1)">
       <use xlink:href="#DejaVuSans-32"/>
       <use xlink:href="#DejaVuSans-30" transform="translate(63.623047 0)"/>
       <use xlink:href="#DejaVuSans-32" transform="translate(127.246094 0)"/>
       <use xlink:href="#DejaVuSans-32" transform="translate(190.869141 0)"/>
       <use xlink:href="#DejaVuSans-2d" transform="translate(254.492188 0)"/>
       <use xlink:href="#DejaVuSans-30" transform="translate(290.576172 0)"/>
       <use xlink:href="#DejaVuSans-37" transform="translate(354.199219 0)"/>
      </g>
     </g>
    </g>
    <g id="xtick_4">
     <g id="line2d_7">
      <path d="M 375.26369 320.4 
L 375.26369 43.2 
" clip-path="url(#p715ddf636c)" style="fill: none; stroke-dasharray: 5.12,1.28,0.8,1.28; stroke-dashoffset: 0; stroke: #b0b0b0; stroke-width: 0.8"/>
     </g>
     <g id="line2d_8">
      <g>
       <use xlink:href="#m73fdd610c6" x="375.26369" y="320.4" style="fill: #a9a9a9; stroke: #a9a9a9; stroke-width: 0.8"/>
      </g>
     </g>
     <g id="text_4">
      <!-- 2023-01 -->
      <g style="fill: #a9a9a9" transform="translate(354.372284 334.998438) scale(0.1 -0.1)">
       <defs>
        <path id="DejaVuSans-33" d="M 2597 2516 
Q 3050 2419 3304 2112 
Q 3559 1806 3559 1356 
Q 3559 666 3084 287 
Q 2609 -91 1734 -91 
Q 1441 -91 1130 -33 
Q 819 25 488 141 
L 488 750 
Q 750 597 1062 519 
Q 1375 441 1716 441 
Q 2309 441 2620 675 
Q 2931 909 2931 1356 
Q 2931 1769 2642 2001 
Q 2353 2234 1838 2234 
L 1294 2234 
L 1294 2753 
L 1863 2753 
Q 2328 2753 2575 2939 
Q 2822 3125 2822 3475 
Q 2822 3834 2567 4026 
Q 2313 4219 1838 4219 
Q 1578 4219 1281 4162 
Q 984 4106 628 3988 
L 628 4550 
Q 988 4650 1302 4700 
Q 1616 4750 1894 4750 
Q 2613 4750 3031 4423 
Q 3450 4097 3450 3541 
Q 3450 3153 3228 2886 
Q 3006 2619 2597 2516 
z
" transform="scale(0.015625)"/>
       </defs>
       <use xlink:href="#DejaVuSans-32"/>
       <use xlink:href="#DejaVuSans-30" transform="translate(63.623047 0)"/>
       <use xlink:href="#DejaVuSans-32" transform="translate(127.246094 0)"/>
       <use xlink:href="#DejaVuSans-33" transform="translate(190.869141 0)"/>
       <use xlink:href="#DejaVuSans-2d" transform="translate(254.492188 0)"/>
       <use xlink:href="#DejaVuSans-30" transform="translate(290.576172 0)"/>
       <use xlink:href="#DejaVuSans-31" transform="translate(354.199219 0)"/>
      </g>
     </g>
    </g>
    <g id="xtick_5">
     <g id="line2d_9">
      <path d="M 456.757504 320.4 
L 456.757504 43.2 
" clip-path="url(#p715ddf636c)" style="fill: none; stroke-dasharray: 5.12,1.28,0.8,1.28; stroke-dashoffset: 0; stroke: #b0b0b0; stroke-width: 0.8"/>
     </g>
     <g id="line2d_10">
      <g>
       <use xlink:href="#m73fdd610c6" x="456.757504" y="320.4" style="fill: #a9a9a9; stroke: #a9a9a9; stroke-width: 0.8"/>
      </g>
     </g>
     <g id="text_5">
      <!-- 2023-07 -->
      <g style="fill: #a9a9a9" transform="translate(435.866098 334.998438) scale(0.1 -0.1)">
       <use xlink:href="#DejaVuSans-32"/>
       <use xlink:href="#DejaVuSans-30" transform="translate(63.623047 0)"/>
       <use xlink:href="#DejaVuSans-32" transform="translate(127.246094 0)"/>
       <use xlink:href="#DejaVuSans-33" transform="translate(190.869141 0)"/>
       <use xlink:href="#DejaVuSans-2d" transform="translate(254.492188 0)"/>
       <use xlink:href="#DejaVuSans-30" transform="translate(290.576172 0)"/>
       <use xlink:href="#DejaVuSans-37" transform="translate(354.199219 0)"/>
      </g>
     </g>
    </g>
    <g id="xtick_6">
     <g id="line2d_11">
      <path d="M 539.602044 320.4 
L 539.602044 43.2 
" clip-path="url(#p715ddf636c)" style="fill: none; stroke-dasharray: 5.12,1.28,0.8,1.28; stroke-dashoffset: 0; stroke: #b0b0b0; stroke-width: 0.8"/>
     </g>
     <g id="line2d_12">
      <g>
       <use xlink:href="#m73fdd610c6" x="539.602044" y="320.4" style="fill: #a9a9a9; stroke: #a9a9a9; stroke-width: 0.8"/>
      </g>
     </g>
     <g id="text_6">
      <!-- 2024-01 -->
      <g style="fill: #a9a9a9" transform="translate(518.710638 334.998438) scale(0.1 -0.1)">
       <defs>
        <path id="DejaVuSans-34" d="M 2419 4116 
L 825 1625 
L 2419 1625 
L 2419 4116 
z
M 2253 4666 
L 3047 4666 
L 3047 1625 
L 3713 1625 
L 3713 1100 
L 3047 1100 
L 3047 0 
L 2419 0 
L 2419 1100 
L 313 1100 
L 313 1709 
L 2253 4666 
z
" transform="scale(0.015625)"/>
       </defs>
       <use xlink:href="#DejaVuSans-32"/>
       <use xlink:href="#DejaVuSans-30" transform="translate(63.623047 0)"/>
       <use xlink:href="#DejaVuSans-32" transform="translate(127.246094 0)"/>
       <use xlink:href="#DejaVuSans-34" transform="translate(190.869141 0)"/>
       <use xlink:href="#DejaVuSans-2d" transform="translate(254.492188 0)"/>
       <use xlink:href="#DejaVuSans-30" transform="translate(290.576172 0)"/>
       <use xlink:href="#DejaVuSans-31" transform="translate(354.199219 0)"/>
      </g>
     </g>
    </g>
    <g id="xtick_7">
     <g id="line2d_13">
      <path d="M 621.5461 320.4 
L 621.5461 43.2 
" clip-path="url(#p715ddf636c)" style="fill: none; stroke-dasharray: 5.12,1.28,0.8,1.28; stroke-dashoffset: 0; stroke: #b0b0b0; stroke-width: 0.8"/>
     </g>
     <g id="line2d_14">
      <g>
       <use xlink:href="#m73fdd610c6" x="621.5461" y="320.4" style="fill: #a9a9a9; stroke: #a9a9a9; stroke-width: 0.8"/>
      </g>
     </g>
     <g id="text_7">
      <!-- 2024-07 -->
      <g style="fill: #a9a9a9" transform="translate(600.654694 334.998438) scale(0.1 -0.1)">
       <use xlink:href="#DejaVuSans-32"/>
       <use xlink:href="#DejaVuSans-30" transform="translate(63.623047 0)"/>
       <use xlink:href="#DejaVuSans-32" transform="translate(127.246094 0)"/>
       <use xlink:href="#DejaVuSans-34" transform="translate(190.869141 0)"/>
       <use xlink:href="#DejaVuSans-2d" transform="translate(254.492188 0)"/>
       <use xlink:href="#DejaVuSans-30" transform="translate(290.576172 0)"/>
       <use xlink:href="#DejaVuSans-37" transform="translate(354.199219 0)"/>
      </g>
     </g>
    </g>
    <g id="xtick_8">
     <g id="line2d_15">
      <path d="M 704.39064 320.4 
L 704.39064 43.2 
" clip-path="url(#p715ddf636c)" style="fill: none; stroke-dasharray: 5.12,1.28,0.8,1.28; stroke-dashoffset: 0; stroke: #b0b0b0; stroke-width: 0.8"/>
     </g>
     <g id="line2d_16">
      <g>
       <use xlink:href="#m73fdd610c6" x="704.39064" y="320.4" style="fill: #a9a9a9; stroke: #a9a9a9; stroke-width: 0.8"/>
      </g>
     </g>
     <g id="text_8">
      <!-- 2025-01 -->
      <g style="fill: #a9a9a9" transform="translate(683.499234 334.998438) scale(0.1 -0.1)">
       <defs>
        <path id="DejaVuSans-35" d="M 691 4666 
L 3169 4666 
L 3169 4134 
L 1269 4134 
L 1269 2991 
Q 1406 3038 1543 3061 
Q 1681 3084 1819 3084 
Q 2600 3084 3056 2656 
Q 3513 2228 3513 1497 
Q 3513 744 3044 326 
Q 2575 -91 1722 -91 
Q 1428 -91 1123 -41 
Q 819 9 494 109 
L 494 744 
Q 775 591 1075 516 
Q 1375 441 1709 441 
Q 2250 441 2565 725 
Q 2881 1009 2881 1497 
Q 2881 1984 2565 2268 
Q 2250 2553 1709 2553 
Q 1456 2553 1204 2497 
Q 953 2441 691 2322 
L 691 4666 
z
" transform="scale(0.015625)"/>
       </defs>
       <use xlink:href="#DejaVuSans-32"/>
       <use xlink:href="#DejaVuSans-30" transform="translate(63.623047 0)"/>
       <use xlink:href="#DejaVuSans-32" transform="translate(127.246094 0)"/>
       <use xlink:href="#DejaVuSans-35" transform="translate(190.869141 0)"/>
       <use xlink:href="#DejaVuSans-2d" transform="translate(254.492188 0)"/>
       <use xlink:href="#DejaVuSans-30" transform="translate(290.576172 0)"/>
       <use xlink:href="#DejaVuSans-31" transform="translate(354.199219 0)"/>
      </g>
     </g>
    </g>
   </g>
   <g id="matplotlib.axis_2">
    <g id="ytick_1">
     <g id="line2d_17">
      <path d="M 108 307.833582 
L 777.6 307.833582 
" clip-path="url(#p715ddf636c)" style="fill: none; stroke-dasharray: 5.12,1.28,0.8,1.28; stroke-dashoffset: 0; stroke: #b0b0b0; stroke-width: 0.8"/>
     </g>
     <g id="line2d_18">
      <defs>
       <path id="m065046c430" d="M 0 0 
L -3.5 0 
" style="stroke: #a9a9a9; stroke-width: 0.8"/>
      </defs>
      <g>
       <use xlink:href="#m065046c430" x="108" y="307.833582" style="fill: #a9a9a9; stroke: #a9a9a9; stroke-width: 0.8"/>
      </g>
     </g>
     <g id="text_9">
      <!-- 0 -->
      <g style="fill: #a9a9a9" transform="translate(94.6375 311.632801) scale(0.1 -0.1)">
       <use xlink:href="#DejaVuSans-30"/>
      </g>
     </g>
    </g>
    <g id="ytick_2">
     <g id="line2d_19">
      <path d="M 108 274.251493 
L 777.6 274.251493 
" clip-path="url(#p715ddf636c)" style="fill: none; stroke-dasharray: 5.12,1.28,0.8,1.28; stroke-dashoffset: 0; stroke: #b0b0b0; stroke-width: 0.8"/>
     </g>
     <g id="line2d_20">
      <g>
       <use xlink:href="#m065046c430" x="108" y="274.251493" style="fill: #a9a9a9; stroke: #a9a9a9; stroke-width: 0.8"/>
      </g>
     </g>
     <g id="text_10">
      <!-- 1000 -->
      <g style="fill: #a9a9a9" transform="translate(75.55 278.050711) scale(0.1 -0.1)">
       <use xlink:href="#DejaVuSans-31"/>
       <use xlink:href="#DejaVuSans-30" transform="translate(63.623047 0)"/>
       <use xlink:href="#DejaVuSans-30" transform="translate(127.246094 0)"/>
       <use xlink:href="#DejaVuSans-30" transform="translate(190.869141 0)"/>
      </g>
     </g>
    </g>
    <g id="ytick_3">
     <g id="line2d_21">
      <path d="M 108 240.669403 
L 777.6 240.669403 
" clip-path="url(#p715ddf636c)" style="fill: none; stroke-dasharray: 5.12,1.28,0.8,1.28; stroke-dashoffset: 0; stroke: #b0b0b0; stroke-width: 0.8"/>
     </g>
     <g id="line2d_22">
      <g>
       <use xlink:href="#m065046c430" x="108" y="240.669403" style="fill: #a9a9a9; stroke: #a9a9a9; stroke-width: 0.8"/>
      </g>
     </g>
     <g id="text_11">
      <!-- 2000 -->
      <g style="fill: #a9a9a9" transform="translate(75.55 244.468622) scale(0.1 -0.1)">
       <use xlink:href="#DejaVuSans-32"/>
       <use xlink:href="#DejaVuSans-30" transform="translate(63.623047 0)"/>
       <use xlink:href="#DejaVuSans-30" transform="translate(127.246094 0)"/>
       <use xlink:href="#DejaVuSans-30" transform="translate(190.869141 0)"/>
      </g>
     </g>
    </g>
    <g id="ytick_4">
     <g id="line2d_23">
      <path d="M 108 207.087313 
L 777.6 207.087313 
" clip-path="url(#p715ddf636c)" style="fill: none; stroke-dasharray: 5.12,1.28,0.8,1.28; stroke-dashoffset: 0; stroke: #b0b0b0; stroke-width: 0.8"/>
     </g>
     <g id="line2d_24">
      <g>
       <use xlink:href="#m065046c430" x="108" y="207.087313" style="fill: #a9a9a9; stroke: #a9a9a9; stroke-width: 0.8"/>
      </g>
     </g>
     <g id="text_12">
      <!-- 3000 -->
      <g style="fill: #a9a9a9" transform="translate(75.55 210.886532) scale(0.1 -0.1)">
       <use xlink:href="#DejaVuSans-33"/>
       <use xlink:href="#DejaVuSans-30" transform="translate(63.623047 0)"/>
       <use xlink:href="#DejaVuSans-30" transform="translate(127.246094 0)"/>
       <use xlink:href="#DejaVuSans-30" transform="translate(190.869141 0)"/>
      </g>
     </g>
    </g>
    <g id="ytick_5">
     <g id="line2d_25">
      <path d="M 108 173.505224 
L 777.6 173.505224 
" clip-path="url(#p715ddf636c)" style="fill: none; stroke-dasharray: 5.12,1.28,0.8,1.28; stroke-dashoffset: 0; stroke: #b0b0b0; stroke-width: 0.8"/>
     </g>
     <g id="line2d_26">
      <g>
       <use xlink:href="#m065046c430" x="108" y="173.505224" style="fill: #a9a9a9; stroke: #a9a9a9; stroke-width: 0.8"/>
      </g>
     </g>
     <g id="text_13">
      <!-- 4000 -->
      <g style="fill: #a9a9a9" transform="translate(75.55 177.304443) scale(0.1 -0.1)">
       <use xlink:href="#DejaVuSans-34"/>
       <use xlink:href="#DejaVuSans-30" transform="translate(63.623047 0)"/>
       <use xlink:href="#DejaVuSans-30" transform="translate(127.246094 0)"/>
       <use xlink:href="#DejaVuSans-30" transform="translate(190.869141 0)"/>
      </g>
     </g>
    </g>
    <g id="ytick_6">
     <g id="line2d_27">
      <path d="M 108 139.923134 
L 777.6 139.923134 
" clip-path="url(#p715ddf636c)" style="fill: none; stroke-dasharray: 5.12,1.28,0.8,1.28; stroke-dashoffset: 0; stroke: #b0b0b0; stroke-width: 0.8"/>
     </g>
     <g id="line2d_28">
      <g>
       <use xlink:href="#m065046c430" x="108" y="139.923134" style="fill: #a9a9a9; stroke: #a9a9a9; stroke-width: 0.8"/>
      </g>
     </g>
     <g id="text_14">
      <!-- 5000 -->
      <g style="fill: #a9a9a9" transform="translate(75.55 143.722353) scale(0.1 -0.1)">
       <use xlink:href="#DejaVuSans-35"/>
       <use xlink:href="#DejaVuSans-30" transform="translate(63.623047 0)"/>
       <use xlink:href="#DejaVuSans-30" transform="translate(127.246094 0)"/>
       <use xlink:href="#DejaVuSans-30" transform="translate(190.869141 0)"/>
      </g>
     </g>
    </g>
    <g id="ytick_7">
     <g id="line2d_29">
      <path d="M 108 106.341045 
L 777.6 106.341045 
" clip-path="url(#p715ddf636c)" style="fill: none; stroke-dasharray: 5.12,1.28,0.8,1.28; stroke-dashoffset: 0; stroke: #b0b0b0; stroke-width: 0.8"/>
     </g>
     <g id="line2d_30">
      <g>
       <use xlink:href="#m065046c430" x="108" y="106.341045" style="fill: #a9a9a9; stroke: #a9a9a9; stroke-width: 0.8"/>
      </g>
     </g>
     <g id="text_15">
      <!-- 6000 -->
      <g style="fill: #a9a9a9" transform="translate(75.55 110.140264) scale(0.1 -0.1)">
       <defs>
        <path id="DejaVuSans-36" d="M 2113 2584 
Q 1688 2584 1439 2293 
Q 1191 2003 1191 1497 
Q 1191 994 1439 701 
Q 1688 409 2113 409 
Q 2538 409 2786 701 
Q 3034 994 3034 1497 
Q 3034 2003 2786 2293 
Q 2538 2584 2113 2584 
z
M 3366 4563 
L 3366 3988 
Q 3128 4100 2886 4159 
Q 2644 4219 2406 4219 
Q 1781 4219 1451 3797 
Q 1122 3375 1075 2522 
Q 1259 2794 1537 2939 
Q 1816 3084 2150 3084 
Q 2853 3084 3261 2657 
Q 3669 2231 3669 1497 
Q 3669 778 3244 343 
Q 2819 -91 2113 -91 
Q 1303 -91 875 529 
Q 447 1150 447 2328 
Q 447 3434 972 4092 
Q 1497 4750 2381 4750 
Q 2619 4750 2861 4703 
Q 3103 4656 3366 4563 
z
" transform="scale(0.015625)"/>
       </defs>
       <use xlink:href="#DejaVuSans-36"/>
       <use xlink:href="#DejaVuSans-30" transform="translate(63.623047 0)"/>
       <use xlink:href="#DejaVuSans-30" transform="translate(127.246094 0)"/>
       <use xlink:href="#DejaVuSans-30" transform="translate(190.869141 0)"/>
      </g>
     </g>
    </g>
    <g id="ytick_8">
     <g id="line2d_31">
      <path d="M 108 72.758955 
L 777.6 72.758955 
" clip-path="url(#p715ddf636c)" style="fill: none; stroke-dasharray: 5.12,1.28,0.8,1.28; stroke-dashoffset: 0; stroke: #b0b0b0; stroke-width: 0.8"/>
     </g>
     <g id="line2d_32">
      <g>
       <use xlink:href="#m065046c430" x="108" y="72.758955" style="fill: #a9a9a9; stroke: #a9a9a9; stroke-width: 0.8"/>
      </g>
     </g>
     <g id="text_16">
      <!-- 7000 -->
      <g style="fill: #a9a9a9" transform="translate(75.55 76.558174) scale(0.1 -0.1)">
       <use xlink:href="#DejaVuSans-37"/>
       <use xlink:href="#DejaVuSans-30" transform="translate(63.623047 0)"/>
       <use xlink:href="#DejaVuSans-30" transform="translate(127.246094 0)"/>
       <use xlink:href="#DejaVuSans-30" transform="translate(190.869141 0)"/>
      </g>
     </g>
    </g>
   </g>
   <g id="line2d_33">
    <path d="M 138.436364 307.732836 
L 141.137816 307.497761 
L 141.588058 307.296269 
L 143.389026 307.061194 
L 145.189995 306.691791 
L 146.090479 306.557463 
L 148.341689 306.35597 
L 149.242173 305.986567 
L 149.692415 305.38209 
L 150.142657 305.079851 
L 150.592899 304.072388 
L 151.043141 304.005224 
L 151.493384 303.635821 
L 152.393868 303.165672 
L 154.194836 301.68806 
L 155.995804 300.781343 
L 157.34653 300.143284 
L 157.796772 299.404478 
L 158.697257 298.732836 
L 159.147499 298.531343 
L 163.649919 297.859701 
L 164.100161 297.658209 
L 167.251856 297.389552 
L 169.052824 296.952985 
L 172.654761 296.449254 
L 173.105003 296.214179 
L 173.555245 296.147015 
L 174.455729 295.844776 
L 177.607423 295.307463 
L 178.507907 295.038806 
L 182.560086 294.333582 
L 183.46057 294.13209 
L 184.361054 294.098507 
L 186.162023 293.66194 
L 186.612265 293.023881 
L 187.962991 292.486567 
L 189.313717 292.117164 
L 189.763959 291.88209 
L 190.664443 291.714179 
L 192.465412 291.176866 
L 193.365896 291.109701 
L 194.26638 290.874627 
L 196.067348 290.404478 
L 196.51759 290.370896 
L 197.418074 289.934328 
L 197.868316 289.867164 
L 198.318558 289.63209 
L 203.271221 288.792537 
L 205.072189 288.255224 
L 205.522431 287.952985 
L 207.773642 287.214179 
L 208.674126 286.576119 
L 210.024852 286.307463 
L 219.930178 283.385821 
L 220.38042 283.352239 
L 221.731146 282.949254 
L 222.181388 282.949254 
L 222.63163 282.747761 
L 223.532114 282.647015 
L 223.982356 282.479104 
L 225.783324 282.41194 
L 226.683808 282.24403 
L 227.584293 281.773881 
L 228.935019 281.270149 
L 229.385261 280.96791 
L 230.285745 280.564925 
L 230.735987 280.329851 
L 231.636471 280.027612 
L 232.086713 279.893284 
L 232.987197 279.322388 
L 233.437439 278.818657 
L 234.337924 277.408209 
L 234.788166 277.273881 
L 235.238408 277.273881 
L 236.589134 276.46791 
L 237.039376 276.232836 
L 237.489618 276.13209 
L 237.93986 275.695522 
L 238.840344 275.326119 
L 239.740828 274.889552 
L 241.992039 271.96791 
L 244.693491 270.490299 
L 245.593975 269.751493 
L 246.044217 269.449254 
L 246.494459 268.811194 
L 246.944701 267.770149 
L 247.394944 267.064925 
L 247.845186 266.695522 
L 248.295428 266.49403 
L 251.897364 263.135821 
L 252.797848 262.296269 
L 255.499301 260.583582 
L 255.949543 260.415672 
L 257.300269 259.609701 
L 258.650995 258.702985 
L 260.451963 257.057463 
L 261.352448 256.68806 
L 262.252932 256.05 
L 262.703174 255.781343 
L 263.153416 255.714179 
L 264.504142 254.941791 
L 264.954384 254.43806 
L 267.205594 253.195522 
L 267.655836 253.027612 
L 269.006563 252.087313 
L 275.760194 249.669403 
L 276.660678 248.829851 
L 278.011404 248.158209 
L 278.911888 247.587313 
L 279.812372 247.318657 
L 280.262614 247.016418 
L 280.712856 246.88209 
L 282.063583 245.975373 
L 284.314793 245.471642 
L 285.665519 244.665672 
L 287.016245 244.363433 
L 287.466487 244.262687 
L 288.817214 243.221642 
L 290.618182 242.71791 
L 291.068424 242.348507 
L 293.769876 241.408209 
L 294.67036 241.240299 
L 295.570845 240.870896 
L 298.722539 239.695522 
L 299.623023 239.561194 
L 300.973749 239.091045 
L 303.22496 237.982836 
L 305.025928 236.975373 
L 308.627864 235.464179 
L 309.078107 235.397015 
L 309.978591 234.826119 
L 310.879075 234.591045 
L 312.229801 234.053731 
L 314.030769 233.818657 
L 314.931253 233.348507 
L 315.381495 232.945522 
L 315.831737 232.10597 
L 317.632706 231.602239 
L 318.983432 230.897015 
L 319.883916 230.594776 
L 320.7844 230.124627 
L 323.485853 229.016418 
L 324.386337 228.814925 
L 325.286821 228.344776 
L 325.737063 228.143284 
L 326.187305 228.076119 
L 328.438515 226.96791 
L 329.338999 226.397015 
L 330.689726 226.128358 
L 332.940936 225.557463 
L 333.391178 225.18806 
L 334.291662 224.885821 
L 336.542873 223.979104 
L 336.993115 223.643284 
L 337.443357 223.475373 
L 338.343841 222.971642 
L 340.144809 222.400746 
L 341.045293 221.829851 
L 341.495535 221.359701 
L 341.945777 221.091045 
L 342.396019 220.990299 
L 343.296503 220.251493 
L 343.746746 220.184328 
L 344.196988 219.445522 
L 344.64723 219.24403 
L 345.097472 218.874627 
L 345.547714 218.807463 
L 346.448198 218.236567 
L 347.348682 217.934328 
L 347.798924 217.598507 
L 348.249166 217.430597 
L 350.050134 216.221642 
L 351.400861 215.516418 
L 352.301345 215.281343 
L 353.201829 214.777612 
L 353.652071 214.005224 
L 354.552555 213.333582 
L 355.002797 213.232836 
L 357.70425 211.923134 
L 358.604734 211.553731 
L 359.95546 210.41194 
L 360.855944 209.639552 
L 361.756428 209.102239 
L 362.20667 208.598507 
L 362.656912 208.296269 
L 363.557396 207.557463 
L 364.007639 207.35597 
L 364.908123 206.449254 
L 365.808607 206.147015 
L 366.709091 205.542537 
L 368.059817 204.837313 
L 368.510059 204.770149 
L 369.860785 204.031343 
L 370.761269 203.460448 
L 375.26369 201.781343 
L 375.713932 201.41194 
L 377.5149 200.706716 
L 377.965143 200.572388 
L 378.865627 199.96791 
L 379.766111 199.598507 
L 380.666595 198.960448 
L 381.567079 197.147015 
L 382.467563 196.072388 
L 383.818289 195.367164 
L 384.718774 194.997761 
L 385.169016 194.930597 
L 385.619258 194.66194 
L 387.870468 193.923134 
L 388.32071 193.721642 
L 389.221194 193.117164 
L 390.57192 192.546269 
L 391.472405 192.042537 
L 392.372889 191.505224 
L 392.823131 191.202985 
L 393.273373 190.699254 
L 394.173857 190.195522 
L 396.425067 188.952985 
L 399.12652 187.609701 
L 400.477246 187.206716 
L 401.827972 186.669403 
L 402.278214 186.333582 
L 403.178698 186.064925 
L 404.079182 185.695522 
L 404.529424 185.326119 
L 406.330393 184.68806 
L 407.230877 184.05 
L 408.131361 183.680597 
L 409.031845 182.975373 
L 409.932329 182.706716 
L 410.382571 182.303731 
L 410.832813 182.236567 
L 411.733297 181.531343 
L 412.633782 181.061194 
L 413.084024 180.859701 
L 413.534266 180.389552 
L 416.68596 179.113433 
L 417.586444 178.710448 
L 418.937171 178.273881 
L 419.837655 178.139552 
L 420.287897 177.93806 
L 420.738139 177.870896 
L 421.638623 177.46791 
L 422.088865 177.434328 
L 423.889833 176.762687 
L 425.240559 175.788806 
L 425.690802 175.620896 
L 426.591286 175.117164 
L 427.041528 174.982836 
L 429.74298 173.43806 
L 430.193222 173.337313 
L 431.543948 172.531343 
L 432.894675 172.061194 
L 433.795159 171.758955 
L 435.596127 171.154478 
L 436.496611 170.852239 
L 438.297579 170.482836 
L 438.747821 170.281343 
L 439.648306 170.046269 
L 440.098548 169.844776 
L 440.54879 169.777612 
L 440.999032 169.542537 
L 441.899516 169.374627 
L 443.250242 168.870896 
L 444.150726 168.770149 
L 445.501452 168.46791 
L 447.752663 168.064925 
L 459.458956 164.572388 
L 459.909198 164.102239 
L 460.809683 163.732836 
L 464.411619 162.35597 
L 464.861861 162.087313 
L 466.212587 161.684328 
L 467.113072 161.449254 
L 467.563314 161.147015 
L 468.013556 161.046269 
L 468.463798 160.643284 
L 469.814524 160.374627 
L 470.715008 159.93806 
L 471.16525 159.400746 
L 472.966218 158.964179 
L 476.117913 158.292537 
L 476.568155 158.292537 
L 477.018397 158.091045 
L 478.819365 157.755224 
L 479.269607 157.553731 
L 481.070576 157.21791 
L 481.97106 156.814925 
L 482.871544 156.647015 
L 485.122754 156.076119 
L 486.923722 155.505224 
L 487.373964 155.404478 
L 487.824207 155.169403 
L 488.724691 154.934328 
L 489.625175 154.564925 
L 490.525659 154.229104 
L 490.975901 153.926866 
L 491.876385 153.658209 
L 495.478322 152.415672 
L 496.378806 152.348507 
L 498.179774 151.811194 
L 498.630016 151.542537 
L 499.5305 151.273881 
L 501.781711 150.232836 
L 502.231953 150.199254 
L 507.184615 148.419403 
L 509.435826 147.814925 
L 510.33631 147.378358 
L 511.687036 147.076119 
L 513.488004 145.598507 
L 515.288973 144.826119 
L 516.189457 144.423134 
L 518.890909 143.38209 
L 519.341151 143.079851 
L 521.592361 142.341045 
L 522.943088 141.568657 
L 523.39333 141.46791 
L 525.194298 140.460448 
L 526.995266 139.654478 
L 527.445508 139.318657 
L 528.345992 139.016418 
L 530.597203 137.874627 
L 531.947929 137.404478 
L 533.748897 136.665672 
L 535.099623 136.16194 
L 535.549866 135.99403 
L 536.45035 135.859701 
L 536.900592 135.557463 
L 538.70156 135.18806 
L 539.602044 134.818657 
L 541.403012 133.979104 
L 547.706401 131.225373 
L 549.057127 130.788806 
L 549.50737 130.486567 
L 550.407854 130.385821 
L 550.858096 130.083582 
L 551.75858 129.915672 
L 552.659064 129.479104 
L 553.109306 129.277612 
L 554.00979 129.042537 
L 554.910274 128.773881 
L 556.261001 128.270149 
L 557.611727 127.833582 
L 558.962453 127.531343 
L 560.763421 126.792537 
L 561.663905 126.288806 
L 563.464874 125.38209 
L 564.365358 125.180597 
L 564.8156 124.91194 
L 565.265842 124.811194 
L 566.616568 124.038806 
L 567.517052 123.669403 
L 569.31802 122.964179 
L 571.569231 122.191791 
L 572.469715 121.721642 
L 574.720925 120.949254 
L 577.422378 119.841045 
L 579.223346 119.001493 
L 583.725767 117.255224 
L 584.626251 116.818657 
L 585.076493 116.71791 
L 585.526735 116.482836 
L 587.327703 115.979104 
L 589.128671 114.501493 
L 589.578913 114.367164 
L 590.029155 114.098507 
L 591.379882 113.729104 
L 591.830124 113.393284 
L 592.280366 113.292537 
L 593.18085 112.721642 
L 594.531576 112.016418 
L 595.43206 111.647015 
L 595.882302 111.41194 
L 597.233029 111.109701 
L 599.484239 110.337313 
L 600.384723 110.035075 
L 601.735449 109.329851 
L 602.635933 108.893284 
L 603.536417 108.658209 
L 604.887144 108.020149 
L 608.939322 106.508955 
L 610.290048 105.669403 
L 610.74029 105.568657 
L 611.640775 105.13209 
L 612.541259 104.796269 
L 612.991501 104.393284 
L 613.891985 104.023881 
L 615.242711 103.553731 
L 615.692953 103.184328 
L 616.143195 103.150746 
L 617.043679 102.88209 
L 617.944164 102.579851 
L 618.394406 102.378358 
L 618.844648 102.311194 
L 620.195374 101.807463 
L 621.5461 101.303731 
L 623.347068 100.497761 
L 623.79731 100.430597 
L 627.399247 98.919403 
L 628.749973 98.482836 
L 629.650457 98.415672 
L 630.550941 98.046269 
L 633.252394 97.240299 
L 634.152878 97.206716 
L 637.754814 96.031343 
L 638.655299 95.561194 
L 639.105541 95.158209 
L 640.456267 94.352239 
L 640.906509 94.016418 
L 642.257235 93.579851 
L 643.157719 93.311194 
L 643.607961 93.076119 
L 644.058203 92.975373 
L 644.508445 92.60597 
L 647.209898 91.464179 
L 649.010866 90.99403 
L 649.91135 90.591045 
L 650.361592 90.35597 
L 651.262076 90.087313 
L 651.712318 89.818657 
L 652.612803 89.650746 
L 656.214739 88.10597 
L 656.664981 88.038806 
L 657.115223 87.736567 
L 657.565465 87.568657 
L 658.015707 87.165672 
L 658.465949 87.098507 
L 660.266918 86.393284 
L 662.067886 85.956716 
L 662.518128 85.889552 
L 662.96837 85.68806 
L 663.418612 85.654478 
L 664.319096 85.352239 
L 664.769338 85.318657 
L 666.120065 84.781343 
L 667.921033 84.24403 
L 668.821517 83.572388 
L 670.622485 82.564925 
L 671.973211 82.094776 
L 675.575148 80.38209 
L 676.02539 80.147015 
L 676.475632 79.710448 
L 678.726842 79.10597 
L 680.077569 78.501493 
L 680.978053 78.266418 
L 681.428295 78.031343 
L 681.878537 77.66194 
L 683.679505 77.191791 
L 684.129747 76.85597 
L 689.982894 74.740299 
L 690.883378 74.572388 
L 693.134588 73.867164 
L 694.035073 73.497761 
L 694.935557 73.16194 
L 695.836041 72.926866 
L 696.286283 72.725373 
L 696.736525 72.725373 
L 697.637009 72.35597 
L 698.537493 71.818657 
L 700.788704 71.046269 
L 702.13943 70.576119 
L 702.589672 70.508955 
L 703.490156 70.139552 
L 704.840882 69.837313 
L 706.191608 69.400746 
L 706.64185 69.3 
L 707.092093 68.997761 
L 707.992577 68.796269 
L 716.997418 66.210448 
L 719.248628 65.807463 
L 720.149112 65.370896 
L 721.049597 64.934328 
L 722.400323 64.531343 
L 726.902743 62.885821 
L 727.352985 62.55 
L 728.703712 62.247761 
L 729.604196 61.979104 
L 730.50468 61.542537 
L 730.954922 61.139552 
L 731.855406 60.837313 
L 732.305648 60.568657 
L 733.206132 60.46791 
L 736.357827 59.594776 
L 737.708553 59.326119 
L 740.410005 58.419403 
L 742.210974 57.546269 
L 747.163636 55.8 
L 747.163636 55.8 
" clip-path="url(#p715ddf636c)" style="fill: none; stroke: #1f77b4; stroke-width: 1.5; stroke-linecap: square"/>
   </g>
   <g id="line2d_34">
    <path d="M 138.886606 307.8 
L 142.938784 307.699254 
L 146.540721 307.531343 
L 148.341689 307.531343 
L 148.791931 307.397015 
L 151.043141 307.296269 
L 153.744594 306.99403 
L 156.446046 306.893284 
L 157.34653 306.792537 
L 160.498225 306.658209 
L 163.649919 306.557463 
L 165.90113 306.490299 
L 171.754276 306.389552 
L 174.005487 306.322388 
L 178.057665 306.221642 
L 179.858634 306.18806 
L 184.361054 306.087313 
L 186.162023 305.919403 
L 187.962991 305.885821 
L 190.664443 305.785075 
L 192.465412 305.751493 
L 194.716622 305.684328 
L 196.51759 305.516418 
L 200.569769 305.415672 
L 201.470253 305.348507 
L 203.271221 305.247761 
L 205.972673 305.147015 
L 207.773642 305.046269 
L 215.877999 304.542537 
L 219.029693 304.441791 
L 220.38042 304.307463 
L 222.63163 304.206716 
L 227.134051 303.971642 
L 231.636471 303.904478 
L 233.437439 303.702985 
L 235.238408 303.602239 
L 240.19107 303.13209 
L 243.342765 302.762687 
L 244.693491 302.695522 
L 248.295428 302.225373 
L 250.99688 302.158209 
L 252.347606 302.023881 
L 253.698332 301.923134 
L 266.30511 300.949254 
L 267.205594 300.781343 
L 269.907047 300.680597 
L 277.11092 300.24403 
L 280.262614 300.143284 
L 282.063583 299.941791 
L 284.314793 299.841045 
L 287.016245 299.740299 
L 289.267456 299.639552 
L 291.068424 299.60597 
L 293.319634 299.538806 
L 294.220118 299.404478 
L 300.523507 299.303731 
L 301.423991 299.202985 
L 306.826896 299.102239 
L 310.879075 298.900746 
L 314.030769 298.8 
L 315.831737 298.598507 
L 318.983432 298.497761 
L 319.883916 298.329851 
L 322.135126 298.262687 
L 326.637547 298.195522 
L 328.438515 298.027612 
L 330.239484 297.99403 
L 331.59021 297.893284 
L 333.391178 297.725373 
L 337.893599 297.490299 
L 342.396019 297.389552 
L 346.448198 297.18806 
L 347.798924 297.154478 
L 348.699408 297.020149 
L 350.950619 296.919403 
L 351.851103 296.852239 
L 352.751587 296.785075 
L 353.652071 296.71791 
L 357.70425 296.650746 
L 359.054976 296.55 
L 371.211512 295.74403 
L 373.462722 295.643284 
L 375.713932 295.576119 
L 382.017321 295.475373 
L 382.917805 295.341045 
L 389.221194 295.240299 
L 393.723615 295.005224 
L 394.624099 294.971642 
L 395.524583 294.870896 
L 397.775793 294.770149 
L 400.027004 294.702985 
L 402.278214 294.602239 
L 404.529424 294.535075 
L 408.581603 294.434328 
L 411.283055 294.333582 
L 417.586444 294.232836 
L 422.539107 293.964179 
L 424.340075 293.897015 
L 425.690802 293.796269 
L 431.99419 293.695522 
L 434.695643 293.594776 
L 442.8 293.49403 
L 444.600968 293.460448 
L 450.003873 293.393284 
L 450.904357 293.326119 
L 457.207746 293.225373 
L 459.008714 293.191791 
L 470.715008 293.091045 
L 473.41646 292.990299 
L 492.326627 292.889552 
L 494.577838 292.822388 
L 506.284131 292.755224 
L 507.184615 292.68806 
L 509.435826 292.620896 
L 510.786552 292.486567 
L 513.488004 292.385821 
L 516.639699 292.251493 
L 520.691877 292.150746 
L 522.943088 292.083582 
L 526.094782 291.982836 
L 529.696719 291.814925 
L 531.947929 291.714179 
L 533.748897 291.680597 
L 537.801076 291.579851 
L 539.602044 291.546269 
L 545.455191 291.445522 
L 547.256159 291.41194 
L 549.50737 291.311194 
L 552.208822 291.210448 
L 555.360516 291.143284 
L 556.261001 291.076119 
L 567.06681 290.975373 
L 572.919957 290.639552 
L 575.171167 290.572388 
L 576.071651 290.471642 
L 576.972136 290.404478 
L 580.574072 290.303731 
L 583.275524 290.202985 
L 587.777945 290.102239 
L 590.029155 289.867164 
L 594.531576 289.766418 
L 595.43206 289.665672 
L 599.934481 289.564925 
L 602.185691 289.497761 
L 607.138354 289.464179 
L 608.038838 289.363433 
L 612.991501 289.262687 
L 613.891985 289.195522 
L 623.79731 289.094776 
L 626.498763 288.99403 
L 633.252394 288.893284 
L 635.053362 288.859701 
L 639.105541 288.792537 
L 640.006025 288.691791 
L 645.859172 288.591045 
L 648.110382 288.523881 
L 656.214739 288.423134 
L 657.565465 288.322388 
L 658.916192 288.221642 
L 660.266918 288.120896 
L 667.020549 288.020149 
L 669.722001 287.919403 
L 681.878537 287.818657 
L 685.930715 287.617164 
L 691.33362 287.516418 
L 692.234104 287.449254 
L 698.987735 287.38209 
L 699.888219 287.314925 
L 704.840882 287.214179 
L 706.64185 287.180597 
L 712.945239 287.079851 
L 715.646692 286.979104 
L 723.300807 286.878358 
L 725.101775 286.844776 
L 729.153954 286.74403 
L 732.75589 286.576119 
L 737.708553 286.475373 
L 740.860247 286.341045 
L 744.912426 286.240299 
L 745.81291 286.173134 
L 747.163636 286.173134 
L 747.163636 286.173134 
" clip-path="url(#p715ddf636c)" style="fill: none; stroke: #ff7f0e; stroke-width: 1.5; stroke-linecap: square"/>
   </g>
   <g id="patch_3">
    <path d="M 108 320.4 
L 108 43.2 
" style="fill: none; stroke: #a9a9a9; stroke-width: 0.8; stroke-linejoin: miter; stroke-linecap: square"/>
   </g>
   <g id="patch_4">
    <path d="M 777.6 320.4 
L 777.6 43.2 
" style="fill: none"/>
   </g>
   <g id="patch_5">
    <path d="M 108 320.4 
L 777.6 320.4 
" style="fill: none; stroke: #a9a9a9; stroke-width: 0.8; stroke-linejoin: miter; stroke-linecap: square"/>
   </g>
   <g id="patch_6">
    <path d="M 108 43.2 
L 777.6 43.2 
" style="fill: none"/>
   </g>
   <g id="text_17">
    <!-- get_subscribe history -->
    <g style="fill: #a9a9a9" transform="translate(378.6075 37.2) scale(0.12 -0.12)">
     <defs>
      <path id="DejaVuSans-67" d="M 2906 1791 
Q 2906 2416 2648 2759 
Q 2391 3103 1925 3103 
Q 1463 3103 1205 2759 
Q 947 2416 947 1791 
Q 947 1169 1205 825 
Q 1463 481 1925 481 
Q 2391 481 2648 825 
Q 2906 1169 2906 1791 
z
M 3481 434 
Q 3481 -459 3084 -895 
Q 2688 -1331 1869 -1331 
Q 1566 -1331 1297 -1286 
Q 1028 -1241 775 -1147 
L 775 -588 
Q 1028 -725 1275 -790 
Q 1522 -856 1778 -856 
Q 2344 -856 2625 -561 
Q 2906 -266 2906 331 
L 2906 616 
Q 2728 306 2450 153 
Q 2172 0 1784 0 
Q 1141 0 747 490 
Q 353 981 353 1791 
Q 353 2603 747 3093 
Q 1141 3584 1784 3584 
Q 2172 3584 2450 3431 
Q 2728 3278 2906 2969 
L 2906 3500 
L 3481 3500 
L 3481 434 
z
" transform="scale(0.015625)"/>
      <path id="DejaVuSans-65" d="M 3597 1894 
L 3597 1613 
L 953 1613 
Q 991 1019 1311 708 
Q 1631 397 2203 397 
Q 2534 397 2845 478 
Q 3156 559 3463 722 
L 3463 178 
Q 3153 47 2828 -22 
Q 2503 -91 2169 -91 
Q 1331 -91 842 396 
Q 353 884 353 1716 
Q 353 2575 817 3079 
Q 1281 3584 2069 3584 
Q 2775 3584 3186 3129 
Q 3597 2675 3597 1894 
z
M 3022 2063 
Q 3016 2534 2758 2815 
Q 2500 3097 2075 3097 
Q 1594 3097 1305 2825 
Q 1016 2553 972 2059 
L 3022 2063 
z
" transform="scale(0.015625)"/>
      <path id="DejaVuSans-74" d="M 1172 4494 
L 1172 3500 
L 2356 3500 
L 2356 3053 
L 1172 3053 
L 1172 1153 
Q 1172 725 1289 603 
Q 1406 481 1766 481 
L 2356 481 
L 2356 0 
L 1766 0 
Q 1100 0 847 248 
Q 594 497 594 1153 
L 594 3053 
L 172 3053 
L 172 3500 
L 594 3500 
L 594 4494 
L 1172 4494 
z
" transform="scale(0.015625)"/>
      <path id="DejaVuSans-5f" d="M 3263 -1063 
L 3263 -1509 
L -63 -1509 
L -63 -1063 
L 3263 -1063 
z
" transform="scale(0.015625)"/>
      <path id="DejaVuSans-73" d="M 2834 3397 
L 2834 2853 
Q 2591 2978 2328 3040 
Q 2066 3103 1784 3103 
Q 1356 3103 1142 2972 
Q 928 2841 928 2578 
Q 928 2378 1081 2264 
Q 1234 2150 1697 2047 
L 1894 2003 
Q 2506 1872 2764 1633 
Q 3022 1394 3022 966 
Q 3022 478 2636 193 
Q 2250 -91 1575 -91 
Q 1294 -91 989 -36 
Q 684 19 347 128 
L 347 722 
Q 666 556 975 473 
Q 1284 391 1588 391 
Q 1994 391 2212 530 
Q 2431 669 2431 922 
Q 2431 1156 2273 1281 
Q 2116 1406 1581 1522 
L 1381 1569 
Q 847 1681 609 1914 
Q 372 2147 372 2553 
Q 372 3047 722 3315 
Q 1072 3584 1716 3584 
Q 2034 3584 2315 3537 
Q 2597 3491 2834 3397 
z
" transform="scale(0.015625)"/>
      <path id="DejaVuSans-75" d="M 544 1381 
L 544 3500 
L 1119 3500 
L 1119 1403 
Q 1119 906 1312 657 
Q 1506 409 1894 409 
Q 2359 409 2629 706 
Q 2900 1003 2900 1516 
L 2900 3500 
L 3475 3500 
L 3475 0 
L 2900 0 
L 2900 538 
Q 2691 219 2414 64 
Q 2138 -91 1772 -91 
Q 1169 -91 856 284 
Q 544 659 544 1381 
z
M 1991 3584 
L 1991 3584 
z
" transform="scale(0.015625)"/>
      <path id="DejaVuSans-62" d="M 3116 1747 
Q 3116 2381 2855 2742 
Q 2594 3103 2138 3103 
Q 1681 3103 1420 2742 
Q 1159 2381 1159 1747 
Q 1159 1113 1420 752 
Q 1681 391 2138 391 
Q 2594 391 2855 752 
Q 3116 1113 3116 1747 
z
M 1159 2969 
Q 1341 3281 1617 3432 
Q 1894 3584 2278 3584 
Q 2916 3584 3314 3078 
Q 3713 2572 3713 1747 
Q 3713 922 3314 415 
Q 2916 -91 2278 -91 
Q 1894 -91 1617 61 
Q 1341 213 1159 525 
L 1159 0 
L 581 0 
L 581 4863 
L 1159 4863 
L 1159 2969 
z
" transform="scale(0.015625)"/>
      <path id="DejaVuSans-63" d="M 3122 3366 
L 3122 2828 
Q 2878 2963 2633 3030 
Q 2388 3097 2138 3097 
Q 1578 3097 1268 2742 
Q 959 2388 959 1747 
Q 959 1106 1268 751 
Q 1578 397 2138 397 
Q 2388 397 2633 464 
Q 2878 531 3122 666 
L 3122 134 
Q 2881 22 2623 -34 
Q 2366 -91 2075 -91 
Q 1284 -91 818 406 
Q 353 903 353 1747 
Q 353 2603 823 3093 
Q 1294 3584 2113 3584 
Q 2378 3584 2631 3529 
Q 2884 3475 3122 3366 
z
" transform="scale(0.015625)"/>
      <path id="DejaVuSans-72" d="M 2631 2963 
Q 2534 3019 2420 3045 
Q 2306 3072 2169 3072 
Q 1681 3072 1420 2755 
Q 1159 2438 1159 1844 
L 1159 0 
L 581 0 
L 581 3500 
L 1159 3500 
L 1159 2956 
Q 1341 3275 1631 3429 
Q 1922 3584 2338 3584 
Q 2397 3584 2469 3576 
Q 2541 3569 2628 3553 
L 2631 2963 
z
" transform="scale(0.015625)"/>
      <path id="DejaVuSans-69" d="M 603 3500 
L 1178 3500 
L 1178 0 
L 603 0 
L 603 3500 
z
M 603 4863 
L 1178 4863 
L 1178 4134 
L 603 4134 
L 603 4863 
z
" transform="scale(0.015625)"/>
      <path id="DejaVuSans-20" transform="scale(0.015625)"/>
      <path id="DejaVuSans-68" d="M 3513 2113 
L 3513 0 
L 2938 0 
L 2938 2094 
Q 2938 2591 2744 2837 
Q 2550 3084 2163 3084 
Q 1697 3084 1428 2787 
Q 1159 2491 1159 1978 
L 1159 0 
L 581 0 
L 581 4863 
L 1159 4863 
L 1159 2956 
Q 1366 3272 1645 3428 
Q 1925 3584 2291 3584 
Q 2894 3584 3203 3211 
Q 3513 2838 3513 2113 
z
" transform="scale(0.015625)"/>
      <path id="DejaVuSans-6f" d="M 1959 3097 
Q 1497 3097 1228 2736 
Q 959 2375 959 1747 
Q 959 1119 1226 758 
Q 1494 397 1959 397 
Q 2419 397 2687 759 
Q 2956 1122 2956 1747 
Q 2956 2369 2687 2733 
Q 2419 3097 1959 3097 
z
M 1959 3584 
Q 2709 3584 3137 3096 
Q 3566 2609 3566 1747 
Q 3566 888 3137 398 
Q 2709 -91 1959 -91 
Q 1206 -91 779 398 
Q 353 888 353 1747 
Q 353 2609 779 3096 
Q 1206 3584 1959 3584 
z
" transform="scale(0.015625)"/>
      <path id="DejaVuSans-79" d="M 2059 -325 
Q 1816 -950 1584 -1140 
Q 1353 -1331 966 -1331 
L 506 -1331 
L 506 -850 
L 844 -850 
Q 1081 -850 1212 -737 
Q 1344 -625 1503 -206 
L 1606 56 
L 191 3500 
L 800 3500 
L 1894 763 
L 2988 3500 
L 3597 3500 
L 2059 -325 
z
" transform="scale(0.015625)"/>
     </defs>
     <use xlink:href="#DejaVuSans-67"/>
     <use xlink:href="#DejaVuSans-65" transform="translate(63.476562 0)"/>
     <use xlink:href="#DejaVuSans-74" transform="translate(125 0)"/>
     <use xlink:href="#DejaVuSans-5f" transform="translate(164.208984 0)"/>
     <use xlink:href="#DejaVuSans-73" transform="translate(214.208984 0)"/>
     <use xlink:href="#DejaVuSans-75" transform="translate(266.308594 0)"/>
     <use xlink:href="#DejaVuSans-62" transform="translate(329.6875 0)"/>
     <use xlink:href="#DejaVuSans-73" transform="translate(393.164062 0)"/>
     <use xlink:href="#DejaVuSans-63" transform="translate(445.263672 0)"/>
     <use xlink:href="#DejaVuSans-72" transform="translate(500.244141 0)"/>
     <use xlink:href="#DejaVuSans-69" transform="translate(541.357422 0)"/>
     <use xlink:href="#DejaVuSans-62" transform="translate(569.140625 0)"/>
     <use xlink:href="#DejaVuSans-65" transform="translate(632.617188 0)"/>
     <use xlink:href="#DejaVuSans-20" transform="translate(694.140625 0)"/>
     <use xlink:href="#DejaVuSans-68" transform="translate(725.927734 0)"/>
     <use xlink:href="#DejaVuSans-69" transform="translate(789.306641 0)"/>
     <use xlink:href="#DejaVuSans-73" transform="translate(817.089844 0)"/>
     <use xlink:href="#DejaVuSans-74" transform="translate(869.189453 0)"/>
     <use xlink:href="#DejaVuSans-6f" transform="translate(908.398438 0)"/>
     <use xlink:href="#DejaVuSans-72" transform="translate(969.580078 0)"/>
     <use xlink:href="#DejaVuSans-79" transform="translate(1010.693359 0)"/>
    </g>
   </g>
   <g id="legend_1">
    <g id="line2d_35">
     <path d="M 815.08 328.498438 
L 825.08 328.498438 
L 835.08 328.498438 
" style="fill: none; stroke: #1f77b4; stroke-width: 1.5; stroke-linecap: square"/>
    </g>
    <g id="text_18">
     <!-- star -->
     <g style="fill: #a9a9a9" transform="translate(843.08 331.998438) scale(0.1 -0.1)">
      <defs>
       <path id="DejaVuSans-61" d="M 2194 1759 
Q 1497 1759 1228 1600 
Q 959 1441 959 1056 
Q 959 750 1161 570 
Q 1363 391 1709 391 
Q 2188 391 2477 730 
Q 2766 1069 2766 1631 
L 2766 1759 
L 2194 1759 
z
M 3341 1997 
L 3341 0 
L 2766 0 
L 2766 531 
Q 2569 213 2275 61 
Q 1981 -91 1556 -91 
Q 1019 -91 701 211 
Q 384 513 384 1019 
Q 384 1609 779 1909 
Q 1175 2209 1959 2209 
L 2766 2209 
L 2766 2266 
Q 2766 2663 2505 2880 
Q 2244 3097 1772 3097 
Q 1472 3097 1187 3025 
Q 903 2953 641 2809 
L 641 3341 
Q 956 3463 1253 3523 
Q 1550 3584 1831 3584 
Q 2591 3584 2966 3190 
Q 3341 2797 3341 1997 
z
" transform="scale(0.015625)"/>
      </defs>
      <use xlink:href="#DejaVuSans-73"/>
      <use xlink:href="#DejaVuSans-74" transform="translate(52.099609 0)"/>
      <use xlink:href="#DejaVuSans-61" transform="translate(91.308594 0)"/>
      <use xlink:href="#DejaVuSans-72" transform="translate(152.587891 0)"/>
     </g>
    </g>
    <g id="line2d_36">
     <path d="M 815.08 343.176562 
L 825.08 343.176562 
L 835.08 343.176562 
" style="fill: none; stroke: #ff7f0e; stroke-width: 1.5; stroke-linecap: square"/>
    </g>
    <g id="text_19">
     <!-- fork -->
     <g style="fill: #a9a9a9" transform="translate(843.08 346.676562) scale(0.1 -0.1)">
      <defs>
       <path id="DejaVuSans-66" d="M 2375 4863 
L 2375 4384 
L 1825 4384 
Q 1516 4384 1395 4259 
Q 1275 4134 1275 3809 
L 1275 3500 
L 2222 3500 
L 2222 3053 
L 1275 3053 
L 1275 0 
L 697 0 
L 697 3053 
L 147 3053 
L 147 3500 
L 697 3500 
L 697 3744 
Q 697 4328 969 4595 
Q 1241 4863 1831 4863 
L 2375 4863 
z
" transform="scale(0.015625)"/>
       <path id="DejaVuSans-6b" d="M 581 4863 
L 1159 4863 
L 1159 1991 
L 2875 3500 
L 3609 3500 
L 1753 1863 
L 3688 0 
L 2938 0 
L 1159 1709 
L 1159 0 
L 581 0 
L 581 4863 
z
" transform="scale(0.015625)"/>
      </defs>
      <use xlink:href="#DejaVuSans-66"/>
      <use xlink:href="#DejaVuSans-6f" transform="translate(35.205078 0)"/>
      <use xlink:href="#DejaVuSans-72" transform="translate(96.386719 0)"/>
      <use xlink:href="#DejaVuSans-6b" transform="translate(137.5 0)"/>
     </g>
    </g>
   </g>
  </g>
 </g>
 <defs>
  <clipPath id="p715ddf636c">
   <rect x="108" y="43.2" width="669.6" height="277.2"/>
  </clipPath>
 </defs>
</svg>
