<?xml version="1.0" encoding="utf-8" standalone="no"?>
<!DOCTYPE svg PUBLIC "-//W3C//DTD SVG 1.1//EN"
  "http://www.w3.org/Graphics/SVG/1.1/DTD/svg11.dtd">
<svg xmlns:xlink="http://www.w3.org/1999/xlink" width="864pt" height="360pt" viewBox="0 0 864 360" xmlns="http://www.w3.org/2000/svg" version="1.1">
 <metadata>
  <rdf:RDF xmlns:dc="http://purl.org/dc/elements/1.1/" xmlns:cc="http://creativecommons.org/ns#" xmlns:rdf="http://www.w3.org/1999/02/22-rdf-syntax-ns#">
   <cc:Work>
    <dc:type rdf:resource="http://purl.org/dc/dcmitype/StillImage"/>
    <dc:date>2025-08-05T20:08:34.674549</dc:date>
    <dc:format>image/svg+xml</dc:format>
    <dc:creator>
     <cc:Agent>
      <dc:title>Matplotlib v3.10.5, https://matplotlib.org/</dc:title>
     </cc:Agent>
    </dc:creator>
   </cc:Work>
  </rdf:RDF>
 </metadata>
 <defs>
  <style type="text/css">*{stroke-linejoin: round; stroke-linecap: butt}</style>
 </defs>
 <g id="figure_1">
  <g id="patch_1">
   <path d="M 0 360 
L 864 360 
L 864 0 
L 0 0 
L 0 360 
z
" style="fill: none; opacity: 0"/>
  </g>
  <g id="axes_1">
   <g id="patch_2">
    <path d="M 108 320.4 
L 777.6 320.4 
L 777.6 43.2 
L 108 43.2 
L 108 320.4 
z
" style="fill: none; opacity: 0"/>
   </g>
   <g id="matplotlib.axis_1">
    <g id="xtick_1">
     <g id="line2d_1">
      <path d="M 128.931457 320.4 
L 128.931457 43.2 
" clip-path="url(#p2253e6b16a)" style="fill: none; stroke-dasharray: 5.12,1.28,0.8,1.28; stroke-dashoffset: 0; stroke: #b0b0b0; stroke-width: 0.8"/>
     </g>
     <g id="line2d_2">
      <defs>
       <path id="m47dc8b9757" d="M 0 0 
L 0 3.5 
" style="stroke: #a9a9a9; stroke-width: 0.8"/>
      </defs>
      <g>
       <use xlink:href="#m47dc8b9757" x="128.931457" y="320.4" style="fill: #a9a9a9; stroke: #a9a9a9; stroke-width: 0.8"/>
      </g>
     </g>
     <g id="text_1">
      <!-- 2021-07 -->
      <g style="fill: #a9a9a9" transform="translate(108.040051 334.998438) scale(0.1 -0.1)">
       <defs>
        <path id="DejaVuSans-32" d="M 1228 531 
L 3431 531 
L 3431 0 
L 469 0 
L 469 531 
Q 828 903 1448 1529 
Q 2069 2156 2228 2338 
Q 2531 2678 2651 2914 
Q 2772 3150 2772 3378 
Q 2772 3750 2511 3984 
Q 2250 4219 1831 4219 
Q 1534 4219 1204 4116 
Q 875 4013 500 3803 
L 500 4441 
Q 881 4594 1212 4672 
Q 1544 4750 1819 4750 
Q 2544 4750 2975 4387 
Q 3406 4025 3406 3419 
Q 3406 3131 3298 2873 
Q 3191 2616 2906 2266 
Q 2828 2175 2409 1742 
Q 1991 1309 1228 531 
z
" transform="scale(0.015625)"/>
        <path id="DejaVuSans-30" d="M 2034 4250 
Q 1547 4250 1301 3770 
Q 1056 3291 1056 2328 
Q 1056 1369 1301 889 
Q 1547 409 2034 409 
Q 2525 409 2770 889 
Q 3016 1369 3016 2328 
Q 3016 3291 2770 3770 
Q 2525 4250 2034 4250 
z
M 2034 4750 
Q 2819 4750 3233 4129 
Q 3647 3509 3647 2328 
Q 3647 1150 3233 529 
Q 2819 -91 2034 -91 
Q 1250 -91 836 529 
Q 422 1150 422 2328 
Q 422 3509 836 4129 
Q 1250 4750 2034 4750 
z
" transform="scale(0.015625)"/>
        <path id="DejaVuSans-31" d="M 794 531 
L 1825 531 
L 1825 4091 
L 703 3866 
L 703 4441 
L 1819 4666 
L 2450 4666 
L 2450 531 
L 3481 531 
L 3481 0 
L 794 0 
L 794 531 
z
" transform="scale(0.015625)"/>
        <path id="DejaVuSans-2d" d="M 313 2009 
L 1997 2009 
L 1997 1497 
L 313 1497 
L 313 2009 
z
" transform="scale(0.015625)"/>
        <path id="DejaVuSans-37" d="M 525 4666 
L 3525 4666 
L 3525 4397 
L 1831 0 
L 1172 0 
L 2766 4134 
L 525 4134 
L 525 4666 
z
" transform="scale(0.015625)"/>
       </defs>
       <use xlink:href="#DejaVuSans-32"/>
       <use xlink:href="#DejaVuSans-30" transform="translate(63.623047 0)"/>
       <use xlink:href="#DejaVuSans-32" transform="translate(127.246094 0)"/>
       <use xlink:href="#DejaVuSans-31" transform="translate(190.869141 0)"/>
       <use xlink:href="#DejaVuSans-2d" transform="translate(254.492188 0)"/>
       <use xlink:href="#DejaVuSans-30" transform="translate(290.576172 0)"/>
       <use xlink:href="#DejaVuSans-37" transform="translate(354.199219 0)"/>
      </g>
     </g>
    </g>
    <g id="xtick_2">
     <g id="line2d_3">
      <path d="M 204.970709 320.4 
L 204.970709 43.2 
" clip-path="url(#p2253e6b16a)" style="fill: none; stroke-dasharray: 5.12,1.28,0.8,1.28; stroke-dashoffset: 0; stroke: #b0b0b0; stroke-width: 0.8"/>
     </g>
     <g id="line2d_4">
      <g>
       <use xlink:href="#m47dc8b9757" x="204.970709" y="320.4" style="fill: #a9a9a9; stroke: #a9a9a9; stroke-width: 0.8"/>
      </g>
     </g>
     <g id="text_2">
      <!-- 2022-01 -->
      <g style="fill: #a9a9a9" transform="translate(184.079303 334.998438) scale(0.1 -0.1)">
       <use xlink:href="#DejaVuSans-32"/>
       <use xlink:href="#DejaVuSans-30" transform="translate(63.623047 0)"/>
       <use xlink:href="#DejaVuSans-32" transform="translate(127.246094 0)"/>
       <use xlink:href="#DejaVuSans-32" transform="translate(190.869141 0)"/>
       <use xlink:href="#DejaVuSans-2d" transform="translate(254.492188 0)"/>
       <use xlink:href="#DejaVuSans-30" transform="translate(290.576172 0)"/>
       <use xlink:href="#DejaVuSans-31" transform="translate(354.199219 0)"/>
      </g>
     </g>
    </g>
    <g id="xtick_3">
     <g id="line2d_5">
      <path d="M 279.770191 320.4 
L 279.770191 43.2 
" clip-path="url(#p2253e6b16a)" style="fill: none; stroke-dasharray: 5.12,1.28,0.8,1.28; stroke-dashoffset: 0; stroke: #b0b0b0; stroke-width: 0.8"/>
     </g>
     <g id="line2d_6">
      <g>
       <use xlink:href="#m47dc8b9757" x="279.770191" y="320.4" style="fill: #a9a9a9; stroke: #a9a9a9; stroke-width: 0.8"/>
      </g>
     </g>
     <g id="text_3">
      <!-- 2022-07 -->
      <g style="fill: #a9a9a9" transform="translate(258.878784 334.998438) scale(0.1 -0.1)">
       <use xlink:href="#DejaVuSans-32"/>
       <use xlink:href="#DejaVuSans-30" transform="translate(63.623047 0)"/>
       <use xlink:href="#DejaVuSans-32" transform="translate(127.246094 0)"/>
       <use xlink:href="#DejaVuSans-32" transform="translate(190.869141 0)"/>
       <use xlink:href="#DejaVuSans-2d" transform="translate(254.492188 0)"/>
       <use xlink:href="#DejaVuSans-30" transform="translate(290.576172 0)"/>
       <use xlink:href="#DejaVuSans-37" transform="translate(354.199219 0)"/>
      </g>
     </g>
    </g>
    <g id="xtick_4">
     <g id="line2d_7">
      <path d="M 355.809443 320.4 
L 355.809443 43.2 
" clip-path="url(#p2253e6b16a)" style="fill: none; stroke-dasharray: 5.12,1.28,0.8,1.28; stroke-dashoffset: 0; stroke: #b0b0b0; stroke-width: 0.8"/>
     </g>
     <g id="line2d_8">
      <g>
       <use xlink:href="#m47dc8b9757" x="355.809443" y="320.4" style="fill: #a9a9a9; stroke: #a9a9a9; stroke-width: 0.8"/>
      </g>
     </g>
     <g id="text_4">
      <!-- 2023-01 -->
      <g style="fill: #a9a9a9" transform="translate(334.918036 334.998438) scale(0.1 -0.1)">
       <defs>
        <path id="DejaVuSans-33" d="M 2597 2516 
Q 3050 2419 3304 2112 
Q 3559 1806 3559 1356 
Q 3559 666 3084 287 
Q 2609 -91 1734 -91 
Q 1441 -91 1130 -33 
Q 819 25 488 141 
L 488 750 
Q 750 597 1062 519 
Q 1375 441 1716 441 
Q 2309 441 2620 675 
Q 2931 909 2931 1356 
Q 2931 1769 2642 2001 
Q 2353 2234 1838 2234 
L 1294 2234 
L 1294 2753 
L 1863 2753 
Q 2328 2753 2575 2939 
Q 2822 3125 2822 3475 
Q 2822 3834 2567 4026 
Q 2313 4219 1838 4219 
Q 1578 4219 1281 4162 
Q 984 4106 628 3988 
L 628 4550 
Q 988 4650 1302 4700 
Q 1616 4750 1894 4750 
Q 2613 4750 3031 4423 
Q 3450 4097 3450 3541 
Q 3450 3153 3228 2886 
Q 3006 2619 2597 2516 
z
" transform="scale(0.015625)"/>
       </defs>
       <use xlink:href="#DejaVuSans-32"/>
       <use xlink:href="#DejaVuSans-30" transform="translate(63.623047 0)"/>
       <use xlink:href="#DejaVuSans-32" transform="translate(127.246094 0)"/>
       <use xlink:href="#DejaVuSans-33" transform="translate(190.869141 0)"/>
       <use xlink:href="#DejaVuSans-2d" transform="translate(254.492188 0)"/>
       <use xlink:href="#DejaVuSans-30" transform="translate(290.576172 0)"/>
       <use xlink:href="#DejaVuSans-31" transform="translate(354.199219 0)"/>
      </g>
     </g>
    </g>
    <g id="xtick_5">
     <g id="line2d_9">
      <path d="M 430.608924 320.4 
L 430.608924 43.2 
" clip-path="url(#p2253e6b16a)" style="fill: none; stroke-dasharray: 5.12,1.28,0.8,1.28; stroke-dashoffset: 0; stroke: #b0b0b0; stroke-width: 0.8"/>
     </g>
     <g id="line2d_10">
      <g>
       <use xlink:href="#m47dc8b9757" x="430.608924" y="320.4" style="fill: #a9a9a9; stroke: #a9a9a9; stroke-width: 0.8"/>
      </g>
     </g>
     <g id="text_5">
      <!-- 2023-07 -->
      <g style="fill: #a9a9a9" transform="translate(409.717518 334.998438) scale(0.1 -0.1)">
       <use xlink:href="#DejaVuSans-32"/>
       <use xlink:href="#DejaVuSans-30" transform="translate(63.623047 0)"/>
       <use xlink:href="#DejaVuSans-32" transform="translate(127.246094 0)"/>
       <use xlink:href="#DejaVuSans-33" transform="translate(190.869141 0)"/>
       <use xlink:href="#DejaVuSans-2d" transform="translate(254.492188 0)"/>
       <use xlink:href="#DejaVuSans-30" transform="translate(290.576172 0)"/>
       <use xlink:href="#DejaVuSans-37" transform="translate(354.199219 0)"/>
      </g>
     </g>
    </g>
    <g id="xtick_6">
     <g id="line2d_11">
      <path d="M 506.648176 320.4 
L 506.648176 43.2 
" clip-path="url(#p2253e6b16a)" style="fill: none; stroke-dasharray: 5.12,1.28,0.8,1.28; stroke-dashoffset: 0; stroke: #b0b0b0; stroke-width: 0.8"/>
     </g>
     <g id="line2d_12">
      <g>
       <use xlink:href="#m47dc8b9757" x="506.648176" y="320.4" style="fill: #a9a9a9; stroke: #a9a9a9; stroke-width: 0.8"/>
      </g>
     </g>
     <g id="text_6">
      <!-- 2024-01 -->
      <g style="fill: #a9a9a9" transform="translate(485.75677 334.998438) scale(0.1 -0.1)">
       <defs>
        <path id="DejaVuSans-34" d="M 2419 4116 
L 825 1625 
L 2419 1625 
L 2419 4116 
z
M 2253 4666 
L 3047 4666 
L 3047 1625 
L 3713 1625 
L 3713 1100 
L 3047 1100 
L 3047 0 
L 2419 0 
L 2419 1100 
L 313 1100 
L 313 1709 
L 2253 4666 
z
" transform="scale(0.015625)"/>
       </defs>
       <use xlink:href="#DejaVuSans-32"/>
       <use xlink:href="#DejaVuSans-30" transform="translate(63.623047 0)"/>
       <use xlink:href="#DejaVuSans-32" transform="translate(127.246094 0)"/>
       <use xlink:href="#DejaVuSans-34" transform="translate(190.869141 0)"/>
       <use xlink:href="#DejaVuSans-2d" transform="translate(254.492188 0)"/>
       <use xlink:href="#DejaVuSans-30" transform="translate(290.576172 0)"/>
       <use xlink:href="#DejaVuSans-31" transform="translate(354.199219 0)"/>
      </g>
     </g>
    </g>
    <g id="xtick_7">
     <g id="line2d_13">
      <path d="M 581.860915 320.4 
L 581.860915 43.2 
" clip-path="url(#p2253e6b16a)" style="fill: none; stroke-dasharray: 5.12,1.28,0.8,1.28; stroke-dashoffset: 0; stroke: #b0b0b0; stroke-width: 0.8"/>
     </g>
     <g id="line2d_14">
      <g>
       <use xlink:href="#m47dc8b9757" x="581.860915" y="320.4" style="fill: #a9a9a9; stroke: #a9a9a9; stroke-width: 0.8"/>
      </g>
     </g>
     <g id="text_7">
      <!-- 2024-07 -->
      <g style="fill: #a9a9a9" transform="translate(560.969508 334.998438) scale(0.1 -0.1)">
       <use xlink:href="#DejaVuSans-32"/>
       <use xlink:href="#DejaVuSans-30" transform="translate(63.623047 0)"/>
       <use xlink:href="#DejaVuSans-32" transform="translate(127.246094 0)"/>
       <use xlink:href="#DejaVuSans-34" transform="translate(190.869141 0)"/>
       <use xlink:href="#DejaVuSans-2d" transform="translate(254.492188 0)"/>
       <use xlink:href="#DejaVuSans-30" transform="translate(290.576172 0)"/>
       <use xlink:href="#DejaVuSans-37" transform="translate(354.199219 0)"/>
      </g>
     </g>
    </g>
    <g id="xtick_8">
     <g id="line2d_15">
      <path d="M 657.900167 320.4 
L 657.900167 43.2 
" clip-path="url(#p2253e6b16a)" style="fill: none; stroke-dasharray: 5.12,1.28,0.8,1.28; stroke-dashoffset: 0; stroke: #b0b0b0; stroke-width: 0.8"/>
     </g>
     <g id="line2d_16">
      <g>
       <use xlink:href="#m47dc8b9757" x="657.900167" y="320.4" style="fill: #a9a9a9; stroke: #a9a9a9; stroke-width: 0.8"/>
      </g>
     </g>
     <g id="text_8">
      <!-- 2025-01 -->
      <g style="fill: #a9a9a9" transform="translate(637.00876 334.998438) scale(0.1 -0.1)">
       <defs>
        <path id="DejaVuSans-35" d="M 691 4666 
L 3169 4666 
L 3169 4134 
L 1269 4134 
L 1269 2991 
Q 1406 3038 1543 3061 
Q 1681 3084 1819 3084 
Q 2600 3084 3056 2656 
Q 3513 2228 3513 1497 
Q 3513 744 3044 326 
Q 2575 -91 1722 -91 
Q 1428 -91 1123 -41 
Q 819 9 494 109 
L 494 744 
Q 775 591 1075 516 
Q 1375 441 1709 441 
Q 2250 441 2565 725 
Q 2881 1009 2881 1497 
Q 2881 1984 2565 2268 
Q 2250 2553 1709 2553 
Q 1456 2553 1204 2497 
Q 953 2441 691 2322 
L 691 4666 
z
" transform="scale(0.015625)"/>
       </defs>
       <use xlink:href="#DejaVuSans-32"/>
       <use xlink:href="#DejaVuSans-30" transform="translate(63.623047 0)"/>
       <use xlink:href="#DejaVuSans-32" transform="translate(127.246094 0)"/>
       <use xlink:href="#DejaVuSans-35" transform="translate(190.869141 0)"/>
       <use xlink:href="#DejaVuSans-2d" transform="translate(254.492188 0)"/>
       <use xlink:href="#DejaVuSans-30" transform="translate(290.576172 0)"/>
       <use xlink:href="#DejaVuSans-31" transform="translate(354.199219 0)"/>
      </g>
     </g>
    </g>
    <g id="xtick_9">
     <g id="line2d_17">
      <path d="M 732.699648 320.4 
L 732.699648 43.2 
" clip-path="url(#p2253e6b16a)" style="fill: none; stroke-dasharray: 5.12,1.28,0.8,1.28; stroke-dashoffset: 0; stroke: #b0b0b0; stroke-width: 0.8"/>
     </g>
     <g id="line2d_18">
      <g>
       <use xlink:href="#m47dc8b9757" x="732.699648" y="320.4" style="fill: #a9a9a9; stroke: #a9a9a9; stroke-width: 0.8"/>
      </g>
     </g>
     <g id="text_9">
      <!-- 2025-07 -->
      <g style="fill: #a9a9a9" transform="translate(711.808242 334.998438) scale(0.1 -0.1)">
       <use xlink:href="#DejaVuSans-32"/>
       <use xlink:href="#DejaVuSans-30" transform="translate(63.623047 0)"/>
       <use xlink:href="#DejaVuSans-32" transform="translate(127.246094 0)"/>
       <use xlink:href="#DejaVuSans-35" transform="translate(190.869141 0)"/>
       <use xlink:href="#DejaVuSans-2d" transform="translate(254.492188 0)"/>
       <use xlink:href="#DejaVuSans-30" transform="translate(290.576172 0)"/>
       <use xlink:href="#DejaVuSans-37" transform="translate(354.199219 0)"/>
      </g>
     </g>
    </g>
   </g>
   <g id="matplotlib.axis_2">
    <g id="ytick_1">
     <g id="line2d_19">
      <path d="M 108 307.831607 
L 777.6 307.831607 
" clip-path="url(#p2253e6b16a)" style="fill: none; stroke-dasharray: 5.12,1.28,0.8,1.28; stroke-dashoffset: 0; stroke: #b0b0b0; stroke-width: 0.8"/>
     </g>
     <g id="line2d_20">
      <defs>
       <path id="mc90eeee065" d="M 0 0 
L -3.5 0 
" style="stroke: #a9a9a9; stroke-width: 0.8"/>
      </defs>
      <g>
       <use xlink:href="#mc90eeee065" x="108" y="307.831607" style="fill: #a9a9a9; stroke: #a9a9a9; stroke-width: 0.8"/>
      </g>
     </g>
     <g id="text_10">
      <!-- 0 -->
      <g style="fill: #a9a9a9" transform="translate(94.6375 311.630825) scale(0.1 -0.1)">
       <use xlink:href="#DejaVuSans-30"/>
      </g>
     </g>
    </g>
    <g id="ytick_2">
     <g id="line2d_21">
      <path d="M 108 276.224934 
L 777.6 276.224934 
" clip-path="url(#p2253e6b16a)" style="fill: none; stroke-dasharray: 5.12,1.28,0.8,1.28; stroke-dashoffset: 0; stroke: #b0b0b0; stroke-width: 0.8"/>
     </g>
     <g id="line2d_22">
      <g>
       <use xlink:href="#mc90eeee065" x="108" y="276.224934" style="fill: #a9a9a9; stroke: #a9a9a9; stroke-width: 0.8"/>
      </g>
     </g>
     <g id="text_11">
      <!-- 1000 -->
      <g style="fill: #a9a9a9" transform="translate(75.55 280.024153) scale(0.1 -0.1)">
       <use xlink:href="#DejaVuSans-31"/>
       <use xlink:href="#DejaVuSans-30" transform="translate(63.623047 0)"/>
       <use xlink:href="#DejaVuSans-30" transform="translate(127.246094 0)"/>
       <use xlink:href="#DejaVuSans-30" transform="translate(190.869141 0)"/>
      </g>
     </g>
    </g>
    <g id="ytick_3">
     <g id="line2d_23">
      <path d="M 108 244.618262 
L 777.6 244.618262 
" clip-path="url(#p2253e6b16a)" style="fill: none; stroke-dasharray: 5.12,1.28,0.8,1.28; stroke-dashoffset: 0; stroke: #b0b0b0; stroke-width: 0.8"/>
     </g>
     <g id="line2d_24">
      <g>
       <use xlink:href="#mc90eeee065" x="108" y="244.618262" style="fill: #a9a9a9; stroke: #a9a9a9; stroke-width: 0.8"/>
      </g>
     </g>
     <g id="text_12">
      <!-- 2000 -->
      <g style="fill: #a9a9a9" transform="translate(75.55 248.41748) scale(0.1 -0.1)">
       <use xlink:href="#DejaVuSans-32"/>
       <use xlink:href="#DejaVuSans-30" transform="translate(63.623047 0)"/>
       <use xlink:href="#DejaVuSans-30" transform="translate(127.246094 0)"/>
       <use xlink:href="#DejaVuSans-30" transform="translate(190.869141 0)"/>
      </g>
     </g>
    </g>
    <g id="ytick_4">
     <g id="line2d_25">
      <path d="M 108 213.011589 
L 777.6 213.011589 
" clip-path="url(#p2253e6b16a)" style="fill: none; stroke-dasharray: 5.12,1.28,0.8,1.28; stroke-dashoffset: 0; stroke: #b0b0b0; stroke-width: 0.8"/>
     </g>
     <g id="line2d_26">
      <g>
       <use xlink:href="#mc90eeee065" x="108" y="213.011589" style="fill: #a9a9a9; stroke: #a9a9a9; stroke-width: 0.8"/>
      </g>
     </g>
     <g id="text_13">
      <!-- 3000 -->
      <g style="fill: #a9a9a9" transform="translate(75.55 216.810808) scale(0.1 -0.1)">
       <use xlink:href="#DejaVuSans-33"/>
       <use xlink:href="#DejaVuSans-30" transform="translate(63.623047 0)"/>
       <use xlink:href="#DejaVuSans-30" transform="translate(127.246094 0)"/>
       <use xlink:href="#DejaVuSans-30" transform="translate(190.869141 0)"/>
      </g>
     </g>
    </g>
    <g id="ytick_5">
     <g id="line2d_27">
      <path d="M 108 181.404917 
L 777.6 181.404917 
" clip-path="url(#p2253e6b16a)" style="fill: none; stroke-dasharray: 5.12,1.28,0.8,1.28; stroke-dashoffset: 0; stroke: #b0b0b0; stroke-width: 0.8"/>
     </g>
     <g id="line2d_28">
      <g>
       <use xlink:href="#mc90eeee065" x="108" y="181.404917" style="fill: #a9a9a9; stroke: #a9a9a9; stroke-width: 0.8"/>
      </g>
     </g>
     <g id="text_14">
      <!-- 4000 -->
      <g style="fill: #a9a9a9" transform="translate(75.55 185.204135) scale(0.1 -0.1)">
       <use xlink:href="#DejaVuSans-34"/>
       <use xlink:href="#DejaVuSans-30" transform="translate(63.623047 0)"/>
       <use xlink:href="#DejaVuSans-30" transform="translate(127.246094 0)"/>
       <use xlink:href="#DejaVuSans-30" transform="translate(190.869141 0)"/>
      </g>
     </g>
    </g>
    <g id="ytick_6">
     <g id="line2d_29">
      <path d="M 108 149.798244 
L 777.6 149.798244 
" clip-path="url(#p2253e6b16a)" style="fill: none; stroke-dasharray: 5.12,1.28,0.8,1.28; stroke-dashoffset: 0; stroke: #b0b0b0; stroke-width: 0.8"/>
     </g>
     <g id="line2d_30">
      <g>
       <use xlink:href="#mc90eeee065" x="108" y="149.798244" style="fill: #a9a9a9; stroke: #a9a9a9; stroke-width: 0.8"/>
      </g>
     </g>
     <g id="text_15">
      <!-- 5000 -->
      <g style="fill: #a9a9a9" transform="translate(75.55 153.597463) scale(0.1 -0.1)">
       <use xlink:href="#DejaVuSans-35"/>
       <use xlink:href="#DejaVuSans-30" transform="translate(63.623047 0)"/>
       <use xlink:href="#DejaVuSans-30" transform="translate(127.246094 0)"/>
       <use xlink:href="#DejaVuSans-30" transform="translate(190.869141 0)"/>
      </g>
     </g>
    </g>
    <g id="ytick_7">
     <g id="line2d_31">
      <path d="M 108 118.191572 
L 777.6 118.191572 
" clip-path="url(#p2253e6b16a)" style="fill: none; stroke-dasharray: 5.12,1.28,0.8,1.28; stroke-dashoffset: 0; stroke: #b0b0b0; stroke-width: 0.8"/>
     </g>
     <g id="line2d_32">
      <g>
       <use xlink:href="#mc90eeee065" x="108" y="118.191572" style="fill: #a9a9a9; stroke: #a9a9a9; stroke-width: 0.8"/>
      </g>
     </g>
     <g id="text_16">
      <!-- 6000 -->
      <g style="fill: #a9a9a9" transform="translate(75.55 121.99079) scale(0.1 -0.1)">
       <defs>
        <path id="DejaVuSans-36" d="M 2113 2584 
Q 1688 2584 1439 2293 
Q 1191 2003 1191 1497 
Q 1191 994 1439 701 
Q 1688 409 2113 409 
Q 2538 409 2786 701 
Q 3034 994 3034 1497 
Q 3034 2003 2786 2293 
Q 2538 2584 2113 2584 
z
M 3366 4563 
L 3366 3988 
Q 3128 4100 2886 4159 
Q 2644 4219 2406 4219 
Q 1781 4219 1451 3797 
Q 1122 3375 1075 2522 
Q 1259 2794 1537 2939 
Q 1816 3084 2150 3084 
Q 2853 3084 3261 2657 
Q 3669 2231 3669 1497 
Q 3669 778 3244 343 
Q 2819 -91 2113 -91 
Q 1303 -91 875 529 
Q 447 1150 447 2328 
Q 447 3434 972 4092 
Q 1497 4750 2381 4750 
Q 2619 4750 2861 4703 
Q 3103 4656 3366 4563 
z
" transform="scale(0.015625)"/>
       </defs>
       <use xlink:href="#DejaVuSans-36"/>
       <use xlink:href="#DejaVuSans-30" transform="translate(63.623047 0)"/>
       <use xlink:href="#DejaVuSans-30" transform="translate(127.246094 0)"/>
       <use xlink:href="#DejaVuSans-30" transform="translate(190.869141 0)"/>
      </g>
     </g>
    </g>
    <g id="ytick_8">
     <g id="line2d_33">
      <path d="M 108 86.584899 
L 777.6 86.584899 
" clip-path="url(#p2253e6b16a)" style="fill: none; stroke-dasharray: 5.12,1.28,0.8,1.28; stroke-dashoffset: 0; stroke: #b0b0b0; stroke-width: 0.8"/>
     </g>
     <g id="line2d_34">
      <g>
       <use xlink:href="#mc90eeee065" x="108" y="86.584899" style="fill: #a9a9a9; stroke: #a9a9a9; stroke-width: 0.8"/>
      </g>
     </g>
     <g id="text_17">
      <!-- 7000 -->
      <g style="fill: #a9a9a9" transform="translate(75.55 90.384118) scale(0.1 -0.1)">
       <use xlink:href="#DejaVuSans-37"/>
       <use xlink:href="#DejaVuSans-30" transform="translate(63.623047 0)"/>
       <use xlink:href="#DejaVuSans-30" transform="translate(127.246094 0)"/>
       <use xlink:href="#DejaVuSans-30" transform="translate(190.869141 0)"/>
      </g>
     </g>
    </g>
    <g id="ytick_9">
     <g id="line2d_35">
      <path d="M 108 54.978227 
L 777.6 54.978227 
" clip-path="url(#p2253e6b16a)" style="fill: none; stroke-dasharray: 5.12,1.28,0.8,1.28; stroke-dashoffset: 0; stroke: #b0b0b0; stroke-width: 0.8"/>
     </g>
     <g id="line2d_36">
      <g>
       <use xlink:href="#mc90eeee065" x="108" y="54.978227" style="fill: #a9a9a9; stroke: #a9a9a9; stroke-width: 0.8"/>
      </g>
     </g>
     <g id="text_18">
      <!-- 8000 -->
      <g style="fill: #a9a9a9" transform="translate(75.55 58.777445) scale(0.1 -0.1)">
       <defs>
        <path id="DejaVuSans-38" d="M 2034 2216 
Q 1584 2216 1326 1975 
Q 1069 1734 1069 1313 
Q 1069 891 1326 650 
Q 1584 409 2034 409 
Q 2484 409 2743 651 
Q 3003 894 3003 1313 
Q 3003 1734 2745 1975 
Q 2488 2216 2034 2216 
z
M 1403 2484 
Q 997 2584 770 2862 
Q 544 3141 544 3541 
Q 544 4100 942 4425 
Q 1341 4750 2034 4750 
Q 2731 4750 3128 4425 
Q 3525 4100 3525 3541 
Q 3525 3141 3298 2862 
Q 3072 2584 2669 2484 
Q 3125 2378 3379 2068 
Q 3634 1759 3634 1313 
Q 3634 634 3220 271 
Q 2806 -91 2034 -91 
Q 1263 -91 848 271 
Q 434 634 434 1313 
Q 434 1759 690 2068 
Q 947 2378 1403 2484 
z
M 1172 3481 
Q 1172 3119 1398 2916 
Q 1625 2713 2034 2713 
Q 2441 2713 2670 2916 
Q 2900 3119 2900 3481 
Q 2900 3844 2670 4047 
Q 2441 4250 2034 4250 
Q 1625 4250 1398 4047 
Q 1172 3844 1172 3481 
z
" transform="scale(0.015625)"/>
       </defs>
       <use xlink:href="#DejaVuSans-38"/>
       <use xlink:href="#DejaVuSans-30" transform="translate(63.623047 0)"/>
       <use xlink:href="#DejaVuSans-30" transform="translate(127.246094 0)"/>
       <use xlink:href="#DejaVuSans-30" transform="translate(190.869141 0)"/>
      </g>
     </g>
    </g>
   </g>
   <g id="line2d_37">
    <path d="M 138.436364 307.736787 
L 140.915904 307.51554 
L 141.329161 307.3259 
L 142.982188 307.104653 
L 144.635216 306.75698 
L 145.461729 306.630553 
L 147.528013 306.440913 
L 148.354527 306.09324 
L 148.767784 305.52432 
L 149.181041 305.23986 
L 149.594297 304.291659 
L 150.007554 304.228446 
L 150.420811 303.880773 
L 151.247325 303.438279 
L 152.900352 302.047586 
L 154.553379 301.194205 
L 155.793149 300.593679 
L 156.206406 299.898332 
L 157.03292 299.266198 
L 157.446177 299.076558 
L 161.578745 298.444425 
L 161.992001 298.254785 
L 164.884799 298.001932 
L 166.537826 297.591045 
L 169.843881 297.116945 
L 170.257138 296.895698 
L 170.670394 296.832485 
L 171.496908 296.548025 
L 174.389706 296.042318 
L 175.216219 295.789464 
L 178.93553 295.157331 
L 179.762044 294.967691 
L 180.588558 294.936084 
L 182.241585 294.525198 
L 182.654842 293.924671 
L 183.894612 293.418964 
L 185.134383 293.071291 
L 185.547639 292.850044 
L 186.374153 292.692011 
L 188.02718 292.186304 
L 188.853694 292.12309 
L 189.680207 291.901844 
L 191.333235 291.45935 
L 191.746491 291.427744 
L 192.573005 291.016857 
L 192.986262 290.953644 
L 193.399519 290.732397 
L 197.945343 289.94223 
L 199.598371 289.436523 
L 200.011627 289.152063 
L 202.077911 288.456716 
L 202.904425 287.85619 
L 204.144196 287.603336 
L 209.516534 286.023003 
L 209.929791 285.959789 
L 211.582818 285.296049 
L 211.996075 285.232836 
L 212.822588 284.885162 
L 213.649102 284.853556 
L 214.888872 284.474276 
L 215.302129 284.474276 
L 215.715386 284.284636 
L 216.5419 284.189816 
L 216.955156 284.031782 
L 218.608184 283.968569 
L 219.434697 283.810536 
L 220.261211 283.368042 
L 221.500981 282.893942 
L 222.327495 282.451449 
L 223.154009 282.008955 
L 223.980522 281.724495 
L 224.393779 281.598068 
L 225.220293 281.060755 
L 225.633549 280.586655 
L 226.460063 279.259175 
L 226.87332 279.132748 
L 227.286577 279.132748 
L 228.939604 278.184548 
L 229.352861 278.089728 
L 229.766117 277.678841 
L 230.592631 277.331168 
L 231.419145 276.951888 
L 231.832401 276.446181 
L 232.245658 275.750834 
L 232.658915 275.466374 
L 233.072172 274.707814 
L 233.485429 274.233714 
L 235.964969 272.84302 
L 237.617997 271.3259 
L 238.031253 270.346093 
L 238.44451 269.71396 
L 238.857767 269.366286 
L 239.271024 269.176646 
L 242.577078 266.047586 
L 243.403592 265.257419 
L 245.883133 263.645478 
L 246.29639 263.487445 
L 247.949417 262.476032 
L 248.362674 262.286392 
L 250.428958 260.326778 
L 251.255471 259.979104 
L 252.081985 259.378578 
L 252.495242 259.125724 
L 252.908498 259.062511 
L 254.148269 258.335558 
L 254.561526 257.861457 
L 256.62781 256.692011 
L 257.041066 256.533977 
L 258.280837 255.64899 
L 264.479689 253.37331 
L 265.306203 252.583143 
L 266.545973 251.95101 
L 267.372487 251.413696 
L 268.199 251.160843 
L 268.612257 250.876383 
L 269.025514 250.749956 
L 270.265284 249.896576 
L 272.331568 249.422476 
L 273.571339 248.663916 
L 274.811109 248.379456 
L 275.224366 248.284636 
L 276.464136 247.336435 
L 278.117163 246.862335 
L 278.53042 246.514662 
L 281.009961 245.629675 
L 281.836475 245.471642 
L 282.662988 245.123968 
L 285.555786 244.017735 
L 286.3823 243.922915 
L 287.62207 243.480421 
L 289.688354 242.437401 
L 292.167895 241.015101 
L 292.994408 240.793854 
L 294.234179 240.161721 
L 295.060692 240.003687 
L 295.887206 239.497981 
L 296.71372 239.276734 
L 297.95349 238.771027 
L 299.606517 238.549781 
L 300.433031 238.107287 
L 300.846288 237.728007 
L 301.259545 236.969447 
L 302.912572 236.495347 
L 304.152342 235.831607 
L 304.978856 235.547147 
L 306.218626 234.915013 
L 308.28491 234.061633 
L 309.111424 233.871993 
L 310.351194 233.23986 
L 310.764451 233.176646 
L 312.830735 232.133626 
L 313.657249 231.596313 
L 314.897019 231.343459 
L 316.963303 230.806146 
L 317.37656 230.458472 
L 318.203074 230.174012 
L 320.269358 229.320632 
L 320.682614 229.004565 
L 321.095871 228.846532 
L 321.922385 228.372432 
L 323.575412 227.835119 
L 324.401926 227.297805 
L 324.815182 226.855312 
L 325.228439 226.602458 
L 325.641696 226.507638 
L 326.46821 225.812291 
L 326.881466 225.749078 
L 327.294723 225.053731 
L 327.70798 224.864091 
L 328.121237 224.516418 
L 328.534494 224.453205 
L 329.361007 223.915891 
L 330.187521 223.631431 
L 330.600778 223.315364 
L 331.014034 223.157331 
L 332.667062 222.019491 
L 333.906832 221.387357 
L 334.733346 221.166111 
L 335.559859 220.692011 
L 335.973116 219.965057 
L 336.79963 219.332924 
L 337.212887 219.238104 
L 339.692427 218.005443 
L 340.518941 217.65777 
L 341.345455 217.057243 
L 342.585225 215.887796 
L 343.411739 215.38209 
L 343.824995 214.907989 
L 345.478023 213.738543 
L 346.304536 212.885162 
L 347.13105 212.600702 
L 347.957563 212.031782 
L 349.197334 211.368042 
L 349.610591 211.304829 
L 350.850361 210.609482 
L 351.676875 210.072169 
L 355.809443 208.491835 
L 356.2227 208.144162 
L 357.875727 207.480421 
L 358.288984 207.353995 
L 359.115497 206.816681 
L 359.942011 206.469008 
L 360.768524 205.868481 
L 361.595038 204.161721 
L 362.421552 203.150307 
L 363.661322 202.486567 
L 364.487836 202.138894 
L 364.901092 202.07568 
L 365.727606 201.6964 
L 367.380633 201.12748 
L 368.207147 200.65338 
L 369.03366 200.242493 
L 369.446917 200.116067 
L 371.926458 198.598946 
L 372.339715 198.124846 
L 373.579485 197.397893 
L 373.992742 197.23986 
L 374.819256 196.734153 
L 376.472283 195.817559 
L 376.88554 195.722739 
L 377.298797 195.375066 
L 380.191594 194.395259 
L 380.604851 194.079192 
L 381.431365 193.826339 
L 382.257878 193.478665 
L 382.671135 193.130992 
L 384.324162 192.530465 
L 385.150676 191.929939 
L 385.977189 191.582265 
L 386.803703 190.918525 
L 387.630217 190.665672 
L 388.043473 190.286392 
L 388.45673 190.223178 
L 389.283244 189.559438 
L 391.349528 188.326778 
L 392.176041 188.073924 
L 392.589298 187.821071 
L 393.002555 187.757858 
L 394.242325 187.062511 
L 400.441178 185.102897 
L 401.680948 184.186304 
L 402.094205 184.02827 
L 402.920718 183.55417 
L 403.333975 183.427744 
L 405.813516 182.005443 
L 406.226773 181.910623 
L 407.466543 181.152063 
L 408.706314 180.70957 
L 409.532827 180.42511 
L 411.185854 179.85619 
L 412.012368 179.57173 
L 413.665395 179.224056 
L 414.078652 179.034416 
L 414.905166 178.813169 
L 415.318423 178.623529 
L 415.731679 178.560316 
L 416.144936 178.339069 
L 416.97145 178.181036 
L 418.21122 177.706936 
L 419.450991 177.517296 
L 421.930531 177.043196 
L 423.170302 176.758736 
L 423.583559 176.569096 
L 424.410072 176.411062 
L 425.236586 176.189816 
L 426.063099 175.810536 
L 426.476356 175.652502 
L 426.889613 175.652502 
L 431.435438 174.230202 
L 431.848695 174.008955 
L 432.261951 174.008955 
L 433.088465 173.692888 
L 433.501722 173.250395 
L 435.981263 172.207375 
L 437.63429 171.638455 
L 438.047547 171.385601 
L 439.287317 171.006321 
L 440.113831 170.785075 
L 440.527088 170.500615 
L 440.940344 170.405795 
L 441.353601 170.026514 
L 442.593372 169.773661 
L 443.419885 169.394381 
L 443.833142 168.888674 
L 448.378967 167.877261 
L 448.792224 167.877261 
L 449.20548 167.687621 
L 450.858508 167.371554 
L 451.271764 167.181914 
L 452.924792 166.865847 
L 453.751305 166.518174 
L 454.577819 166.36014 
L 456.644103 165.822827 
L 458.29713 165.285514 
L 458.710387 165.190694 
L 459.123644 164.969447 
L 459.950157 164.7482 
L 460.776671 164.400527 
L 461.603185 164.08446 
L 462.016441 163.8 
L 462.842955 163.547147 
L 465.735753 162.440913 
L 467.38878 162.251273 
L 470.694834 161.018613 
L 471.108091 160.702546 
L 471.521348 160.607726 
L 471.934605 160.386479 
L 472.347862 160.354873 
L 476.893686 158.679719 
L 478.95997 158.110799 
L 479.786484 157.699912 
L 481.026254 157.415452 
L 482.679282 156.024759 
L 484.332309 155.297805 
L 485.158822 154.918525 
L 487.638363 153.938718 
L 488.05162 153.654258 
L 490.117904 152.958911 
L 494.250472 150.841264 
L 495.076986 150.461984 
L 495.490243 150.145917 
L 496.316756 149.861457 
L 498.38304 148.786831 
L 499.622811 148.344337 
L 500.862581 147.870237 
L 502.928865 147.08007 
L 503.755379 146.953644 
L 504.168635 146.669183 
L 505.821663 146.353117 
L 506.648176 146.005443 
L 508.301203 145.215277 
L 514.086799 142.623529 
L 515.326569 142.212643 
L 515.739826 141.928183 
L 516.56634 141.833363 
L 516.979596 141.548903 
L 517.80611 141.422476 
L 518.632624 141.011589 
L 519.04588 140.821949 
L 519.872394 140.600702 
L 520.698908 140.347849 
L 521.938678 139.873749 
L 523.178448 139.462862 
L 524.418219 139.178402 
L 526.071246 138.483055 
L 526.89776 138.040562 
L 528.550787 137.187182 
L 529.3773 136.997542 
L 529.790557 136.744688 
L 530.203814 136.649868 
L 531.443585 135.922915 
L 532.270098 135.575241 
L 537.642437 133.552414 
L 538.055693 133.489201 
L 539.708721 132.699034 
L 540.535234 132.541001 
L 541.361748 132.066901 
L 543.014775 131.276734 
L 547.147343 129.633187 
L 547.973857 129.2223 
L 548.387113 129.12748 
L 548.80037 128.906234 
L 550.453398 128.432133 
L 552.106425 127.04144 
L 552.519682 126.915013 
L 552.932938 126.66216 
L 554.172709 126.314486 
L 554.585966 125.99842 
L 554.999222 125.9036 
L 556.238993 125.14504 
L 556.65225 124.860579 
L 557.89202 124.386479 
L 558.305277 124.165233 
L 559.545047 123.880773 
L 561.611331 123.153819 
L 562.437845 122.900966 
L 563.677615 122.237226 
L 564.504129 121.826339 
L 565.330642 121.605092 
L 566.570413 121.004565 
L 570.702981 119.329412 
L 572.769265 118.317998 
L 573.595779 118.001932 
L 574.009035 117.622651 
L 574.835549 117.274978 
L 576.075319 116.832485 
L 576.488576 116.484811 
L 576.901833 116.453205 
L 577.728347 116.200351 
L 578.55486 115.915891 
L 578.968117 115.726251 
L 579.381374 115.663038 
L 580.207887 115.315364 
L 581.447658 115.030904 
L 582.274171 114.556804 
L 582.687428 114.398771 
L 583.100685 114.082704 
L 584.340455 113.766637 
L 584.753712 113.513784 
L 585.580226 113.292537 
L 586.819996 112.597191 
L 587.233253 112.565584 
L 588.473024 112.154697 
L 589.299537 112.091484 
L 589.712794 111.870237 
L 590.539308 111.64899 
L 590.952564 111.427744 
L 593.018848 111.016857 
L 593.845362 110.858824 
L 595.085132 110.384723 
L 596.324903 110.100263 
L 597.564673 109.436523 
L 597.97793 109.057243 
L 599.2177 108.298683 
L 599.630957 107.982616 
L 600.870728 107.57173 
L 601.697241 107.350483 
L 604.176782 106.212643 
L 604.590039 106.149429 
L 605.416552 105.738543 
L 607.06958 105.296049 
L 607.896093 104.916769 
L 608.30935 104.695522 
L 609.135864 104.442669 
L 609.549121 104.221422 
L 610.375634 104.063389 
L 613.681689 102.609482 
L 614.094945 102.546269 
L 615.334716 101.724495 
L 615.747973 101.661282 
L 617.401 100.997542 
L 619.054027 100.586655 
L 619.467284 100.523442 
L 619.880541 100.333802 
L 620.293797 100.302195 
L 621.120311 100.017735 
L 621.533568 99.986128 
L 622.773338 99.512028 
L 624.426365 99.037928 
L 625.252879 98.405795 
L 626.905906 97.489201 
L 627.319163 97.394381 
L 627.73242 97.173134 
L 628.558934 96.888674 
L 628.97219 96.762248 
L 629.385447 96.414574 
L 630.625218 95.940474 
L 631.451731 95.466374 
L 631.864988 95.245127 
L 632.278245 94.865847 
L 634.344529 94.36014 
L 635.584299 93.79122 
L 636.410813 93.569974 
L 636.82407 93.348727 
L 637.237326 93.001054 
L 638.890354 92.55856 
L 639.30361 92.242493 
L 644.675949 90.28288 
L 645.502463 90.124846 
L 647.568747 89.461106 
L 648.39526 89.113433 
L 649.221774 88.797366 
L 650.048287 88.576119 
L 650.461544 88.386479 
L 650.874801 88.386479 
L 651.701315 88.038806 
L 652.527828 87.564706 
L 655.420626 86.584899 
L 657.073653 86.015979 
L 658.313423 85.731519 
L 659.553194 85.320632 
L 659.966451 85.225812 
L 660.379707 84.941352 
L 661.206221 84.751712 
L 662.859248 84.277612 
L 663.272505 84.246005 
L 664.099019 83.866725 
L 666.991816 83.139772 
L 668.644844 82.539245 
L 669.0581 82.539245 
L 670.297871 82.254785 
L 671.124384 82.096752 
L 671.950898 81.875505 
L 673.190668 81.211765 
L 674.430439 80.832485 
L 677.323236 79.852678 
L 677.736493 79.631431 
L 678.14975 79.536611 
L 679.38952 78.904478 
L 680.216034 78.746444 
L 681.042548 78.493591 
L 681.869061 78.082704 
L 682.282318 77.735031 
L 683.108832 77.482177 
L 683.522089 77.229324 
L 684.348602 77.134504 
L 687.2414 76.31273 
L 688.48117 76.059877 
L 689.720941 75.74381 
L 690.547454 75.55417 
L 691.787225 74.922037 
L 693.440252 74.289903 
L 694.266765 73.84741 
L 694.680022 73.815803 
L 695.506536 73.404917 
L 698.399333 72.583143 
L 699.639104 72.393503 
L 700.465617 72.14065 
L 701.705388 71.76137 
L 705.424699 70.718349 
L 706.251213 70.497103 
L 706.66447 70.402283 
L 707.077726 70.149429 
L 707.90424 69.991396 
L 708.730754 69.896576 
L 709.14401 69.675329 
L 709.557267 69.643723 
L 710.383781 69.106409 
L 712.036808 68.758736 
L 712.863322 68.411062 
L 713.689835 68.126602 
L 714.516349 67.905356 
L 715.342862 67.557682 
L 716.169376 67.273222 
L 717.822403 66.799122 
L 718.648917 66.735909 
L 719.47543 66.451449 
L 719.888687 66.293415 
L 720.715201 66.166989 
L 722.368228 65.440035 
L 722.781485 65.376822 
L 723.194742 65.155575 
L 724.021255 64.997542 
L 724.847769 64.934328 
L 727.32731 64.302195 
L 728.153823 63.954522 
L 728.56708 63.891308 
L 728.980337 63.670061 
L 729.806851 62.974715 
L 735.179189 61.015101 
L 736.418959 60.730641 
L 736.832216 60.414574 
L 738.071987 59.877261 
L 738.8985 59.434767 
L 739.311757 59.339947 
L 739.725014 59.023881 
L 740.964784 58.676207 
L 741.378041 58.45496 
L 742.204555 58.1705 
L 743.031068 57.822827 
L 744.684096 56.7482 
L 745.097352 56.65338 
L 746.337123 56.021247 
L 746.75038 55.831607 
L 747.163636 55.8 
L 747.163636 55.8 
" clip-path="url(#p2253e6b16a)" style="fill: none; stroke: #1f77b4; stroke-width: 1.5; stroke-linecap: square"/>
   </g>
   <g id="line2d_38">
    <path d="M 138.84962 307.8 
L 142.568932 307.70518 
L 145.874986 307.547147 
L 147.528013 307.547147 
L 147.94127 307.42072 
L 150.007554 307.3259 
L 152.487095 307.04144 
L 154.966636 306.94662 
L 155.793149 306.8518 
L 158.685947 306.725373 
L 161.578745 306.630553 
L 163.645029 306.56734 
L 169.017367 306.47252 
L 171.083651 306.409306 
L 174.802962 306.314486 
L 176.45599 306.28288 
L 180.588558 306.18806 
L 182.241585 306.030026 
L 183.894612 305.99842 
L 186.374153 305.9036 
L 188.02718 305.871993 
L 190.093464 305.80878 
L 191.746491 305.650746 
L 195.465803 305.555926 
L 196.292316 305.492713 
L 197.945343 305.397893 
L 200.424884 305.303073 
L 202.077911 305.208253 
L 209.516534 304.734153 
L 212.409332 304.639333 
L 213.649102 304.512906 
L 215.715386 304.418086 
L 219.847954 304.196839 
L 223.980522 304.133626 
L 225.633549 303.943986 
L 227.699833 303.849166 
L 231.832401 303.438279 
L 234.311942 303.122212 
L 235.964969 303.058999 
L 239.271024 302.616506 
L 241.750565 302.553292 
L 242.990335 302.426866 
L 244.230106 302.332046 
L 255.801296 301.415452 
L 256.62781 301.257419 
L 259.10735 301.162599 
L 265.719459 300.751712 
L 268.612257 300.656892 
L 270.265284 300.467252 
L 272.331568 300.372432 
L 274.811109 300.277612 
L 276.877393 300.182792 
L 278.53042 300.151185 
L 280.596704 300.087972 
L 281.423218 299.961545 
L 287.208813 299.866725 
L 288.035327 299.771905 
L 292.994408 299.677085 
L 296.71372 299.487445 
L 299.606517 299.392625 
L 301.259545 299.202985 
L 304.152342 299.108165 
L 304.978856 298.981738 
L 307.04514 298.918525 
L 311.177708 298.855312 
L 312.830735 298.697278 
L 314.483762 298.665672 
L 315.723533 298.570852 
L 317.37656 298.412818 
L 321.509128 298.191572 
L 325.641696 298.096752 
L 329.361007 297.907112 
L 330.600778 297.875505 
L 331.427291 297.749078 
L 333.493575 297.654258 
L 334.320089 297.591045 
L 335.146602 297.527831 
L 335.973116 297.464618 
L 340.105684 297.369798 
L 349.197334 296.769271 
L 350.023847 296.706058 
L 351.263618 296.611238 
L 354.156415 296.516418 
L 356.2227 296.453205 
L 362.008295 296.358385 
L 362.834808 296.231958 
L 368.620404 296.137138 
L 372.752972 295.915891 
L 373.579485 295.884284 
L 374.405999 295.789464 
L 376.472283 295.694644 
L 378.538567 295.631431 
L 380.604851 295.536611 
L 382.671135 295.473398 
L 386.390446 295.378578 
L 388.869987 295.283758 
L 394.655582 295.188938 
L 399.201407 294.936084 
L 400.854434 294.872871 
L 402.094205 294.778051 
L 407.8798 294.683231 
L 410.359341 294.588411 
L 417.797963 294.493591 
L 419.450991 294.461984 
L 424.410072 294.398771 
L 425.236586 294.335558 
L 431.022181 294.240737 
L 432.675208 294.209131 
L 443.419885 294.114311 
L 445.899426 294.019491 
L 463.256212 293.924671 
L 465.322496 293.861457 
L 476.067173 293.798244 
L 476.893686 293.735031 
L 478.95997 293.671817 
L 480.199741 293.545391 
L 482.679282 293.450571 
L 485.572079 293.324144 
L 489.29139 293.229324 
L 491.357675 293.166111 
L 494.250472 293.071291 
L 497.556527 292.913257 
L 499.622811 292.818437 
L 501.275838 292.786831 
L 508.301203 292.692011 
L 510.780744 292.597191 
L 515.326569 292.502371 
L 518.219367 292.375944 
L 521.112164 292.31273 
L 521.938678 292.249517 
L 531.856841 292.154697 
L 535.989409 291.93345 
L 538.882207 291.83863 
L 543.428032 291.585777 
L 546.320829 291.490957 
L 547.973857 291.45935 
L 550.866654 291.36453 
L 552.932938 291.143284 
L 557.065506 291.048464 
L 557.89202 290.953644 
L 562.024588 290.858824 
L 564.090872 290.79561 
L 568.636697 290.764004 
L 569.463211 290.669183 
L 574.009035 290.574363 
L 574.835549 290.51115 
L 583.927199 290.41633 
L 586.406739 290.32151 
L 592.605592 290.22669 
L 594.258619 290.195083 
L 597.97793 290.13187 
L 598.804444 290.03705 
L 604.176782 289.94223 
L 606.243066 289.879017 
L 613.681689 289.784197 
L 614.921459 289.689377 
L 616.161229 289.594557 
L 617.401 289.499737 
L 623.599852 289.404917 
L 626.079393 289.310097 
L 637.237326 289.215277 
L 640.956638 289.025637 
L 645.915719 288.962423 
L 646.742233 288.89921 
L 652.941085 288.835996 
L 653.767599 288.772783 
L 658.313423 288.677963 
L 659.966451 288.646356 
L 666.991816 288.551536 
L 667.81833 288.488323 
L 675.256952 288.393503 
L 676.90998 288.361896 
L 680.629291 288.267076 
L 683.935345 288.109043 
L 688.48117 288.014223 
L 691.373968 287.887796 
L 695.093279 287.792976 
L 695.919793 287.729763 
L 704.184929 287.634943 
L 706.251213 287.57173 
L 708.730754 287.47691 
L 711.210294 287.38209 
L 723.607999 287.28727 
L 726.500796 287.160843 
L 731.459878 287.066023 
L 733.112905 287.034416 
L 739.725014 286.939596 
L 740.964784 286.844776 
L 744.270839 286.749956 
L 747.163636 286.623529 
L 747.163636 286.623529 
" clip-path="url(#p2253e6b16a)" style="fill: none; stroke: #ff7f0e; stroke-width: 1.5; stroke-linecap: square"/>
   </g>
   <g id="patch_3">
    <path d="M 108 320.4 
L 108 43.2 
" style="fill: none; stroke: #a9a9a9; stroke-width: 0.8; stroke-linejoin: miter; stroke-linecap: square"/>
   </g>
   <g id="patch_4">
    <path d="M 777.6 320.4 
L 777.6 43.2 
" style="fill: none"/>
   </g>
   <g id="patch_5">
    <path d="M 108 320.4 
L 777.6 320.4 
" style="fill: none; stroke: #a9a9a9; stroke-width: 0.8; stroke-linejoin: miter; stroke-linecap: square"/>
   </g>
   <g id="patch_6">
    <path d="M 108 43.2 
L 777.6 43.2 
" style="fill: none"/>
   </g>
   <g id="text_19">
    <!-- get_subscribe history -->
    <g style="fill: #a9a9a9" transform="translate(378.6075 37.2) scale(0.12 -0.12)">
     <defs>
      <path id="DejaVuSans-67" d="M 2906 1791 
Q 2906 2416 2648 2759 
Q 2391 3103 1925 3103 
Q 1463 3103 1205 2759 
Q 947 2416 947 1791 
Q 947 1169 1205 825 
Q 1463 481 1925 481 
Q 2391 481 2648 825 
Q 2906 1169 2906 1791 
z
M 3481 434 
Q 3481 -459 3084 -895 
Q 2688 -1331 1869 -1331 
Q 1566 -1331 1297 -1286 
Q 1028 -1241 775 -1147 
L 775 -588 
Q 1028 -725 1275 -790 
Q 1522 -856 1778 -856 
Q 2344 -856 2625 -561 
Q 2906 -266 2906 331 
L 2906 616 
Q 2728 306 2450 153 
Q 2172 0 1784 0 
Q 1141 0 747 490 
Q 353 981 353 1791 
Q 353 2603 747 3093 
Q 1141 3584 1784 3584 
Q 2172 3584 2450 3431 
Q 2728 3278 2906 2969 
L 2906 3500 
L 3481 3500 
L 3481 434 
z
" transform="scale(0.015625)"/>
      <path id="DejaVuSans-65" d="M 3597 1894 
L 3597 1613 
L 953 1613 
Q 991 1019 1311 708 
Q 1631 397 2203 397 
Q 2534 397 2845 478 
Q 3156 559 3463 722 
L 3463 178 
Q 3153 47 2828 -22 
Q 2503 -91 2169 -91 
Q 1331 -91 842 396 
Q 353 884 353 1716 
Q 353 2575 817 3079 
Q 1281 3584 2069 3584 
Q 2775 3584 3186 3129 
Q 3597 2675 3597 1894 
z
M 3022 2063 
Q 3016 2534 2758 2815 
Q 2500 3097 2075 3097 
Q 1594 3097 1305 2825 
Q 1016 2553 972 2059 
L 3022 2063 
z
" transform="scale(0.015625)"/>
      <path id="DejaVuSans-74" d="M 1172 4494 
L 1172 3500 
L 2356 3500 
L 2356 3053 
L 1172 3053 
L 1172 1153 
Q 1172 725 1289 603 
Q 1406 481 1766 481 
L 2356 481 
L 2356 0 
L 1766 0 
Q 1100 0 847 248 
Q 594 497 594 1153 
L 594 3053 
L 172 3053 
L 172 3500 
L 594 3500 
L 594 4494 
L 1172 4494 
z
" transform="scale(0.015625)"/>
      <path id="DejaVuSans-5f" d="M 3263 -1063 
L 3263 -1509 
L -63 -1509 
L -63 -1063 
L 3263 -1063 
z
" transform="scale(0.015625)"/>
      <path id="DejaVuSans-73" d="M 2834 3397 
L 2834 2853 
Q 2591 2978 2328 3040 
Q 2066 3103 1784 3103 
Q 1356 3103 1142 2972 
Q 928 2841 928 2578 
Q 928 2378 1081 2264 
Q 1234 2150 1697 2047 
L 1894 2003 
Q 2506 1872 2764 1633 
Q 3022 1394 3022 966 
Q 3022 478 2636 193 
Q 2250 -91 1575 -91 
Q 1294 -91 989 -36 
Q 684 19 347 128 
L 347 722 
Q 666 556 975 473 
Q 1284 391 1588 391 
Q 1994 391 2212 530 
Q 2431 669 2431 922 
Q 2431 1156 2273 1281 
Q 2116 1406 1581 1522 
L 1381 1569 
Q 847 1681 609 1914 
Q 372 2147 372 2553 
Q 372 3047 722 3315 
Q 1072 3584 1716 3584 
Q 2034 3584 2315 3537 
Q 2597 3491 2834 3397 
z
" transform="scale(0.015625)"/>
      <path id="DejaVuSans-75" d="M 544 1381 
L 544 3500 
L 1119 3500 
L 1119 1403 
Q 1119 906 1312 657 
Q 1506 409 1894 409 
Q 2359 409 2629 706 
Q 2900 1003 2900 1516 
L 2900 3500 
L 3475 3500 
L 3475 0 
L 2900 0 
L 2900 538 
Q 2691 219 2414 64 
Q 2138 -91 1772 -91 
Q 1169 -91 856 284 
Q 544 659 544 1381 
z
M 1991 3584 
L 1991 3584 
z
" transform="scale(0.015625)"/>
      <path id="DejaVuSans-62" d="M 3116 1747 
Q 3116 2381 2855 2742 
Q 2594 3103 2138 3103 
Q 1681 3103 1420 2742 
Q 1159 2381 1159 1747 
Q 1159 1113 1420 752 
Q 1681 391 2138 391 
Q 2594 391 2855 752 
Q 3116 1113 3116 1747 
z
M 1159 2969 
Q 1341 3281 1617 3432 
Q 1894 3584 2278 3584 
Q 2916 3584 3314 3078 
Q 3713 2572 3713 1747 
Q 3713 922 3314 415 
Q 2916 -91 2278 -91 
Q 1894 -91 1617 61 
Q 1341 213 1159 525 
L 1159 0 
L 581 0 
L 581 4863 
L 1159 4863 
L 1159 2969 
z
" transform="scale(0.015625)"/>
      <path id="DejaVuSans-63" d="M 3122 3366 
L 3122 2828 
Q 2878 2963 2633 3030 
Q 2388 3097 2138 3097 
Q 1578 3097 1268 2742 
Q 959 2388 959 1747 
Q 959 1106 1268 751 
Q 1578 397 2138 397 
Q 2388 397 2633 464 
Q 2878 531 3122 666 
L 3122 134 
Q 2881 22 2623 -34 
Q 2366 -91 2075 -91 
Q 1284 -91 818 406 
Q 353 903 353 1747 
Q 353 2603 823 3093 
Q 1294 3584 2113 3584 
Q 2378 3584 2631 3529 
Q 2884 3475 3122 3366 
z
" transform="scale(0.015625)"/>
      <path id="DejaVuSans-72" d="M 2631 2963 
Q 2534 3019 2420 3045 
Q 2306 3072 2169 3072 
Q 1681 3072 1420 2755 
Q 1159 2438 1159 1844 
L 1159 0 
L 581 0 
L 581 3500 
L 1159 3500 
L 1159 2956 
Q 1341 3275 1631 3429 
Q 1922 3584 2338 3584 
Q 2397 3584 2469 3576 
Q 2541 3569 2628 3553 
L 2631 2963 
z
" transform="scale(0.015625)"/>
      <path id="DejaVuSans-69" d="M 603 3500 
L 1178 3500 
L 1178 0 
L 603 0 
L 603 3500 
z
M 603 4863 
L 1178 4863 
L 1178 4134 
L 603 4134 
L 603 4863 
z
" transform="scale(0.015625)"/>
      <path id="DejaVuSans-20" transform="scale(0.015625)"/>
      <path id="DejaVuSans-68" d="M 3513 2113 
L 3513 0 
L 2938 0 
L 2938 2094 
Q 2938 2591 2744 2837 
Q 2550 3084 2163 3084 
Q 1697 3084 1428 2787 
Q 1159 2491 1159 1978 
L 1159 0 
L 581 0 
L 581 4863 
L 1159 4863 
L 1159 2956 
Q 1366 3272 1645 3428 
Q 1925 3584 2291 3584 
Q 2894 3584 3203 3211 
Q 3513 2838 3513 2113 
z
" transform="scale(0.015625)"/>
      <path id="DejaVuSans-6f" d="M 1959 3097 
Q 1497 3097 1228 2736 
Q 959 2375 959 1747 
Q 959 1119 1226 758 
Q 1494 397 1959 397 
Q 2419 397 2687 759 
Q 2956 1122 2956 1747 
Q 2956 2369 2687 2733 
Q 2419 3097 1959 3097 
z
M 1959 3584 
Q 2709 3584 3137 3096 
Q 3566 2609 3566 1747 
Q 3566 888 3137 398 
Q 2709 -91 1959 -91 
Q 1206 -91 779 398 
Q 353 888 353 1747 
Q 353 2609 779 3096 
Q 1206 3584 1959 3584 
z
" transform="scale(0.015625)"/>
      <path id="DejaVuSans-79" d="M 2059 -325 
Q 1816 -950 1584 -1140 
Q 1353 -1331 966 -1331 
L 506 -1331 
L 506 -850 
L 844 -850 
Q 1081 -850 1212 -737 
Q 1344 -625 1503 -206 
L 1606 56 
L 191 3500 
L 800 3500 
L 1894 763 
L 2988 3500 
L 3597 3500 
L 2059 -325 
z
" transform="scale(0.015625)"/>
     </defs>
     <use xlink:href="#DejaVuSans-67"/>
     <use xlink:href="#DejaVuSans-65" transform="translate(63.476562 0)"/>
     <use xlink:href="#DejaVuSans-74" transform="translate(125 0)"/>
     <use xlink:href="#DejaVuSans-5f" transform="translate(164.208984 0)"/>
     <use xlink:href="#DejaVuSans-73" transform="translate(214.208984 0)"/>
     <use xlink:href="#DejaVuSans-75" transform="translate(266.308594 0)"/>
     <use xlink:href="#DejaVuSans-62" transform="translate(329.6875 0)"/>
     <use xlink:href="#DejaVuSans-73" transform="translate(393.164062 0)"/>
     <use xlink:href="#DejaVuSans-63" transform="translate(445.263672 0)"/>
     <use xlink:href="#DejaVuSans-72" transform="translate(500.244141 0)"/>
     <use xlink:href="#DejaVuSans-69" transform="translate(541.357422 0)"/>
     <use xlink:href="#DejaVuSans-62" transform="translate(569.140625 0)"/>
     <use xlink:href="#DejaVuSans-65" transform="translate(632.617188 0)"/>
     <use xlink:href="#DejaVuSans-20" transform="translate(694.140625 0)"/>
     <use xlink:href="#DejaVuSans-68" transform="translate(725.927734 0)"/>
     <use xlink:href="#DejaVuSans-69" transform="translate(789.306641 0)"/>
     <use xlink:href="#DejaVuSans-73" transform="translate(817.089844 0)"/>
     <use xlink:href="#DejaVuSans-74" transform="translate(869.189453 0)"/>
     <use xlink:href="#DejaVuSans-6f" transform="translate(908.398438 0)"/>
     <use xlink:href="#DejaVuSans-72" transform="translate(969.580078 0)"/>
     <use xlink:href="#DejaVuSans-79" transform="translate(1010.693359 0)"/>
    </g>
   </g>
   <g id="legend_1">
    <g id="line2d_39">
     <path d="M 815.08 328.498438 
L 825.08 328.498438 
L 835.08 328.498438 
" style="fill: none; stroke: #1f77b4; stroke-width: 1.5; stroke-linecap: square"/>
    </g>
    <g id="text_20">
     <!-- star -->
     <g style="fill: #a9a9a9" transform="translate(843.08 331.998438) scale(0.1 -0.1)">
      <defs>
       <path id="DejaVuSans-61" d="M 2194 1759 
Q 1497 1759 1228 1600 
Q 959 1441 959 1056 
Q 959 750 1161 570 
Q 1363 391 1709 391 
Q 2188 391 2477 730 
Q 2766 1069 2766 1631 
L 2766 1759 
L 2194 1759 
z
M 3341 1997 
L 3341 0 
L 2766 0 
L 2766 531 
Q 2569 213 2275 61 
Q 1981 -91 1556 -91 
Q 1019 -91 701 211 
Q 384 513 384 1019 
Q 384 1609 779 1909 
Q 1175 2209 1959 2209 
L 2766 2209 
L 2766 2266 
Q 2766 2663 2505 2880 
Q 2244 3097 1772 3097 
Q 1472 3097 1187 3025 
Q 903 2953 641 2809 
L 641 3341 
Q 956 3463 1253 3523 
Q 1550 3584 1831 3584 
Q 2591 3584 2966 3190 
Q 3341 2797 3341 1997 
z
" transform="scale(0.015625)"/>
      </defs>
      <use xlink:href="#DejaVuSans-73"/>
      <use xlink:href="#DejaVuSans-74" transform="translate(52.099609 0)"/>
      <use xlink:href="#DejaVuSans-61" transform="translate(91.308594 0)"/>
      <use xlink:href="#DejaVuSans-72" transform="translate(152.587891 0)"/>
     </g>
    </g>
    <g id="line2d_40">
     <path d="M 815.08 343.176562 
L 825.08 343.176562 
L 835.08 343.176562 
" style="fill: none; stroke: #ff7f0e; stroke-width: 1.5; stroke-linecap: square"/>
    </g>
    <g id="text_21">
     <!-- fork -->
     <g style="fill: #a9a9a9" transform="translate(843.08 346.676562) scale(0.1 -0.1)">
      <defs>
       <path id="DejaVuSans-66" d="M 2375 4863 
L 2375 4384 
L 1825 4384 
Q 1516 4384 1395 4259 
Q 1275 4134 1275 3809 
L 1275 3500 
L 2222 3500 
L 2222 3053 
L 1275 3053 
L 1275 0 
L 697 0 
L 697 3053 
L 147 3053 
L 147 3500 
L 697 3500 
L 697 3744 
Q 697 4328 969 4595 
Q 1241 4863 1831 4863 
L 2375 4863 
z
" transform="scale(0.015625)"/>
       <path id="DejaVuSans-6b" d="M 581 4863 
L 1159 4863 
L 1159 1991 
L 2875 3500 
L 3609 3500 
L 1753 1863 
L 3688 0 
L 2938 0 
L 1159 1709 
L 1159 0 
L 581 0 
L 581 4863 
z
" transform="scale(0.015625)"/>
      </defs>
      <use xlink:href="#DejaVuSans-66"/>
      <use xlink:href="#DejaVuSans-6f" transform="translate(35.205078 0)"/>
      <use xlink:href="#DejaVuSans-72" transform="translate(96.386719 0)"/>
      <use xlink:href="#DejaVuSans-6b" transform="translate(137.5 0)"/>
     </g>
    </g>
   </g>
  </g>
 </g>
 <defs>
  <clipPath id="p2253e6b16a">
   <rect x="108" y="43.2" width="669.6" height="277.2"/>
  </clipPath>
 </defs>
</svg>
