<?xml version="1.0" encoding="utf-8" standalone="no"?>
<!DOCTYPE svg PUBLIC "-//W3C//DTD SVG 1.1//EN"
  "http://www.w3.org/Graphics/SVG/1.1/DTD/svg11.dtd">
<svg xmlns:xlink="http://www.w3.org/1999/xlink" width="864pt" height="360pt" viewBox="0 0 864 360" xmlns="http://www.w3.org/2000/svg" version="1.1">
 <metadata>
  <rdf:RDF xmlns:dc="http://purl.org/dc/elements/1.1/" xmlns:cc="http://creativecommons.org/ns#" xmlns:rdf="http://www.w3.org/1999/02/22-rdf-syntax-ns#">
   <cc:Work>
    <dc:type rdf:resource="http://purl.org/dc/dcmitype/StillImage"/>
    <dc:date>2025-08-04T20:07:42.680085</dc:date>
    <dc:format>image/svg+xml</dc:format>
    <dc:creator>
     <cc:Agent>
      <dc:title>Matplotlib v3.10.5, https://matplotlib.org/</dc:title>
     </cc:Agent>
    </dc:creator>
   </cc:Work>
  </rdf:RDF>
 </metadata>
 <defs>
  <style type="text/css">*{stroke-linejoin: round; stroke-linecap: butt}</style>
 </defs>
 <g id="figure_1">
  <g id="patch_1">
   <path d="M 0 360 
L 864 360 
L 864 0 
L 0 0 
L 0 360 
z
" style="fill: none; opacity: 0"/>
  </g>
  <g id="axes_1">
   <g id="patch_2">
    <path d="M 108 320.4 
L 777.6 320.4 
L 777.6 43.2 
L 108 43.2 
L 108 320.4 
z
" style="fill: none; opacity: 0"/>
   </g>
   <g id="matplotlib.axis_1">
    <g id="xtick_1">
     <g id="line2d_1">
      <path d="M 128.925 320.4 
L 128.925 43.2 
" clip-path="url(#pd4f8d83208)" style="fill: none; stroke-dasharray: 5.12,1.28,0.8,1.28; stroke-dashoffset: 0; stroke: #b0b0b0; stroke-width: 0.8"/>
     </g>
     <g id="line2d_2">
      <defs>
       <path id="mf592f56f5f" d="M 0 0 
L 0 3.5 
" style="stroke: #a9a9a9; stroke-width: 0.8"/>
      </defs>
      <g>
       <use xlink:href="#mf592f56f5f" x="128.925" y="320.4" style="fill: #a9a9a9; stroke: #a9a9a9; stroke-width: 0.8"/>
      </g>
     </g>
     <g id="text_1">
      <!-- 2021-07 -->
      <g style="fill: #a9a9a9" transform="translate(108.033594 334.998438) scale(0.1 -0.1)">
       <defs>
        <path id="DejaVuSans-32" d="M 1228 531 
L 3431 531 
L 3431 0 
L 469 0 
L 469 531 
Q 828 903 1448 1529 
Q 2069 2156 2228 2338 
Q 2531 2678 2651 2914 
Q 2772 3150 2772 3378 
Q 2772 3750 2511 3984 
Q 2250 4219 1831 4219 
Q 1534 4219 1204 4116 
Q 875 4013 500 3803 
L 500 4441 
Q 881 4594 1212 4672 
Q 1544 4750 1819 4750 
Q 2544 4750 2975 4387 
Q 3406 4025 3406 3419 
Q 3406 3131 3298 2873 
Q 3191 2616 2906 2266 
Q 2828 2175 2409 1742 
Q 1991 1309 1228 531 
z
" transform="scale(0.015625)"/>
        <path id="DejaVuSans-30" d="M 2034 4250 
Q 1547 4250 1301 3770 
Q 1056 3291 1056 2328 
Q 1056 1369 1301 889 
Q 1547 409 2034 409 
Q 2525 409 2770 889 
Q 3016 1369 3016 2328 
Q 3016 3291 2770 3770 
Q 2525 4250 2034 4250 
z
M 2034 4750 
Q 2819 4750 3233 4129 
Q 3647 3509 3647 2328 
Q 3647 1150 3233 529 
Q 2819 -91 2034 -91 
Q 1250 -91 836 529 
Q 422 1150 422 2328 
Q 422 3509 836 4129 
Q 1250 4750 2034 4750 
z
" transform="scale(0.015625)"/>
        <path id="DejaVuSans-31" d="M 794 531 
L 1825 531 
L 1825 4091 
L 703 3866 
L 703 4441 
L 1819 4666 
L 2450 4666 
L 2450 531 
L 3481 531 
L 3481 0 
L 794 0 
L 794 531 
z
" transform="scale(0.015625)"/>
        <path id="DejaVuSans-2d" d="M 313 2009 
L 1997 2009 
L 1997 1497 
L 313 1497 
L 313 2009 
z
" transform="scale(0.015625)"/>
        <path id="DejaVuSans-37" d="M 525 4666 
L 3525 4666 
L 3525 4397 
L 1831 0 
L 1172 0 
L 2766 4134 
L 525 4134 
L 525 4666 
z
" transform="scale(0.015625)"/>
       </defs>
       <use xlink:href="#DejaVuSans-32"/>
       <use xlink:href="#DejaVuSans-30" transform="translate(63.623047 0)"/>
       <use xlink:href="#DejaVuSans-32" transform="translate(127.246094 0)"/>
       <use xlink:href="#DejaVuSans-31" transform="translate(190.869141 0)"/>
       <use xlink:href="#DejaVuSans-2d" transform="translate(254.492188 0)"/>
       <use xlink:href="#DejaVuSans-30" transform="translate(290.576172 0)"/>
       <use xlink:href="#DejaVuSans-37" transform="translate(354.199219 0)"/>
      </g>
     </g>
    </g>
    <g id="xtick_2">
     <g id="line2d_3">
      <path d="M 205.015909 320.4 
L 205.015909 43.2 
" clip-path="url(#pd4f8d83208)" style="fill: none; stroke-dasharray: 5.12,1.28,0.8,1.28; stroke-dashoffset: 0; stroke: #b0b0b0; stroke-width: 0.8"/>
     </g>
     <g id="line2d_4">
      <g>
       <use xlink:href="#mf592f56f5f" x="205.015909" y="320.4" style="fill: #a9a9a9; stroke: #a9a9a9; stroke-width: 0.8"/>
      </g>
     </g>
     <g id="text_2">
      <!-- 2022-01 -->
      <g style="fill: #a9a9a9" transform="translate(184.124503 334.998438) scale(0.1 -0.1)">
       <use xlink:href="#DejaVuSans-32"/>
       <use xlink:href="#DejaVuSans-30" transform="translate(63.623047 0)"/>
       <use xlink:href="#DejaVuSans-32" transform="translate(127.246094 0)"/>
       <use xlink:href="#DejaVuSans-32" transform="translate(190.869141 0)"/>
       <use xlink:href="#DejaVuSans-2d" transform="translate(254.492188 0)"/>
       <use xlink:href="#DejaVuSans-30" transform="translate(290.576172 0)"/>
       <use xlink:href="#DejaVuSans-31" transform="translate(354.199219 0)"/>
      </g>
     </g>
    </g>
    <g id="xtick_3">
     <g id="line2d_5">
      <path d="M 279.866206 320.4 
L 279.866206 43.2 
" clip-path="url(#pd4f8d83208)" style="fill: none; stroke-dasharray: 5.12,1.28,0.8,1.28; stroke-dashoffset: 0; stroke: #b0b0b0; stroke-width: 0.8"/>
     </g>
     <g id="line2d_6">
      <g>
       <use xlink:href="#mf592f56f5f" x="279.866206" y="320.4" style="fill: #a9a9a9; stroke: #a9a9a9; stroke-width: 0.8"/>
      </g>
     </g>
     <g id="text_3">
      <!-- 2022-07 -->
      <g style="fill: #a9a9a9" transform="translate(258.974799 334.998438) scale(0.1 -0.1)">
       <use xlink:href="#DejaVuSans-32"/>
       <use xlink:href="#DejaVuSans-30" transform="translate(63.623047 0)"/>
       <use xlink:href="#DejaVuSans-32" transform="translate(127.246094 0)"/>
       <use xlink:href="#DejaVuSans-32" transform="translate(190.869141 0)"/>
       <use xlink:href="#DejaVuSans-2d" transform="translate(254.492188 0)"/>
       <use xlink:href="#DejaVuSans-30" transform="translate(290.576172 0)"/>
       <use xlink:href="#DejaVuSans-37" transform="translate(354.199219 0)"/>
      </g>
     </g>
    </g>
    <g id="xtick_4">
     <g id="line2d_7">
      <path d="M 355.957115 320.4 
L 355.957115 43.2 
" clip-path="url(#pd4f8d83208)" style="fill: none; stroke-dasharray: 5.12,1.28,0.8,1.28; stroke-dashoffset: 0; stroke: #b0b0b0; stroke-width: 0.8"/>
     </g>
     <g id="line2d_8">
      <g>
       <use xlink:href="#mf592f56f5f" x="355.957115" y="320.4" style="fill: #a9a9a9; stroke: #a9a9a9; stroke-width: 0.8"/>
      </g>
     </g>
     <g id="text_4">
      <!-- 2023-01 -->
      <g style="fill: #a9a9a9" transform="translate(335.065708 334.998438) scale(0.1 -0.1)">
       <defs>
        <path id="DejaVuSans-33" d="M 2597 2516 
Q 3050 2419 3304 2112 
Q 3559 1806 3559 1356 
Q 3559 666 3084 287 
Q 2609 -91 1734 -91 
Q 1441 -91 1130 -33 
Q 819 25 488 141 
L 488 750 
Q 750 597 1062 519 
Q 1375 441 1716 441 
Q 2309 441 2620 675 
Q 2931 909 2931 1356 
Q 2931 1769 2642 2001 
Q 2353 2234 1838 2234 
L 1294 2234 
L 1294 2753 
L 1863 2753 
Q 2328 2753 2575 2939 
Q 2822 3125 2822 3475 
Q 2822 3834 2567 4026 
Q 2313 4219 1838 4219 
Q 1578 4219 1281 4162 
Q 984 4106 628 3988 
L 628 4550 
Q 988 4650 1302 4700 
Q 1616 4750 1894 4750 
Q 2613 4750 3031 4423 
Q 3450 4097 3450 3541 
Q 3450 3153 3228 2886 
Q 3006 2619 2597 2516 
z
" transform="scale(0.015625)"/>
       </defs>
       <use xlink:href="#DejaVuSans-32"/>
       <use xlink:href="#DejaVuSans-30" transform="translate(63.623047 0)"/>
       <use xlink:href="#DejaVuSans-32" transform="translate(127.246094 0)"/>
       <use xlink:href="#DejaVuSans-33" transform="translate(190.869141 0)"/>
       <use xlink:href="#DejaVuSans-2d" transform="translate(254.492188 0)"/>
       <use xlink:href="#DejaVuSans-30" transform="translate(290.576172 0)"/>
       <use xlink:href="#DejaVuSans-31" transform="translate(354.199219 0)"/>
      </g>
     </g>
    </g>
    <g id="xtick_5">
     <g id="line2d_9">
      <path d="M 430.807411 320.4 
L 430.807411 43.2 
" clip-path="url(#pd4f8d83208)" style="fill: none; stroke-dasharray: 5.12,1.28,0.8,1.28; stroke-dashoffset: 0; stroke: #b0b0b0; stroke-width: 0.8"/>
     </g>
     <g id="line2d_10">
      <g>
       <use xlink:href="#mf592f56f5f" x="430.807411" y="320.4" style="fill: #a9a9a9; stroke: #a9a9a9; stroke-width: 0.8"/>
      </g>
     </g>
     <g id="text_5">
      <!-- 2023-07 -->
      <g style="fill: #a9a9a9" transform="translate(409.916005 334.998438) scale(0.1 -0.1)">
       <use xlink:href="#DejaVuSans-32"/>
       <use xlink:href="#DejaVuSans-30" transform="translate(63.623047 0)"/>
       <use xlink:href="#DejaVuSans-32" transform="translate(127.246094 0)"/>
       <use xlink:href="#DejaVuSans-33" transform="translate(190.869141 0)"/>
       <use xlink:href="#DejaVuSans-2d" transform="translate(254.492188 0)"/>
       <use xlink:href="#DejaVuSans-30" transform="translate(290.576172 0)"/>
       <use xlink:href="#DejaVuSans-37" transform="translate(354.199219 0)"/>
      </g>
     </g>
    </g>
    <g id="xtick_6">
     <g id="line2d_11">
      <path d="M 506.89832 320.4 
L 506.89832 43.2 
" clip-path="url(#pd4f8d83208)" style="fill: none; stroke-dasharray: 5.12,1.28,0.8,1.28; stroke-dashoffset: 0; stroke: #b0b0b0; stroke-width: 0.8"/>
     </g>
     <g id="line2d_12">
      <g>
       <use xlink:href="#mf592f56f5f" x="506.89832" y="320.4" style="fill: #a9a9a9; stroke: #a9a9a9; stroke-width: 0.8"/>
      </g>
     </g>
     <g id="text_6">
      <!-- 2024-01 -->
      <g style="fill: #a9a9a9" transform="translate(486.006914 334.998438) scale(0.1 -0.1)">
       <defs>
        <path id="DejaVuSans-34" d="M 2419 4116 
L 825 1625 
L 2419 1625 
L 2419 4116 
z
M 2253 4666 
L 3047 4666 
L 3047 1625 
L 3713 1625 
L 3713 1100 
L 3047 1100 
L 3047 0 
L 2419 0 
L 2419 1100 
L 313 1100 
L 313 1709 
L 2253 4666 
z
" transform="scale(0.015625)"/>
       </defs>
       <use xlink:href="#DejaVuSans-32"/>
       <use xlink:href="#DejaVuSans-30" transform="translate(63.623047 0)"/>
       <use xlink:href="#DejaVuSans-32" transform="translate(127.246094 0)"/>
       <use xlink:href="#DejaVuSans-34" transform="translate(190.869141 0)"/>
       <use xlink:href="#DejaVuSans-2d" transform="translate(254.492188 0)"/>
       <use xlink:href="#DejaVuSans-30" transform="translate(290.576172 0)"/>
       <use xlink:href="#DejaVuSans-31" transform="translate(354.199219 0)"/>
      </g>
     </g>
    </g>
    <g id="xtick_7">
     <g id="line2d_13">
      <path d="M 582.162154 320.4 
L 582.162154 43.2 
" clip-path="url(#pd4f8d83208)" style="fill: none; stroke-dasharray: 5.12,1.28,0.8,1.28; stroke-dashoffset: 0; stroke: #b0b0b0; stroke-width: 0.8"/>
     </g>
     <g id="line2d_14">
      <g>
       <use xlink:href="#mf592f56f5f" x="582.162154" y="320.4" style="fill: #a9a9a9; stroke: #a9a9a9; stroke-width: 0.8"/>
      </g>
     </g>
     <g id="text_7">
      <!-- 2024-07 -->
      <g style="fill: #a9a9a9" transform="translate(561.270748 334.998438) scale(0.1 -0.1)">
       <use xlink:href="#DejaVuSans-32"/>
       <use xlink:href="#DejaVuSans-30" transform="translate(63.623047 0)"/>
       <use xlink:href="#DejaVuSans-32" transform="translate(127.246094 0)"/>
       <use xlink:href="#DejaVuSans-34" transform="translate(190.869141 0)"/>
       <use xlink:href="#DejaVuSans-2d" transform="translate(254.492188 0)"/>
       <use xlink:href="#DejaVuSans-30" transform="translate(290.576172 0)"/>
       <use xlink:href="#DejaVuSans-37" transform="translate(354.199219 0)"/>
      </g>
     </g>
    </g>
    <g id="xtick_8">
     <g id="line2d_15">
      <path d="M 658.253063 320.4 
L 658.253063 43.2 
" clip-path="url(#pd4f8d83208)" style="fill: none; stroke-dasharray: 5.12,1.28,0.8,1.28; stroke-dashoffset: 0; stroke: #b0b0b0; stroke-width: 0.8"/>
     </g>
     <g id="line2d_16">
      <g>
       <use xlink:href="#mf592f56f5f" x="658.253063" y="320.4" style="fill: #a9a9a9; stroke: #a9a9a9; stroke-width: 0.8"/>
      </g>
     </g>
     <g id="text_8">
      <!-- 2025-01 -->
      <g style="fill: #a9a9a9" transform="translate(637.361657 334.998438) scale(0.1 -0.1)">
       <defs>
        <path id="DejaVuSans-35" d="M 691 4666 
L 3169 4666 
L 3169 4134 
L 1269 4134 
L 1269 2991 
Q 1406 3038 1543 3061 
Q 1681 3084 1819 3084 
Q 2600 3084 3056 2656 
Q 3513 2228 3513 1497 
Q 3513 744 3044 326 
Q 2575 -91 1722 -91 
Q 1428 -91 1123 -41 
Q 819 9 494 109 
L 494 744 
Q 775 591 1075 516 
Q 1375 441 1709 441 
Q 2250 441 2565 725 
Q 2881 1009 2881 1497 
Q 2881 1984 2565 2268 
Q 2250 2553 1709 2553 
Q 1456 2553 1204 2497 
Q 953 2441 691 2322 
L 691 4666 
z
" transform="scale(0.015625)"/>
       </defs>
       <use xlink:href="#DejaVuSans-32"/>
       <use xlink:href="#DejaVuSans-30" transform="translate(63.623047 0)"/>
       <use xlink:href="#DejaVuSans-32" transform="translate(127.246094 0)"/>
       <use xlink:href="#DejaVuSans-35" transform="translate(190.869141 0)"/>
       <use xlink:href="#DejaVuSans-2d" transform="translate(254.492188 0)"/>
       <use xlink:href="#DejaVuSans-30" transform="translate(290.576172 0)"/>
       <use xlink:href="#DejaVuSans-31" transform="translate(354.199219 0)"/>
      </g>
     </g>
    </g>
    <g id="xtick_9">
     <g id="line2d_17">
      <path d="M 733.10336 320.4 
L 733.10336 43.2 
" clip-path="url(#pd4f8d83208)" style="fill: none; stroke-dasharray: 5.12,1.28,0.8,1.28; stroke-dashoffset: 0; stroke: #b0b0b0; stroke-width: 0.8"/>
     </g>
     <g id="line2d_18">
      <g>
       <use xlink:href="#mf592f56f5f" x="733.10336" y="320.4" style="fill: #a9a9a9; stroke: #a9a9a9; stroke-width: 0.8"/>
      </g>
     </g>
     <g id="text_9">
      <!-- 2025-07 -->
      <g style="fill: #a9a9a9" transform="translate(712.211953 334.998438) scale(0.1 -0.1)">
       <use xlink:href="#DejaVuSans-32"/>
       <use xlink:href="#DejaVuSans-30" transform="translate(63.623047 0)"/>
       <use xlink:href="#DejaVuSans-32" transform="translate(127.246094 0)"/>
       <use xlink:href="#DejaVuSans-35" transform="translate(190.869141 0)"/>
       <use xlink:href="#DejaVuSans-2d" transform="translate(254.492188 0)"/>
       <use xlink:href="#DejaVuSans-30" transform="translate(290.576172 0)"/>
       <use xlink:href="#DejaVuSans-37" transform="translate(354.199219 0)"/>
      </g>
     </g>
    </g>
   </g>
   <g id="matplotlib.axis_2">
    <g id="ytick_1">
     <g id="line2d_19">
      <path d="M 108 307.831623 
L 777.6 307.831623 
" clip-path="url(#pd4f8d83208)" style="fill: none; stroke-dasharray: 5.12,1.28,0.8,1.28; stroke-dashoffset: 0; stroke: #b0b0b0; stroke-width: 0.8"/>
     </g>
     <g id="line2d_20">
      <defs>
       <path id="m189fb31d72" d="M 0 0 
L -3.5 0 
" style="stroke: #a9a9a9; stroke-width: 0.8"/>
      </defs>
      <g>
       <use xlink:href="#m189fb31d72" x="108" y="307.831623" style="fill: #a9a9a9; stroke: #a9a9a9; stroke-width: 0.8"/>
      </g>
     </g>
     <g id="text_10">
      <!-- 0 -->
      <g style="fill: #a9a9a9" transform="translate(94.6375 311.630841) scale(0.1 -0.1)">
       <use xlink:href="#DejaVuSans-30"/>
      </g>
     </g>
    </g>
    <g id="ytick_2">
     <g id="line2d_21">
      <path d="M 108 276.209085 
L 777.6 276.209085 
" clip-path="url(#pd4f8d83208)" style="fill: none; stroke-dasharray: 5.12,1.28,0.8,1.28; stroke-dashoffset: 0; stroke: #b0b0b0; stroke-width: 0.8"/>
     </g>
     <g id="line2d_22">
      <g>
       <use xlink:href="#m189fb31d72" x="108" y="276.209085" style="fill: #a9a9a9; stroke: #a9a9a9; stroke-width: 0.8"/>
      </g>
     </g>
     <g id="text_11">
      <!-- 1000 -->
      <g style="fill: #a9a9a9" transform="translate(75.55 280.008304) scale(0.1 -0.1)">
       <use xlink:href="#DejaVuSans-31"/>
       <use xlink:href="#DejaVuSans-30" transform="translate(63.623047 0)"/>
       <use xlink:href="#DejaVuSans-30" transform="translate(127.246094 0)"/>
       <use xlink:href="#DejaVuSans-30" transform="translate(190.869141 0)"/>
      </g>
     </g>
    </g>
    <g id="ytick_3">
     <g id="line2d_23">
      <path d="M 108 244.586548 
L 777.6 244.586548 
" clip-path="url(#pd4f8d83208)" style="fill: none; stroke-dasharray: 5.12,1.28,0.8,1.28; stroke-dashoffset: 0; stroke: #b0b0b0; stroke-width: 0.8"/>
     </g>
     <g id="line2d_24">
      <g>
       <use xlink:href="#m189fb31d72" x="108" y="244.586548" style="fill: #a9a9a9; stroke: #a9a9a9; stroke-width: 0.8"/>
      </g>
     </g>
     <g id="text_12">
      <!-- 2000 -->
      <g style="fill: #a9a9a9" transform="translate(75.55 248.385767) scale(0.1 -0.1)">
       <use xlink:href="#DejaVuSans-32"/>
       <use xlink:href="#DejaVuSans-30" transform="translate(63.623047 0)"/>
       <use xlink:href="#DejaVuSans-30" transform="translate(127.246094 0)"/>
       <use xlink:href="#DejaVuSans-30" transform="translate(190.869141 0)"/>
      </g>
     </g>
    </g>
    <g id="ytick_4">
     <g id="line2d_25">
      <path d="M 108 212.964011 
L 777.6 212.964011 
" clip-path="url(#pd4f8d83208)" style="fill: none; stroke-dasharray: 5.12,1.28,0.8,1.28; stroke-dashoffset: 0; stroke: #b0b0b0; stroke-width: 0.8"/>
     </g>
     <g id="line2d_26">
      <g>
       <use xlink:href="#m189fb31d72" x="108" y="212.964011" style="fill: #a9a9a9; stroke: #a9a9a9; stroke-width: 0.8"/>
      </g>
     </g>
     <g id="text_13">
      <!-- 3000 -->
      <g style="fill: #a9a9a9" transform="translate(75.55 216.763229) scale(0.1 -0.1)">
       <use xlink:href="#DejaVuSans-33"/>
       <use xlink:href="#DejaVuSans-30" transform="translate(63.623047 0)"/>
       <use xlink:href="#DejaVuSans-30" transform="translate(127.246094 0)"/>
       <use xlink:href="#DejaVuSans-30" transform="translate(190.869141 0)"/>
      </g>
     </g>
    </g>
    <g id="ytick_5">
     <g id="line2d_27">
      <path d="M 108 181.341473 
L 777.6 181.341473 
" clip-path="url(#pd4f8d83208)" style="fill: none; stroke-dasharray: 5.12,1.28,0.8,1.28; stroke-dashoffset: 0; stroke: #b0b0b0; stroke-width: 0.8"/>
     </g>
     <g id="line2d_28">
      <g>
       <use xlink:href="#m189fb31d72" x="108" y="181.341473" style="fill: #a9a9a9; stroke: #a9a9a9; stroke-width: 0.8"/>
      </g>
     </g>
     <g id="text_14">
      <!-- 4000 -->
      <g style="fill: #a9a9a9" transform="translate(75.55 185.140692) scale(0.1 -0.1)">
       <use xlink:href="#DejaVuSans-34"/>
       <use xlink:href="#DejaVuSans-30" transform="translate(63.623047 0)"/>
       <use xlink:href="#DejaVuSans-30" transform="translate(127.246094 0)"/>
       <use xlink:href="#DejaVuSans-30" transform="translate(190.869141 0)"/>
      </g>
     </g>
    </g>
    <g id="ytick_6">
     <g id="line2d_29">
      <path d="M 108 149.718936 
L 777.6 149.718936 
" clip-path="url(#pd4f8d83208)" style="fill: none; stroke-dasharray: 5.12,1.28,0.8,1.28; stroke-dashoffset: 0; stroke: #b0b0b0; stroke-width: 0.8"/>
     </g>
     <g id="line2d_30">
      <g>
       <use xlink:href="#m189fb31d72" x="108" y="149.718936" style="fill: #a9a9a9; stroke: #a9a9a9; stroke-width: 0.8"/>
      </g>
     </g>
     <g id="text_15">
      <!-- 5000 -->
      <g style="fill: #a9a9a9" transform="translate(75.55 153.518155) scale(0.1 -0.1)">
       <use xlink:href="#DejaVuSans-35"/>
       <use xlink:href="#DejaVuSans-30" transform="translate(63.623047 0)"/>
       <use xlink:href="#DejaVuSans-30" transform="translate(127.246094 0)"/>
       <use xlink:href="#DejaVuSans-30" transform="translate(190.869141 0)"/>
      </g>
     </g>
    </g>
    <g id="ytick_7">
     <g id="line2d_31">
      <path d="M 108 118.096399 
L 777.6 118.096399 
" clip-path="url(#pd4f8d83208)" style="fill: none; stroke-dasharray: 5.12,1.28,0.8,1.28; stroke-dashoffset: 0; stroke: #b0b0b0; stroke-width: 0.8"/>
     </g>
     <g id="line2d_32">
      <g>
       <use xlink:href="#m189fb31d72" x="108" y="118.096399" style="fill: #a9a9a9; stroke: #a9a9a9; stroke-width: 0.8"/>
      </g>
     </g>
     <g id="text_16">
      <!-- 6000 -->
      <g style="fill: #a9a9a9" transform="translate(75.55 121.895617) scale(0.1 -0.1)">
       <defs>
        <path id="DejaVuSans-36" d="M 2113 2584 
Q 1688 2584 1439 2293 
Q 1191 2003 1191 1497 
Q 1191 994 1439 701 
Q 1688 409 2113 409 
Q 2538 409 2786 701 
Q 3034 994 3034 1497 
Q 3034 2003 2786 2293 
Q 2538 2584 2113 2584 
z
M 3366 4563 
L 3366 3988 
Q 3128 4100 2886 4159 
Q 2644 4219 2406 4219 
Q 1781 4219 1451 3797 
Q 1122 3375 1075 2522 
Q 1259 2794 1537 2939 
Q 1816 3084 2150 3084 
Q 2853 3084 3261 2657 
Q 3669 2231 3669 1497 
Q 3669 778 3244 343 
Q 2819 -91 2113 -91 
Q 1303 -91 875 529 
Q 447 1150 447 2328 
Q 447 3434 972 4092 
Q 1497 4750 2381 4750 
Q 2619 4750 2861 4703 
Q 3103 4656 3366 4563 
z
" transform="scale(0.015625)"/>
       </defs>
       <use xlink:href="#DejaVuSans-36"/>
       <use xlink:href="#DejaVuSans-30" transform="translate(63.623047 0)"/>
       <use xlink:href="#DejaVuSans-30" transform="translate(127.246094 0)"/>
       <use xlink:href="#DejaVuSans-30" transform="translate(190.869141 0)"/>
      </g>
     </g>
    </g>
    <g id="ytick_8">
     <g id="line2d_33">
      <path d="M 108 86.473861 
L 777.6 86.473861 
" clip-path="url(#pd4f8d83208)" style="fill: none; stroke-dasharray: 5.12,1.28,0.8,1.28; stroke-dashoffset: 0; stroke: #b0b0b0; stroke-width: 0.8"/>
     </g>
     <g id="line2d_34">
      <g>
       <use xlink:href="#m189fb31d72" x="108" y="86.473861" style="fill: #a9a9a9; stroke: #a9a9a9; stroke-width: 0.8"/>
      </g>
     </g>
     <g id="text_17">
      <!-- 7000 -->
      <g style="fill: #a9a9a9" transform="translate(75.55 90.27308) scale(0.1 -0.1)">
       <use xlink:href="#DejaVuSans-37"/>
       <use xlink:href="#DejaVuSans-30" transform="translate(63.623047 0)"/>
       <use xlink:href="#DejaVuSans-30" transform="translate(127.246094 0)"/>
       <use xlink:href="#DejaVuSans-30" transform="translate(190.869141 0)"/>
      </g>
     </g>
    </g>
    <g id="ytick_9">
     <g id="line2d_35">
      <path d="M 108 54.851324 
L 777.6 54.851324 
" clip-path="url(#pd4f8d83208)" style="fill: none; stroke-dasharray: 5.12,1.28,0.8,1.28; stroke-dashoffset: 0; stroke: #b0b0b0; stroke-width: 0.8"/>
     </g>
     <g id="line2d_36">
      <g>
       <use xlink:href="#m189fb31d72" x="108" y="54.851324" style="fill: #a9a9a9; stroke: #a9a9a9; stroke-width: 0.8"/>
      </g>
     </g>
     <g id="text_18">
      <!-- 8000 -->
      <g style="fill: #a9a9a9" transform="translate(75.55 58.650543) scale(0.1 -0.1)">
       <defs>
        <path id="DejaVuSans-38" d="M 2034 2216 
Q 1584 2216 1326 1975 
Q 1069 1734 1069 1313 
Q 1069 891 1326 650 
Q 1584 409 2034 409 
Q 2484 409 2743 651 
Q 3003 894 3003 1313 
Q 3003 1734 2745 1975 
Q 2488 2216 2034 2216 
z
M 1403 2484 
Q 997 2584 770 2862 
Q 544 3141 544 3541 
Q 544 4100 942 4425 
Q 1341 4750 2034 4750 
Q 2731 4750 3128 4425 
Q 3525 4100 3525 3541 
Q 3525 3141 3298 2862 
Q 3072 2584 2669 2484 
Q 3125 2378 3379 2068 
Q 3634 1759 3634 1313 
Q 3634 634 3220 271 
Q 2806 -91 2034 -91 
Q 1263 -91 848 271 
Q 434 634 434 1313 
Q 434 1759 690 2068 
Q 947 2378 1403 2484 
z
M 1172 3481 
Q 1172 3119 1398 2916 
Q 1625 2713 2034 2713 
Q 2441 2713 2670 2916 
Q 2900 3119 2900 3481 
Q 2900 3844 2670 4047 
Q 2441 4250 2034 4250 
Q 1625 4250 1398 4047 
Q 1172 3844 1172 3481 
z
" transform="scale(0.015625)"/>
       </defs>
       <use xlink:href="#DejaVuSans-38"/>
       <use xlink:href="#DejaVuSans-30" transform="translate(63.623047 0)"/>
       <use xlink:href="#DejaVuSans-30" transform="translate(127.246094 0)"/>
       <use xlink:href="#DejaVuSans-30" transform="translate(190.869141 0)"/>
      </g>
     </g>
    </g>
   </g>
   <g id="line2d_37">
    <path d="M 138.436364 307.736755 
L 140.917589 307.515397 
L 141.331126 307.325662 
L 142.985277 307.104304 
L 144.639427 306.756456 
L 145.466502 306.629966 
L 147.53419 306.440231 
L 148.361265 306.092383 
L 148.774802 305.523177 
L 149.18834 305.238574 
L 149.601877 304.289898 
L 150.015415 304.226653 
L 150.428953 303.878805 
L 151.256028 303.43609 
L 152.910178 302.044698 
L 154.564328 301.19089 
L 155.804941 300.590061 
L 156.218478 299.894366 
L 157.045553 299.261915 
L 157.459091 299.07218 
L 161.594466 298.439729 
L 162.008004 298.249994 
L 164.902767 297.997013 
L 166.556917 297.58592 
L 169.865217 297.111582 
L 170.278755 296.890225 
L 170.692292 296.82698 
L 171.519368 296.542377 
L 174.41413 296.036416 
L 175.241206 295.783436 
L 178.963043 295.150985 
L 179.790119 294.96125 
L 180.617194 294.929627 
L 182.271344 294.518534 
L 182.684881 293.917706 
L 183.925494 293.411746 
L 185.166107 293.063898 
L 185.579644 292.84254 
L 186.406719 292.684427 
L 188.06087 292.178467 
L 188.887945 292.115221 
L 189.71502 291.893864 
L 191.36917 291.451148 
L 191.782708 291.419526 
L 192.609783 291.008433 
L 193.02332 290.945188 
L 193.436858 290.72383 
L 197.985771 289.933266 
L 199.639921 289.427306 
L 200.053458 289.142703 
L 202.121146 288.447007 
L 202.948221 287.846179 
L 204.188834 287.593199 
L 209.564822 286.012072 
L 209.97836 285.948827 
L 211.63251 285.284753 
L 212.046047 285.221508 
L 212.873123 284.87366 
L 213.700198 284.842038 
L 214.94081 284.462567 
L 215.354348 284.462567 
L 215.767885 284.272832 
L 216.59496 284.177965 
L 217.008498 284.019852 
L 218.662648 283.956607 
L 219.489723 283.798494 
L 220.316798 283.355779 
L 221.557411 282.881441 
L 222.384486 282.438725 
L 223.211561 281.99601 
L 224.038636 281.711407 
L 224.452174 281.584917 
L 225.279249 281.047333 
L 225.692787 280.572995 
L 226.519862 279.244849 
L 226.933399 279.118359 
L 227.346937 279.118359 
L 229.001087 278.169683 
L 229.414625 278.074815 
L 229.828162 277.663722 
L 230.655237 277.315874 
L 231.482312 276.936404 
L 231.89585 276.430443 
L 232.309387 275.734747 
L 232.722925 275.450144 
L 233.136462 274.691203 
L 233.55 274.216865 
L 236.031225 272.825474 
L 237.685375 271.307592 
L 238.098913 270.327293 
L 238.512451 269.694843 
L 238.925988 269.346995 
L 239.339526 269.157259 
L 242.647826 266.026628 
L 243.474901 265.236065 
L 245.956126 263.623315 
L 246.369664 263.465203 
L 248.023814 262.453281 
L 248.437352 262.263546 
L 250.50504 260.302949 
L 251.332115 259.955101 
L 252.15919 259.354273 
L 252.572727 259.101293 
L 252.986265 259.038047 
L 254.226877 258.310729 
L 254.640415 257.836391 
L 256.708103 256.666357 
L 257.12164 256.508244 
L 258.362253 255.622813 
L 264.565316 253.345991 
L 265.392391 252.555427 
L 266.633004 251.922977 
L 267.460079 251.385393 
L 268.287154 251.132413 
L 268.700692 250.84781 
L 269.114229 250.72132 
L 270.354842 249.867512 
L 272.42253 249.393174 
L 273.663142 248.634233 
L 274.903755 248.34963 
L 275.317292 248.254762 
L 276.557905 247.306086 
L 278.212055 246.831748 
L 278.625593 246.4839 
L 281.106818 245.598469 
L 281.933893 245.440356 
L 282.760968 245.092508 
L 285.655731 243.98572 
L 286.482806 243.890852 
L 287.723419 243.448137 
L 289.791107 242.404593 
L 292.272332 240.981579 
L 293.099407 240.760221 
L 294.34002 240.12777 
L 295.167095 239.969657 
L 295.99417 239.463697 
L 296.821245 239.242339 
L 298.061858 238.736378 
L 299.716008 238.515021 
L 300.543083 238.072305 
L 300.956621 237.692835 
L 301.370158 236.933894 
L 303.024308 236.459556 
L 304.264921 235.795482 
L 305.091996 235.51088 
L 306.332609 234.878429 
L 308.400296 234.02462 
L 309.227372 233.834885 
L 310.467984 233.202434 
L 310.881522 233.139189 
L 312.949209 232.095646 
L 313.776285 231.558062 
L 315.016897 231.305082 
L 317.084585 230.767499 
L 317.498123 230.419651 
L 318.325198 230.135048 
L 320.392885 229.28124 
L 320.806423 228.965014 
L 321.21996 228.806902 
L 322.047036 228.332564 
L 323.701186 227.794981 
L 324.528261 227.257397 
L 324.941798 226.814682 
L 325.355336 226.561702 
L 325.768874 226.466834 
L 326.595949 225.771138 
L 327.009486 225.707893 
L 327.423024 225.012197 
L 327.836561 224.822462 
L 328.250099 224.474614 
L 328.663636 224.411369 
L 329.490711 223.873786 
L 330.317787 223.589183 
L 330.731324 223.272958 
L 331.144862 223.114845 
L 332.799012 221.976434 
L 334.039625 221.343983 
L 334.8667 221.122625 
L 335.693775 220.648287 
L 336.107312 219.920969 
L 336.934387 219.288518 
L 337.347925 219.19365 
L 339.82915 217.960371 
L 340.656225 217.612524 
L 341.4833 217.011695 
L 342.723913 215.841661 
L 343.550988 215.335701 
L 343.964526 214.861363 
L 345.618676 213.691329 
L 346.445751 212.83752 
L 347.272826 212.552918 
L 348.099901 211.983712 
L 349.340514 211.319639 
L 349.754051 211.256394 
L 350.994664 210.560698 
L 351.821739 210.023115 
L 355.957115 208.441988 
L 356.370652 208.09414 
L 358.024802 207.430067 
L 358.43834 207.303576 
L 359.265415 206.765993 
L 360.09249 206.418145 
L 360.919565 205.817317 
L 361.74664 204.1097 
L 362.573715 203.097779 
L 363.814328 202.433706 
L 364.641403 202.085858 
L 365.054941 202.022613 
L 365.882016 201.643142 
L 367.536166 201.073937 
L 368.363241 200.599598 
L 369.190316 200.188505 
L 369.603854 200.062015 
L 372.085079 198.544134 
L 372.498617 198.069795 
L 373.739229 197.342477 
L 374.152767 197.184364 
L 374.979842 196.678404 
L 376.633992 195.76135 
L 377.04753 195.666483 
L 377.461067 195.318635 
L 380.35583 194.338336 
L 380.769368 194.022111 
L 381.596443 193.76913 
L 382.423518 193.421282 
L 382.837055 193.073435 
L 384.491206 192.472606 
L 385.318281 191.871778 
L 386.145356 191.52393 
L 386.972431 190.859857 
L 387.799506 190.606877 
L 388.213043 190.227406 
L 388.626581 190.164161 
L 389.453656 189.500088 
L 391.521344 188.266809 
L 392.348419 188.013829 
L 392.761957 187.760848 
L 393.175494 187.697603 
L 394.416107 187.001907 
L 400.61917 185.04131 
L 401.859783 184.124256 
L 402.27332 183.966144 
L 403.100395 183.491806 
L 403.513933 183.365316 
L 405.995158 181.942301 
L 406.408696 181.847434 
L 407.649308 181.088493 
L 408.889921 180.645777 
L 409.716996 180.361175 
L 411.371146 179.791969 
L 412.198221 179.507366 
L 413.852372 179.159518 
L 414.265909 178.969783 
L 415.092984 178.748425 
L 415.506522 178.55869 
L 415.920059 178.495445 
L 416.333597 178.274087 
L 417.160672 178.115974 
L 418.401285 177.641636 
L 419.641897 177.451901 
L 422.123123 176.977563 
L 423.363735 176.69296 
L 423.777273 176.503225 
L 424.604348 176.345112 
L 425.431423 176.123755 
L 426.258498 175.744284 
L 426.672036 175.586171 
L 427.085573 175.586171 
L 431.634486 174.163157 
L 432.048024 173.941799 
L 432.461561 173.941799 
L 433.288636 173.625574 
L 433.702174 173.182859 
L 436.183399 172.139315 
L 437.837549 171.570109 
L 438.251087 171.317129 
L 439.4917 170.937658 
L 440.318775 170.716301 
L 440.732312 170.431698 
L 441.14585 170.33683 
L 441.559387 169.95736 
L 442.8 169.704379 
L 443.627075 169.324909 
L 444.040613 168.818948 
L 448.589526 167.807027 
L 449.003063 167.807027 
L 449.416601 167.617292 
L 451.070751 167.301067 
L 451.484289 167.111331 
L 453.138439 166.795106 
L 453.965514 166.447258 
L 454.792589 166.289145 
L 456.860277 165.751562 
L 458.514427 165.213979 
L 458.927964 165.119112 
L 459.341502 164.897754 
L 460.168577 164.676396 
L 460.995652 164.328548 
L 461.822727 164.012323 
L 462.236265 163.72772 
L 463.06334 163.47474 
L 465.958103 162.367951 
L 467.612253 162.178216 
L 470.920553 160.944937 
L 471.334091 160.628711 
L 471.747628 160.533844 
L 472.161166 160.312486 
L 472.574704 160.280863 
L 477.123617 158.604869 
L 479.191304 158.035663 
L 480.018379 157.62457 
L 481.258992 157.339967 
L 482.913142 155.948576 
L 484.567292 155.221257 
L 485.394368 154.841787 
L 487.875593 153.861488 
L 488.28913 153.576885 
L 490.356818 152.88119 
L 494.492194 150.76248 
L 495.319269 150.383009 
L 495.732806 150.066784 
L 496.559881 149.782181 
L 498.627569 148.707015 
L 499.868182 148.264299 
L 501.108794 147.789961 
L 503.176482 146.999398 
L 504.003557 146.872908 
L 504.417095 146.588305 
L 506.071245 146.272079 
L 506.89832 145.924231 
L 508.55247 145.133668 
L 514.341996 142.54062 
L 515.582609 142.129527 
L 515.996146 141.844924 
L 516.823221 141.750056 
L 517.236759 141.465454 
L 518.063834 141.338963 
L 518.890909 140.92787 
L 519.304447 140.738135 
L 520.131522 140.516778 
L 520.958597 140.263797 
L 522.199209 139.789459 
L 523.439822 139.378366 
L 524.680435 139.093763 
L 526.334585 138.398068 
L 527.16166 137.955352 
L 528.81581 137.101543 
L 529.642885 136.911808 
L 530.056423 136.658828 
L 530.46996 136.56396 
L 531.710573 135.836642 
L 532.537648 135.488794 
L 537.913636 133.464952 
L 538.327174 133.401707 
L 539.981324 132.611143 
L 540.808399 132.45303 
L 541.635474 131.978692 
L 543.289625 131.188129 
L 547.425 129.543757 
L 548.252075 129.132664 
L 548.665613 129.037796 
L 549.07915 128.816439 
L 550.7333 128.342101 
L 552.387451 126.950709 
L 552.800988 126.824219 
L 553.214526 126.571239 
L 554.455138 126.223391 
L 554.868676 125.907165 
L 555.282213 125.812298 
L 556.522826 125.053357 
L 556.936364 124.768754 
L 558.176976 124.294416 
L 558.590514 124.073058 
L 559.831126 123.788455 
L 561.898814 123.061137 
L 562.725889 122.808157 
L 563.966502 122.144083 
L 564.793577 121.73299 
L 565.620652 121.511633 
L 566.861265 120.910804 
L 570.99664 119.23481 
L 573.064328 118.222889 
L 573.891403 117.906663 
L 574.304941 117.527193 
L 575.132016 117.179345 
L 576.372628 116.736629 
L 576.786166 116.388782 
L 577.199704 116.357159 
L 578.026779 116.104179 
L 578.853854 115.819576 
L 579.267391 115.629841 
L 579.680929 115.566596 
L 580.508004 115.218748 
L 581.748617 114.934145 
L 582.575692 114.459807 
L 582.989229 114.301694 
L 583.402767 113.985469 
L 584.643379 113.669243 
L 585.056917 113.416263 
L 585.883992 113.194905 
L 587.124605 112.499209 
L 587.538142 112.467587 
L 588.778755 112.056494 
L 589.60583 111.993249 
L 590.019368 111.771891 
L 590.846443 111.550533 
L 591.25998 111.329176 
L 593.327668 110.918083 
L 594.154743 110.75997 
L 595.395356 110.285632 
L 596.635968 110.001029 
L 597.876581 109.336956 
L 598.290119 108.957485 
L 599.530731 108.198544 
L 599.944269 107.882319 
L 601.184881 107.471226 
L 602.011957 107.249868 
L 604.493182 106.111457 
L 604.906719 106.048212 
L 605.733794 105.637119 
L 607.387945 105.194403 
L 608.21502 104.814933 
L 608.628557 104.593575 
L 609.455632 104.340595 
L 609.86917 104.119237 
L 610.696245 103.961124 
L 614.004545 102.506488 
L 614.418083 102.443243 
L 615.658696 101.621057 
L 616.072233 101.557812 
L 617.726383 100.893738 
L 619.380534 100.482645 
L 619.794071 100.4194 
L 620.207609 100.229665 
L 620.621146 100.198042 
L 621.448221 99.91344 
L 621.861759 99.881817 
L 623.102372 99.407479 
L 624.756522 98.933141 
L 625.583597 98.30069 
L 627.237747 97.383637 
L 627.651285 97.288769 
L 628.064822 97.067411 
L 628.891897 96.782808 
L 629.305435 96.656318 
L 629.718972 96.30847 
L 630.959585 95.834132 
L 631.78666 95.359794 
L 632.200198 95.138436 
L 632.613735 94.758966 
L 634.681423 94.253005 
L 635.922036 93.6838 
L 636.749111 93.462442 
L 637.162648 93.241084 
L 637.576186 92.893236 
L 639.230336 92.450521 
L 639.643874 92.134295 
L 645.019862 90.173698 
L 645.846937 90.015585 
L 647.914625 89.351512 
L 648.7417 89.003664 
L 649.568775 88.687439 
L 650.39585 88.466081 
L 650.809387 88.276346 
L 651.222925 88.276346 
L 652.05 87.928498 
L 652.877075 87.45416 
L 655.771838 86.473861 
L 657.425988 85.904656 
L 658.666601 85.620053 
L 659.907213 85.20896 
L 660.320751 85.114092 
L 660.734289 84.829489 
L 661.561364 84.639754 
L 663.215514 84.165416 
L 663.629051 84.133793 
L 664.456126 83.754323 
L 667.350889 83.027005 
L 669.00504 82.426176 
L 669.418577 82.426176 
L 670.65919 82.141574 
L 671.486265 81.983461 
L 672.31334 81.762103 
L 673.553953 81.09803 
L 674.794565 80.718559 
L 677.689328 79.738261 
L 678.102866 79.516903 
L 678.516403 79.422035 
L 679.757016 78.789585 
L 680.584091 78.631472 
L 681.411166 78.378492 
L 682.238241 77.967399 
L 682.651779 77.619551 
L 683.478854 77.36657 
L 683.892391 77.11359 
L 684.719466 77.018723 
L 687.614229 76.196537 
L 688.854842 75.943556 
L 690.095455 75.627331 
L 690.92253 75.437596 
L 692.163142 74.805145 
L 693.817292 74.172694 
L 694.644368 73.729979 
L 695.057905 73.698356 
L 695.88498 73.287263 
L 698.779743 72.465077 
L 700.020356 72.275342 
L 700.847431 72.022362 
L 702.088043 71.642891 
L 705.809881 70.599347 
L 706.636957 70.37799 
L 707.050494 70.283122 
L 707.464032 70.030142 
L 708.291107 69.872029 
L 709.118182 69.777162 
L 709.531719 69.555804 
L 709.945257 69.524181 
L 710.772332 68.986598 
L 712.426482 68.63875 
L 713.253557 68.290902 
L 714.080632 68.006299 
L 714.907708 67.784942 
L 715.734783 67.437094 
L 716.561858 67.152491 
L 718.216008 66.678153 
L 719.043083 66.614908 
L 719.870158 66.330305 
L 720.283696 66.172192 
L 721.110771 66.045702 
L 722.764921 65.318384 
L 723.178458 65.255139 
L 723.591996 65.033781 
L 724.419071 64.875668 
L 725.246146 64.812423 
L 727.727372 64.179972 
L 728.554447 63.832124 
L 728.967984 63.768879 
L 729.381522 63.547522 
L 730.208597 62.851826 
L 735.584585 60.891229 
L 736.825198 60.606626 
L 737.238735 60.2904 
L 738.479348 59.752817 
L 739.306423 59.310102 
L 739.71996 59.215234 
L 740.133498 58.899009 
L 741.374111 58.551161 
L 741.787648 58.329803 
L 742.614723 58.0452 
L 743.441798 57.697352 
L 745.095949 56.622186 
L 745.509486 56.527318 
L 746.750099 55.894868 
L 747.163636 55.8 
L 747.163636 55.8 
" clip-path="url(#pd4f8d83208)" style="fill: none; stroke: #1f77b4; stroke-width: 1.5; stroke-linecap: square"/>
   </g>
   <g id="line2d_38">
    <path d="M 138.849901 307.8 
L 142.571739 307.705132 
L 145.88004 307.54702 
L 147.53419 307.54702 
L 147.947727 307.42053 
L 150.015415 307.325662 
L 152.49664 307.041059 
L 154.977866 306.946191 
L 155.804941 306.851324 
L 158.699704 306.724834 
L 161.594466 306.629966 
L 163.662154 306.566721 
L 169.038142 306.471853 
L 171.10583 306.408608 
L 174.827668 306.313741 
L 176.481818 306.282118 
L 180.617194 306.187251 
L 182.271344 306.029138 
L 183.925494 305.997515 
L 186.406719 305.902648 
L 188.06087 305.871025 
L 190.128557 305.80778 
L 191.782708 305.649667 
L 195.504545 305.5548 
L 196.331621 305.491555 
L 197.985771 305.396687 
L 200.466996 305.30182 
L 202.121146 305.206952 
L 209.564822 304.732614 
L 212.459585 304.637746 
L 213.700198 304.511256 
L 215.767885 304.416389 
L 219.903261 304.195031 
L 224.038636 304.131786 
L 225.692787 303.94205 
L 227.760474 303.847183 
L 231.89585 303.43609 
L 234.377075 303.119864 
L 236.031225 303.056619 
L 239.339526 302.613904 
L 241.820751 302.550659 
L 243.061364 302.424169 
L 244.301976 302.329301 
L 255.881028 301.412247 
L 256.708103 301.254135 
L 259.189328 301.159267 
L 265.805929 300.748174 
L 268.700692 300.653307 
L 270.354842 300.463571 
L 272.42253 300.368704 
L 274.903755 300.273836 
L 276.971443 300.178969 
L 278.625593 300.147346 
L 280.693281 300.084101 
L 281.520356 299.957611 
L 287.309881 299.862743 
L 288.136957 299.767876 
L 293.099407 299.673008 
L 296.821245 299.483273 
L 299.716008 299.388405 
L 301.370158 299.19867 
L 304.264921 299.103802 
L 305.091996 298.977312 
L 307.159684 298.914067 
L 311.295059 298.850822 
L 312.949209 298.692709 
L 314.60336 298.661087 
L 315.843972 298.566219 
L 317.498123 298.408106 
L 321.633498 298.186749 
L 325.768874 298.091881 
L 329.490711 297.902146 
L 330.731324 297.870523 
L 331.558399 297.744033 
L 333.626087 297.649166 
L 334.453162 297.58592 
L 335.280237 297.522675 
L 336.107312 297.45943 
L 340.242688 297.364563 
L 349.340514 296.763734 
L 350.167589 296.700489 
L 351.408202 296.605622 
L 354.302964 296.510754 
L 356.370652 296.447509 
L 362.160178 296.352641 
L 362.987253 296.226151 
L 368.776779 296.131284 
L 372.912154 295.909926 
L 373.739229 295.878303 
L 374.566304 295.783436 
L 376.633992 295.688568 
L 378.70168 295.625323 
L 380.769368 295.530456 
L 382.837055 295.46721 
L 386.558893 295.372343 
L 389.040119 295.277475 
L 394.829644 295.182608 
L 399.378557 294.929627 
L 401.032708 294.866382 
L 402.27332 294.771515 
L 408.062846 294.676647 
L 410.544071 294.581779 
L 417.987747 294.486912 
L 419.641897 294.455289 
L 424.604348 294.392044 
L 425.431423 294.328799 
L 431.220949 294.233931 
L 432.875099 294.202309 
L 443.627075 294.107441 
L 446.1083 294.012574 
L 463.476877 293.917706 
L 465.544565 293.854461 
L 476.296542 293.791216 
L 477.123617 293.727971 
L 479.191304 293.664726 
L 480.431917 293.538236 
L 482.913142 293.443368 
L 485.807905 293.316878 
L 489.529743 293.22201 
L 491.597431 293.158765 
L 494.492194 293.063898 
L 497.800494 292.905785 
L 499.868182 292.810917 
L 501.522332 292.779295 
L 508.55247 292.684427 
L 511.033696 292.58956 
L 515.582609 292.494692 
L 518.477372 292.368202 
L 521.372134 292.304957 
L 522.199209 292.241712 
L 532.124111 292.146844 
L 536.259486 291.925486 
L 539.154249 291.830619 
L 543.703162 291.577638 
L 546.597925 291.482771 
L 548.252075 291.451148 
L 551.146838 291.356281 
L 553.214526 291.134923 
L 557.349901 291.040055 
L 558.176976 290.945188 
L 562.312352 290.85032 
L 564.38004 290.787075 
L 568.928953 290.755452 
L 569.756028 290.660585 
L 574.304941 290.565717 
L 575.132016 290.502472 
L 584.229842 290.407604 
L 586.711067 290.312737 
L 592.91413 290.217869 
L 594.568281 290.186247 
L 598.290119 290.123002 
L 599.117194 290.028134 
L 604.493182 289.933266 
L 606.56087 289.870021 
L 614.004545 289.775154 
L 615.245158 289.680286 
L 616.485771 289.585418 
L 617.726383 289.490551 
L 623.929447 289.395683 
L 626.410672 289.300816 
L 637.576186 289.205948 
L 641.298024 289.016213 
L 646.260474 288.952968 
L 647.087549 288.889723 
L 653.290613 288.826478 
L 654.117688 288.763233 
L 658.666601 288.668365 
L 660.320751 288.636742 
L 667.350889 288.541875 
L 668.177964 288.47863 
L 675.62164 288.383762 
L 677.275791 288.35214 
L 680.997628 288.257272 
L 684.305929 288.099159 
L 688.854842 288.004292 
L 691.749605 287.877801 
L 695.471443 287.782934 
L 696.298518 287.719689 
L 704.569269 287.624821 
L 706.636957 287.561576 
L 709.118182 287.466708 
L 711.599407 287.371841 
L 724.005534 287.276973 
L 726.900296 287.150483 
L 731.862747 287.055616 
L 733.516897 287.023993 
L 740.133498 286.929125 
L 741.374111 286.834258 
L 744.682411 286.73939 
L 747.163636 286.6129 
L 747.163636 286.6129 
" clip-path="url(#pd4f8d83208)" style="fill: none; stroke: #ff7f0e; stroke-width: 1.5; stroke-linecap: square"/>
   </g>
   <g id="patch_3">
    <path d="M 108 320.4 
L 108 43.2 
" style="fill: none; stroke: #a9a9a9; stroke-width: 0.8; stroke-linejoin: miter; stroke-linecap: square"/>
   </g>
   <g id="patch_4">
    <path d="M 777.6 320.4 
L 777.6 43.2 
" style="fill: none"/>
   </g>
   <g id="patch_5">
    <path d="M 108 320.4 
L 777.6 320.4 
" style="fill: none; stroke: #a9a9a9; stroke-width: 0.8; stroke-linejoin: miter; stroke-linecap: square"/>
   </g>
   <g id="patch_6">
    <path d="M 108 43.2 
L 777.6 43.2 
" style="fill: none"/>
   </g>
   <g id="text_19">
    <!-- get_subscribe history -->
    <g style="fill: #a9a9a9" transform="translate(378.6075 37.2) scale(0.12 -0.12)">
     <defs>
      <path id="DejaVuSans-67" d="M 2906 1791 
Q 2906 2416 2648 2759 
Q 2391 3103 1925 3103 
Q 1463 3103 1205 2759 
Q 947 2416 947 1791 
Q 947 1169 1205 825 
Q 1463 481 1925 481 
Q 2391 481 2648 825 
Q 2906 1169 2906 1791 
z
M 3481 434 
Q 3481 -459 3084 -895 
Q 2688 -1331 1869 -1331 
Q 1566 -1331 1297 -1286 
Q 1028 -1241 775 -1147 
L 775 -588 
Q 1028 -725 1275 -790 
Q 1522 -856 1778 -856 
Q 2344 -856 2625 -561 
Q 2906 -266 2906 331 
L 2906 616 
Q 2728 306 2450 153 
Q 2172 0 1784 0 
Q 1141 0 747 490 
Q 353 981 353 1791 
Q 353 2603 747 3093 
Q 1141 3584 1784 3584 
Q 2172 3584 2450 3431 
Q 2728 3278 2906 2969 
L 2906 3500 
L 3481 3500 
L 3481 434 
z
" transform="scale(0.015625)"/>
      <path id="DejaVuSans-65" d="M 3597 1894 
L 3597 1613 
L 953 1613 
Q 991 1019 1311 708 
Q 1631 397 2203 397 
Q 2534 397 2845 478 
Q 3156 559 3463 722 
L 3463 178 
Q 3153 47 2828 -22 
Q 2503 -91 2169 -91 
Q 1331 -91 842 396 
Q 353 884 353 1716 
Q 353 2575 817 3079 
Q 1281 3584 2069 3584 
Q 2775 3584 3186 3129 
Q 3597 2675 3597 1894 
z
M 3022 2063 
Q 3016 2534 2758 2815 
Q 2500 3097 2075 3097 
Q 1594 3097 1305 2825 
Q 1016 2553 972 2059 
L 3022 2063 
z
" transform="scale(0.015625)"/>
      <path id="DejaVuSans-74" d="M 1172 4494 
L 1172 3500 
L 2356 3500 
L 2356 3053 
L 1172 3053 
L 1172 1153 
Q 1172 725 1289 603 
Q 1406 481 1766 481 
L 2356 481 
L 2356 0 
L 1766 0 
Q 1100 0 847 248 
Q 594 497 594 1153 
L 594 3053 
L 172 3053 
L 172 3500 
L 594 3500 
L 594 4494 
L 1172 4494 
z
" transform="scale(0.015625)"/>
      <path id="DejaVuSans-5f" d="M 3263 -1063 
L 3263 -1509 
L -63 -1509 
L -63 -1063 
L 3263 -1063 
z
" transform="scale(0.015625)"/>
      <path id="DejaVuSans-73" d="M 2834 3397 
L 2834 2853 
Q 2591 2978 2328 3040 
Q 2066 3103 1784 3103 
Q 1356 3103 1142 2972 
Q 928 2841 928 2578 
Q 928 2378 1081 2264 
Q 1234 2150 1697 2047 
L 1894 2003 
Q 2506 1872 2764 1633 
Q 3022 1394 3022 966 
Q 3022 478 2636 193 
Q 2250 -91 1575 -91 
Q 1294 -91 989 -36 
Q 684 19 347 128 
L 347 722 
Q 666 556 975 473 
Q 1284 391 1588 391 
Q 1994 391 2212 530 
Q 2431 669 2431 922 
Q 2431 1156 2273 1281 
Q 2116 1406 1581 1522 
L 1381 1569 
Q 847 1681 609 1914 
Q 372 2147 372 2553 
Q 372 3047 722 3315 
Q 1072 3584 1716 3584 
Q 2034 3584 2315 3537 
Q 2597 3491 2834 3397 
z
" transform="scale(0.015625)"/>
      <path id="DejaVuSans-75" d="M 544 1381 
L 544 3500 
L 1119 3500 
L 1119 1403 
Q 1119 906 1312 657 
Q 1506 409 1894 409 
Q 2359 409 2629 706 
Q 2900 1003 2900 1516 
L 2900 3500 
L 3475 3500 
L 3475 0 
L 2900 0 
L 2900 538 
Q 2691 219 2414 64 
Q 2138 -91 1772 -91 
Q 1169 -91 856 284 
Q 544 659 544 1381 
z
M 1991 3584 
L 1991 3584 
z
" transform="scale(0.015625)"/>
      <path id="DejaVuSans-62" d="M 3116 1747 
Q 3116 2381 2855 2742 
Q 2594 3103 2138 3103 
Q 1681 3103 1420 2742 
Q 1159 2381 1159 1747 
Q 1159 1113 1420 752 
Q 1681 391 2138 391 
Q 2594 391 2855 752 
Q 3116 1113 3116 1747 
z
M 1159 2969 
Q 1341 3281 1617 3432 
Q 1894 3584 2278 3584 
Q 2916 3584 3314 3078 
Q 3713 2572 3713 1747 
Q 3713 922 3314 415 
Q 2916 -91 2278 -91 
Q 1894 -91 1617 61 
Q 1341 213 1159 525 
L 1159 0 
L 581 0 
L 581 4863 
L 1159 4863 
L 1159 2969 
z
" transform="scale(0.015625)"/>
      <path id="DejaVuSans-63" d="M 3122 3366 
L 3122 2828 
Q 2878 2963 2633 3030 
Q 2388 3097 2138 3097 
Q 1578 3097 1268 2742 
Q 959 2388 959 1747 
Q 959 1106 1268 751 
Q 1578 397 2138 397 
Q 2388 397 2633 464 
Q 2878 531 3122 666 
L 3122 134 
Q 2881 22 2623 -34 
Q 2366 -91 2075 -91 
Q 1284 -91 818 406 
Q 353 903 353 1747 
Q 353 2603 823 3093 
Q 1294 3584 2113 3584 
Q 2378 3584 2631 3529 
Q 2884 3475 3122 3366 
z
" transform="scale(0.015625)"/>
      <path id="DejaVuSans-72" d="M 2631 2963 
Q 2534 3019 2420 3045 
Q 2306 3072 2169 3072 
Q 1681 3072 1420 2755 
Q 1159 2438 1159 1844 
L 1159 0 
L 581 0 
L 581 3500 
L 1159 3500 
L 1159 2956 
Q 1341 3275 1631 3429 
Q 1922 3584 2338 3584 
Q 2397 3584 2469 3576 
Q 2541 3569 2628 3553 
L 2631 2963 
z
" transform="scale(0.015625)"/>
      <path id="DejaVuSans-69" d="M 603 3500 
L 1178 3500 
L 1178 0 
L 603 0 
L 603 3500 
z
M 603 4863 
L 1178 4863 
L 1178 4134 
L 603 4134 
L 603 4863 
z
" transform="scale(0.015625)"/>
      <path id="DejaVuSans-20" transform="scale(0.015625)"/>
      <path id="DejaVuSans-68" d="M 3513 2113 
L 3513 0 
L 2938 0 
L 2938 2094 
Q 2938 2591 2744 2837 
Q 2550 3084 2163 3084 
Q 1697 3084 1428 2787 
Q 1159 2491 1159 1978 
L 1159 0 
L 581 0 
L 581 4863 
L 1159 4863 
L 1159 2956 
Q 1366 3272 1645 3428 
Q 1925 3584 2291 3584 
Q 2894 3584 3203 3211 
Q 3513 2838 3513 2113 
z
" transform="scale(0.015625)"/>
      <path id="DejaVuSans-6f" d="M 1959 3097 
Q 1497 3097 1228 2736 
Q 959 2375 959 1747 
Q 959 1119 1226 758 
Q 1494 397 1959 397 
Q 2419 397 2687 759 
Q 2956 1122 2956 1747 
Q 2956 2369 2687 2733 
Q 2419 3097 1959 3097 
z
M 1959 3584 
Q 2709 3584 3137 3096 
Q 3566 2609 3566 1747 
Q 3566 888 3137 398 
Q 2709 -91 1959 -91 
Q 1206 -91 779 398 
Q 353 888 353 1747 
Q 353 2609 779 3096 
Q 1206 3584 1959 3584 
z
" transform="scale(0.015625)"/>
      <path id="DejaVuSans-79" d="M 2059 -325 
Q 1816 -950 1584 -1140 
Q 1353 -1331 966 -1331 
L 506 -1331 
L 506 -850 
L 844 -850 
Q 1081 -850 1212 -737 
Q 1344 -625 1503 -206 
L 1606 56 
L 191 3500 
L 800 3500 
L 1894 763 
L 2988 3500 
L 3597 3500 
L 2059 -325 
z
" transform="scale(0.015625)"/>
     </defs>
     <use xlink:href="#DejaVuSans-67"/>
     <use xlink:href="#DejaVuSans-65" transform="translate(63.476562 0)"/>
     <use xlink:href="#DejaVuSans-74" transform="translate(125 0)"/>
     <use xlink:href="#DejaVuSans-5f" transform="translate(164.208984 0)"/>
     <use xlink:href="#DejaVuSans-73" transform="translate(214.208984 0)"/>
     <use xlink:href="#DejaVuSans-75" transform="translate(266.308594 0)"/>
     <use xlink:href="#DejaVuSans-62" transform="translate(329.6875 0)"/>
     <use xlink:href="#DejaVuSans-73" transform="translate(393.164062 0)"/>
     <use xlink:href="#DejaVuSans-63" transform="translate(445.263672 0)"/>
     <use xlink:href="#DejaVuSans-72" transform="translate(500.244141 0)"/>
     <use xlink:href="#DejaVuSans-69" transform="translate(541.357422 0)"/>
     <use xlink:href="#DejaVuSans-62" transform="translate(569.140625 0)"/>
     <use xlink:href="#DejaVuSans-65" transform="translate(632.617188 0)"/>
     <use xlink:href="#DejaVuSans-20" transform="translate(694.140625 0)"/>
     <use xlink:href="#DejaVuSans-68" transform="translate(725.927734 0)"/>
     <use xlink:href="#DejaVuSans-69" transform="translate(789.306641 0)"/>
     <use xlink:href="#DejaVuSans-73" transform="translate(817.089844 0)"/>
     <use xlink:href="#DejaVuSans-74" transform="translate(869.189453 0)"/>
     <use xlink:href="#DejaVuSans-6f" transform="translate(908.398438 0)"/>
     <use xlink:href="#DejaVuSans-72" transform="translate(969.580078 0)"/>
     <use xlink:href="#DejaVuSans-79" transform="translate(1010.693359 0)"/>
    </g>
   </g>
   <g id="legend_1">
    <g id="line2d_39">
     <path d="M 815.08 328.498438 
L 825.08 328.498438 
L 835.08 328.498438 
" style="fill: none; stroke: #1f77b4; stroke-width: 1.5; stroke-linecap: square"/>
    </g>
    <g id="text_20">
     <!-- star -->
     <g style="fill: #a9a9a9" transform="translate(843.08 331.998438) scale(0.1 -0.1)">
      <defs>
       <path id="DejaVuSans-61" d="M 2194 1759 
Q 1497 1759 1228 1600 
Q 959 1441 959 1056 
Q 959 750 1161 570 
Q 1363 391 1709 391 
Q 2188 391 2477 730 
Q 2766 1069 2766 1631 
L 2766 1759 
L 2194 1759 
z
M 3341 1997 
L 3341 0 
L 2766 0 
L 2766 531 
Q 2569 213 2275 61 
Q 1981 -91 1556 -91 
Q 1019 -91 701 211 
Q 384 513 384 1019 
Q 384 1609 779 1909 
Q 1175 2209 1959 2209 
L 2766 2209 
L 2766 2266 
Q 2766 2663 2505 2880 
Q 2244 3097 1772 3097 
Q 1472 3097 1187 3025 
Q 903 2953 641 2809 
L 641 3341 
Q 956 3463 1253 3523 
Q 1550 3584 1831 3584 
Q 2591 3584 2966 3190 
Q 3341 2797 3341 1997 
z
" transform="scale(0.015625)"/>
      </defs>
      <use xlink:href="#DejaVuSans-73"/>
      <use xlink:href="#DejaVuSans-74" transform="translate(52.099609 0)"/>
      <use xlink:href="#DejaVuSans-61" transform="translate(91.308594 0)"/>
      <use xlink:href="#DejaVuSans-72" transform="translate(152.587891 0)"/>
     </g>
    </g>
    <g id="line2d_40">
     <path d="M 815.08 343.176562 
L 825.08 343.176562 
L 835.08 343.176562 
" style="fill: none; stroke: #ff7f0e; stroke-width: 1.5; stroke-linecap: square"/>
    </g>
    <g id="text_21">
     <!-- fork -->
     <g style="fill: #a9a9a9" transform="translate(843.08 346.676562) scale(0.1 -0.1)">
      <defs>
       <path id="DejaVuSans-66" d="M 2375 4863 
L 2375 4384 
L 1825 4384 
Q 1516 4384 1395 4259 
Q 1275 4134 1275 3809 
L 1275 3500 
L 2222 3500 
L 2222 3053 
L 1275 3053 
L 1275 0 
L 697 0 
L 697 3053 
L 147 3053 
L 147 3500 
L 697 3500 
L 697 3744 
Q 697 4328 969 4595 
Q 1241 4863 1831 4863 
L 2375 4863 
z
" transform="scale(0.015625)"/>
       <path id="DejaVuSans-6b" d="M 581 4863 
L 1159 4863 
L 1159 1991 
L 2875 3500 
L 3609 3500 
L 1753 1863 
L 3688 0 
L 2938 0 
L 1159 1709 
L 1159 0 
L 581 0 
L 581 4863 
z
" transform="scale(0.015625)"/>
      </defs>
      <use xlink:href="#DejaVuSans-66"/>
      <use xlink:href="#DejaVuSans-6f" transform="translate(35.205078 0)"/>
      <use xlink:href="#DejaVuSans-72" transform="translate(96.386719 0)"/>
      <use xlink:href="#DejaVuSans-6b" transform="translate(137.5 0)"/>
     </g>
    </g>
   </g>
  </g>
 </g>
 <defs>
  <clipPath id="pd4f8d83208">
   <rect x="108" y="43.2" width="669.6" height="277.2"/>
  </clipPath>
 </defs>
</svg>
