<?xml version="1.0" encoding="utf-8" standalone="no"?>
<!DOCTYPE svg PUBLIC "-//W3C//DTD SVG 1.1//EN"
  "http://www.w3.org/Graphics/SVG/1.1/DTD/svg11.dtd">
<svg xmlns:xlink="http://www.w3.org/1999/xlink" width="864pt" height="360pt" viewBox="0 0 864 360" xmlns="http://www.w3.org/2000/svg" version="1.1">
 <metadata>
  <rdf:RDF xmlns:dc="http://purl.org/dc/elements/1.1/" xmlns:cc="http://creativecommons.org/ns#" xmlns:rdf="http://www.w3.org/1999/02/22-rdf-syntax-ns#">
   <cc:Work>
    <dc:type rdf:resource="http://purl.org/dc/dcmitype/StillImage"/>
    <dc:date>2025-05-24T20:05:53.726900</dc:date>
    <dc:format>image/svg+xml</dc:format>
    <dc:creator>
     <cc:Agent>
      <dc:title>Matplotlib v3.10.3, https://matplotlib.org/</dc:title>
     </cc:Agent>
    </dc:creator>
   </cc:Work>
  </rdf:RDF>
 </metadata>
 <defs>
  <style type="text/css">*{stroke-linejoin: round; stroke-linecap: butt}</style>
 </defs>
 <g id="figure_1">
  <g id="patch_1">
   <path d="M 0 360 
L 864 360 
L 864 0 
L 0 0 
L 0 360 
z
" style="fill: none; opacity: 0"/>
  </g>
  <g id="axes_1">
   <g id="patch_2">
    <path d="M 108 320.4 
L 777.6 320.4 
L 777.6 43.2 
L 108 43.2 
L 108 320.4 
z
" style="fill: none; opacity: 0"/>
   </g>
   <g id="matplotlib.axis_1">
    <g id="xtick_1">
     <g id="line2d_1">
      <path d="M 128.435844 320.4 
L 128.435844 43.2 
" clip-path="url(#p0512793790)" style="fill: none; stroke-dasharray: 5.12,1.28,0.8,1.28; stroke-dashoffset: 0; stroke: #b0b0b0; stroke-width: 0.8"/>
     </g>
     <g id="line2d_2">
      <defs>
       <path id="m2dcac1ec72" d="M 0 0 
L 0 3.5 
" style="stroke: #a9a9a9; stroke-width: 0.8"/>
      </defs>
      <g>
       <use xlink:href="#m2dcac1ec72" x="128.435844" y="320.4" style="fill: #a9a9a9; stroke: #a9a9a9; stroke-width: 0.8"/>
      </g>
     </g>
     <g id="text_1">
      <!-- 2021-07 -->
      <g style="fill: #a9a9a9" transform="translate(107.544438 334.998438) scale(0.1 -0.1)">
       <defs>
        <path id="DejaVuSans-32" d="M 1228 531 
L 3431 531 
L 3431 0 
L 469 0 
L 469 531 
Q 828 903 1448 1529 
Q 2069 2156 2228 2338 
Q 2531 2678 2651 2914 
Q 2772 3150 2772 3378 
Q 2772 3750 2511 3984 
Q 2250 4219 1831 4219 
Q 1534 4219 1204 4116 
Q 875 4013 500 3803 
L 500 4441 
Q 881 4594 1212 4672 
Q 1544 4750 1819 4750 
Q 2544 4750 2975 4387 
Q 3406 4025 3406 3419 
Q 3406 3131 3298 2873 
Q 3191 2616 2906 2266 
Q 2828 2175 2409 1742 
Q 1991 1309 1228 531 
z
" transform="scale(0.015625)"/>
        <path id="DejaVuSans-30" d="M 2034 4250 
Q 1547 4250 1301 3770 
Q 1056 3291 1056 2328 
Q 1056 1369 1301 889 
Q 1547 409 2034 409 
Q 2525 409 2770 889 
Q 3016 1369 3016 2328 
Q 3016 3291 2770 3770 
Q 2525 4250 2034 4250 
z
M 2034 4750 
Q 2819 4750 3233 4129 
Q 3647 3509 3647 2328 
Q 3647 1150 3233 529 
Q 2819 -91 2034 -91 
Q 1250 -91 836 529 
Q 422 1150 422 2328 
Q 422 3509 836 4129 
Q 1250 4750 2034 4750 
z
" transform="scale(0.015625)"/>
        <path id="DejaVuSans-31" d="M 794 531 
L 1825 531 
L 1825 4091 
L 703 3866 
L 703 4441 
L 1819 4666 
L 2450 4666 
L 2450 531 
L 3481 531 
L 3481 0 
L 794 0 
L 794 531 
z
" transform="scale(0.015625)"/>
        <path id="DejaVuSans-2d" d="M 313 2009 
L 1997 2009 
L 1997 1497 
L 313 1497 
L 313 2009 
z
" transform="scale(0.015625)"/>
        <path id="DejaVuSans-37" d="M 525 4666 
L 3525 4666 
L 3525 4397 
L 1831 0 
L 1172 0 
L 2766 4134 
L 525 4134 
L 525 4666 
z
" transform="scale(0.015625)"/>
       </defs>
       <use xlink:href="#DejaVuSans-32"/>
       <use xlink:href="#DejaVuSans-30" transform="translate(63.623047 0)"/>
       <use xlink:href="#DejaVuSans-32" transform="translate(127.246094 0)"/>
       <use xlink:href="#DejaVuSans-31" transform="translate(190.869141 0)"/>
       <use xlink:href="#DejaVuSans-2d" transform="translate(254.492188 0)"/>
       <use xlink:href="#DejaVuSans-30" transform="translate(290.576172 0)"/>
       <use xlink:href="#DejaVuSans-37" transform="translate(354.199219 0)"/>
      </g>
     </g>
    </g>
    <g id="xtick_2">
     <g id="line2d_3">
      <path d="M 208.44 320.4 
L 208.44 43.2 
" clip-path="url(#p0512793790)" style="fill: none; stroke-dasharray: 5.12,1.28,0.8,1.28; stroke-dashoffset: 0; stroke: #b0b0b0; stroke-width: 0.8"/>
     </g>
     <g id="line2d_4">
      <g>
       <use xlink:href="#m2dcac1ec72" x="208.44" y="320.4" style="fill: #a9a9a9; stroke: #a9a9a9; stroke-width: 0.8"/>
      </g>
     </g>
     <g id="text_2">
      <!-- 2022-01 -->
      <g style="fill: #a9a9a9" transform="translate(187.548594 334.998438) scale(0.1 -0.1)">
       <use xlink:href="#DejaVuSans-32"/>
       <use xlink:href="#DejaVuSans-30" transform="translate(63.623047 0)"/>
       <use xlink:href="#DejaVuSans-32" transform="translate(127.246094 0)"/>
       <use xlink:href="#DejaVuSans-32" transform="translate(190.869141 0)"/>
       <use xlink:href="#DejaVuSans-2d" transform="translate(254.492188 0)"/>
       <use xlink:href="#DejaVuSans-30" transform="translate(290.576172 0)"/>
       <use xlink:href="#DejaVuSans-31" transform="translate(354.199219 0)"/>
      </g>
     </g>
    </g>
    <g id="xtick_3">
     <g id="line2d_5">
      <path d="M 287.13974 320.4 
L 287.13974 43.2 
" clip-path="url(#p0512793790)" style="fill: none; stroke-dasharray: 5.12,1.28,0.8,1.28; stroke-dashoffset: 0; stroke: #b0b0b0; stroke-width: 0.8"/>
     </g>
     <g id="line2d_6">
      <g>
       <use xlink:href="#m2dcac1ec72" x="287.13974" y="320.4" style="fill: #a9a9a9; stroke: #a9a9a9; stroke-width: 0.8"/>
      </g>
     </g>
     <g id="text_3">
      <!-- 2022-07 -->
      <g style="fill: #a9a9a9" transform="translate(266.248334 334.998438) scale(0.1 -0.1)">
       <use xlink:href="#DejaVuSans-32"/>
       <use xlink:href="#DejaVuSans-30" transform="translate(63.623047 0)"/>
       <use xlink:href="#DejaVuSans-32" transform="translate(127.246094 0)"/>
       <use xlink:href="#DejaVuSans-32" transform="translate(190.869141 0)"/>
       <use xlink:href="#DejaVuSans-2d" transform="translate(254.492188 0)"/>
       <use xlink:href="#DejaVuSans-30" transform="translate(290.576172 0)"/>
       <use xlink:href="#DejaVuSans-37" transform="translate(354.199219 0)"/>
      </g>
     </g>
    </g>
    <g id="xtick_4">
     <g id="line2d_7">
      <path d="M 367.143896 320.4 
L 367.143896 43.2 
" clip-path="url(#p0512793790)" style="fill: none; stroke-dasharray: 5.12,1.28,0.8,1.28; stroke-dashoffset: 0; stroke: #b0b0b0; stroke-width: 0.8"/>
     </g>
     <g id="line2d_8">
      <g>
       <use xlink:href="#m2dcac1ec72" x="367.143896" y="320.4" style="fill: #a9a9a9; stroke: #a9a9a9; stroke-width: 0.8"/>
      </g>
     </g>
     <g id="text_4">
      <!-- 2023-01 -->
      <g style="fill: #a9a9a9" transform="translate(346.25249 334.998438) scale(0.1 -0.1)">
       <defs>
        <path id="DejaVuSans-33" d="M 2597 2516 
Q 3050 2419 3304 2112 
Q 3559 1806 3559 1356 
Q 3559 666 3084 287 
Q 2609 -91 1734 -91 
Q 1441 -91 1130 -33 
Q 819 25 488 141 
L 488 750 
Q 750 597 1062 519 
Q 1375 441 1716 441 
Q 2309 441 2620 675 
Q 2931 909 2931 1356 
Q 2931 1769 2642 2001 
Q 2353 2234 1838 2234 
L 1294 2234 
L 1294 2753 
L 1863 2753 
Q 2328 2753 2575 2939 
Q 2822 3125 2822 3475 
Q 2822 3834 2567 4026 
Q 2313 4219 1838 4219 
Q 1578 4219 1281 4162 
Q 984 4106 628 3988 
L 628 4550 
Q 988 4650 1302 4700 
Q 1616 4750 1894 4750 
Q 2613 4750 3031 4423 
Q 3450 4097 3450 3541 
Q 3450 3153 3228 2886 
Q 3006 2619 2597 2516 
z
" transform="scale(0.015625)"/>
       </defs>
       <use xlink:href="#DejaVuSans-32"/>
       <use xlink:href="#DejaVuSans-30" transform="translate(63.623047 0)"/>
       <use xlink:href="#DejaVuSans-32" transform="translate(127.246094 0)"/>
       <use xlink:href="#DejaVuSans-33" transform="translate(190.869141 0)"/>
       <use xlink:href="#DejaVuSans-2d" transform="translate(254.492188 0)"/>
       <use xlink:href="#DejaVuSans-30" transform="translate(290.576172 0)"/>
       <use xlink:href="#DejaVuSans-31" transform="translate(354.199219 0)"/>
      </g>
     </g>
    </g>
    <g id="xtick_5">
     <g id="line2d_9">
      <path d="M 445.843636 320.4 
L 445.843636 43.2 
" clip-path="url(#p0512793790)" style="fill: none; stroke-dasharray: 5.12,1.28,0.8,1.28; stroke-dashoffset: 0; stroke: #b0b0b0; stroke-width: 0.8"/>
     </g>
     <g id="line2d_10">
      <g>
       <use xlink:href="#m2dcac1ec72" x="445.843636" y="320.4" style="fill: #a9a9a9; stroke: #a9a9a9; stroke-width: 0.8"/>
      </g>
     </g>
     <g id="text_5">
      <!-- 2023-07 -->
      <g style="fill: #a9a9a9" transform="translate(424.95223 334.998438) scale(0.1 -0.1)">
       <use xlink:href="#DejaVuSans-32"/>
       <use xlink:href="#DejaVuSans-30" transform="translate(63.623047 0)"/>
       <use xlink:href="#DejaVuSans-32" transform="translate(127.246094 0)"/>
       <use xlink:href="#DejaVuSans-33" transform="translate(190.869141 0)"/>
       <use xlink:href="#DejaVuSans-2d" transform="translate(254.492188 0)"/>
       <use xlink:href="#DejaVuSans-30" transform="translate(290.576172 0)"/>
       <use xlink:href="#DejaVuSans-37" transform="translate(354.199219 0)"/>
      </g>
     </g>
    </g>
    <g id="xtick_6">
     <g id="line2d_11">
      <path d="M 525.847792 320.4 
L 525.847792 43.2 
" clip-path="url(#p0512793790)" style="fill: none; stroke-dasharray: 5.12,1.28,0.8,1.28; stroke-dashoffset: 0; stroke: #b0b0b0; stroke-width: 0.8"/>
     </g>
     <g id="line2d_12">
      <g>
       <use xlink:href="#m2dcac1ec72" x="525.847792" y="320.4" style="fill: #a9a9a9; stroke: #a9a9a9; stroke-width: 0.8"/>
      </g>
     </g>
     <g id="text_6">
      <!-- 2024-01 -->
      <g style="fill: #a9a9a9" transform="translate(504.956386 334.998438) scale(0.1 -0.1)">
       <defs>
        <path id="DejaVuSans-34" d="M 2419 4116 
L 825 1625 
L 2419 1625 
L 2419 4116 
z
M 2253 4666 
L 3047 4666 
L 3047 1625 
L 3713 1625 
L 3713 1100 
L 3047 1100 
L 3047 0 
L 2419 0 
L 2419 1100 
L 313 1100 
L 313 1709 
L 2253 4666 
z
" transform="scale(0.015625)"/>
       </defs>
       <use xlink:href="#DejaVuSans-32"/>
       <use xlink:href="#DejaVuSans-30" transform="translate(63.623047 0)"/>
       <use xlink:href="#DejaVuSans-32" transform="translate(127.246094 0)"/>
       <use xlink:href="#DejaVuSans-34" transform="translate(190.869141 0)"/>
       <use xlink:href="#DejaVuSans-2d" transform="translate(254.492188 0)"/>
       <use xlink:href="#DejaVuSans-30" transform="translate(290.576172 0)"/>
       <use xlink:href="#DejaVuSans-31" transform="translate(354.199219 0)"/>
      </g>
     </g>
    </g>
    <g id="xtick_7">
     <g id="line2d_13">
      <path d="M 604.982338 320.4 
L 604.982338 43.2 
" clip-path="url(#p0512793790)" style="fill: none; stroke-dasharray: 5.12,1.28,0.8,1.28; stroke-dashoffset: 0; stroke: #b0b0b0; stroke-width: 0.8"/>
     </g>
     <g id="line2d_14">
      <g>
       <use xlink:href="#m2dcac1ec72" x="604.982338" y="320.4" style="fill: #a9a9a9; stroke: #a9a9a9; stroke-width: 0.8"/>
      </g>
     </g>
     <g id="text_7">
      <!-- 2024-07 -->
      <g style="fill: #a9a9a9" transform="translate(584.090931 334.998438) scale(0.1 -0.1)">
       <use xlink:href="#DejaVuSans-32"/>
       <use xlink:href="#DejaVuSans-30" transform="translate(63.623047 0)"/>
       <use xlink:href="#DejaVuSans-32" transform="translate(127.246094 0)"/>
       <use xlink:href="#DejaVuSans-34" transform="translate(190.869141 0)"/>
       <use xlink:href="#DejaVuSans-2d" transform="translate(254.492188 0)"/>
       <use xlink:href="#DejaVuSans-30" transform="translate(290.576172 0)"/>
       <use xlink:href="#DejaVuSans-37" transform="translate(354.199219 0)"/>
      </g>
     </g>
    </g>
    <g id="xtick_8">
     <g id="line2d_15">
      <path d="M 684.986494 320.4 
L 684.986494 43.2 
" clip-path="url(#p0512793790)" style="fill: none; stroke-dasharray: 5.12,1.28,0.8,1.28; stroke-dashoffset: 0; stroke: #b0b0b0; stroke-width: 0.8"/>
     </g>
     <g id="line2d_16">
      <g>
       <use xlink:href="#m2dcac1ec72" x="684.986494" y="320.4" style="fill: #a9a9a9; stroke: #a9a9a9; stroke-width: 0.8"/>
      </g>
     </g>
     <g id="text_8">
      <!-- 2025-01 -->
      <g style="fill: #a9a9a9" transform="translate(664.095087 334.998438) scale(0.1 -0.1)">
       <defs>
        <path id="DejaVuSans-35" d="M 691 4666 
L 3169 4666 
L 3169 4134 
L 1269 4134 
L 1269 2991 
Q 1406 3038 1543 3061 
Q 1681 3084 1819 3084 
Q 2600 3084 3056 2656 
Q 3513 2228 3513 1497 
Q 3513 744 3044 326 
Q 2575 -91 1722 -91 
Q 1428 -91 1123 -41 
Q 819 9 494 109 
L 494 744 
Q 775 591 1075 516 
Q 1375 441 1709 441 
Q 2250 441 2565 725 
Q 2881 1009 2881 1497 
Q 2881 1984 2565 2268 
Q 2250 2553 1709 2553 
Q 1456 2553 1204 2497 
Q 953 2441 691 2322 
L 691 4666 
z
" transform="scale(0.015625)"/>
       </defs>
       <use xlink:href="#DejaVuSans-32"/>
       <use xlink:href="#DejaVuSans-30" transform="translate(63.623047 0)"/>
       <use xlink:href="#DejaVuSans-32" transform="translate(127.246094 0)"/>
       <use xlink:href="#DejaVuSans-35" transform="translate(190.869141 0)"/>
       <use xlink:href="#DejaVuSans-2d" transform="translate(254.492188 0)"/>
       <use xlink:href="#DejaVuSans-30" transform="translate(290.576172 0)"/>
       <use xlink:href="#DejaVuSans-31" transform="translate(354.199219 0)"/>
      </g>
     </g>
    </g>
    <g id="xtick_9">
     <g id="line2d_17">
      <path d="M 763.686234 320.4 
L 763.686234 43.2 
" clip-path="url(#p0512793790)" style="fill: none; stroke-dasharray: 5.12,1.28,0.8,1.28; stroke-dashoffset: 0; stroke: #b0b0b0; stroke-width: 0.8"/>
     </g>
     <g id="line2d_18">
      <g>
       <use xlink:href="#m2dcac1ec72" x="763.686234" y="320.4" style="fill: #a9a9a9; stroke: #a9a9a9; stroke-width: 0.8"/>
      </g>
     </g>
     <g id="text_9">
      <!-- 2025-07 -->
      <g style="fill: #a9a9a9" transform="translate(742.794828 334.998438) scale(0.1 -0.1)">
       <use xlink:href="#DejaVuSans-32"/>
       <use xlink:href="#DejaVuSans-30" transform="translate(63.623047 0)"/>
       <use xlink:href="#DejaVuSans-32" transform="translate(127.246094 0)"/>
       <use xlink:href="#DejaVuSans-35" transform="translate(190.869141 0)"/>
       <use xlink:href="#DejaVuSans-2d" transform="translate(254.492188 0)"/>
       <use xlink:href="#DejaVuSans-30" transform="translate(290.576172 0)"/>
       <use xlink:href="#DejaVuSans-37" transform="translate(354.199219 0)"/>
      </g>
     </g>
    </g>
   </g>
   <g id="matplotlib.axis_2">
    <g id="ytick_1">
     <g id="line2d_19">
      <path d="M 108 307.832864 
L 777.6 307.832864 
" clip-path="url(#p0512793790)" style="fill: none; stroke-dasharray: 5.12,1.28,0.8,1.28; stroke-dashoffset: 0; stroke: #b0b0b0; stroke-width: 0.8"/>
     </g>
     <g id="line2d_20">
      <defs>
       <path id="m808e7e5224" d="M 0 0 
L -3.5 0 
" style="stroke: #a9a9a9; stroke-width: 0.8"/>
      </defs>
      <g>
       <use xlink:href="#m808e7e5224" x="108" y="307.832864" style="fill: #a9a9a9; stroke: #a9a9a9; stroke-width: 0.8"/>
      </g>
     </g>
     <g id="text_10">
      <!-- 0 -->
      <g style="fill: #a9a9a9" transform="translate(94.6375 311.632083) scale(0.1 -0.1)">
       <use xlink:href="#DejaVuSans-30"/>
      </g>
     </g>
    </g>
    <g id="ytick_2">
     <g id="line2d_21">
      <path d="M 108 274.969014 
L 777.6 274.969014 
" clip-path="url(#p0512793790)" style="fill: none; stroke-dasharray: 5.12,1.28,0.8,1.28; stroke-dashoffset: 0; stroke: #b0b0b0; stroke-width: 0.8"/>
     </g>
     <g id="line2d_22">
      <g>
       <use xlink:href="#m808e7e5224" x="108" y="274.969014" style="fill: #a9a9a9; stroke: #a9a9a9; stroke-width: 0.8"/>
      </g>
     </g>
     <g id="text_11">
      <!-- 1000 -->
      <g style="fill: #a9a9a9" transform="translate(75.55 278.768233) scale(0.1 -0.1)">
       <use xlink:href="#DejaVuSans-31"/>
       <use xlink:href="#DejaVuSans-30" transform="translate(63.623047 0)"/>
       <use xlink:href="#DejaVuSans-30" transform="translate(127.246094 0)"/>
       <use xlink:href="#DejaVuSans-30" transform="translate(190.869141 0)"/>
      </g>
     </g>
    </g>
    <g id="ytick_3">
     <g id="line2d_23">
      <path d="M 108 242.105164 
L 777.6 242.105164 
" clip-path="url(#p0512793790)" style="fill: none; stroke-dasharray: 5.12,1.28,0.8,1.28; stroke-dashoffset: 0; stroke: #b0b0b0; stroke-width: 0.8"/>
     </g>
     <g id="line2d_24">
      <g>
       <use xlink:href="#m808e7e5224" x="108" y="242.105164" style="fill: #a9a9a9; stroke: #a9a9a9; stroke-width: 0.8"/>
      </g>
     </g>
     <g id="text_12">
      <!-- 2000 -->
      <g style="fill: #a9a9a9" transform="translate(75.55 245.904383) scale(0.1 -0.1)">
       <use xlink:href="#DejaVuSans-32"/>
       <use xlink:href="#DejaVuSans-30" transform="translate(63.623047 0)"/>
       <use xlink:href="#DejaVuSans-30" transform="translate(127.246094 0)"/>
       <use xlink:href="#DejaVuSans-30" transform="translate(190.869141 0)"/>
      </g>
     </g>
    </g>
    <g id="ytick_4">
     <g id="line2d_25">
      <path d="M 108 209.241315 
L 777.6 209.241315 
" clip-path="url(#p0512793790)" style="fill: none; stroke-dasharray: 5.12,1.28,0.8,1.28; stroke-dashoffset: 0; stroke: #b0b0b0; stroke-width: 0.8"/>
     </g>
     <g id="line2d_26">
      <g>
       <use xlink:href="#m808e7e5224" x="108" y="209.241315" style="fill: #a9a9a9; stroke: #a9a9a9; stroke-width: 0.8"/>
      </g>
     </g>
     <g id="text_13">
      <!-- 3000 -->
      <g style="fill: #a9a9a9" transform="translate(75.55 213.040533) scale(0.1 -0.1)">
       <use xlink:href="#DejaVuSans-33"/>
       <use xlink:href="#DejaVuSans-30" transform="translate(63.623047 0)"/>
       <use xlink:href="#DejaVuSans-30" transform="translate(127.246094 0)"/>
       <use xlink:href="#DejaVuSans-30" transform="translate(190.869141 0)"/>
      </g>
     </g>
    </g>
    <g id="ytick_5">
     <g id="line2d_27">
      <path d="M 108 176.377465 
L 777.6 176.377465 
" clip-path="url(#p0512793790)" style="fill: none; stroke-dasharray: 5.12,1.28,0.8,1.28; stroke-dashoffset: 0; stroke: #b0b0b0; stroke-width: 0.8"/>
     </g>
     <g id="line2d_28">
      <g>
       <use xlink:href="#m808e7e5224" x="108" y="176.377465" style="fill: #a9a9a9; stroke: #a9a9a9; stroke-width: 0.8"/>
      </g>
     </g>
     <g id="text_14">
      <!-- 4000 -->
      <g style="fill: #a9a9a9" transform="translate(75.55 180.176684) scale(0.1 -0.1)">
       <use xlink:href="#DejaVuSans-34"/>
       <use xlink:href="#DejaVuSans-30" transform="translate(63.623047 0)"/>
       <use xlink:href="#DejaVuSans-30" transform="translate(127.246094 0)"/>
       <use xlink:href="#DejaVuSans-30" transform="translate(190.869141 0)"/>
      </g>
     </g>
    </g>
    <g id="ytick_6">
     <g id="line2d_29">
      <path d="M 108 143.513615 
L 777.6 143.513615 
" clip-path="url(#p0512793790)" style="fill: none; stroke-dasharray: 5.12,1.28,0.8,1.28; stroke-dashoffset: 0; stroke: #b0b0b0; stroke-width: 0.8"/>
     </g>
     <g id="line2d_30">
      <g>
       <use xlink:href="#m808e7e5224" x="108" y="143.513615" style="fill: #a9a9a9; stroke: #a9a9a9; stroke-width: 0.8"/>
      </g>
     </g>
     <g id="text_15">
      <!-- 5000 -->
      <g style="fill: #a9a9a9" transform="translate(75.55 147.312834) scale(0.1 -0.1)">
       <use xlink:href="#DejaVuSans-35"/>
       <use xlink:href="#DejaVuSans-30" transform="translate(63.623047 0)"/>
       <use xlink:href="#DejaVuSans-30" transform="translate(127.246094 0)"/>
       <use xlink:href="#DejaVuSans-30" transform="translate(190.869141 0)"/>
      </g>
     </g>
    </g>
    <g id="ytick_7">
     <g id="line2d_31">
      <path d="M 108 110.649765 
L 777.6 110.649765 
" clip-path="url(#p0512793790)" style="fill: none; stroke-dasharray: 5.12,1.28,0.8,1.28; stroke-dashoffset: 0; stroke: #b0b0b0; stroke-width: 0.8"/>
     </g>
     <g id="line2d_32">
      <g>
       <use xlink:href="#m808e7e5224" x="108" y="110.649765" style="fill: #a9a9a9; stroke: #a9a9a9; stroke-width: 0.8"/>
      </g>
     </g>
     <g id="text_16">
      <!-- 6000 -->
      <g style="fill: #a9a9a9" transform="translate(75.55 114.448984) scale(0.1 -0.1)">
       <defs>
        <path id="DejaVuSans-36" d="M 2113 2584 
Q 1688 2584 1439 2293 
Q 1191 2003 1191 1497 
Q 1191 994 1439 701 
Q 1688 409 2113 409 
Q 2538 409 2786 701 
Q 3034 994 3034 1497 
Q 3034 2003 2786 2293 
Q 2538 2584 2113 2584 
z
M 3366 4563 
L 3366 3988 
Q 3128 4100 2886 4159 
Q 2644 4219 2406 4219 
Q 1781 4219 1451 3797 
Q 1122 3375 1075 2522 
Q 1259 2794 1537 2939 
Q 1816 3084 2150 3084 
Q 2853 3084 3261 2657 
Q 3669 2231 3669 1497 
Q 3669 778 3244 343 
Q 2819 -91 2113 -91 
Q 1303 -91 875 529 
Q 447 1150 447 2328 
Q 447 3434 972 4092 
Q 1497 4750 2381 4750 
Q 2619 4750 2861 4703 
Q 3103 4656 3366 4563 
z
" transform="scale(0.015625)"/>
       </defs>
       <use xlink:href="#DejaVuSans-36"/>
       <use xlink:href="#DejaVuSans-30" transform="translate(63.623047 0)"/>
       <use xlink:href="#DejaVuSans-30" transform="translate(127.246094 0)"/>
       <use xlink:href="#DejaVuSans-30" transform="translate(190.869141 0)"/>
      </g>
     </g>
    </g>
    <g id="ytick_8">
     <g id="line2d_33">
      <path d="M 108 77.785915 
L 777.6 77.785915 
" clip-path="url(#p0512793790)" style="fill: none; stroke-dasharray: 5.12,1.28,0.8,1.28; stroke-dashoffset: 0; stroke: #b0b0b0; stroke-width: 0.8"/>
     </g>
     <g id="line2d_34">
      <g>
       <use xlink:href="#m808e7e5224" x="108" y="77.785915" style="fill: #a9a9a9; stroke: #a9a9a9; stroke-width: 0.8"/>
      </g>
     </g>
     <g id="text_17">
      <!-- 7000 -->
      <g style="fill: #a9a9a9" transform="translate(75.55 81.585134) scale(0.1 -0.1)">
       <use xlink:href="#DejaVuSans-37"/>
       <use xlink:href="#DejaVuSans-30" transform="translate(63.623047 0)"/>
       <use xlink:href="#DejaVuSans-30" transform="translate(127.246094 0)"/>
       <use xlink:href="#DejaVuSans-30" transform="translate(190.869141 0)"/>
      </g>
     </g>
    </g>
    <g id="ytick_9">
     <g id="line2d_35">
      <path d="M 108 44.922066 
L 777.6 44.922066 
" clip-path="url(#p0512793790)" style="fill: none; stroke-dasharray: 5.12,1.28,0.8,1.28; stroke-dashoffset: 0; stroke: #b0b0b0; stroke-width: 0.8"/>
     </g>
     <g id="line2d_36">
      <g>
       <use xlink:href="#m808e7e5224" x="108" y="44.922066" style="fill: #a9a9a9; stroke: #a9a9a9; stroke-width: 0.8"/>
      </g>
     </g>
     <g id="text_18">
      <!-- 8000 -->
      <g style="fill: #a9a9a9" transform="translate(75.55 48.721284) scale(0.1 -0.1)">
       <defs>
        <path id="DejaVuSans-38" d="M 2034 2216 
Q 1584 2216 1326 1975 
Q 1069 1734 1069 1313 
Q 1069 891 1326 650 
Q 1584 409 2034 409 
Q 2484 409 2743 651 
Q 3003 894 3003 1313 
Q 3003 1734 2745 1975 
Q 2488 2216 2034 2216 
z
M 1403 2484 
Q 997 2584 770 2862 
Q 544 3141 544 3541 
Q 544 4100 942 4425 
Q 1341 4750 2034 4750 
Q 2731 4750 3128 4425 
Q 3525 4100 3525 3541 
Q 3525 3141 3298 2862 
Q 3072 2584 2669 2484 
Q 3125 2378 3379 2068 
Q 3634 1759 3634 1313 
Q 3634 634 3220 271 
Q 2806 -91 2034 -91 
Q 1263 -91 848 271 
Q 434 634 434 1313 
Q 434 1759 690 2068 
Q 947 2378 1403 2484 
z
M 1172 3481 
Q 1172 3119 1398 2916 
Q 1625 2713 2034 2713 
Q 2441 2713 2670 2916 
Q 2900 3119 2900 3481 
Q 2900 3844 2670 4047 
Q 2441 4250 2034 4250 
Q 1625 4250 1398 4047 
Q 1172 3844 1172 3481 
z
" transform="scale(0.015625)"/>
       </defs>
       <use xlink:href="#DejaVuSans-38"/>
       <use xlink:href="#DejaVuSans-30" transform="translate(63.623047 0)"/>
       <use xlink:href="#DejaVuSans-30" transform="translate(127.246094 0)"/>
       <use xlink:href="#DejaVuSans-30" transform="translate(190.869141 0)"/>
      </g>
     </g>
    </g>
   </g>
   <g id="line2d_37">
    <path d="M 138.436364 307.734272 
L 141.045195 307.504225 
L 141.48 307.307042 
L 143.219221 307.076995 
L 144.958442 306.715493 
L 145.828052 306.584038 
L 148.002078 306.386854 
L 148.871688 306.025352 
L 149.306494 305.433803 
L 149.741299 305.138028 
L 150.176104 304.152113 
L 150.610909 304.086385 
L 151.045714 303.724883 
L 151.915325 303.264789 
L 153.654545 301.818779 
L 155.393766 300.931455 
L 156.698182 300.307042 
L 157.132987 299.584038 
L 158.002597 298.926761 
L 158.437403 298.729577 
L 162.785455 298.0723 
L 163.22026 297.875117 
L 166.263896 297.612207 
L 168.003117 297.184977 
L 171.481558 296.692019 
L 171.916364 296.461972 
L 172.351169 296.396244 
L 173.220779 296.100469 
L 176.264416 295.574648 
L 177.134026 295.311737 
L 181.047273 294.65446 
L 181.916883 294.457277 
L 182.786494 294.424413 
L 184.525714 293.997183 
L 184.960519 293.37277 
L 186.264935 292.846948 
L 187.569351 292.485446 
L 188.004156 292.255399 
L 188.873766 292.09108 
L 190.612987 291.565258 
L 191.482597 291.499531 
L 192.352208 291.269484 
L 194.091429 290.80939 
L 194.526234 290.776526 
L 195.395844 290.349296 
L 195.830649 290.283568 
L 196.265455 290.053521 
L 201.048312 289.231925 
L 202.787532 288.706103 
L 203.222338 288.410329 
L 205.396364 287.687324 
L 206.265974 287.062911 
L 207.57039 286.8 
L 217.136104 283.940845 
L 217.570909 283.907981 
L 218.875325 283.513615 
L 219.31013 283.513615 
L 219.744935 283.316432 
L 220.614545 283.21784 
L 221.049351 283.053521 
L 222.788571 282.987793 
L 223.658182 282.823474 
L 224.527792 282.36338 
L 225.832208 281.870423 
L 226.701818 281.410329 
L 227.571429 280.950235 
L 228.441039 280.65446 
L 228.875844 280.523005 
L 229.745455 279.964319 
L 230.18026 279.471362 
L 231.04987 278.09108 
L 231.484675 277.959624 
L 231.919481 277.959624 
L 233.223896 277.170892 
L 233.658701 276.940845 
L 234.093506 276.842254 
L 234.528312 276.415023 
L 235.397922 276.053521 
L 236.267532 275.626291 
L 238.441558 272.767136 
L 241.05039 271.321127 
L 241.92 270.598122 
L 242.354805 270.335211 
L 242.78961 269.710798 
L 243.224416 268.692019 
L 243.659221 268.001878 
L 244.094026 267.640376 
L 244.528831 267.443192 
L 248.007273 264.156808 
L 248.876883 263.335211 
L 251.485714 261.659155 
L 251.920519 261.494836 
L 253.65974 260.443192 
L 254.094545 260.246009 
L 256.268571 258.208451 
L 257.138182 257.846948 
L 258.007792 257.222535 
L 258.442597 256.959624 
L 258.877403 256.893897 
L 260.181818 256.138028 
L 260.616623 255.64507 
L 262.790649 254.429108 
L 263.225455 254.264789 
L 264.52987 253.344601 
L 271.051948 250.978404 
L 271.921558 250.156808 
L 273.225974 249.499531 
L 274.095584 248.940845 
L 274.965195 248.677934 
L 275.4 248.38216 
L 275.834805 248.250704 
L 277.139221 247.36338 
L 279.313247 246.870423 
L 280.617662 246.08169 
L 281.922078 245.785915 
L 282.356883 245.687324 
L 283.661299 244.668545 
L 285.400519 244.175587 
L 285.835325 243.814085 
L 288.444156 242.893897 
L 289.313766 242.729577 
L 290.183377 242.368075 
L 293.227013 241.21784 
L 294.096623 241.086385 
L 295.401039 240.626291 
L 297.575065 239.541784 
L 299.314286 238.555869 
L 302.792727 237.076995 
L 303.227532 237.011268 
L 304.097143 236.452582 
L 304.966753 236.222535 
L 306.271169 235.696714 
L 308.01039 235.466667 
L 308.88 235.006573 
L 309.314805 234.612207 
L 309.74961 233.823474 
L 311.488831 233.330516 
L 312.793247 232.640376 
L 313.662857 232.344601 
L 314.532468 231.884507 
L 317.141299 230.8 
L 318.010909 230.602817 
L 318.880519 230.142723 
L 319.315325 229.94554 
L 319.75013 229.879812 
L 321.924156 228.795305 
L 322.793766 228.23662 
L 324.098182 227.973709 
L 326.272208 227.415023 
L 326.707013 227.053521 
L 327.576623 226.757746 
L 329.750649 225.870423 
L 330.185455 225.541784 
L 330.62026 225.377465 
L 331.48987 224.884507 
L 333.229091 224.325822 
L 334.098701 223.767136 
L 334.533506 223.307042 
L 334.968312 223.044131 
L 335.403117 222.94554 
L 336.272727 222.222535 
L 336.707532 222.156808 
L 337.142338 221.433803 
L 337.577143 221.23662 
L 338.011948 220.875117 
L 338.446753 220.80939 
L 339.316364 220.250704 
L 340.185974 219.95493 
L 340.620779 219.626291 
L 341.055584 219.461972 
L 342.794805 218.278873 
L 344.099221 217.588732 
L 344.968831 217.358685 
L 345.838442 216.865728 
L 346.273247 216.109859 
L 347.142857 215.452582 
L 347.577662 215.353991 
L 350.186494 214.0723 
L 351.056104 213.710798 
L 351.925714 213.086385 
L 352.795325 212.199061 
L 356.708571 209.109859 
L 357.143377 208.748357 
L 358.012987 208.452582 
L 358.882597 207.861033 
L 360.187013 207.170892 
L 360.621818 207.105164 
L 361.926234 206.38216 
L 362.795844 205.823474 
L 367.143896 204.180282 
L 367.578701 203.818779 
L 369.317922 203.128638 
L 369.752727 202.997183 
L 370.622338 202.405634 
L 371.491948 202.044131 
L 372.361558 201.419718 
L 373.231169 199.64507 
L 374.100779 198.593427 
L 375.405195 197.903286 
L 376.274805 197.541784 
L 376.70961 197.476056 
L 377.144416 197.213146 
L 379.318442 196.490141 
L 379.753247 196.292958 
L 380.622857 195.701408 
L 381.927273 195.142723 
L 382.796883 194.649765 
L 383.666494 194.123944 
L 384.101299 193.828169 
L 384.536104 193.335211 
L 385.840519 192.579343 
L 386.275325 192.415023 
L 387.144935 191.889202 
L 388.884156 190.93615 
L 389.318961 190.837559 
L 389.753766 190.476056 
L 392.797403 189.457277 
L 393.232208 189.128638 
L 394.101818 188.865728 
L 394.971429 188.504225 
L 395.406234 188.142723 
L 397.145455 187.51831 
L 398.015065 186.893897 
L 398.884675 186.532394 
L 399.754286 185.842254 
L 400.623896 185.579343 
L 401.058701 185.184977 
L 401.493506 185.119249 
L 402.363117 184.429108 
L 403.232727 183.969014 
L 403.667532 183.771831 
L 404.102338 183.311737 
L 407.145974 182.062911 
L 408.015584 181.668545 
L 409.32 181.241315 
L 410.18961 181.109859 
L 410.624416 180.912676 
L 411.059221 180.846948 
L 411.928831 180.452582 
L 412.363636 180.419718 
L 414.102857 179.762441 
L 415.407273 178.80939 
L 415.842078 178.64507 
L 416.711688 178.152113 
L 417.146494 178.020657 
L 419.755325 176.541784 
L 420.19013 176.443192 
L 421.494545 175.65446 
L 422.798961 175.194366 
L 423.668571 174.898592 
L 425.407792 174.307042 
L 426.277403 174.011268 
L 428.016623 173.649765 
L 428.451429 173.452582 
L 429.321039 173.222535 
L 429.755844 173.025352 
L 430.190649 172.959624 
L 430.625455 172.729577 
L 431.495065 172.565258 
L 432.799481 172.0723 
L 433.669091 171.973709 
L 434.973506 171.677934 
L 437.147532 171.283568 
L 448.452468 167.865728 
L 448.887273 167.405634 
L 451.496104 166.321127 
L 453.235325 165.729577 
L 453.67013 165.466667 
L 454.974545 165.0723 
L 455.844156 164.842254 
L 456.278961 164.546479 
L 456.713766 164.447887 
L 457.148571 164.053521 
L 458.452987 163.79061 
L 459.322597 163.36338 
L 459.757403 162.837559 
L 461.496623 162.410329 
L 464.54026 161.753052 
L 464.975065 161.753052 
L 465.40987 161.555869 
L 467.149091 161.22723 
L 467.583896 161.030047 
L 469.323117 160.701408 
L 470.192727 160.339906 
L 471.062338 160.175587 
L 473.236364 159.616901 
L 474.975584 159.058216 
L 475.41039 158.959624 
L 475.845195 158.729577 
L 476.714805 158.499531 
L 477.584416 158.138028 
L 478.454026 157.80939 
L 478.888831 157.513615 
L 479.758442 157.250704 
L 482.802078 156.100469 
L 484.541299 155.870423 
L 488.01974 154.588732 
L 488.454545 154.260094 
L 488.889351 154.161502 
L 489.324156 153.931455 
L 489.758961 153.898592 
L 494.541818 152.156808 
L 496.715844 151.565258 
L 497.585455 151.138028 
L 498.88987 150.842254 
L 500.629091 149.396244 
L 502.368312 148.640376 
L 503.237922 148.246009 
L 505.846753 147.22723 
L 506.281558 146.931455 
L 508.455584 146.208451 
L 509.76 145.452582 
L 510.194805 145.353991 
L 511.934026 144.368075 
L 513.673247 143.579343 
L 514.108052 143.250704 
L 514.977662 142.95493 
L 517.151688 141.837559 
L 518.456104 141.377465 
L 520.195325 140.65446 
L 521.49974 140.161502 
L 521.934545 139.997183 
L 522.804156 139.865728 
L 523.238961 139.569953 
L 524.978182 139.208451 
L 525.847792 138.846948 
L 527.587013 138.025352 
L 533.674286 135.330516 
L 534.978701 134.903286 
L 535.413506 134.607512 
L 536.283117 134.50892 
L 536.717922 134.213146 
L 537.587532 134.048826 
L 538.457143 133.621596 
L 538.891948 133.424413 
L 539.761558 133.194366 
L 540.631169 132.931455 
L 541.935584 132.438498 
L 543.24 132.011268 
L 544.544416 131.715493 
L 546.283636 130.992488 
L 547.153247 130.499531 
L 548.892468 129.612207 
L 549.762078 129.415023 
L 550.196883 129.152113 
L 550.631688 129.053521 
L 551.936104 128.297653 
L 552.805714 127.93615 
L 562.371429 124.222535 
L 564.110649 123.400939 
L 568.458701 121.692019 
L 569.328312 121.264789 
L 569.763117 121.166197 
L 570.197922 120.93615 
L 571.937143 120.443192 
L 573.676364 118.997183 
L 574.111169 118.865728 
L 574.545974 118.602817 
L 575.85039 118.241315 
L 576.285195 117.912676 
L 576.72 117.814085 
L 578.024416 117.025352 
L 578.459221 116.729577 
L 579.763636 116.23662 
L 580.198442 116.006573 
L 581.502857 115.710798 
L 583.676883 114.95493 
L 584.546494 114.659155 
L 585.850909 114.001878 
L 586.720519 113.574648 
L 587.59013 113.344601 
L 588.894545 112.720188 
L 592.807792 111.241315 
L 594.112208 110.419718 
L 594.547013 110.321127 
L 595.416623 109.893897 
L 596.286234 109.565258 
L 596.721039 109.170892 
L 597.590649 108.80939 
L 598.895065 108.349296 
L 599.32987 107.987793 
L 599.764675 107.95493 
L 600.634286 107.692019 
L 601.503896 107.396244 
L 601.938701 107.199061 
L 602.373506 107.133333 
L 603.677922 106.640376 
L 604.982338 106.147418 
L 606.721558 105.358685 
L 607.591169 105.128638 
L 608.025974 104.865728 
L 608.895584 104.635681 
L 610.2 103.879812 
L 610.634805 103.846948 
L 611.939221 103.419718 
L 612.808831 103.353991 
L 613.243636 103.123944 
L 614.113247 102.893897 
L 614.548052 102.66385 
L 616.722078 102.23662 
L 617.591688 102.0723 
L 618.896104 101.579343 
L 620.200519 101.283568 
L 621.504935 100.593427 
L 621.93974 100.199061 
L 623.244156 99.410329 
L 623.678961 99.08169 
L 624.983377 98.65446 
L 625.852987 98.391549 
L 626.287792 98.161502 
L 626.722597 98.062911 
L 627.157403 97.701408 
L 629.766234 96.584038 
L 631.505455 96.123944 
L 632.375065 95.729577 
L 632.80987 95.499531 
L 633.679481 95.23662 
L 634.114286 94.973709 
L 634.983896 94.80939 
L 638.462338 93.297653 
L 638.897143 93.231925 
L 640.201558 92.377465 
L 640.636364 92.311737 
L 642.375584 91.621596 
L 644.114805 91.194366 
L 644.54961 91.128638 
L 644.984416 90.931455 
L 645.419221 90.898592 
L 646.288831 90.602817 
L 646.723636 90.569953 
L 648.028052 90.044131 
L 649.767273 89.551174 
L 650.636883 88.893897 
L 652.376104 87.907981 
L 652.810909 87.80939 
L 653.245714 87.579343 
L 654.115325 87.283568 
L 654.55013 87.152113 
L 654.984935 86.79061 
L 656.289351 86.297653 
L 657.158961 85.804695 
L 657.593766 85.574648 
L 658.028571 85.180282 
L 660.202597 84.588732 
L 661.507013 83.997183 
L 662.376623 83.767136 
L 662.811429 83.537089 
L 663.246234 83.175587 
L 664.985455 82.715493 
L 665.42026 82.386854 
L 671.072727 80.316432 
L 671.942338 80.152113 
L 674.116364 79.461972 
L 674.985974 79.100469 
L 675.855584 78.771831 
L 676.725195 78.541784 
L 677.16 78.344601 
L 677.594805 78.344601 
L 678.464416 77.983099 
L 679.334026 77.457277 
L 682.377662 76.438498 
L 684.116883 75.846948 
L 685.421299 75.551174 
L 686.725714 75.123944 
L 687.160519 75.025352 
L 687.595325 74.729577 
L 688.464935 74.532394 
L 690.204156 74.039437 
L 690.638961 74.006573 
L 691.508571 73.612207 
L 694.552208 72.856338 
L 695.421818 72.494836 
L 699.76987 71.50892 
L 701.074286 70.818779 
L 702.378701 70.424413 
L 706.726753 68.814085 
L 707.161558 68.485446 
L 708.465974 68.189671 
L 709.335584 67.926761 
L 710.205195 67.499531 
L 710.64 67.138028 
L 711.50961 66.875117 
L 711.944416 66.612207 
L 712.814026 66.513615 
L 715.857662 65.659155 
L 717.162078 65.396244 
L 719.770909 64.541784 
L 721.51013 63.720188 
L 726.292987 61.94554 
L 727.162597 61.814085 
L 728.032208 61.649765 
L 728.467013 61.649765 
L 730.206234 61.09108 
L 730.641039 61.025352 
L 731.510649 60.66385 
L 732.38026 60.433803 
L 734.989091 59.710798 
L 735.858701 59.480751 
L 736.293506 59.38216 
L 736.728312 59.119249 
L 737.597922 58.95493 
L 738.467532 58.856338 
L 738.902338 58.626291 
L 739.337143 58.593427 
L 740.206753 58.034742 
L 741.945974 57.640376 
L 742.815584 57.246009 
L 743.685195 56.950235 
L 744.554805 56.720188 
L 745.424416 56.325822 
L 746.294026 56.030047 
L 747.163636 55.8 
L 747.163636 55.8 
" clip-path="url(#p0512793790)" style="fill: none; stroke: #1f77b4; stroke-width: 1.5; stroke-linecap: square"/>
   </g>
   <g id="line2d_38">
    <path d="M 138.871169 307.8 
L 142.784416 307.701408 
L 146.262857 307.537089 
L 148.002078 307.537089 
L 148.436883 307.405634 
L 150.610909 307.307042 
L 153.21974 307.011268 
L 155.828571 306.912676 
L 156.698182 306.814085 
L 159.741818 306.682629 
L 162.785455 306.584038 
L 164.959481 306.51831 
L 170.611948 306.419718 
L 172.785974 306.353991 
L 176.699221 306.255399 
L 178.438442 306.222535 
L 182.786494 306.123944 
L 184.525714 305.959624 
L 186.264935 305.926761 
L 188.873766 305.828169 
L 190.612987 305.795305 
L 192.787013 305.729577 
L 194.526234 305.565258 
L 198.439481 305.466667 
L 199.309091 305.400939 
L 201.048312 305.302347 
L 203.657143 305.203756 
L 205.396364 305.105164 
L 213.222857 304.612207 
L 216.266494 304.513615 
L 217.570909 304.38216 
L 219.744935 304.283568 
L 224.092987 304.053521 
L 228.441039 303.987793 
L 230.18026 303.79061 
L 231.919481 303.692019 
L 236.702338 303.231925 
L 239.745974 302.870423 
L 241.05039 302.804695 
L 244.528831 302.344601 
L 247.137662 302.278873 
L 248.442078 302.147418 
L 249.746494 302.048826 
L 261.921039 301.095775 
L 262.790649 300.931455 
L 265.399481 300.832864 
L 272.356364 300.405634 
L 275.4 300.307042 
L 277.139221 300.109859 
L 279.313247 300.011268 
L 281.922078 299.912676 
L 284.096104 299.814085 
L 285.835325 299.781221 
L 288.009351 299.715493 
L 288.878961 299.584038 
L 294.966234 299.485446 
L 295.835844 299.386854 
L 301.053506 299.288263 
L 304.966753 299.09108 
L 308.01039 298.992488 
L 309.74961 298.795305 
L 312.793247 298.696714 
L 313.662857 298.532394 
L 315.836883 298.466667 
L 320.184935 298.400939 
L 321.924156 298.23662 
L 323.663377 298.203756 
L 324.967792 298.105164 
L 326.707013 297.940845 
L 331.055065 297.710798 
L 335.403117 297.612207 
L 339.316364 297.415023 
L 340.620779 297.38216 
L 341.49039 297.250704 
L 343.664416 297.152113 
L 344.534026 297.086385 
L 345.403636 297.020657 
L 346.273247 296.95493 
L 350.186494 296.889202 
L 351.490909 296.79061 
L 363.230649 296.001878 
L 365.404675 295.903286 
L 367.578701 295.837559 
L 373.665974 295.738967 
L 374.535584 295.607512 
L 380.622857 295.50892 
L 384.970909 295.278873 
L 385.840519 295.246009 
L 386.71013 295.147418 
L 388.884156 295.048826 
L 391.058182 294.983099 
L 393.232208 294.884507 
L 395.406234 294.818779 
L 399.319481 294.720188 
L 401.928312 294.621596 
L 408.015584 294.523005 
L 412.798442 294.260094 
L 414.537662 294.194366 
L 415.842078 294.095775 
L 421.929351 293.997183 
L 424.538182 293.898592 
L 432.364675 293.8 
L 434.103896 293.767136 
L 439.321558 293.701408 
L 440.191169 293.635681 
L 446.278442 293.537089 
L 448.017662 293.504225 
L 459.322597 293.405634 
L 461.931429 293.307042 
L 480.193247 293.208451 
L 482.367273 293.142723 
L 493.672208 293.076995 
L 494.541818 293.011268 
L 496.715844 292.94554 
L 498.02026 292.814085 
L 500.629091 292.715493 
L 503.672727 292.584038 
L 507.585974 292.485446 
L 509.76 292.419718 
L 512.803636 292.321127 
L 516.282078 292.156808 
L 518.456104 292.058216 
L 520.195325 292.025352 
L 524.108571 291.926761 
L 525.847792 291.893897 
L 531.50026 291.795305 
L 533.239481 291.762441 
L 535.413506 291.66385 
L 538.022338 291.565258 
L 541.065974 291.499531 
L 541.935584 291.433803 
L 552.370909 291.335211 
L 558.023377 291.006573 
L 560.197403 290.940845 
L 561.067013 290.842254 
L 561.936623 290.776526 
L 565.415065 290.677934 
L 568.023896 290.579343 
L 572.371948 290.480751 
L 574.545974 290.250704 
L 578.894026 290.152113 
L 579.763636 290.053521 
L 584.111688 289.95493 
L 586.285714 289.889202 
L 591.068571 289.856338 
L 591.938182 289.757746 
L 596.721039 289.659155 
L 597.590649 289.593427 
L 607.156364 289.494836 
L 609.765195 289.396244 
L 616.287273 289.297653 
L 618.026494 289.264789 
L 621.93974 289.199061 
L 622.809351 289.100469 
L 628.461818 289.001878 
L 630.635844 288.93615 
L 638.462338 288.837559 
L 639.766753 288.738967 
L 641.071169 288.640376 
L 642.375584 288.541784 
L 648.897662 288.443192 
L 651.506494 288.344601 
L 663.246234 288.246009 
L 667.159481 288.048826 
L 672.377143 287.950235 
L 673.246753 287.884507 
L 679.768831 287.818779 
L 680.638442 287.753052 
L 685.421299 287.65446 
L 687.160519 287.621596 
L 693.247792 287.523005 
L 695.856623 287.424413 
L 703.248312 287.325822 
L 704.987532 287.292958 
L 708.900779 287.194366 
L 712.379221 287.030047 
L 717.162078 286.931455 
L 720.205714 286.8 
L 724.118961 286.701408 
L 724.988571 286.635681 
L 733.684675 286.537089 
L 735.858701 286.471362 
L 738.467532 286.37277 
L 741.076364 286.274178 
L 747.163636 286.208451 
L 747.163636 286.208451 
" clip-path="url(#p0512793790)" style="fill: none; stroke: #ff7f0e; stroke-width: 1.5; stroke-linecap: square"/>
   </g>
   <g id="patch_3">
    <path d="M 108 320.4 
L 108 43.2 
" style="fill: none; stroke: #a9a9a9; stroke-width: 0.8; stroke-linejoin: miter; stroke-linecap: square"/>
   </g>
   <g id="patch_4">
    <path d="M 777.6 320.4 
L 777.6 43.2 
" style="fill: none"/>
   </g>
   <g id="patch_5">
    <path d="M 108 320.4 
L 777.6 320.4 
" style="fill: none; stroke: #a9a9a9; stroke-width: 0.8; stroke-linejoin: miter; stroke-linecap: square"/>
   </g>
   <g id="patch_6">
    <path d="M 108 43.2 
L 777.6 43.2 
" style="fill: none"/>
   </g>
   <g id="text_19">
    <!-- get_subscribe history -->
    <g style="fill: #a9a9a9" transform="translate(378.6075 37.2) scale(0.12 -0.12)">
     <defs>
      <path id="DejaVuSans-67" d="M 2906 1791 
Q 2906 2416 2648 2759 
Q 2391 3103 1925 3103 
Q 1463 3103 1205 2759 
Q 947 2416 947 1791 
Q 947 1169 1205 825 
Q 1463 481 1925 481 
Q 2391 481 2648 825 
Q 2906 1169 2906 1791 
z
M 3481 434 
Q 3481 -459 3084 -895 
Q 2688 -1331 1869 -1331 
Q 1566 -1331 1297 -1286 
Q 1028 -1241 775 -1147 
L 775 -588 
Q 1028 -725 1275 -790 
Q 1522 -856 1778 -856 
Q 2344 -856 2625 -561 
Q 2906 -266 2906 331 
L 2906 616 
Q 2728 306 2450 153 
Q 2172 0 1784 0 
Q 1141 0 747 490 
Q 353 981 353 1791 
Q 353 2603 747 3093 
Q 1141 3584 1784 3584 
Q 2172 3584 2450 3431 
Q 2728 3278 2906 2969 
L 2906 3500 
L 3481 3500 
L 3481 434 
z
" transform="scale(0.015625)"/>
      <path id="DejaVuSans-65" d="M 3597 1894 
L 3597 1613 
L 953 1613 
Q 991 1019 1311 708 
Q 1631 397 2203 397 
Q 2534 397 2845 478 
Q 3156 559 3463 722 
L 3463 178 
Q 3153 47 2828 -22 
Q 2503 -91 2169 -91 
Q 1331 -91 842 396 
Q 353 884 353 1716 
Q 353 2575 817 3079 
Q 1281 3584 2069 3584 
Q 2775 3584 3186 3129 
Q 3597 2675 3597 1894 
z
M 3022 2063 
Q 3016 2534 2758 2815 
Q 2500 3097 2075 3097 
Q 1594 3097 1305 2825 
Q 1016 2553 972 2059 
L 3022 2063 
z
" transform="scale(0.015625)"/>
      <path id="DejaVuSans-74" d="M 1172 4494 
L 1172 3500 
L 2356 3500 
L 2356 3053 
L 1172 3053 
L 1172 1153 
Q 1172 725 1289 603 
Q 1406 481 1766 481 
L 2356 481 
L 2356 0 
L 1766 0 
Q 1100 0 847 248 
Q 594 497 594 1153 
L 594 3053 
L 172 3053 
L 172 3500 
L 594 3500 
L 594 4494 
L 1172 4494 
z
" transform="scale(0.015625)"/>
      <path id="DejaVuSans-5f" d="M 3263 -1063 
L 3263 -1509 
L -63 -1509 
L -63 -1063 
L 3263 -1063 
z
" transform="scale(0.015625)"/>
      <path id="DejaVuSans-73" d="M 2834 3397 
L 2834 2853 
Q 2591 2978 2328 3040 
Q 2066 3103 1784 3103 
Q 1356 3103 1142 2972 
Q 928 2841 928 2578 
Q 928 2378 1081 2264 
Q 1234 2150 1697 2047 
L 1894 2003 
Q 2506 1872 2764 1633 
Q 3022 1394 3022 966 
Q 3022 478 2636 193 
Q 2250 -91 1575 -91 
Q 1294 -91 989 -36 
Q 684 19 347 128 
L 347 722 
Q 666 556 975 473 
Q 1284 391 1588 391 
Q 1994 391 2212 530 
Q 2431 669 2431 922 
Q 2431 1156 2273 1281 
Q 2116 1406 1581 1522 
L 1381 1569 
Q 847 1681 609 1914 
Q 372 2147 372 2553 
Q 372 3047 722 3315 
Q 1072 3584 1716 3584 
Q 2034 3584 2315 3537 
Q 2597 3491 2834 3397 
z
" transform="scale(0.015625)"/>
      <path id="DejaVuSans-75" d="M 544 1381 
L 544 3500 
L 1119 3500 
L 1119 1403 
Q 1119 906 1312 657 
Q 1506 409 1894 409 
Q 2359 409 2629 706 
Q 2900 1003 2900 1516 
L 2900 3500 
L 3475 3500 
L 3475 0 
L 2900 0 
L 2900 538 
Q 2691 219 2414 64 
Q 2138 -91 1772 -91 
Q 1169 -91 856 284 
Q 544 659 544 1381 
z
M 1991 3584 
L 1991 3584 
z
" transform="scale(0.015625)"/>
      <path id="DejaVuSans-62" d="M 3116 1747 
Q 3116 2381 2855 2742 
Q 2594 3103 2138 3103 
Q 1681 3103 1420 2742 
Q 1159 2381 1159 1747 
Q 1159 1113 1420 752 
Q 1681 391 2138 391 
Q 2594 391 2855 752 
Q 3116 1113 3116 1747 
z
M 1159 2969 
Q 1341 3281 1617 3432 
Q 1894 3584 2278 3584 
Q 2916 3584 3314 3078 
Q 3713 2572 3713 1747 
Q 3713 922 3314 415 
Q 2916 -91 2278 -91 
Q 1894 -91 1617 61 
Q 1341 213 1159 525 
L 1159 0 
L 581 0 
L 581 4863 
L 1159 4863 
L 1159 2969 
z
" transform="scale(0.015625)"/>
      <path id="DejaVuSans-63" d="M 3122 3366 
L 3122 2828 
Q 2878 2963 2633 3030 
Q 2388 3097 2138 3097 
Q 1578 3097 1268 2742 
Q 959 2388 959 1747 
Q 959 1106 1268 751 
Q 1578 397 2138 397 
Q 2388 397 2633 464 
Q 2878 531 3122 666 
L 3122 134 
Q 2881 22 2623 -34 
Q 2366 -91 2075 -91 
Q 1284 -91 818 406 
Q 353 903 353 1747 
Q 353 2603 823 3093 
Q 1294 3584 2113 3584 
Q 2378 3584 2631 3529 
Q 2884 3475 3122 3366 
z
" transform="scale(0.015625)"/>
      <path id="DejaVuSans-72" d="M 2631 2963 
Q 2534 3019 2420 3045 
Q 2306 3072 2169 3072 
Q 1681 3072 1420 2755 
Q 1159 2438 1159 1844 
L 1159 0 
L 581 0 
L 581 3500 
L 1159 3500 
L 1159 2956 
Q 1341 3275 1631 3429 
Q 1922 3584 2338 3584 
Q 2397 3584 2469 3576 
Q 2541 3569 2628 3553 
L 2631 2963 
z
" transform="scale(0.015625)"/>
      <path id="DejaVuSans-69" d="M 603 3500 
L 1178 3500 
L 1178 0 
L 603 0 
L 603 3500 
z
M 603 4863 
L 1178 4863 
L 1178 4134 
L 603 4134 
L 603 4863 
z
" transform="scale(0.015625)"/>
      <path id="DejaVuSans-20" transform="scale(0.015625)"/>
      <path id="DejaVuSans-68" d="M 3513 2113 
L 3513 0 
L 2938 0 
L 2938 2094 
Q 2938 2591 2744 2837 
Q 2550 3084 2163 3084 
Q 1697 3084 1428 2787 
Q 1159 2491 1159 1978 
L 1159 0 
L 581 0 
L 581 4863 
L 1159 4863 
L 1159 2956 
Q 1366 3272 1645 3428 
Q 1925 3584 2291 3584 
Q 2894 3584 3203 3211 
Q 3513 2838 3513 2113 
z
" transform="scale(0.015625)"/>
      <path id="DejaVuSans-6f" d="M 1959 3097 
Q 1497 3097 1228 2736 
Q 959 2375 959 1747 
Q 959 1119 1226 758 
Q 1494 397 1959 397 
Q 2419 397 2687 759 
Q 2956 1122 2956 1747 
Q 2956 2369 2687 2733 
Q 2419 3097 1959 3097 
z
M 1959 3584 
Q 2709 3584 3137 3096 
Q 3566 2609 3566 1747 
Q 3566 888 3137 398 
Q 2709 -91 1959 -91 
Q 1206 -91 779 398 
Q 353 888 353 1747 
Q 353 2609 779 3096 
Q 1206 3584 1959 3584 
z
" transform="scale(0.015625)"/>
      <path id="DejaVuSans-79" d="M 2059 -325 
Q 1816 -950 1584 -1140 
Q 1353 -1331 966 -1331 
L 506 -1331 
L 506 -850 
L 844 -850 
Q 1081 -850 1212 -737 
Q 1344 -625 1503 -206 
L 1606 56 
L 191 3500 
L 800 3500 
L 1894 763 
L 2988 3500 
L 3597 3500 
L 2059 -325 
z
" transform="scale(0.015625)"/>
     </defs>
     <use xlink:href="#DejaVuSans-67"/>
     <use xlink:href="#DejaVuSans-65" transform="translate(63.476562 0)"/>
     <use xlink:href="#DejaVuSans-74" transform="translate(125 0)"/>
     <use xlink:href="#DejaVuSans-5f" transform="translate(164.208984 0)"/>
     <use xlink:href="#DejaVuSans-73" transform="translate(214.208984 0)"/>
     <use xlink:href="#DejaVuSans-75" transform="translate(266.308594 0)"/>
     <use xlink:href="#DejaVuSans-62" transform="translate(329.6875 0)"/>
     <use xlink:href="#DejaVuSans-73" transform="translate(393.164062 0)"/>
     <use xlink:href="#DejaVuSans-63" transform="translate(445.263672 0)"/>
     <use xlink:href="#DejaVuSans-72" transform="translate(500.244141 0)"/>
     <use xlink:href="#DejaVuSans-69" transform="translate(541.357422 0)"/>
     <use xlink:href="#DejaVuSans-62" transform="translate(569.140625 0)"/>
     <use xlink:href="#DejaVuSans-65" transform="translate(632.617188 0)"/>
     <use xlink:href="#DejaVuSans-20" transform="translate(694.140625 0)"/>
     <use xlink:href="#DejaVuSans-68" transform="translate(725.927734 0)"/>
     <use xlink:href="#DejaVuSans-69" transform="translate(789.306641 0)"/>
     <use xlink:href="#DejaVuSans-73" transform="translate(817.089844 0)"/>
     <use xlink:href="#DejaVuSans-74" transform="translate(869.189453 0)"/>
     <use xlink:href="#DejaVuSans-6f" transform="translate(908.398438 0)"/>
     <use xlink:href="#DejaVuSans-72" transform="translate(969.580078 0)"/>
     <use xlink:href="#DejaVuSans-79" transform="translate(1010.693359 0)"/>
    </g>
   </g>
   <g id="legend_1">
    <g id="line2d_39">
     <path d="M 815.08 328.498438 
L 825.08 328.498438 
L 835.08 328.498438 
" style="fill: none; stroke: #1f77b4; stroke-width: 1.5; stroke-linecap: square"/>
    </g>
    <g id="text_20">
     <!-- star -->
     <g style="fill: #a9a9a9" transform="translate(843.08 331.998438) scale(0.1 -0.1)">
      <defs>
       <path id="DejaVuSans-61" d="M 2194 1759 
Q 1497 1759 1228 1600 
Q 959 1441 959 1056 
Q 959 750 1161 570 
Q 1363 391 1709 391 
Q 2188 391 2477 730 
Q 2766 1069 2766 1631 
L 2766 1759 
L 2194 1759 
z
M 3341 1997 
L 3341 0 
L 2766 0 
L 2766 531 
Q 2569 213 2275 61 
Q 1981 -91 1556 -91 
Q 1019 -91 701 211 
Q 384 513 384 1019 
Q 384 1609 779 1909 
Q 1175 2209 1959 2209 
L 2766 2209 
L 2766 2266 
Q 2766 2663 2505 2880 
Q 2244 3097 1772 3097 
Q 1472 3097 1187 3025 
Q 903 2953 641 2809 
L 641 3341 
Q 956 3463 1253 3523 
Q 1550 3584 1831 3584 
Q 2591 3584 2966 3190 
Q 3341 2797 3341 1997 
z
" transform="scale(0.015625)"/>
      </defs>
      <use xlink:href="#DejaVuSans-73"/>
      <use xlink:href="#DejaVuSans-74" transform="translate(52.099609 0)"/>
      <use xlink:href="#DejaVuSans-61" transform="translate(91.308594 0)"/>
      <use xlink:href="#DejaVuSans-72" transform="translate(152.587891 0)"/>
     </g>
    </g>
    <g id="line2d_40">
     <path d="M 815.08 343.176562 
L 825.08 343.176562 
L 835.08 343.176562 
" style="fill: none; stroke: #ff7f0e; stroke-width: 1.5; stroke-linecap: square"/>
    </g>
    <g id="text_21">
     <!-- fork -->
     <g style="fill: #a9a9a9" transform="translate(843.08 346.676562) scale(0.1 -0.1)">
      <defs>
       <path id="DejaVuSans-66" d="M 2375 4863 
L 2375 4384 
L 1825 4384 
Q 1516 4384 1395 4259 
Q 1275 4134 1275 3809 
L 1275 3500 
L 2222 3500 
L 2222 3053 
L 1275 3053 
L 1275 0 
L 697 0 
L 697 3053 
L 147 3053 
L 147 3500 
L 697 3500 
L 697 3744 
Q 697 4328 969 4595 
Q 1241 4863 1831 4863 
L 2375 4863 
z
" transform="scale(0.015625)"/>
       <path id="DejaVuSans-6b" d="M 581 4863 
L 1159 4863 
L 1159 1991 
L 2875 3500 
L 3609 3500 
L 1753 1863 
L 3688 0 
L 2938 0 
L 1159 1709 
L 1159 0 
L 581 0 
L 581 4863 
z
" transform="scale(0.015625)"/>
      </defs>
      <use xlink:href="#DejaVuSans-66"/>
      <use xlink:href="#DejaVuSans-6f" transform="translate(35.205078 0)"/>
      <use xlink:href="#DejaVuSans-72" transform="translate(96.386719 0)"/>
      <use xlink:href="#DejaVuSans-6b" transform="translate(137.5 0)"/>
     </g>
    </g>
   </g>
  </g>
 </g>
 <defs>
  <clipPath id="p0512793790">
   <rect x="108" y="43.2" width="669.6" height="277.2"/>
  </clipPath>
 </defs>
</svg>
