<?xml version="1.0" encoding="utf-8" standalone="no"?>
<!DOCTYPE svg PUBLIC "-//W3C//DTD SVG 1.1//EN"
  "http://www.w3.org/Graphics/SVG/1.1/DTD/svg11.dtd">
<svg xmlns:xlink="http://www.w3.org/1999/xlink" width="864pt" height="360pt" viewBox="0 0 864 360" xmlns="http://www.w3.org/2000/svg" version="1.1">
 <metadata>
  <rdf:RDF xmlns:dc="http://purl.org/dc/elements/1.1/" xmlns:cc="http://creativecommons.org/ns#" xmlns:rdf="http://www.w3.org/1999/02/22-rdf-syntax-ns#">
   <cc:Work>
    <dc:type rdf:resource="http://purl.org/dc/dcmitype/StillImage"/>
    <dc:date>2025-06-24T08:16:47.081898</dc:date>
    <dc:format>image/svg+xml</dc:format>
    <dc:creator>
     <cc:Agent>
      <dc:title>Matplotlib v3.10.3, https://matplotlib.org/</dc:title>
     </cc:Agent>
    </dc:creator>
   </cc:Work>
  </rdf:RDF>
 </metadata>
 <defs>
  <style type="text/css">*{stroke-linejoin: round; stroke-linecap: butt}</style>
 </defs>
 <g id="figure_1">
  <g id="patch_1">
   <path d="M 0 360 
L 864 360 
L 864 0 
L 0 0 
L 0 360 
z
" style="fill: none; opacity: 0"/>
  </g>
  <g id="axes_1">
   <g id="patch_2">
    <path d="M 108 320.4 
L 777.6 320.4 
L 777.6 43.2 
L 108 43.2 
L 108 320.4 
z
" style="fill: none; opacity: 0"/>
   </g>
   <g id="matplotlib.axis_1">
    <g id="xtick_1">
     <g id="line2d_1">
      <path d="M 128.652487 320.4 
L 128.652487 43.2 
" clip-path="url(#p78a27f17d4)" style="fill: none; stroke-dasharray: 5.12,1.28,0.8,1.28; stroke-dashoffset: 0; stroke: #b0b0b0; stroke-width: 0.8"/>
     </g>
     <g id="line2d_2">
      <defs>
       <path id="m2938d402ce" d="M 0 0 
L 0 3.5 
" style="stroke: #a9a9a9; stroke-width: 0.8"/>
      </defs>
      <g>
       <use xlink:href="#m2938d402ce" x="128.652487" y="320.4" style="fill: #a9a9a9; stroke: #a9a9a9; stroke-width: 0.8"/>
      </g>
     </g>
     <g id="text_1">
      <!-- 2021-07 -->
      <g style="fill: #a9a9a9" transform="translate(107.761081 334.998438) scale(0.1 -0.1)">
       <defs>
        <path id="DejaVuSans-32" d="M 1228 531 
L 3431 531 
L 3431 0 
L 469 0 
L 469 531 
Q 828 903 1448 1529 
Q 2069 2156 2228 2338 
Q 2531 2678 2651 2914 
Q 2772 3150 2772 3378 
Q 2772 3750 2511 3984 
Q 2250 4219 1831 4219 
Q 1534 4219 1204 4116 
Q 875 4013 500 3803 
L 500 4441 
Q 881 4594 1212 4672 
Q 1544 4750 1819 4750 
Q 2544 4750 2975 4387 
Q 3406 4025 3406 3419 
Q 3406 3131 3298 2873 
Q 3191 2616 2906 2266 
Q 2828 2175 2409 1742 
Q 1991 1309 1228 531 
z
" transform="scale(0.015625)"/>
        <path id="DejaVuSans-30" d="M 2034 4250 
Q 1547 4250 1301 3770 
Q 1056 3291 1056 2328 
Q 1056 1369 1301 889 
Q 1547 409 2034 409 
Q 2525 409 2770 889 
Q 3016 1369 3016 2328 
Q 3016 3291 2770 3770 
Q 2525 4250 2034 4250 
z
M 2034 4750 
Q 2819 4750 3233 4129 
Q 3647 3509 3647 2328 
Q 3647 1150 3233 529 
Q 2819 -91 2034 -91 
Q 1250 -91 836 529 
Q 422 1150 422 2328 
Q 422 3509 836 4129 
Q 1250 4750 2034 4750 
z
" transform="scale(0.015625)"/>
        <path id="DejaVuSans-31" d="M 794 531 
L 1825 531 
L 1825 4091 
L 703 3866 
L 703 4441 
L 1819 4666 
L 2450 4666 
L 2450 531 
L 3481 531 
L 3481 0 
L 794 0 
L 794 531 
z
" transform="scale(0.015625)"/>
        <path id="DejaVuSans-2d" d="M 313 2009 
L 1997 2009 
L 1997 1497 
L 313 1497 
L 313 2009 
z
" transform="scale(0.015625)"/>
        <path id="DejaVuSans-37" d="M 525 4666 
L 3525 4666 
L 3525 4397 
L 1831 0 
L 1172 0 
L 2766 4134 
L 525 4134 
L 525 4666 
z
" transform="scale(0.015625)"/>
       </defs>
       <use xlink:href="#DejaVuSans-32"/>
       <use xlink:href="#DejaVuSans-30" transform="translate(63.623047 0)"/>
       <use xlink:href="#DejaVuSans-32" transform="translate(127.246094 0)"/>
       <use xlink:href="#DejaVuSans-31" transform="translate(190.869141 0)"/>
       <use xlink:href="#DejaVuSans-2d" transform="translate(254.492188 0)"/>
       <use xlink:href="#DejaVuSans-30" transform="translate(290.576172 0)"/>
       <use xlink:href="#DejaVuSans-37" transform="translate(354.199219 0)"/>
      </g>
     </g>
    </g>
    <g id="xtick_2">
     <g id="line2d_3">
      <path d="M 206.923499 320.4 
L 206.923499 43.2 
" clip-path="url(#p78a27f17d4)" style="fill: none; stroke-dasharray: 5.12,1.28,0.8,1.28; stroke-dashoffset: 0; stroke: #b0b0b0; stroke-width: 0.8"/>
     </g>
     <g id="line2d_4">
      <g>
       <use xlink:href="#m2938d402ce" x="206.923499" y="320.4" style="fill: #a9a9a9; stroke: #a9a9a9; stroke-width: 0.8"/>
      </g>
     </g>
     <g id="text_2">
      <!-- 2022-01 -->
      <g style="fill: #a9a9a9" transform="translate(186.032093 334.998438) scale(0.1 -0.1)">
       <use xlink:href="#DejaVuSans-32"/>
       <use xlink:href="#DejaVuSans-30" transform="translate(63.623047 0)"/>
       <use xlink:href="#DejaVuSans-32" transform="translate(127.246094 0)"/>
       <use xlink:href="#DejaVuSans-32" transform="translate(190.869141 0)"/>
       <use xlink:href="#DejaVuSans-2d" transform="translate(254.492188 0)"/>
       <use xlink:href="#DejaVuSans-30" transform="translate(290.576172 0)"/>
       <use xlink:href="#DejaVuSans-31" transform="translate(354.199219 0)"/>
      </g>
     </g>
    </g>
    <g id="xtick_3">
     <g id="line2d_5">
      <path d="M 283.918353 320.4 
L 283.918353 43.2 
" clip-path="url(#p78a27f17d4)" style="fill: none; stroke-dasharray: 5.12,1.28,0.8,1.28; stroke-dashoffset: 0; stroke: #b0b0b0; stroke-width: 0.8"/>
     </g>
     <g id="line2d_6">
      <g>
       <use xlink:href="#m2938d402ce" x="283.918353" y="320.4" style="fill: #a9a9a9; stroke: #a9a9a9; stroke-width: 0.8"/>
      </g>
     </g>
     <g id="text_3">
      <!-- 2022-07 -->
      <g style="fill: #a9a9a9" transform="translate(263.026947 334.998438) scale(0.1 -0.1)">
       <use xlink:href="#DejaVuSans-32"/>
       <use xlink:href="#DejaVuSans-30" transform="translate(63.623047 0)"/>
       <use xlink:href="#DejaVuSans-32" transform="translate(127.246094 0)"/>
       <use xlink:href="#DejaVuSans-32" transform="translate(190.869141 0)"/>
       <use xlink:href="#DejaVuSans-2d" transform="translate(254.492188 0)"/>
       <use xlink:href="#DejaVuSans-30" transform="translate(290.576172 0)"/>
       <use xlink:href="#DejaVuSans-37" transform="translate(354.199219 0)"/>
      </g>
     </g>
    </g>
    <g id="xtick_4">
     <g id="line2d_7">
      <path d="M 362.189365 320.4 
L 362.189365 43.2 
" clip-path="url(#p78a27f17d4)" style="fill: none; stroke-dasharray: 5.12,1.28,0.8,1.28; stroke-dashoffset: 0; stroke: #b0b0b0; stroke-width: 0.8"/>
     </g>
     <g id="line2d_8">
      <g>
       <use xlink:href="#m2938d402ce" x="362.189365" y="320.4" style="fill: #a9a9a9; stroke: #a9a9a9; stroke-width: 0.8"/>
      </g>
     </g>
     <g id="text_4">
      <!-- 2023-01 -->
      <g style="fill: #a9a9a9" transform="translate(341.297959 334.998438) scale(0.1 -0.1)">
       <defs>
        <path id="DejaVuSans-33" d="M 2597 2516 
Q 3050 2419 3304 2112 
Q 3559 1806 3559 1356 
Q 3559 666 3084 287 
Q 2609 -91 1734 -91 
Q 1441 -91 1130 -33 
Q 819 25 488 141 
L 488 750 
Q 750 597 1062 519 
Q 1375 441 1716 441 
Q 2309 441 2620 675 
Q 2931 909 2931 1356 
Q 2931 1769 2642 2001 
Q 2353 2234 1838 2234 
L 1294 2234 
L 1294 2753 
L 1863 2753 
Q 2328 2753 2575 2939 
Q 2822 3125 2822 3475 
Q 2822 3834 2567 4026 
Q 2313 4219 1838 4219 
Q 1578 4219 1281 4162 
Q 984 4106 628 3988 
L 628 4550 
Q 988 4650 1302 4700 
Q 1616 4750 1894 4750 
Q 2613 4750 3031 4423 
Q 3450 4097 3450 3541 
Q 3450 3153 3228 2886 
Q 3006 2619 2597 2516 
z
" transform="scale(0.015625)"/>
       </defs>
       <use xlink:href="#DejaVuSans-32"/>
       <use xlink:href="#DejaVuSans-30" transform="translate(63.623047 0)"/>
       <use xlink:href="#DejaVuSans-32" transform="translate(127.246094 0)"/>
       <use xlink:href="#DejaVuSans-33" transform="translate(190.869141 0)"/>
       <use xlink:href="#DejaVuSans-2d" transform="translate(254.492188 0)"/>
       <use xlink:href="#DejaVuSans-30" transform="translate(290.576172 0)"/>
       <use xlink:href="#DejaVuSans-31" transform="translate(354.199219 0)"/>
      </g>
     </g>
    </g>
    <g id="xtick_5">
     <g id="line2d_9">
      <path d="M 439.18422 320.4 
L 439.18422 43.2 
" clip-path="url(#p78a27f17d4)" style="fill: none; stroke-dasharray: 5.12,1.28,0.8,1.28; stroke-dashoffset: 0; stroke: #b0b0b0; stroke-width: 0.8"/>
     </g>
     <g id="line2d_10">
      <g>
       <use xlink:href="#m2938d402ce" x="439.18422" y="320.4" style="fill: #a9a9a9; stroke: #a9a9a9; stroke-width: 0.8"/>
      </g>
     </g>
     <g id="text_5">
      <!-- 2023-07 -->
      <g style="fill: #a9a9a9" transform="translate(418.292813 334.998438) scale(0.1 -0.1)">
       <use xlink:href="#DejaVuSans-32"/>
       <use xlink:href="#DejaVuSans-30" transform="translate(63.623047 0)"/>
       <use xlink:href="#DejaVuSans-32" transform="translate(127.246094 0)"/>
       <use xlink:href="#DejaVuSans-33" transform="translate(190.869141 0)"/>
       <use xlink:href="#DejaVuSans-2d" transform="translate(254.492188 0)"/>
       <use xlink:href="#DejaVuSans-30" transform="translate(290.576172 0)"/>
       <use xlink:href="#DejaVuSans-37" transform="translate(354.199219 0)"/>
      </g>
     </g>
    </g>
    <g id="xtick_6">
     <g id="line2d_11">
      <path d="M 517.455232 320.4 
L 517.455232 43.2 
" clip-path="url(#p78a27f17d4)" style="fill: none; stroke-dasharray: 5.12,1.28,0.8,1.28; stroke-dashoffset: 0; stroke: #b0b0b0; stroke-width: 0.8"/>
     </g>
     <g id="line2d_12">
      <g>
       <use xlink:href="#m2938d402ce" x="517.455232" y="320.4" style="fill: #a9a9a9; stroke: #a9a9a9; stroke-width: 0.8"/>
      </g>
     </g>
     <g id="text_6">
      <!-- 2024-01 -->
      <g style="fill: #a9a9a9" transform="translate(496.563825 334.998438) scale(0.1 -0.1)">
       <defs>
        <path id="DejaVuSans-34" d="M 2419 4116 
L 825 1625 
L 2419 1625 
L 2419 4116 
z
M 2253 4666 
L 3047 4666 
L 3047 1625 
L 3713 1625 
L 3713 1100 
L 3047 1100 
L 3047 0 
L 2419 0 
L 2419 1100 
L 313 1100 
L 313 1709 
L 2253 4666 
z
" transform="scale(0.015625)"/>
       </defs>
       <use xlink:href="#DejaVuSans-32"/>
       <use xlink:href="#DejaVuSans-30" transform="translate(63.623047 0)"/>
       <use xlink:href="#DejaVuSans-32" transform="translate(127.246094 0)"/>
       <use xlink:href="#DejaVuSans-34" transform="translate(190.869141 0)"/>
       <use xlink:href="#DejaVuSans-2d" transform="translate(254.492188 0)"/>
       <use xlink:href="#DejaVuSans-30" transform="translate(290.576172 0)"/>
       <use xlink:href="#DejaVuSans-31" transform="translate(354.199219 0)"/>
      </g>
     </g>
    </g>
    <g id="xtick_7">
     <g id="line2d_13">
      <path d="M 594.875472 320.4 
L 594.875472 43.2 
" clip-path="url(#p78a27f17d4)" style="fill: none; stroke-dasharray: 5.12,1.28,0.8,1.28; stroke-dashoffset: 0; stroke: #b0b0b0; stroke-width: 0.8"/>
     </g>
     <g id="line2d_14">
      <g>
       <use xlink:href="#m2938d402ce" x="594.875472" y="320.4" style="fill: #a9a9a9; stroke: #a9a9a9; stroke-width: 0.8"/>
      </g>
     </g>
     <g id="text_7">
      <!-- 2024-07 -->
      <g style="fill: #a9a9a9" transform="translate(573.984065 334.998438) scale(0.1 -0.1)">
       <use xlink:href="#DejaVuSans-32"/>
       <use xlink:href="#DejaVuSans-30" transform="translate(63.623047 0)"/>
       <use xlink:href="#DejaVuSans-32" transform="translate(127.246094 0)"/>
       <use xlink:href="#DejaVuSans-34" transform="translate(190.869141 0)"/>
       <use xlink:href="#DejaVuSans-2d" transform="translate(254.492188 0)"/>
       <use xlink:href="#DejaVuSans-30" transform="translate(290.576172 0)"/>
       <use xlink:href="#DejaVuSans-37" transform="translate(354.199219 0)"/>
      </g>
     </g>
    </g>
    <g id="xtick_8">
     <g id="line2d_15">
      <path d="M 673.146484 320.4 
L 673.146484 43.2 
" clip-path="url(#p78a27f17d4)" style="fill: none; stroke-dasharray: 5.12,1.28,0.8,1.28; stroke-dashoffset: 0; stroke: #b0b0b0; stroke-width: 0.8"/>
     </g>
     <g id="line2d_16">
      <g>
       <use xlink:href="#m2938d402ce" x="673.146484" y="320.4" style="fill: #a9a9a9; stroke: #a9a9a9; stroke-width: 0.8"/>
      </g>
     </g>
     <g id="text_8">
      <!-- 2025-01 -->
      <g style="fill: #a9a9a9" transform="translate(652.255077 334.998438) scale(0.1 -0.1)">
       <defs>
        <path id="DejaVuSans-35" d="M 691 4666 
L 3169 4666 
L 3169 4134 
L 1269 4134 
L 1269 2991 
Q 1406 3038 1543 3061 
Q 1681 3084 1819 3084 
Q 2600 3084 3056 2656 
Q 3513 2228 3513 1497 
Q 3513 744 3044 326 
Q 2575 -91 1722 -91 
Q 1428 -91 1123 -41 
Q 819 9 494 109 
L 494 744 
Q 775 591 1075 516 
Q 1375 441 1709 441 
Q 2250 441 2565 725 
Q 2881 1009 2881 1497 
Q 2881 1984 2565 2268 
Q 2250 2553 1709 2553 
Q 1456 2553 1204 2497 
Q 953 2441 691 2322 
L 691 4666 
z
" transform="scale(0.015625)"/>
       </defs>
       <use xlink:href="#DejaVuSans-32"/>
       <use xlink:href="#DejaVuSans-30" transform="translate(63.623047 0)"/>
       <use xlink:href="#DejaVuSans-32" transform="translate(127.246094 0)"/>
       <use xlink:href="#DejaVuSans-35" transform="translate(190.869141 0)"/>
       <use xlink:href="#DejaVuSans-2d" transform="translate(254.492188 0)"/>
       <use xlink:href="#DejaVuSans-30" transform="translate(290.576172 0)"/>
       <use xlink:href="#DejaVuSans-31" transform="translate(354.199219 0)"/>
      </g>
     </g>
    </g>
    <g id="xtick_9">
     <g id="line2d_17">
      <path d="M 750.141338 320.4 
L 750.141338 43.2 
" clip-path="url(#p78a27f17d4)" style="fill: none; stroke-dasharray: 5.12,1.28,0.8,1.28; stroke-dashoffset: 0; stroke: #b0b0b0; stroke-width: 0.8"/>
     </g>
     <g id="line2d_18">
      <g>
       <use xlink:href="#m2938d402ce" x="750.141338" y="320.4" style="fill: #a9a9a9; stroke: #a9a9a9; stroke-width: 0.8"/>
      </g>
     </g>
     <g id="text_9">
      <!-- 2025-07 -->
      <g style="fill: #a9a9a9" transform="translate(729.249932 334.998438) scale(0.1 -0.1)">
       <use xlink:href="#DejaVuSans-32"/>
       <use xlink:href="#DejaVuSans-30" transform="translate(63.623047 0)"/>
       <use xlink:href="#DejaVuSans-32" transform="translate(127.246094 0)"/>
       <use xlink:href="#DejaVuSans-35" transform="translate(190.869141 0)"/>
       <use xlink:href="#DejaVuSans-2d" transform="translate(254.492188 0)"/>
       <use xlink:href="#DejaVuSans-30" transform="translate(290.576172 0)"/>
       <use xlink:href="#DejaVuSans-37" transform="translate(354.199219 0)"/>
      </g>
     </g>
    </g>
   </g>
   <g id="matplotlib.axis_2">
    <g id="ytick_1">
     <g id="line2d_19">
      <path d="M 108 307.832424 
L 777.6 307.832424 
" clip-path="url(#p78a27f17d4)" style="fill: none; stroke-dasharray: 5.12,1.28,0.8,1.28; stroke-dashoffset: 0; stroke: #b0b0b0; stroke-width: 0.8"/>
     </g>
     <g id="line2d_20">
      <defs>
       <path id="m401133d62e" d="M 0 0 
L -3.5 0 
" style="stroke: #a9a9a9; stroke-width: 0.8"/>
      </defs>
      <g>
       <use xlink:href="#m401133d62e" x="108" y="307.832424" style="fill: #a9a9a9; stroke: #a9a9a9; stroke-width: 0.8"/>
      </g>
     </g>
     <g id="text_10">
      <!-- 0 -->
      <g style="fill: #a9a9a9" transform="translate(94.6375 311.631643) scale(0.1 -0.1)">
       <use xlink:href="#DejaVuSans-30"/>
      </g>
     </g>
    </g>
    <g id="ytick_2">
     <g id="line2d_21">
      <path d="M 108 275.408338 
L 777.6 275.408338 
" clip-path="url(#p78a27f17d4)" style="fill: none; stroke-dasharray: 5.12,1.28,0.8,1.28; stroke-dashoffset: 0; stroke: #b0b0b0; stroke-width: 0.8"/>
     </g>
     <g id="line2d_22">
      <g>
       <use xlink:href="#m401133d62e" x="108" y="275.408338" style="fill: #a9a9a9; stroke: #a9a9a9; stroke-width: 0.8"/>
      </g>
     </g>
     <g id="text_11">
      <!-- 1000 -->
      <g style="fill: #a9a9a9" transform="translate(75.55 279.207556) scale(0.1 -0.1)">
       <use xlink:href="#DejaVuSans-31"/>
       <use xlink:href="#DejaVuSans-30" transform="translate(63.623047 0)"/>
       <use xlink:href="#DejaVuSans-30" transform="translate(127.246094 0)"/>
       <use xlink:href="#DejaVuSans-30" transform="translate(190.869141 0)"/>
      </g>
     </g>
    </g>
    <g id="ytick_3">
     <g id="line2d_23">
      <path d="M 108 242.984251 
L 777.6 242.984251 
" clip-path="url(#p78a27f17d4)" style="fill: none; stroke-dasharray: 5.12,1.28,0.8,1.28; stroke-dashoffset: 0; stroke: #b0b0b0; stroke-width: 0.8"/>
     </g>
     <g id="line2d_24">
      <g>
       <use xlink:href="#m401133d62e" x="108" y="242.984251" style="fill: #a9a9a9; stroke: #a9a9a9; stroke-width: 0.8"/>
      </g>
     </g>
     <g id="text_12">
      <!-- 2000 -->
      <g style="fill: #a9a9a9" transform="translate(75.55 246.78347) scale(0.1 -0.1)">
       <use xlink:href="#DejaVuSans-32"/>
       <use xlink:href="#DejaVuSans-30" transform="translate(63.623047 0)"/>
       <use xlink:href="#DejaVuSans-30" transform="translate(127.246094 0)"/>
       <use xlink:href="#DejaVuSans-30" transform="translate(190.869141 0)"/>
      </g>
     </g>
    </g>
    <g id="ytick_4">
     <g id="line2d_25">
      <path d="M 108 210.560165 
L 777.6 210.560165 
" clip-path="url(#p78a27f17d4)" style="fill: none; stroke-dasharray: 5.12,1.28,0.8,1.28; stroke-dashoffset: 0; stroke: #b0b0b0; stroke-width: 0.8"/>
     </g>
     <g id="line2d_26">
      <g>
       <use xlink:href="#m401133d62e" x="108" y="210.560165" style="fill: #a9a9a9; stroke: #a9a9a9; stroke-width: 0.8"/>
      </g>
     </g>
     <g id="text_13">
      <!-- 3000 -->
      <g style="fill: #a9a9a9" transform="translate(75.55 214.359383) scale(0.1 -0.1)">
       <use xlink:href="#DejaVuSans-33"/>
       <use xlink:href="#DejaVuSans-30" transform="translate(63.623047 0)"/>
       <use xlink:href="#DejaVuSans-30" transform="translate(127.246094 0)"/>
       <use xlink:href="#DejaVuSans-30" transform="translate(190.869141 0)"/>
      </g>
     </g>
    </g>
    <g id="ytick_5">
     <g id="line2d_27">
      <path d="M 108 178.136078 
L 777.6 178.136078 
" clip-path="url(#p78a27f17d4)" style="fill: none; stroke-dasharray: 5.12,1.28,0.8,1.28; stroke-dashoffset: 0; stroke: #b0b0b0; stroke-width: 0.8"/>
     </g>
     <g id="line2d_28">
      <g>
       <use xlink:href="#m401133d62e" x="108" y="178.136078" style="fill: #a9a9a9; stroke: #a9a9a9; stroke-width: 0.8"/>
      </g>
     </g>
     <g id="text_14">
      <!-- 4000 -->
      <g style="fill: #a9a9a9" transform="translate(75.55 181.935297) scale(0.1 -0.1)">
       <use xlink:href="#DejaVuSans-34"/>
       <use xlink:href="#DejaVuSans-30" transform="translate(63.623047 0)"/>
       <use xlink:href="#DejaVuSans-30" transform="translate(127.246094 0)"/>
       <use xlink:href="#DejaVuSans-30" transform="translate(190.869141 0)"/>
      </g>
     </g>
    </g>
    <g id="ytick_6">
     <g id="line2d_29">
      <path d="M 108 145.711992 
L 777.6 145.711992 
" clip-path="url(#p78a27f17d4)" style="fill: none; stroke-dasharray: 5.12,1.28,0.8,1.28; stroke-dashoffset: 0; stroke: #b0b0b0; stroke-width: 0.8"/>
     </g>
     <g id="line2d_30">
      <g>
       <use xlink:href="#m401133d62e" x="108" y="145.711992" style="fill: #a9a9a9; stroke: #a9a9a9; stroke-width: 0.8"/>
      </g>
     </g>
     <g id="text_15">
      <!-- 5000 -->
      <g style="fill: #a9a9a9" transform="translate(75.55 149.511211) scale(0.1 -0.1)">
       <use xlink:href="#DejaVuSans-35"/>
       <use xlink:href="#DejaVuSans-30" transform="translate(63.623047 0)"/>
       <use xlink:href="#DejaVuSans-30" transform="translate(127.246094 0)"/>
       <use xlink:href="#DejaVuSans-30" transform="translate(190.869141 0)"/>
      </g>
     </g>
    </g>
    <g id="ytick_7">
     <g id="line2d_31">
      <path d="M 108 113.287905 
L 777.6 113.287905 
" clip-path="url(#p78a27f17d4)" style="fill: none; stroke-dasharray: 5.12,1.28,0.8,1.28; stroke-dashoffset: 0; stroke: #b0b0b0; stroke-width: 0.8"/>
     </g>
     <g id="line2d_32">
      <g>
       <use xlink:href="#m401133d62e" x="108" y="113.287905" style="fill: #a9a9a9; stroke: #a9a9a9; stroke-width: 0.8"/>
      </g>
     </g>
     <g id="text_16">
      <!-- 6000 -->
      <g style="fill: #a9a9a9" transform="translate(75.55 117.087124) scale(0.1 -0.1)">
       <defs>
        <path id="DejaVuSans-36" d="M 2113 2584 
Q 1688 2584 1439 2293 
Q 1191 2003 1191 1497 
Q 1191 994 1439 701 
Q 1688 409 2113 409 
Q 2538 409 2786 701 
Q 3034 994 3034 1497 
Q 3034 2003 2786 2293 
Q 2538 2584 2113 2584 
z
M 3366 4563 
L 3366 3988 
Q 3128 4100 2886 4159 
Q 2644 4219 2406 4219 
Q 1781 4219 1451 3797 
Q 1122 3375 1075 2522 
Q 1259 2794 1537 2939 
Q 1816 3084 2150 3084 
Q 2853 3084 3261 2657 
Q 3669 2231 3669 1497 
Q 3669 778 3244 343 
Q 2819 -91 2113 -91 
Q 1303 -91 875 529 
Q 447 1150 447 2328 
Q 447 3434 972 4092 
Q 1497 4750 2381 4750 
Q 2619 4750 2861 4703 
Q 3103 4656 3366 4563 
z
" transform="scale(0.015625)"/>
       </defs>
       <use xlink:href="#DejaVuSans-36"/>
       <use xlink:href="#DejaVuSans-30" transform="translate(63.623047 0)"/>
       <use xlink:href="#DejaVuSans-30" transform="translate(127.246094 0)"/>
       <use xlink:href="#DejaVuSans-30" transform="translate(190.869141 0)"/>
      </g>
     </g>
    </g>
    <g id="ytick_8">
     <g id="line2d_33">
      <path d="M 108 80.863819 
L 777.6 80.863819 
" clip-path="url(#p78a27f17d4)" style="fill: none; stroke-dasharray: 5.12,1.28,0.8,1.28; stroke-dashoffset: 0; stroke: #b0b0b0; stroke-width: 0.8"/>
     </g>
     <g id="line2d_34">
      <g>
       <use xlink:href="#m401133d62e" x="108" y="80.863819" style="fill: #a9a9a9; stroke: #a9a9a9; stroke-width: 0.8"/>
      </g>
     </g>
     <g id="text_17">
      <!-- 7000 -->
      <g style="fill: #a9a9a9" transform="translate(75.55 84.663038) scale(0.1 -0.1)">
       <use xlink:href="#DejaVuSans-37"/>
       <use xlink:href="#DejaVuSans-30" transform="translate(63.623047 0)"/>
       <use xlink:href="#DejaVuSans-30" transform="translate(127.246094 0)"/>
       <use xlink:href="#DejaVuSans-30" transform="translate(190.869141 0)"/>
      </g>
     </g>
    </g>
    <g id="ytick_9">
     <g id="line2d_35">
      <path d="M 108 48.439732 
L 777.6 48.439732 
" clip-path="url(#p78a27f17d4)" style="fill: none; stroke-dasharray: 5.12,1.28,0.8,1.28; stroke-dashoffset: 0; stroke: #b0b0b0; stroke-width: 0.8"/>
     </g>
     <g id="line2d_36">
      <g>
       <use xlink:href="#m401133d62e" x="108" y="48.439732" style="fill: #a9a9a9; stroke: #a9a9a9; stroke-width: 0.8"/>
      </g>
     </g>
     <g id="text_18">
      <!-- 8000 -->
      <g style="fill: #a9a9a9" transform="translate(75.55 52.238951) scale(0.1 -0.1)">
       <defs>
        <path id="DejaVuSans-38" d="M 2034 2216 
Q 1584 2216 1326 1975 
Q 1069 1734 1069 1313 
Q 1069 891 1326 650 
Q 1584 409 2034 409 
Q 2484 409 2743 651 
Q 3003 894 3003 1313 
Q 3003 1734 2745 1975 
Q 2488 2216 2034 2216 
z
M 1403 2484 
Q 997 2584 770 2862 
Q 544 3141 544 3541 
Q 544 4100 942 4425 
Q 1341 4750 2034 4750 
Q 2731 4750 3128 4425 
Q 3525 4100 3525 3541 
Q 3525 3141 3298 2862 
Q 3072 2584 2669 2484 
Q 3125 2378 3379 2068 
Q 3634 1759 3634 1313 
Q 3634 634 3220 271 
Q 2806 -91 2034 -91 
Q 1263 -91 848 271 
Q 434 634 434 1313 
Q 434 1759 690 2068 
Q 947 2378 1403 2484 
z
M 1172 3481 
Q 1172 3119 1398 2916 
Q 1625 2713 2034 2713 
Q 2441 2713 2670 2916 
Q 2900 3119 2900 3481 
Q 2900 3844 2670 4047 
Q 2441 4250 2034 4250 
Q 1625 4250 1398 4047 
Q 1172 3844 1172 3481 
z
" transform="scale(0.015625)"/>
       </defs>
       <use xlink:href="#DejaVuSans-38"/>
       <use xlink:href="#DejaVuSans-30" transform="translate(63.623047 0)"/>
       <use xlink:href="#DejaVuSans-30" transform="translate(127.246094 0)"/>
       <use xlink:href="#DejaVuSans-30" transform="translate(190.869141 0)"/>
      </g>
     </g>
    </g>
   </g>
   <g id="line2d_37">
    <path d="M 138.436364 307.735152 
L 140.988679 307.508183 
L 141.414065 307.313639 
L 143.115609 307.08667 
L 144.817153 306.730005 
L 145.667925 306.600309 
L 147.794854 306.405764 
L 148.645626 306.049099 
L 149.071012 305.465466 
L 149.496398 305.173649 
L 149.921784 304.200926 
L 150.34717 304.136078 
L 150.772556 303.779413 
L 151.623328 303.325476 
L 153.324871 301.898816 
L 155.026415 301.023366 
L 156.302573 300.407308 
L 156.727959 299.693978 
L 157.578731 299.045497 
L 158.004117 298.850952 
L 162.257976 298.20247 
L 162.683362 298.007926 
L 165.661063 297.748533 
L 167.362607 297.32702 
L 170.765695 296.840659 
L 171.191081 296.61369 
L 171.616467 296.548842 
L 172.467238 296.257025 
L 175.44494 295.73824 
L 176.295712 295.478847 
L 180.124185 294.830365 
L 180.974957 294.635821 
L 181.825729 294.603397 
L 183.527273 294.181884 
L 183.952659 293.565826 
L 185.228816 293.047041 
L 186.504974 292.690376 
L 186.93036 292.463407 
L 187.781132 292.301287 
L 189.482676 291.782501 
L 190.333448 291.717653 
L 191.18422 291.490685 
L 192.885763 291.036747 
L 193.311149 291.004323 
L 194.161921 290.58281 
L 194.587307 290.517962 
L 195.012693 290.290993 
L 199.691938 289.480391 
L 201.393482 288.961606 
L 201.818868 288.669789 
L 203.945798 287.956459 
L 204.796569 287.340401 
L 206.072727 287.081009 
L 215.431218 284.260113 
L 215.856604 284.227689 
L 217.132762 283.8386 
L 217.558148 283.8386 
L 217.983533 283.644056 
L 218.834305 283.546783 
L 219.259691 283.384663 
L 220.961235 283.319815 
L 221.812007 283.157694 
L 222.662779 282.703757 
L 223.938937 282.217396 
L 224.789708 281.763459 
L 225.64048 281.309521 
L 226.491252 281.017705 
L 226.916638 280.888008 
L 227.76741 280.336799 
L 228.192796 279.850437 
L 229.043568 278.488626 
L 229.468954 278.358929 
L 229.89434 278.358929 
L 231.595883 277.386207 
L 232.021269 277.288935 
L 232.446655 276.867422 
L 233.297427 276.510757 
L 234.148199 276.121668 
L 234.573585 275.602882 
L 234.998971 274.889552 
L 235.424357 274.597735 
L 235.849743 273.819557 
L 236.275129 273.333196 
L 238.827444 271.906536 
L 239.678216 271.193206 
L 240.103602 270.933814 
L 240.528988 270.317756 
L 240.954374 269.312609 
L 241.37976 268.631704 
L 241.805146 268.275039 
L 242.230532 268.080494 
L 245.633619 264.838085 
L 246.484391 264.027483 
L 249.036707 262.373855 
L 249.462093 262.211734 
L 251.163636 261.174164 
L 251.589022 260.979619 
L 253.715952 258.969326 
L 254.566724 258.612661 
L 255.417496 257.996603 
L 255.842882 257.73721 
L 256.268268 257.672362 
L 257.544425 256.926608 
L 257.969811 256.440247 
L 260.096741 255.240556 
L 260.522127 255.078435 
L 261.798285 254.170561 
L 268.179074 251.836027 
L 269.029846 251.025425 
L 270.306003 250.376943 
L 271.156775 249.825733 
L 272.007547 249.566341 
L 272.432933 249.274524 
L 272.858319 249.144828 
L 274.134477 248.269377 
L 276.261407 247.783016 
L 277.537564 247.004838 
L 278.813722 246.713021 
L 279.239108 246.615749 
L 280.515266 245.610602 
L 282.21681 245.124241 
L 282.642196 244.767576 
L 285.194511 243.859701 
L 286.045283 243.697581 
L 286.896055 243.340916 
L 289.873756 242.206073 
L 290.724528 242.076377 
L 292.000686 241.62244 
L 294.127616 240.552445 
L 296.679931 239.093361 
L 297.530703 238.866392 
L 298.806861 238.21791 
L 299.657633 238.05579 
L 300.508405 237.537005 
L 301.359177 237.310036 
L 302.635334 236.791251 
L 304.336878 236.564282 
L 305.18765 236.110345 
L 305.613036 235.721256 
L 306.038422 234.943078 
L 307.739966 234.456716 
L 309.016123 233.775811 
L 309.866895 233.483994 
L 311.143053 232.835512 
L 313.269983 231.960062 
L 314.120755 231.765517 
L 315.396913 231.117036 
L 315.822298 231.052187 
L 317.949228 229.982192 
L 318.8 229.430983 
L 320.076158 229.17159 
L 322.203087 228.620381 
L 322.628473 228.263716 
L 323.479245 227.971899 
L 325.606175 227.096449 
L 326.031561 226.772208 
L 326.456947 226.610087 
L 327.307719 226.123726 
L 329.009262 225.572517 
L 329.860034 225.021307 
L 330.28542 224.56737 
L 330.710806 224.307977 
L 331.136192 224.210705 
L 331.986964 223.497375 
L 332.41235 223.432527 
L 332.837736 222.719197 
L 333.263122 222.524653 
L 333.688508 222.167988 
L 334.113894 222.103139 
L 334.964666 221.55193 
L 335.815437 221.260113 
L 336.240823 220.935872 
L 336.666209 220.773752 
L 338.367753 219.606485 
L 339.643911 218.958003 
L 340.494683 218.731034 
L 341.345455 218.244673 
L 341.77084 217.498919 
L 342.621612 216.850437 
L 343.046998 216.753165 
L 345.599314 215.488626 
L 346.450086 215.131961 
L 347.300858 214.515903 
L 348.577015 213.316212 
L 349.427787 212.797427 
L 349.853173 212.311065 
L 351.554717 211.111374 
L 352.405489 210.235924 
L 353.256261 209.944107 
L 354.107033 209.360473 
L 355.38319 208.679568 
L 355.808576 208.61472 
L 357.084734 207.90139 
L 357.935506 207.35018 
L 362.189365 205.728976 
L 362.614751 205.372311 
L 364.316295 204.691405 
L 364.741681 204.561709 
L 365.592453 204.010499 
L 366.443225 203.653834 
L 367.293997 203.037777 
L 368.144768 201.286876 
L 368.99554 200.249305 
L 370.271698 199.568399 
L 371.12247 199.211734 
L 371.547856 199.146886 
L 372.398628 198.757797 
L 374.100172 198.174164 
L 374.950943 197.687802 
L 375.801715 197.266289 
L 376.227101 197.136593 
L 378.779417 195.580237 
L 379.204803 195.093875 
L 380.480961 194.348121 
L 380.906346 194.186001 
L 381.757118 193.667216 
L 383.458662 192.726917 
L 383.884048 192.629645 
L 384.309434 192.27298 
L 387.287136 191.267833 
L 387.712521 190.943592 
L 388.563293 190.6842 
L 389.414065 190.327535 
L 389.839451 189.97087 
L 391.540995 189.354812 
L 392.391767 188.738755 
L 393.242539 188.38209 
L 394.09331 187.701184 
L 394.944082 187.441791 
L 395.369468 187.052702 
L 395.794854 186.987854 
L 396.645626 186.306948 
L 398.772556 185.042409 
L 399.623328 184.783016 
L 400.048714 184.523623 
L 400.474099 184.458775 
L 401.750257 183.745445 
L 403.451801 183.161812 
L 404.302573 183.032115 
L 404.727959 182.837571 
L 405.153345 182.772723 
L 406.004117 182.383634 
L 406.429503 182.351209 
L 408.131046 181.702728 
L 409.407204 180.762429 
L 409.83259 180.600309 
L 410.683362 180.113948 
L 411.108748 179.984251 
L 413.661063 178.525167 
L 414.086449 178.427895 
L 415.362607 177.649717 
L 416.638765 177.19578 
L 417.489537 176.903963 
L 419.191081 176.320329 
L 420.041852 176.028513 
L 421.743396 175.671848 
L 422.168782 175.477303 
L 423.019554 175.250335 
L 423.44494 175.05579 
L 423.870326 174.990942 
L 424.295712 174.763973 
L 425.146484 174.601853 
L 426.422642 174.115492 
L 427.273413 174.018219 
L 428.549571 173.726402 
L 430.676501 173.337313 
L 441.736535 169.965208 
L 442.161921 169.511271 
L 444.714237 168.441276 
L 446.41578 167.857643 
L 446.841166 167.59825 
L 448.117324 167.209161 
L 448.968096 166.982192 
L 449.393482 166.690376 
L 449.818868 166.593103 
L 450.244254 166.204014 
L 451.520412 165.944622 
L 452.371184 165.555533 
L 452.796569 165.036747 
L 457.475815 163.999177 
L 457.901201 163.999177 
L 458.326587 163.804632 
L 460.02813 163.480391 
L 460.453516 163.285847 
L 462.15506 162.961606 
L 463.005832 162.604941 
L 463.856604 162.44282 
L 465.983533 161.891611 
L 467.685077 161.340401 
L 468.110463 161.243129 
L 468.535849 161.016161 
L 469.386621 160.789192 
L 470.237393 160.432527 
L 471.088165 160.108286 
L 471.513551 159.816469 
L 472.364322 159.557077 
L 475.342024 158.422234 
L 477.043568 158.195265 
L 480.446655 156.930726 
L 480.872041 156.606485 
L 481.297427 156.509213 
L 481.722813 156.282244 
L 482.148199 156.24982 
L 486.827444 154.531343 
L 488.954374 153.94771 
L 489.805146 153.526197 
L 491.081304 153.23438 
L 492.782847 151.80772 
L 494.484391 151.061966 
L 495.335163 150.672877 
L 497.887479 149.66773 
L 498.312864 149.375914 
L 500.439794 148.662584 
L 501.715952 147.91683 
L 502.141338 147.819557 
L 504.268268 146.65229 
L 505.544425 146.068657 
L 505.969811 145.744416 
L 506.820583 145.452599 
L 508.947513 144.35018 
L 510.223671 143.896243 
L 511.925214 143.182913 
L 513.201372 142.696552 
L 513.626758 142.534431 
L 514.47753 142.404735 
L 514.902916 142.112918 
L 516.60446 141.788677 
L 517.455232 141.432012 
L 519.156775 140.62141 
L 525.112178 137.962635 
L 526.388336 137.541122 
L 526.813722 137.249305 
L 527.664494 137.152033 
L 528.08988 136.860216 
L 528.940652 136.73052 
L 529.791424 136.309007 
L 530.21681 136.114462 
L 531.067581 135.887494 
L 531.918353 135.628101 
L 533.194511 135.14174 
L 534.470669 134.720226 
L 535.746827 134.42841 
L 537.44837 133.71508 
L 538.299142 133.228718 
L 540.000686 132.353268 
L 540.851458 132.158724 
L 541.276844 131.899331 
L 541.70223 131.802059 
L 542.978388 131.056305 
L 543.82916 130.69964 
L 553.18765 127.068142 
L 554.889194 126.25754 
L 559.143053 124.571487 
L 559.993825 124.149974 
L 560.419211 124.052702 
L 560.844597 123.825733 
L 562.546141 123.339372 
L 564.247684 121.912712 
L 564.67307 121.783016 
L 565.098456 121.523623 
L 566.374614 121.166958 
L 566.8 120.842717 
L 567.225386 120.745445 
L 568.501544 119.967267 
L 568.92693 119.67545 
L 570.203087 119.189089 
L 570.628473 118.96212 
L 571.904631 118.670304 
L 574.031561 117.92455 
L 574.882333 117.665157 
L 576.158491 117.016675 
L 577.009262 116.595162 
L 577.860034 116.368194 
L 579.136192 115.752136 
L 582.964666 114.293052 
L 584.240823 113.48245 
L 584.666209 113.385178 
L 585.516981 112.963664 
L 586.367753 112.639424 
L 586.793139 112.250335 
L 587.643911 111.89367 
L 588.920069 111.439732 
L 589.345455 111.083067 
L 589.77084 111.050643 
L 590.621612 110.791251 
L 591.472384 110.499434 
L 591.89777 110.304889 
L 592.323156 110.240041 
L 593.173928 109.883376 
L 594.450086 109.591559 
L 595.300858 109.105198 
L 595.726244 108.943078 
L 596.15163 108.618837 
L 597.427787 108.294596 
L 597.853173 108.035203 
L 598.703945 107.808235 
L 599.980103 107.062481 
L 600.405489 107.030057 
L 601.681647 106.608543 
L 602.532419 106.543695 
L 602.957804 106.316727 
L 603.808576 106.089758 
L 604.233962 105.86279 
L 606.360892 105.441276 
L 607.211664 105.279156 
L 608.487822 104.792795 
L 609.763979 104.500978 
L 611.040137 103.820072 
L 611.465523 103.430983 
L 612.741681 102.652805 
L 613.167067 102.328564 
L 614.443225 101.907051 
L 615.293997 101.680082 
L 619.12247 99.99403 
L 620.824014 99.540093 
L 621.674786 99.151004 
L 622.100172 98.924035 
L 622.950943 98.664642 
L 623.376329 98.437674 
L 624.227101 98.275553 
L 627.630189 96.784045 
L 628.055575 96.719197 
L 629.331732 95.876171 
L 629.757118 95.811323 
L 631.458662 95.130417 
L 633.160206 94.708904 
L 633.585592 94.644056 
L 634.010978 94.449511 
L 634.436364 94.417087 
L 635.287136 94.12527 
L 635.712521 94.092846 
L 636.988679 93.606485 
L 638.690223 93.120124 
L 639.540995 92.471642 
L 641.242539 91.498919 
L 641.667925 91.401647 
L 642.09331 91.174678 
L 642.944082 90.882862 
L 643.369468 90.753165 
L 643.794854 90.3965 
L 645.071012 89.910139 
L 645.921784 89.423778 
L 646.34717 89.196809 
L 646.772556 88.80772 
L 648.899485 88.224086 
L 650.175643 87.640453 
L 651.026415 87.413484 
L 651.451801 87.186516 
L 651.877187 86.829851 
L 653.578731 86.375914 
L 654.004117 86.051673 
L 659.534134 84.008955 
L 660.384906 83.846835 
L 662.511835 83.165929 
L 663.362607 82.809264 
L 664.213379 82.485023 
L 665.064151 82.258055 
L 665.489537 82.06351 
L 665.914923 82.06351 
L 666.765695 81.706845 
L 667.616467 81.220484 
L 670.594168 80.215337 
L 672.295712 79.631704 
L 673.57187 79.339887 
L 674.848027 78.918374 
L 675.273413 78.821101 
L 675.698799 78.529285 
L 676.549571 78.33474 
L 678.251115 77.848379 
L 678.676501 77.815955 
L 679.527273 77.426866 
L 682.504974 76.681112 
L 683.355746 76.324447 
L 687.609605 75.351724 
L 688.885763 74.670818 
L 690.161921 74.281729 
L 694.41578 72.692949 
L 694.841166 72.368708 
L 696.117324 72.076891 
L 696.968096 71.817499 
L 697.818868 71.395986 
L 698.244254 71.039321 
L 699.095026 70.779928 
L 699.520412 70.520535 
L 700.371184 70.423263 
L 703.348885 69.580237 
L 704.625043 69.320844 
L 705.901201 68.996603 
L 706.751973 68.769635 
L 708.02813 68.088729 
L 709.729674 67.440247 
L 710.580446 66.98631 
L 711.005832 66.953886 
L 711.856604 66.532373 
L 714.834305 65.689346 
L 716.110463 65.494802 
L 716.961235 65.202985 
L 718.237393 64.813896 
L 722.065866 63.743901 
L 722.916638 63.516933 
L 723.342024 63.41966 
L 723.76741 63.160268 
L 724.618182 62.998147 
L 725.468954 62.900875 
L 725.89434 62.673906 
L 726.319726 62.641482 
L 727.595883 61.993001 
L 728.872041 61.701184 
L 729.722813 61.312095 
L 730.573585 61.020278 
L 731.424357 60.793309 
L 732.275129 60.436644 
L 733.125901 60.144828 
L 734.827444 59.658466 
L 735.678216 59.593618 
L 736.528988 59.301801 
L 736.954374 59.139681 
L 737.805146 59.009985 
L 739.50669 58.231806 
L 739.932075 58.166958 
L 740.357461 57.93999 
L 741.208233 57.777869 
L 742.059005 57.713021 
L 743.335163 57.421204 
L 743.760549 57.194236 
L 744.611321 56.967267 
L 745.462093 56.578178 
L 745.887479 56.51333 
L 746.312864 56.253937 
L 746.73825 55.8 
L 747.163636 55.8 
L 747.163636 55.8 
" clip-path="url(#p78a27f17d4)" style="fill: none; stroke: #1f77b4; stroke-width: 1.5; stroke-linecap: square"/>
   </g>
   <g id="line2d_38">
    <path d="M 138.86175 307.8 
L 142.690223 307.702728 
L 146.09331 307.540607 
L 147.794854 307.540607 
L 148.22024 307.410911 
L 150.34717 307.313639 
L 152.899485 307.021822 
L 155.451801 306.92455 
L 156.302573 306.827277 
L 159.280274 306.697581 
L 162.257976 306.600309 
L 164.384906 306.535461 
L 169.914923 306.438188 
L 172.041852 306.37334 
L 175.870326 306.276068 
L 177.57187 306.243644 
L 181.825729 306.146372 
L 183.527273 305.984251 
L 185.228816 305.951827 
L 187.781132 305.854555 
L 189.482676 305.822131 
L 191.609605 305.757283 
L 193.311149 305.595162 
L 197.139623 305.49789 
L 197.990395 305.433042 
L 199.691938 305.335769 
L 202.244254 305.238497 
L 203.945798 305.141225 
L 211.602744 304.654864 
L 214.580446 304.557591 
L 215.856604 304.427895 
L 217.983533 304.330623 
L 222.237393 304.103654 
L 226.491252 304.038806 
L 228.192796 303.844261 
L 230.319726 303.746989 
L 234.573585 303.325476 
L 237.125901 303.001235 
L 238.827444 302.936387 
L 242.230532 302.48245 
L 244.782847 302.417602 
L 246.059005 302.287905 
L 247.335163 302.190633 
L 259.245969 301.250335 
L 260.096741 301.088214 
L 262.649057 300.990942 
L 269.455232 300.569429 
L 272.432933 300.472156 
L 274.134477 300.277612 
L 276.261407 300.18034 
L 278.813722 300.083067 
L 280.940652 299.985795 
L 282.642196 299.953371 
L 284.769125 299.888523 
L 285.619897 299.758827 
L 291.5753 299.661554 
L 292.426072 299.564282 
L 297.530703 299.46701 
L 301.359177 299.272465 
L 304.336878 299.175193 
L 306.038422 298.980648 
L 309.016123 298.883376 
L 309.866895 298.75368 
L 311.993825 298.688832 
L 316.247684 298.623984 
L 317.949228 298.461863 
L 319.650772 298.429439 
L 320.92693 298.332167 
L 322.628473 298.170046 
L 326.882333 297.943078 
L 331.136192 297.845805 
L 334.964666 297.651261 
L 336.240823 297.618837 
L 337.091595 297.489141 
L 339.218525 297.391868 
L 340.069297 297.32702 
L 340.920069 297.262172 
L 341.77084 297.197324 
L 346.0247 297.100051 
L 357.935506 296.289449 
L 360.487822 296.192177 
L 362.614751 296.127329 
L 368.570154 296.030057 
L 369.420926 295.90036 
L 375.376329 295.803088 
L 379.630189 295.576119 
L 380.480961 295.543695 
L 381.331732 295.446423 
L 383.458662 295.349151 
L 385.585592 295.284303 
L 387.712521 295.18703 
L 389.839451 295.122182 
L 393.667925 295.02491 
L 396.22024 294.927638 
L 402.175643 294.830365 
L 406.854889 294.570973 
L 408.556432 294.506125 
L 409.83259 294.408852 
L 415.787993 294.31158 
L 418.340309 294.214308 
L 425.997256 294.117036 
L 427.698799 294.084611 
L 432.803431 294.019763 
L 433.654202 293.954915 
L 439.609605 293.857643 
L 441.311149 293.825219 
L 452.371184 293.727946 
L 454.923499 293.630674 
L 472.789708 293.533402 
L 474.916638 293.468554 
L 485.976672 293.403706 
L 486.827444 293.338857 
L 488.954374 293.274009 
L 490.230532 293.144313 
L 492.782847 293.047041 
L 495.760549 292.917344 
L 499.589022 292.820072 
L 501.715952 292.755224 
L 504.693654 292.657952 
L 508.096741 292.495831 
L 510.223671 292.398559 
L 511.925214 292.366135 
L 515.753688 292.268863 
L 517.455232 292.236438 
L 522.985249 292.139166 
L 524.686792 292.106742 
L 526.813722 292.00947 
L 529.366038 291.912198 
L 532.343739 291.847349 
L 533.194511 291.782501 
L 543.403774 291.685229 
L 547.657633 291.45826 
L 550.635334 291.360988 
L 555.31458 291.101595 
L 558.292281 291.004323 
L 559.993825 290.971899 
L 562.971527 290.874627 
L 565.098456 290.647658 
L 569.352316 290.550386 
L 570.203087 290.453114 
L 574.456947 290.355841 
L 576.583877 290.290993 
L 581.263122 290.258569 
L 582.113894 290.161297 
L 586.793139 290.064025 
L 587.643911 289.999177 
L 597.002401 289.901904 
L 599.554717 289.804632 
L 605.935506 289.70736 
L 607.63705 289.674936 
L 611.465523 289.610087 
L 612.316295 289.512815 
L 617.846312 289.415543 
L 619.973242 289.350695 
L 627.630189 289.253423 
L 628.906346 289.15615 
L 630.182504 289.058878 
L 631.458662 288.961606 
L 637.839451 288.864334 
L 640.391767 288.767061 
L 651.877187 288.669789 
L 655.70566 288.475244 
L 660.810292 288.377972 
L 661.661063 288.313124 
L 668.041852 288.248276 
L 668.892624 288.183428 
L 673.57187 288.086155 
L 675.273413 288.053731 
L 681.228816 287.956459 
L 683.781132 287.859187 
L 691.012693 287.761915 
L 692.714237 287.72949 
L 696.54271 287.632218 
L 699.945798 287.470098 
L 704.625043 287.372826 
L 707.602744 287.243129 
L 711.431218 287.145857 
L 712.28199 287.081009 
L 720.789708 286.983736 
L 722.916638 286.918888 
L 725.468954 286.821616 
L 728.021269 286.724344 
L 740.782847 286.627072 
L 743.760549 286.497375 
L 747.163636 286.400103 
L 747.163636 286.400103 
" clip-path="url(#p78a27f17d4)" style="fill: none; stroke: #ff7f0e; stroke-width: 1.5; stroke-linecap: square"/>
   </g>
   <g id="patch_3">
    <path d="M 108 320.4 
L 108 43.2 
" style="fill: none; stroke: #a9a9a9; stroke-width: 0.8; stroke-linejoin: miter; stroke-linecap: square"/>
   </g>
   <g id="patch_4">
    <path d="M 777.6 320.4 
L 777.6 43.2 
" style="fill: none"/>
   </g>
   <g id="patch_5">
    <path d="M 108 320.4 
L 777.6 320.4 
" style="fill: none; stroke: #a9a9a9; stroke-width: 0.8; stroke-linejoin: miter; stroke-linecap: square"/>
   </g>
   <g id="patch_6">
    <path d="M 108 43.2 
L 777.6 43.2 
" style="fill: none"/>
   </g>
   <g id="text_19">
    <!-- get_subscribe history -->
    <g style="fill: #a9a9a9" transform="translate(378.6075 37.2) scale(0.12 -0.12)">
     <defs>
      <path id="DejaVuSans-67" d="M 2906 1791 
Q 2906 2416 2648 2759 
Q 2391 3103 1925 3103 
Q 1463 3103 1205 2759 
Q 947 2416 947 1791 
Q 947 1169 1205 825 
Q 1463 481 1925 481 
Q 2391 481 2648 825 
Q 2906 1169 2906 1791 
z
M 3481 434 
Q 3481 -459 3084 -895 
Q 2688 -1331 1869 -1331 
Q 1566 -1331 1297 -1286 
Q 1028 -1241 775 -1147 
L 775 -588 
Q 1028 -725 1275 -790 
Q 1522 -856 1778 -856 
Q 2344 -856 2625 -561 
Q 2906 -266 2906 331 
L 2906 616 
Q 2728 306 2450 153 
Q 2172 0 1784 0 
Q 1141 0 747 490 
Q 353 981 353 1791 
Q 353 2603 747 3093 
Q 1141 3584 1784 3584 
Q 2172 3584 2450 3431 
Q 2728 3278 2906 2969 
L 2906 3500 
L 3481 3500 
L 3481 434 
z
" transform="scale(0.015625)"/>
      <path id="DejaVuSans-65" d="M 3597 1894 
L 3597 1613 
L 953 1613 
Q 991 1019 1311 708 
Q 1631 397 2203 397 
Q 2534 397 2845 478 
Q 3156 559 3463 722 
L 3463 178 
Q 3153 47 2828 -22 
Q 2503 -91 2169 -91 
Q 1331 -91 842 396 
Q 353 884 353 1716 
Q 353 2575 817 3079 
Q 1281 3584 2069 3584 
Q 2775 3584 3186 3129 
Q 3597 2675 3597 1894 
z
M 3022 2063 
Q 3016 2534 2758 2815 
Q 2500 3097 2075 3097 
Q 1594 3097 1305 2825 
Q 1016 2553 972 2059 
L 3022 2063 
z
" transform="scale(0.015625)"/>
      <path id="DejaVuSans-74" d="M 1172 4494 
L 1172 3500 
L 2356 3500 
L 2356 3053 
L 1172 3053 
L 1172 1153 
Q 1172 725 1289 603 
Q 1406 481 1766 481 
L 2356 481 
L 2356 0 
L 1766 0 
Q 1100 0 847 248 
Q 594 497 594 1153 
L 594 3053 
L 172 3053 
L 172 3500 
L 594 3500 
L 594 4494 
L 1172 4494 
z
" transform="scale(0.015625)"/>
      <path id="DejaVuSans-5f" d="M 3263 -1063 
L 3263 -1509 
L -63 -1509 
L -63 -1063 
L 3263 -1063 
z
" transform="scale(0.015625)"/>
      <path id="DejaVuSans-73" d="M 2834 3397 
L 2834 2853 
Q 2591 2978 2328 3040 
Q 2066 3103 1784 3103 
Q 1356 3103 1142 2972 
Q 928 2841 928 2578 
Q 928 2378 1081 2264 
Q 1234 2150 1697 2047 
L 1894 2003 
Q 2506 1872 2764 1633 
Q 3022 1394 3022 966 
Q 3022 478 2636 193 
Q 2250 -91 1575 -91 
Q 1294 -91 989 -36 
Q 684 19 347 128 
L 347 722 
Q 666 556 975 473 
Q 1284 391 1588 391 
Q 1994 391 2212 530 
Q 2431 669 2431 922 
Q 2431 1156 2273 1281 
Q 2116 1406 1581 1522 
L 1381 1569 
Q 847 1681 609 1914 
Q 372 2147 372 2553 
Q 372 3047 722 3315 
Q 1072 3584 1716 3584 
Q 2034 3584 2315 3537 
Q 2597 3491 2834 3397 
z
" transform="scale(0.015625)"/>
      <path id="DejaVuSans-75" d="M 544 1381 
L 544 3500 
L 1119 3500 
L 1119 1403 
Q 1119 906 1312 657 
Q 1506 409 1894 409 
Q 2359 409 2629 706 
Q 2900 1003 2900 1516 
L 2900 3500 
L 3475 3500 
L 3475 0 
L 2900 0 
L 2900 538 
Q 2691 219 2414 64 
Q 2138 -91 1772 -91 
Q 1169 -91 856 284 
Q 544 659 544 1381 
z
M 1991 3584 
L 1991 3584 
z
" transform="scale(0.015625)"/>
      <path id="DejaVuSans-62" d="M 3116 1747 
Q 3116 2381 2855 2742 
Q 2594 3103 2138 3103 
Q 1681 3103 1420 2742 
Q 1159 2381 1159 1747 
Q 1159 1113 1420 752 
Q 1681 391 2138 391 
Q 2594 391 2855 752 
Q 3116 1113 3116 1747 
z
M 1159 2969 
Q 1341 3281 1617 3432 
Q 1894 3584 2278 3584 
Q 2916 3584 3314 3078 
Q 3713 2572 3713 1747 
Q 3713 922 3314 415 
Q 2916 -91 2278 -91 
Q 1894 -91 1617 61 
Q 1341 213 1159 525 
L 1159 0 
L 581 0 
L 581 4863 
L 1159 4863 
L 1159 2969 
z
" transform="scale(0.015625)"/>
      <path id="DejaVuSans-63" d="M 3122 3366 
L 3122 2828 
Q 2878 2963 2633 3030 
Q 2388 3097 2138 3097 
Q 1578 3097 1268 2742 
Q 959 2388 959 1747 
Q 959 1106 1268 751 
Q 1578 397 2138 397 
Q 2388 397 2633 464 
Q 2878 531 3122 666 
L 3122 134 
Q 2881 22 2623 -34 
Q 2366 -91 2075 -91 
Q 1284 -91 818 406 
Q 353 903 353 1747 
Q 353 2603 823 3093 
Q 1294 3584 2113 3584 
Q 2378 3584 2631 3529 
Q 2884 3475 3122 3366 
z
" transform="scale(0.015625)"/>
      <path id="DejaVuSans-72" d="M 2631 2963 
Q 2534 3019 2420 3045 
Q 2306 3072 2169 3072 
Q 1681 3072 1420 2755 
Q 1159 2438 1159 1844 
L 1159 0 
L 581 0 
L 581 3500 
L 1159 3500 
L 1159 2956 
Q 1341 3275 1631 3429 
Q 1922 3584 2338 3584 
Q 2397 3584 2469 3576 
Q 2541 3569 2628 3553 
L 2631 2963 
z
" transform="scale(0.015625)"/>
      <path id="DejaVuSans-69" d="M 603 3500 
L 1178 3500 
L 1178 0 
L 603 0 
L 603 3500 
z
M 603 4863 
L 1178 4863 
L 1178 4134 
L 603 4134 
L 603 4863 
z
" transform="scale(0.015625)"/>
      <path id="DejaVuSans-20" transform="scale(0.015625)"/>
      <path id="DejaVuSans-68" d="M 3513 2113 
L 3513 0 
L 2938 0 
L 2938 2094 
Q 2938 2591 2744 2837 
Q 2550 3084 2163 3084 
Q 1697 3084 1428 2787 
Q 1159 2491 1159 1978 
L 1159 0 
L 581 0 
L 581 4863 
L 1159 4863 
L 1159 2956 
Q 1366 3272 1645 3428 
Q 1925 3584 2291 3584 
Q 2894 3584 3203 3211 
Q 3513 2838 3513 2113 
z
" transform="scale(0.015625)"/>
      <path id="DejaVuSans-6f" d="M 1959 3097 
Q 1497 3097 1228 2736 
Q 959 2375 959 1747 
Q 959 1119 1226 758 
Q 1494 397 1959 397 
Q 2419 397 2687 759 
Q 2956 1122 2956 1747 
Q 2956 2369 2687 2733 
Q 2419 3097 1959 3097 
z
M 1959 3584 
Q 2709 3584 3137 3096 
Q 3566 2609 3566 1747 
Q 3566 888 3137 398 
Q 2709 -91 1959 -91 
Q 1206 -91 779 398 
Q 353 888 353 1747 
Q 353 2609 779 3096 
Q 1206 3584 1959 3584 
z
" transform="scale(0.015625)"/>
      <path id="DejaVuSans-79" d="M 2059 -325 
Q 1816 -950 1584 -1140 
Q 1353 -1331 966 -1331 
L 506 -1331 
L 506 -850 
L 844 -850 
Q 1081 -850 1212 -737 
Q 1344 -625 1503 -206 
L 1606 56 
L 191 3500 
L 800 3500 
L 1894 763 
L 2988 3500 
L 3597 3500 
L 2059 -325 
z
" transform="scale(0.015625)"/>
     </defs>
     <use xlink:href="#DejaVuSans-67"/>
     <use xlink:href="#DejaVuSans-65" transform="translate(63.476562 0)"/>
     <use xlink:href="#DejaVuSans-74" transform="translate(125 0)"/>
     <use xlink:href="#DejaVuSans-5f" transform="translate(164.208984 0)"/>
     <use xlink:href="#DejaVuSans-73" transform="translate(214.208984 0)"/>
     <use xlink:href="#DejaVuSans-75" transform="translate(266.308594 0)"/>
     <use xlink:href="#DejaVuSans-62" transform="translate(329.6875 0)"/>
     <use xlink:href="#DejaVuSans-73" transform="translate(393.164062 0)"/>
     <use xlink:href="#DejaVuSans-63" transform="translate(445.263672 0)"/>
     <use xlink:href="#DejaVuSans-72" transform="translate(500.244141 0)"/>
     <use xlink:href="#DejaVuSans-69" transform="translate(541.357422 0)"/>
     <use xlink:href="#DejaVuSans-62" transform="translate(569.140625 0)"/>
     <use xlink:href="#DejaVuSans-65" transform="translate(632.617188 0)"/>
     <use xlink:href="#DejaVuSans-20" transform="translate(694.140625 0)"/>
     <use xlink:href="#DejaVuSans-68" transform="translate(725.927734 0)"/>
     <use xlink:href="#DejaVuSans-69" transform="translate(789.306641 0)"/>
     <use xlink:href="#DejaVuSans-73" transform="translate(817.089844 0)"/>
     <use xlink:href="#DejaVuSans-74" transform="translate(869.189453 0)"/>
     <use xlink:href="#DejaVuSans-6f" transform="translate(908.398438 0)"/>
     <use xlink:href="#DejaVuSans-72" transform="translate(969.580078 0)"/>
     <use xlink:href="#DejaVuSans-79" transform="translate(1010.693359 0)"/>
    </g>
   </g>
   <g id="legend_1">
    <g id="line2d_39">
     <path d="M 815.08 328.498438 
L 825.08 328.498438 
L 835.08 328.498438 
" style="fill: none; stroke: #1f77b4; stroke-width: 1.5; stroke-linecap: square"/>
    </g>
    <g id="text_20">
     <!-- star -->
     <g style="fill: #a9a9a9" transform="translate(843.08 331.998438) scale(0.1 -0.1)">
      <defs>
       <path id="DejaVuSans-61" d="M 2194 1759 
Q 1497 1759 1228 1600 
Q 959 1441 959 1056 
Q 959 750 1161 570 
Q 1363 391 1709 391 
Q 2188 391 2477 730 
Q 2766 1069 2766 1631 
L 2766 1759 
L 2194 1759 
z
M 3341 1997 
L 3341 0 
L 2766 0 
L 2766 531 
Q 2569 213 2275 61 
Q 1981 -91 1556 -91 
Q 1019 -91 701 211 
Q 384 513 384 1019 
Q 384 1609 779 1909 
Q 1175 2209 1959 2209 
L 2766 2209 
L 2766 2266 
Q 2766 2663 2505 2880 
Q 2244 3097 1772 3097 
Q 1472 3097 1187 3025 
Q 903 2953 641 2809 
L 641 3341 
Q 956 3463 1253 3523 
Q 1550 3584 1831 3584 
Q 2591 3584 2966 3190 
Q 3341 2797 3341 1997 
z
" transform="scale(0.015625)"/>
      </defs>
      <use xlink:href="#DejaVuSans-73"/>
      <use xlink:href="#DejaVuSans-74" transform="translate(52.099609 0)"/>
      <use xlink:href="#DejaVuSans-61" transform="translate(91.308594 0)"/>
      <use xlink:href="#DejaVuSans-72" transform="translate(152.587891 0)"/>
     </g>
    </g>
    <g id="line2d_40">
     <path d="M 815.08 343.176562 
L 825.08 343.176562 
L 835.08 343.176562 
" style="fill: none; stroke: #ff7f0e; stroke-width: 1.5; stroke-linecap: square"/>
    </g>
    <g id="text_21">
     <!-- fork -->
     <g style="fill: #a9a9a9" transform="translate(843.08 346.676562) scale(0.1 -0.1)">
      <defs>
       <path id="DejaVuSans-66" d="M 2375 4863 
L 2375 4384 
L 1825 4384 
Q 1516 4384 1395 4259 
Q 1275 4134 1275 3809 
L 1275 3500 
L 2222 3500 
L 2222 3053 
L 1275 3053 
L 1275 0 
L 697 0 
L 697 3053 
L 147 3053 
L 147 3500 
L 697 3500 
L 697 3744 
Q 697 4328 969 4595 
Q 1241 4863 1831 4863 
L 2375 4863 
z
" transform="scale(0.015625)"/>
       <path id="DejaVuSans-6b" d="M 581 4863 
L 1159 4863 
L 1159 1991 
L 2875 3500 
L 3609 3500 
L 1753 1863 
L 3688 0 
L 2938 0 
L 1159 1709 
L 1159 0 
L 581 0 
L 581 4863 
z
" transform="scale(0.015625)"/>
      </defs>
      <use xlink:href="#DejaVuSans-66"/>
      <use xlink:href="#DejaVuSans-6f" transform="translate(35.205078 0)"/>
      <use xlink:href="#DejaVuSans-72" transform="translate(96.386719 0)"/>
      <use xlink:href="#DejaVuSans-6b" transform="translate(137.5 0)"/>
     </g>
    </g>
   </g>
  </g>
 </g>
 <defs>
  <clipPath id="p78a27f17d4">
   <rect x="108" y="43.2" width="669.6" height="277.2"/>
  </clipPath>
 </defs>
</svg>
