<?xml version="1.0" encoding="utf-8" standalone="no"?>
<!DOCTYPE svg PUBLIC "-//W3C//DTD SVG 1.1//EN"
  "http://www.w3.org/Graphics/SVG/1.1/DTD/svg11.dtd">
<svg xmlns:xlink="http://www.w3.org/1999/xlink" width="864pt" height="360pt" viewBox="0 0 864 360" xmlns="http://www.w3.org/2000/svg" version="1.1">
 <metadata>
  <rdf:RDF xmlns:dc="http://purl.org/dc/elements/1.1/" xmlns:cc="http://creativecommons.org/ns#" xmlns:rdf="http://www.w3.org/1999/02/22-rdf-syntax-ns#">
   <cc:Work>
    <dc:type rdf:resource="http://purl.org/dc/dcmitype/StillImage"/>
    <dc:date>2025-06-26T20:07:44.829499</dc:date>
    <dc:format>image/svg+xml</dc:format>
    <dc:creator>
     <cc:Agent>
      <dc:title>Matplotlib v3.10.3, https://matplotlib.org/</dc:title>
     </cc:Agent>
    </dc:creator>
   </cc:Work>
  </rdf:RDF>
 </metadata>
 <defs>
  <style type="text/css">*{stroke-linejoin: round; stroke-linecap: butt}</style>
 </defs>
 <g id="figure_1">
  <g id="patch_1">
   <path d="M 0 360 
L 864 360 
L 864 0 
L 0 0 
L 0 360 
z
" style="fill: none; opacity: 0"/>
  </g>
  <g id="axes_1">
   <g id="patch_2">
    <path d="M 108 320.4 
L 777.6 320.4 
L 777.6 43.2 
L 108 43.2 
L 108 320.4 
z
" style="fill: none; opacity: 0"/>
   </g>
   <g id="matplotlib.axis_1">
    <g id="xtick_1">
     <g id="line2d_1">
      <path d="M 128.666142 320.4 
L 128.666142 43.2 
" clip-path="url(#pc7a8db6845)" style="fill: none; stroke-dasharray: 5.12,1.28,0.8,1.28; stroke-dashoffset: 0; stroke: #b0b0b0; stroke-width: 0.8"/>
     </g>
     <g id="line2d_2">
      <defs>
       <path id="md74820e0a7" d="M 0 0 
L 0 3.5 
" style="stroke: #a9a9a9; stroke-width: 0.8"/>
      </defs>
      <g>
       <use xlink:href="#md74820e0a7" x="128.666142" y="320.4" style="fill: #a9a9a9; stroke: #a9a9a9; stroke-width: 0.8"/>
      </g>
     </g>
     <g id="text_1">
      <!-- 2021-07 -->
      <g style="fill: #a9a9a9" transform="translate(107.774736 334.998438) scale(0.1 -0.1)">
       <defs>
        <path id="DejaVuSans-32" d="M 1228 531 
L 3431 531 
L 3431 0 
L 469 0 
L 469 531 
Q 828 903 1448 1529 
Q 2069 2156 2228 2338 
Q 2531 2678 2651 2914 
Q 2772 3150 2772 3378 
Q 2772 3750 2511 3984 
Q 2250 4219 1831 4219 
Q 1534 4219 1204 4116 
Q 875 4013 500 3803 
L 500 4441 
Q 881 4594 1212 4672 
Q 1544 4750 1819 4750 
Q 2544 4750 2975 4387 
Q 3406 4025 3406 3419 
Q 3406 3131 3298 2873 
Q 3191 2616 2906 2266 
Q 2828 2175 2409 1742 
Q 1991 1309 1228 531 
z
" transform="scale(0.015625)"/>
        <path id="DejaVuSans-30" d="M 2034 4250 
Q 1547 4250 1301 3770 
Q 1056 3291 1056 2328 
Q 1056 1369 1301 889 
Q 1547 409 2034 409 
Q 2525 409 2770 889 
Q 3016 1369 3016 2328 
Q 3016 3291 2770 3770 
Q 2525 4250 2034 4250 
z
M 2034 4750 
Q 2819 4750 3233 4129 
Q 3647 3509 3647 2328 
Q 3647 1150 3233 529 
Q 2819 -91 2034 -91 
Q 1250 -91 836 529 
Q 422 1150 422 2328 
Q 422 3509 836 4129 
Q 1250 4750 2034 4750 
z
" transform="scale(0.015625)"/>
        <path id="DejaVuSans-31" d="M 794 531 
L 1825 531 
L 1825 4091 
L 703 3866 
L 703 4441 
L 1819 4666 
L 2450 4666 
L 2450 531 
L 3481 531 
L 3481 0 
L 794 0 
L 794 531 
z
" transform="scale(0.015625)"/>
        <path id="DejaVuSans-2d" d="M 313 2009 
L 1997 2009 
L 1997 1497 
L 313 1497 
L 313 2009 
z
" transform="scale(0.015625)"/>
        <path id="DejaVuSans-37" d="M 525 4666 
L 3525 4666 
L 3525 4397 
L 1831 0 
L 1172 0 
L 2766 4134 
L 525 4134 
L 525 4666 
z
" transform="scale(0.015625)"/>
       </defs>
       <use xlink:href="#DejaVuSans-32"/>
       <use xlink:href="#DejaVuSans-30" transform="translate(63.623047 0)"/>
       <use xlink:href="#DejaVuSans-32" transform="translate(127.246094 0)"/>
       <use xlink:href="#DejaVuSans-31" transform="translate(190.869141 0)"/>
       <use xlink:href="#DejaVuSans-2d" transform="translate(254.492188 0)"/>
       <use xlink:href="#DejaVuSans-30" transform="translate(290.576172 0)"/>
       <use xlink:href="#DejaVuSans-37" transform="translate(354.199219 0)"/>
      </g>
     </g>
    </g>
    <g id="xtick_2">
     <g id="line2d_3">
      <path d="M 206.827913 320.4 
L 206.827913 43.2 
" clip-path="url(#pc7a8db6845)" style="fill: none; stroke-dasharray: 5.12,1.28,0.8,1.28; stroke-dashoffset: 0; stroke: #b0b0b0; stroke-width: 0.8"/>
     </g>
     <g id="line2d_4">
      <g>
       <use xlink:href="#md74820e0a7" x="206.827913" y="320.4" style="fill: #a9a9a9; stroke: #a9a9a9; stroke-width: 0.8"/>
      </g>
     </g>
     <g id="text_2">
      <!-- 2022-01 -->
      <g style="fill: #a9a9a9" transform="translate(185.936507 334.998438) scale(0.1 -0.1)">
       <use xlink:href="#DejaVuSans-32"/>
       <use xlink:href="#DejaVuSans-30" transform="translate(63.623047 0)"/>
       <use xlink:href="#DejaVuSans-32" transform="translate(127.246094 0)"/>
       <use xlink:href="#DejaVuSans-32" transform="translate(190.869141 0)"/>
       <use xlink:href="#DejaVuSans-2d" transform="translate(254.492188 0)"/>
       <use xlink:href="#DejaVuSans-30" transform="translate(290.576172 0)"/>
       <use xlink:href="#DejaVuSans-31" transform="translate(354.199219 0)"/>
      </g>
     </g>
    </g>
    <g id="xtick_3">
     <g id="line2d_5">
      <path d="M 283.715308 320.4 
L 283.715308 43.2 
" clip-path="url(#pc7a8db6845)" style="fill: none; stroke-dasharray: 5.12,1.28,0.8,1.28; stroke-dashoffset: 0; stroke: #b0b0b0; stroke-width: 0.8"/>
     </g>
     <g id="line2d_6">
      <g>
       <use xlink:href="#md74820e0a7" x="283.715308" y="320.4" style="fill: #a9a9a9; stroke: #a9a9a9; stroke-width: 0.8"/>
      </g>
     </g>
     <g id="text_3">
      <!-- 2022-07 -->
      <g style="fill: #a9a9a9" transform="translate(262.823902 334.998438) scale(0.1 -0.1)">
       <use xlink:href="#DejaVuSans-32"/>
       <use xlink:href="#DejaVuSans-30" transform="translate(63.623047 0)"/>
       <use xlink:href="#DejaVuSans-32" transform="translate(127.246094 0)"/>
       <use xlink:href="#DejaVuSans-32" transform="translate(190.869141 0)"/>
       <use xlink:href="#DejaVuSans-2d" transform="translate(254.492188 0)"/>
       <use xlink:href="#DejaVuSans-30" transform="translate(290.576172 0)"/>
       <use xlink:href="#DejaVuSans-37" transform="translate(354.199219 0)"/>
      </g>
     </g>
    </g>
    <g id="xtick_4">
     <g id="line2d_7">
      <path d="M 361.877079 320.4 
L 361.877079 43.2 
" clip-path="url(#pc7a8db6845)" style="fill: none; stroke-dasharray: 5.12,1.28,0.8,1.28; stroke-dashoffset: 0; stroke: #b0b0b0; stroke-width: 0.8"/>
     </g>
     <g id="line2d_8">
      <g>
       <use xlink:href="#md74820e0a7" x="361.877079" y="320.4" style="fill: #a9a9a9; stroke: #a9a9a9; stroke-width: 0.8"/>
      </g>
     </g>
     <g id="text_4">
      <!-- 2023-01 -->
      <g style="fill: #a9a9a9" transform="translate(340.985673 334.998438) scale(0.1 -0.1)">
       <defs>
        <path id="DejaVuSans-33" d="M 2597 2516 
Q 3050 2419 3304 2112 
Q 3559 1806 3559 1356 
Q 3559 666 3084 287 
Q 2609 -91 1734 -91 
Q 1441 -91 1130 -33 
Q 819 25 488 141 
L 488 750 
Q 750 597 1062 519 
Q 1375 441 1716 441 
Q 2309 441 2620 675 
Q 2931 909 2931 1356 
Q 2931 1769 2642 2001 
Q 2353 2234 1838 2234 
L 1294 2234 
L 1294 2753 
L 1863 2753 
Q 2328 2753 2575 2939 
Q 2822 3125 2822 3475 
Q 2822 3834 2567 4026 
Q 2313 4219 1838 4219 
Q 1578 4219 1281 4162 
Q 984 4106 628 3988 
L 628 4550 
Q 988 4650 1302 4700 
Q 1616 4750 1894 4750 
Q 2613 4750 3031 4423 
Q 3450 4097 3450 3541 
Q 3450 3153 3228 2886 
Q 3006 2619 2597 2516 
z
" transform="scale(0.015625)"/>
       </defs>
       <use xlink:href="#DejaVuSans-32"/>
       <use xlink:href="#DejaVuSans-30" transform="translate(63.623047 0)"/>
       <use xlink:href="#DejaVuSans-32" transform="translate(127.246094 0)"/>
       <use xlink:href="#DejaVuSans-33" transform="translate(190.869141 0)"/>
       <use xlink:href="#DejaVuSans-2d" transform="translate(254.492188 0)"/>
       <use xlink:href="#DejaVuSans-30" transform="translate(290.576172 0)"/>
       <use xlink:href="#DejaVuSans-31" transform="translate(354.199219 0)"/>
      </g>
     </g>
    </g>
    <g id="xtick_5">
     <g id="line2d_9">
      <path d="M 438.764474 320.4 
L 438.764474 43.2 
" clip-path="url(#pc7a8db6845)" style="fill: none; stroke-dasharray: 5.12,1.28,0.8,1.28; stroke-dashoffset: 0; stroke: #b0b0b0; stroke-width: 0.8"/>
     </g>
     <g id="line2d_10">
      <g>
       <use xlink:href="#md74820e0a7" x="438.764474" y="320.4" style="fill: #a9a9a9; stroke: #a9a9a9; stroke-width: 0.8"/>
      </g>
     </g>
     <g id="text_5">
      <!-- 2023-07 -->
      <g style="fill: #a9a9a9" transform="translate(417.873068 334.998438) scale(0.1 -0.1)">
       <use xlink:href="#DejaVuSans-32"/>
       <use xlink:href="#DejaVuSans-30" transform="translate(63.623047 0)"/>
       <use xlink:href="#DejaVuSans-32" transform="translate(127.246094 0)"/>
       <use xlink:href="#DejaVuSans-33" transform="translate(190.869141 0)"/>
       <use xlink:href="#DejaVuSans-2d" transform="translate(254.492188 0)"/>
       <use xlink:href="#DejaVuSans-30" transform="translate(290.576172 0)"/>
       <use xlink:href="#DejaVuSans-37" transform="translate(354.199219 0)"/>
      </g>
     </g>
    </g>
    <g id="xtick_6">
     <g id="line2d_11">
      <path d="M 516.926245 320.4 
L 516.926245 43.2 
" clip-path="url(#pc7a8db6845)" style="fill: none; stroke-dasharray: 5.12,1.28,0.8,1.28; stroke-dashoffset: 0; stroke: #b0b0b0; stroke-width: 0.8"/>
     </g>
     <g id="line2d_12">
      <g>
       <use xlink:href="#md74820e0a7" x="516.926245" y="320.4" style="fill: #a9a9a9; stroke: #a9a9a9; stroke-width: 0.8"/>
      </g>
     </g>
     <g id="text_6">
      <!-- 2024-01 -->
      <g style="fill: #a9a9a9" transform="translate(496.034839 334.998438) scale(0.1 -0.1)">
       <defs>
        <path id="DejaVuSans-34" d="M 2419 4116 
L 825 1625 
L 2419 1625 
L 2419 4116 
z
M 2253 4666 
L 3047 4666 
L 3047 1625 
L 3713 1625 
L 3713 1100 
L 3047 1100 
L 3047 0 
L 2419 0 
L 2419 1100 
L 313 1100 
L 313 1709 
L 2253 4666 
z
" transform="scale(0.015625)"/>
       </defs>
       <use xlink:href="#DejaVuSans-32"/>
       <use xlink:href="#DejaVuSans-30" transform="translate(63.623047 0)"/>
       <use xlink:href="#DejaVuSans-32" transform="translate(127.246094 0)"/>
       <use xlink:href="#DejaVuSans-34" transform="translate(190.869141 0)"/>
       <use xlink:href="#DejaVuSans-2d" transform="translate(254.492188 0)"/>
       <use xlink:href="#DejaVuSans-30" transform="translate(290.576172 0)"/>
       <use xlink:href="#DejaVuSans-31" transform="translate(354.199219 0)"/>
      </g>
     </g>
    </g>
    <g id="xtick_7">
     <g id="line2d_13">
      <path d="M 594.238432 320.4 
L 594.238432 43.2 
" clip-path="url(#pc7a8db6845)" style="fill: none; stroke-dasharray: 5.12,1.28,0.8,1.28; stroke-dashoffset: 0; stroke: #b0b0b0; stroke-width: 0.8"/>
     </g>
     <g id="line2d_14">
      <g>
       <use xlink:href="#md74820e0a7" x="594.238432" y="320.4" style="fill: #a9a9a9; stroke: #a9a9a9; stroke-width: 0.8"/>
      </g>
     </g>
     <g id="text_7">
      <!-- 2024-07 -->
      <g style="fill: #a9a9a9" transform="translate(573.347026 334.998438) scale(0.1 -0.1)">
       <use xlink:href="#DejaVuSans-32"/>
       <use xlink:href="#DejaVuSans-30" transform="translate(63.623047 0)"/>
       <use xlink:href="#DejaVuSans-32" transform="translate(127.246094 0)"/>
       <use xlink:href="#DejaVuSans-34" transform="translate(190.869141 0)"/>
       <use xlink:href="#DejaVuSans-2d" transform="translate(254.492188 0)"/>
       <use xlink:href="#DejaVuSans-30" transform="translate(290.576172 0)"/>
       <use xlink:href="#DejaVuSans-37" transform="translate(354.199219 0)"/>
      </g>
     </g>
    </g>
    <g id="xtick_8">
     <g id="line2d_15">
      <path d="M 672.400203 320.4 
L 672.400203 43.2 
" clip-path="url(#pc7a8db6845)" style="fill: none; stroke-dasharray: 5.12,1.28,0.8,1.28; stroke-dashoffset: 0; stroke: #b0b0b0; stroke-width: 0.8"/>
     </g>
     <g id="line2d_16">
      <g>
       <use xlink:href="#md74820e0a7" x="672.400203" y="320.4" style="fill: #a9a9a9; stroke: #a9a9a9; stroke-width: 0.8"/>
      </g>
     </g>
     <g id="text_8">
      <!-- 2025-01 -->
      <g style="fill: #a9a9a9" transform="translate(651.508797 334.998438) scale(0.1 -0.1)">
       <defs>
        <path id="DejaVuSans-35" d="M 691 4666 
L 3169 4666 
L 3169 4134 
L 1269 4134 
L 1269 2991 
Q 1406 3038 1543 3061 
Q 1681 3084 1819 3084 
Q 2600 3084 3056 2656 
Q 3513 2228 3513 1497 
Q 3513 744 3044 326 
Q 2575 -91 1722 -91 
Q 1428 -91 1123 -41 
Q 819 9 494 109 
L 494 744 
Q 775 591 1075 516 
Q 1375 441 1709 441 
Q 2250 441 2565 725 
Q 2881 1009 2881 1497 
Q 2881 1984 2565 2268 
Q 2250 2553 1709 2553 
Q 1456 2553 1204 2497 
Q 953 2441 691 2322 
L 691 4666 
z
" transform="scale(0.015625)"/>
       </defs>
       <use xlink:href="#DejaVuSans-32"/>
       <use xlink:href="#DejaVuSans-30" transform="translate(63.623047 0)"/>
       <use xlink:href="#DejaVuSans-32" transform="translate(127.246094 0)"/>
       <use xlink:href="#DejaVuSans-35" transform="translate(190.869141 0)"/>
       <use xlink:href="#DejaVuSans-2d" transform="translate(254.492188 0)"/>
       <use xlink:href="#DejaVuSans-30" transform="translate(290.576172 0)"/>
       <use xlink:href="#DejaVuSans-31" transform="translate(354.199219 0)"/>
      </g>
     </g>
    </g>
    <g id="xtick_9">
     <g id="line2d_17">
      <path d="M 749.287598 320.4 
L 749.287598 43.2 
" clip-path="url(#pc7a8db6845)" style="fill: none; stroke-dasharray: 5.12,1.28,0.8,1.28; stroke-dashoffset: 0; stroke: #b0b0b0; stroke-width: 0.8"/>
     </g>
     <g id="line2d_18">
      <g>
       <use xlink:href="#md74820e0a7" x="749.287598" y="320.4" style="fill: #a9a9a9; stroke: #a9a9a9; stroke-width: 0.8"/>
      </g>
     </g>
     <g id="text_9">
      <!-- 2025-07 -->
      <g style="fill: #a9a9a9" transform="translate(728.396191 334.998438) scale(0.1 -0.1)">
       <use xlink:href="#DejaVuSans-32"/>
       <use xlink:href="#DejaVuSans-30" transform="translate(63.623047 0)"/>
       <use xlink:href="#DejaVuSans-32" transform="translate(127.246094 0)"/>
       <use xlink:href="#DejaVuSans-35" transform="translate(190.869141 0)"/>
       <use xlink:href="#DejaVuSans-2d" transform="translate(254.492188 0)"/>
       <use xlink:href="#DejaVuSans-30" transform="translate(290.576172 0)"/>
       <use xlink:href="#DejaVuSans-37" transform="translate(354.199219 0)"/>
      </g>
     </g>
    </g>
   </g>
   <g id="matplotlib.axis_2">
    <g id="ytick_1">
     <g id="line2d_19">
      <path d="M 108 307.832362 
L 777.6 307.832362 
" clip-path="url(#pc7a8db6845)" style="fill: none; stroke-dasharray: 5.12,1.28,0.8,1.28; stroke-dashoffset: 0; stroke: #b0b0b0; stroke-width: 0.8"/>
     </g>
     <g id="line2d_20">
      <defs>
       <path id="m60d83a3026" d="M 0 0 
L -3.5 0 
" style="stroke: #a9a9a9; stroke-width: 0.8"/>
      </defs>
      <g>
       <use xlink:href="#m60d83a3026" x="108" y="307.832362" style="fill: #a9a9a9; stroke: #a9a9a9; stroke-width: 0.8"/>
      </g>
     </g>
     <g id="text_10">
      <!-- 0 -->
      <g style="fill: #a9a9a9" transform="translate(94.6375 311.63158) scale(0.1 -0.1)">
       <use xlink:href="#DejaVuSans-30"/>
      </g>
     </g>
    </g>
    <g id="ytick_2">
     <g id="line2d_21">
      <path d="M 108 275.470733 
L 777.6 275.470733 
" clip-path="url(#pc7a8db6845)" style="fill: none; stroke-dasharray: 5.12,1.28,0.8,1.28; stroke-dashoffset: 0; stroke: #b0b0b0; stroke-width: 0.8"/>
     </g>
     <g id="line2d_22">
      <g>
       <use xlink:href="#m60d83a3026" x="108" y="275.470733" style="fill: #a9a9a9; stroke: #a9a9a9; stroke-width: 0.8"/>
      </g>
     </g>
     <g id="text_11">
      <!-- 1000 -->
      <g style="fill: #a9a9a9" transform="translate(75.55 279.269952) scale(0.1 -0.1)">
       <use xlink:href="#DejaVuSans-31"/>
       <use xlink:href="#DejaVuSans-30" transform="translate(63.623047 0)"/>
       <use xlink:href="#DejaVuSans-30" transform="translate(127.246094 0)"/>
       <use xlink:href="#DejaVuSans-30" transform="translate(190.869141 0)"/>
      </g>
     </g>
    </g>
    <g id="ytick_3">
     <g id="line2d_23">
      <path d="M 108 243.109105 
L 777.6 243.109105 
" clip-path="url(#pc7a8db6845)" style="fill: none; stroke-dasharray: 5.12,1.28,0.8,1.28; stroke-dashoffset: 0; stroke: #b0b0b0; stroke-width: 0.8"/>
     </g>
     <g id="line2d_24">
      <g>
       <use xlink:href="#m60d83a3026" x="108" y="243.109105" style="fill: #a9a9a9; stroke: #a9a9a9; stroke-width: 0.8"/>
      </g>
     </g>
     <g id="text_12">
      <!-- 2000 -->
      <g style="fill: #a9a9a9" transform="translate(75.55 246.908324) scale(0.1 -0.1)">
       <use xlink:href="#DejaVuSans-32"/>
       <use xlink:href="#DejaVuSans-30" transform="translate(63.623047 0)"/>
       <use xlink:href="#DejaVuSans-30" transform="translate(127.246094 0)"/>
       <use xlink:href="#DejaVuSans-30" transform="translate(190.869141 0)"/>
      </g>
     </g>
    </g>
    <g id="ytick_4">
     <g id="line2d_25">
      <path d="M 108 210.747477 
L 777.6 210.747477 
" clip-path="url(#pc7a8db6845)" style="fill: none; stroke-dasharray: 5.12,1.28,0.8,1.28; stroke-dashoffset: 0; stroke: #b0b0b0; stroke-width: 0.8"/>
     </g>
     <g id="line2d_26">
      <g>
       <use xlink:href="#m60d83a3026" x="108" y="210.747477" style="fill: #a9a9a9; stroke: #a9a9a9; stroke-width: 0.8"/>
      </g>
     </g>
     <g id="text_13">
      <!-- 3000 -->
      <g style="fill: #a9a9a9" transform="translate(75.55 214.546695) scale(0.1 -0.1)">
       <use xlink:href="#DejaVuSans-33"/>
       <use xlink:href="#DejaVuSans-30" transform="translate(63.623047 0)"/>
       <use xlink:href="#DejaVuSans-30" transform="translate(127.246094 0)"/>
       <use xlink:href="#DejaVuSans-30" transform="translate(190.869141 0)"/>
      </g>
     </g>
    </g>
    <g id="ytick_5">
     <g id="line2d_27">
      <path d="M 108 178.385848 
L 777.6 178.385848 
" clip-path="url(#pc7a8db6845)" style="fill: none; stroke-dasharray: 5.12,1.28,0.8,1.28; stroke-dashoffset: 0; stroke: #b0b0b0; stroke-width: 0.8"/>
     </g>
     <g id="line2d_28">
      <g>
       <use xlink:href="#m60d83a3026" x="108" y="178.385848" style="fill: #a9a9a9; stroke: #a9a9a9; stroke-width: 0.8"/>
      </g>
     </g>
     <g id="text_14">
      <!-- 4000 -->
      <g style="fill: #a9a9a9" transform="translate(75.55 182.185067) scale(0.1 -0.1)">
       <use xlink:href="#DejaVuSans-34"/>
       <use xlink:href="#DejaVuSans-30" transform="translate(63.623047 0)"/>
       <use xlink:href="#DejaVuSans-30" transform="translate(127.246094 0)"/>
       <use xlink:href="#DejaVuSans-30" transform="translate(190.869141 0)"/>
      </g>
     </g>
    </g>
    <g id="ytick_6">
     <g id="line2d_29">
      <path d="M 108 146.02422 
L 777.6 146.02422 
" clip-path="url(#pc7a8db6845)" style="fill: none; stroke-dasharray: 5.12,1.28,0.8,1.28; stroke-dashoffset: 0; stroke: #b0b0b0; stroke-width: 0.8"/>
     </g>
     <g id="line2d_30">
      <g>
       <use xlink:href="#m60d83a3026" x="108" y="146.02422" style="fill: #a9a9a9; stroke: #a9a9a9; stroke-width: 0.8"/>
      </g>
     </g>
     <g id="text_15">
      <!-- 5000 -->
      <g style="fill: #a9a9a9" transform="translate(75.55 149.823439) scale(0.1 -0.1)">
       <use xlink:href="#DejaVuSans-35"/>
       <use xlink:href="#DejaVuSans-30" transform="translate(63.623047 0)"/>
       <use xlink:href="#DejaVuSans-30" transform="translate(127.246094 0)"/>
       <use xlink:href="#DejaVuSans-30" transform="translate(190.869141 0)"/>
      </g>
     </g>
    </g>
    <g id="ytick_7">
     <g id="line2d_31">
      <path d="M 108 113.662591 
L 777.6 113.662591 
" clip-path="url(#pc7a8db6845)" style="fill: none; stroke-dasharray: 5.12,1.28,0.8,1.28; stroke-dashoffset: 0; stroke: #b0b0b0; stroke-width: 0.8"/>
     </g>
     <g id="line2d_32">
      <g>
       <use xlink:href="#m60d83a3026" x="108" y="113.662591" style="fill: #a9a9a9; stroke: #a9a9a9; stroke-width: 0.8"/>
      </g>
     </g>
     <g id="text_16">
      <!-- 6000 -->
      <g style="fill: #a9a9a9" transform="translate(75.55 117.46181) scale(0.1 -0.1)">
       <defs>
        <path id="DejaVuSans-36" d="M 2113 2584 
Q 1688 2584 1439 2293 
Q 1191 2003 1191 1497 
Q 1191 994 1439 701 
Q 1688 409 2113 409 
Q 2538 409 2786 701 
Q 3034 994 3034 1497 
Q 3034 2003 2786 2293 
Q 2538 2584 2113 2584 
z
M 3366 4563 
L 3366 3988 
Q 3128 4100 2886 4159 
Q 2644 4219 2406 4219 
Q 1781 4219 1451 3797 
Q 1122 3375 1075 2522 
Q 1259 2794 1537 2939 
Q 1816 3084 2150 3084 
Q 2853 3084 3261 2657 
Q 3669 2231 3669 1497 
Q 3669 778 3244 343 
Q 2819 -91 2113 -91 
Q 1303 -91 875 529 
Q 447 1150 447 2328 
Q 447 3434 972 4092 
Q 1497 4750 2381 4750 
Q 2619 4750 2861 4703 
Q 3103 4656 3366 4563 
z
" transform="scale(0.015625)"/>
       </defs>
       <use xlink:href="#DejaVuSans-36"/>
       <use xlink:href="#DejaVuSans-30" transform="translate(63.623047 0)"/>
       <use xlink:href="#DejaVuSans-30" transform="translate(127.246094 0)"/>
       <use xlink:href="#DejaVuSans-30" transform="translate(190.869141 0)"/>
      </g>
     </g>
    </g>
    <g id="ytick_8">
     <g id="line2d_33">
      <path d="M 108 81.300963 
L 777.6 81.300963 
" clip-path="url(#pc7a8db6845)" style="fill: none; stroke-dasharray: 5.12,1.28,0.8,1.28; stroke-dashoffset: 0; stroke: #b0b0b0; stroke-width: 0.8"/>
     </g>
     <g id="line2d_34">
      <g>
       <use xlink:href="#m60d83a3026" x="108" y="81.300963" style="fill: #a9a9a9; stroke: #a9a9a9; stroke-width: 0.8"/>
      </g>
     </g>
     <g id="text_17">
      <!-- 7000 -->
      <g style="fill: #a9a9a9" transform="translate(75.55 85.100182) scale(0.1 -0.1)">
       <use xlink:href="#DejaVuSans-37"/>
       <use xlink:href="#DejaVuSans-30" transform="translate(63.623047 0)"/>
       <use xlink:href="#DejaVuSans-30" transform="translate(127.246094 0)"/>
       <use xlink:href="#DejaVuSans-30" transform="translate(190.869141 0)"/>
      </g>
     </g>
    </g>
    <g id="ytick_9">
     <g id="line2d_35">
      <path d="M 108 48.939335 
L 777.6 48.939335 
" clip-path="url(#pc7a8db6845)" style="fill: none; stroke-dasharray: 5.12,1.28,0.8,1.28; stroke-dashoffset: 0; stroke: #b0b0b0; stroke-width: 0.8"/>
     </g>
     <g id="line2d_36">
      <g>
       <use xlink:href="#m60d83a3026" x="108" y="48.939335" style="fill: #a9a9a9; stroke: #a9a9a9; stroke-width: 0.8"/>
      </g>
     </g>
     <g id="text_18">
      <!-- 8000 -->
      <g style="fill: #a9a9a9" transform="translate(75.55 52.738554) scale(0.1 -0.1)">
       <defs>
        <path id="DejaVuSans-38" d="M 2034 2216 
Q 1584 2216 1326 1975 
Q 1069 1734 1069 1313 
Q 1069 891 1326 650 
Q 1584 409 2034 409 
Q 2484 409 2743 651 
Q 3003 894 3003 1313 
Q 3003 1734 2745 1975 
Q 2488 2216 2034 2216 
z
M 1403 2484 
Q 997 2584 770 2862 
Q 544 3141 544 3541 
Q 544 4100 942 4425 
Q 1341 4750 2034 4750 
Q 2731 4750 3128 4425 
Q 3525 4100 3525 3541 
Q 3525 3141 3298 2862 
Q 3072 2584 2669 2484 
Q 3125 2378 3379 2068 
Q 3634 1759 3634 1313 
Q 3634 634 3220 271 
Q 2806 -91 2034 -91 
Q 1263 -91 848 271 
Q 434 634 434 1313 
Q 434 1759 690 2068 
Q 947 2378 1403 2484 
z
M 1172 3481 
Q 1172 3119 1398 2916 
Q 1625 2713 2034 2713 
Q 2441 2713 2670 2916 
Q 2900 3119 2900 3481 
Q 2900 3844 2670 4047 
Q 2441 4250 2034 4250 
Q 1625 4250 1398 4047 
Q 1172 3844 1172 3481 
z
" transform="scale(0.015625)"/>
       </defs>
       <use xlink:href="#DejaVuSans-38"/>
       <use xlink:href="#DejaVuSans-30" transform="translate(63.623047 0)"/>
       <use xlink:href="#DejaVuSans-30" transform="translate(127.246094 0)"/>
       <use xlink:href="#DejaVuSans-30" transform="translate(190.869141 0)"/>
      </g>
     </g>
    </g>
   </g>
   <g id="line2d_37">
    <path d="M 138.436364 307.735277 
L 140.985117 307.508745 
L 141.409909 307.314576 
L 143.109078 307.088044 
L 144.808247 306.732066 
L 145.657832 306.60262 
L 147.781793 306.40845 
L 148.631377 306.052472 
L 149.05617 305.469963 
L 149.480962 305.178708 
L 149.905754 304.207859 
L 150.330546 304.143136 
L 150.755338 303.787158 
L 151.604923 303.334095 
L 153.304092 301.910184 
L 155.003261 301.03642 
L 156.277638 300.421549 
L 156.70243 299.709593 
L 157.552014 299.06236 
L 157.976806 298.868191 
L 162.224729 298.220958 
L 162.649521 298.026788 
L 165.623067 297.767895 
L 167.322236 297.347194 
L 170.720573 296.86177 
L 171.145366 296.635238 
L 171.570158 296.570515 
L 172.419742 296.27926 
L 175.393288 295.761474 
L 176.242873 295.502581 
L 180.066003 294.855349 
L 180.915587 294.661179 
L 181.765172 294.628817 
L 183.464341 294.208116 
L 183.889133 293.593245 
L 185.163509 293.075459 
L 186.437886 292.719481 
L 186.862678 292.49295 
L 187.712263 292.331142 
L 189.411432 291.813356 
L 190.261016 291.748632 
L 191.110601 291.522101 
L 192.80977 291.069038 
L 193.234562 291.036677 
L 194.084146 290.615975 
L 194.508939 290.551252 
L 194.933731 290.324721 
L 199.606445 289.51568 
L 201.305614 288.997894 
L 201.730407 288.706639 
L 203.854368 287.994683 
L 204.703952 287.379813 
L 205.978329 287.120919 
L 215.323758 284.305458 
L 215.74855 284.273096 
L 217.022927 283.884757 
L 217.447719 283.884757 
L 217.872512 283.690587 
L 218.722096 283.593502 
L 219.146888 283.431694 
L 220.846057 283.366971 
L 221.695642 283.205162 
L 222.545226 282.7521 
L 223.819603 282.266675 
L 224.669187 281.813612 
L 225.518772 281.36055 
L 226.368356 281.069295 
L 226.793149 280.939848 
L 227.642733 280.389701 
L 228.067525 279.904276 
L 228.91711 278.545088 
L 229.341902 278.415641 
L 229.766694 278.415641 
L 231.465863 277.444793 
L 231.890655 277.347708 
L 232.315448 276.927007 
L 233.165032 276.571029 
L 234.014617 276.182689 
L 234.439409 275.664903 
L 234.864201 274.952947 
L 235.288993 274.661693 
L 235.713785 273.885013 
L 236.138578 273.399589 
L 238.687331 271.975677 
L 239.536916 271.263722 
L 239.961708 271.004829 
L 240.3865 270.389958 
L 240.811292 269.386747 
L 241.236085 268.707153 
L 241.660877 268.351175 
L 242.085669 268.157005 
L 245.484007 264.953204 
L 246.333591 264.144163 
L 248.882345 262.49372 
L 249.307137 262.331912 
L 251.006306 261.29634 
L 251.431098 261.10217 
L 253.555059 259.095749 
L 254.404644 258.739771 
L 255.254228 258.1249 
L 255.67902 257.866007 
L 256.103813 257.801284 
L 257.378189 257.056967 
L 257.802982 256.571542 
L 259.926943 255.374162 
L 260.351735 255.212354 
L 261.626112 254.306228 
L 267.997995 251.976191 
L 268.84758 251.16715 
L 270.121956 250.519918 
L 270.971541 249.96977 
L 271.821125 249.710877 
L 272.245918 249.419622 
L 272.67071 249.290176 
L 273.945087 248.416412 
L 276.069048 247.930988 
L 277.343424 247.154308 
L 278.617801 246.863054 
L 279.042593 246.765969 
L 280.31697 245.762758 
L 282.016139 245.277334 
L 282.440931 244.921356 
L 284.989685 244.015231 
L 285.839269 243.853422 
L 286.688854 243.497444 
L 289.662399 242.364787 
L 290.511984 242.235341 
L 291.78636 241.782278 
L 293.910322 240.714344 
L 296.459075 239.258071 
L 297.30866 239.03154 
L 298.583036 238.384307 
L 299.432621 238.222499 
L 300.282205 237.704713 
L 301.13179 237.478182 
L 302.406166 236.960396 
L 304.105335 236.733864 
L 304.95492 236.280801 
L 305.379712 235.892462 
L 305.804504 235.115783 
L 307.503673 234.630358 
L 308.77805 233.950764 
L 309.627634 233.659509 
L 310.902011 233.012277 
L 313.025972 232.138513 
L 313.875557 231.944343 
L 315.149933 231.297111 
L 315.574726 231.232387 
L 317.698687 230.164454 
L 318.548271 229.614306 
L 319.822648 229.355413 
L 321.946609 228.805265 
L 322.371401 228.449287 
L 323.220986 228.158033 
L 325.344947 227.284269 
L 325.769739 226.960652 
L 326.194531 226.798844 
L 327.044116 226.31342 
L 328.743285 225.763272 
L 329.592869 225.213124 
L 330.017662 224.760062 
L 330.442454 224.501169 
L 330.867246 224.404084 
L 331.716831 223.692128 
L 332.141623 223.627405 
L 332.566415 222.915449 
L 332.991207 222.721279 
L 333.415999 222.365301 
L 333.840792 222.300578 
L 334.690376 221.75043 
L 335.539961 221.459176 
L 335.964753 221.135559 
L 336.389545 220.973751 
L 338.088714 219.808733 
L 339.363091 219.1615 
L 340.212675 218.934969 
L 341.06226 218.449544 
L 341.487052 217.705227 
L 342.336636 217.057994 
L 342.761429 216.960909 
L 345.310182 215.698806 
L 346.159767 215.342828 
L 347.009351 214.727957 
L 348.283728 213.530577 
L 349.133312 213.012791 
L 349.558104 212.527366 
L 351.257273 211.329986 
L 352.106858 210.456222 
L 352.956442 210.164967 
L 353.806027 209.582458 
L 355.080403 208.902864 
L 355.505196 208.83814 
L 356.779572 208.126185 
L 357.629157 207.576037 
L 361.877079 205.957956 
L 362.301871 205.601978 
L 364.00104 204.922383 
L 364.425833 204.792937 
L 365.275417 204.242789 
L 366.125002 203.886811 
L 366.974586 203.27194 
L 367.824171 201.524412 
L 368.673755 200.48884 
L 369.948132 199.809246 
L 370.797716 199.453268 
L 371.222508 199.388545 
L 372.072093 199.000205 
L 373.771262 198.417696 
L 374.620846 197.932272 
L 375.470431 197.511571 
L 375.895223 197.382124 
L 378.443976 195.828766 
L 378.868769 195.343341 
L 380.143145 194.599024 
L 380.567938 194.437216 
L 381.417522 193.91943 
L 383.116691 192.980943 
L 383.541483 192.883858 
L 383.966275 192.52788 
L 386.939821 191.524669 
L 387.364613 191.201053 
L 388.214198 190.94216 
L 389.063782 190.586182 
L 389.488575 190.230204 
L 391.187743 189.615333 
L 392.037328 189.000462 
L 392.886912 188.644484 
L 393.736497 187.96489 
L 394.586081 187.705997 
L 395.010874 187.317658 
L 395.435666 187.252934 
L 396.28525 186.57334 
L 398.409211 185.311237 
L 399.258796 185.052344 
L 399.683588 184.793451 
L 400.10838 184.728727 
L 401.382757 184.016772 
L 403.081926 183.434262 
L 403.93151 183.304816 
L 404.356303 183.110646 
L 404.781095 183.045923 
L 405.630679 182.657583 
L 406.055472 182.625222 
L 407.754641 181.977989 
L 409.029017 181.039502 
L 409.45381 180.877694 
L 410.303394 180.392269 
L 410.728186 180.262823 
L 413.27694 178.806549 
L 413.701732 178.709464 
L 414.976109 177.932785 
L 416.250485 177.479723 
L 417.10007 177.188468 
L 418.799239 176.605959 
L 419.648823 176.314704 
L 421.347992 175.958726 
L 421.772784 175.764556 
L 422.622369 175.538025 
L 423.047161 175.343855 
L 423.471953 175.279132 
L 423.896746 175.0526 
L 424.74633 174.890792 
L 426.020707 174.405368 
L 426.870291 174.308283 
L 428.144668 174.017028 
L 430.268629 173.628689 
L 441.313227 170.263079 
L 441.738019 169.810017 
L 444.286773 168.742083 
L 445.985942 168.159574 
L 446.410734 167.900681 
L 447.685111 167.512341 
L 448.534695 167.28581 
L 448.959487 166.994555 
L 449.38428 166.89747 
L 449.809072 166.509131 
L 451.083449 166.250238 
L 451.933033 165.861898 
L 452.357825 165.344112 
L 457.03054 164.30854 
L 457.455332 164.30854 
L 457.880124 164.11437 
L 459.579293 163.790754 
L 460.004086 163.596584 
L 461.703254 163.272968 
L 462.552839 162.91699 
L 463.402423 162.755182 
L 465.526385 162.205034 
L 467.225554 161.654886 
L 467.650346 161.557801 
L 468.075138 161.33127 
L 468.924722 161.104739 
L 469.774307 160.748761 
L 470.623891 160.425144 
L 471.048684 160.13389 
L 471.898268 159.874997 
L 474.871814 158.74234 
L 476.570983 158.515808 
L 479.969321 157.253705 
L 480.394113 156.930089 
L 480.818905 156.833004 
L 481.243697 156.606472 
L 481.66849 156.574111 
L 486.341204 154.858944 
L 488.465165 154.276435 
L 489.31475 153.855734 
L 490.589126 153.564479 
L 492.288295 152.140568 
L 493.987464 151.39625 
L 494.837049 151.007911 
L 497.385802 150.0047 
L 497.810594 149.713445 
L 499.934556 149.00149 
L 501.208932 148.257172 
L 501.633725 148.160087 
L 503.757686 146.995069 
L 505.032062 146.412559 
L 505.456855 146.088943 
L 506.306439 145.797688 
L 508.4304 144.697393 
L 509.704777 144.24433 
L 511.403946 143.532374 
L 512.678323 143.04695 
L 513.103115 142.885142 
L 513.952699 142.755695 
L 514.377492 142.464441 
L 516.076661 142.140824 
L 516.926245 141.784847 
L 518.625414 140.975806 
L 524.572505 138.322152 
L 525.846882 137.901451 
L 526.271674 137.610196 
L 527.121259 137.513112 
L 527.546051 137.221857 
L 528.395635 137.09241 
L 529.24522 136.671709 
L 529.670012 136.477539 
L 530.519597 136.251008 
L 531.369181 135.992115 
L 532.643558 135.506691 
L 533.917934 135.085989 
L 535.192311 134.794735 
L 536.89148 134.082779 
L 537.741065 133.629716 
L 539.440233 132.755952 
L 540.289818 132.561782 
L 540.71461 132.302889 
L 541.139402 132.205805 
L 542.413779 131.461487 
L 543.263364 131.105509 
L 552.608793 127.481007 
L 554.307962 126.671966 
L 558.555884 124.989161 
L 559.405469 124.56846 
L 559.830261 124.471375 
L 560.255053 124.244844 
L 561.954222 123.75942 
L 563.653391 122.335508 
L 564.078183 122.206061 
L 564.502975 121.947168 
L 565.777352 121.59119 
L 566.202144 121.267574 
L 566.626936 121.170489 
L 567.901313 120.39381 
L 568.326105 120.102556 
L 569.600482 119.617131 
L 570.025274 119.3906 
L 571.299651 119.099345 
L 573.423612 118.355028 
L 574.273197 118.096135 
L 575.547573 117.41654 
L 576.397158 116.995839 
L 577.246742 116.769308 
L 578.521119 116.154437 
L 582.344249 114.698164 
L 583.618626 113.889123 
L 584.043418 113.792038 
L 584.893003 113.371337 
L 585.742587 113.047721 
L 586.167379 112.659381 
L 587.016964 112.303403 
L 588.29134 111.85034 
L 588.716133 111.494362 
L 589.140925 111.462001 
L 589.990509 111.203108 
L 590.840094 110.911853 
L 591.264886 110.717683 
L 591.689678 110.65296 
L 592.539263 110.296982 
L 593.81364 110.005727 
L 594.663224 109.520303 
L 595.088016 109.358495 
L 595.512808 109.034879 
L 596.787185 108.711262 
L 597.211977 108.452369 
L 598.061562 108.225838 
L 599.335939 107.48152 
L 599.760731 107.449159 
L 601.035108 107.028458 
L 601.884692 106.963734 
L 602.309484 106.737203 
L 603.159069 106.510672 
L 603.583861 106.28414 
L 605.707822 105.863439 
L 606.557407 105.701631 
L 607.831783 105.216206 
L 609.10616 104.924952 
L 610.380537 104.245358 
L 610.805329 103.857018 
L 612.079706 103.080339 
L 612.504498 102.756723 
L 613.778875 102.336022 
L 614.628459 102.10949 
L 618.451589 100.426686 
L 620.150758 99.973623 
L 621.000343 99.585283 
L 621.425135 99.358752 
L 622.274719 99.099859 
L 622.699512 98.873327 
L 623.549096 98.711519 
L 626.947434 97.222884 
L 627.372226 97.158161 
L 628.646603 96.316759 
L 629.071395 96.252035 
L 630.770564 95.572441 
L 632.469733 95.15174 
L 632.894525 95.087017 
L 633.319317 94.892847 
L 633.74411 94.860485 
L 634.593694 94.569231 
L 635.018486 94.536869 
L 636.292863 94.051445 
L 637.992032 93.56602 
L 638.841616 92.918788 
L 640.540785 91.947939 
L 640.965578 91.850854 
L 641.39037 91.624323 
L 642.239954 91.333068 
L 642.664747 91.203621 
L 643.089539 90.847644 
L 644.363915 90.362219 
L 645.2135 89.876795 
L 645.638292 89.650263 
L 646.063084 89.261924 
L 648.187046 88.679414 
L 649.461422 88.096905 
L 650.311007 87.870374 
L 650.735799 87.643842 
L 651.160591 87.287864 
L 652.85976 86.834802 
L 653.284552 86.511185 
L 658.806851 84.472403 
L 659.656436 84.310595 
L 661.780397 83.631 
L 662.629982 83.275022 
L 663.479566 82.951406 
L 664.329151 82.724875 
L 664.753943 82.530705 
L 665.178735 82.530705 
L 666.028319 82.174727 
L 666.877904 81.689303 
L 669.85145 80.686092 
L 671.550619 80.103583 
L 672.824995 79.812328 
L 674.099372 79.391627 
L 674.524164 79.294542 
L 674.948956 79.003288 
L 675.798541 78.809118 
L 677.49771 78.323693 
L 677.922502 78.291332 
L 678.772087 77.902992 
L 681.745632 77.158675 
L 682.595217 76.802697 
L 686.843139 75.831848 
L 688.117516 75.152254 
L 689.391892 74.763914 
L 693.639815 73.178194 
L 694.064607 72.854578 
L 695.338984 72.563323 
L 696.188568 72.30443 
L 697.038153 71.883729 
L 697.462945 71.527751 
L 698.312529 71.268858 
L 698.737322 71.009965 
L 699.586906 70.91288 
L 702.560452 70.071478 
L 703.834828 69.812585 
L 705.109205 69.488969 
L 705.95879 69.262437 
L 707.233166 68.582843 
L 708.932335 67.935611 
L 709.78192 67.482548 
L 710.206712 67.450186 
L 711.056296 67.029485 
L 714.029842 66.188083 
L 715.304219 65.993913 
L 716.153803 65.702658 
L 717.42818 65.314319 
L 721.25131 64.246385 
L 722.100894 64.019854 
L 722.525687 63.922769 
L 722.950479 63.663876 
L 723.800063 63.502068 
L 724.649648 63.404983 
L 725.07444 63.178451 
L 725.499232 63.14609 
L 726.773609 62.498857 
L 728.047986 62.207602 
L 728.89757 61.819263 
L 729.747155 61.528008 
L 730.596739 61.301477 
L 731.446324 60.945499 
L 732.295908 60.654244 
L 733.995077 60.16882 
L 734.844662 60.104097 
L 735.694246 59.812842 
L 736.119038 59.651034 
L 736.968623 59.521587 
L 738.667792 58.744908 
L 739.092584 58.680185 
L 739.517376 58.453654 
L 740.366961 58.291845 
L 741.216545 58.227122 
L 743.340506 57.644613 
L 745.039675 57.094465 
L 745.464467 56.835572 
L 746.314052 56.058893 
L 747.163636 55.8 
L 747.163636 55.8 
" clip-path="url(#pc7a8db6845)" style="fill: none; stroke: #1f77b4; stroke-width: 1.5; stroke-linecap: square"/>
   </g>
   <g id="line2d_38">
    <path d="M 138.861156 307.8 
L 142.684286 307.702915 
L 146.082624 307.541107 
L 147.781793 307.541107 
L 148.206585 307.41166 
L 150.330546 307.314576 
L 152.8793 307.023321 
L 155.428053 306.926236 
L 156.277638 306.829151 
L 159.251183 306.699705 
L 162.224729 306.60262 
L 164.34869 306.537896 
L 169.870989 306.440812 
L 171.99495 306.376088 
L 175.81808 306.279003 
L 177.517249 306.246642 
L 181.765172 306.149557 
L 183.464341 305.987749 
L 185.163509 305.955387 
L 187.712263 305.858302 
L 189.411432 305.825941 
L 191.535393 305.761217 
L 193.234562 305.599409 
L 197.057692 305.502324 
L 197.907277 305.437601 
L 199.606445 305.340516 
L 202.155199 305.243431 
L 203.854368 305.146346 
L 211.500628 304.660922 
L 214.474174 304.563837 
L 215.74855 304.434391 
L 217.872512 304.337306 
L 222.120434 304.110774 
L 226.368356 304.046051 
L 228.067525 303.851881 
L 230.191486 303.754796 
L 234.439409 303.334095 
L 236.988162 303.010479 
L 238.687331 302.945756 
L 242.085669 302.492693 
L 244.634422 302.42797 
L 245.908799 302.298523 
L 247.183176 302.201438 
L 259.077358 301.262951 
L 259.926943 301.101143 
L 262.475696 301.004058 
L 269.272372 300.583357 
L 272.245918 300.486272 
L 273.945087 300.292102 
L 276.069048 300.195017 
L 278.617801 300.097932 
L 280.741762 300.000848 
L 282.440931 299.968486 
L 284.564892 299.903763 
L 285.414477 299.774316 
L 291.361568 299.677231 
L 292.211153 299.580146 
L 297.30866 299.483062 
L 301.13179 299.288892 
L 304.105335 299.191807 
L 305.804504 298.997637 
L 308.77805 298.900552 
L 309.627634 298.771106 
L 311.751596 298.706382 
L 315.999518 298.641659 
L 317.698687 298.479851 
L 319.397856 298.447489 
L 320.672232 298.350405 
L 322.371401 298.188596 
L 326.619324 297.962065 
L 330.867246 297.86498 
L 334.690376 297.67081 
L 335.964753 297.638449 
L 336.814337 297.509002 
L 338.938299 297.411917 
L 339.787883 297.347194 
L 340.637467 297.282471 
L 341.487052 297.217748 
L 345.734974 297.120663 
L 357.629157 296.311622 
L 360.17791 296.214537 
L 362.301871 296.149814 
L 368.248963 296.052729 
L 369.098547 295.923282 
L 375.045639 295.826198 
L 379.293561 295.599666 
L 380.143145 295.567304 
L 380.99273 295.47022 
L 383.116691 295.373135 
L 385.240652 295.308411 
L 387.364613 295.211327 
L 389.488575 295.146603 
L 393.311705 295.049518 
L 395.860458 294.952434 
L 401.807549 294.855349 
L 406.480264 294.596456 
L 408.179433 294.531732 
L 409.45381 294.434647 
L 415.400901 294.337563 
L 417.949654 294.240478 
L 425.595914 294.143393 
L 427.295083 294.111031 
L 432.39259 294.046308 
L 433.242175 293.981585 
L 439.189266 293.8845 
L 440.888435 293.852138 
L 451.933033 293.755053 
L 454.481786 293.657968 
L 472.32306 293.560884 
L 474.447022 293.49616 
L 485.49162 293.431437 
L 486.341204 293.366714 
L 488.465165 293.30199 
L 489.739542 293.172544 
L 492.288295 293.075459 
L 495.261841 292.946013 
L 499.084971 292.848928 
L 501.208932 292.784204 
L 504.182478 292.68712 
L 507.580816 292.525311 
L 509.704777 292.428227 
L 511.403946 292.395865 
L 515.227076 292.29878 
L 516.926245 292.266418 
L 522.448544 292.169334 
L 524.147713 292.136972 
L 526.271674 292.039887 
L 528.820428 291.942802 
L 531.793973 291.878079 
L 532.643558 291.813356 
L 542.838571 291.716271 
L 547.086494 291.489739 
L 550.060039 291.392654 
L 554.732754 291.133761 
L 557.7063 291.036677 
L 559.405469 291.004315 
L 562.379014 290.90723 
L 564.502975 290.680699 
L 568.750898 290.583614 
L 569.600482 290.486529 
L 573.848404 290.389444 
L 575.972366 290.324721 
L 580.64508 290.292359 
L 581.494665 290.195274 
L 586.167379 290.098189 
L 587.016964 290.033466 
L 596.362393 289.936381 
L 598.911146 289.839296 
L 605.28303 289.742211 
L 606.982199 289.70985 
L 610.805329 289.645126 
L 611.654913 289.548042 
L 617.177212 289.450957 
L 619.301174 289.386233 
L 626.947434 289.289149 
L 628.221811 289.192064 
L 629.496187 289.094979 
L 630.770564 288.997894 
L 637.142448 288.900809 
L 639.691201 288.803724 
L 651.160591 288.706639 
L 654.983721 288.51247 
L 660.081228 288.415385 
L 660.930813 288.350661 
L 667.302696 288.285938 
L 668.152281 288.221215 
L 672.824995 288.12413 
L 674.524164 288.091768 
L 680.471255 287.994683 
L 683.020009 287.897599 
L 690.241477 287.800514 
L 691.940646 287.768152 
L 695.763776 287.671067 
L 699.162114 287.509259 
L 703.834828 287.412174 
L 706.808374 287.282728 
L 710.631504 287.185643 
L 711.481089 287.120919 
L 719.976933 287.023835 
L 722.100894 286.959111 
L 724.649648 286.862026 
L 727.198401 286.764942 
L 739.942168 286.667857 
L 742.915714 286.53841 
L 747.163636 286.441325 
L 747.163636 286.441325 
" clip-path="url(#pc7a8db6845)" style="fill: none; stroke: #ff7f0e; stroke-width: 1.5; stroke-linecap: square"/>
   </g>
   <g id="patch_3">
    <path d="M 108 320.4 
L 108 43.2 
" style="fill: none; stroke: #a9a9a9; stroke-width: 0.8; stroke-linejoin: miter; stroke-linecap: square"/>
   </g>
   <g id="patch_4">
    <path d="M 777.6 320.4 
L 777.6 43.2 
" style="fill: none"/>
   </g>
   <g id="patch_5">
    <path d="M 108 320.4 
L 777.6 320.4 
" style="fill: none; stroke: #a9a9a9; stroke-width: 0.8; stroke-linejoin: miter; stroke-linecap: square"/>
   </g>
   <g id="patch_6">
    <path d="M 108 43.2 
L 777.6 43.2 
" style="fill: none"/>
   </g>
   <g id="text_19">
    <!-- get_subscribe history -->
    <g style="fill: #a9a9a9" transform="translate(378.6075 37.2) scale(0.12 -0.12)">
     <defs>
      <path id="DejaVuSans-67" d="M 2906 1791 
Q 2906 2416 2648 2759 
Q 2391 3103 1925 3103 
Q 1463 3103 1205 2759 
Q 947 2416 947 1791 
Q 947 1169 1205 825 
Q 1463 481 1925 481 
Q 2391 481 2648 825 
Q 2906 1169 2906 1791 
z
M 3481 434 
Q 3481 -459 3084 -895 
Q 2688 -1331 1869 -1331 
Q 1566 -1331 1297 -1286 
Q 1028 -1241 775 -1147 
L 775 -588 
Q 1028 -725 1275 -790 
Q 1522 -856 1778 -856 
Q 2344 -856 2625 -561 
Q 2906 -266 2906 331 
L 2906 616 
Q 2728 306 2450 153 
Q 2172 0 1784 0 
Q 1141 0 747 490 
Q 353 981 353 1791 
Q 353 2603 747 3093 
Q 1141 3584 1784 3584 
Q 2172 3584 2450 3431 
Q 2728 3278 2906 2969 
L 2906 3500 
L 3481 3500 
L 3481 434 
z
" transform="scale(0.015625)"/>
      <path id="DejaVuSans-65" d="M 3597 1894 
L 3597 1613 
L 953 1613 
Q 991 1019 1311 708 
Q 1631 397 2203 397 
Q 2534 397 2845 478 
Q 3156 559 3463 722 
L 3463 178 
Q 3153 47 2828 -22 
Q 2503 -91 2169 -91 
Q 1331 -91 842 396 
Q 353 884 353 1716 
Q 353 2575 817 3079 
Q 1281 3584 2069 3584 
Q 2775 3584 3186 3129 
Q 3597 2675 3597 1894 
z
M 3022 2063 
Q 3016 2534 2758 2815 
Q 2500 3097 2075 3097 
Q 1594 3097 1305 2825 
Q 1016 2553 972 2059 
L 3022 2063 
z
" transform="scale(0.015625)"/>
      <path id="DejaVuSans-74" d="M 1172 4494 
L 1172 3500 
L 2356 3500 
L 2356 3053 
L 1172 3053 
L 1172 1153 
Q 1172 725 1289 603 
Q 1406 481 1766 481 
L 2356 481 
L 2356 0 
L 1766 0 
Q 1100 0 847 248 
Q 594 497 594 1153 
L 594 3053 
L 172 3053 
L 172 3500 
L 594 3500 
L 594 4494 
L 1172 4494 
z
" transform="scale(0.015625)"/>
      <path id="DejaVuSans-5f" d="M 3263 -1063 
L 3263 -1509 
L -63 -1509 
L -63 -1063 
L 3263 -1063 
z
" transform="scale(0.015625)"/>
      <path id="DejaVuSans-73" d="M 2834 3397 
L 2834 2853 
Q 2591 2978 2328 3040 
Q 2066 3103 1784 3103 
Q 1356 3103 1142 2972 
Q 928 2841 928 2578 
Q 928 2378 1081 2264 
Q 1234 2150 1697 2047 
L 1894 2003 
Q 2506 1872 2764 1633 
Q 3022 1394 3022 966 
Q 3022 478 2636 193 
Q 2250 -91 1575 -91 
Q 1294 -91 989 -36 
Q 684 19 347 128 
L 347 722 
Q 666 556 975 473 
Q 1284 391 1588 391 
Q 1994 391 2212 530 
Q 2431 669 2431 922 
Q 2431 1156 2273 1281 
Q 2116 1406 1581 1522 
L 1381 1569 
Q 847 1681 609 1914 
Q 372 2147 372 2553 
Q 372 3047 722 3315 
Q 1072 3584 1716 3584 
Q 2034 3584 2315 3537 
Q 2597 3491 2834 3397 
z
" transform="scale(0.015625)"/>
      <path id="DejaVuSans-75" d="M 544 1381 
L 544 3500 
L 1119 3500 
L 1119 1403 
Q 1119 906 1312 657 
Q 1506 409 1894 409 
Q 2359 409 2629 706 
Q 2900 1003 2900 1516 
L 2900 3500 
L 3475 3500 
L 3475 0 
L 2900 0 
L 2900 538 
Q 2691 219 2414 64 
Q 2138 -91 1772 -91 
Q 1169 -91 856 284 
Q 544 659 544 1381 
z
M 1991 3584 
L 1991 3584 
z
" transform="scale(0.015625)"/>
      <path id="DejaVuSans-62" d="M 3116 1747 
Q 3116 2381 2855 2742 
Q 2594 3103 2138 3103 
Q 1681 3103 1420 2742 
Q 1159 2381 1159 1747 
Q 1159 1113 1420 752 
Q 1681 391 2138 391 
Q 2594 391 2855 752 
Q 3116 1113 3116 1747 
z
M 1159 2969 
Q 1341 3281 1617 3432 
Q 1894 3584 2278 3584 
Q 2916 3584 3314 3078 
Q 3713 2572 3713 1747 
Q 3713 922 3314 415 
Q 2916 -91 2278 -91 
Q 1894 -91 1617 61 
Q 1341 213 1159 525 
L 1159 0 
L 581 0 
L 581 4863 
L 1159 4863 
L 1159 2969 
z
" transform="scale(0.015625)"/>
      <path id="DejaVuSans-63" d="M 3122 3366 
L 3122 2828 
Q 2878 2963 2633 3030 
Q 2388 3097 2138 3097 
Q 1578 3097 1268 2742 
Q 959 2388 959 1747 
Q 959 1106 1268 751 
Q 1578 397 2138 397 
Q 2388 397 2633 464 
Q 2878 531 3122 666 
L 3122 134 
Q 2881 22 2623 -34 
Q 2366 -91 2075 -91 
Q 1284 -91 818 406 
Q 353 903 353 1747 
Q 353 2603 823 3093 
Q 1294 3584 2113 3584 
Q 2378 3584 2631 3529 
Q 2884 3475 3122 3366 
z
" transform="scale(0.015625)"/>
      <path id="DejaVuSans-72" d="M 2631 2963 
Q 2534 3019 2420 3045 
Q 2306 3072 2169 3072 
Q 1681 3072 1420 2755 
Q 1159 2438 1159 1844 
L 1159 0 
L 581 0 
L 581 3500 
L 1159 3500 
L 1159 2956 
Q 1341 3275 1631 3429 
Q 1922 3584 2338 3584 
Q 2397 3584 2469 3576 
Q 2541 3569 2628 3553 
L 2631 2963 
z
" transform="scale(0.015625)"/>
      <path id="DejaVuSans-69" d="M 603 3500 
L 1178 3500 
L 1178 0 
L 603 0 
L 603 3500 
z
M 603 4863 
L 1178 4863 
L 1178 4134 
L 603 4134 
L 603 4863 
z
" transform="scale(0.015625)"/>
      <path id="DejaVuSans-20" transform="scale(0.015625)"/>
      <path id="DejaVuSans-68" d="M 3513 2113 
L 3513 0 
L 2938 0 
L 2938 2094 
Q 2938 2591 2744 2837 
Q 2550 3084 2163 3084 
Q 1697 3084 1428 2787 
Q 1159 2491 1159 1978 
L 1159 0 
L 581 0 
L 581 4863 
L 1159 4863 
L 1159 2956 
Q 1366 3272 1645 3428 
Q 1925 3584 2291 3584 
Q 2894 3584 3203 3211 
Q 3513 2838 3513 2113 
z
" transform="scale(0.015625)"/>
      <path id="DejaVuSans-6f" d="M 1959 3097 
Q 1497 3097 1228 2736 
Q 959 2375 959 1747 
Q 959 1119 1226 758 
Q 1494 397 1959 397 
Q 2419 397 2687 759 
Q 2956 1122 2956 1747 
Q 2956 2369 2687 2733 
Q 2419 3097 1959 3097 
z
M 1959 3584 
Q 2709 3584 3137 3096 
Q 3566 2609 3566 1747 
Q 3566 888 3137 398 
Q 2709 -91 1959 -91 
Q 1206 -91 779 398 
Q 353 888 353 1747 
Q 353 2609 779 3096 
Q 1206 3584 1959 3584 
z
" transform="scale(0.015625)"/>
      <path id="DejaVuSans-79" d="M 2059 -325 
Q 1816 -950 1584 -1140 
Q 1353 -1331 966 -1331 
L 506 -1331 
L 506 -850 
L 844 -850 
Q 1081 -850 1212 -737 
Q 1344 -625 1503 -206 
L 1606 56 
L 191 3500 
L 800 3500 
L 1894 763 
L 2988 3500 
L 3597 3500 
L 2059 -325 
z
" transform="scale(0.015625)"/>
     </defs>
     <use xlink:href="#DejaVuSans-67"/>
     <use xlink:href="#DejaVuSans-65" transform="translate(63.476562 0)"/>
     <use xlink:href="#DejaVuSans-74" transform="translate(125 0)"/>
     <use xlink:href="#DejaVuSans-5f" transform="translate(164.208984 0)"/>
     <use xlink:href="#DejaVuSans-73" transform="translate(214.208984 0)"/>
     <use xlink:href="#DejaVuSans-75" transform="translate(266.308594 0)"/>
     <use xlink:href="#DejaVuSans-62" transform="translate(329.6875 0)"/>
     <use xlink:href="#DejaVuSans-73" transform="translate(393.164062 0)"/>
     <use xlink:href="#DejaVuSans-63" transform="translate(445.263672 0)"/>
     <use xlink:href="#DejaVuSans-72" transform="translate(500.244141 0)"/>
     <use xlink:href="#DejaVuSans-69" transform="translate(541.357422 0)"/>
     <use xlink:href="#DejaVuSans-62" transform="translate(569.140625 0)"/>
     <use xlink:href="#DejaVuSans-65" transform="translate(632.617188 0)"/>
     <use xlink:href="#DejaVuSans-20" transform="translate(694.140625 0)"/>
     <use xlink:href="#DejaVuSans-68" transform="translate(725.927734 0)"/>
     <use xlink:href="#DejaVuSans-69" transform="translate(789.306641 0)"/>
     <use xlink:href="#DejaVuSans-73" transform="translate(817.089844 0)"/>
     <use xlink:href="#DejaVuSans-74" transform="translate(869.189453 0)"/>
     <use xlink:href="#DejaVuSans-6f" transform="translate(908.398438 0)"/>
     <use xlink:href="#DejaVuSans-72" transform="translate(969.580078 0)"/>
     <use xlink:href="#DejaVuSans-79" transform="translate(1010.693359 0)"/>
    </g>
   </g>
   <g id="legend_1">
    <g id="line2d_39">
     <path d="M 815.08 328.498438 
L 825.08 328.498438 
L 835.08 328.498438 
" style="fill: none; stroke: #1f77b4; stroke-width: 1.5; stroke-linecap: square"/>
    </g>
    <g id="text_20">
     <!-- star -->
     <g style="fill: #a9a9a9" transform="translate(843.08 331.998438) scale(0.1 -0.1)">
      <defs>
       <path id="DejaVuSans-61" d="M 2194 1759 
Q 1497 1759 1228 1600 
Q 959 1441 959 1056 
Q 959 750 1161 570 
Q 1363 391 1709 391 
Q 2188 391 2477 730 
Q 2766 1069 2766 1631 
L 2766 1759 
L 2194 1759 
z
M 3341 1997 
L 3341 0 
L 2766 0 
L 2766 531 
Q 2569 213 2275 61 
Q 1981 -91 1556 -91 
Q 1019 -91 701 211 
Q 384 513 384 1019 
Q 384 1609 779 1909 
Q 1175 2209 1959 2209 
L 2766 2209 
L 2766 2266 
Q 2766 2663 2505 2880 
Q 2244 3097 1772 3097 
Q 1472 3097 1187 3025 
Q 903 2953 641 2809 
L 641 3341 
Q 956 3463 1253 3523 
Q 1550 3584 1831 3584 
Q 2591 3584 2966 3190 
Q 3341 2797 3341 1997 
z
" transform="scale(0.015625)"/>
      </defs>
      <use xlink:href="#DejaVuSans-73"/>
      <use xlink:href="#DejaVuSans-74" transform="translate(52.099609 0)"/>
      <use xlink:href="#DejaVuSans-61" transform="translate(91.308594 0)"/>
      <use xlink:href="#DejaVuSans-72" transform="translate(152.587891 0)"/>
     </g>
    </g>
    <g id="line2d_40">
     <path d="M 815.08 343.176562 
L 825.08 343.176562 
L 835.08 343.176562 
" style="fill: none; stroke: #ff7f0e; stroke-width: 1.5; stroke-linecap: square"/>
    </g>
    <g id="text_21">
     <!-- fork -->
     <g style="fill: #a9a9a9" transform="translate(843.08 346.676562) scale(0.1 -0.1)">
      <defs>
       <path id="DejaVuSans-66" d="M 2375 4863 
L 2375 4384 
L 1825 4384 
Q 1516 4384 1395 4259 
Q 1275 4134 1275 3809 
L 1275 3500 
L 2222 3500 
L 2222 3053 
L 1275 3053 
L 1275 0 
L 697 0 
L 697 3053 
L 147 3053 
L 147 3500 
L 697 3500 
L 697 3744 
Q 697 4328 969 4595 
Q 1241 4863 1831 4863 
L 2375 4863 
z
" transform="scale(0.015625)"/>
       <path id="DejaVuSans-6b" d="M 581 4863 
L 1159 4863 
L 1159 1991 
L 2875 3500 
L 3609 3500 
L 1753 1863 
L 3688 0 
L 2938 0 
L 1159 1709 
L 1159 0 
L 581 0 
L 581 4863 
z
" transform="scale(0.015625)"/>
      </defs>
      <use xlink:href="#DejaVuSans-66"/>
      <use xlink:href="#DejaVuSans-6f" transform="translate(35.205078 0)"/>
      <use xlink:href="#DejaVuSans-72" transform="translate(96.386719 0)"/>
      <use xlink:href="#DejaVuSans-6b" transform="translate(137.5 0)"/>
     </g>
    </g>
   </g>
  </g>
 </g>
 <defs>
  <clipPath id="pc7a8db6845">
   <rect x="108" y="43.2" width="669.6" height="277.2"/>
  </clipPath>
 </defs>
</svg>
