<?xml version="1.0" encoding="utf-8" standalone="no"?>
<!DOCTYPE svg PUBLIC "-//W3C//DTD SVG 1.1//EN"
  "http://www.w3.org/Graphics/SVG/1.1/DTD/svg11.dtd">
<svg xmlns:xlink="http://www.w3.org/1999/xlink" width="864pt" height="360pt" viewBox="0 0 864 360" xmlns="http://www.w3.org/2000/svg" version="1.1">
 <metadata>
  <rdf:RDF xmlns:dc="http://purl.org/dc/elements/1.1/" xmlns:cc="http://creativecommons.org/ns#" xmlns:rdf="http://www.w3.org/1999/02/22-rdf-syntax-ns#">
   <cc:Work>
    <dc:type rdf:resource="http://purl.org/dc/dcmitype/StillImage"/>
    <dc:date>2025-06-27T20:07:22.802855</dc:date>
    <dc:format>image/svg+xml</dc:format>
    <dc:creator>
     <cc:Agent>
      <dc:title>Matplotlib v3.10.3, https://matplotlib.org/</dc:title>
     </cc:Agent>
    </dc:creator>
   </cc:Work>
  </rdf:RDF>
 </metadata>
 <defs>
  <style type="text/css">*{stroke-linejoin: round; stroke-linecap: butt}</style>
 </defs>
 <g id="figure_1">
  <g id="patch_1">
   <path d="M 0 360 
L 864 360 
L 864 0 
L 0 0 
L 0 360 
z
" style="fill: none; opacity: 0"/>
  </g>
  <g id="axes_1">
   <g id="patch_2">
    <path d="M 108 320.4 
L 777.6 320.4 
L 777.6 43.2 
L 108 43.2 
L 108 320.4 
z
" style="fill: none; opacity: 0"/>
   </g>
   <g id="matplotlib.axis_1">
    <g id="xtick_1">
     <g id="line2d_1">
      <path d="M 128.672955 320.4 
L 128.672955 43.2 
" clip-path="url(#p80997ef5d9)" style="fill: none; stroke-dasharray: 5.12,1.28,0.8,1.28; stroke-dashoffset: 0; stroke: #b0b0b0; stroke-width: 0.8"/>
     </g>
     <g id="line2d_2">
      <defs>
       <path id="m3e720fc596" d="M 0 0 
L 0 3.5 
" style="stroke: #a9a9a9; stroke-width: 0.8"/>
      </defs>
      <g>
       <use xlink:href="#m3e720fc596" x="128.672955" y="320.4" style="fill: #a9a9a9; stroke: #a9a9a9; stroke-width: 0.8"/>
      </g>
     </g>
     <g id="text_1">
      <!-- 2021-07 -->
      <g style="fill: #a9a9a9" transform="translate(107.781549 334.998438) scale(0.1 -0.1)">
       <defs>
        <path id="DejaVuSans-32" d="M 1228 531 
L 3431 531 
L 3431 0 
L 469 0 
L 469 531 
Q 828 903 1448 1529 
Q 2069 2156 2228 2338 
Q 2531 2678 2651 2914 
Q 2772 3150 2772 3378 
Q 2772 3750 2511 3984 
Q 2250 4219 1831 4219 
Q 1534 4219 1204 4116 
Q 875 4013 500 3803 
L 500 4441 
Q 881 4594 1212 4672 
Q 1544 4750 1819 4750 
Q 2544 4750 2975 4387 
Q 3406 4025 3406 3419 
Q 3406 3131 3298 2873 
Q 3191 2616 2906 2266 
Q 2828 2175 2409 1742 
Q 1991 1309 1228 531 
z
" transform="scale(0.015625)"/>
        <path id="DejaVuSans-30" d="M 2034 4250 
Q 1547 4250 1301 3770 
Q 1056 3291 1056 2328 
Q 1056 1369 1301 889 
Q 1547 409 2034 409 
Q 2525 409 2770 889 
Q 3016 1369 3016 2328 
Q 3016 3291 2770 3770 
Q 2525 4250 2034 4250 
z
M 2034 4750 
Q 2819 4750 3233 4129 
Q 3647 3509 3647 2328 
Q 3647 1150 3233 529 
Q 2819 -91 2034 -91 
Q 1250 -91 836 529 
Q 422 1150 422 2328 
Q 422 3509 836 4129 
Q 1250 4750 2034 4750 
z
" transform="scale(0.015625)"/>
        <path id="DejaVuSans-31" d="M 794 531 
L 1825 531 
L 1825 4091 
L 703 3866 
L 703 4441 
L 1819 4666 
L 2450 4666 
L 2450 531 
L 3481 531 
L 3481 0 
L 794 0 
L 794 531 
z
" transform="scale(0.015625)"/>
        <path id="DejaVuSans-2d" d="M 313 2009 
L 1997 2009 
L 1997 1497 
L 313 1497 
L 313 2009 
z
" transform="scale(0.015625)"/>
        <path id="DejaVuSans-37" d="M 525 4666 
L 3525 4666 
L 3525 4397 
L 1831 0 
L 1172 0 
L 2766 4134 
L 525 4134 
L 525 4666 
z
" transform="scale(0.015625)"/>
       </defs>
       <use xlink:href="#DejaVuSans-32"/>
       <use xlink:href="#DejaVuSans-30" transform="translate(63.623047 0)"/>
       <use xlink:href="#DejaVuSans-32" transform="translate(127.246094 0)"/>
       <use xlink:href="#DejaVuSans-31" transform="translate(190.869141 0)"/>
       <use xlink:href="#DejaVuSans-2d" transform="translate(254.492188 0)"/>
       <use xlink:href="#DejaVuSans-30" transform="translate(290.576172 0)"/>
       <use xlink:href="#DejaVuSans-37" transform="translate(354.199219 0)"/>
      </g>
     </g>
    </g>
    <g id="xtick_2">
     <g id="line2d_3">
      <path d="M 206.780221 320.4 
L 206.780221 43.2 
" clip-path="url(#p80997ef5d9)" style="fill: none; stroke-dasharray: 5.12,1.28,0.8,1.28; stroke-dashoffset: 0; stroke: #b0b0b0; stroke-width: 0.8"/>
     </g>
     <g id="line2d_4">
      <g>
       <use xlink:href="#m3e720fc596" x="206.780221" y="320.4" style="fill: #a9a9a9; stroke: #a9a9a9; stroke-width: 0.8"/>
      </g>
     </g>
     <g id="text_2">
      <!-- 2022-01 -->
      <g style="fill: #a9a9a9" transform="translate(185.888814 334.998438) scale(0.1 -0.1)">
       <use xlink:href="#DejaVuSans-32"/>
       <use xlink:href="#DejaVuSans-30" transform="translate(63.623047 0)"/>
       <use xlink:href="#DejaVuSans-32" transform="translate(127.246094 0)"/>
       <use xlink:href="#DejaVuSans-32" transform="translate(190.869141 0)"/>
       <use xlink:href="#DejaVuSans-2d" transform="translate(254.492188 0)"/>
       <use xlink:href="#DejaVuSans-30" transform="translate(290.576172 0)"/>
       <use xlink:href="#DejaVuSans-31" transform="translate(354.199219 0)"/>
      </g>
     </g>
    </g>
    <g id="xtick_3">
     <g id="line2d_5">
      <path d="M 283.613998 320.4 
L 283.613998 43.2 
" clip-path="url(#p80997ef5d9)" style="fill: none; stroke-dasharray: 5.12,1.28,0.8,1.28; stroke-dashoffset: 0; stroke: #b0b0b0; stroke-width: 0.8"/>
     </g>
     <g id="line2d_6">
      <g>
       <use xlink:href="#m3e720fc596" x="283.613998" y="320.4" style="fill: #a9a9a9; stroke: #a9a9a9; stroke-width: 0.8"/>
      </g>
     </g>
     <g id="text_3">
      <!-- 2022-07 -->
      <g style="fill: #a9a9a9" transform="translate(262.722591 334.998438) scale(0.1 -0.1)">
       <use xlink:href="#DejaVuSans-32"/>
       <use xlink:href="#DejaVuSans-30" transform="translate(63.623047 0)"/>
       <use xlink:href="#DejaVuSans-32" transform="translate(127.246094 0)"/>
       <use xlink:href="#DejaVuSans-32" transform="translate(190.869141 0)"/>
       <use xlink:href="#DejaVuSans-2d" transform="translate(254.492188 0)"/>
       <use xlink:href="#DejaVuSans-30" transform="translate(290.576172 0)"/>
       <use xlink:href="#DejaVuSans-37" transform="translate(354.199219 0)"/>
      </g>
     </g>
    </g>
    <g id="xtick_4">
     <g id="line2d_7">
      <path d="M 361.721263 320.4 
L 361.721263 43.2 
" clip-path="url(#p80997ef5d9)" style="fill: none; stroke-dasharray: 5.12,1.28,0.8,1.28; stroke-dashoffset: 0; stroke: #b0b0b0; stroke-width: 0.8"/>
     </g>
     <g id="line2d_8">
      <g>
       <use xlink:href="#m3e720fc596" x="361.721263" y="320.4" style="fill: #a9a9a9; stroke: #a9a9a9; stroke-width: 0.8"/>
      </g>
     </g>
     <g id="text_4">
      <!-- 2023-01 -->
      <g style="fill: #a9a9a9" transform="translate(340.829857 334.998438) scale(0.1 -0.1)">
       <defs>
        <path id="DejaVuSans-33" d="M 2597 2516 
Q 3050 2419 3304 2112 
Q 3559 1806 3559 1356 
Q 3559 666 3084 287 
Q 2609 -91 1734 -91 
Q 1441 -91 1130 -33 
Q 819 25 488 141 
L 488 750 
Q 750 597 1062 519 
Q 1375 441 1716 441 
Q 2309 441 2620 675 
Q 2931 909 2931 1356 
Q 2931 1769 2642 2001 
Q 2353 2234 1838 2234 
L 1294 2234 
L 1294 2753 
L 1863 2753 
Q 2328 2753 2575 2939 
Q 2822 3125 2822 3475 
Q 2822 3834 2567 4026 
Q 2313 4219 1838 4219 
Q 1578 4219 1281 4162 
Q 984 4106 628 3988 
L 628 4550 
Q 988 4650 1302 4700 
Q 1616 4750 1894 4750 
Q 2613 4750 3031 4423 
Q 3450 4097 3450 3541 
Q 3450 3153 3228 2886 
Q 3006 2619 2597 2516 
z
" transform="scale(0.015625)"/>
       </defs>
       <use xlink:href="#DejaVuSans-32"/>
       <use xlink:href="#DejaVuSans-30" transform="translate(63.623047 0)"/>
       <use xlink:href="#DejaVuSans-32" transform="translate(127.246094 0)"/>
       <use xlink:href="#DejaVuSans-33" transform="translate(190.869141 0)"/>
       <use xlink:href="#DejaVuSans-2d" transform="translate(254.492188 0)"/>
       <use xlink:href="#DejaVuSans-30" transform="translate(290.576172 0)"/>
       <use xlink:href="#DejaVuSans-31" transform="translate(354.199219 0)"/>
      </g>
     </g>
    </g>
    <g id="xtick_5">
     <g id="line2d_9">
      <path d="M 438.55504 320.4 
L 438.55504 43.2 
" clip-path="url(#p80997ef5d9)" style="fill: none; stroke-dasharray: 5.12,1.28,0.8,1.28; stroke-dashoffset: 0; stroke: #b0b0b0; stroke-width: 0.8"/>
     </g>
     <g id="line2d_10">
      <g>
       <use xlink:href="#m3e720fc596" x="438.55504" y="320.4" style="fill: #a9a9a9; stroke: #a9a9a9; stroke-width: 0.8"/>
      </g>
     </g>
     <g id="text_5">
      <!-- 2023-07 -->
      <g style="fill: #a9a9a9" transform="translate(417.663634 334.998438) scale(0.1 -0.1)">
       <use xlink:href="#DejaVuSans-32"/>
       <use xlink:href="#DejaVuSans-30" transform="translate(63.623047 0)"/>
       <use xlink:href="#DejaVuSans-32" transform="translate(127.246094 0)"/>
       <use xlink:href="#DejaVuSans-33" transform="translate(190.869141 0)"/>
       <use xlink:href="#DejaVuSans-2d" transform="translate(254.492188 0)"/>
       <use xlink:href="#DejaVuSans-30" transform="translate(290.576172 0)"/>
       <use xlink:href="#DejaVuSans-37" transform="translate(354.199219 0)"/>
      </g>
     </g>
    </g>
    <g id="xtick_6">
     <g id="line2d_11">
      <path d="M 516.662305 320.4 
L 516.662305 43.2 
" clip-path="url(#p80997ef5d9)" style="fill: none; stroke-dasharray: 5.12,1.28,0.8,1.28; stroke-dashoffset: 0; stroke: #b0b0b0; stroke-width: 0.8"/>
     </g>
     <g id="line2d_12">
      <g>
       <use xlink:href="#m3e720fc596" x="516.662305" y="320.4" style="fill: #a9a9a9; stroke: #a9a9a9; stroke-width: 0.8"/>
      </g>
     </g>
     <g id="text_6">
      <!-- 2024-01 -->
      <g style="fill: #a9a9a9" transform="translate(495.770899 334.998438) scale(0.1 -0.1)">
       <defs>
        <path id="DejaVuSans-34" d="M 2419 4116 
L 825 1625 
L 2419 1625 
L 2419 4116 
z
M 2253 4666 
L 3047 4666 
L 3047 1625 
L 3713 1625 
L 3713 1100 
L 3047 1100 
L 3047 0 
L 2419 0 
L 2419 1100 
L 313 1100 
L 313 1709 
L 2253 4666 
z
" transform="scale(0.015625)"/>
       </defs>
       <use xlink:href="#DejaVuSans-32"/>
       <use xlink:href="#DejaVuSans-30" transform="translate(63.623047 0)"/>
       <use xlink:href="#DejaVuSans-32" transform="translate(127.246094 0)"/>
       <use xlink:href="#DejaVuSans-34" transform="translate(190.869141 0)"/>
       <use xlink:href="#DejaVuSans-2d" transform="translate(254.492188 0)"/>
       <use xlink:href="#DejaVuSans-30" transform="translate(290.576172 0)"/>
       <use xlink:href="#DejaVuSans-31" transform="translate(354.199219 0)"/>
      </g>
     </g>
    </g>
    <g id="xtick_7">
     <g id="line2d_13">
      <path d="M 593.920578 320.4 
L 593.920578 43.2 
" clip-path="url(#p80997ef5d9)" style="fill: none; stroke-dasharray: 5.12,1.28,0.8,1.28; stroke-dashoffset: 0; stroke: #b0b0b0; stroke-width: 0.8"/>
     </g>
     <g id="line2d_14">
      <g>
       <use xlink:href="#m3e720fc596" x="593.920578" y="320.4" style="fill: #a9a9a9; stroke: #a9a9a9; stroke-width: 0.8"/>
      </g>
     </g>
     <g id="text_7">
      <!-- 2024-07 -->
      <g style="fill: #a9a9a9" transform="translate(573.029172 334.998438) scale(0.1 -0.1)">
       <use xlink:href="#DejaVuSans-32"/>
       <use xlink:href="#DejaVuSans-30" transform="translate(63.623047 0)"/>
       <use xlink:href="#DejaVuSans-32" transform="translate(127.246094 0)"/>
       <use xlink:href="#DejaVuSans-34" transform="translate(190.869141 0)"/>
       <use xlink:href="#DejaVuSans-2d" transform="translate(254.492188 0)"/>
       <use xlink:href="#DejaVuSans-30" transform="translate(290.576172 0)"/>
       <use xlink:href="#DejaVuSans-37" transform="translate(354.199219 0)"/>
      </g>
     </g>
    </g>
    <g id="xtick_8">
     <g id="line2d_15">
      <path d="M 672.027843 320.4 
L 672.027843 43.2 
" clip-path="url(#p80997ef5d9)" style="fill: none; stroke-dasharray: 5.12,1.28,0.8,1.28; stroke-dashoffset: 0; stroke: #b0b0b0; stroke-width: 0.8"/>
     </g>
     <g id="line2d_16">
      <g>
       <use xlink:href="#m3e720fc596" x="672.027843" y="320.4" style="fill: #a9a9a9; stroke: #a9a9a9; stroke-width: 0.8"/>
      </g>
     </g>
     <g id="text_8">
      <!-- 2025-01 -->
      <g style="fill: #a9a9a9" transform="translate(651.136437 334.998438) scale(0.1 -0.1)">
       <defs>
        <path id="DejaVuSans-35" d="M 691 4666 
L 3169 4666 
L 3169 4134 
L 1269 4134 
L 1269 2991 
Q 1406 3038 1543 3061 
Q 1681 3084 1819 3084 
Q 2600 3084 3056 2656 
Q 3513 2228 3513 1497 
Q 3513 744 3044 326 
Q 2575 -91 1722 -91 
Q 1428 -91 1123 -41 
Q 819 9 494 109 
L 494 744 
Q 775 591 1075 516 
Q 1375 441 1709 441 
Q 2250 441 2565 725 
Q 2881 1009 2881 1497 
Q 2881 1984 2565 2268 
Q 2250 2553 1709 2553 
Q 1456 2553 1204 2497 
Q 953 2441 691 2322 
L 691 4666 
z
" transform="scale(0.015625)"/>
       </defs>
       <use xlink:href="#DejaVuSans-32"/>
       <use xlink:href="#DejaVuSans-30" transform="translate(63.623047 0)"/>
       <use xlink:href="#DejaVuSans-32" transform="translate(127.246094 0)"/>
       <use xlink:href="#DejaVuSans-35" transform="translate(190.869141 0)"/>
       <use xlink:href="#DejaVuSans-2d" transform="translate(254.492188 0)"/>
       <use xlink:href="#DejaVuSans-30" transform="translate(290.576172 0)"/>
       <use xlink:href="#DejaVuSans-31" transform="translate(354.199219 0)"/>
      </g>
     </g>
    </g>
    <g id="xtick_9">
     <g id="line2d_17">
      <path d="M 748.86162 320.4 
L 748.86162 43.2 
" clip-path="url(#p80997ef5d9)" style="fill: none; stroke-dasharray: 5.12,1.28,0.8,1.28; stroke-dashoffset: 0; stroke: #b0b0b0; stroke-width: 0.8"/>
     </g>
     <g id="line2d_18">
      <g>
       <use xlink:href="#m3e720fc596" x="748.86162" y="320.4" style="fill: #a9a9a9; stroke: #a9a9a9; stroke-width: 0.8"/>
      </g>
     </g>
     <g id="text_9">
      <!-- 2025-07 -->
      <g style="fill: #a9a9a9" transform="translate(727.970214 334.998438) scale(0.1 -0.1)">
       <use xlink:href="#DejaVuSans-32"/>
       <use xlink:href="#DejaVuSans-30" transform="translate(63.623047 0)"/>
       <use xlink:href="#DejaVuSans-32" transform="translate(127.246094 0)"/>
       <use xlink:href="#DejaVuSans-35" transform="translate(190.869141 0)"/>
       <use xlink:href="#DejaVuSans-2d" transform="translate(254.492188 0)"/>
       <use xlink:href="#DejaVuSans-30" transform="translate(290.576172 0)"/>
       <use xlink:href="#DejaVuSans-37" transform="translate(354.199219 0)"/>
      </g>
     </g>
    </g>
   </g>
   <g id="matplotlib.axis_2">
    <g id="ytick_1">
     <g id="line2d_19">
      <path d="M 108 307.832341 
L 777.6 307.832341 
" clip-path="url(#p80997ef5d9)" style="fill: none; stroke-dasharray: 5.12,1.28,0.8,1.28; stroke-dashoffset: 0; stroke: #b0b0b0; stroke-width: 0.8"/>
     </g>
     <g id="line2d_20">
      <defs>
       <path id="m7aa728d4d3" d="M 0 0 
L -3.5 0 
" style="stroke: #a9a9a9; stroke-width: 0.8"/>
      </defs>
      <g>
       <use xlink:href="#m7aa728d4d3" x="108" y="307.832341" style="fill: #a9a9a9; stroke: #a9a9a9; stroke-width: 0.8"/>
      </g>
     </g>
     <g id="text_10">
      <!-- 0 -->
      <g style="fill: #a9a9a9" transform="translate(94.6375 311.63156) scale(0.1 -0.1)">
       <use xlink:href="#DejaVuSans-30"/>
      </g>
     </g>
    </g>
    <g id="ytick_2">
     <g id="line2d_21">
      <path d="M 108 275.491478 
L 777.6 275.491478 
" clip-path="url(#p80997ef5d9)" style="fill: none; stroke-dasharray: 5.12,1.28,0.8,1.28; stroke-dashoffset: 0; stroke: #b0b0b0; stroke-width: 0.8"/>
     </g>
     <g id="line2d_22">
      <g>
       <use xlink:href="#m7aa728d4d3" x="108" y="275.491478" style="fill: #a9a9a9; stroke: #a9a9a9; stroke-width: 0.8"/>
      </g>
     </g>
     <g id="text_11">
      <!-- 1000 -->
      <g style="fill: #a9a9a9" transform="translate(75.55 279.290697) scale(0.1 -0.1)">
       <use xlink:href="#DejaVuSans-31"/>
       <use xlink:href="#DejaVuSans-30" transform="translate(63.623047 0)"/>
       <use xlink:href="#DejaVuSans-30" transform="translate(127.246094 0)"/>
       <use xlink:href="#DejaVuSans-30" transform="translate(190.869141 0)"/>
      </g>
     </g>
    </g>
    <g id="ytick_3">
     <g id="line2d_23">
      <path d="M 108 243.150616 
L 777.6 243.150616 
" clip-path="url(#p80997ef5d9)" style="fill: none; stroke-dasharray: 5.12,1.28,0.8,1.28; stroke-dashoffset: 0; stroke: #b0b0b0; stroke-width: 0.8"/>
     </g>
     <g id="line2d_24">
      <g>
       <use xlink:href="#m7aa728d4d3" x="108" y="243.150616" style="fill: #a9a9a9; stroke: #a9a9a9; stroke-width: 0.8"/>
      </g>
     </g>
     <g id="text_12">
      <!-- 2000 -->
      <g style="fill: #a9a9a9" transform="translate(75.55 246.949835) scale(0.1 -0.1)">
       <use xlink:href="#DejaVuSans-32"/>
       <use xlink:href="#DejaVuSans-30" transform="translate(63.623047 0)"/>
       <use xlink:href="#DejaVuSans-30" transform="translate(127.246094 0)"/>
       <use xlink:href="#DejaVuSans-30" transform="translate(190.869141 0)"/>
      </g>
     </g>
    </g>
    <g id="ytick_4">
     <g id="line2d_25">
      <path d="M 108 210.809754 
L 777.6 210.809754 
" clip-path="url(#p80997ef5d9)" style="fill: none; stroke-dasharray: 5.12,1.28,0.8,1.28; stroke-dashoffset: 0; stroke: #b0b0b0; stroke-width: 0.8"/>
     </g>
     <g id="line2d_26">
      <g>
       <use xlink:href="#m7aa728d4d3" x="108" y="210.809754" style="fill: #a9a9a9; stroke: #a9a9a9; stroke-width: 0.8"/>
      </g>
     </g>
     <g id="text_13">
      <!-- 3000 -->
      <g style="fill: #a9a9a9" transform="translate(75.55 214.608972) scale(0.1 -0.1)">
       <use xlink:href="#DejaVuSans-33"/>
       <use xlink:href="#DejaVuSans-30" transform="translate(63.623047 0)"/>
       <use xlink:href="#DejaVuSans-30" transform="translate(127.246094 0)"/>
       <use xlink:href="#DejaVuSans-30" transform="translate(190.869141 0)"/>
      </g>
     </g>
    </g>
    <g id="ytick_5">
     <g id="line2d_27">
      <path d="M 108 178.468891 
L 777.6 178.468891 
" clip-path="url(#p80997ef5d9)" style="fill: none; stroke-dasharray: 5.12,1.28,0.8,1.28; stroke-dashoffset: 0; stroke: #b0b0b0; stroke-width: 0.8"/>
     </g>
     <g id="line2d_28">
      <g>
       <use xlink:href="#m7aa728d4d3" x="108" y="178.468891" style="fill: #a9a9a9; stroke: #a9a9a9; stroke-width: 0.8"/>
      </g>
     </g>
     <g id="text_14">
      <!-- 4000 -->
      <g style="fill: #a9a9a9" transform="translate(75.55 182.26811) scale(0.1 -0.1)">
       <use xlink:href="#DejaVuSans-34"/>
       <use xlink:href="#DejaVuSans-30" transform="translate(63.623047 0)"/>
       <use xlink:href="#DejaVuSans-30" transform="translate(127.246094 0)"/>
       <use xlink:href="#DejaVuSans-30" transform="translate(190.869141 0)"/>
      </g>
     </g>
    </g>
    <g id="ytick_6">
     <g id="line2d_29">
      <path d="M 108 146.128029 
L 777.6 146.128029 
" clip-path="url(#p80997ef5d9)" style="fill: none; stroke-dasharray: 5.12,1.28,0.8,1.28; stroke-dashoffset: 0; stroke: #b0b0b0; stroke-width: 0.8"/>
     </g>
     <g id="line2d_30">
      <g>
       <use xlink:href="#m7aa728d4d3" x="108" y="146.128029" style="fill: #a9a9a9; stroke: #a9a9a9; stroke-width: 0.8"/>
      </g>
     </g>
     <g id="text_15">
      <!-- 5000 -->
      <g style="fill: #a9a9a9" transform="translate(75.55 149.927247) scale(0.1 -0.1)">
       <use xlink:href="#DejaVuSans-35"/>
       <use xlink:href="#DejaVuSans-30" transform="translate(63.623047 0)"/>
       <use xlink:href="#DejaVuSans-30" transform="translate(127.246094 0)"/>
       <use xlink:href="#DejaVuSans-30" transform="translate(190.869141 0)"/>
      </g>
     </g>
    </g>
    <g id="ytick_7">
     <g id="line2d_31">
      <path d="M 108 113.787166 
L 777.6 113.787166 
" clip-path="url(#p80997ef5d9)" style="fill: none; stroke-dasharray: 5.12,1.28,0.8,1.28; stroke-dashoffset: 0; stroke: #b0b0b0; stroke-width: 0.8"/>
     </g>
     <g id="line2d_32">
      <g>
       <use xlink:href="#m7aa728d4d3" x="108" y="113.787166" style="fill: #a9a9a9; stroke: #a9a9a9; stroke-width: 0.8"/>
      </g>
     </g>
     <g id="text_16">
      <!-- 6000 -->
      <g style="fill: #a9a9a9" transform="translate(75.55 117.586385) scale(0.1 -0.1)">
       <defs>
        <path id="DejaVuSans-36" d="M 2113 2584 
Q 1688 2584 1439 2293 
Q 1191 2003 1191 1497 
Q 1191 994 1439 701 
Q 1688 409 2113 409 
Q 2538 409 2786 701 
Q 3034 994 3034 1497 
Q 3034 2003 2786 2293 
Q 2538 2584 2113 2584 
z
M 3366 4563 
L 3366 3988 
Q 3128 4100 2886 4159 
Q 2644 4219 2406 4219 
Q 1781 4219 1451 3797 
Q 1122 3375 1075 2522 
Q 1259 2794 1537 2939 
Q 1816 3084 2150 3084 
Q 2853 3084 3261 2657 
Q 3669 2231 3669 1497 
Q 3669 778 3244 343 
Q 2819 -91 2113 -91 
Q 1303 -91 875 529 
Q 447 1150 447 2328 
Q 447 3434 972 4092 
Q 1497 4750 2381 4750 
Q 2619 4750 2861 4703 
Q 3103 4656 3366 4563 
z
" transform="scale(0.015625)"/>
       </defs>
       <use xlink:href="#DejaVuSans-36"/>
       <use xlink:href="#DejaVuSans-30" transform="translate(63.623047 0)"/>
       <use xlink:href="#DejaVuSans-30" transform="translate(127.246094 0)"/>
       <use xlink:href="#DejaVuSans-30" transform="translate(190.869141 0)"/>
      </g>
     </g>
    </g>
    <g id="ytick_8">
     <g id="line2d_33">
      <path d="M 108 81.446304 
L 777.6 81.446304 
" clip-path="url(#p80997ef5d9)" style="fill: none; stroke-dasharray: 5.12,1.28,0.8,1.28; stroke-dashoffset: 0; stroke: #b0b0b0; stroke-width: 0.8"/>
     </g>
     <g id="line2d_34">
      <g>
       <use xlink:href="#m7aa728d4d3" x="108" y="81.446304" style="fill: #a9a9a9; stroke: #a9a9a9; stroke-width: 0.8"/>
      </g>
     </g>
     <g id="text_17">
      <!-- 7000 -->
      <g style="fill: #a9a9a9" transform="translate(75.55 85.245523) scale(0.1 -0.1)">
       <use xlink:href="#DejaVuSans-37"/>
       <use xlink:href="#DejaVuSans-30" transform="translate(63.623047 0)"/>
       <use xlink:href="#DejaVuSans-30" transform="translate(127.246094 0)"/>
       <use xlink:href="#DejaVuSans-30" transform="translate(190.869141 0)"/>
      </g>
     </g>
    </g>
    <g id="ytick_9">
     <g id="line2d_35">
      <path d="M 108 49.105441 
L 777.6 49.105441 
" clip-path="url(#p80997ef5d9)" style="fill: none; stroke-dasharray: 5.12,1.28,0.8,1.28; stroke-dashoffset: 0; stroke: #b0b0b0; stroke-width: 0.8"/>
     </g>
     <g id="line2d_36">
      <g>
       <use xlink:href="#m7aa728d4d3" x="108" y="49.105441" style="fill: #a9a9a9; stroke: #a9a9a9; stroke-width: 0.8"/>
      </g>
     </g>
     <g id="text_18">
      <!-- 8000 -->
      <g style="fill: #a9a9a9" transform="translate(75.55 52.90466) scale(0.1 -0.1)">
       <defs>
        <path id="DejaVuSans-38" d="M 2034 2216 
Q 1584 2216 1326 1975 
Q 1069 1734 1069 1313 
Q 1069 891 1326 650 
Q 1584 409 2034 409 
Q 2484 409 2743 651 
Q 3003 894 3003 1313 
Q 3003 1734 2745 1975 
Q 2488 2216 2034 2216 
z
M 1403 2484 
Q 997 2584 770 2862 
Q 544 3141 544 3541 
Q 544 4100 942 4425 
Q 1341 4750 2034 4750 
Q 2731 4750 3128 4425 
Q 3525 4100 3525 3541 
Q 3525 3141 3298 2862 
Q 3072 2584 2669 2484 
Q 3125 2378 3379 2068 
Q 3634 1759 3634 1313 
Q 3634 634 3220 271 
Q 2806 -91 2034 -91 
Q 1263 -91 848 271 
Q 434 634 434 1313 
Q 434 1759 690 2068 
Q 947 2378 1403 2484 
z
M 1172 3481 
Q 1172 3119 1398 2916 
Q 1625 2713 2034 2713 
Q 2441 2713 2670 2916 
Q 2900 3119 2900 3481 
Q 2900 3844 2670 4047 
Q 2441 4250 2034 4250 
Q 1625 4250 1398 4047 
Q 1172 3844 1172 3481 
z
" transform="scale(0.015625)"/>
       </defs>
       <use xlink:href="#DejaVuSans-38"/>
       <use xlink:href="#DejaVuSans-30" transform="translate(63.623047 0)"/>
       <use xlink:href="#DejaVuSans-30" transform="translate(127.246094 0)"/>
       <use xlink:href="#DejaVuSans-30" transform="translate(190.869141 0)"/>
      </g>
     </g>
    </g>
   </g>
   <g id="line2d_37">
    <path d="M 138.436364 307.735318 
L 140.98334 307.508932 
L 141.407836 307.314887 
L 143.10582 307.088501 
L 144.803804 306.732752 
L 145.652796 306.603388 
L 147.775276 306.409343 
L 148.624268 306.053593 
L 149.048764 305.471458 
L 149.47326 305.18039 
L 149.897756 304.210164 
L 150.322252 304.145483 
L 150.746748 303.789733 
L 151.59574 303.336961 
L 153.293724 301.913963 
L 154.991708 301.04076 
L 156.265196 300.426283 
L 156.689692 299.714784 
L 157.538684 299.067967 
L 157.96318 298.873922 
L 162.20814 298.227105 
L 162.632636 298.03306 
L 165.604108 297.774333 
L 167.302092 297.353901 
L 170.69806 296.868789 
L 171.122556 296.642402 
L 171.547052 296.577721 
L 172.396044 296.286653 
L 175.367516 295.769199 
L 176.216508 295.510472 
L 180.036972 294.863655 
L 180.885964 294.66961 
L 181.734956 294.637269 
L 183.43294 294.216838 
L 183.857436 293.602361 
L 185.130924 293.084908 
L 186.404412 292.729158 
L 186.828908 292.502772 
L 187.6779 292.341068 
L 189.375884 291.823614 
L 190.224876 291.758932 
L 191.073868 291.532546 
L 192.771852 291.079774 
L 193.196348 291.047433 
L 194.04534 290.627002 
L 194.469836 290.56232 
L 194.894332 290.335934 
L 199.563789 289.527413 
L 201.261773 289.009959 
L 201.686269 288.718891 
L 203.808749 288.007392 
L 204.657741 287.392916 
L 205.931229 287.134189 
L 215.270141 284.320534 
L 215.694637 284.288193 
L 216.968125 283.900103 
L 217.392621 283.900103 
L 217.817117 283.706057 
L 218.666109 283.609035 
L 219.090605 283.447331 
L 220.788589 283.382649 
L 221.637581 283.220945 
L 222.486573 282.768172 
L 223.760061 282.28306 
L 224.609053 281.830287 
L 225.458045 281.377515 
L 226.307037 281.086448 
L 226.731533 280.957084 
L 227.580525 280.40729 
L 228.005021 279.922177 
L 228.854013 278.56386 
L 229.278509 278.434497 
L 229.703005 278.434497 
L 231.400989 277.464271 
L 231.825485 277.367248 
L 232.249981 276.946817 
L 233.098973 276.591068 
L 233.947965 276.202977 
L 234.372461 275.685524 
L 234.796957 274.974025 
L 235.221453 274.682957 
L 235.645949 273.906776 
L 236.070445 273.421663 
L 238.617421 271.998665 
L 239.466413 271.287166 
L 239.890909 271.028439 
L 240.315405 270.413963 
L 240.739901 269.411396 
L 241.164397 268.732238 
L 241.588893 268.376489 
L 242.013389 268.182444 
L 245.409357 264.980698 
L 246.258349 264.172177 
L 248.805325 262.522793 
L 249.229821 262.361088 
L 250.927805 261.326181 
L 251.352301 261.132136 
L 253.474781 259.127002 
L 254.323773 258.771253 
L 255.172765 258.156776 
L 255.597261 257.898049 
L 256.021757 257.833368 
L 257.295245 257.089528 
L 257.719741 256.604415 
L 259.842221 255.407803 
L 260.266717 255.246099 
L 261.540205 254.340554 
L 267.907645 252.012012 
L 268.756638 251.203491 
L 270.030126 250.556674 
L 270.879118 250.006879 
L 271.72811 249.748152 
L 272.152606 249.457084 
L 272.577102 249.327721 
L 273.85059 248.454517 
L 275.97307 247.969405 
L 277.246558 247.193224 
L 278.520046 246.902156 
L 278.944542 246.805133 
L 280.21803 245.834908 
L 281.916014 245.349795 
L 282.34051 244.994045 
L 284.887486 244.088501 
L 285.736478 243.926797 
L 286.58547 243.571047 
L 289.556942 242.439117 
L 290.405934 242.309754 
L 291.679422 241.856982 
L 293.801902 240.789733 
L 296.348878 239.334394 
L 297.19787 239.108008 
L 298.471358 238.461191 
L 299.32035 238.299487 
L 300.169342 237.782033 
L 301.018334 237.555647 
L 302.291822 237.038193 
L 303.989806 236.811807 
L 304.838798 236.359035 
L 305.263294 235.970945 
L 305.68779 235.194764 
L 307.385774 234.709651 
L 308.659262 234.030493 
L 309.508254 233.739425 
L 310.781742 233.092608 
L 312.904222 232.219405 
L 313.753214 232.025359 
L 315.026702 231.378542 
L 315.451198 231.31386 
L 317.573678 230.246612 
L 318.42267 229.696817 
L 319.696158 229.43809 
L 321.818638 228.888296 
L 322.243134 228.532546 
L 323.092126 228.241478 
L 325.214606 227.368275 
L 325.639102 227.044867 
L 326.063598 226.883162 
L 326.91259 226.398049 
L 328.610574 225.848255 
L 329.459566 225.29846 
L 329.884062 224.845688 
L 330.308558 224.586961 
L 330.733054 224.489938 
L 331.582046 223.778439 
L 332.006542 223.713758 
L 332.431038 223.002259 
L 332.855534 222.808214 
L 333.28003 222.452464 
L 333.704526 222.387782 
L 334.553518 221.837988 
L 335.40251 221.54692 
L 335.827006 221.223511 
L 336.251502 221.061807 
L 337.949486 219.897536 
L 339.222975 219.250719 
L 340.071967 219.024333 
L 340.920959 218.53922 
L 341.345455 217.79538 
L 342.194447 217.148563 
L 342.618943 217.05154 
L 345.165919 215.790246 
L 346.014911 215.434497 
L 346.863903 214.820021 
L 348.137391 213.623409 
L 348.986383 213.105955 
L 349.410879 212.620842 
L 351.108863 211.42423 
L 351.957855 210.551027 
L 352.806847 210.259959 
L 353.655839 209.677823 
L 354.929327 208.998665 
L 355.353823 208.933984 
L 356.627311 208.222485 
L 357.476303 207.67269 
L 361.721263 206.055647 
L 362.145759 205.699897 
L 363.843743 205.020739 
L 364.268239 204.891376 
L 365.117231 204.341581 
L 365.966223 203.985832 
L 366.815215 203.371355 
L 367.664207 201.624949 
L 368.513199 200.590041 
L 369.786687 199.910883 
L 370.635679 199.555133 
L 371.060175 199.490452 
L 371.909167 199.102361 
L 373.607151 198.520226 
L 374.456143 198.035113 
L 375.305135 197.614682 
L 375.729631 197.485318 
L 378.276607 195.932957 
L 378.701103 195.447844 
L 379.974591 194.704004 
L 380.399087 194.5423 
L 381.248079 194.024846 
L 382.946063 193.086961 
L 383.370559 192.989938 
L 383.795055 192.634189 
L 386.766527 191.631622 
L 387.191023 191.308214 
L 388.040015 191.049487 
L 388.889007 190.693737 
L 389.313503 190.337988 
L 391.011487 189.723511 
L 391.860479 189.109035 
L 392.709471 188.753285 
L 393.558463 188.074127 
L 394.407455 187.8154 
L 394.831951 187.42731 
L 395.256447 187.362628 
L 396.105439 186.68347 
L 398.227919 185.422177 
L 399.076911 185.16345 
L 399.501407 184.904723 
L 399.925903 184.840041 
L 401.199391 184.128542 
L 402.897375 183.546407 
L 403.746367 183.417043 
L 404.170863 183.222998 
L 404.595359 183.158316 
L 405.444351 182.770226 
L 405.868847 182.737885 
L 407.566831 182.091068 
L 408.84032 181.153183 
L 409.264816 180.991478 
L 410.113808 180.506366 
L 410.538304 180.377002 
L 413.08528 178.921663 
L 413.509776 178.824641 
L 414.783264 178.04846 
L 416.056752 177.595688 
L 416.905744 177.30462 
L 418.603728 176.722485 
L 419.45272 176.431417 
L 421.150704 176.075667 
L 421.5752 175.881622 
L 422.424192 175.655236 
L 422.848688 175.461191 
L 423.273184 175.396509 
L 423.69768 175.170123 
L 424.546672 175.008419 
L 425.82016 174.523306 
L 426.669152 174.426283 
L 427.94264 174.135216 
L 430.06512 173.747125 
L 441.102016 170.383676 
L 441.526512 169.930903 
L 444.073488 168.863655 
L 445.771472 168.28152 
L 446.195968 168.022793 
L 447.469456 167.634702 
L 448.318448 167.408316 
L 448.742944 167.117248 
L 449.16744 167.020226 
L 449.591936 166.632136 
L 450.865424 166.373409 
L 451.714416 165.985318 
L 452.138912 165.467864 
L 456.808368 164.432957 
L 457.232864 164.432957 
L 457.65736 164.238912 
L 459.355344 163.915503 
L 459.77984 163.721458 
L 461.477824 163.398049 
L 462.326816 163.0423 
L 463.175808 162.880595 
L 465.298288 162.330801 
L 466.996272 161.781006 
L 467.420768 161.683984 
L 467.845264 161.457598 
L 468.694256 161.231211 
L 469.543248 160.875462 
L 470.39224 160.552053 
L 470.816736 160.260986 
L 471.665728 160.002259 
L 474.6372 158.870329 
L 476.335184 158.643943 
L 479.731153 157.382649 
L 480.155649 157.05924 
L 480.580145 156.962218 
L 481.004641 156.735832 
L 481.429137 156.703491 
L 486.098593 154.989425 
L 488.221073 154.40729 
L 489.070065 153.986858 
L 490.343553 153.695791 
L 492.041537 152.272793 
L 493.739521 151.528953 
L 494.588513 151.140862 
L 497.135489 150.138296 
L 497.559985 149.847228 
L 499.682465 149.135729 
L 500.955953 148.391889 
L 501.380449 148.294867 
L 503.502929 147.130595 
L 504.776417 146.54846 
L 505.200913 146.225051 
L 506.049905 145.933984 
L 508.172385 144.834394 
L 509.445873 144.381622 
L 511.143857 143.670123 
L 512.417345 143.18501 
L 512.841841 143.023306 
L 513.690833 142.893943 
L 514.115329 142.602875 
L 515.813313 142.279466 
L 516.662305 141.923717 
L 518.360289 141.115195 
L 524.303233 138.463244 
L 525.576721 138.042813 
L 526.001217 137.751745 
L 526.850209 137.654723 
L 527.274705 137.363655 
L 528.123697 137.234292 
L 528.972689 136.81386 
L 529.397185 136.619815 
L 530.246177 136.393429 
L 531.095169 136.134702 
L 532.368657 135.649589 
L 533.642145 135.229158 
L 534.915633 134.93809 
L 536.613617 134.226591 
L 537.462609 133.773819 
L 539.160593 132.900616 
L 540.009585 132.706571 
L 540.434081 132.447844 
L 540.858577 132.350821 
L 542.132065 131.606982 
L 542.981057 131.251232 
L 552.31997 127.629055 
L 554.017954 126.820534 
L 558.262914 125.138809 
L 559.111906 124.718378 
L 559.536402 124.621355 
L 559.960898 124.394969 
L 561.658882 123.909856 
L 563.356866 122.486858 
L 563.781362 122.357495 
L 564.205858 122.098768 
L 565.479346 121.743018 
L 565.903842 121.41961 
L 566.328338 121.322587 
L 567.601826 120.546407 
L 568.026322 120.255339 
L 569.29981 119.770226 
L 569.724306 119.54384 
L 570.997794 119.252772 
L 573.120274 118.508932 
L 573.969266 118.250205 
L 575.242754 117.571047 
L 576.091746 117.150616 
L 576.940738 116.92423 
L 578.214226 116.309754 
L 582.03469 114.854415 
L 583.308178 114.045893 
L 583.732674 113.948871 
L 584.581666 113.528439 
L 585.430658 113.205031 
L 585.855154 112.81694 
L 586.704146 112.461191 
L 587.977634 112.008419 
L 588.40213 111.652669 
L 588.826626 111.620329 
L 589.675618 111.361602 
L 590.52461 111.070534 
L 590.949106 110.876489 
L 591.373602 110.811807 
L 592.222594 110.456057 
L 593.496082 110.16499 
L 594.345074 109.679877 
L 594.76957 109.518172 
L 595.194066 109.194764 
L 596.467554 108.871355 
L 596.89205 108.612628 
L 597.741042 108.386242 
L 599.01453 107.642402 
L 599.439026 107.610062 
L 600.712514 107.18963 
L 601.561506 107.124949 
L 601.986002 106.898563 
L 602.834994 106.672177 
L 603.25949 106.445791 
L 605.38197 106.025359 
L 606.230962 105.863655 
L 607.50445 105.378542 
L 608.777938 105.087474 
L 610.051426 104.408316 
L 610.475922 104.020226 
L 611.74941 103.244045 
L 612.173906 102.920637 
L 613.447394 102.500205 
L 614.296386 102.273819 
L 618.116851 100.592094 
L 619.814835 100.139322 
L 620.663827 99.751232 
L 621.088323 99.524846 
L 621.937315 99.266119 
L 622.361811 99.039733 
L 623.210803 98.878029 
L 626.606771 97.390349 
L 627.031267 97.325667 
L 628.304755 96.484805 
L 628.729251 96.420123 
L 630.427235 95.740965 
L 632.125219 95.320534 
L 632.549715 95.255852 
L 632.974211 95.061807 
L 633.398707 95.029466 
L 634.247699 94.738398 
L 634.672195 94.706057 
L 635.945683 94.220945 
L 637.643667 93.735832 
L 638.492659 93.089014 
L 640.190643 92.118789 
L 640.615139 92.021766 
L 641.039635 91.79538 
L 641.888627 91.504312 
L 642.313123 91.374949 
L 642.737619 91.019199 
L 644.011107 90.534086 
L 644.860099 90.048973 
L 645.284595 89.822587 
L 645.709091 89.434497 
L 647.831571 88.852361 
L 649.105059 88.270226 
L 649.954051 88.04384 
L 650.378547 87.817454 
L 650.803043 87.461704 
L 652.501027 87.008932 
L 652.925523 86.685524 
L 658.443971 84.648049 
L 659.292963 84.486345 
L 661.415443 83.807187 
L 662.264435 83.451437 
L 663.113427 83.128029 
L 663.962419 82.901643 
L 664.386915 82.707598 
L 664.811411 82.707598 
L 665.660403 82.351848 
L 666.509395 81.866735 
L 669.480867 80.864168 
L 671.178851 80.282033 
L 672.452339 79.990965 
L 673.725827 79.570534 
L 674.150323 79.473511 
L 674.574819 79.182444 
L 675.423811 78.988398 
L 677.121795 78.503285 
L 677.546291 78.470945 
L 678.395283 78.082854 
L 681.366755 77.339014 
L 682.215747 76.983265 
L 686.460707 76.013039 
L 687.734196 75.333881 
L 689.007684 74.945791 
L 693.252644 73.361088 
L 693.67714 73.03768 
L 694.950628 72.746612 
L 695.79962 72.487885 
L 696.648612 72.067454 
L 697.073108 71.711704 
L 697.9221 71.452977 
L 698.346596 71.194251 
L 699.195588 71.097228 
L 702.16706 70.256366 
L 703.440548 69.997639 
L 704.714036 69.67423 
L 705.563028 69.447844 
L 706.836516 68.768686 
L 708.5345 68.121869 
L 709.383492 67.669097 
L 709.807988 67.636756 
L 710.65698 67.216324 
L 713.628452 66.375462 
L 714.90194 66.181417 
L 715.750932 65.890349 
L 717.02442 65.502259 
L 720.844884 64.43501 
L 721.693876 64.208624 
L 722.118372 64.111602 
L 722.542868 63.852875 
L 723.39186 63.69117 
L 724.240852 63.594148 
L 724.665348 63.367762 
L 725.089844 63.335421 
L 726.363332 62.688604 
L 727.63682 62.397536 
L 728.485812 62.009446 
L 729.334804 61.718378 
L 730.183796 61.491992 
L 731.032788 61.136242 
L 731.88178 60.845175 
L 733.579764 60.360062 
L 734.428756 60.29538 
L 735.277748 60.004312 
L 735.702244 59.842608 
L 736.551236 59.713244 
L 738.24922 58.937064 
L 738.673716 58.872382 
L 739.098212 58.645996 
L 739.947204 58.484292 
L 740.796196 58.41961 
L 742.918676 57.837474 
L 744.61666 57.28768 
L 745.041156 57.028953 
L 745.890148 56.285113 
L 747.163636 55.8 
L 747.163636 55.8 
" clip-path="url(#p80997ef5d9)" style="fill: none; stroke: #1f77b4; stroke-width: 1.5; stroke-linecap: square"/>
   </g>
   <g id="line2d_38">
    <path d="M 138.86086 307.8 
L 142.681324 307.702977 
L 146.077292 307.541273 
L 147.775276 307.541273 
L 148.199772 307.41191 
L 150.322252 307.314887 
L 152.869228 307.023819 
L 155.416204 306.926797 
L 156.265196 306.829774 
L 159.236668 306.700411 
L 162.20814 306.603388 
L 164.33062 306.538706 
L 169.849068 306.441684 
L 171.971548 306.377002 
L 175.792012 306.279979 
L 177.489996 306.247639 
L 181.734956 306.150616 
L 183.43294 305.988912 
L 185.130924 305.956571 
L 187.6779 305.859548 
L 189.375884 305.827207 
L 191.498364 305.762526 
L 193.196348 305.600821 
L 197.016812 305.503799 
L 197.865804 305.439117 
L 199.563789 305.342094 
L 202.110765 305.245072 
L 203.808749 305.148049 
L 211.449677 304.662936 
L 214.421149 304.565914 
L 215.694637 304.43655 
L 217.817117 304.339528 
L 222.062077 304.113142 
L 226.307037 304.04846 
L 228.005021 303.854415 
L 230.127501 303.757392 
L 234.372461 303.336961 
L 236.919437 303.013552 
L 238.617421 302.948871 
L 242.013389 302.496099 
L 244.560365 302.431417 
L 245.833853 302.302053 
L 247.107341 302.205031 
L 258.993229 301.267146 
L 259.842221 301.105441 
L 262.389197 301.008419 
L 269.181134 300.587988 
L 272.152606 300.490965 
L 273.85059 300.29692 
L 275.97307 300.199897 
L 278.520046 300.102875 
L 280.642526 300.005852 
L 282.34051 299.973511 
L 284.46299 299.90883 
L 285.311982 299.779466 
L 291.254926 299.682444 
L 292.103918 299.585421 
L 297.19787 299.488398 
L 301.018334 299.294353 
L 303.989806 299.197331 
L 305.68779 299.003285 
L 308.659262 298.906263 
L 309.508254 298.776899 
L 311.630734 298.712218 
L 315.875694 298.647536 
L 317.573678 298.485832 
L 319.271662 298.453491 
L 320.54515 298.356468 
L 322.243134 298.194764 
L 326.488094 297.968378 
L 330.733054 297.871355 
L 334.553518 297.67731 
L 335.827006 297.644969 
L 336.675998 297.515606 
L 338.798479 297.418583 
L 339.647471 297.353901 
L 340.496463 297.28922 
L 341.345455 297.224538 
L 345.590415 297.127515 
L 357.476303 296.318994 
L 360.023279 296.221971 
L 362.145759 296.15729 
L 368.088703 296.060267 
L 368.937695 295.930903 
L 374.880639 295.833881 
L 379.125599 295.607495 
L 379.974591 295.575154 
L 380.823583 295.478131 
L 382.946063 295.381109 
L 385.068543 295.316427 
L 387.191023 295.219405 
L 389.313503 295.154723 
L 393.133967 295.0577 
L 395.680943 294.960678 
L 401.623887 294.863655 
L 406.293343 294.604928 
L 407.991328 294.540246 
L 409.264816 294.443224 
L 415.20776 294.346201 
L 417.754736 294.249179 
L 425.395664 294.152156 
L 427.093648 294.119815 
L 432.1876 294.055133 
L 433.036592 293.990452 
L 438.979536 293.893429 
L 440.67752 293.861088 
L 451.714416 293.764066 
L 454.261392 293.667043 
L 472.090224 293.570021 
L 474.212704 293.505339 
L 485.249601 293.440657 
L 486.098593 293.375975 
L 488.221073 293.311294 
L 489.494561 293.18193 
L 492.041537 293.084908 
L 495.013009 292.955544 
L 498.833473 292.858522 
L 500.955953 292.79384 
L 503.927425 292.696817 
L 507.323393 292.535113 
L 509.445873 292.43809 
L 511.143857 292.405749 
L 514.964321 292.308727 
L 516.662305 292.276386 
L 522.180753 292.179363 
L 523.878737 292.147023 
L 526.001217 292.05 
L 528.548193 291.952977 
L 531.519665 291.888296 
L 532.368657 291.823614 
L 542.556561 291.726591 
L 546.801521 291.500205 
L 549.772994 291.403183 
L 554.44245 291.144456 
L 557.413922 291.047433 
L 559.111906 291.015092 
L 562.083378 290.91807 
L 564.205858 290.691684 
L 568.450818 290.594661 
L 569.29981 290.497639 
L 573.54477 290.400616 
L 575.66725 290.335934 
L 580.336706 290.303593 
L 581.185698 290.206571 
L 585.855154 290.109548 
L 586.704146 290.044867 
L 596.043058 289.947844 
L 598.590034 289.850821 
L 604.957474 289.753799 
L 606.655458 289.721458 
L 610.475922 289.656776 
L 611.324914 289.559754 
L 616.843362 289.462731 
L 618.965843 289.398049 
L 626.606771 289.301027 
L 627.880259 289.204004 
L 629.153747 289.106982 
L 630.427235 289.009959 
L 636.794675 288.912936 
L 639.341651 288.815914 
L 650.803043 288.718891 
L 654.623507 288.524846 
L 659.717459 288.427823 
L 660.566451 288.363142 
L 666.933891 288.29846 
L 667.782883 288.233778 
L 672.452339 288.136756 
L 674.150323 288.104415 
L 681.366755 288.007392 
L 682.215747 287.94271 
L 689.856676 287.845688 
L 691.55466 287.813347 
L 695.375124 287.716324 
L 698.771092 287.55462 
L 703.440548 287.457598 
L 706.41202 287.328234 
L 710.232484 287.231211 
L 711.081476 287.16653 
L 719.571396 287.069507 
L 721.693876 287.004825 
L 724.240852 286.907803 
L 726.787828 286.81078 
L 739.522708 286.713758 
L 742.49418 286.584394 
L 747.163636 286.487372 
L 747.163636 286.487372 
" clip-path="url(#p80997ef5d9)" style="fill: none; stroke: #ff7f0e; stroke-width: 1.5; stroke-linecap: square"/>
   </g>
   <g id="patch_3">
    <path d="M 108 320.4 
L 108 43.2 
" style="fill: none; stroke: #a9a9a9; stroke-width: 0.8; stroke-linejoin: miter; stroke-linecap: square"/>
   </g>
   <g id="patch_4">
    <path d="M 777.6 320.4 
L 777.6 43.2 
" style="fill: none"/>
   </g>
   <g id="patch_5">
    <path d="M 108 320.4 
L 777.6 320.4 
" style="fill: none; stroke: #a9a9a9; stroke-width: 0.8; stroke-linejoin: miter; stroke-linecap: square"/>
   </g>
   <g id="patch_6">
    <path d="M 108 43.2 
L 777.6 43.2 
" style="fill: none"/>
   </g>
   <g id="text_19">
    <!-- get_subscribe history -->
    <g style="fill: #a9a9a9" transform="translate(378.6075 37.2) scale(0.12 -0.12)">
     <defs>
      <path id="DejaVuSans-67" d="M 2906 1791 
Q 2906 2416 2648 2759 
Q 2391 3103 1925 3103 
Q 1463 3103 1205 2759 
Q 947 2416 947 1791 
Q 947 1169 1205 825 
Q 1463 481 1925 481 
Q 2391 481 2648 825 
Q 2906 1169 2906 1791 
z
M 3481 434 
Q 3481 -459 3084 -895 
Q 2688 -1331 1869 -1331 
Q 1566 -1331 1297 -1286 
Q 1028 -1241 775 -1147 
L 775 -588 
Q 1028 -725 1275 -790 
Q 1522 -856 1778 -856 
Q 2344 -856 2625 -561 
Q 2906 -266 2906 331 
L 2906 616 
Q 2728 306 2450 153 
Q 2172 0 1784 0 
Q 1141 0 747 490 
Q 353 981 353 1791 
Q 353 2603 747 3093 
Q 1141 3584 1784 3584 
Q 2172 3584 2450 3431 
Q 2728 3278 2906 2969 
L 2906 3500 
L 3481 3500 
L 3481 434 
z
" transform="scale(0.015625)"/>
      <path id="DejaVuSans-65" d="M 3597 1894 
L 3597 1613 
L 953 1613 
Q 991 1019 1311 708 
Q 1631 397 2203 397 
Q 2534 397 2845 478 
Q 3156 559 3463 722 
L 3463 178 
Q 3153 47 2828 -22 
Q 2503 -91 2169 -91 
Q 1331 -91 842 396 
Q 353 884 353 1716 
Q 353 2575 817 3079 
Q 1281 3584 2069 3584 
Q 2775 3584 3186 3129 
Q 3597 2675 3597 1894 
z
M 3022 2063 
Q 3016 2534 2758 2815 
Q 2500 3097 2075 3097 
Q 1594 3097 1305 2825 
Q 1016 2553 972 2059 
L 3022 2063 
z
" transform="scale(0.015625)"/>
      <path id="DejaVuSans-74" d="M 1172 4494 
L 1172 3500 
L 2356 3500 
L 2356 3053 
L 1172 3053 
L 1172 1153 
Q 1172 725 1289 603 
Q 1406 481 1766 481 
L 2356 481 
L 2356 0 
L 1766 0 
Q 1100 0 847 248 
Q 594 497 594 1153 
L 594 3053 
L 172 3053 
L 172 3500 
L 594 3500 
L 594 4494 
L 1172 4494 
z
" transform="scale(0.015625)"/>
      <path id="DejaVuSans-5f" d="M 3263 -1063 
L 3263 -1509 
L -63 -1509 
L -63 -1063 
L 3263 -1063 
z
" transform="scale(0.015625)"/>
      <path id="DejaVuSans-73" d="M 2834 3397 
L 2834 2853 
Q 2591 2978 2328 3040 
Q 2066 3103 1784 3103 
Q 1356 3103 1142 2972 
Q 928 2841 928 2578 
Q 928 2378 1081 2264 
Q 1234 2150 1697 2047 
L 1894 2003 
Q 2506 1872 2764 1633 
Q 3022 1394 3022 966 
Q 3022 478 2636 193 
Q 2250 -91 1575 -91 
Q 1294 -91 989 -36 
Q 684 19 347 128 
L 347 722 
Q 666 556 975 473 
Q 1284 391 1588 391 
Q 1994 391 2212 530 
Q 2431 669 2431 922 
Q 2431 1156 2273 1281 
Q 2116 1406 1581 1522 
L 1381 1569 
Q 847 1681 609 1914 
Q 372 2147 372 2553 
Q 372 3047 722 3315 
Q 1072 3584 1716 3584 
Q 2034 3584 2315 3537 
Q 2597 3491 2834 3397 
z
" transform="scale(0.015625)"/>
      <path id="DejaVuSans-75" d="M 544 1381 
L 544 3500 
L 1119 3500 
L 1119 1403 
Q 1119 906 1312 657 
Q 1506 409 1894 409 
Q 2359 409 2629 706 
Q 2900 1003 2900 1516 
L 2900 3500 
L 3475 3500 
L 3475 0 
L 2900 0 
L 2900 538 
Q 2691 219 2414 64 
Q 2138 -91 1772 -91 
Q 1169 -91 856 284 
Q 544 659 544 1381 
z
M 1991 3584 
L 1991 3584 
z
" transform="scale(0.015625)"/>
      <path id="DejaVuSans-62" d="M 3116 1747 
Q 3116 2381 2855 2742 
Q 2594 3103 2138 3103 
Q 1681 3103 1420 2742 
Q 1159 2381 1159 1747 
Q 1159 1113 1420 752 
Q 1681 391 2138 391 
Q 2594 391 2855 752 
Q 3116 1113 3116 1747 
z
M 1159 2969 
Q 1341 3281 1617 3432 
Q 1894 3584 2278 3584 
Q 2916 3584 3314 3078 
Q 3713 2572 3713 1747 
Q 3713 922 3314 415 
Q 2916 -91 2278 -91 
Q 1894 -91 1617 61 
Q 1341 213 1159 525 
L 1159 0 
L 581 0 
L 581 4863 
L 1159 4863 
L 1159 2969 
z
" transform="scale(0.015625)"/>
      <path id="DejaVuSans-63" d="M 3122 3366 
L 3122 2828 
Q 2878 2963 2633 3030 
Q 2388 3097 2138 3097 
Q 1578 3097 1268 2742 
Q 959 2388 959 1747 
Q 959 1106 1268 751 
Q 1578 397 2138 397 
Q 2388 397 2633 464 
Q 2878 531 3122 666 
L 3122 134 
Q 2881 22 2623 -34 
Q 2366 -91 2075 -91 
Q 1284 -91 818 406 
Q 353 903 353 1747 
Q 353 2603 823 3093 
Q 1294 3584 2113 3584 
Q 2378 3584 2631 3529 
Q 2884 3475 3122 3366 
z
" transform="scale(0.015625)"/>
      <path id="DejaVuSans-72" d="M 2631 2963 
Q 2534 3019 2420 3045 
Q 2306 3072 2169 3072 
Q 1681 3072 1420 2755 
Q 1159 2438 1159 1844 
L 1159 0 
L 581 0 
L 581 3500 
L 1159 3500 
L 1159 2956 
Q 1341 3275 1631 3429 
Q 1922 3584 2338 3584 
Q 2397 3584 2469 3576 
Q 2541 3569 2628 3553 
L 2631 2963 
z
" transform="scale(0.015625)"/>
      <path id="DejaVuSans-69" d="M 603 3500 
L 1178 3500 
L 1178 0 
L 603 0 
L 603 3500 
z
M 603 4863 
L 1178 4863 
L 1178 4134 
L 603 4134 
L 603 4863 
z
" transform="scale(0.015625)"/>
      <path id="DejaVuSans-20" transform="scale(0.015625)"/>
      <path id="DejaVuSans-68" d="M 3513 2113 
L 3513 0 
L 2938 0 
L 2938 2094 
Q 2938 2591 2744 2837 
Q 2550 3084 2163 3084 
Q 1697 3084 1428 2787 
Q 1159 2491 1159 1978 
L 1159 0 
L 581 0 
L 581 4863 
L 1159 4863 
L 1159 2956 
Q 1366 3272 1645 3428 
Q 1925 3584 2291 3584 
Q 2894 3584 3203 3211 
Q 3513 2838 3513 2113 
z
" transform="scale(0.015625)"/>
      <path id="DejaVuSans-6f" d="M 1959 3097 
Q 1497 3097 1228 2736 
Q 959 2375 959 1747 
Q 959 1119 1226 758 
Q 1494 397 1959 397 
Q 2419 397 2687 759 
Q 2956 1122 2956 1747 
Q 2956 2369 2687 2733 
Q 2419 3097 1959 3097 
z
M 1959 3584 
Q 2709 3584 3137 3096 
Q 3566 2609 3566 1747 
Q 3566 888 3137 398 
Q 2709 -91 1959 -91 
Q 1206 -91 779 398 
Q 353 888 353 1747 
Q 353 2609 779 3096 
Q 1206 3584 1959 3584 
z
" transform="scale(0.015625)"/>
      <path id="DejaVuSans-79" d="M 2059 -325 
Q 1816 -950 1584 -1140 
Q 1353 -1331 966 -1331 
L 506 -1331 
L 506 -850 
L 844 -850 
Q 1081 -850 1212 -737 
Q 1344 -625 1503 -206 
L 1606 56 
L 191 3500 
L 800 3500 
L 1894 763 
L 2988 3500 
L 3597 3500 
L 2059 -325 
z
" transform="scale(0.015625)"/>
     </defs>
     <use xlink:href="#DejaVuSans-67"/>
     <use xlink:href="#DejaVuSans-65" transform="translate(63.476562 0)"/>
     <use xlink:href="#DejaVuSans-74" transform="translate(125 0)"/>
     <use xlink:href="#DejaVuSans-5f" transform="translate(164.208984 0)"/>
     <use xlink:href="#DejaVuSans-73" transform="translate(214.208984 0)"/>
     <use xlink:href="#DejaVuSans-75" transform="translate(266.308594 0)"/>
     <use xlink:href="#DejaVuSans-62" transform="translate(329.6875 0)"/>
     <use xlink:href="#DejaVuSans-73" transform="translate(393.164062 0)"/>
     <use xlink:href="#DejaVuSans-63" transform="translate(445.263672 0)"/>
     <use xlink:href="#DejaVuSans-72" transform="translate(500.244141 0)"/>
     <use xlink:href="#DejaVuSans-69" transform="translate(541.357422 0)"/>
     <use xlink:href="#DejaVuSans-62" transform="translate(569.140625 0)"/>
     <use xlink:href="#DejaVuSans-65" transform="translate(632.617188 0)"/>
     <use xlink:href="#DejaVuSans-20" transform="translate(694.140625 0)"/>
     <use xlink:href="#DejaVuSans-68" transform="translate(725.927734 0)"/>
     <use xlink:href="#DejaVuSans-69" transform="translate(789.306641 0)"/>
     <use xlink:href="#DejaVuSans-73" transform="translate(817.089844 0)"/>
     <use xlink:href="#DejaVuSans-74" transform="translate(869.189453 0)"/>
     <use xlink:href="#DejaVuSans-6f" transform="translate(908.398438 0)"/>
     <use xlink:href="#DejaVuSans-72" transform="translate(969.580078 0)"/>
     <use xlink:href="#DejaVuSans-79" transform="translate(1010.693359 0)"/>
    </g>
   </g>
   <g id="legend_1">
    <g id="line2d_39">
     <path d="M 815.08 328.498438 
L 825.08 328.498438 
L 835.08 328.498438 
" style="fill: none; stroke: #1f77b4; stroke-width: 1.5; stroke-linecap: square"/>
    </g>
    <g id="text_20">
     <!-- star -->
     <g style="fill: #a9a9a9" transform="translate(843.08 331.998438) scale(0.1 -0.1)">
      <defs>
       <path id="DejaVuSans-61" d="M 2194 1759 
Q 1497 1759 1228 1600 
Q 959 1441 959 1056 
Q 959 750 1161 570 
Q 1363 391 1709 391 
Q 2188 391 2477 730 
Q 2766 1069 2766 1631 
L 2766 1759 
L 2194 1759 
z
M 3341 1997 
L 3341 0 
L 2766 0 
L 2766 531 
Q 2569 213 2275 61 
Q 1981 -91 1556 -91 
Q 1019 -91 701 211 
Q 384 513 384 1019 
Q 384 1609 779 1909 
Q 1175 2209 1959 2209 
L 2766 2209 
L 2766 2266 
Q 2766 2663 2505 2880 
Q 2244 3097 1772 3097 
Q 1472 3097 1187 3025 
Q 903 2953 641 2809 
L 641 3341 
Q 956 3463 1253 3523 
Q 1550 3584 1831 3584 
Q 2591 3584 2966 3190 
Q 3341 2797 3341 1997 
z
" transform="scale(0.015625)"/>
      </defs>
      <use xlink:href="#DejaVuSans-73"/>
      <use xlink:href="#DejaVuSans-74" transform="translate(52.099609 0)"/>
      <use xlink:href="#DejaVuSans-61" transform="translate(91.308594 0)"/>
      <use xlink:href="#DejaVuSans-72" transform="translate(152.587891 0)"/>
     </g>
    </g>
    <g id="line2d_40">
     <path d="M 815.08 343.176562 
L 825.08 343.176562 
L 835.08 343.176562 
" style="fill: none; stroke: #ff7f0e; stroke-width: 1.5; stroke-linecap: square"/>
    </g>
    <g id="text_21">
     <!-- fork -->
     <g style="fill: #a9a9a9" transform="translate(843.08 346.676562) scale(0.1 -0.1)">
      <defs>
       <path id="DejaVuSans-66" d="M 2375 4863 
L 2375 4384 
L 1825 4384 
Q 1516 4384 1395 4259 
Q 1275 4134 1275 3809 
L 1275 3500 
L 2222 3500 
L 2222 3053 
L 1275 3053 
L 1275 0 
L 697 0 
L 697 3053 
L 147 3053 
L 147 3500 
L 697 3500 
L 697 3744 
Q 697 4328 969 4595 
Q 1241 4863 1831 4863 
L 2375 4863 
z
" transform="scale(0.015625)"/>
       <path id="DejaVuSans-6b" d="M 581 4863 
L 1159 4863 
L 1159 1991 
L 2875 3500 
L 3609 3500 
L 1753 1863 
L 3688 0 
L 2938 0 
L 1159 1709 
L 1159 0 
L 581 0 
L 581 4863 
z
" transform="scale(0.015625)"/>
      </defs>
      <use xlink:href="#DejaVuSans-66"/>
      <use xlink:href="#DejaVuSans-6f" transform="translate(35.205078 0)"/>
      <use xlink:href="#DejaVuSans-72" transform="translate(96.386719 0)"/>
      <use xlink:href="#DejaVuSans-6b" transform="translate(137.5 0)"/>
     </g>
    </g>
   </g>
  </g>
 </g>
 <defs>
  <clipPath id="p80997ef5d9">
   <rect x="108" y="43.2" width="669.6" height="277.2"/>
  </clipPath>
 </defs>
</svg>
