<?xml version="1.0" encoding="utf-8" standalone="no"?>
<!DOCTYPE svg PUBLIC "-//W3C//DTD SVG 1.1//EN"
  "http://www.w3.org/Graphics/SVG/1.1/DTD/svg11.dtd">
<svg xmlns:xlink="http://www.w3.org/1999/xlink" width="864pt" height="360pt" viewBox="0 0 864 360" xmlns="http://www.w3.org/2000/svg" version="1.1">
 <metadata>
  <rdf:RDF xmlns:dc="http://purl.org/dc/elements/1.1/" xmlns:cc="http://creativecommons.org/ns#" xmlns:rdf="http://www.w3.org/1999/02/22-rdf-syntax-ns#">
   <cc:Work>
    <dc:type rdf:resource="http://purl.org/dc/dcmitype/StillImage"/>
    <dc:date>2025-06-28T08:16:03.567787</dc:date>
    <dc:format>image/svg+xml</dc:format>
    <dc:creator>
     <cc:Agent>
      <dc:title>Matplotlib v3.10.3, https://matplotlib.org/</dc:title>
     </cc:Agent>
    </dc:creator>
   </cc:Work>
  </rdf:RDF>
 </metadata>
 <defs>
  <style type="text/css">*{stroke-linejoin: round; stroke-linecap: butt}</style>
 </defs>
 <g id="figure_1">
  <g id="patch_1">
   <path d="M 0 360 
L 864 360 
L 864 0 
L 0 0 
L 0 360 
z
" style="fill: none; opacity: 0"/>
  </g>
  <g id="axes_1">
   <g id="patch_2">
    <path d="M 108 320.4 
L 777.6 320.4 
L 777.6 43.2 
L 108 43.2 
L 108 320.4 
z
" style="fill: none; opacity: 0"/>
   </g>
   <g id="matplotlib.axis_1">
    <g id="xtick_1">
     <g id="line2d_1">
      <path d="M 128.679759 320.4 
L 128.679759 43.2 
" clip-path="url(#p5d75f6975b)" style="fill: none; stroke-dasharray: 5.12,1.28,0.8,1.28; stroke-dashoffset: 0; stroke: #b0b0b0; stroke-width: 0.8"/>
     </g>
     <g id="line2d_2">
      <defs>
       <path id="mf683636bfa" d="M 0 0 
L 0 3.5 
" style="stroke: #a9a9a9; stroke-width: 0.8"/>
      </defs>
      <g>
       <use xlink:href="#mf683636bfa" x="128.679759" y="320.4" style="fill: #a9a9a9; stroke: #a9a9a9; stroke-width: 0.8"/>
      </g>
     </g>
     <g id="text_1">
      <!-- 2021-07 -->
      <g style="fill: #a9a9a9" transform="translate(107.788353 334.998438) scale(0.1 -0.1)">
       <defs>
        <path id="DejaVuSans-32" d="M 1228 531 
L 3431 531 
L 3431 0 
L 469 0 
L 469 531 
Q 828 903 1448 1529 
Q 2069 2156 2228 2338 
Q 2531 2678 2651 2914 
Q 2772 3150 2772 3378 
Q 2772 3750 2511 3984 
Q 2250 4219 1831 4219 
Q 1534 4219 1204 4116 
Q 875 4013 500 3803 
L 500 4441 
Q 881 4594 1212 4672 
Q 1544 4750 1819 4750 
Q 2544 4750 2975 4387 
Q 3406 4025 3406 3419 
Q 3406 3131 3298 2873 
Q 3191 2616 2906 2266 
Q 2828 2175 2409 1742 
Q 1991 1309 1228 531 
z
" transform="scale(0.015625)"/>
        <path id="DejaVuSans-30" d="M 2034 4250 
Q 1547 4250 1301 3770 
Q 1056 3291 1056 2328 
Q 1056 1369 1301 889 
Q 1547 409 2034 409 
Q 2525 409 2770 889 
Q 3016 1369 3016 2328 
Q 3016 3291 2770 3770 
Q 2525 4250 2034 4250 
z
M 2034 4750 
Q 2819 4750 3233 4129 
Q 3647 3509 3647 2328 
Q 3647 1150 3233 529 
Q 2819 -91 2034 -91 
Q 1250 -91 836 529 
Q 422 1150 422 2328 
Q 422 3509 836 4129 
Q 1250 4750 2034 4750 
z
" transform="scale(0.015625)"/>
        <path id="DejaVuSans-31" d="M 794 531 
L 1825 531 
L 1825 4091 
L 703 3866 
L 703 4441 
L 1819 4666 
L 2450 4666 
L 2450 531 
L 3481 531 
L 3481 0 
L 794 0 
L 794 531 
z
" transform="scale(0.015625)"/>
        <path id="DejaVuSans-2d" d="M 313 2009 
L 1997 2009 
L 1997 1497 
L 313 1497 
L 313 2009 
z
" transform="scale(0.015625)"/>
        <path id="DejaVuSans-37" d="M 525 4666 
L 3525 4666 
L 3525 4397 
L 1831 0 
L 1172 0 
L 2766 4134 
L 525 4134 
L 525 4666 
z
" transform="scale(0.015625)"/>
       </defs>
       <use xlink:href="#DejaVuSans-32"/>
       <use xlink:href="#DejaVuSans-30" transform="translate(63.623047 0)"/>
       <use xlink:href="#DejaVuSans-32" transform="translate(127.246094 0)"/>
       <use xlink:href="#DejaVuSans-31" transform="translate(190.869141 0)"/>
       <use xlink:href="#DejaVuSans-2d" transform="translate(254.492188 0)"/>
       <use xlink:href="#DejaVuSans-30" transform="translate(290.576172 0)"/>
       <use xlink:href="#DejaVuSans-37" transform="translate(354.199219 0)"/>
      </g>
     </g>
    </g>
    <g id="xtick_2">
     <g id="line2d_3">
      <path d="M 206.732594 320.4 
L 206.732594 43.2 
" clip-path="url(#p5d75f6975b)" style="fill: none; stroke-dasharray: 5.12,1.28,0.8,1.28; stroke-dashoffset: 0; stroke: #b0b0b0; stroke-width: 0.8"/>
     </g>
     <g id="line2d_4">
      <g>
       <use xlink:href="#mf683636bfa" x="206.732594" y="320.4" style="fill: #a9a9a9; stroke: #a9a9a9; stroke-width: 0.8"/>
      </g>
     </g>
     <g id="text_2">
      <!-- 2022-01 -->
      <g style="fill: #a9a9a9" transform="translate(185.841188 334.998438) scale(0.1 -0.1)">
       <use xlink:href="#DejaVuSans-32"/>
       <use xlink:href="#DejaVuSans-30" transform="translate(63.623047 0)"/>
       <use xlink:href="#DejaVuSans-32" transform="translate(127.246094 0)"/>
       <use xlink:href="#DejaVuSans-32" transform="translate(190.869141 0)"/>
       <use xlink:href="#DejaVuSans-2d" transform="translate(254.492188 0)"/>
       <use xlink:href="#DejaVuSans-30" transform="translate(290.576172 0)"/>
       <use xlink:href="#DejaVuSans-31" transform="translate(354.199219 0)"/>
      </g>
     </g>
    </g>
    <g id="xtick_3">
     <g id="line2d_5">
      <path d="M 283.512829 320.4 
L 283.512829 43.2 
" clip-path="url(#p5d75f6975b)" style="fill: none; stroke-dasharray: 5.12,1.28,0.8,1.28; stroke-dashoffset: 0; stroke: #b0b0b0; stroke-width: 0.8"/>
     </g>
     <g id="line2d_6">
      <g>
       <use xlink:href="#mf683636bfa" x="283.512829" y="320.4" style="fill: #a9a9a9; stroke: #a9a9a9; stroke-width: 0.8"/>
      </g>
     </g>
     <g id="text_3">
      <!-- 2022-07 -->
      <g style="fill: #a9a9a9" transform="translate(262.621422 334.998438) scale(0.1 -0.1)">
       <use xlink:href="#DejaVuSans-32"/>
       <use xlink:href="#DejaVuSans-30" transform="translate(63.623047 0)"/>
       <use xlink:href="#DejaVuSans-32" transform="translate(127.246094 0)"/>
       <use xlink:href="#DejaVuSans-32" transform="translate(190.869141 0)"/>
       <use xlink:href="#DejaVuSans-2d" transform="translate(254.492188 0)"/>
       <use xlink:href="#DejaVuSans-30" transform="translate(290.576172 0)"/>
       <use xlink:href="#DejaVuSans-37" transform="translate(354.199219 0)"/>
      </g>
     </g>
    </g>
    <g id="xtick_4">
     <g id="line2d_7">
      <path d="M 361.565664 320.4 
L 361.565664 43.2 
" clip-path="url(#p5d75f6975b)" style="fill: none; stroke-dasharray: 5.12,1.28,0.8,1.28; stroke-dashoffset: 0; stroke: #b0b0b0; stroke-width: 0.8"/>
     </g>
     <g id="line2d_8">
      <g>
       <use xlink:href="#mf683636bfa" x="361.565664" y="320.4" style="fill: #a9a9a9; stroke: #a9a9a9; stroke-width: 0.8"/>
      </g>
     </g>
     <g id="text_4">
      <!-- 2023-01 -->
      <g style="fill: #a9a9a9" transform="translate(340.674257 334.998438) scale(0.1 -0.1)">
       <defs>
        <path id="DejaVuSans-33" d="M 2597 2516 
Q 3050 2419 3304 2112 
Q 3559 1806 3559 1356 
Q 3559 666 3084 287 
Q 2609 -91 1734 -91 
Q 1441 -91 1130 -33 
Q 819 25 488 141 
L 488 750 
Q 750 597 1062 519 
Q 1375 441 1716 441 
Q 2309 441 2620 675 
Q 2931 909 2931 1356 
Q 2931 1769 2642 2001 
Q 2353 2234 1838 2234 
L 1294 2234 
L 1294 2753 
L 1863 2753 
Q 2328 2753 2575 2939 
Q 2822 3125 2822 3475 
Q 2822 3834 2567 4026 
Q 2313 4219 1838 4219 
Q 1578 4219 1281 4162 
Q 984 4106 628 3988 
L 628 4550 
Q 988 4650 1302 4700 
Q 1616 4750 1894 4750 
Q 2613 4750 3031 4423 
Q 3450 4097 3450 3541 
Q 3450 3153 3228 2886 
Q 3006 2619 2597 2516 
z
" transform="scale(0.015625)"/>
       </defs>
       <use xlink:href="#DejaVuSans-32"/>
       <use xlink:href="#DejaVuSans-30" transform="translate(63.623047 0)"/>
       <use xlink:href="#DejaVuSans-32" transform="translate(127.246094 0)"/>
       <use xlink:href="#DejaVuSans-33" transform="translate(190.869141 0)"/>
       <use xlink:href="#DejaVuSans-2d" transform="translate(254.492188 0)"/>
       <use xlink:href="#DejaVuSans-30" transform="translate(290.576172 0)"/>
       <use xlink:href="#DejaVuSans-31" transform="translate(354.199219 0)"/>
      </g>
     </g>
    </g>
    <g id="xtick_5">
     <g id="line2d_9">
      <path d="M 438.345898 320.4 
L 438.345898 43.2 
" clip-path="url(#p5d75f6975b)" style="fill: none; stroke-dasharray: 5.12,1.28,0.8,1.28; stroke-dashoffset: 0; stroke: #b0b0b0; stroke-width: 0.8"/>
     </g>
     <g id="line2d_10">
      <g>
       <use xlink:href="#mf683636bfa" x="438.345898" y="320.4" style="fill: #a9a9a9; stroke: #a9a9a9; stroke-width: 0.8"/>
      </g>
     </g>
     <g id="text_5">
      <!-- 2023-07 -->
      <g style="fill: #a9a9a9" transform="translate(417.454492 334.998438) scale(0.1 -0.1)">
       <use xlink:href="#DejaVuSans-32"/>
       <use xlink:href="#DejaVuSans-30" transform="translate(63.623047 0)"/>
       <use xlink:href="#DejaVuSans-32" transform="translate(127.246094 0)"/>
       <use xlink:href="#DejaVuSans-33" transform="translate(190.869141 0)"/>
       <use xlink:href="#DejaVuSans-2d" transform="translate(254.492188 0)"/>
       <use xlink:href="#DejaVuSans-30" transform="translate(290.576172 0)"/>
       <use xlink:href="#DejaVuSans-37" transform="translate(354.199219 0)"/>
      </g>
     </g>
    </g>
    <g id="xtick_6">
     <g id="line2d_11">
      <path d="M 516.398733 320.4 
L 516.398733 43.2 
" clip-path="url(#p5d75f6975b)" style="fill: none; stroke-dasharray: 5.12,1.28,0.8,1.28; stroke-dashoffset: 0; stroke: #b0b0b0; stroke-width: 0.8"/>
     </g>
     <g id="line2d_12">
      <g>
       <use xlink:href="#mf683636bfa" x="516.398733" y="320.4" style="fill: #a9a9a9; stroke: #a9a9a9; stroke-width: 0.8"/>
      </g>
     </g>
     <g id="text_6">
      <!-- 2024-01 -->
      <g style="fill: #a9a9a9" transform="translate(495.507327 334.998438) scale(0.1 -0.1)">
       <defs>
        <path id="DejaVuSans-34" d="M 2419 4116 
L 825 1625 
L 2419 1625 
L 2419 4116 
z
M 2253 4666 
L 3047 4666 
L 3047 1625 
L 3713 1625 
L 3713 1100 
L 3047 1100 
L 3047 0 
L 2419 0 
L 2419 1100 
L 313 1100 
L 313 1709 
L 2253 4666 
z
" transform="scale(0.015625)"/>
       </defs>
       <use xlink:href="#DejaVuSans-32"/>
       <use xlink:href="#DejaVuSans-30" transform="translate(63.623047 0)"/>
       <use xlink:href="#DejaVuSans-32" transform="translate(127.246094 0)"/>
       <use xlink:href="#DejaVuSans-34" transform="translate(190.869141 0)"/>
       <use xlink:href="#DejaVuSans-2d" transform="translate(254.492188 0)"/>
       <use xlink:href="#DejaVuSans-30" transform="translate(290.576172 0)"/>
       <use xlink:href="#DejaVuSans-31" transform="translate(354.199219 0)"/>
      </g>
     </g>
    </g>
    <g id="xtick_7">
     <g id="line2d_13">
      <path d="M 593.603168 320.4 
L 593.603168 43.2 
" clip-path="url(#p5d75f6975b)" style="fill: none; stroke-dasharray: 5.12,1.28,0.8,1.28; stroke-dashoffset: 0; stroke: #b0b0b0; stroke-width: 0.8"/>
     </g>
     <g id="line2d_14">
      <g>
       <use xlink:href="#mf683636bfa" x="593.603168" y="320.4" style="fill: #a9a9a9; stroke: #a9a9a9; stroke-width: 0.8"/>
      </g>
     </g>
     <g id="text_7">
      <!-- 2024-07 -->
      <g style="fill: #a9a9a9" transform="translate(572.711761 334.998438) scale(0.1 -0.1)">
       <use xlink:href="#DejaVuSans-32"/>
       <use xlink:href="#DejaVuSans-30" transform="translate(63.623047 0)"/>
       <use xlink:href="#DejaVuSans-32" transform="translate(127.246094 0)"/>
       <use xlink:href="#DejaVuSans-34" transform="translate(190.869141 0)"/>
       <use xlink:href="#DejaVuSans-2d" transform="translate(254.492188 0)"/>
       <use xlink:href="#DejaVuSans-30" transform="translate(290.576172 0)"/>
       <use xlink:href="#DejaVuSans-37" transform="translate(354.199219 0)"/>
      </g>
     </g>
    </g>
    <g id="xtick_8">
     <g id="line2d_15">
      <path d="M 671.656003 320.4 
L 671.656003 43.2 
" clip-path="url(#p5d75f6975b)" style="fill: none; stroke-dasharray: 5.12,1.28,0.8,1.28; stroke-dashoffset: 0; stroke: #b0b0b0; stroke-width: 0.8"/>
     </g>
     <g id="line2d_16">
      <g>
       <use xlink:href="#mf683636bfa" x="671.656003" y="320.4" style="fill: #a9a9a9; stroke: #a9a9a9; stroke-width: 0.8"/>
      </g>
     </g>
     <g id="text_8">
      <!-- 2025-01 -->
      <g style="fill: #a9a9a9" transform="translate(650.764596 334.998438) scale(0.1 -0.1)">
       <defs>
        <path id="DejaVuSans-35" d="M 691 4666 
L 3169 4666 
L 3169 4134 
L 1269 4134 
L 1269 2991 
Q 1406 3038 1543 3061 
Q 1681 3084 1819 3084 
Q 2600 3084 3056 2656 
Q 3513 2228 3513 1497 
Q 3513 744 3044 326 
Q 2575 -91 1722 -91 
Q 1428 -91 1123 -41 
Q 819 9 494 109 
L 494 744 
Q 775 591 1075 516 
Q 1375 441 1709 441 
Q 2250 441 2565 725 
Q 2881 1009 2881 1497 
Q 2881 1984 2565 2268 
Q 2250 2553 1709 2553 
Q 1456 2553 1204 2497 
Q 953 2441 691 2322 
L 691 4666 
z
" transform="scale(0.015625)"/>
       </defs>
       <use xlink:href="#DejaVuSans-32"/>
       <use xlink:href="#DejaVuSans-30" transform="translate(63.623047 0)"/>
       <use xlink:href="#DejaVuSans-32" transform="translate(127.246094 0)"/>
       <use xlink:href="#DejaVuSans-35" transform="translate(190.869141 0)"/>
       <use xlink:href="#DejaVuSans-2d" transform="translate(254.492188 0)"/>
       <use xlink:href="#DejaVuSans-30" transform="translate(290.576172 0)"/>
       <use xlink:href="#DejaVuSans-31" transform="translate(354.199219 0)"/>
      </g>
     </g>
    </g>
    <g id="xtick_9">
     <g id="line2d_17">
      <path d="M 748.436237 320.4 
L 748.436237 43.2 
" clip-path="url(#p5d75f6975b)" style="fill: none; stroke-dasharray: 5.12,1.28,0.8,1.28; stroke-dashoffset: 0; stroke: #b0b0b0; stroke-width: 0.8"/>
     </g>
     <g id="line2d_18">
      <g>
       <use xlink:href="#mf683636bfa" x="748.436237" y="320.4" style="fill: #a9a9a9; stroke: #a9a9a9; stroke-width: 0.8"/>
      </g>
     </g>
     <g id="text_9">
      <!-- 2025-07 -->
      <g style="fill: #a9a9a9" transform="translate(727.544831 334.998438) scale(0.1 -0.1)">
       <use xlink:href="#DejaVuSans-32"/>
       <use xlink:href="#DejaVuSans-30" transform="translate(63.623047 0)"/>
       <use xlink:href="#DejaVuSans-32" transform="translate(127.246094 0)"/>
       <use xlink:href="#DejaVuSans-35" transform="translate(190.869141 0)"/>
       <use xlink:href="#DejaVuSans-2d" transform="translate(254.492188 0)"/>
       <use xlink:href="#DejaVuSans-30" transform="translate(290.576172 0)"/>
       <use xlink:href="#DejaVuSans-37" transform="translate(354.199219 0)"/>
      </g>
     </g>
    </g>
   </g>
   <g id="matplotlib.axis_2">
    <g id="ytick_1">
     <g id="line2d_19">
      <path d="M 108 307.832333 
L 777.6 307.832333 
" clip-path="url(#p5d75f6975b)" style="fill: none; stroke-dasharray: 5.12,1.28,0.8,1.28; stroke-dashoffset: 0; stroke: #b0b0b0; stroke-width: 0.8"/>
     </g>
     <g id="line2d_20">
      <defs>
       <path id="m63b8d9f1f8" d="M 0 0 
L -3.5 0 
" style="stroke: #a9a9a9; stroke-width: 0.8"/>
      </defs>
      <g>
       <use xlink:href="#m63b8d9f1f8" x="108" y="307.832333" style="fill: #a9a9a9; stroke: #a9a9a9; stroke-width: 0.8"/>
      </g>
     </g>
     <g id="text_10">
      <!-- 0 -->
      <g style="fill: #a9a9a9" transform="translate(94.6375 311.631551) scale(0.1 -0.1)">
       <use xlink:href="#DejaVuSans-30"/>
      </g>
     </g>
    </g>
    <g id="ytick_2">
     <g id="line2d_21">
      <path d="M 108 275.499769 
L 777.6 275.499769 
" clip-path="url(#p5d75f6975b)" style="fill: none; stroke-dasharray: 5.12,1.28,0.8,1.28; stroke-dashoffset: 0; stroke: #b0b0b0; stroke-width: 0.8"/>
     </g>
     <g id="line2d_22">
      <g>
       <use xlink:href="#m63b8d9f1f8" x="108" y="275.499769" style="fill: #a9a9a9; stroke: #a9a9a9; stroke-width: 0.8"/>
      </g>
     </g>
     <g id="text_11">
      <!-- 1000 -->
      <g style="fill: #a9a9a9" transform="translate(75.55 279.298988) scale(0.1 -0.1)">
       <use xlink:href="#DejaVuSans-31"/>
       <use xlink:href="#DejaVuSans-30" transform="translate(63.623047 0)"/>
       <use xlink:href="#DejaVuSans-30" transform="translate(127.246094 0)"/>
       <use xlink:href="#DejaVuSans-30" transform="translate(190.869141 0)"/>
      </g>
     </g>
    </g>
    <g id="ytick_3">
     <g id="line2d_23">
      <path d="M 108 243.167206 
L 777.6 243.167206 
" clip-path="url(#p5d75f6975b)" style="fill: none; stroke-dasharray: 5.12,1.28,0.8,1.28; stroke-dashoffset: 0; stroke: #b0b0b0; stroke-width: 0.8"/>
     </g>
     <g id="line2d_24">
      <g>
       <use xlink:href="#m63b8d9f1f8" x="108" y="243.167206" style="fill: #a9a9a9; stroke: #a9a9a9; stroke-width: 0.8"/>
      </g>
     </g>
     <g id="text_12">
      <!-- 2000 -->
      <g style="fill: #a9a9a9" transform="translate(75.55 246.966424) scale(0.1 -0.1)">
       <use xlink:href="#DejaVuSans-32"/>
       <use xlink:href="#DejaVuSans-30" transform="translate(63.623047 0)"/>
       <use xlink:href="#DejaVuSans-30" transform="translate(127.246094 0)"/>
       <use xlink:href="#DejaVuSans-30" transform="translate(190.869141 0)"/>
      </g>
     </g>
    </g>
    <g id="ytick_4">
     <g id="line2d_25">
      <path d="M 108 210.834642 
L 777.6 210.834642 
" clip-path="url(#p5d75f6975b)" style="fill: none; stroke-dasharray: 5.12,1.28,0.8,1.28; stroke-dashoffset: 0; stroke: #b0b0b0; stroke-width: 0.8"/>
     </g>
     <g id="line2d_26">
      <g>
       <use xlink:href="#m63b8d9f1f8" x="108" y="210.834642" style="fill: #a9a9a9; stroke: #a9a9a9; stroke-width: 0.8"/>
      </g>
     </g>
     <g id="text_13">
      <!-- 3000 -->
      <g style="fill: #a9a9a9" transform="translate(75.55 214.633861) scale(0.1 -0.1)">
       <use xlink:href="#DejaVuSans-33"/>
       <use xlink:href="#DejaVuSans-30" transform="translate(63.623047 0)"/>
       <use xlink:href="#DejaVuSans-30" transform="translate(127.246094 0)"/>
       <use xlink:href="#DejaVuSans-30" transform="translate(190.869141 0)"/>
      </g>
     </g>
    </g>
    <g id="ytick_5">
     <g id="line2d_27">
      <path d="M 108 178.502079 
L 777.6 178.502079 
" clip-path="url(#p5d75f6975b)" style="fill: none; stroke-dasharray: 5.12,1.28,0.8,1.28; stroke-dashoffset: 0; stroke: #b0b0b0; stroke-width: 0.8"/>
     </g>
     <g id="line2d_28">
      <g>
       <use xlink:href="#m63b8d9f1f8" x="108" y="178.502079" style="fill: #a9a9a9; stroke: #a9a9a9; stroke-width: 0.8"/>
      </g>
     </g>
     <g id="text_14">
      <!-- 4000 -->
      <g style="fill: #a9a9a9" transform="translate(75.55 182.301297) scale(0.1 -0.1)">
       <use xlink:href="#DejaVuSans-34"/>
       <use xlink:href="#DejaVuSans-30" transform="translate(63.623047 0)"/>
       <use xlink:href="#DejaVuSans-30" transform="translate(127.246094 0)"/>
       <use xlink:href="#DejaVuSans-30" transform="translate(190.869141 0)"/>
      </g>
     </g>
    </g>
    <g id="ytick_6">
     <g id="line2d_29">
      <path d="M 108 146.169515 
L 777.6 146.169515 
" clip-path="url(#p5d75f6975b)" style="fill: none; stroke-dasharray: 5.12,1.28,0.8,1.28; stroke-dashoffset: 0; stroke: #b0b0b0; stroke-width: 0.8"/>
     </g>
     <g id="line2d_30">
      <g>
       <use xlink:href="#m63b8d9f1f8" x="108" y="146.169515" style="fill: #a9a9a9; stroke: #a9a9a9; stroke-width: 0.8"/>
      </g>
     </g>
     <g id="text_15">
      <!-- 5000 -->
      <g style="fill: #a9a9a9" transform="translate(75.55 149.968734) scale(0.1 -0.1)">
       <use xlink:href="#DejaVuSans-35"/>
       <use xlink:href="#DejaVuSans-30" transform="translate(63.623047 0)"/>
       <use xlink:href="#DejaVuSans-30" transform="translate(127.246094 0)"/>
       <use xlink:href="#DejaVuSans-30" transform="translate(190.869141 0)"/>
      </g>
     </g>
    </g>
    <g id="ytick_7">
     <g id="line2d_31">
      <path d="M 108 113.836952 
L 777.6 113.836952 
" clip-path="url(#p5d75f6975b)" style="fill: none; stroke-dasharray: 5.12,1.28,0.8,1.28; stroke-dashoffset: 0; stroke: #b0b0b0; stroke-width: 0.8"/>
     </g>
     <g id="line2d_32">
      <g>
       <use xlink:href="#m63b8d9f1f8" x="108" y="113.836952" style="fill: #a9a9a9; stroke: #a9a9a9; stroke-width: 0.8"/>
      </g>
     </g>
     <g id="text_16">
      <!-- 6000 -->
      <g style="fill: #a9a9a9" transform="translate(75.55 117.63617) scale(0.1 -0.1)">
       <defs>
        <path id="DejaVuSans-36" d="M 2113 2584 
Q 1688 2584 1439 2293 
Q 1191 2003 1191 1497 
Q 1191 994 1439 701 
Q 1688 409 2113 409 
Q 2538 409 2786 701 
Q 3034 994 3034 1497 
Q 3034 2003 2786 2293 
Q 2538 2584 2113 2584 
z
M 3366 4563 
L 3366 3988 
Q 3128 4100 2886 4159 
Q 2644 4219 2406 4219 
Q 1781 4219 1451 3797 
Q 1122 3375 1075 2522 
Q 1259 2794 1537 2939 
Q 1816 3084 2150 3084 
Q 2853 3084 3261 2657 
Q 3669 2231 3669 1497 
Q 3669 778 3244 343 
Q 2819 -91 2113 -91 
Q 1303 -91 875 529 
Q 447 1150 447 2328 
Q 447 3434 972 4092 
Q 1497 4750 2381 4750 
Q 2619 4750 2861 4703 
Q 3103 4656 3366 4563 
z
" transform="scale(0.015625)"/>
       </defs>
       <use xlink:href="#DejaVuSans-36"/>
       <use xlink:href="#DejaVuSans-30" transform="translate(63.623047 0)"/>
       <use xlink:href="#DejaVuSans-30" transform="translate(127.246094 0)"/>
       <use xlink:href="#DejaVuSans-30" transform="translate(190.869141 0)"/>
      </g>
     </g>
    </g>
    <g id="ytick_8">
     <g id="line2d_33">
      <path d="M 108 81.504388 
L 777.6 81.504388 
" clip-path="url(#p5d75f6975b)" style="fill: none; stroke-dasharray: 5.12,1.28,0.8,1.28; stroke-dashoffset: 0; stroke: #b0b0b0; stroke-width: 0.8"/>
     </g>
     <g id="line2d_34">
      <g>
       <use xlink:href="#m63b8d9f1f8" x="108" y="81.504388" style="fill: #a9a9a9; stroke: #a9a9a9; stroke-width: 0.8"/>
      </g>
     </g>
     <g id="text_17">
      <!-- 7000 -->
      <g style="fill: #a9a9a9" transform="translate(75.55 85.303607) scale(0.1 -0.1)">
       <use xlink:href="#DejaVuSans-37"/>
       <use xlink:href="#DejaVuSans-30" transform="translate(63.623047 0)"/>
       <use xlink:href="#DejaVuSans-30" transform="translate(127.246094 0)"/>
       <use xlink:href="#DejaVuSans-30" transform="translate(190.869141 0)"/>
      </g>
     </g>
    </g>
    <g id="ytick_9">
     <g id="line2d_35">
      <path d="M 108 49.171824 
L 777.6 49.171824 
" clip-path="url(#p5d75f6975b)" style="fill: none; stroke-dasharray: 5.12,1.28,0.8,1.28; stroke-dashoffset: 0; stroke: #b0b0b0; stroke-width: 0.8"/>
     </g>
     <g id="line2d_36">
      <g>
       <use xlink:href="#m63b8d9f1f8" x="108" y="49.171824" style="fill: #a9a9a9; stroke: #a9a9a9; stroke-width: 0.8"/>
      </g>
     </g>
     <g id="text_18">
      <!-- 8000 -->
      <g style="fill: #a9a9a9" transform="translate(75.55 52.971043) scale(0.1 -0.1)">
       <defs>
        <path id="DejaVuSans-38" d="M 2034 2216 
Q 1584 2216 1326 1975 
Q 1069 1734 1069 1313 
Q 1069 891 1326 650 
Q 1584 409 2034 409 
Q 2484 409 2743 651 
Q 3003 894 3003 1313 
Q 3003 1734 2745 1975 
Q 2488 2216 2034 2216 
z
M 1403 2484 
Q 997 2584 770 2862 
Q 544 3141 544 3541 
Q 544 4100 942 4425 
Q 1341 4750 2034 4750 
Q 2731 4750 3128 4425 
Q 3525 4100 3525 3541 
Q 3525 3141 3298 2862 
Q 3072 2584 2669 2484 
Q 3125 2378 3379 2068 
Q 3634 1759 3634 1313 
Q 3634 634 3220 271 
Q 2806 -91 2034 -91 
Q 1263 -91 848 271 
Q 434 634 434 1313 
Q 434 1759 690 2068 
Q 947 2378 1403 2484 
z
M 1172 3481 
Q 1172 3119 1398 2916 
Q 1625 2713 2034 2713 
Q 2441 2713 2670 2916 
Q 2900 3119 2900 3481 
Q 2900 3844 2670 4047 
Q 2441 4250 2034 4250 
Q 1625 4250 1398 4047 
Q 1172 3844 1172 3481 
z
" transform="scale(0.015625)"/>
       </defs>
       <use xlink:href="#DejaVuSans-38"/>
       <use xlink:href="#DejaVuSans-30" transform="translate(63.623047 0)"/>
       <use xlink:href="#DejaVuSans-30" transform="translate(127.246094 0)"/>
       <use xlink:href="#DejaVuSans-30" transform="translate(190.869141 0)"/>
      </g>
     </g>
    </g>
   </g>
   <g id="line2d_37">
    <path d="M 138.436364 307.735335 
L 140.981565 307.509007 
L 141.405765 307.315012 
L 143.102566 307.088684 
L 144.799366 306.733025 
L 145.647767 306.603695 
L 147.768768 306.4097 
L 148.617168 306.054042 
L 149.041368 305.472055 
L 149.465569 305.181062 
L 149.889769 304.211085 
L 150.313969 304.14642 
L 150.738169 303.790762 
L 151.58657 303.338106 
L 153.28337 301.915473 
L 154.980171 301.042494 
L 156.252772 300.428176 
L 156.676972 299.716859 
L 157.525372 299.070208 
L 157.949572 298.876212 
L 162.191574 298.229561 
L 162.615774 298.035566 
L 165.585176 297.776905 
L 167.281977 297.356582 
L 170.675578 296.871594 
L 171.099778 296.645266 
L 171.523978 296.5806 
L 172.372379 296.289607 
L 175.34178 295.772286 
L 176.190181 295.513626 
L 180.007982 294.866975 
L 180.856383 294.672979 
L 181.704783 294.640647 
L 183.401584 294.220323 
L 183.825784 293.606005 
L 185.098385 293.088684 
L 186.370985 292.733025 
L 186.795185 292.506697 
L 187.643586 292.345035 
L 189.340386 291.827714 
L 190.188787 291.763048 
L 191.037187 291.536721 
L 192.733988 291.084065 
L 193.158188 291.051732 
L 194.006589 290.631409 
L 194.430789 290.566744 
L 194.854989 290.340416 
L 199.521191 289.532102 
L 201.217992 289.014781 
L 201.642192 288.723788 
L 203.763193 288.012471 
L 204.611593 287.398152 
L 205.884194 287.139492 
L 215.216598 284.326559 
L 215.640798 284.294226 
L 216.913399 283.906236 
L 217.337599 283.906236 
L 217.761799 283.71224 
L 218.6102 283.615242 
L 219.0344 283.45358 
L 220.731201 283.388915 
L 221.579601 283.227252 
L 222.428001 282.774596 
L 223.700602 282.289607 
L 224.549002 281.836952 
L 225.397403 281.384296 
L 226.245803 281.093303 
L 226.670003 280.963972 
L 227.518404 280.414319 
L 227.942604 279.92933 
L 228.791004 278.571363 
L 229.215204 278.442032 
L 229.639404 278.442032 
L 231.336205 277.472055 
L 231.760405 277.375058 
L 232.184606 276.954734 
L 233.033006 276.599076 
L 233.881406 276.211085 
L 234.305607 275.693764 
L 234.729807 274.982448 
L 235.154007 274.691455 
L 235.578207 273.915473 
L 236.002407 273.430485 
L 238.547608 272.007852 
L 239.396009 271.296536 
L 239.820209 271.037875 
L 240.244409 270.423557 
L 240.668609 269.421247 
L 241.09281 268.742263 
L 241.51701 268.386605 
L 241.94121 268.19261 
L 245.334812 264.991686 
L 246.183212 264.183372 
L 248.728413 262.534411 
L 249.152613 262.372748 
L 250.849414 261.338106 
L 251.273614 261.144111 
L 253.394615 259.139492 
L 254.243016 258.783834 
L 255.091416 258.169515 
L 255.515616 257.910855 
L 255.939816 257.846189 
L 257.212417 257.10254 
L 257.636617 256.617552 
L 259.757618 255.421247 
L 260.181818 255.259584 
L 261.454419 254.354273 
L 267.817422 252.026328 
L 268.665822 251.218014 
L 269.938423 250.571363 
L 270.786823 250.021709 
L 271.635223 249.763048 
L 272.059424 249.472055 
L 272.483624 249.342725 
L 273.756224 248.469746 
L 275.877225 247.984758 
L 277.149826 247.208776 
L 278.422426 246.917783 
L 278.846627 246.820785 
L 280.119227 245.850808 
L 281.816028 245.36582 
L 282.240228 245.010162 
L 284.785429 244.10485 
L 285.63383 243.943187 
L 286.48223 243.587529 
L 289.451631 242.455889 
L 290.300032 242.326559 
L 291.572632 241.873903 
L 293.693633 240.806928 
L 296.238834 239.351963 
L 297.087235 239.125635 
L 298.359835 238.478984 
L 299.208236 238.317321 
L 300.056636 237.8 
L 300.905036 237.573672 
L 302.177637 237.056351 
L 303.874438 236.830023 
L 304.722838 236.377367 
L 305.147038 235.989376 
L 305.571239 235.213395 
L 307.268039 234.728406 
L 308.54064 234.049423 
L 309.38904 233.75843 
L 310.661641 233.111778 
L 312.782642 232.238799 
L 313.631042 232.044804 
L 314.903643 231.398152 
L 315.327843 231.333487 
L 317.448844 230.266513 
L 318.297244 229.716859 
L 319.569845 229.458199 
L 321.690846 228.908545 
L 322.115046 228.552887 
L 322.963446 228.261894 
L 325.084447 227.388915 
L 325.508647 227.065589 
L 325.932848 226.903926 
L 326.781248 226.418938 
L 328.478049 225.869284 
L 329.326449 225.31963 
L 329.750649 224.866975 
L 330.17485 224.608314 
L 330.59905 224.511316 
L 331.44745 223.8 
L 331.87165 223.735335 
L 332.29585 223.024018 
L 332.720051 222.830023 
L 333.144251 222.474365 
L 333.568451 222.4097 
L 334.416851 221.860046 
L 335.265252 221.569053 
L 335.689452 221.245727 
L 336.113652 221.084065 
L 337.810453 219.920092 
L 339.083054 219.273441 
L 339.931454 219.047113 
L 340.779854 218.562125 
L 341.204054 217.818476 
L 342.052455 217.171824 
L 342.476655 217.074827 
L 345.021856 215.813857 
L 345.870257 215.458199 
L 346.718657 214.84388 
L 347.991258 213.647575 
L 348.839658 213.130254 
L 349.263858 212.645266 
L 350.960659 211.448961 
L 351.809059 210.575982 
L 352.65746 210.284988 
L 353.50586 209.703002 
L 354.778461 209.024018 
L 355.202661 208.959353 
L 356.475261 208.248037 
L 357.323662 207.698383 
L 361.565664 206.081755 
L 361.989864 205.726097 
L 363.686665 205.047113 
L 364.110865 204.917783 
L 364.959265 204.368129 
L 365.807666 204.012471 
L 366.656066 203.398152 
L 367.504466 201.652194 
L 368.352867 200.617552 
L 369.625467 199.938568 
L 370.473868 199.58291 
L 370.898068 199.518245 
L 371.746468 199.130254 
L 373.443269 198.548268 
L 374.291669 198.063279 
L 375.14007 197.642956 
L 375.56427 197.513626 
L 378.109471 195.961663 
L 378.533671 195.476674 
L 379.806272 194.733025 
L 380.230472 194.571363 
L 381.078872 194.054042 
L 382.775673 193.116397 
L 383.199873 193.0194 
L 383.624073 192.663741 
L 386.593475 191.661432 
L 387.017675 191.338106 
L 387.866075 191.079446 
L 388.714476 190.723788 
L 389.138676 190.368129 
L 390.835477 189.753811 
L 391.683877 189.139492 
L 392.532277 188.783834 
L 393.380678 188.10485 
L 394.229078 187.846189 
L 394.653278 187.458199 
L 395.077479 187.393533 
L 395.925879 186.71455 
L 398.04688 185.45358 
L 398.89528 185.194919 
L 399.319481 184.936259 
L 399.743681 184.871594 
L 401.016281 184.160277 
L 402.713082 183.578291 
L 403.561482 183.448961 
L 403.985683 183.254965 
L 404.409883 183.1903 
L 405.258283 182.802309 
L 405.682483 182.769977 
L 407.379284 182.123326 
L 408.651885 181.185681 
L 409.076085 181.024018 
L 409.924485 180.53903 
L 410.348685 180.4097 
L 412.893887 178.954734 
L 413.318087 178.857737 
L 414.590687 178.081755 
L 415.863288 177.629099 
L 416.711688 177.338106 
L 418.408489 176.75612 
L 419.256889 176.465127 
L 420.95369 176.109469 
L 421.37789 175.915473 
L 422.226291 175.689145 
L 422.650491 175.49515 
L 423.074691 175.430485 
L 423.498891 175.204157 
L 424.347292 175.042494 
L 425.619892 174.557506 
L 426.468293 174.460508 
L 427.740893 174.169515 
L 429.861894 173.781524 
L 440.891099 170.418938 
L 441.315299 169.966282 
L 443.8605 168.899307 
L 445.557301 168.317321 
L 445.981501 168.058661 
L 447.254102 167.67067 
L 448.102502 167.444342 
L 448.526703 167.153349 
L 448.950903 167.056351 
L 449.375103 166.66836 
L 450.647704 166.4097 
L 451.496104 166.021709 
L 451.920304 165.504388 
L 456.586506 164.469746 
L 457.010706 164.469746 
L 457.434907 164.275751 
L 459.131707 163.952425 
L 459.555908 163.75843 
L 461.252708 163.435104 
L 462.101109 163.079446 
L 462.949509 162.917783 
L 465.07051 162.368129 
L 466.767311 161.818476 
L 467.191511 161.721478 
L 467.615711 161.49515 
L 468.464111 161.268822 
L 469.312512 160.913164 
L 470.160912 160.589838 
L 470.585112 160.298845 
L 471.433513 160.040185 
L 474.402914 158.908545 
L 476.099715 158.682217 
L 479.493316 157.421247 
L 479.917517 157.097921 
L 480.341717 157.000924 
L 480.765917 156.774596 
L 481.190117 156.742263 
L 485.856319 155.028637 
L 487.97732 154.446651 
L 488.825721 154.026328 
L 490.098321 153.735335 
L 491.795122 152.312702 
L 493.491923 151.569053 
L 494.340323 151.181062 
L 496.885524 150.178753 
L 497.309724 149.88776 
L 499.430725 149.176443 
L 500.703326 148.432794 
L 501.127526 148.335797 
L 503.248527 147.171824 
L 504.521128 146.589838 
L 504.945328 146.266513 
L 505.793728 145.97552 
L 507.914729 144.876212 
L 509.18733 144.423557 
L 510.884131 143.71224 
L 512.156731 143.227252 
L 512.580931 143.065589 
L 513.429332 142.936259 
L 513.853532 142.645266 
L 515.550333 142.32194 
L 516.398733 141.966282 
L 518.095534 141.157968 
L 524.034336 138.506697 
L 525.306937 138.086374 
L 525.731137 137.795381 
L 526.579538 137.698383 
L 527.003738 137.40739 
L 527.852138 137.27806 
L 528.700538 136.857737 
L 529.124739 136.663741 
L 529.973139 136.437413 
L 530.821539 136.178753 
L 532.09414 135.693764 
L 533.366741 135.273441 
L 534.639341 134.982448 
L 536.336142 134.271132 
L 537.184542 133.818476 
L 538.881343 132.945497 
L 539.729743 132.751501 
L 540.153944 132.492841 
L 540.578144 132.395843 
L 541.850744 131.652194 
L 542.699145 131.296536 
L 552.031549 127.675289 
L 553.72835 126.866975 
L 557.970352 125.185681 
L 558.818752 124.765358 
L 559.242952 124.66836 
L 559.667152 124.442032 
L 561.363953 123.957044 
L 563.060754 122.534411 
L 563.484954 122.405081 
L 563.909154 122.14642 
L 565.181755 121.790762 
L 565.605955 121.467436 
L 566.030155 121.370439 
L 567.302756 120.594457 
L 567.726956 120.303464 
L 568.999557 119.818476 
L 569.423757 119.592148 
L 570.696357 119.301155 
L 572.817358 118.557506 
L 573.665759 118.298845 
L 574.938359 117.619861 
L 575.78676 117.199538 
L 576.63516 116.97321 
L 577.907761 116.358891 
L 581.725562 114.903926 
L 582.998163 114.095612 
L 583.422363 113.998614 
L 584.270763 113.578291 
L 585.119164 113.254965 
L 585.543364 112.866975 
L 586.391764 112.511316 
L 587.664365 112.058661 
L 588.088565 111.703002 
L 588.512765 111.67067 
L 589.361166 111.412009 
L 590.209566 111.121016 
L 590.633766 110.927021 
L 591.057966 110.862356 
L 591.906367 110.506697 
L 593.178967 110.215704 
L 594.027368 109.730716 
L 594.451568 109.569053 
L 594.875768 109.245727 
L 596.148369 108.922402 
L 596.572569 108.663741 
L 597.420969 108.437413 
L 598.69357 107.693764 
L 599.11777 107.661432 
L 600.390371 107.241109 
L 601.238771 107.176443 
L 601.662971 106.950115 
L 602.511372 106.723788 
L 602.935572 106.49746 
L 605.056573 106.077136 
L 605.904973 105.915473 
L 607.177574 105.430485 
L 608.450174 105.139492 
L 609.722775 104.460508 
L 610.146975 104.072517 
L 611.419576 103.296536 
L 611.843776 102.97321 
L 613.116376 102.552887 
L 613.964777 102.326559 
L 617.782578 100.645266 
L 619.479379 100.19261 
L 620.32778 99.804619 
L 620.75198 99.578291 
L 621.60038 99.31963 
L 622.02458 99.093303 
L 622.872981 98.93164 
L 626.266582 97.444342 
L 626.690782 97.379677 
L 627.963383 96.53903 
L 628.387583 96.474365 
L 630.084384 95.795381 
L 631.781185 95.375058 
L 632.205385 95.310393 
L 632.629585 95.116397 
L 633.053785 95.084065 
L 633.902186 94.793072 
L 634.326386 94.760739 
L 635.598986 94.275751 
L 637.295787 93.790762 
L 638.144188 93.144111 
L 639.840988 92.174134 
L 640.265188 92.077136 
L 640.689389 91.850808 
L 641.537789 91.559815 
L 641.961989 91.430485 
L 642.386189 91.074827 
L 643.65879 90.589838 
L 644.50719 90.10485 
L 644.931391 89.878522 
L 645.355591 89.490531 
L 647.476592 88.908545 
L 648.749192 88.326559 
L 649.597593 88.100231 
L 650.021793 87.873903 
L 650.445993 87.518245 
L 652.142794 87.065589 
L 652.566994 86.742263 
L 658.081596 84.705312 
L 658.929997 84.543649 
L 661.050998 83.864665 
L 661.899398 83.509007 
L 662.747799 83.185681 
L 663.596199 82.959353 
L 664.020399 82.765358 
L 664.444599 82.765358 
L 665.293 82.4097 
L 666.1414 81.924711 
L 669.110801 80.922402 
L 670.807602 80.340416 
L 672.080203 80.049423 
L 673.352803 79.629099 
L 673.777003 79.532102 
L 674.201204 79.241109 
L 675.049604 79.047113 
L 676.746405 78.562125 
L 677.170605 78.529792 
L 678.019005 78.141801 
L 680.988407 77.398152 
L 681.836807 77.042494 
L 686.078809 76.072517 
L 687.35141 75.393533 
L 688.62401 75.005543 
L 692.866012 73.421247 
L 693.290212 73.097921 
L 694.562813 72.806928 
L 695.411213 72.548268 
L 696.259614 72.127945 
L 696.683814 71.772286 
L 697.532214 71.513626 
L 697.956414 71.254965 
L 698.804815 71.157968 
L 701.774216 70.317321 
L 703.046817 70.058661 
L 704.319417 69.735335 
L 705.167818 69.509007 
L 706.440418 68.830023 
L 708.137219 68.183372 
L 708.985619 67.730716 
L 709.409819 67.698383 
L 710.25822 67.27806 
L 713.227621 66.437413 
L 714.500222 66.243418 
L 715.348622 65.952425 
L 716.621223 65.564434 
L 720.439024 64.49746 
L 721.287425 64.271132 
L 721.711625 64.174134 
L 722.135825 63.915473 
L 722.984226 63.753811 
L 723.832626 63.656813 
L 724.256826 63.430485 
L 724.681026 63.398152 
L 725.953627 62.751501 
L 727.226227 62.460508 
L 728.074628 62.072517 
L 728.923028 61.781524 
L 729.771429 61.555196 
L 730.619829 61.199538 
L 731.468229 60.908545 
L 733.16503 60.423557 
L 734.01343 60.358891 
L 734.861831 60.067898 
L 735.286031 59.906236 
L 736.134431 59.776905 
L 737.831232 59.033256 
L 738.255432 58.968591 
L 738.679633 58.742263 
L 739.528033 58.5806 
L 740.376433 58.515935 
L 742.497434 57.933949 
L 744.194235 57.384296 
L 744.618435 57.125635 
L 745.466836 56.381986 
L 747.163636 55.8 
L 747.163636 55.8 
" clip-path="url(#p5d75f6975b)" style="fill: none; stroke: #1f77b4; stroke-width: 1.5; stroke-linecap: square"/>
   </g>
   <g id="line2d_38">
    <path d="M 138.860564 307.8 
L 142.678366 307.703002 
L 146.071967 307.541339 
L 147.768768 307.541339 
L 148.192968 307.412009 
L 150.313969 307.315012 
L 152.85917 307.024018 
L 155.404371 306.927021 
L 156.252772 306.830023 
L 159.222173 306.700693 
L 162.191574 306.603695 
L 164.312575 306.53903 
L 169.827178 306.442032 
L 171.948179 306.377367 
L 175.76598 306.28037 
L 177.462781 306.248037 
L 181.704783 306.151039 
L 183.401584 305.989376 
L 185.098385 305.957044 
L 187.643586 305.860046 
L 189.340386 305.827714 
L 191.461387 305.763048 
L 193.158188 305.601386 
L 196.97599 305.504388 
L 197.82439 305.439723 
L 199.521191 305.342725 
L 202.066392 305.245727 
L 203.763193 305.14873 
L 211.398796 304.663741 
L 214.368198 304.566744 
L 215.640798 304.437413 
L 217.761799 304.340416 
L 222.003801 304.114088 
L 226.245803 304.049423 
L 227.942604 303.855427 
L 230.063605 303.75843 
L 234.305607 303.338106 
L 236.850808 303.014781 
L 238.547608 302.950115 
L 241.94121 302.49746 
L 244.486411 302.432794 
L 245.759012 302.303464 
L 247.031612 302.206467 
L 258.909218 301.268822 
L 259.757618 301.107159 
L 262.302819 301.010162 
L 269.090022 300.589838 
L 272.059424 300.492841 
L 273.756224 300.298845 
L 275.877225 300.201848 
L 278.422426 300.10485 
L 280.543427 300.007852 
L 282.240228 299.97552 
L 284.361229 299.910855 
L 285.209629 299.781524 
L 291.148432 299.684527 
L 291.996832 299.587529 
L 297.087235 299.490531 
L 300.905036 299.296536 
L 303.874438 299.199538 
L 305.571239 299.005543 
L 308.54064 298.908545 
L 309.38904 298.779215 
L 311.510041 298.71455 
L 315.752043 298.649885 
L 317.448844 298.488222 
L 319.145645 298.455889 
L 320.418245 298.358891 
L 322.115046 298.197229 
L 326.357048 297.970901 
L 330.59905 297.873903 
L 334.416851 297.679908 
L 335.689452 297.647575 
L 336.537852 297.518245 
L 338.658853 297.421247 
L 339.507254 297.356582 
L 340.355654 297.291917 
L 341.204054 297.227252 
L 345.446056 297.130254 
L 357.323662 296.32194 
L 359.868863 296.224942 
L 361.989864 296.160277 
L 367.928666 296.063279 
L 368.777067 295.933949 
L 374.715869 295.836952 
L 378.957871 295.610624 
L 379.806272 295.578291 
L 380.654672 295.481293 
L 382.775673 295.384296 
L 384.896674 295.31963 
L 387.017675 295.222633 
L 389.138676 295.157968 
L 392.956478 295.06097 
L 395.501679 294.963972 
L 401.440481 294.866975 
L 406.106684 294.608314 
L 407.803484 294.543649 
L 409.076085 294.446651 
L 415.014888 294.349654 
L 417.560089 294.252656 
L 425.195692 294.155658 
L 426.892493 294.123326 
L 431.982895 294.058661 
L 432.831296 293.993995 
L 438.770098 293.896998 
L 440.466899 293.864665 
L 451.496104 293.767667 
L 454.041305 293.67067 
L 471.857713 293.573672 
L 473.978714 293.509007 
L 485.007919 293.444342 
L 485.856319 293.379677 
L 487.97732 293.315012 
L 489.249921 293.185681 
L 491.795122 293.088684 
L 494.764523 292.959353 
L 498.582325 292.862356 
L 500.703326 292.797691 
L 503.672727 292.700693 
L 507.066329 292.53903 
L 509.18733 292.442032 
L 510.884131 292.4097 
L 514.701932 292.312702 
L 516.398733 292.28037 
L 521.913335 292.183372 
L 523.610136 292.151039 
L 525.731137 292.054042 
L 528.276338 291.957044 
L 531.24574 291.892379 
L 532.09414 291.827714 
L 542.274945 291.730716 
L 546.516946 291.504388 
L 549.486348 291.40739 
L 554.15255 291.14873 
L 557.121951 291.051732 
L 558.818752 291.0194 
L 561.788153 290.922402 
L 563.909154 290.696074 
L 568.151156 290.599076 
L 568.999557 290.502079 
L 573.241558 290.405081 
L 575.362559 290.340416 
L 580.028761 290.308083 
L 580.877162 290.211085 
L 585.543364 290.114088 
L 586.391764 290.049423 
L 595.724169 289.952425 
L 598.26937 289.855427 
L 604.632373 289.75843 
L 606.329173 289.726097 
L 610.146975 289.661432 
L 610.995375 289.564434 
L 616.509978 289.467436 
L 618.630979 289.402771 
L 626.266582 289.305774 
L 627.539183 289.208776 
L 628.811783 289.111778 
L 630.084384 289.014781 
L 636.447387 288.917783 
L 638.992588 288.820785 
L 650.445993 288.723788 
L 654.263795 288.529792 
L 659.354197 288.432794 
L 660.202597 288.368129 
L 666.5656 288.303464 
L 667.414001 288.238799 
L 672.080203 288.141801 
L 673.777003 288.109469 
L 680.988407 288.012471 
L 681.836807 287.947806 
L 689.472411 287.850808 
L 691.169211 287.818476 
L 694.987013 287.721478 
L 698.380615 287.559815 
L 703.046817 287.462818 
L 706.016218 287.333487 
L 709.83402 287.23649 
L 710.68242 287.171824 
L 719.166424 287.074827 
L 721.287425 287.010162 
L 723.832626 286.913164 
L 726.377827 286.816166 
L 739.103833 286.719169 
L 742.073234 286.589838 
L 747.163636 286.492841 
L 747.163636 286.492841 
" clip-path="url(#p5d75f6975b)" style="fill: none; stroke: #ff7f0e; stroke-width: 1.5; stroke-linecap: square"/>
   </g>
   <g id="patch_3">
    <path d="M 108 320.4 
L 108 43.2 
" style="fill: none; stroke: #a9a9a9; stroke-width: 0.8; stroke-linejoin: miter; stroke-linecap: square"/>
   </g>
   <g id="patch_4">
    <path d="M 777.6 320.4 
L 777.6 43.2 
" style="fill: none"/>
   </g>
   <g id="patch_5">
    <path d="M 108 320.4 
L 777.6 320.4 
" style="fill: none; stroke: #a9a9a9; stroke-width: 0.8; stroke-linejoin: miter; stroke-linecap: square"/>
   </g>
   <g id="patch_6">
    <path d="M 108 43.2 
L 777.6 43.2 
" style="fill: none"/>
   </g>
   <g id="text_19">
    <!-- get_subscribe history -->
    <g style="fill: #a9a9a9" transform="translate(378.6075 37.2) scale(0.12 -0.12)">
     <defs>
      <path id="DejaVuSans-67" d="M 2906 1791 
Q 2906 2416 2648 2759 
Q 2391 3103 1925 3103 
Q 1463 3103 1205 2759 
Q 947 2416 947 1791 
Q 947 1169 1205 825 
Q 1463 481 1925 481 
Q 2391 481 2648 825 
Q 2906 1169 2906 1791 
z
M 3481 434 
Q 3481 -459 3084 -895 
Q 2688 -1331 1869 -1331 
Q 1566 -1331 1297 -1286 
Q 1028 -1241 775 -1147 
L 775 -588 
Q 1028 -725 1275 -790 
Q 1522 -856 1778 -856 
Q 2344 -856 2625 -561 
Q 2906 -266 2906 331 
L 2906 616 
Q 2728 306 2450 153 
Q 2172 0 1784 0 
Q 1141 0 747 490 
Q 353 981 353 1791 
Q 353 2603 747 3093 
Q 1141 3584 1784 3584 
Q 2172 3584 2450 3431 
Q 2728 3278 2906 2969 
L 2906 3500 
L 3481 3500 
L 3481 434 
z
" transform="scale(0.015625)"/>
      <path id="DejaVuSans-65" d="M 3597 1894 
L 3597 1613 
L 953 1613 
Q 991 1019 1311 708 
Q 1631 397 2203 397 
Q 2534 397 2845 478 
Q 3156 559 3463 722 
L 3463 178 
Q 3153 47 2828 -22 
Q 2503 -91 2169 -91 
Q 1331 -91 842 396 
Q 353 884 353 1716 
Q 353 2575 817 3079 
Q 1281 3584 2069 3584 
Q 2775 3584 3186 3129 
Q 3597 2675 3597 1894 
z
M 3022 2063 
Q 3016 2534 2758 2815 
Q 2500 3097 2075 3097 
Q 1594 3097 1305 2825 
Q 1016 2553 972 2059 
L 3022 2063 
z
" transform="scale(0.015625)"/>
      <path id="DejaVuSans-74" d="M 1172 4494 
L 1172 3500 
L 2356 3500 
L 2356 3053 
L 1172 3053 
L 1172 1153 
Q 1172 725 1289 603 
Q 1406 481 1766 481 
L 2356 481 
L 2356 0 
L 1766 0 
Q 1100 0 847 248 
Q 594 497 594 1153 
L 594 3053 
L 172 3053 
L 172 3500 
L 594 3500 
L 594 4494 
L 1172 4494 
z
" transform="scale(0.015625)"/>
      <path id="DejaVuSans-5f" d="M 3263 -1063 
L 3263 -1509 
L -63 -1509 
L -63 -1063 
L 3263 -1063 
z
" transform="scale(0.015625)"/>
      <path id="DejaVuSans-73" d="M 2834 3397 
L 2834 2853 
Q 2591 2978 2328 3040 
Q 2066 3103 1784 3103 
Q 1356 3103 1142 2972 
Q 928 2841 928 2578 
Q 928 2378 1081 2264 
Q 1234 2150 1697 2047 
L 1894 2003 
Q 2506 1872 2764 1633 
Q 3022 1394 3022 966 
Q 3022 478 2636 193 
Q 2250 -91 1575 -91 
Q 1294 -91 989 -36 
Q 684 19 347 128 
L 347 722 
Q 666 556 975 473 
Q 1284 391 1588 391 
Q 1994 391 2212 530 
Q 2431 669 2431 922 
Q 2431 1156 2273 1281 
Q 2116 1406 1581 1522 
L 1381 1569 
Q 847 1681 609 1914 
Q 372 2147 372 2553 
Q 372 3047 722 3315 
Q 1072 3584 1716 3584 
Q 2034 3584 2315 3537 
Q 2597 3491 2834 3397 
z
" transform="scale(0.015625)"/>
      <path id="DejaVuSans-75" d="M 544 1381 
L 544 3500 
L 1119 3500 
L 1119 1403 
Q 1119 906 1312 657 
Q 1506 409 1894 409 
Q 2359 409 2629 706 
Q 2900 1003 2900 1516 
L 2900 3500 
L 3475 3500 
L 3475 0 
L 2900 0 
L 2900 538 
Q 2691 219 2414 64 
Q 2138 -91 1772 -91 
Q 1169 -91 856 284 
Q 544 659 544 1381 
z
M 1991 3584 
L 1991 3584 
z
" transform="scale(0.015625)"/>
      <path id="DejaVuSans-62" d="M 3116 1747 
Q 3116 2381 2855 2742 
Q 2594 3103 2138 3103 
Q 1681 3103 1420 2742 
Q 1159 2381 1159 1747 
Q 1159 1113 1420 752 
Q 1681 391 2138 391 
Q 2594 391 2855 752 
Q 3116 1113 3116 1747 
z
M 1159 2969 
Q 1341 3281 1617 3432 
Q 1894 3584 2278 3584 
Q 2916 3584 3314 3078 
Q 3713 2572 3713 1747 
Q 3713 922 3314 415 
Q 2916 -91 2278 -91 
Q 1894 -91 1617 61 
Q 1341 213 1159 525 
L 1159 0 
L 581 0 
L 581 4863 
L 1159 4863 
L 1159 2969 
z
" transform="scale(0.015625)"/>
      <path id="DejaVuSans-63" d="M 3122 3366 
L 3122 2828 
Q 2878 2963 2633 3030 
Q 2388 3097 2138 3097 
Q 1578 3097 1268 2742 
Q 959 2388 959 1747 
Q 959 1106 1268 751 
Q 1578 397 2138 397 
Q 2388 397 2633 464 
Q 2878 531 3122 666 
L 3122 134 
Q 2881 22 2623 -34 
Q 2366 -91 2075 -91 
Q 1284 -91 818 406 
Q 353 903 353 1747 
Q 353 2603 823 3093 
Q 1294 3584 2113 3584 
Q 2378 3584 2631 3529 
Q 2884 3475 3122 3366 
z
" transform="scale(0.015625)"/>
      <path id="DejaVuSans-72" d="M 2631 2963 
Q 2534 3019 2420 3045 
Q 2306 3072 2169 3072 
Q 1681 3072 1420 2755 
Q 1159 2438 1159 1844 
L 1159 0 
L 581 0 
L 581 3500 
L 1159 3500 
L 1159 2956 
Q 1341 3275 1631 3429 
Q 1922 3584 2338 3584 
Q 2397 3584 2469 3576 
Q 2541 3569 2628 3553 
L 2631 2963 
z
" transform="scale(0.015625)"/>
      <path id="DejaVuSans-69" d="M 603 3500 
L 1178 3500 
L 1178 0 
L 603 0 
L 603 3500 
z
M 603 4863 
L 1178 4863 
L 1178 4134 
L 603 4134 
L 603 4863 
z
" transform="scale(0.015625)"/>
      <path id="DejaVuSans-20" transform="scale(0.015625)"/>
      <path id="DejaVuSans-68" d="M 3513 2113 
L 3513 0 
L 2938 0 
L 2938 2094 
Q 2938 2591 2744 2837 
Q 2550 3084 2163 3084 
Q 1697 3084 1428 2787 
Q 1159 2491 1159 1978 
L 1159 0 
L 581 0 
L 581 4863 
L 1159 4863 
L 1159 2956 
Q 1366 3272 1645 3428 
Q 1925 3584 2291 3584 
Q 2894 3584 3203 3211 
Q 3513 2838 3513 2113 
z
" transform="scale(0.015625)"/>
      <path id="DejaVuSans-6f" d="M 1959 3097 
Q 1497 3097 1228 2736 
Q 959 2375 959 1747 
Q 959 1119 1226 758 
Q 1494 397 1959 397 
Q 2419 397 2687 759 
Q 2956 1122 2956 1747 
Q 2956 2369 2687 2733 
Q 2419 3097 1959 3097 
z
M 1959 3584 
Q 2709 3584 3137 3096 
Q 3566 2609 3566 1747 
Q 3566 888 3137 398 
Q 2709 -91 1959 -91 
Q 1206 -91 779 398 
Q 353 888 353 1747 
Q 353 2609 779 3096 
Q 1206 3584 1959 3584 
z
" transform="scale(0.015625)"/>
      <path id="DejaVuSans-79" d="M 2059 -325 
Q 1816 -950 1584 -1140 
Q 1353 -1331 966 -1331 
L 506 -1331 
L 506 -850 
L 844 -850 
Q 1081 -850 1212 -737 
Q 1344 -625 1503 -206 
L 1606 56 
L 191 3500 
L 800 3500 
L 1894 763 
L 2988 3500 
L 3597 3500 
L 2059 -325 
z
" transform="scale(0.015625)"/>
     </defs>
     <use xlink:href="#DejaVuSans-67"/>
     <use xlink:href="#DejaVuSans-65" transform="translate(63.476562 0)"/>
     <use xlink:href="#DejaVuSans-74" transform="translate(125 0)"/>
     <use xlink:href="#DejaVuSans-5f" transform="translate(164.208984 0)"/>
     <use xlink:href="#DejaVuSans-73" transform="translate(214.208984 0)"/>
     <use xlink:href="#DejaVuSans-75" transform="translate(266.308594 0)"/>
     <use xlink:href="#DejaVuSans-62" transform="translate(329.6875 0)"/>
     <use xlink:href="#DejaVuSans-73" transform="translate(393.164062 0)"/>
     <use xlink:href="#DejaVuSans-63" transform="translate(445.263672 0)"/>
     <use xlink:href="#DejaVuSans-72" transform="translate(500.244141 0)"/>
     <use xlink:href="#DejaVuSans-69" transform="translate(541.357422 0)"/>
     <use xlink:href="#DejaVuSans-62" transform="translate(569.140625 0)"/>
     <use xlink:href="#DejaVuSans-65" transform="translate(632.617188 0)"/>
     <use xlink:href="#DejaVuSans-20" transform="translate(694.140625 0)"/>
     <use xlink:href="#DejaVuSans-68" transform="translate(725.927734 0)"/>
     <use xlink:href="#DejaVuSans-69" transform="translate(789.306641 0)"/>
     <use xlink:href="#DejaVuSans-73" transform="translate(817.089844 0)"/>
     <use xlink:href="#DejaVuSans-74" transform="translate(869.189453 0)"/>
     <use xlink:href="#DejaVuSans-6f" transform="translate(908.398438 0)"/>
     <use xlink:href="#DejaVuSans-72" transform="translate(969.580078 0)"/>
     <use xlink:href="#DejaVuSans-79" transform="translate(1010.693359 0)"/>
    </g>
   </g>
   <g id="legend_1">
    <g id="line2d_39">
     <path d="M 815.08 328.498438 
L 825.08 328.498438 
L 835.08 328.498438 
" style="fill: none; stroke: #1f77b4; stroke-width: 1.5; stroke-linecap: square"/>
    </g>
    <g id="text_20">
     <!-- star -->
     <g style="fill: #a9a9a9" transform="translate(843.08 331.998438) scale(0.1 -0.1)">
      <defs>
       <path id="DejaVuSans-61" d="M 2194 1759 
Q 1497 1759 1228 1600 
Q 959 1441 959 1056 
Q 959 750 1161 570 
Q 1363 391 1709 391 
Q 2188 391 2477 730 
Q 2766 1069 2766 1631 
L 2766 1759 
L 2194 1759 
z
M 3341 1997 
L 3341 0 
L 2766 0 
L 2766 531 
Q 2569 213 2275 61 
Q 1981 -91 1556 -91 
Q 1019 -91 701 211 
Q 384 513 384 1019 
Q 384 1609 779 1909 
Q 1175 2209 1959 2209 
L 2766 2209 
L 2766 2266 
Q 2766 2663 2505 2880 
Q 2244 3097 1772 3097 
Q 1472 3097 1187 3025 
Q 903 2953 641 2809 
L 641 3341 
Q 956 3463 1253 3523 
Q 1550 3584 1831 3584 
Q 2591 3584 2966 3190 
Q 3341 2797 3341 1997 
z
" transform="scale(0.015625)"/>
      </defs>
      <use xlink:href="#DejaVuSans-73"/>
      <use xlink:href="#DejaVuSans-74" transform="translate(52.099609 0)"/>
      <use xlink:href="#DejaVuSans-61" transform="translate(91.308594 0)"/>
      <use xlink:href="#DejaVuSans-72" transform="translate(152.587891 0)"/>
     </g>
    </g>
    <g id="line2d_40">
     <path d="M 815.08 343.176562 
L 825.08 343.176562 
L 835.08 343.176562 
" style="fill: none; stroke: #ff7f0e; stroke-width: 1.5; stroke-linecap: square"/>
    </g>
    <g id="text_21">
     <!-- fork -->
     <g style="fill: #a9a9a9" transform="translate(843.08 346.676562) scale(0.1 -0.1)">
      <defs>
       <path id="DejaVuSans-66" d="M 2375 4863 
L 2375 4384 
L 1825 4384 
Q 1516 4384 1395 4259 
Q 1275 4134 1275 3809 
L 1275 3500 
L 2222 3500 
L 2222 3053 
L 1275 3053 
L 1275 0 
L 697 0 
L 697 3053 
L 147 3053 
L 147 3500 
L 697 3500 
L 697 3744 
Q 697 4328 969 4595 
Q 1241 4863 1831 4863 
L 2375 4863 
z
" transform="scale(0.015625)"/>
       <path id="DejaVuSans-6b" d="M 581 4863 
L 1159 4863 
L 1159 1991 
L 2875 3500 
L 3609 3500 
L 1753 1863 
L 3688 0 
L 2938 0 
L 1159 1709 
L 1159 0 
L 581 0 
L 581 4863 
z
" transform="scale(0.015625)"/>
      </defs>
      <use xlink:href="#DejaVuSans-66"/>
      <use xlink:href="#DejaVuSans-6f" transform="translate(35.205078 0)"/>
      <use xlink:href="#DejaVuSans-72" transform="translate(96.386719 0)"/>
      <use xlink:href="#DejaVuSans-6b" transform="translate(137.5 0)"/>
     </g>
    </g>
   </g>
  </g>
 </g>
 <defs>
  <clipPath id="p5d75f6975b">
   <rect x="108" y="43.2" width="669.6" height="277.2"/>
  </clipPath>
 </defs>
</svg>
