<?xml version="1.0" encoding="utf-8" standalone="no"?>
<!DOCTYPE svg PUBLIC "-//W3C//DTD SVG 1.1//EN"
  "http://www.w3.org/Graphics/SVG/1.1/DTD/svg11.dtd">
<svg xmlns:xlink="http://www.w3.org/1999/xlink" width="864pt" height="360pt" viewBox="0 0 864 360" xmlns="http://www.w3.org/2000/svg" version="1.1">
 <metadata>
  <rdf:RDF xmlns:dc="http://purl.org/dc/elements/1.1/" xmlns:cc="http://creativecommons.org/ns#" xmlns:rdf="http://www.w3.org/1999/02/22-rdf-syntax-ns#">
   <cc:Work>
    <dc:type rdf:resource="http://purl.org/dc/dcmitype/StillImage"/>
    <dc:date>2025-06-25T20:07:09.892502</dc:date>
    <dc:format>image/svg+xml</dc:format>
    <dc:creator>
     <cc:Agent>
      <dc:title>Matplotlib v3.10.3, https://matplotlib.org/</dc:title>
     </cc:Agent>
    </dc:creator>
   </cc:Work>
  </rdf:RDF>
 </metadata>
 <defs>
  <style type="text/css">*{stroke-linejoin: round; stroke-linecap: butt}</style>
 </defs>
 <g id="figure_1">
  <g id="patch_1">
   <path d="M 0 360 
L 864 360 
L 864 0 
L 0 0 
L 0 360 
z
" style="fill: none; opacity: 0"/>
  </g>
  <g id="axes_1">
   <g id="patch_2">
    <path d="M 108 320.4 
L 777.6 320.4 
L 777.6 43.2 
L 108 43.2 
L 108 320.4 
z
" style="fill: none; opacity: 0"/>
   </g>
   <g id="matplotlib.axis_1">
    <g id="xtick_1">
     <g id="line2d_1">
      <path d="M 128.659319 320.4 
L 128.659319 43.2 
" clip-path="url(#padebd38ada)" style="fill: none; stroke-dasharray: 5.12,1.28,0.8,1.28; stroke-dashoffset: 0; stroke: #b0b0b0; stroke-width: 0.8"/>
     </g>
     <g id="line2d_2">
      <defs>
       <path id="m6fe1888ec9" d="M 0 0 
L 0 3.5 
" style="stroke: #a9a9a9; stroke-width: 0.8"/>
      </defs>
      <g>
       <use xlink:href="#m6fe1888ec9" x="128.659319" y="320.4" style="fill: #a9a9a9; stroke: #a9a9a9; stroke-width: 0.8"/>
      </g>
     </g>
     <g id="text_1">
      <!-- 2021-07 -->
      <g style="fill: #a9a9a9" transform="translate(107.767913 334.998438) scale(0.1 -0.1)">
       <defs>
        <path id="DejaVuSans-32" d="M 1228 531 
L 3431 531 
L 3431 0 
L 469 0 
L 469 531 
Q 828 903 1448 1529 
Q 2069 2156 2228 2338 
Q 2531 2678 2651 2914 
Q 2772 3150 2772 3378 
Q 2772 3750 2511 3984 
Q 2250 4219 1831 4219 
Q 1534 4219 1204 4116 
Q 875 4013 500 3803 
L 500 4441 
Q 881 4594 1212 4672 
Q 1544 4750 1819 4750 
Q 2544 4750 2975 4387 
Q 3406 4025 3406 3419 
Q 3406 3131 3298 2873 
Q 3191 2616 2906 2266 
Q 2828 2175 2409 1742 
Q 1991 1309 1228 531 
z
" transform="scale(0.015625)"/>
        <path id="DejaVuSans-30" d="M 2034 4250 
Q 1547 4250 1301 3770 
Q 1056 3291 1056 2328 
Q 1056 1369 1301 889 
Q 1547 409 2034 409 
Q 2525 409 2770 889 
Q 3016 1369 3016 2328 
Q 3016 3291 2770 3770 
Q 2525 4250 2034 4250 
z
M 2034 4750 
Q 2819 4750 3233 4129 
Q 3647 3509 3647 2328 
Q 3647 1150 3233 529 
Q 2819 -91 2034 -91 
Q 1250 -91 836 529 
Q 422 1150 422 2328 
Q 422 3509 836 4129 
Q 1250 4750 2034 4750 
z
" transform="scale(0.015625)"/>
        <path id="DejaVuSans-31" d="M 794 531 
L 1825 531 
L 1825 4091 
L 703 3866 
L 703 4441 
L 1819 4666 
L 2450 4666 
L 2450 531 
L 3481 531 
L 3481 0 
L 794 0 
L 794 531 
z
" transform="scale(0.015625)"/>
        <path id="DejaVuSans-2d" d="M 313 2009 
L 1997 2009 
L 1997 1497 
L 313 1497 
L 313 2009 
z
" transform="scale(0.015625)"/>
        <path id="DejaVuSans-37" d="M 525 4666 
L 3525 4666 
L 3525 4397 
L 1831 0 
L 1172 0 
L 2766 4134 
L 525 4134 
L 525 4666 
z
" transform="scale(0.015625)"/>
       </defs>
       <use xlink:href="#DejaVuSans-32"/>
       <use xlink:href="#DejaVuSans-30" transform="translate(63.623047 0)"/>
       <use xlink:href="#DejaVuSans-32" transform="translate(127.246094 0)"/>
       <use xlink:href="#DejaVuSans-31" transform="translate(190.869141 0)"/>
       <use xlink:href="#DejaVuSans-2d" transform="translate(254.492188 0)"/>
       <use xlink:href="#DejaVuSans-30" transform="translate(290.576172 0)"/>
       <use xlink:href="#DejaVuSans-37" transform="translate(354.199219 0)"/>
      </g>
     </g>
    </g>
    <g id="xtick_2">
     <g id="line2d_3">
      <path d="M 206.875673 320.4 
L 206.875673 43.2 
" clip-path="url(#padebd38ada)" style="fill: none; stroke-dasharray: 5.12,1.28,0.8,1.28; stroke-dashoffset: 0; stroke: #b0b0b0; stroke-width: 0.8"/>
     </g>
     <g id="line2d_4">
      <g>
       <use xlink:href="#m6fe1888ec9" x="206.875673" y="320.4" style="fill: #a9a9a9; stroke: #a9a9a9; stroke-width: 0.8"/>
      </g>
     </g>
     <g id="text_2">
      <!-- 2022-01 -->
      <g style="fill: #a9a9a9" transform="translate(185.984267 334.998438) scale(0.1 -0.1)">
       <use xlink:href="#DejaVuSans-32"/>
       <use xlink:href="#DejaVuSans-30" transform="translate(63.623047 0)"/>
       <use xlink:href="#DejaVuSans-32" transform="translate(127.246094 0)"/>
       <use xlink:href="#DejaVuSans-32" transform="translate(190.869141 0)"/>
       <use xlink:href="#DejaVuSans-2d" transform="translate(254.492188 0)"/>
       <use xlink:href="#DejaVuSans-30" transform="translate(290.576172 0)"/>
       <use xlink:href="#DejaVuSans-31" transform="translate(354.199219 0)"/>
      </g>
     </g>
    </g>
    <g id="xtick_3">
     <g id="line2d_5">
      <path d="M 283.81676 320.4 
L 283.81676 43.2 
" clip-path="url(#padebd38ada)" style="fill: none; stroke-dasharray: 5.12,1.28,0.8,1.28; stroke-dashoffset: 0; stroke: #b0b0b0; stroke-width: 0.8"/>
     </g>
     <g id="line2d_6">
      <g>
       <use xlink:href="#m6fe1888ec9" x="283.81676" y="320.4" style="fill: #a9a9a9; stroke: #a9a9a9; stroke-width: 0.8"/>
      </g>
     </g>
     <g id="text_3">
      <!-- 2022-07 -->
      <g style="fill: #a9a9a9" transform="translate(262.925354 334.998438) scale(0.1 -0.1)">
       <use xlink:href="#DejaVuSans-32"/>
       <use xlink:href="#DejaVuSans-30" transform="translate(63.623047 0)"/>
       <use xlink:href="#DejaVuSans-32" transform="translate(127.246094 0)"/>
       <use xlink:href="#DejaVuSans-32" transform="translate(190.869141 0)"/>
       <use xlink:href="#DejaVuSans-2d" transform="translate(254.492188 0)"/>
       <use xlink:href="#DejaVuSans-30" transform="translate(290.576172 0)"/>
       <use xlink:href="#DejaVuSans-37" transform="translate(354.199219 0)"/>
      </g>
     </g>
    </g>
    <g id="xtick_4">
     <g id="line2d_7">
      <path d="M 362.033113 320.4 
L 362.033113 43.2 
" clip-path="url(#padebd38ada)" style="fill: none; stroke-dasharray: 5.12,1.28,0.8,1.28; stroke-dashoffset: 0; stroke: #b0b0b0; stroke-width: 0.8"/>
     </g>
     <g id="line2d_8">
      <g>
       <use xlink:href="#m6fe1888ec9" x="362.033113" y="320.4" style="fill: #a9a9a9; stroke: #a9a9a9; stroke-width: 0.8"/>
      </g>
     </g>
     <g id="text_4">
      <!-- 2023-01 -->
      <g style="fill: #a9a9a9" transform="translate(341.141707 334.998438) scale(0.1 -0.1)">
       <defs>
        <path id="DejaVuSans-33" d="M 2597 2516 
Q 3050 2419 3304 2112 
Q 3559 1806 3559 1356 
Q 3559 666 3084 287 
Q 2609 -91 1734 -91 
Q 1441 -91 1130 -33 
Q 819 25 488 141 
L 488 750 
Q 750 597 1062 519 
Q 1375 441 1716 441 
Q 2309 441 2620 675 
Q 2931 909 2931 1356 
Q 2931 1769 2642 2001 
Q 2353 2234 1838 2234 
L 1294 2234 
L 1294 2753 
L 1863 2753 
Q 2328 2753 2575 2939 
Q 2822 3125 2822 3475 
Q 2822 3834 2567 4026 
Q 2313 4219 1838 4219 
Q 1578 4219 1281 4162 
Q 984 4106 628 3988 
L 628 4550 
Q 988 4650 1302 4700 
Q 1616 4750 1894 4750 
Q 2613 4750 3031 4423 
Q 3450 4097 3450 3541 
Q 3450 3153 3228 2886 
Q 3006 2619 2597 2516 
z
" transform="scale(0.015625)"/>
       </defs>
       <use xlink:href="#DejaVuSans-32"/>
       <use xlink:href="#DejaVuSans-30" transform="translate(63.623047 0)"/>
       <use xlink:href="#DejaVuSans-32" transform="translate(127.246094 0)"/>
       <use xlink:href="#DejaVuSans-33" transform="translate(190.869141 0)"/>
       <use xlink:href="#DejaVuSans-2d" transform="translate(254.492188 0)"/>
       <use xlink:href="#DejaVuSans-30" transform="translate(290.576172 0)"/>
       <use xlink:href="#DejaVuSans-31" transform="translate(354.199219 0)"/>
      </g>
     </g>
    </g>
    <g id="xtick_5">
     <g id="line2d_9">
      <path d="M 438.9742 320.4 
L 438.9742 43.2 
" clip-path="url(#padebd38ada)" style="fill: none; stroke-dasharray: 5.12,1.28,0.8,1.28; stroke-dashoffset: 0; stroke: #b0b0b0; stroke-width: 0.8"/>
     </g>
     <g id="line2d_10">
      <g>
       <use xlink:href="#m6fe1888ec9" x="438.9742" y="320.4" style="fill: #a9a9a9; stroke: #a9a9a9; stroke-width: 0.8"/>
      </g>
     </g>
     <g id="text_5">
      <!-- 2023-07 -->
      <g style="fill: #a9a9a9" transform="translate(418.082794 334.998438) scale(0.1 -0.1)">
       <use xlink:href="#DejaVuSans-32"/>
       <use xlink:href="#DejaVuSans-30" transform="translate(63.623047 0)"/>
       <use xlink:href="#DejaVuSans-32" transform="translate(127.246094 0)"/>
       <use xlink:href="#DejaVuSans-33" transform="translate(190.869141 0)"/>
       <use xlink:href="#DejaVuSans-2d" transform="translate(254.492188 0)"/>
       <use xlink:href="#DejaVuSans-30" transform="translate(290.576172 0)"/>
       <use xlink:href="#DejaVuSans-37" transform="translate(354.199219 0)"/>
      </g>
     </g>
    </g>
    <g id="xtick_6">
     <g id="line2d_11">
      <path d="M 517.190554 320.4 
L 517.190554 43.2 
" clip-path="url(#padebd38ada)" style="fill: none; stroke-dasharray: 5.12,1.28,0.8,1.28; stroke-dashoffset: 0; stroke: #b0b0b0; stroke-width: 0.8"/>
     </g>
     <g id="line2d_12">
      <g>
       <use xlink:href="#m6fe1888ec9" x="517.190554" y="320.4" style="fill: #a9a9a9; stroke: #a9a9a9; stroke-width: 0.8"/>
      </g>
     </g>
     <g id="text_6">
      <!-- 2024-01 -->
      <g style="fill: #a9a9a9" transform="translate(496.299147 334.998438) scale(0.1 -0.1)">
       <defs>
        <path id="DejaVuSans-34" d="M 2419 4116 
L 825 1625 
L 2419 1625 
L 2419 4116 
z
M 2253 4666 
L 3047 4666 
L 3047 1625 
L 3713 1625 
L 3713 1100 
L 3047 1100 
L 3047 0 
L 2419 0 
L 2419 1100 
L 313 1100 
L 313 1709 
L 2253 4666 
z
" transform="scale(0.015625)"/>
       </defs>
       <use xlink:href="#DejaVuSans-32"/>
       <use xlink:href="#DejaVuSans-30" transform="translate(63.623047 0)"/>
       <use xlink:href="#DejaVuSans-32" transform="translate(127.246094 0)"/>
       <use xlink:href="#DejaVuSans-34" transform="translate(190.869141 0)"/>
       <use xlink:href="#DejaVuSans-2d" transform="translate(254.492188 0)"/>
       <use xlink:href="#DejaVuSans-30" transform="translate(290.576172 0)"/>
       <use xlink:href="#DejaVuSans-31" transform="translate(354.199219 0)"/>
      </g>
     </g>
    </g>
    <g id="xtick_7">
     <g id="line2d_13">
      <path d="M 594.556729 320.4 
L 594.556729 43.2 
" clip-path="url(#padebd38ada)" style="fill: none; stroke-dasharray: 5.12,1.28,0.8,1.28; stroke-dashoffset: 0; stroke: #b0b0b0; stroke-width: 0.8"/>
     </g>
     <g id="line2d_14">
      <g>
       <use xlink:href="#m6fe1888ec9" x="594.556729" y="320.4" style="fill: #a9a9a9; stroke: #a9a9a9; stroke-width: 0.8"/>
      </g>
     </g>
     <g id="text_7">
      <!-- 2024-07 -->
      <g style="fill: #a9a9a9" transform="translate(573.665323 334.998438) scale(0.1 -0.1)">
       <use xlink:href="#DejaVuSans-32"/>
       <use xlink:href="#DejaVuSans-30" transform="translate(63.623047 0)"/>
       <use xlink:href="#DejaVuSans-32" transform="translate(127.246094 0)"/>
       <use xlink:href="#DejaVuSans-34" transform="translate(190.869141 0)"/>
       <use xlink:href="#DejaVuSans-2d" transform="translate(254.492188 0)"/>
       <use xlink:href="#DejaVuSans-30" transform="translate(290.576172 0)"/>
       <use xlink:href="#DejaVuSans-37" transform="translate(354.199219 0)"/>
      </g>
     </g>
    </g>
    <g id="xtick_8">
     <g id="line2d_15">
      <path d="M 672.773083 320.4 
L 672.773083 43.2 
" clip-path="url(#padebd38ada)" style="fill: none; stroke-dasharray: 5.12,1.28,0.8,1.28; stroke-dashoffset: 0; stroke: #b0b0b0; stroke-width: 0.8"/>
     </g>
     <g id="line2d_16">
      <g>
       <use xlink:href="#m6fe1888ec9" x="672.773083" y="320.4" style="fill: #a9a9a9; stroke: #a9a9a9; stroke-width: 0.8"/>
      </g>
     </g>
     <g id="text_8">
      <!-- 2025-01 -->
      <g style="fill: #a9a9a9" transform="translate(651.881677 334.998438) scale(0.1 -0.1)">
       <defs>
        <path id="DejaVuSans-35" d="M 691 4666 
L 3169 4666 
L 3169 4134 
L 1269 4134 
L 1269 2991 
Q 1406 3038 1543 3061 
Q 1681 3084 1819 3084 
Q 2600 3084 3056 2656 
Q 3513 2228 3513 1497 
Q 3513 744 3044 326 
Q 2575 -91 1722 -91 
Q 1428 -91 1123 -41 
Q 819 9 494 109 
L 494 744 
Q 775 591 1075 516 
Q 1375 441 1709 441 
Q 2250 441 2565 725 
Q 2881 1009 2881 1497 
Q 2881 1984 2565 2268 
Q 2250 2553 1709 2553 
Q 1456 2553 1204 2497 
Q 953 2441 691 2322 
L 691 4666 
z
" transform="scale(0.015625)"/>
       </defs>
       <use xlink:href="#DejaVuSans-32"/>
       <use xlink:href="#DejaVuSans-30" transform="translate(63.623047 0)"/>
       <use xlink:href="#DejaVuSans-32" transform="translate(127.246094 0)"/>
       <use xlink:href="#DejaVuSans-35" transform="translate(190.869141 0)"/>
       <use xlink:href="#DejaVuSans-2d" transform="translate(254.492188 0)"/>
       <use xlink:href="#DejaVuSans-30" transform="translate(290.576172 0)"/>
       <use xlink:href="#DejaVuSans-31" transform="translate(354.199219 0)"/>
      </g>
     </g>
    </g>
    <g id="xtick_9">
     <g id="line2d_17">
      <path d="M 749.71417 320.4 
L 749.71417 43.2 
" clip-path="url(#padebd38ada)" style="fill: none; stroke-dasharray: 5.12,1.28,0.8,1.28; stroke-dashoffset: 0; stroke: #b0b0b0; stroke-width: 0.8"/>
     </g>
     <g id="line2d_18">
      <g>
       <use xlink:href="#m6fe1888ec9" x="749.71417" y="320.4" style="fill: #a9a9a9; stroke: #a9a9a9; stroke-width: 0.8"/>
      </g>
     </g>
     <g id="text_9">
      <!-- 2025-07 -->
      <g style="fill: #a9a9a9" transform="translate(728.822763 334.998438) scale(0.1 -0.1)">
       <use xlink:href="#DejaVuSans-32"/>
       <use xlink:href="#DejaVuSans-30" transform="translate(63.623047 0)"/>
       <use xlink:href="#DejaVuSans-32" transform="translate(127.246094 0)"/>
       <use xlink:href="#DejaVuSans-35" transform="translate(190.869141 0)"/>
       <use xlink:href="#DejaVuSans-2d" transform="translate(254.492188 0)"/>
       <use xlink:href="#DejaVuSans-30" transform="translate(290.576172 0)"/>
       <use xlink:href="#DejaVuSans-37" transform="translate(354.199219 0)"/>
      </g>
     </g>
    </g>
   </g>
   <g id="matplotlib.axis_2">
    <g id="ytick_1">
     <g id="line2d_19">
      <path d="M 108 307.83237 
L 777.6 307.83237 
" clip-path="url(#padebd38ada)" style="fill: none; stroke-dasharray: 5.12,1.28,0.8,1.28; stroke-dashoffset: 0; stroke: #b0b0b0; stroke-width: 0.8"/>
     </g>
     <g id="line2d_20">
      <defs>
       <path id="m8075290b3a" d="M 0 0 
L -3.5 0 
" style="stroke: #a9a9a9; stroke-width: 0.8"/>
      </defs>
      <g>
       <use xlink:href="#m8075290b3a" x="108" y="307.83237" style="fill: #a9a9a9; stroke: #a9a9a9; stroke-width: 0.8"/>
      </g>
     </g>
     <g id="text_10">
      <!-- 0 -->
      <g style="fill: #a9a9a9" transform="translate(94.6375 311.631589) scale(0.1 -0.1)">
       <use xlink:href="#DejaVuSans-30"/>
      </g>
     </g>
    </g>
    <g id="ytick_2">
     <g id="line2d_21">
      <path d="M 108 275.462428 
L 777.6 275.462428 
" clip-path="url(#padebd38ada)" style="fill: none; stroke-dasharray: 5.12,1.28,0.8,1.28; stroke-dashoffset: 0; stroke: #b0b0b0; stroke-width: 0.8"/>
     </g>
     <g id="line2d_22">
      <g>
       <use xlink:href="#m8075290b3a" x="108" y="275.462428" style="fill: #a9a9a9; stroke: #a9a9a9; stroke-width: 0.8"/>
      </g>
     </g>
     <g id="text_11">
      <!-- 1000 -->
      <g style="fill: #a9a9a9" transform="translate(75.55 279.261646) scale(0.1 -0.1)">
       <use xlink:href="#DejaVuSans-31"/>
       <use xlink:href="#DejaVuSans-30" transform="translate(63.623047 0)"/>
       <use xlink:href="#DejaVuSans-30" transform="translate(127.246094 0)"/>
       <use xlink:href="#DejaVuSans-30" transform="translate(190.869141 0)"/>
      </g>
     </g>
    </g>
    <g id="ytick_3">
     <g id="line2d_23">
      <path d="M 108 243.092486 
L 777.6 243.092486 
" clip-path="url(#padebd38ada)" style="fill: none; stroke-dasharray: 5.12,1.28,0.8,1.28; stroke-dashoffset: 0; stroke: #b0b0b0; stroke-width: 0.8"/>
     </g>
     <g id="line2d_24">
      <g>
       <use xlink:href="#m8075290b3a" x="108" y="243.092486" style="fill: #a9a9a9; stroke: #a9a9a9; stroke-width: 0.8"/>
      </g>
     </g>
     <g id="text_12">
      <!-- 2000 -->
      <g style="fill: #a9a9a9" transform="translate(75.55 246.891704) scale(0.1 -0.1)">
       <use xlink:href="#DejaVuSans-32"/>
       <use xlink:href="#DejaVuSans-30" transform="translate(63.623047 0)"/>
       <use xlink:href="#DejaVuSans-30" transform="translate(127.246094 0)"/>
       <use xlink:href="#DejaVuSans-30" transform="translate(190.869141 0)"/>
      </g>
     </g>
    </g>
    <g id="ytick_4">
     <g id="line2d_25">
      <path d="M 108 210.722543 
L 777.6 210.722543 
" clip-path="url(#padebd38ada)" style="fill: none; stroke-dasharray: 5.12,1.28,0.8,1.28; stroke-dashoffset: 0; stroke: #b0b0b0; stroke-width: 0.8"/>
     </g>
     <g id="line2d_26">
      <g>
       <use xlink:href="#m8075290b3a" x="108" y="210.722543" style="fill: #a9a9a9; stroke: #a9a9a9; stroke-width: 0.8"/>
      </g>
     </g>
     <g id="text_13">
      <!-- 3000 -->
      <g style="fill: #a9a9a9" transform="translate(75.55 214.521762) scale(0.1 -0.1)">
       <use xlink:href="#DejaVuSans-33"/>
       <use xlink:href="#DejaVuSans-30" transform="translate(63.623047 0)"/>
       <use xlink:href="#DejaVuSans-30" transform="translate(127.246094 0)"/>
       <use xlink:href="#DejaVuSans-30" transform="translate(190.869141 0)"/>
      </g>
     </g>
    </g>
    <g id="ytick_5">
     <g id="line2d_27">
      <path d="M 108 178.352601 
L 777.6 178.352601 
" clip-path="url(#padebd38ada)" style="fill: none; stroke-dasharray: 5.12,1.28,0.8,1.28; stroke-dashoffset: 0; stroke: #b0b0b0; stroke-width: 0.8"/>
     </g>
     <g id="line2d_28">
      <g>
       <use xlink:href="#m8075290b3a" x="108" y="178.352601" style="fill: #a9a9a9; stroke: #a9a9a9; stroke-width: 0.8"/>
      </g>
     </g>
     <g id="text_14">
      <!-- 4000 -->
      <g style="fill: #a9a9a9" transform="translate(75.55 182.15182) scale(0.1 -0.1)">
       <use xlink:href="#DejaVuSans-34"/>
       <use xlink:href="#DejaVuSans-30" transform="translate(63.623047 0)"/>
       <use xlink:href="#DejaVuSans-30" transform="translate(127.246094 0)"/>
       <use xlink:href="#DejaVuSans-30" transform="translate(190.869141 0)"/>
      </g>
     </g>
    </g>
    <g id="ytick_6">
     <g id="line2d_29">
      <path d="M 108 145.982659 
L 777.6 145.982659 
" clip-path="url(#padebd38ada)" style="fill: none; stroke-dasharray: 5.12,1.28,0.8,1.28; stroke-dashoffset: 0; stroke: #b0b0b0; stroke-width: 0.8"/>
     </g>
     <g id="line2d_30">
      <g>
       <use xlink:href="#m8075290b3a" x="108" y="145.982659" style="fill: #a9a9a9; stroke: #a9a9a9; stroke-width: 0.8"/>
      </g>
     </g>
     <g id="text_15">
      <!-- 5000 -->
      <g style="fill: #a9a9a9" transform="translate(75.55 149.781878) scale(0.1 -0.1)">
       <use xlink:href="#DejaVuSans-35"/>
       <use xlink:href="#DejaVuSans-30" transform="translate(63.623047 0)"/>
       <use xlink:href="#DejaVuSans-30" transform="translate(127.246094 0)"/>
       <use xlink:href="#DejaVuSans-30" transform="translate(190.869141 0)"/>
      </g>
     </g>
    </g>
    <g id="ytick_7">
     <g id="line2d_31">
      <path d="M 108 113.612717 
L 777.6 113.612717 
" clip-path="url(#padebd38ada)" style="fill: none; stroke-dasharray: 5.12,1.28,0.8,1.28; stroke-dashoffset: 0; stroke: #b0b0b0; stroke-width: 0.8"/>
     </g>
     <g id="line2d_32">
      <g>
       <use xlink:href="#m8075290b3a" x="108" y="113.612717" style="fill: #a9a9a9; stroke: #a9a9a9; stroke-width: 0.8"/>
      </g>
     </g>
     <g id="text_16">
      <!-- 6000 -->
      <g style="fill: #a9a9a9" transform="translate(75.55 117.411936) scale(0.1 -0.1)">
       <defs>
        <path id="DejaVuSans-36" d="M 2113 2584 
Q 1688 2584 1439 2293 
Q 1191 2003 1191 1497 
Q 1191 994 1439 701 
Q 1688 409 2113 409 
Q 2538 409 2786 701 
Q 3034 994 3034 1497 
Q 3034 2003 2786 2293 
Q 2538 2584 2113 2584 
z
M 3366 4563 
L 3366 3988 
Q 3128 4100 2886 4159 
Q 2644 4219 2406 4219 
Q 1781 4219 1451 3797 
Q 1122 3375 1075 2522 
Q 1259 2794 1537 2939 
Q 1816 3084 2150 3084 
Q 2853 3084 3261 2657 
Q 3669 2231 3669 1497 
Q 3669 778 3244 343 
Q 2819 -91 2113 -91 
Q 1303 -91 875 529 
Q 447 1150 447 2328 
Q 447 3434 972 4092 
Q 1497 4750 2381 4750 
Q 2619 4750 2861 4703 
Q 3103 4656 3366 4563 
z
" transform="scale(0.015625)"/>
       </defs>
       <use xlink:href="#DejaVuSans-36"/>
       <use xlink:href="#DejaVuSans-30" transform="translate(63.623047 0)"/>
       <use xlink:href="#DejaVuSans-30" transform="translate(127.246094 0)"/>
       <use xlink:href="#DejaVuSans-30" transform="translate(190.869141 0)"/>
      </g>
     </g>
    </g>
    <g id="ytick_8">
     <g id="line2d_33">
      <path d="M 108 81.242775 
L 777.6 81.242775 
" clip-path="url(#padebd38ada)" style="fill: none; stroke-dasharray: 5.12,1.28,0.8,1.28; stroke-dashoffset: 0; stroke: #b0b0b0; stroke-width: 0.8"/>
     </g>
     <g id="line2d_34">
      <g>
       <use xlink:href="#m8075290b3a" x="108" y="81.242775" style="fill: #a9a9a9; stroke: #a9a9a9; stroke-width: 0.8"/>
      </g>
     </g>
     <g id="text_17">
      <!-- 7000 -->
      <g style="fill: #a9a9a9" transform="translate(75.55 85.041993) scale(0.1 -0.1)">
       <use xlink:href="#DejaVuSans-37"/>
       <use xlink:href="#DejaVuSans-30" transform="translate(63.623047 0)"/>
       <use xlink:href="#DejaVuSans-30" transform="translate(127.246094 0)"/>
       <use xlink:href="#DejaVuSans-30" transform="translate(190.869141 0)"/>
      </g>
     </g>
    </g>
    <g id="ytick_9">
     <g id="line2d_35">
      <path d="M 108 48.872832 
L 777.6 48.872832 
" clip-path="url(#padebd38ada)" style="fill: none; stroke-dasharray: 5.12,1.28,0.8,1.28; stroke-dashoffset: 0; stroke: #b0b0b0; stroke-width: 0.8"/>
     </g>
     <g id="line2d_36">
      <g>
       <use xlink:href="#m8075290b3a" x="108" y="48.872832" style="fill: #a9a9a9; stroke: #a9a9a9; stroke-width: 0.8"/>
      </g>
     </g>
     <g id="text_18">
      <!-- 8000 -->
      <g style="fill: #a9a9a9" transform="translate(75.55 52.672051) scale(0.1 -0.1)">
       <defs>
        <path id="DejaVuSans-38" d="M 2034 2216 
Q 1584 2216 1326 1975 
Q 1069 1734 1069 1313 
Q 1069 891 1326 650 
Q 1584 409 2034 409 
Q 2484 409 2743 651 
Q 3003 894 3003 1313 
Q 3003 1734 2745 1975 
Q 2488 2216 2034 2216 
z
M 1403 2484 
Q 997 2584 770 2862 
Q 544 3141 544 3541 
Q 544 4100 942 4425 
Q 1341 4750 2034 4750 
Q 2731 4750 3128 4425 
Q 3525 4100 3525 3541 
Q 3525 3141 3298 2862 
Q 3072 2584 2669 2484 
Q 3125 2378 3379 2068 
Q 3634 1759 3634 1313 
Q 3634 634 3220 271 
Q 2806 -91 2034 -91 
Q 1263 -91 848 271 
Q 434 634 434 1313 
Q 434 1759 690 2068 
Q 947 2378 1403 2484 
z
M 1172 3481 
Q 1172 3119 1398 2916 
Q 1625 2713 2034 2713 
Q 2441 2713 2670 2916 
Q 2900 3119 2900 3481 
Q 2900 3844 2670 4047 
Q 2441 4250 2034 4250 
Q 1625 4250 1398 4047 
Q 1172 3844 1172 3481 
z
" transform="scale(0.015625)"/>
       </defs>
       <use xlink:href="#DejaVuSans-38"/>
       <use xlink:href="#DejaVuSans-30" transform="translate(63.623047 0)"/>
       <use xlink:href="#DejaVuSans-30" transform="translate(127.246094 0)"/>
       <use xlink:href="#DejaVuSans-30" transform="translate(190.869141 0)"/>
      </g>
     </g>
    </g>
   </g>
   <g id="line2d_37">
    <path d="M 138.436364 307.73526 
L 140.986897 307.508671 
L 141.411986 307.314451 
L 143.112341 307.087861 
L 144.812697 306.731792 
L 145.662875 306.602312 
L 147.788319 306.408092 
L 148.638497 306.052023 
L 149.063586 305.469364 
L 149.488674 305.178035 
L 149.913763 304.206936 
L 150.338852 304.142197 
L 150.763941 303.786127 
L 151.614119 303.332948 
L 153.314474 301.908671 
L 155.01483 301.034682 
L 156.290096 300.419653 
L 156.715185 299.707514 
L 157.565363 299.060116 
L 157.990452 298.865896 
L 162.241341 298.218497 
L 162.66643 298.024277 
L 165.642052 297.765318 
L 167.342407 297.344509 
L 170.743118 296.85896 
L 171.168207 296.63237 
L 171.593296 296.56763 
L 172.443474 296.276301 
L 175.419096 295.758382 
L 176.269274 295.499422 
L 180.095074 294.852023 
L 180.945251 294.657803 
L 181.795429 294.625434 
L 183.495785 294.204624 
L 183.920874 293.589595 
L 185.19614 293.071676 
L 186.471407 292.715607 
L 186.896496 292.489017 
L 187.746673 292.327168 
L 189.447029 291.809249 
L 190.297207 291.744509 
L 191.147384 291.517919 
L 192.84774 291.06474 
L 193.272829 291.03237 
L 194.123007 290.611561 
L 194.548095 290.546821 
L 194.973184 290.320231 
L 199.649162 289.510983 
L 201.349518 288.993064 
L 201.774606 288.701734 
L 203.900051 287.989595 
L 204.750229 287.374566 
L 206.025495 287.115607 
L 215.37745 284.299422 
L 215.802539 284.267052 
L 217.077806 283.878613 
L 217.502895 283.878613 
L 217.927984 283.684393 
L 218.778162 283.587283 
L 219.20325 283.425434 
L 220.903606 283.360694 
L 221.753784 283.198844 
L 222.603961 282.745665 
L 223.879228 282.260116 
L 224.729406 281.806936 
L 225.579584 281.353757 
L 226.429761 281.062428 
L 226.85485 280.932948 
L 227.705028 280.382659 
L 228.130117 279.89711 
L 228.980295 278.537572 
L 229.405383 278.408092 
L 229.830472 278.408092 
L 231.530828 277.436994 
L 231.955917 277.339884 
L 232.381006 276.919075 
L 233.231183 276.563006 
L 234.081361 276.174566 
L 234.50645 275.656647 
L 234.931539 274.944509 
L 235.356628 274.653179 
L 235.781717 273.876301 
L 236.206805 273.390751 
L 238.757339 271.966474 
L 239.607517 271.254335 
L 240.032605 270.995376 
L 240.457694 270.380347 
L 240.882783 269.376879 
L 241.307872 268.69711 
L 241.732961 268.34104 
L 242.15805 268.146821 
L 245.558761 264.942197 
L 246.408939 264.132948 
L 248.959472 262.482081 
L 249.384561 262.320231 
L 251.084916 261.284393 
L 251.510005 261.090173 
L 253.635449 259.083237 
L 254.485627 258.727168 
L 255.335805 258.112139 
L 255.760894 257.853179 
L 256.185983 257.788439 
L 257.461249 257.043931 
L 257.886338 256.558382 
L 260.011783 255.360694 
L 260.436872 255.198844 
L 261.712138 254.292486 
L 268.088471 251.96185 
L 268.938649 251.152601 
L 270.213916 250.505202 
L 271.064093 249.954913 
L 271.914271 249.695954 
L 272.33936 249.404624 
L 272.764449 249.275145 
L 274.039716 248.401156 
L 276.16516 247.915607 
L 277.440427 247.138728 
L 278.715693 246.847399 
L 279.140782 246.750289 
L 280.416049 245.746821 
L 282.116404 245.261272 
L 282.541493 244.905202 
L 285.092026 243.998844 
L 285.942204 243.836994 
L 286.792382 243.480925 
L 289.768004 242.347977 
L 290.618182 242.218497 
L 291.893448 241.765318 
L 294.018893 240.69711 
L 296.569426 239.240462 
L 297.419604 239.013873 
L 298.69487 238.366474 
L 299.545048 238.204624 
L 300.395226 237.686705 
L 301.245404 237.460116 
L 302.52067 236.942197 
L 304.221026 236.715607 
L 305.071204 236.262428 
L 305.496293 235.873988 
L 305.921381 235.09711 
L 307.621737 234.611561 
L 308.897004 233.931792 
L 309.747181 233.640462 
L 311.022448 232.993064 
L 313.147892 232.119075 
L 313.99807 231.924855 
L 315.273337 231.277457 
L 315.698426 231.212717 
L 317.82387 230.144509 
L 318.674048 229.59422 
L 319.949314 229.33526 
L 322.074759 228.784971 
L 322.499848 228.428902 
L 323.350025 228.137572 
L 325.47547 227.263584 
L 325.900559 226.939884 
L 326.325648 226.778035 
L 327.175825 226.292486 
L 328.876181 225.742197 
L 329.726359 225.191908 
L 330.151447 224.738728 
L 330.576536 224.479769 
L 331.001625 224.382659 
L 331.851803 223.67052 
L 332.276892 223.60578 
L 332.701981 222.893642 
L 333.12707 222.699422 
L 333.552158 222.343353 
L 333.977247 222.278613 
L 334.827425 221.728324 
L 335.677603 221.436994 
L 336.102692 221.113295 
L 336.527781 220.951445 
L 338.228136 219.786127 
L 339.503403 219.138728 
L 340.35358 218.912139 
L 341.203758 218.42659 
L 341.628847 217.682081 
L 342.479025 217.034682 
L 342.904114 216.937572 
L 345.454647 215.675145 
L 346.304825 215.319075 
L 347.155003 214.704046 
L 348.430269 213.506358 
L 349.280447 212.988439 
L 349.705536 212.50289 
L 351.405891 211.305202 
L 352.256069 210.431214 
L 353.106247 210.139884 
L 353.956425 209.557225 
L 355.231691 208.877457 
L 355.65678 208.812717 
L 356.932047 208.100578 
L 357.782224 207.550289 
L 362.033113 205.931792 
L 362.458202 205.575723 
L 364.158558 204.895954 
L 364.583647 204.766474 
L 365.433824 204.216185 
L 366.284002 203.860116 
L 367.13418 203.245087 
L 367.984358 201.49711 
L 368.834535 200.461272 
L 370.109802 199.781503 
L 370.95998 199.425434 
L 371.385069 199.360694 
L 372.235246 198.972254 
L 373.935602 198.389595 
L 374.78578 197.904046 
L 375.635957 197.483237 
L 376.061046 197.353757 
L 378.611579 195.8 
L 379.036668 195.314451 
L 380.311935 194.569942 
L 380.737024 194.408092 
L 381.587202 193.890173 
L 383.287557 192.951445 
L 383.712646 192.854335 
L 384.137735 192.498266 
L 387.113357 191.494798 
L 387.538446 191.171098 
L 388.388624 190.912139 
L 389.238801 190.556069 
L 389.66389 190.2 
L 391.364246 189.584971 
L 392.214424 188.969942 
L 393.064601 188.613873 
L 393.914779 187.934104 
L 394.764957 187.675145 
L 395.190046 187.286705 
L 395.615135 187.221965 
L 396.465312 186.542197 
L 398.590757 185.279769 
L 399.440934 185.020809 
L 399.866023 184.76185 
L 400.291112 184.69711 
L 401.566379 183.984971 
L 403.266734 183.402312 
L 404.116912 183.272832 
L 404.542001 183.078613 
L 404.96709 183.013873 
L 405.817268 182.625434 
L 406.242357 182.593064 
L 407.942712 181.945665 
L 409.217979 181.006936 
L 409.643068 180.845087 
L 410.493245 180.359538 
L 410.918334 180.230058 
L 413.468867 178.77341 
L 413.893956 178.676301 
L 415.169223 177.899422 
L 416.44449 177.446243 
L 417.294667 177.154913 
L 418.995023 176.572254 
L 419.845201 176.280925 
L 421.545556 175.924855 
L 421.970645 175.730636 
L 422.820823 175.504046 
L 423.245912 175.309827 
L 423.671001 175.245087 
L 424.096089 175.018497 
L 424.946267 174.856647 
L 426.221534 174.371098 
L 427.071712 174.273988 
L 428.346978 173.982659 
L 430.472423 173.59422 
L 441.524733 170.227746 
L 441.949822 169.774566 
L 444.500356 168.706358 
L 446.200711 168.123699 
L 446.6258 167.86474 
L 447.901067 167.476301 
L 448.751244 167.249711 
L 449.176333 166.958382 
L 449.601422 166.861272 
L 450.026511 166.472832 
L 451.301778 166.213873 
L 452.151955 165.825434 
L 452.577044 165.307514 
L 457.253022 164.271676 
L 457.678111 164.271676 
L 458.1032 164.077457 
L 459.803555 163.753757 
L 460.228644 163.559538 
L 461.928999 163.235838 
L 462.779177 162.879769 
L 463.629355 162.717919 
L 465.754799 162.16763 
L 467.455155 161.617341 
L 467.880244 161.520231 
L 468.305333 161.293642 
L 469.15551 161.067052 
L 470.005688 160.710983 
L 470.855866 160.387283 
L 471.280955 160.095954 
L 472.131133 159.836994 
L 475.106755 158.704046 
L 476.80711 158.477457 
L 480.207821 157.215029 
L 480.63291 156.891329 
L 481.057999 156.79422 
L 481.483088 156.56763 
L 481.908177 156.53526 
L 486.584154 154.819653 
L 488.709599 154.236994 
L 489.559777 153.816185 
L 490.835043 153.524855 
L 492.535399 152.100578 
L 494.235754 151.356069 
L 495.085932 150.96763 
L 497.636465 149.964162 
L 498.061554 149.672832 
L 500.186998 148.960694 
L 501.462265 148.216185 
L 501.887354 148.119075 
L 504.012798 146.953757 
L 505.288065 146.371098 
L 505.713154 146.047399 
L 506.563332 145.756069 
L 508.688776 144.655491 
L 509.964043 144.202312 
L 511.664398 143.490173 
L 512.939665 143.004624 
L 513.364754 142.842775 
L 514.214931 142.713295 
L 514.64002 142.421965 
L 516.340376 142.098266 
L 517.190554 141.742197 
L 518.890909 140.932948 
L 524.842153 138.278613 
L 526.11742 137.857803 
L 526.542509 137.566474 
L 527.392687 137.469364 
L 527.817776 137.178035 
L 528.667953 137.048555 
L 529.518131 136.627746 
L 529.94322 136.433526 
L 530.793398 136.206936 
L 531.643575 135.947977 
L 532.918842 135.462428 
L 534.194109 135.041618 
L 535.469375 134.750289 
L 537.169731 134.03815 
L 538.019909 133.552601 
L 539.720264 132.678613 
L 540.570442 132.484393 
L 540.995531 132.225434 
L 541.42062 132.128324 
L 542.695886 131.383815 
L 543.546064 131.027746 
L 552.898019 127.402312 
L 554.598375 126.593064 
L 558.849264 124.909827 
L 559.699441 124.489017 
L 560.12453 124.391908 
L 560.549619 124.165318 
L 562.249975 123.679769 
L 563.95033 122.255491 
L 564.375419 122.126012 
L 564.800508 121.867052 
L 566.075775 121.510983 
L 566.500863 121.187283 
L 566.925952 121.090173 
L 568.201219 120.313295 
L 568.626308 120.021965 
L 569.901574 119.536416 
L 570.326663 119.309827 
L 571.60193 119.018497 
L 573.727374 118.273988 
L 574.577552 118.015029 
L 575.852819 117.33526 
L 576.702996 116.914451 
L 577.553174 116.687861 
L 578.828441 116.072832 
L 582.654241 114.616185 
L 583.929507 113.806936 
L 584.354596 113.709827 
L 585.204774 113.289017 
L 586.054952 112.965318 
L 586.480041 112.576879 
L 587.330218 112.220809 
L 588.605485 111.76763 
L 589.030574 111.411561 
L 589.455663 111.379191 
L 590.305841 111.120231 
L 591.156018 110.828902 
L 591.581107 110.634682 
L 592.006196 110.569942 
L 592.856374 110.213873 
L 594.13164 109.922543 
L 594.981818 109.436994 
L 595.406907 109.275145 
L 595.831996 108.951445 
L 597.107263 108.627746 
L 597.532351 108.368786 
L 598.382529 108.142197 
L 599.657796 107.397688 
L 600.082885 107.365318 
L 601.358151 106.944509 
L 602.208329 106.879769 
L 602.633418 106.653179 
L 603.483596 106.42659 
L 603.908685 106.2 
L 606.034129 105.779191 
L 606.884307 105.617341 
L 608.159573 105.131792 
L 609.43484 104.840462 
L 610.710107 104.160694 
L 611.135196 103.772254 
L 612.410462 102.995376 
L 612.835551 102.671676 
L 614.110818 102.250867 
L 614.960995 102.024277 
L 618.786795 100.34104 
L 620.487151 99.887861 
L 621.337329 99.499422 
L 621.762417 99.272832 
L 622.612595 99.013873 
L 623.037684 98.787283 
L 623.887862 98.625434 
L 627.288573 97.136416 
L 627.713662 97.071676 
L 628.988928 96.230058 
L 629.414017 96.165318 
L 631.114373 95.485549 
L 632.814728 95.06474 
L 633.239817 95 
L 633.664906 94.80578 
L 634.089995 94.77341 
L 634.940173 94.482081 
L 635.365262 94.449711 
L 636.640528 93.964162 
L 638.340884 93.478613 
L 639.191061 92.831214 
L 640.891417 91.860116 
L 641.316506 91.763006 
L 641.741595 91.536416 
L 642.591772 91.245087 
L 643.016861 91.115607 
L 643.44195 90.759538 
L 644.717217 90.273988 
L 645.567395 89.788439 
L 645.992483 89.56185 
L 646.417572 89.17341 
L 648.543017 88.590751 
L 649.818283 88.008092 
L 650.668461 87.781503 
L 651.09355 87.554913 
L 651.518639 87.198844 
L 653.218994 86.745665 
L 653.644083 86.421965 
L 659.170239 84.382659 
L 660.020416 84.220809 
L 662.145861 83.54104 
L 662.996039 83.184971 
L 663.846216 82.861272 
L 664.696394 82.634682 
L 665.121483 82.440462 
L 665.546572 82.440462 
L 666.39675 82.084393 
L 667.246927 81.598844 
L 670.22255 80.595376 
L 671.922905 80.012717 
L 673.198172 79.721387 
L 674.473438 79.300578 
L 674.898527 79.203468 
L 675.323616 78.912139 
L 676.173794 78.717919 
L 677.874149 78.23237 
L 678.299238 78.2 
L 679.149416 77.811561 
L 682.125038 77.067052 
L 682.975216 76.710983 
L 687.226105 75.739884 
L 688.501371 75.060116 
L 689.776638 74.671676 
L 694.027527 73.085549 
L 694.452616 72.76185 
L 695.727882 72.47052 
L 696.57806 72.211561 
L 697.428238 71.790751 
L 697.853327 71.434682 
L 698.703504 71.175723 
L 699.128593 70.916763 
L 699.978771 70.819653 
L 702.954393 69.978035 
L 704.22966 69.719075 
L 705.504926 69.395376 
L 706.355104 69.168786 
L 707.630371 68.489017 
L 709.330726 67.841618 
L 710.180904 67.388439 
L 710.605993 67.356069 
L 711.456171 66.93526 
L 714.431793 66.093642 
L 715.707059 65.899422 
L 716.557237 65.608092 
L 717.832504 65.219653 
L 721.658304 64.151445 
L 722.508481 63.924855 
L 722.93357 63.827746 
L 723.358659 63.568786 
L 724.208837 63.406936 
L 725.059015 63.309827 
L 725.484104 63.083237 
L 725.909192 63.050867 
L 727.184459 62.403468 
L 728.459726 62.112139 
L 729.309904 61.723699 
L 730.160081 61.43237 
L 731.010259 61.20578 
L 731.860437 60.849711 
L 732.710615 60.558382 
L 734.41097 60.072832 
L 735.261148 60.008092 
L 736.111326 59.716763 
L 736.536414 59.554913 
L 737.386592 59.425434 
L 739.086948 58.648555 
L 739.512037 58.583815 
L 739.937125 58.357225 
L 740.787303 58.195376 
L 741.637481 58.130636 
L 743.762925 57.547977 
L 744.613103 57.191908 
L 745.88837 56.706358 
L 746.738547 55.92948 
L 747.163636 55.8 
L 747.163636 55.8 
" clip-path="url(#padebd38ada)" style="fill: none; stroke: #1f77b4; stroke-width: 1.5; stroke-linecap: square"/>
   </g>
   <g id="line2d_38">
    <path d="M 138.861453 307.8 
L 142.687252 307.70289 
L 146.087963 307.54104 
L 147.788319 307.54104 
L 148.213408 307.411561 
L 150.338852 307.314451 
L 152.889385 307.023121 
L 155.439919 306.926012 
L 156.290096 306.828902 
L 159.265719 306.699422 
L 162.241341 306.602312 
L 164.366785 306.537572 
L 169.892941 306.440462 
L 172.018385 306.375723 
L 175.844185 306.278613 
L 177.54454 306.246243 
L 181.795429 306.149133 
L 183.495785 305.987283 
L 185.19614 305.954913 
L 187.746673 305.857803 
L 189.447029 305.825434 
L 191.572473 305.760694 
L 193.272829 305.598844 
L 197.098629 305.501734 
L 197.948807 305.436994 
L 199.649162 305.339884 
L 202.199695 305.242775 
L 203.900051 305.145665 
L 211.551651 304.660116 
L 214.527273 304.563006 
L 215.802539 304.433526 
L 217.927984 304.336416 
L 222.178873 304.109827 
L 226.429761 304.045087 
L 228.130117 303.850867 
L 230.255561 303.753757 
L 234.50645 303.332948 
L 237.056983 303.009249 
L 238.757339 302.944509 
L 242.15805 302.491329 
L 244.708583 302.42659 
L 245.98385 302.29711 
L 247.259116 302.2 
L 259.161605 301.261272 
L 260.011783 301.099422 
L 262.562316 301.002312 
L 269.363738 300.581503 
L 272.33936 300.484393 
L 274.039716 300.290173 
L 276.16516 300.193064 
L 278.715693 300.095954 
L 280.841138 299.998844 
L 282.541493 299.966474 
L 284.666938 299.901734 
L 285.517115 299.772254 
L 291.46836 299.675145 
L 292.318537 299.578035 
L 297.419604 299.480925 
L 301.245404 299.286705 
L 304.221026 299.189595 
L 305.921381 298.995376 
L 308.897004 298.898266 
L 309.747181 298.768786 
L 311.872626 298.704046 
L 316.123514 298.639306 
L 317.82387 298.477457 
L 319.524225 298.445087 
L 320.799492 298.347977 
L 322.499848 298.186127 
L 326.750736 297.959538 
L 331.001625 297.862428 
L 334.827425 297.668208 
L 336.102692 297.635838 
L 336.952869 297.506358 
L 339.078314 297.409249 
L 339.928492 297.344509 
L 340.778669 297.279769 
L 341.628847 297.215029 
L 345.879736 297.117919 
L 357.782224 296.308671 
L 360.332758 296.211561 
L 362.458202 296.146821 
L 368.409446 296.049711 
L 369.259624 295.920231 
L 375.210868 295.823121 
L 379.461757 295.596532 
L 380.311935 295.564162 
L 381.162113 295.467052 
L 383.287557 295.369942 
L 385.413002 295.305202 
L 387.538446 295.208092 
L 389.66389 295.143353 
L 393.48969 295.046243 
L 396.040223 294.949133 
L 401.991468 294.852023 
L 406.667445 294.593064 
L 408.367801 294.528324 
L 409.643068 294.431214 
L 415.594312 294.334104 
L 418.144845 294.236994 
L 425.796445 294.139884 
L 427.4968 294.107514 
L 432.597867 294.042775 
L 433.448045 293.978035 
L 439.399289 293.880925 
L 441.099644 293.848555 
L 452.151955 293.751445 
L 454.702489 293.654335 
L 472.556221 293.557225 
L 474.681666 293.492486 
L 485.733977 293.427746 
L 486.584154 293.363006 
L 488.709599 293.298266 
L 489.984865 293.168786 
L 492.535399 293.071676 
L 495.511021 292.942197 
L 499.336821 292.845087 
L 501.462265 292.780347 
L 504.437887 292.683237 
L 507.838598 292.521387 
L 509.964043 292.424277 
L 511.664398 292.391908 
L 515.490198 292.294798 
L 517.190554 292.262428 
L 522.716709 292.165318 
L 524.417064 292.132948 
L 526.542509 292.035838 
L 529.093042 291.938728 
L 532.068664 291.873988 
L 532.918842 291.809249 
L 543.120975 291.712139 
L 547.371864 291.485549 
L 550.347486 291.388439 
L 555.023464 291.12948 
L 557.999086 291.03237 
L 559.699441 291 
L 562.675063 290.90289 
L 564.800508 290.676301 
L 569.051397 290.579191 
L 569.901574 290.482081 
L 574.152463 290.384971 
L 576.277908 290.320231 
L 580.953885 290.287861 
L 581.804063 290.190751 
L 586.480041 290.093642 
L 587.330218 290.028902 
L 596.682174 289.931792 
L 599.232707 289.834682 
L 605.60904 289.737572 
L 607.309396 289.705202 
L 611.135196 289.640462 
L 611.985373 289.543353 
L 617.511529 289.446243 
L 619.636973 289.381503 
L 627.288573 289.284393 
L 628.56384 289.187283 
L 629.839106 289.090173 
L 631.114373 288.993064 
L 637.490706 288.895954 
L 640.041239 288.798844 
L 651.518639 288.701734 
L 655.344439 288.507514 
L 660.445505 288.410405 
L 661.295683 288.345665 
L 667.672016 288.280925 
L 668.522194 288.216185 
L 673.198172 288.119075 
L 674.898527 288.086705 
L 680.849771 287.989595 
L 683.400305 287.892486 
L 690.626816 287.795376 
L 692.327171 287.763006 
L 696.152971 287.665896 
L 699.553682 287.504046 
L 704.22966 287.406936 
L 707.205282 287.277457 
L 711.031082 287.180347 
L 711.88126 287.115607 
L 720.383037 287.018497 
L 722.508481 286.953757 
L 725.059015 286.856647 
L 727.609548 286.759538 
L 740.362214 286.662428 
L 743.337836 286.532948 
L 747.163636 286.435838 
L 747.163636 286.435838 
" clip-path="url(#padebd38ada)" style="fill: none; stroke: #ff7f0e; stroke-width: 1.5; stroke-linecap: square"/>
   </g>
   <g id="patch_3">
    <path d="M 108 320.4 
L 108 43.2 
" style="fill: none; stroke: #a9a9a9; stroke-width: 0.8; stroke-linejoin: miter; stroke-linecap: square"/>
   </g>
   <g id="patch_4">
    <path d="M 777.6 320.4 
L 777.6 43.2 
" style="fill: none"/>
   </g>
   <g id="patch_5">
    <path d="M 108 320.4 
L 777.6 320.4 
" style="fill: none; stroke: #a9a9a9; stroke-width: 0.8; stroke-linejoin: miter; stroke-linecap: square"/>
   </g>
   <g id="patch_6">
    <path d="M 108 43.2 
L 777.6 43.2 
" style="fill: none"/>
   </g>
   <g id="text_19">
    <!-- get_subscribe history -->
    <g style="fill: #a9a9a9" transform="translate(378.6075 37.2) scale(0.12 -0.12)">
     <defs>
      <path id="DejaVuSans-67" d="M 2906 1791 
Q 2906 2416 2648 2759 
Q 2391 3103 1925 3103 
Q 1463 3103 1205 2759 
Q 947 2416 947 1791 
Q 947 1169 1205 825 
Q 1463 481 1925 481 
Q 2391 481 2648 825 
Q 2906 1169 2906 1791 
z
M 3481 434 
Q 3481 -459 3084 -895 
Q 2688 -1331 1869 -1331 
Q 1566 -1331 1297 -1286 
Q 1028 -1241 775 -1147 
L 775 -588 
Q 1028 -725 1275 -790 
Q 1522 -856 1778 -856 
Q 2344 -856 2625 -561 
Q 2906 -266 2906 331 
L 2906 616 
Q 2728 306 2450 153 
Q 2172 0 1784 0 
Q 1141 0 747 490 
Q 353 981 353 1791 
Q 353 2603 747 3093 
Q 1141 3584 1784 3584 
Q 2172 3584 2450 3431 
Q 2728 3278 2906 2969 
L 2906 3500 
L 3481 3500 
L 3481 434 
z
" transform="scale(0.015625)"/>
      <path id="DejaVuSans-65" d="M 3597 1894 
L 3597 1613 
L 953 1613 
Q 991 1019 1311 708 
Q 1631 397 2203 397 
Q 2534 397 2845 478 
Q 3156 559 3463 722 
L 3463 178 
Q 3153 47 2828 -22 
Q 2503 -91 2169 -91 
Q 1331 -91 842 396 
Q 353 884 353 1716 
Q 353 2575 817 3079 
Q 1281 3584 2069 3584 
Q 2775 3584 3186 3129 
Q 3597 2675 3597 1894 
z
M 3022 2063 
Q 3016 2534 2758 2815 
Q 2500 3097 2075 3097 
Q 1594 3097 1305 2825 
Q 1016 2553 972 2059 
L 3022 2063 
z
" transform="scale(0.015625)"/>
      <path id="DejaVuSans-74" d="M 1172 4494 
L 1172 3500 
L 2356 3500 
L 2356 3053 
L 1172 3053 
L 1172 1153 
Q 1172 725 1289 603 
Q 1406 481 1766 481 
L 2356 481 
L 2356 0 
L 1766 0 
Q 1100 0 847 248 
Q 594 497 594 1153 
L 594 3053 
L 172 3053 
L 172 3500 
L 594 3500 
L 594 4494 
L 1172 4494 
z
" transform="scale(0.015625)"/>
      <path id="DejaVuSans-5f" d="M 3263 -1063 
L 3263 -1509 
L -63 -1509 
L -63 -1063 
L 3263 -1063 
z
" transform="scale(0.015625)"/>
      <path id="DejaVuSans-73" d="M 2834 3397 
L 2834 2853 
Q 2591 2978 2328 3040 
Q 2066 3103 1784 3103 
Q 1356 3103 1142 2972 
Q 928 2841 928 2578 
Q 928 2378 1081 2264 
Q 1234 2150 1697 2047 
L 1894 2003 
Q 2506 1872 2764 1633 
Q 3022 1394 3022 966 
Q 3022 478 2636 193 
Q 2250 -91 1575 -91 
Q 1294 -91 989 -36 
Q 684 19 347 128 
L 347 722 
Q 666 556 975 473 
Q 1284 391 1588 391 
Q 1994 391 2212 530 
Q 2431 669 2431 922 
Q 2431 1156 2273 1281 
Q 2116 1406 1581 1522 
L 1381 1569 
Q 847 1681 609 1914 
Q 372 2147 372 2553 
Q 372 3047 722 3315 
Q 1072 3584 1716 3584 
Q 2034 3584 2315 3537 
Q 2597 3491 2834 3397 
z
" transform="scale(0.015625)"/>
      <path id="DejaVuSans-75" d="M 544 1381 
L 544 3500 
L 1119 3500 
L 1119 1403 
Q 1119 906 1312 657 
Q 1506 409 1894 409 
Q 2359 409 2629 706 
Q 2900 1003 2900 1516 
L 2900 3500 
L 3475 3500 
L 3475 0 
L 2900 0 
L 2900 538 
Q 2691 219 2414 64 
Q 2138 -91 1772 -91 
Q 1169 -91 856 284 
Q 544 659 544 1381 
z
M 1991 3584 
L 1991 3584 
z
" transform="scale(0.015625)"/>
      <path id="DejaVuSans-62" d="M 3116 1747 
Q 3116 2381 2855 2742 
Q 2594 3103 2138 3103 
Q 1681 3103 1420 2742 
Q 1159 2381 1159 1747 
Q 1159 1113 1420 752 
Q 1681 391 2138 391 
Q 2594 391 2855 752 
Q 3116 1113 3116 1747 
z
M 1159 2969 
Q 1341 3281 1617 3432 
Q 1894 3584 2278 3584 
Q 2916 3584 3314 3078 
Q 3713 2572 3713 1747 
Q 3713 922 3314 415 
Q 2916 -91 2278 -91 
Q 1894 -91 1617 61 
Q 1341 213 1159 525 
L 1159 0 
L 581 0 
L 581 4863 
L 1159 4863 
L 1159 2969 
z
" transform="scale(0.015625)"/>
      <path id="DejaVuSans-63" d="M 3122 3366 
L 3122 2828 
Q 2878 2963 2633 3030 
Q 2388 3097 2138 3097 
Q 1578 3097 1268 2742 
Q 959 2388 959 1747 
Q 959 1106 1268 751 
Q 1578 397 2138 397 
Q 2388 397 2633 464 
Q 2878 531 3122 666 
L 3122 134 
Q 2881 22 2623 -34 
Q 2366 -91 2075 -91 
Q 1284 -91 818 406 
Q 353 903 353 1747 
Q 353 2603 823 3093 
Q 1294 3584 2113 3584 
Q 2378 3584 2631 3529 
Q 2884 3475 3122 3366 
z
" transform="scale(0.015625)"/>
      <path id="DejaVuSans-72" d="M 2631 2963 
Q 2534 3019 2420 3045 
Q 2306 3072 2169 3072 
Q 1681 3072 1420 2755 
Q 1159 2438 1159 1844 
L 1159 0 
L 581 0 
L 581 3500 
L 1159 3500 
L 1159 2956 
Q 1341 3275 1631 3429 
Q 1922 3584 2338 3584 
Q 2397 3584 2469 3576 
Q 2541 3569 2628 3553 
L 2631 2963 
z
" transform="scale(0.015625)"/>
      <path id="DejaVuSans-69" d="M 603 3500 
L 1178 3500 
L 1178 0 
L 603 0 
L 603 3500 
z
M 603 4863 
L 1178 4863 
L 1178 4134 
L 603 4134 
L 603 4863 
z
" transform="scale(0.015625)"/>
      <path id="DejaVuSans-20" transform="scale(0.015625)"/>
      <path id="DejaVuSans-68" d="M 3513 2113 
L 3513 0 
L 2938 0 
L 2938 2094 
Q 2938 2591 2744 2837 
Q 2550 3084 2163 3084 
Q 1697 3084 1428 2787 
Q 1159 2491 1159 1978 
L 1159 0 
L 581 0 
L 581 4863 
L 1159 4863 
L 1159 2956 
Q 1366 3272 1645 3428 
Q 1925 3584 2291 3584 
Q 2894 3584 3203 3211 
Q 3513 2838 3513 2113 
z
" transform="scale(0.015625)"/>
      <path id="DejaVuSans-6f" d="M 1959 3097 
Q 1497 3097 1228 2736 
Q 959 2375 959 1747 
Q 959 1119 1226 758 
Q 1494 397 1959 397 
Q 2419 397 2687 759 
Q 2956 1122 2956 1747 
Q 2956 2369 2687 2733 
Q 2419 3097 1959 3097 
z
M 1959 3584 
Q 2709 3584 3137 3096 
Q 3566 2609 3566 1747 
Q 3566 888 3137 398 
Q 2709 -91 1959 -91 
Q 1206 -91 779 398 
Q 353 888 353 1747 
Q 353 2609 779 3096 
Q 1206 3584 1959 3584 
z
" transform="scale(0.015625)"/>
      <path id="DejaVuSans-79" d="M 2059 -325 
Q 1816 -950 1584 -1140 
Q 1353 -1331 966 -1331 
L 506 -1331 
L 506 -850 
L 844 -850 
Q 1081 -850 1212 -737 
Q 1344 -625 1503 -206 
L 1606 56 
L 191 3500 
L 800 3500 
L 1894 763 
L 2988 3500 
L 3597 3500 
L 2059 -325 
z
" transform="scale(0.015625)"/>
     </defs>
     <use xlink:href="#DejaVuSans-67"/>
     <use xlink:href="#DejaVuSans-65" transform="translate(63.476562 0)"/>
     <use xlink:href="#DejaVuSans-74" transform="translate(125 0)"/>
     <use xlink:href="#DejaVuSans-5f" transform="translate(164.208984 0)"/>
     <use xlink:href="#DejaVuSans-73" transform="translate(214.208984 0)"/>
     <use xlink:href="#DejaVuSans-75" transform="translate(266.308594 0)"/>
     <use xlink:href="#DejaVuSans-62" transform="translate(329.6875 0)"/>
     <use xlink:href="#DejaVuSans-73" transform="translate(393.164062 0)"/>
     <use xlink:href="#DejaVuSans-63" transform="translate(445.263672 0)"/>
     <use xlink:href="#DejaVuSans-72" transform="translate(500.244141 0)"/>
     <use xlink:href="#DejaVuSans-69" transform="translate(541.357422 0)"/>
     <use xlink:href="#DejaVuSans-62" transform="translate(569.140625 0)"/>
     <use xlink:href="#DejaVuSans-65" transform="translate(632.617188 0)"/>
     <use xlink:href="#DejaVuSans-20" transform="translate(694.140625 0)"/>
     <use xlink:href="#DejaVuSans-68" transform="translate(725.927734 0)"/>
     <use xlink:href="#DejaVuSans-69" transform="translate(789.306641 0)"/>
     <use xlink:href="#DejaVuSans-73" transform="translate(817.089844 0)"/>
     <use xlink:href="#DejaVuSans-74" transform="translate(869.189453 0)"/>
     <use xlink:href="#DejaVuSans-6f" transform="translate(908.398438 0)"/>
     <use xlink:href="#DejaVuSans-72" transform="translate(969.580078 0)"/>
     <use xlink:href="#DejaVuSans-79" transform="translate(1010.693359 0)"/>
    </g>
   </g>
   <g id="legend_1">
    <g id="line2d_39">
     <path d="M 815.08 328.498438 
L 825.08 328.498438 
L 835.08 328.498438 
" style="fill: none; stroke: #1f77b4; stroke-width: 1.5; stroke-linecap: square"/>
    </g>
    <g id="text_20">
     <!-- star -->
     <g style="fill: #a9a9a9" transform="translate(843.08 331.998438) scale(0.1 -0.1)">
      <defs>
       <path id="DejaVuSans-61" d="M 2194 1759 
Q 1497 1759 1228 1600 
Q 959 1441 959 1056 
Q 959 750 1161 570 
Q 1363 391 1709 391 
Q 2188 391 2477 730 
Q 2766 1069 2766 1631 
L 2766 1759 
L 2194 1759 
z
M 3341 1997 
L 3341 0 
L 2766 0 
L 2766 531 
Q 2569 213 2275 61 
Q 1981 -91 1556 -91 
Q 1019 -91 701 211 
Q 384 513 384 1019 
Q 384 1609 779 1909 
Q 1175 2209 1959 2209 
L 2766 2209 
L 2766 2266 
Q 2766 2663 2505 2880 
Q 2244 3097 1772 3097 
Q 1472 3097 1187 3025 
Q 903 2953 641 2809 
L 641 3341 
Q 956 3463 1253 3523 
Q 1550 3584 1831 3584 
Q 2591 3584 2966 3190 
Q 3341 2797 3341 1997 
z
" transform="scale(0.015625)"/>
      </defs>
      <use xlink:href="#DejaVuSans-73"/>
      <use xlink:href="#DejaVuSans-74" transform="translate(52.099609 0)"/>
      <use xlink:href="#DejaVuSans-61" transform="translate(91.308594 0)"/>
      <use xlink:href="#DejaVuSans-72" transform="translate(152.587891 0)"/>
     </g>
    </g>
    <g id="line2d_40">
     <path d="M 815.08 343.176562 
L 825.08 343.176562 
L 835.08 343.176562 
" style="fill: none; stroke: #ff7f0e; stroke-width: 1.5; stroke-linecap: square"/>
    </g>
    <g id="text_21">
     <!-- fork -->
     <g style="fill: #a9a9a9" transform="translate(843.08 346.676562) scale(0.1 -0.1)">
      <defs>
       <path id="DejaVuSans-66" d="M 2375 4863 
L 2375 4384 
L 1825 4384 
Q 1516 4384 1395 4259 
Q 1275 4134 1275 3809 
L 1275 3500 
L 2222 3500 
L 2222 3053 
L 1275 3053 
L 1275 0 
L 697 0 
L 697 3053 
L 147 3053 
L 147 3500 
L 697 3500 
L 697 3744 
Q 697 4328 969 4595 
Q 1241 4863 1831 4863 
L 2375 4863 
z
" transform="scale(0.015625)"/>
       <path id="DejaVuSans-6b" d="M 581 4863 
L 1159 4863 
L 1159 1991 
L 2875 3500 
L 3609 3500 
L 1753 1863 
L 3688 0 
L 2938 0 
L 1159 1709 
L 1159 0 
L 581 0 
L 581 4863 
z
" transform="scale(0.015625)"/>
      </defs>
      <use xlink:href="#DejaVuSans-66"/>
      <use xlink:href="#DejaVuSans-6f" transform="translate(35.205078 0)"/>
      <use xlink:href="#DejaVuSans-72" transform="translate(96.386719 0)"/>
      <use xlink:href="#DejaVuSans-6b" transform="translate(137.5 0)"/>
     </g>
    </g>
   </g>
  </g>
 </g>
 <defs>
  <clipPath id="padebd38ada">
   <rect x="108" y="43.2" width="669.6" height="277.2"/>
  </clipPath>
 </defs>
</svg>
