<?xml version="1.0" encoding="utf-8" standalone="no"?>
<!DOCTYPE svg PUBLIC "-//W3C//DTD SVG 1.1//EN"
  "http://www.w3.org/Graphics/SVG/1.1/DTD/svg11.dtd">
<svg xmlns:xlink="http://www.w3.org/1999/xlink" width="864pt" height="360pt" viewBox="0 0 864 360" xmlns="http://www.w3.org/2000/svg" version="1.1">
 <metadata>
  <rdf:RDF xmlns:dc="http://purl.org/dc/elements/1.1/" xmlns:cc="http://creativecommons.org/ns#" xmlns:rdf="http://www.w3.org/1999/02/22-rdf-syntax-ns#">
   <cc:Work>
    <dc:type rdf:resource="http://purl.org/dc/dcmitype/StillImage"/>
    <dc:date>2025-04-06T08:16:23.546776</dc:date>
    <dc:format>image/svg+xml</dc:format>
    <dc:creator>
     <cc:Agent>
      <dc:title>Matplotlib v3.10.1, https://matplotlib.org/</dc:title>
     </cc:Agent>
    </dc:creator>
   </cc:Work>
  </rdf:RDF>
 </metadata>
 <defs>
  <style type="text/css">*{stroke-linejoin: round; stroke-linecap: butt}</style>
 </defs>
 <g id="figure_1">
  <g id="patch_1">
   <path d="M 0 360 
L 864 360 
L 864 0 
L 0 0 
L 0 360 
z
" style="fill: none; opacity: 0"/>
  </g>
  <g id="axes_1">
   <g id="patch_2">
    <path d="M 108 320.4 
L 777.6 320.4 
L 777.6 43.2 
L 108 43.2 
L 108 320.4 
z
" style="fill: none; opacity: 0"/>
   </g>
   <g id="matplotlib.axis_1">
    <g id="xtick_1">
     <g id="line2d_1">
      <path d="M 128.080796 320.4 
L 128.080796 43.2 
" clip-path="url(#p76abb52009)" style="fill: none; stroke-dasharray: 5.12,1.28,0.8,1.28; stroke-dashoffset: 0; stroke: #b0b0b0; stroke-width: 0.8"/>
     </g>
     <g id="line2d_2">
      <defs>
       <path id="m95be3024ff" d="M 0 0 
L 0 3.5 
" style="stroke: #a9a9a9; stroke-width: 0.8"/>
      </defs>
      <g>
       <use xlink:href="#m95be3024ff" x="128.080796" y="320.4" style="fill: #a9a9a9; stroke: #a9a9a9; stroke-width: 0.8"/>
      </g>
     </g>
     <g id="text_1">
      <!-- 2021-07 -->
      <g style="fill: #a9a9a9" transform="translate(107.18939 334.998438) scale(0.1 -0.1)">
       <defs>
        <path id="DejaVuSans-32" d="M 1228 531 
L 3431 531 
L 3431 0 
L 469 0 
L 469 531 
Q 828 903 1448 1529 
Q 2069 2156 2228 2338 
Q 2531 2678 2651 2914 
Q 2772 3150 2772 3378 
Q 2772 3750 2511 3984 
Q 2250 4219 1831 4219 
Q 1534 4219 1204 4116 
Q 875 4013 500 3803 
L 500 4441 
Q 881 4594 1212 4672 
Q 1544 4750 1819 4750 
Q 2544 4750 2975 4387 
Q 3406 4025 3406 3419 
Q 3406 3131 3298 2873 
Q 3191 2616 2906 2266 
Q 2828 2175 2409 1742 
Q 1991 1309 1228 531 
z
" transform="scale(0.015625)"/>
        <path id="DejaVuSans-30" d="M 2034 4250 
Q 1547 4250 1301 3770 
Q 1056 3291 1056 2328 
Q 1056 1369 1301 889 
Q 1547 409 2034 409 
Q 2525 409 2770 889 
Q 3016 1369 3016 2328 
Q 3016 3291 2770 3770 
Q 2525 4250 2034 4250 
z
M 2034 4750 
Q 2819 4750 3233 4129 
Q 3647 3509 3647 2328 
Q 3647 1150 3233 529 
Q 2819 -91 2034 -91 
Q 1250 -91 836 529 
Q 422 1150 422 2328 
Q 422 3509 836 4129 
Q 1250 4750 2034 4750 
z
" transform="scale(0.015625)"/>
        <path id="DejaVuSans-31" d="M 794 531 
L 1825 531 
L 1825 4091 
L 703 3866 
L 703 4441 
L 1819 4666 
L 2450 4666 
L 2450 531 
L 3481 531 
L 3481 0 
L 794 0 
L 794 531 
z
" transform="scale(0.015625)"/>
        <path id="DejaVuSans-2d" d="M 313 2009 
L 1997 2009 
L 1997 1497 
L 313 1497 
L 313 2009 
z
" transform="scale(0.015625)"/>
        <path id="DejaVuSans-37" d="M 525 4666 
L 3525 4666 
L 3525 4397 
L 1831 0 
L 1172 0 
L 2766 4134 
L 525 4134 
L 525 4666 
z
" transform="scale(0.015625)"/>
       </defs>
       <use xlink:href="#DejaVuSans-32"/>
       <use xlink:href="#DejaVuSans-30" transform="translate(63.623047 0)"/>
       <use xlink:href="#DejaVuSans-32" transform="translate(127.246094 0)"/>
       <use xlink:href="#DejaVuSans-31" transform="translate(190.869141 0)"/>
       <use xlink:href="#DejaVuSans-2d" transform="translate(254.492188 0)"/>
       <use xlink:href="#DejaVuSans-30" transform="translate(290.576172 0)"/>
       <use xlink:href="#DejaVuSans-37" transform="translate(354.199219 0)"/>
      </g>
     </g>
    </g>
    <g id="xtick_2">
     <g id="line2d_3">
      <path d="M 210.925336 320.4 
L 210.925336 43.2 
" clip-path="url(#p76abb52009)" style="fill: none; stroke-dasharray: 5.12,1.28,0.8,1.28; stroke-dashoffset: 0; stroke: #b0b0b0; stroke-width: 0.8"/>
     </g>
     <g id="line2d_4">
      <g>
       <use xlink:href="#m95be3024ff" x="210.925336" y="320.4" style="fill: #a9a9a9; stroke: #a9a9a9; stroke-width: 0.8"/>
      </g>
     </g>
     <g id="text_2">
      <!-- 2022-01 -->
      <g style="fill: #a9a9a9" transform="translate(190.03393 334.998438) scale(0.1 -0.1)">
       <use xlink:href="#DejaVuSans-32"/>
       <use xlink:href="#DejaVuSans-30" transform="translate(63.623047 0)"/>
       <use xlink:href="#DejaVuSans-32" transform="translate(127.246094 0)"/>
       <use xlink:href="#DejaVuSans-32" transform="translate(190.869141 0)"/>
       <use xlink:href="#DejaVuSans-2d" transform="translate(254.492188 0)"/>
       <use xlink:href="#DejaVuSans-30" transform="translate(290.576172 0)"/>
       <use xlink:href="#DejaVuSans-31" transform="translate(354.199219 0)"/>
      </g>
     </g>
    </g>
    <g id="xtick_3">
     <g id="line2d_5">
      <path d="M 292.41915 320.4 
L 292.41915 43.2 
" clip-path="url(#p76abb52009)" style="fill: none; stroke-dasharray: 5.12,1.28,0.8,1.28; stroke-dashoffset: 0; stroke: #b0b0b0; stroke-width: 0.8"/>
     </g>
     <g id="line2d_6">
      <g>
       <use xlink:href="#m95be3024ff" x="292.41915" y="320.4" style="fill: #a9a9a9; stroke: #a9a9a9; stroke-width: 0.8"/>
      </g>
     </g>
     <g id="text_3">
      <!-- 2022-07 -->
      <g style="fill: #a9a9a9" transform="translate(271.527744 334.998438) scale(0.1 -0.1)">
       <use xlink:href="#DejaVuSans-32"/>
       <use xlink:href="#DejaVuSans-30" transform="translate(63.623047 0)"/>
       <use xlink:href="#DejaVuSans-32" transform="translate(127.246094 0)"/>
       <use xlink:href="#DejaVuSans-32" transform="translate(190.869141 0)"/>
       <use xlink:href="#DejaVuSans-2d" transform="translate(254.492188 0)"/>
       <use xlink:href="#DejaVuSans-30" transform="translate(290.576172 0)"/>
       <use xlink:href="#DejaVuSans-37" transform="translate(354.199219 0)"/>
      </g>
     </g>
    </g>
    <g id="xtick_4">
     <g id="line2d_7">
      <path d="M 375.26369 320.4 
L 375.26369 43.2 
" clip-path="url(#p76abb52009)" style="fill: none; stroke-dasharray: 5.12,1.28,0.8,1.28; stroke-dashoffset: 0; stroke: #b0b0b0; stroke-width: 0.8"/>
     </g>
     <g id="line2d_8">
      <g>
       <use xlink:href="#m95be3024ff" x="375.26369" y="320.4" style="fill: #a9a9a9; stroke: #a9a9a9; stroke-width: 0.8"/>
      </g>
     </g>
     <g id="text_4">
      <!-- 2023-01 -->
      <g style="fill: #a9a9a9" transform="translate(354.372284 334.998438) scale(0.1 -0.1)">
       <defs>
        <path id="DejaVuSans-33" d="M 2597 2516 
Q 3050 2419 3304 2112 
Q 3559 1806 3559 1356 
Q 3559 666 3084 287 
Q 2609 -91 1734 -91 
Q 1441 -91 1130 -33 
Q 819 25 488 141 
L 488 750 
Q 750 597 1062 519 
Q 1375 441 1716 441 
Q 2309 441 2620 675 
Q 2931 909 2931 1356 
Q 2931 1769 2642 2001 
Q 2353 2234 1838 2234 
L 1294 2234 
L 1294 2753 
L 1863 2753 
Q 2328 2753 2575 2939 
Q 2822 3125 2822 3475 
Q 2822 3834 2567 4026 
Q 2313 4219 1838 4219 
Q 1578 4219 1281 4162 
Q 984 4106 628 3988 
L 628 4550 
Q 988 4650 1302 4700 
Q 1616 4750 1894 4750 
Q 2613 4750 3031 4423 
Q 3450 4097 3450 3541 
Q 3450 3153 3228 2886 
Q 3006 2619 2597 2516 
z
" transform="scale(0.015625)"/>
       </defs>
       <use xlink:href="#DejaVuSans-32"/>
       <use xlink:href="#DejaVuSans-30" transform="translate(63.623047 0)"/>
       <use xlink:href="#DejaVuSans-32" transform="translate(127.246094 0)"/>
       <use xlink:href="#DejaVuSans-33" transform="translate(190.869141 0)"/>
       <use xlink:href="#DejaVuSans-2d" transform="translate(254.492188 0)"/>
       <use xlink:href="#DejaVuSans-30" transform="translate(290.576172 0)"/>
       <use xlink:href="#DejaVuSans-31" transform="translate(354.199219 0)"/>
      </g>
     </g>
    </g>
    <g id="xtick_5">
     <g id="line2d_9">
      <path d="M 456.757504 320.4 
L 456.757504 43.2 
" clip-path="url(#p76abb52009)" style="fill: none; stroke-dasharray: 5.12,1.28,0.8,1.28; stroke-dashoffset: 0; stroke: #b0b0b0; stroke-width: 0.8"/>
     </g>
     <g id="line2d_10">
      <g>
       <use xlink:href="#m95be3024ff" x="456.757504" y="320.4" style="fill: #a9a9a9; stroke: #a9a9a9; stroke-width: 0.8"/>
      </g>
     </g>
     <g id="text_5">
      <!-- 2023-07 -->
      <g style="fill: #a9a9a9" transform="translate(435.866098 334.998438) scale(0.1 -0.1)">
       <use xlink:href="#DejaVuSans-32"/>
       <use xlink:href="#DejaVuSans-30" transform="translate(63.623047 0)"/>
       <use xlink:href="#DejaVuSans-32" transform="translate(127.246094 0)"/>
       <use xlink:href="#DejaVuSans-33" transform="translate(190.869141 0)"/>
       <use xlink:href="#DejaVuSans-2d" transform="translate(254.492188 0)"/>
       <use xlink:href="#DejaVuSans-30" transform="translate(290.576172 0)"/>
       <use xlink:href="#DejaVuSans-37" transform="translate(354.199219 0)"/>
      </g>
     </g>
    </g>
    <g id="xtick_6">
     <g id="line2d_11">
      <path d="M 539.602044 320.4 
L 539.602044 43.2 
" clip-path="url(#p76abb52009)" style="fill: none; stroke-dasharray: 5.12,1.28,0.8,1.28; stroke-dashoffset: 0; stroke: #b0b0b0; stroke-width: 0.8"/>
     </g>
     <g id="line2d_12">
      <g>
       <use xlink:href="#m95be3024ff" x="539.602044" y="320.4" style="fill: #a9a9a9; stroke: #a9a9a9; stroke-width: 0.8"/>
      </g>
     </g>
     <g id="text_6">
      <!-- 2024-01 -->
      <g style="fill: #a9a9a9" transform="translate(518.710638 334.998438) scale(0.1 -0.1)">
       <defs>
        <path id="DejaVuSans-34" d="M 2419 4116 
L 825 1625 
L 2419 1625 
L 2419 4116 
z
M 2253 4666 
L 3047 4666 
L 3047 1625 
L 3713 1625 
L 3713 1100 
L 3047 1100 
L 3047 0 
L 2419 0 
L 2419 1100 
L 313 1100 
L 313 1709 
L 2253 4666 
z
" transform="scale(0.015625)"/>
       </defs>
       <use xlink:href="#DejaVuSans-32"/>
       <use xlink:href="#DejaVuSans-30" transform="translate(63.623047 0)"/>
       <use xlink:href="#DejaVuSans-32" transform="translate(127.246094 0)"/>
       <use xlink:href="#DejaVuSans-34" transform="translate(190.869141 0)"/>
       <use xlink:href="#DejaVuSans-2d" transform="translate(254.492188 0)"/>
       <use xlink:href="#DejaVuSans-30" transform="translate(290.576172 0)"/>
       <use xlink:href="#DejaVuSans-31" transform="translate(354.199219 0)"/>
      </g>
     </g>
    </g>
    <g id="xtick_7">
     <g id="line2d_13">
      <path d="M 621.5461 320.4 
L 621.5461 43.2 
" clip-path="url(#p76abb52009)" style="fill: none; stroke-dasharray: 5.12,1.28,0.8,1.28; stroke-dashoffset: 0; stroke: #b0b0b0; stroke-width: 0.8"/>
     </g>
     <g id="line2d_14">
      <g>
       <use xlink:href="#m95be3024ff" x="621.5461" y="320.4" style="fill: #a9a9a9; stroke: #a9a9a9; stroke-width: 0.8"/>
      </g>
     </g>
     <g id="text_7">
      <!-- 2024-07 -->
      <g style="fill: #a9a9a9" transform="translate(600.654694 334.998438) scale(0.1 -0.1)">
       <use xlink:href="#DejaVuSans-32"/>
       <use xlink:href="#DejaVuSans-30" transform="translate(63.623047 0)"/>
       <use xlink:href="#DejaVuSans-32" transform="translate(127.246094 0)"/>
       <use xlink:href="#DejaVuSans-34" transform="translate(190.869141 0)"/>
       <use xlink:href="#DejaVuSans-2d" transform="translate(254.492188 0)"/>
       <use xlink:href="#DejaVuSans-30" transform="translate(290.576172 0)"/>
       <use xlink:href="#DejaVuSans-37" transform="translate(354.199219 0)"/>
      </g>
     </g>
    </g>
    <g id="xtick_8">
     <g id="line2d_15">
      <path d="M 704.39064 320.4 
L 704.39064 43.2 
" clip-path="url(#p76abb52009)" style="fill: none; stroke-dasharray: 5.12,1.28,0.8,1.28; stroke-dashoffset: 0; stroke: #b0b0b0; stroke-width: 0.8"/>
     </g>
     <g id="line2d_16">
      <g>
       <use xlink:href="#m95be3024ff" x="704.39064" y="320.4" style="fill: #a9a9a9; stroke: #a9a9a9; stroke-width: 0.8"/>
      </g>
     </g>
     <g id="text_8">
      <!-- 2025-01 -->
      <g style="fill: #a9a9a9" transform="translate(683.499234 334.998438) scale(0.1 -0.1)">
       <defs>
        <path id="DejaVuSans-35" d="M 691 4666 
L 3169 4666 
L 3169 4134 
L 1269 4134 
L 1269 2991 
Q 1406 3038 1543 3061 
Q 1681 3084 1819 3084 
Q 2600 3084 3056 2656 
Q 3513 2228 3513 1497 
Q 3513 744 3044 326 
Q 2575 -91 1722 -91 
Q 1428 -91 1123 -41 
Q 819 9 494 109 
L 494 744 
Q 775 591 1075 516 
Q 1375 441 1709 441 
Q 2250 441 2565 725 
Q 2881 1009 2881 1497 
Q 2881 1984 2565 2268 
Q 2250 2553 1709 2553 
Q 1456 2553 1204 2497 
Q 953 2441 691 2322 
L 691 4666 
z
" transform="scale(0.015625)"/>
       </defs>
       <use xlink:href="#DejaVuSans-32"/>
       <use xlink:href="#DejaVuSans-30" transform="translate(63.623047 0)"/>
       <use xlink:href="#DejaVuSans-32" transform="translate(127.246094 0)"/>
       <use xlink:href="#DejaVuSans-35" transform="translate(190.869141 0)"/>
       <use xlink:href="#DejaVuSans-2d" transform="translate(254.492188 0)"/>
       <use xlink:href="#DejaVuSans-30" transform="translate(290.576172 0)"/>
       <use xlink:href="#DejaVuSans-31" transform="translate(354.199219 0)"/>
      </g>
     </g>
    </g>
   </g>
   <g id="matplotlib.axis_2">
    <g id="ytick_1">
     <g id="line2d_17">
      <path d="M 108 307.833591 
L 777.6 307.833591 
" clip-path="url(#p76abb52009)" style="fill: none; stroke-dasharray: 5.12,1.28,0.8,1.28; stroke-dashoffset: 0; stroke: #b0b0b0; stroke-width: 0.8"/>
     </g>
     <g id="line2d_18">
      <defs>
       <path id="m1b4577bb46" d="M 0 0 
L -3.5 0 
" style="stroke: #a9a9a9; stroke-width: 0.8"/>
      </defs>
      <g>
       <use xlink:href="#m1b4577bb46" x="108" y="307.833591" style="fill: #a9a9a9; stroke: #a9a9a9; stroke-width: 0.8"/>
      </g>
     </g>
     <g id="text_9">
      <!-- 0 -->
      <g style="fill: #a9a9a9" transform="translate(94.6375 311.63281) scale(0.1 -0.1)">
       <use xlink:href="#DejaVuSans-30"/>
      </g>
     </g>
    </g>
    <g id="ytick_2">
     <g id="line2d_19">
      <path d="M 108 274.242549 
L 777.6 274.242549 
" clip-path="url(#p76abb52009)" style="fill: none; stroke-dasharray: 5.12,1.28,0.8,1.28; stroke-dashoffset: 0; stroke: #b0b0b0; stroke-width: 0.8"/>
     </g>
     <g id="line2d_20">
      <g>
       <use xlink:href="#m1b4577bb46" x="108" y="274.242549" style="fill: #a9a9a9; stroke: #a9a9a9; stroke-width: 0.8"/>
      </g>
     </g>
     <g id="text_10">
      <!-- 1000 -->
      <g style="fill: #a9a9a9" transform="translate(75.55 278.041767) scale(0.1 -0.1)">
       <use xlink:href="#DejaVuSans-31"/>
       <use xlink:href="#DejaVuSans-30" transform="translate(63.623047 0)"/>
       <use xlink:href="#DejaVuSans-30" transform="translate(127.246094 0)"/>
       <use xlink:href="#DejaVuSans-30" transform="translate(190.869141 0)"/>
      </g>
     </g>
    </g>
    <g id="ytick_3">
     <g id="line2d_21">
      <path d="M 108 240.651506 
L 777.6 240.651506 
" clip-path="url(#p76abb52009)" style="fill: none; stroke-dasharray: 5.12,1.28,0.8,1.28; stroke-dashoffset: 0; stroke: #b0b0b0; stroke-width: 0.8"/>
     </g>
     <g id="line2d_22">
      <g>
       <use xlink:href="#m1b4577bb46" x="108" y="240.651506" style="fill: #a9a9a9; stroke: #a9a9a9; stroke-width: 0.8"/>
      </g>
     </g>
     <g id="text_11">
      <!-- 2000 -->
      <g style="fill: #a9a9a9" transform="translate(75.55 244.450725) scale(0.1 -0.1)">
       <use xlink:href="#DejaVuSans-32"/>
       <use xlink:href="#DejaVuSans-30" transform="translate(63.623047 0)"/>
       <use xlink:href="#DejaVuSans-30" transform="translate(127.246094 0)"/>
       <use xlink:href="#DejaVuSans-30" transform="translate(190.869141 0)"/>
      </g>
     </g>
    </g>
    <g id="ytick_4">
     <g id="line2d_23">
      <path d="M 108 207.060464 
L 777.6 207.060464 
" clip-path="url(#p76abb52009)" style="fill: none; stroke-dasharray: 5.12,1.28,0.8,1.28; stroke-dashoffset: 0; stroke: #b0b0b0; stroke-width: 0.8"/>
     </g>
     <g id="line2d_24">
      <g>
       <use xlink:href="#m1b4577bb46" x="108" y="207.060464" style="fill: #a9a9a9; stroke: #a9a9a9; stroke-width: 0.8"/>
      </g>
     </g>
     <g id="text_12">
      <!-- 3000 -->
      <g style="fill: #a9a9a9" transform="translate(75.55 210.859683) scale(0.1 -0.1)">
       <use xlink:href="#DejaVuSans-33"/>
       <use xlink:href="#DejaVuSans-30" transform="translate(63.623047 0)"/>
       <use xlink:href="#DejaVuSans-30" transform="translate(127.246094 0)"/>
       <use xlink:href="#DejaVuSans-30" transform="translate(190.869141 0)"/>
      </g>
     </g>
    </g>
    <g id="ytick_5">
     <g id="line2d_25">
      <path d="M 108 173.469421 
L 777.6 173.469421 
" clip-path="url(#p76abb52009)" style="fill: none; stroke-dasharray: 5.12,1.28,0.8,1.28; stroke-dashoffset: 0; stroke: #b0b0b0; stroke-width: 0.8"/>
     </g>
     <g id="line2d_26">
      <g>
       <use xlink:href="#m1b4577bb46" x="108" y="173.469421" style="fill: #a9a9a9; stroke: #a9a9a9; stroke-width: 0.8"/>
      </g>
     </g>
     <g id="text_13">
      <!-- 4000 -->
      <g style="fill: #a9a9a9" transform="translate(75.55 177.26864) scale(0.1 -0.1)">
       <use xlink:href="#DejaVuSans-34"/>
       <use xlink:href="#DejaVuSans-30" transform="translate(63.623047 0)"/>
       <use xlink:href="#DejaVuSans-30" transform="translate(127.246094 0)"/>
       <use xlink:href="#DejaVuSans-30" transform="translate(190.869141 0)"/>
      </g>
     </g>
    </g>
    <g id="ytick_6">
     <g id="line2d_27">
      <path d="M 108 139.878379 
L 777.6 139.878379 
" clip-path="url(#p76abb52009)" style="fill: none; stroke-dasharray: 5.12,1.28,0.8,1.28; stroke-dashoffset: 0; stroke: #b0b0b0; stroke-width: 0.8"/>
     </g>
     <g id="line2d_28">
      <g>
       <use xlink:href="#m1b4577bb46" x="108" y="139.878379" style="fill: #a9a9a9; stroke: #a9a9a9; stroke-width: 0.8"/>
      </g>
     </g>
     <g id="text_14">
      <!-- 5000 -->
      <g style="fill: #a9a9a9" transform="translate(75.55 143.677598) scale(0.1 -0.1)">
       <use xlink:href="#DejaVuSans-35"/>
       <use xlink:href="#DejaVuSans-30" transform="translate(63.623047 0)"/>
       <use xlink:href="#DejaVuSans-30" transform="translate(127.246094 0)"/>
       <use xlink:href="#DejaVuSans-30" transform="translate(190.869141 0)"/>
      </g>
     </g>
    </g>
    <g id="ytick_7">
     <g id="line2d_29">
      <path d="M 108 106.287337 
L 777.6 106.287337 
" clip-path="url(#p76abb52009)" style="fill: none; stroke-dasharray: 5.12,1.28,0.8,1.28; stroke-dashoffset: 0; stroke: #b0b0b0; stroke-width: 0.8"/>
     </g>
     <g id="line2d_30">
      <g>
       <use xlink:href="#m1b4577bb46" x="108" y="106.287337" style="fill: #a9a9a9; stroke: #a9a9a9; stroke-width: 0.8"/>
      </g>
     </g>
     <g id="text_15">
      <!-- 6000 -->
      <g style="fill: #a9a9a9" transform="translate(75.55 110.086555) scale(0.1 -0.1)">
       <defs>
        <path id="DejaVuSans-36" d="M 2113 2584 
Q 1688 2584 1439 2293 
Q 1191 2003 1191 1497 
Q 1191 994 1439 701 
Q 1688 409 2113 409 
Q 2538 409 2786 701 
Q 3034 994 3034 1497 
Q 3034 2003 2786 2293 
Q 2538 2584 2113 2584 
z
M 3366 4563 
L 3366 3988 
Q 3128 4100 2886 4159 
Q 2644 4219 2406 4219 
Q 1781 4219 1451 3797 
Q 1122 3375 1075 2522 
Q 1259 2794 1537 2939 
Q 1816 3084 2150 3084 
Q 2853 3084 3261 2657 
Q 3669 2231 3669 1497 
Q 3669 778 3244 343 
Q 2819 -91 2113 -91 
Q 1303 -91 875 529 
Q 447 1150 447 2328 
Q 447 3434 972 4092 
Q 1497 4750 2381 4750 
Q 2619 4750 2861 4703 
Q 3103 4656 3366 4563 
z
" transform="scale(0.015625)"/>
       </defs>
       <use xlink:href="#DejaVuSans-36"/>
       <use xlink:href="#DejaVuSans-30" transform="translate(63.623047 0)"/>
       <use xlink:href="#DejaVuSans-30" transform="translate(127.246094 0)"/>
       <use xlink:href="#DejaVuSans-30" transform="translate(190.869141 0)"/>
      </g>
     </g>
    </g>
    <g id="ytick_8">
     <g id="line2d_31">
      <path d="M 108 72.696294 
L 777.6 72.696294 
" clip-path="url(#p76abb52009)" style="fill: none; stroke-dasharray: 5.12,1.28,0.8,1.28; stroke-dashoffset: 0; stroke: #b0b0b0; stroke-width: 0.8"/>
     </g>
     <g id="line2d_32">
      <g>
       <use xlink:href="#m1b4577bb46" x="108" y="72.696294" style="fill: #a9a9a9; stroke: #a9a9a9; stroke-width: 0.8"/>
      </g>
     </g>
     <g id="text_16">
      <!-- 7000 -->
      <g style="fill: #a9a9a9" transform="translate(75.55 76.495513) scale(0.1 -0.1)">
       <use xlink:href="#DejaVuSans-37"/>
       <use xlink:href="#DejaVuSans-30" transform="translate(63.623047 0)"/>
       <use xlink:href="#DejaVuSans-30" transform="translate(127.246094 0)"/>
       <use xlink:href="#DejaVuSans-30" transform="translate(190.869141 0)"/>
      </g>
     </g>
    </g>
   </g>
   <g id="line2d_33">
    <path d="M 138.436364 307.732818 
L 141.137816 307.497681 
L 141.588058 307.296134 
L 143.389026 307.060997 
L 145.189995 306.691496 
L 146.090479 306.557131 
L 148.341689 306.355585 
L 149.242173 305.986084 
L 149.692415 305.381445 
L 150.142657 305.079126 
L 150.592899 304.071394 
L 151.043141 304.004212 
L 151.493384 303.634711 
L 152.393868 303.164436 
L 154.194836 301.68643 
L 155.995804 300.779472 
L 157.34653 300.141242 
L 157.796772 299.402239 
L 158.697257 298.730419 
L 159.147499 298.528872 
L 163.649919 297.857051 
L 164.100161 297.655505 
L 167.251856 297.386777 
L 169.052824 296.950093 
L 172.654761 296.446228 
L 173.105003 296.21109 
L 173.555245 296.143908 
L 174.455729 295.841589 
L 177.607423 295.304132 
L 178.507907 295.035404 
L 182.560086 294.329992 
L 183.46057 294.128446 
L 184.361054 294.094855 
L 186.162023 293.658171 
L 186.612265 293.019941 
L 187.962991 292.482485 
L 189.313717 292.112983 
L 189.763959 291.877846 
L 190.664443 291.709891 
L 192.465412 291.172434 
L 193.365896 291.105252 
L 194.26638 290.870115 
L 196.067348 290.39984 
L 196.51759 290.366249 
L 197.418074 289.929565 
L 197.868316 289.862383 
L 198.318558 289.627246 
L 203.271221 288.78747 
L 205.072189 288.250013 
L 205.522431 287.947694 
L 207.773642 287.208691 
L 208.674126 286.570461 
L 210.024852 286.301733 
L 219.930178 283.379312 
L 220.38042 283.345721 
L 221.731146 282.942629 
L 222.181388 282.942629 
L 222.63163 282.741082 
L 223.532114 282.640309 
L 223.982356 282.472354 
L 225.783324 282.405172 
L 226.683808 282.237217 
L 227.584293 281.766942 
L 228.935019 281.263077 
L 229.385261 280.960757 
L 230.285745 280.557665 
L 230.735987 280.322527 
L 231.636471 280.020208 
L 232.086713 279.885844 
L 232.987197 279.314796 
L 233.437439 278.81093 
L 234.337924 277.400107 
L 234.788166 277.265742 
L 235.238408 277.265742 
L 236.589134 276.459557 
L 237.039376 276.22442 
L 237.489618 276.123647 
L 237.93986 275.686963 
L 238.840344 275.317462 
L 239.740828 274.880778 
L 241.992039 271.958358 
L 244.693491 270.480352 
L 245.593975 269.741349 
L 246.044217 269.43903 
L 246.494459 268.8008 
L 246.944701 267.759477 
L 247.394944 267.054066 
L 247.845186 266.684564 
L 248.295428 266.483018 
L 251.897364 263.123914 
L 252.797848 262.284138 
L 255.499301 260.570994 
L 255.949543 260.403039 
L 257.300269 259.596854 
L 258.650995 258.689896 
L 260.451963 257.043935 
L 261.352448 256.674433 
L 262.252932 256.036204 
L 262.703174 255.767475 
L 263.153416 255.700293 
L 264.504142 254.927699 
L 264.954384 254.423834 
L 267.205594 253.180965 
L 267.655836 253.01301 
L 269.006563 252.072461 
L 275.760194 249.653906 
L 276.660678 248.81413 
L 278.011404 248.142309 
L 278.911888 247.571261 
L 279.812372 247.302533 
L 280.262614 247.000213 
L 280.712856 246.865849 
L 282.063583 245.958891 
L 284.314793 245.455025 
L 285.665519 244.64884 
L 287.016245 244.346521 
L 287.466487 244.245748 
L 288.817214 243.204425 
L 290.618182 242.70056 
L 291.068424 242.331058 
L 293.769876 241.390509 
L 294.67036 241.222554 
L 295.570845 240.853053 
L 298.722539 239.677366 
L 299.623023 239.543002 
L 300.973749 239.072727 
L 303.22496 237.964223 
L 305.025928 236.956492 
L 308.627864 235.444895 
L 309.078107 235.377713 
L 309.978591 234.806665 
L 310.879075 234.571528 
L 312.229801 234.034071 
L 314.030769 233.798934 
L 314.931253 233.328659 
L 315.381495 232.925567 
L 315.831737 232.08579 
L 317.632706 231.581925 
L 318.983432 230.876513 
L 319.883916 230.574194 
L 320.7844 230.103919 
L 323.485853 228.995415 
L 324.386337 228.793868 
L 325.286821 228.323594 
L 325.737063 228.122047 
L 326.187305 228.054865 
L 328.438515 226.946361 
L 329.338999 226.375313 
L 330.689726 226.106585 
L 332.940936 225.535537 
L 333.391178 225.166036 
L 334.291662 224.863716 
L 336.542873 223.956758 
L 336.993115 223.620848 
L 337.443357 223.452893 
L 338.343841 222.949027 
L 340.144809 222.377979 
L 341.045293 221.806931 
L 341.495535 221.336657 
L 341.945777 221.067929 
L 342.396019 220.967155 
L 343.296503 220.228152 
L 343.746746 220.16097 
L 344.196988 219.421967 
L 344.64723 219.220421 
L 345.097472 218.85092 
L 345.547714 218.783738 
L 346.448198 218.21269 
L 347.348682 217.910371 
L 347.798924 217.57446 
L 348.249166 217.406505 
L 350.050134 216.197227 
L 351.400861 215.491816 
L 352.301345 215.256678 
L 353.201829 214.752813 
L 353.652071 213.980219 
L 354.552555 213.308398 
L 355.002797 213.207625 
L 357.70425 211.897574 
L 358.604734 211.528073 
L 359.95546 210.385977 
L 360.855944 209.613383 
L 361.756428 209.075926 
L 362.20667 208.572061 
L 362.656912 208.269741 
L 363.557396 207.530738 
L 364.007639 207.329192 
L 364.908123 206.422234 
L 365.808607 206.119915 
L 366.709091 205.515276 
L 368.059817 204.809864 
L 368.510059 204.742682 
L 369.860785 204.003679 
L 370.761269 203.432631 
L 375.26369 201.753079 
L 375.713932 201.383578 
L 377.5149 200.678166 
L 377.965143 200.543802 
L 378.865627 199.939163 
L 379.766111 199.569661 
L 380.666595 198.931432 
L 381.567079 197.117515 
L 382.467563 196.042602 
L 383.818289 195.33719 
L 384.718774 194.967689 
L 385.169016 194.900507 
L 385.619258 194.631778 
L 387.870468 193.892775 
L 388.32071 193.691229 
L 389.221194 193.08659 
L 390.57192 192.515543 
L 391.472405 192.011677 
L 392.372889 191.47422 
L 392.823131 191.171901 
L 393.273373 190.668035 
L 394.173857 190.16417 
L 396.425067 188.921301 
L 399.12652 187.577659 
L 400.477246 187.174567 
L 401.827972 186.63711 
L 402.278214 186.3012 
L 403.178698 186.032471 
L 404.079182 185.66297 
L 404.529424 185.293468 
L 406.330393 184.655239 
L 407.230877 184.017009 
L 408.131361 183.647507 
L 409.031845 182.942095 
L 409.932329 182.673367 
L 410.382571 182.270275 
L 410.832813 182.203093 
L 411.733297 181.497681 
L 412.633782 181.027406 
L 413.084024 180.82586 
L 413.534266 180.355585 
L 416.68596 179.079126 
L 417.586444 178.676033 
L 418.937171 178.23935 
L 419.837655 178.104985 
L 420.287897 177.903439 
L 420.738139 177.836257 
L 421.638623 177.433164 
L 422.088865 177.399573 
L 423.889833 176.727753 
L 425.240559 175.753612 
L 425.690802 175.585657 
L 426.591286 175.081792 
L 427.041528 174.947427 
L 429.74298 173.402239 
L 430.193222 173.301466 
L 431.543948 172.495281 
L 432.894675 172.025007 
L 433.795159 171.722687 
L 435.596127 171.118049 
L 436.496611 170.815729 
L 438.297579 170.446228 
L 438.747821 170.244681 
L 439.648306 170.009544 
L 440.098548 169.807998 
L 440.54879 169.740816 
L 440.999032 169.505678 
L 441.899516 169.337723 
L 443.250242 168.833858 
L 444.150726 168.733085 
L 445.501452 168.430765 
L 447.752663 168.027673 
L 459.458956 164.534204 
L 459.909198 164.06393 
L 460.809683 163.694428 
L 464.411619 162.317195 
L 464.861861 162.048467 
L 466.212587 161.645375 
L 467.113072 161.410237 
L 467.563314 161.107918 
L 468.013556 161.007145 
L 468.463798 160.604052 
L 469.814524 160.335324 
L 470.715008 159.89864 
L 471.16525 159.361184 
L 472.966218 158.9245 
L 476.117913 158.252679 
L 476.568155 158.252679 
L 477.018397 158.051133 
L 478.819365 157.715223 
L 479.269607 157.513676 
L 481.070576 157.177766 
L 481.97106 156.774673 
L 482.871544 156.606718 
L 485.122754 156.03567 
L 486.923722 155.464623 
L 487.373964 155.36385 
L 487.824207 155.128712 
L 488.724691 154.893575 
L 489.625175 154.524074 
L 490.525659 154.188163 
L 490.975901 153.885844 
L 491.876385 153.617115 
L 495.478322 152.374247 
L 496.378806 152.307065 
L 498.179774 151.769608 
L 498.630016 151.50088 
L 499.5305 151.232151 
L 501.781711 150.190829 
L 502.231953 150.157238 
L 507.184615 148.376913 
L 509.435826 147.772274 
L 510.33631 147.335591 
L 511.687036 147.033271 
L 513.488004 145.555265 
L 515.288973 144.782671 
L 516.189457 144.379579 
L 518.890909 143.338256 
L 519.341151 143.035937 
L 521.592361 142.296934 
L 522.943088 141.52434 
L 523.39333 141.423567 
L 525.194298 140.415836 
L 526.995266 139.609651 
L 527.445508 139.27374 
L 528.345992 138.971421 
L 530.597203 137.829326 
L 531.947929 137.359051 
L 533.748897 136.620048 
L 535.099623 136.116182 
L 535.549866 135.948227 
L 536.45035 135.813863 
L 536.900592 135.511544 
L 538.70156 135.142042 
L 539.602044 134.772541 
L 541.403012 133.932765 
L 547.706401 131.178299 
L 549.057127 130.741616 
L 549.50737 130.439296 
L 550.407854 130.338523 
L 550.858096 130.036204 
L 551.75858 129.868248 
L 552.659064 129.431565 
L 553.109306 129.230019 
L 554.00979 128.994881 
L 554.910274 128.726153 
L 556.261001 128.222287 
L 557.611727 127.785604 
L 558.962453 127.483284 
L 560.763421 126.744282 
L 561.663905 126.240416 
L 563.464874 125.333458 
L 564.365358 125.131911 
L 564.8156 124.863183 
L 565.265842 124.76241 
L 566.616568 123.989816 
L 567.517052 123.620315 
L 569.31802 122.914903 
L 571.569231 122.142309 
L 572.469715 121.672034 
L 574.720925 120.89944 
L 577.422378 119.790936 
L 579.223346 118.95116 
L 583.725767 117.204425 
L 584.626251 116.767742 
L 585.076493 116.666969 
L 585.526735 116.431832 
L 587.327703 115.927966 
L 589.128671 114.44996 
L 589.578913 114.315596 
L 590.029155 114.046868 
L 591.379882 113.677366 
L 591.830124 113.341456 
L 592.280366 113.240682 
L 593.18085 112.669635 
L 594.531576 111.964223 
L 595.43206 111.594721 
L 595.882302 111.359584 
L 597.233029 111.057265 
L 599.484239 110.284671 
L 600.384723 109.982351 
L 601.735449 109.276939 
L 602.635933 108.840256 
L 603.536417 108.605119 
L 604.887144 107.966889 
L 608.939322 106.455292 
L 610.290048 105.615516 
L 610.74029 105.514743 
L 611.640775 105.078059 
L 612.541259 104.742149 
L 612.991501 104.339056 
L 613.891985 103.969555 
L 615.242711 103.49928 
L 615.692953 103.129779 
L 616.143195 103.096188 
L 617.043679 102.827459 
L 617.944164 102.52514 
L 618.394406 102.323594 
L 618.844648 102.256412 
L 620.195374 101.752546 
L 621.5461 101.24868 
L 623.347068 100.442495 
L 623.79731 100.375313 
L 627.399247 98.863716 
L 628.749973 98.427033 
L 629.650457 98.359851 
L 630.550941 97.990349 
L 633.252394 97.184164 
L 634.152878 97.150573 
L 637.754814 95.974887 
L 638.655299 95.504612 
L 639.105541 95.10152 
L 640.456267 94.295335 
L 641.356751 93.757878 
L 644.058203 92.884511 
L 644.508445 92.515009 
L 647.209898 91.372914 
L 649.010866 90.902639 
L 649.91135 90.499547 
L 650.361592 90.264409 
L 651.262076 89.995681 
L 651.712318 89.726953 
L 652.612803 89.558998 
L 656.214739 88.01381 
L 656.664981 87.946628 
L 657.115223 87.644308 
L 657.565465 87.476353 
L 658.015707 87.07326 
L 658.465949 87.006078 
L 660.266918 86.300666 
L 662.067886 85.863983 
L 662.518128 85.796801 
L 662.96837 85.595255 
L 663.418612 85.561664 
L 664.319096 85.259344 
L 664.769338 85.225753 
L 666.120065 84.688296 
L 667.921033 84.15084 
L 668.821517 83.479019 
L 670.622485 82.471288 
L 671.973211 82.001013 
L 675.575148 80.28787 
L 676.02539 80.052733 
L 676.475632 79.616049 
L 678.726842 79.01141 
L 680.077569 78.406772 
L 680.978053 78.171634 
L 681.428295 77.936497 
L 681.878537 77.566995 
L 683.679505 77.096721 
L 684.129747 76.76081 
L 689.982894 74.644575 
L 690.883378 74.47662 
L 693.134588 73.771208 
L 694.035073 73.401706 
L 694.935557 73.065796 
L 695.836041 72.830658 
L 696.286283 72.629112 
L 696.736525 72.629112 
L 697.637009 72.259611 
L 698.537493 71.722154 
L 700.788704 70.94956 
L 702.13943 70.479286 
L 702.589672 70.412103 
L 703.490156 70.042602 
L 704.840882 69.740283 
L 706.191608 69.303599 
L 706.64185 69.202826 
L 707.092093 68.900507 
L 707.992577 68.69896 
L 716.997418 66.11245 
L 719.248628 65.709358 
L 720.149112 65.272674 
L 721.049597 64.83599 
L 722.400323 64.432898 
L 726.902743 62.786937 
L 727.352985 62.451026 
L 728.703712 62.148707 
L 729.604196 61.879979 
L 730.50468 61.443295 
L 730.954922 61.040203 
L 731.855406 60.737883 
L 732.305648 60.469155 
L 733.206132 60.368382 
L 736.357827 59.495015 
L 737.708553 59.226286 
L 740.410005 58.319328 
L 742.210974 57.445961 
L 746.713394 55.8 
L 747.163636 55.8 
L 747.163636 55.8 
" clip-path="url(#p76abb52009)" style="fill: none; stroke: #1f77b4; stroke-width: 1.5; stroke-linecap: square"/>
   </g>
   <g id="line2d_34">
    <path d="M 138.886606 307.8 
L 142.938784 307.699227 
L 146.540721 307.531272 
L 148.341689 307.531272 
L 148.791931 307.396907 
L 151.043141 307.296134 
L 153.744594 306.993815 
L 156.446046 306.893042 
L 157.34653 306.792269 
L 160.498225 306.657905 
L 163.649919 306.557131 
L 165.90113 306.489949 
L 171.754276 306.389176 
L 174.005487 306.321994 
L 178.057665 306.221221 
L 179.858634 306.18763 
L 184.361054 306.086857 
L 186.162023 305.918902 
L 187.962991 305.885311 
L 190.664443 305.784537 
L 192.465412 305.750946 
L 194.716622 305.683764 
L 196.51759 305.515809 
L 200.569769 305.415036 
L 201.470253 305.347854 
L 203.271221 305.247081 
L 205.972673 305.146308 
L 207.773642 305.045535 
L 215.877999 304.541669 
L 219.029693 304.440896 
L 220.38042 304.306532 
L 222.63163 304.205758 
L 227.134051 303.970621 
L 231.636471 303.903439 
L 233.437439 303.701893 
L 235.238408 303.60112 
L 240.19107 303.130845 
L 243.342765 302.761344 
L 244.693491 302.694162 
L 248.295428 302.223887 
L 250.99688 302.156705 
L 252.347606 302.022341 
L 253.698332 301.921568 
L 266.30511 300.947427 
L 267.205594 300.779472 
L 269.907047 300.678699 
L 277.11092 300.242015 
L 280.262614 300.141242 
L 282.063583 299.939696 
L 284.314793 299.838923 
L 287.016245 299.73815 
L 289.267456 299.637377 
L 291.068424 299.603786 
L 293.319634 299.536604 
L 294.220118 299.402239 
L 300.523507 299.301466 
L 301.423991 299.200693 
L 306.826896 299.09992 
L 310.879075 298.898374 
L 314.030769 298.797601 
L 315.831737 298.596054 
L 318.983432 298.495281 
L 319.883916 298.327326 
L 322.135126 298.260144 
L 326.637547 298.192962 
L 328.438515 298.025007 
L 330.239484 297.991416 
L 331.59021 297.890642 
L 333.391178 297.722687 
L 337.893599 297.48755 
L 342.396019 297.386777 
L 346.448198 297.185231 
L 347.798924 297.15164 
L 348.699408 297.017275 
L 350.950619 296.916502 
L 351.851103 296.84932 
L 352.751587 296.782138 
L 353.652071 296.714956 
L 357.70425 296.647774 
L 359.054976 296.547001 
L 371.211512 295.740816 
L 373.462722 295.640043 
L 375.713932 295.572861 
L 382.017321 295.472087 
L 382.917805 295.337723 
L 389.221194 295.23695 
L 393.723615 295.001813 
L 394.624099 294.968222 
L 395.524583 294.867449 
L 397.775793 294.766676 
L 400.027004 294.699493 
L 402.278214 294.59872 
L 404.529424 294.531538 
L 408.581603 294.430765 
L 411.283055 294.329992 
L 417.586444 294.229219 
L 422.539107 293.960491 
L 424.340075 293.893308 
L 425.690802 293.792535 
L 431.99419 293.691762 
L 434.695643 293.590989 
L 442.8 293.490216 
L 444.600968 293.456625 
L 450.003873 293.389443 
L 450.904357 293.322261 
L 457.207746 293.221488 
L 459.008714 293.187897 
L 470.715008 293.087123 
L 473.41646 292.98635 
L 492.326627 292.885577 
L 494.577838 292.818395 
L 506.284131 292.751213 
L 507.184615 292.684031 
L 509.435826 292.616849 
L 510.786552 292.482485 
L 513.488004 292.381712 
L 516.639699 292.247347 
L 520.691877 292.146574 
L 522.943088 292.079392 
L 526.094782 291.978619 
L 529.696719 291.810664 
L 531.947929 291.709891 
L 533.748897 291.6763 
L 537.801076 291.575527 
L 539.602044 291.541935 
L 545.455191 291.441162 
L 547.256159 291.407571 
L 549.50737 291.306798 
L 552.208822 291.206025 
L 555.360516 291.138843 
L 556.261001 291.071661 
L 567.06681 290.970888 
L 572.919957 290.634977 
L 575.171167 290.567795 
L 576.071651 290.467022 
L 576.972136 290.39984 
L 580.574072 290.299067 
L 583.275524 290.198294 
L 587.777945 290.097521 
L 590.029155 289.862383 
L 594.531576 289.76161 
L 595.43206 289.660837 
L 599.934481 289.560064 
L 602.185691 289.492882 
L 607.138354 289.459291 
L 608.038838 289.358518 
L 612.991501 289.257745 
L 613.891985 289.190563 
L 623.79731 289.089789 
L 626.498763 288.989016 
L 633.252394 288.888243 
L 635.053362 288.854652 
L 639.105541 288.78747 
L 640.006025 288.686697 
L 645.859172 288.585924 
L 648.110382 288.518742 
L 656.214739 288.417969 
L 657.565465 288.317195 
L 658.916192 288.216422 
L 660.266918 288.115649 
L 667.020549 288.014876 
L 669.722001 287.914103 
L 681.878537 287.81333 
L 685.930715 287.611784 
L 691.33362 287.51101 
L 692.234104 287.443828 
L 698.987735 287.376646 
L 699.888219 287.309464 
L 704.840882 287.208691 
L 706.64185 287.1751 
L 712.945239 287.074327 
L 715.646692 286.973554 
L 723.300807 286.872781 
L 725.101775 286.83919 
L 729.153954 286.738416 
L 732.75589 286.570461 
L 737.708553 286.469688 
L 740.860247 286.335324 
L 744.912426 286.234551 
L 745.81291 286.167369 
L 747.163636 286.167369 
L 747.163636 286.167369 
" clip-path="url(#p76abb52009)" style="fill: none; stroke: #ff7f0e; stroke-width: 1.5; stroke-linecap: square"/>
   </g>
   <g id="patch_3">
    <path d="M 108 320.4 
L 108 43.2 
" style="fill: none; stroke: #a9a9a9; stroke-width: 0.8; stroke-linejoin: miter; stroke-linecap: square"/>
   </g>
   <g id="patch_4">
    <path d="M 777.6 320.4 
L 777.6 43.2 
" style="fill: none"/>
   </g>
   <g id="patch_5">
    <path d="M 108 320.4 
L 777.6 320.4 
" style="fill: none; stroke: #a9a9a9; stroke-width: 0.8; stroke-linejoin: miter; stroke-linecap: square"/>
   </g>
   <g id="patch_6">
    <path d="M 108 43.2 
L 777.6 43.2 
" style="fill: none"/>
   </g>
   <g id="text_17">
    <!-- get_subscribe history -->
    <g style="fill: #a9a9a9" transform="translate(378.6075 37.2) scale(0.12 -0.12)">
     <defs>
      <path id="DejaVuSans-67" d="M 2906 1791 
Q 2906 2416 2648 2759 
Q 2391 3103 1925 3103 
Q 1463 3103 1205 2759 
Q 947 2416 947 1791 
Q 947 1169 1205 825 
Q 1463 481 1925 481 
Q 2391 481 2648 825 
Q 2906 1169 2906 1791 
z
M 3481 434 
Q 3481 -459 3084 -895 
Q 2688 -1331 1869 -1331 
Q 1566 -1331 1297 -1286 
Q 1028 -1241 775 -1147 
L 775 -588 
Q 1028 -725 1275 -790 
Q 1522 -856 1778 -856 
Q 2344 -856 2625 -561 
Q 2906 -266 2906 331 
L 2906 616 
Q 2728 306 2450 153 
Q 2172 0 1784 0 
Q 1141 0 747 490 
Q 353 981 353 1791 
Q 353 2603 747 3093 
Q 1141 3584 1784 3584 
Q 2172 3584 2450 3431 
Q 2728 3278 2906 2969 
L 2906 3500 
L 3481 3500 
L 3481 434 
z
" transform="scale(0.015625)"/>
      <path id="DejaVuSans-65" d="M 3597 1894 
L 3597 1613 
L 953 1613 
Q 991 1019 1311 708 
Q 1631 397 2203 397 
Q 2534 397 2845 478 
Q 3156 559 3463 722 
L 3463 178 
Q 3153 47 2828 -22 
Q 2503 -91 2169 -91 
Q 1331 -91 842 396 
Q 353 884 353 1716 
Q 353 2575 817 3079 
Q 1281 3584 2069 3584 
Q 2775 3584 3186 3129 
Q 3597 2675 3597 1894 
z
M 3022 2063 
Q 3016 2534 2758 2815 
Q 2500 3097 2075 3097 
Q 1594 3097 1305 2825 
Q 1016 2553 972 2059 
L 3022 2063 
z
" transform="scale(0.015625)"/>
      <path id="DejaVuSans-74" d="M 1172 4494 
L 1172 3500 
L 2356 3500 
L 2356 3053 
L 1172 3053 
L 1172 1153 
Q 1172 725 1289 603 
Q 1406 481 1766 481 
L 2356 481 
L 2356 0 
L 1766 0 
Q 1100 0 847 248 
Q 594 497 594 1153 
L 594 3053 
L 172 3053 
L 172 3500 
L 594 3500 
L 594 4494 
L 1172 4494 
z
" transform="scale(0.015625)"/>
      <path id="DejaVuSans-5f" d="M 3263 -1063 
L 3263 -1509 
L -63 -1509 
L -63 -1063 
L 3263 -1063 
z
" transform="scale(0.015625)"/>
      <path id="DejaVuSans-73" d="M 2834 3397 
L 2834 2853 
Q 2591 2978 2328 3040 
Q 2066 3103 1784 3103 
Q 1356 3103 1142 2972 
Q 928 2841 928 2578 
Q 928 2378 1081 2264 
Q 1234 2150 1697 2047 
L 1894 2003 
Q 2506 1872 2764 1633 
Q 3022 1394 3022 966 
Q 3022 478 2636 193 
Q 2250 -91 1575 -91 
Q 1294 -91 989 -36 
Q 684 19 347 128 
L 347 722 
Q 666 556 975 473 
Q 1284 391 1588 391 
Q 1994 391 2212 530 
Q 2431 669 2431 922 
Q 2431 1156 2273 1281 
Q 2116 1406 1581 1522 
L 1381 1569 
Q 847 1681 609 1914 
Q 372 2147 372 2553 
Q 372 3047 722 3315 
Q 1072 3584 1716 3584 
Q 2034 3584 2315 3537 
Q 2597 3491 2834 3397 
z
" transform="scale(0.015625)"/>
      <path id="DejaVuSans-75" d="M 544 1381 
L 544 3500 
L 1119 3500 
L 1119 1403 
Q 1119 906 1312 657 
Q 1506 409 1894 409 
Q 2359 409 2629 706 
Q 2900 1003 2900 1516 
L 2900 3500 
L 3475 3500 
L 3475 0 
L 2900 0 
L 2900 538 
Q 2691 219 2414 64 
Q 2138 -91 1772 -91 
Q 1169 -91 856 284 
Q 544 659 544 1381 
z
M 1991 3584 
L 1991 3584 
z
" transform="scale(0.015625)"/>
      <path id="DejaVuSans-62" d="M 3116 1747 
Q 3116 2381 2855 2742 
Q 2594 3103 2138 3103 
Q 1681 3103 1420 2742 
Q 1159 2381 1159 1747 
Q 1159 1113 1420 752 
Q 1681 391 2138 391 
Q 2594 391 2855 752 
Q 3116 1113 3116 1747 
z
M 1159 2969 
Q 1341 3281 1617 3432 
Q 1894 3584 2278 3584 
Q 2916 3584 3314 3078 
Q 3713 2572 3713 1747 
Q 3713 922 3314 415 
Q 2916 -91 2278 -91 
Q 1894 -91 1617 61 
Q 1341 213 1159 525 
L 1159 0 
L 581 0 
L 581 4863 
L 1159 4863 
L 1159 2969 
z
" transform="scale(0.015625)"/>
      <path id="DejaVuSans-63" d="M 3122 3366 
L 3122 2828 
Q 2878 2963 2633 3030 
Q 2388 3097 2138 3097 
Q 1578 3097 1268 2742 
Q 959 2388 959 1747 
Q 959 1106 1268 751 
Q 1578 397 2138 397 
Q 2388 397 2633 464 
Q 2878 531 3122 666 
L 3122 134 
Q 2881 22 2623 -34 
Q 2366 -91 2075 -91 
Q 1284 -91 818 406 
Q 353 903 353 1747 
Q 353 2603 823 3093 
Q 1294 3584 2113 3584 
Q 2378 3584 2631 3529 
Q 2884 3475 3122 3366 
z
" transform="scale(0.015625)"/>
      <path id="DejaVuSans-72" d="M 2631 2963 
Q 2534 3019 2420 3045 
Q 2306 3072 2169 3072 
Q 1681 3072 1420 2755 
Q 1159 2438 1159 1844 
L 1159 0 
L 581 0 
L 581 3500 
L 1159 3500 
L 1159 2956 
Q 1341 3275 1631 3429 
Q 1922 3584 2338 3584 
Q 2397 3584 2469 3576 
Q 2541 3569 2628 3553 
L 2631 2963 
z
" transform="scale(0.015625)"/>
      <path id="DejaVuSans-69" d="M 603 3500 
L 1178 3500 
L 1178 0 
L 603 0 
L 603 3500 
z
M 603 4863 
L 1178 4863 
L 1178 4134 
L 603 4134 
L 603 4863 
z
" transform="scale(0.015625)"/>
      <path id="DejaVuSans-20" transform="scale(0.015625)"/>
      <path id="DejaVuSans-68" d="M 3513 2113 
L 3513 0 
L 2938 0 
L 2938 2094 
Q 2938 2591 2744 2837 
Q 2550 3084 2163 3084 
Q 1697 3084 1428 2787 
Q 1159 2491 1159 1978 
L 1159 0 
L 581 0 
L 581 4863 
L 1159 4863 
L 1159 2956 
Q 1366 3272 1645 3428 
Q 1925 3584 2291 3584 
Q 2894 3584 3203 3211 
Q 3513 2838 3513 2113 
z
" transform="scale(0.015625)"/>
      <path id="DejaVuSans-6f" d="M 1959 3097 
Q 1497 3097 1228 2736 
Q 959 2375 959 1747 
Q 959 1119 1226 758 
Q 1494 397 1959 397 
Q 2419 397 2687 759 
Q 2956 1122 2956 1747 
Q 2956 2369 2687 2733 
Q 2419 3097 1959 3097 
z
M 1959 3584 
Q 2709 3584 3137 3096 
Q 3566 2609 3566 1747 
Q 3566 888 3137 398 
Q 2709 -91 1959 -91 
Q 1206 -91 779 398 
Q 353 888 353 1747 
Q 353 2609 779 3096 
Q 1206 3584 1959 3584 
z
" transform="scale(0.015625)"/>
      <path id="DejaVuSans-79" d="M 2059 -325 
Q 1816 -950 1584 -1140 
Q 1353 -1331 966 -1331 
L 506 -1331 
L 506 -850 
L 844 -850 
Q 1081 -850 1212 -737 
Q 1344 -625 1503 -206 
L 1606 56 
L 191 3500 
L 800 3500 
L 1894 763 
L 2988 3500 
L 3597 3500 
L 2059 -325 
z
" transform="scale(0.015625)"/>
     </defs>
     <use xlink:href="#DejaVuSans-67"/>
     <use xlink:href="#DejaVuSans-65" transform="translate(63.476562 0)"/>
     <use xlink:href="#DejaVuSans-74" transform="translate(125 0)"/>
     <use xlink:href="#DejaVuSans-5f" transform="translate(164.208984 0)"/>
     <use xlink:href="#DejaVuSans-73" transform="translate(214.208984 0)"/>
     <use xlink:href="#DejaVuSans-75" transform="translate(266.308594 0)"/>
     <use xlink:href="#DejaVuSans-62" transform="translate(329.6875 0)"/>
     <use xlink:href="#DejaVuSans-73" transform="translate(393.164062 0)"/>
     <use xlink:href="#DejaVuSans-63" transform="translate(445.263672 0)"/>
     <use xlink:href="#DejaVuSans-72" transform="translate(500.244141 0)"/>
     <use xlink:href="#DejaVuSans-69" transform="translate(541.357422 0)"/>
     <use xlink:href="#DejaVuSans-62" transform="translate(569.140625 0)"/>
     <use xlink:href="#DejaVuSans-65" transform="translate(632.617188 0)"/>
     <use xlink:href="#DejaVuSans-20" transform="translate(694.140625 0)"/>
     <use xlink:href="#DejaVuSans-68" transform="translate(725.927734 0)"/>
     <use xlink:href="#DejaVuSans-69" transform="translate(789.306641 0)"/>
     <use xlink:href="#DejaVuSans-73" transform="translate(817.089844 0)"/>
     <use xlink:href="#DejaVuSans-74" transform="translate(869.189453 0)"/>
     <use xlink:href="#DejaVuSans-6f" transform="translate(908.398438 0)"/>
     <use xlink:href="#DejaVuSans-72" transform="translate(969.580078 0)"/>
     <use xlink:href="#DejaVuSans-79" transform="translate(1010.693359 0)"/>
    </g>
   </g>
   <g id="legend_1">
    <g id="line2d_35">
     <path d="M 815.08 328.498438 
L 825.08 328.498438 
L 835.08 328.498438 
" style="fill: none; stroke: #1f77b4; stroke-width: 1.5; stroke-linecap: square"/>
    </g>
    <g id="text_18">
     <!-- star -->
     <g style="fill: #a9a9a9" transform="translate(843.08 331.998438) scale(0.1 -0.1)">
      <defs>
       <path id="DejaVuSans-61" d="M 2194 1759 
Q 1497 1759 1228 1600 
Q 959 1441 959 1056 
Q 959 750 1161 570 
Q 1363 391 1709 391 
Q 2188 391 2477 730 
Q 2766 1069 2766 1631 
L 2766 1759 
L 2194 1759 
z
M 3341 1997 
L 3341 0 
L 2766 0 
L 2766 531 
Q 2569 213 2275 61 
Q 1981 -91 1556 -91 
Q 1019 -91 701 211 
Q 384 513 384 1019 
Q 384 1609 779 1909 
Q 1175 2209 1959 2209 
L 2766 2209 
L 2766 2266 
Q 2766 2663 2505 2880 
Q 2244 3097 1772 3097 
Q 1472 3097 1187 3025 
Q 903 2953 641 2809 
L 641 3341 
Q 956 3463 1253 3523 
Q 1550 3584 1831 3584 
Q 2591 3584 2966 3190 
Q 3341 2797 3341 1997 
z
" transform="scale(0.015625)"/>
      </defs>
      <use xlink:href="#DejaVuSans-73"/>
      <use xlink:href="#DejaVuSans-74" transform="translate(52.099609 0)"/>
      <use xlink:href="#DejaVuSans-61" transform="translate(91.308594 0)"/>
      <use xlink:href="#DejaVuSans-72" transform="translate(152.587891 0)"/>
     </g>
    </g>
    <g id="line2d_36">
     <path d="M 815.08 343.176562 
L 825.08 343.176562 
L 835.08 343.176562 
" style="fill: none; stroke: #ff7f0e; stroke-width: 1.5; stroke-linecap: square"/>
    </g>
    <g id="text_19">
     <!-- fork -->
     <g style="fill: #a9a9a9" transform="translate(843.08 346.676562) scale(0.1 -0.1)">
      <defs>
       <path id="DejaVuSans-66" d="M 2375 4863 
L 2375 4384 
L 1825 4384 
Q 1516 4384 1395 4259 
Q 1275 4134 1275 3809 
L 1275 3500 
L 2222 3500 
L 2222 3053 
L 1275 3053 
L 1275 0 
L 697 0 
L 697 3053 
L 147 3053 
L 147 3500 
L 697 3500 
L 697 3744 
Q 697 4328 969 4595 
Q 1241 4863 1831 4863 
L 2375 4863 
z
" transform="scale(0.015625)"/>
       <path id="DejaVuSans-6b" d="M 581 4863 
L 1159 4863 
L 1159 1991 
L 2875 3500 
L 3609 3500 
L 1753 1863 
L 3688 0 
L 2938 0 
L 1159 1709 
L 1159 0 
L 581 0 
L 581 4863 
z
" transform="scale(0.015625)"/>
      </defs>
      <use xlink:href="#DejaVuSans-66"/>
      <use xlink:href="#DejaVuSans-6f" transform="translate(35.205078 0)"/>
      <use xlink:href="#DejaVuSans-72" transform="translate(96.386719 0)"/>
      <use xlink:href="#DejaVuSans-6b" transform="translate(137.5 0)"/>
     </g>
    </g>
   </g>
  </g>
 </g>
 <defs>
  <clipPath id="p76abb52009">
   <rect x="108" y="43.2" width="669.6" height="277.2"/>
  </clipPath>
 </defs>
</svg>
