<?xml version="1.0" encoding="utf-8" standalone="no"?>
<!DOCTYPE svg PUBLIC "-//W3C//DTD SVG 1.1//EN"
  "http://www.w3.org/Graphics/SVG/1.1/DTD/svg11.dtd">
<svg xmlns:xlink="http://www.w3.org/1999/xlink" width="864pt" height="360pt" viewBox="0 0 864 360" xmlns="http://www.w3.org/2000/svg" version="1.1">
 <metadata>
  <rdf:RDF xmlns:dc="http://purl.org/dc/elements/1.1/" xmlns:cc="http://creativecommons.org/ns#" xmlns:rdf="http://www.w3.org/1999/02/22-rdf-syntax-ns#">
   <cc:Work>
    <dc:type rdf:resource="http://purl.org/dc/dcmitype/StillImage"/>
    <dc:date>2025-08-07T08:17:46.809819</dc:date>
    <dc:format>image/svg+xml</dc:format>
    <dc:creator>
     <cc:Agent>
      <dc:title>Matplotlib v3.10.5, https://matplotlib.org/</dc:title>
     </cc:Agent>
    </dc:creator>
   </cc:Work>
  </rdf:RDF>
 </metadata>
 <defs>
  <style type="text/css">*{stroke-linejoin: round; stroke-linecap: butt}</style>
 </defs>
 <g id="figure_1">
  <g id="patch_1">
   <path d="M 0 360 
L 864 360 
L 864 0 
L 0 0 
L 0 360 
z
" style="fill: none; opacity: 0"/>
  </g>
  <g id="axes_1">
   <g id="patch_2">
    <path d="M 108 320.4 
L 777.6 320.4 
L 777.6 43.2 
L 108 43.2 
L 108 320.4 
z
" style="fill: none; opacity: 0"/>
   </g>
   <g id="matplotlib.axis_1">
    <g id="xtick_1">
     <g id="line2d_1">
      <path d="M 128.944345 320.4 
L 128.944345 43.2 
" clip-path="url(#pa8dd0b0cfb)" style="fill: none; stroke-dasharray: 5.12,1.28,0.8,1.28; stroke-dashoffset: 0; stroke: #b0b0b0; stroke-width: 0.8"/>
     </g>
     <g id="line2d_2">
      <defs>
       <path id="m04a33470ea" d="M 0 0 
L 0 3.5 
" style="stroke: #a9a9a9; stroke-width: 0.8"/>
      </defs>
      <g>
       <use xlink:href="#m04a33470ea" x="128.944345" y="320.4" style="fill: #a9a9a9; stroke: #a9a9a9; stroke-width: 0.8"/>
      </g>
     </g>
     <g id="text_1">
      <!-- 2021-07 -->
      <g style="fill: #a9a9a9" transform="translate(108.052939 334.998438) scale(0.1 -0.1)">
       <defs>
        <path id="DejaVuSans-32" d="M 1228 531 
L 3431 531 
L 3431 0 
L 469 0 
L 469 531 
Q 828 903 1448 1529 
Q 2069 2156 2228 2338 
Q 2531 2678 2651 2914 
Q 2772 3150 2772 3378 
Q 2772 3750 2511 3984 
Q 2250 4219 1831 4219 
Q 1534 4219 1204 4116 
Q 875 4013 500 3803 
L 500 4441 
Q 881 4594 1212 4672 
Q 1544 4750 1819 4750 
Q 2544 4750 2975 4387 
Q 3406 4025 3406 3419 
Q 3406 3131 3298 2873 
Q 3191 2616 2906 2266 
Q 2828 2175 2409 1742 
Q 1991 1309 1228 531 
z
" transform="scale(0.015625)"/>
        <path id="DejaVuSans-30" d="M 2034 4250 
Q 1547 4250 1301 3770 
Q 1056 3291 1056 2328 
Q 1056 1369 1301 889 
Q 1547 409 2034 409 
Q 2525 409 2770 889 
Q 3016 1369 3016 2328 
Q 3016 3291 2770 3770 
Q 2525 4250 2034 4250 
z
M 2034 4750 
Q 2819 4750 3233 4129 
Q 3647 3509 3647 2328 
Q 3647 1150 3233 529 
Q 2819 -91 2034 -91 
Q 1250 -91 836 529 
Q 422 1150 422 2328 
Q 422 3509 836 4129 
Q 1250 4750 2034 4750 
z
" transform="scale(0.015625)"/>
        <path id="DejaVuSans-31" d="M 794 531 
L 1825 531 
L 1825 4091 
L 703 3866 
L 703 4441 
L 1819 4666 
L 2450 4666 
L 2450 531 
L 3481 531 
L 3481 0 
L 794 0 
L 794 531 
z
" transform="scale(0.015625)"/>
        <path id="DejaVuSans-2d" d="M 313 2009 
L 1997 2009 
L 1997 1497 
L 313 1497 
L 313 2009 
z
" transform="scale(0.015625)"/>
        <path id="DejaVuSans-37" d="M 525 4666 
L 3525 4666 
L 3525 4397 
L 1831 0 
L 1172 0 
L 2766 4134 
L 525 4134 
L 525 4666 
z
" transform="scale(0.015625)"/>
       </defs>
       <use xlink:href="#DejaVuSans-32"/>
       <use xlink:href="#DejaVuSans-30" transform="translate(63.623047 0)"/>
       <use xlink:href="#DejaVuSans-32" transform="translate(127.246094 0)"/>
       <use xlink:href="#DejaVuSans-31" transform="translate(190.869141 0)"/>
       <use xlink:href="#DejaVuSans-2d" transform="translate(254.492188 0)"/>
       <use xlink:href="#DejaVuSans-30" transform="translate(290.576172 0)"/>
       <use xlink:href="#DejaVuSans-37" transform="translate(354.199219 0)"/>
      </g>
     </g>
    </g>
    <g id="xtick_2">
     <g id="line2d_3">
      <path d="M 204.880493 320.4 
L 204.880493 43.2 
" clip-path="url(#pa8dd0b0cfb)" style="fill: none; stroke-dasharray: 5.12,1.28,0.8,1.28; stroke-dashoffset: 0; stroke: #b0b0b0; stroke-width: 0.8"/>
     </g>
     <g id="line2d_4">
      <g>
       <use xlink:href="#m04a33470ea" x="204.880493" y="320.4" style="fill: #a9a9a9; stroke: #a9a9a9; stroke-width: 0.8"/>
      </g>
     </g>
     <g id="text_2">
      <!-- 2022-01 -->
      <g style="fill: #a9a9a9" transform="translate(183.989087 334.998438) scale(0.1 -0.1)">
       <use xlink:href="#DejaVuSans-32"/>
       <use xlink:href="#DejaVuSans-30" transform="translate(63.623047 0)"/>
       <use xlink:href="#DejaVuSans-32" transform="translate(127.246094 0)"/>
       <use xlink:href="#DejaVuSans-32" transform="translate(190.869141 0)"/>
       <use xlink:href="#DejaVuSans-2d" transform="translate(254.492188 0)"/>
       <use xlink:href="#DejaVuSans-30" transform="translate(290.576172 0)"/>
       <use xlink:href="#DejaVuSans-31" transform="translate(354.199219 0)"/>
      </g>
     </g>
    </g>
    <g id="xtick_3">
     <g id="line2d_5">
      <path d="M 279.578552 320.4 
L 279.578552 43.2 
" clip-path="url(#pa8dd0b0cfb)" style="fill: none; stroke-dasharray: 5.12,1.28,0.8,1.28; stroke-dashoffset: 0; stroke: #b0b0b0; stroke-width: 0.8"/>
     </g>
     <g id="line2d_6">
      <g>
       <use xlink:href="#m04a33470ea" x="279.578552" y="320.4" style="fill: #a9a9a9; stroke: #a9a9a9; stroke-width: 0.8"/>
      </g>
     </g>
     <g id="text_3">
      <!-- 2022-07 -->
      <g style="fill: #a9a9a9" transform="translate(258.687145 334.998438) scale(0.1 -0.1)">
       <use xlink:href="#DejaVuSans-32"/>
       <use xlink:href="#DejaVuSans-30" transform="translate(63.623047 0)"/>
       <use xlink:href="#DejaVuSans-32" transform="translate(127.246094 0)"/>
       <use xlink:href="#DejaVuSans-32" transform="translate(190.869141 0)"/>
       <use xlink:href="#DejaVuSans-2d" transform="translate(254.492188 0)"/>
       <use xlink:href="#DejaVuSans-30" transform="translate(290.576172 0)"/>
       <use xlink:href="#DejaVuSans-37" transform="translate(354.199219 0)"/>
      </g>
     </g>
    </g>
    <g id="xtick_4">
     <g id="line2d_7">
      <path d="M 355.5147 320.4 
L 355.5147 43.2 
" clip-path="url(#pa8dd0b0cfb)" style="fill: none; stroke-dasharray: 5.12,1.28,0.8,1.28; stroke-dashoffset: 0; stroke: #b0b0b0; stroke-width: 0.8"/>
     </g>
     <g id="line2d_8">
      <g>
       <use xlink:href="#m04a33470ea" x="355.5147" y="320.4" style="fill: #a9a9a9; stroke: #a9a9a9; stroke-width: 0.8"/>
      </g>
     </g>
     <g id="text_4">
      <!-- 2023-01 -->
      <g style="fill: #a9a9a9" transform="translate(334.623293 334.998438) scale(0.1 -0.1)">
       <defs>
        <path id="DejaVuSans-33" d="M 2597 2516 
Q 3050 2419 3304 2112 
Q 3559 1806 3559 1356 
Q 3559 666 3084 287 
Q 2609 -91 1734 -91 
Q 1441 -91 1130 -33 
Q 819 25 488 141 
L 488 750 
Q 750 597 1062 519 
Q 1375 441 1716 441 
Q 2309 441 2620 675 
Q 2931 909 2931 1356 
Q 2931 1769 2642 2001 
Q 2353 2234 1838 2234 
L 1294 2234 
L 1294 2753 
L 1863 2753 
Q 2328 2753 2575 2939 
Q 2822 3125 2822 3475 
Q 2822 3834 2567 4026 
Q 2313 4219 1838 4219 
Q 1578 4219 1281 4162 
Q 984 4106 628 3988 
L 628 4550 
Q 988 4650 1302 4700 
Q 1616 4750 1894 4750 
Q 2613 4750 3031 4423 
Q 3450 4097 3450 3541 
Q 3450 3153 3228 2886 
Q 3006 2619 2597 2516 
z
" transform="scale(0.015625)"/>
       </defs>
       <use xlink:href="#DejaVuSans-32"/>
       <use xlink:href="#DejaVuSans-30" transform="translate(63.623047 0)"/>
       <use xlink:href="#DejaVuSans-32" transform="translate(127.246094 0)"/>
       <use xlink:href="#DejaVuSans-33" transform="translate(190.869141 0)"/>
       <use xlink:href="#DejaVuSans-2d" transform="translate(254.492188 0)"/>
       <use xlink:href="#DejaVuSans-30" transform="translate(290.576172 0)"/>
       <use xlink:href="#DejaVuSans-31" transform="translate(354.199219 0)"/>
      </g>
     </g>
    </g>
    <g id="xtick_5">
     <g id="line2d_9">
      <path d="M 430.212758 320.4 
L 430.212758 43.2 
" clip-path="url(#pa8dd0b0cfb)" style="fill: none; stroke-dasharray: 5.12,1.28,0.8,1.28; stroke-dashoffset: 0; stroke: #b0b0b0; stroke-width: 0.8"/>
     </g>
     <g id="line2d_10">
      <g>
       <use xlink:href="#m04a33470ea" x="430.212758" y="320.4" style="fill: #a9a9a9; stroke: #a9a9a9; stroke-width: 0.8"/>
      </g>
     </g>
     <g id="text_5">
      <!-- 2023-07 -->
      <g style="fill: #a9a9a9" transform="translate(409.321352 334.998438) scale(0.1 -0.1)">
       <use xlink:href="#DejaVuSans-32"/>
       <use xlink:href="#DejaVuSans-30" transform="translate(63.623047 0)"/>
       <use xlink:href="#DejaVuSans-32" transform="translate(127.246094 0)"/>
       <use xlink:href="#DejaVuSans-33" transform="translate(190.869141 0)"/>
       <use xlink:href="#DejaVuSans-2d" transform="translate(254.492188 0)"/>
       <use xlink:href="#DejaVuSans-30" transform="translate(290.576172 0)"/>
       <use xlink:href="#DejaVuSans-37" transform="translate(354.199219 0)"/>
      </g>
     </g>
    </g>
    <g id="xtick_6">
     <g id="line2d_11">
      <path d="M 506.148906 320.4 
L 506.148906 43.2 
" clip-path="url(#pa8dd0b0cfb)" style="fill: none; stroke-dasharray: 5.12,1.28,0.8,1.28; stroke-dashoffset: 0; stroke: #b0b0b0; stroke-width: 0.8"/>
     </g>
     <g id="line2d_12">
      <g>
       <use xlink:href="#m04a33470ea" x="506.148906" y="320.4" style="fill: #a9a9a9; stroke: #a9a9a9; stroke-width: 0.8"/>
      </g>
     </g>
     <g id="text_6">
      <!-- 2024-01 -->
      <g style="fill: #a9a9a9" transform="translate(485.2575 334.998438) scale(0.1 -0.1)">
       <defs>
        <path id="DejaVuSans-34" d="M 2419 4116 
L 825 1625 
L 2419 1625 
L 2419 4116 
z
M 2253 4666 
L 3047 4666 
L 3047 1625 
L 3713 1625 
L 3713 1100 
L 3047 1100 
L 3047 0 
L 2419 0 
L 2419 1100 
L 313 1100 
L 313 1709 
L 2253 4666 
z
" transform="scale(0.015625)"/>
       </defs>
       <use xlink:href="#DejaVuSans-32"/>
       <use xlink:href="#DejaVuSans-30" transform="translate(63.623047 0)"/>
       <use xlink:href="#DejaVuSans-32" transform="translate(127.246094 0)"/>
       <use xlink:href="#DejaVuSans-34" transform="translate(190.869141 0)"/>
       <use xlink:href="#DejaVuSans-2d" transform="translate(254.492188 0)"/>
       <use xlink:href="#DejaVuSans-30" transform="translate(290.576172 0)"/>
       <use xlink:href="#DejaVuSans-31" transform="translate(354.199219 0)"/>
      </g>
     </g>
    </g>
    <g id="xtick_7">
     <g id="line2d_13">
      <path d="M 581.259661 320.4 
L 581.259661 43.2 
" clip-path="url(#pa8dd0b0cfb)" style="fill: none; stroke-dasharray: 5.12,1.28,0.8,1.28; stroke-dashoffset: 0; stroke: #b0b0b0; stroke-width: 0.8"/>
     </g>
     <g id="line2d_14">
      <g>
       <use xlink:href="#m04a33470ea" x="581.259661" y="320.4" style="fill: #a9a9a9; stroke: #a9a9a9; stroke-width: 0.8"/>
      </g>
     </g>
     <g id="text_7">
      <!-- 2024-07 -->
      <g style="fill: #a9a9a9" transform="translate(560.368255 334.998438) scale(0.1 -0.1)">
       <use xlink:href="#DejaVuSans-32"/>
       <use xlink:href="#DejaVuSans-30" transform="translate(63.623047 0)"/>
       <use xlink:href="#DejaVuSans-32" transform="translate(127.246094 0)"/>
       <use xlink:href="#DejaVuSans-34" transform="translate(190.869141 0)"/>
       <use xlink:href="#DejaVuSans-2d" transform="translate(254.492188 0)"/>
       <use xlink:href="#DejaVuSans-30" transform="translate(290.576172 0)"/>
       <use xlink:href="#DejaVuSans-37" transform="translate(354.199219 0)"/>
      </g>
     </g>
    </g>
    <g id="xtick_8">
     <g id="line2d_15">
      <path d="M 657.195809 320.4 
L 657.195809 43.2 
" clip-path="url(#pa8dd0b0cfb)" style="fill: none; stroke-dasharray: 5.12,1.28,0.8,1.28; stroke-dashoffset: 0; stroke: #b0b0b0; stroke-width: 0.8"/>
     </g>
     <g id="line2d_16">
      <g>
       <use xlink:href="#m04a33470ea" x="657.195809" y="320.4" style="fill: #a9a9a9; stroke: #a9a9a9; stroke-width: 0.8"/>
      </g>
     </g>
     <g id="text_8">
      <!-- 2025-01 -->
      <g style="fill: #a9a9a9" transform="translate(636.304403 334.998438) scale(0.1 -0.1)">
       <defs>
        <path id="DejaVuSans-35" d="M 691 4666 
L 3169 4666 
L 3169 4134 
L 1269 4134 
L 1269 2991 
Q 1406 3038 1543 3061 
Q 1681 3084 1819 3084 
Q 2600 3084 3056 2656 
Q 3513 2228 3513 1497 
Q 3513 744 3044 326 
Q 2575 -91 1722 -91 
Q 1428 -91 1123 -41 
Q 819 9 494 109 
L 494 744 
Q 775 591 1075 516 
Q 1375 441 1709 441 
Q 2250 441 2565 725 
Q 2881 1009 2881 1497 
Q 2881 1984 2565 2268 
Q 2250 2553 1709 2553 
Q 1456 2553 1204 2497 
Q 953 2441 691 2322 
L 691 4666 
z
" transform="scale(0.015625)"/>
       </defs>
       <use xlink:href="#DejaVuSans-32"/>
       <use xlink:href="#DejaVuSans-30" transform="translate(63.623047 0)"/>
       <use xlink:href="#DejaVuSans-32" transform="translate(127.246094 0)"/>
       <use xlink:href="#DejaVuSans-35" transform="translate(190.869141 0)"/>
       <use xlink:href="#DejaVuSans-2d" transform="translate(254.492188 0)"/>
       <use xlink:href="#DejaVuSans-30" transform="translate(290.576172 0)"/>
       <use xlink:href="#DejaVuSans-31" transform="translate(354.199219 0)"/>
      </g>
     </g>
    </g>
    <g id="xtick_9">
     <g id="line2d_17">
      <path d="M 731.893867 320.4 
L 731.893867 43.2 
" clip-path="url(#pa8dd0b0cfb)" style="fill: none; stroke-dasharray: 5.12,1.28,0.8,1.28; stroke-dashoffset: 0; stroke: #b0b0b0; stroke-width: 0.8"/>
     </g>
     <g id="line2d_18">
      <g>
       <use xlink:href="#m04a33470ea" x="731.893867" y="320.4" style="fill: #a9a9a9; stroke: #a9a9a9; stroke-width: 0.8"/>
      </g>
     </g>
     <g id="text_9">
      <!-- 2025-07 -->
      <g style="fill: #a9a9a9" transform="translate(711.002461 334.998438) scale(0.1 -0.1)">
       <use xlink:href="#DejaVuSans-32"/>
       <use xlink:href="#DejaVuSans-30" transform="translate(63.623047 0)"/>
       <use xlink:href="#DejaVuSans-32" transform="translate(127.246094 0)"/>
       <use xlink:href="#DejaVuSans-35" transform="translate(190.869141 0)"/>
       <use xlink:href="#DejaVuSans-2d" transform="translate(254.492188 0)"/>
       <use xlink:href="#DejaVuSans-30" transform="translate(290.576172 0)"/>
       <use xlink:href="#DejaVuSans-37" transform="translate(354.199219 0)"/>
      </g>
     </g>
    </g>
   </g>
   <g id="matplotlib.axis_2">
    <g id="ytick_1">
     <g id="line2d_19">
      <path d="M 108 307.831583 
L 777.6 307.831583 
" clip-path="url(#pa8dd0b0cfb)" style="fill: none; stroke-dasharray: 5.12,1.28,0.8,1.28; stroke-dashoffset: 0; stroke: #b0b0b0; stroke-width: 0.8"/>
     </g>
     <g id="line2d_20">
      <defs>
       <path id="mdf9aecbb17" d="M 0 0 
L -3.5 0 
" style="stroke: #a9a9a9; stroke-width: 0.8"/>
      </defs>
      <g>
       <use xlink:href="#mdf9aecbb17" x="108" y="307.831583" style="fill: #a9a9a9; stroke: #a9a9a9; stroke-width: 0.8"/>
      </g>
     </g>
     <g id="text_10">
      <!-- 0 -->
      <g style="fill: #a9a9a9" transform="translate(94.6375 311.630802) scale(0.1 -0.1)">
       <use xlink:href="#DejaVuSans-30"/>
      </g>
     </g>
    </g>
    <g id="ytick_2">
     <g id="line2d_21">
      <path d="M 108 276.248678 
L 777.6 276.248678 
" clip-path="url(#pa8dd0b0cfb)" style="fill: none; stroke-dasharray: 5.12,1.28,0.8,1.28; stroke-dashoffset: 0; stroke: #b0b0b0; stroke-width: 0.8"/>
     </g>
     <g id="line2d_22">
      <g>
       <use xlink:href="#mdf9aecbb17" x="108" y="276.248678" style="fill: #a9a9a9; stroke: #a9a9a9; stroke-width: 0.8"/>
      </g>
     </g>
     <g id="text_11">
      <!-- 1000 -->
      <g style="fill: #a9a9a9" transform="translate(75.55 280.047897) scale(0.1 -0.1)">
       <use xlink:href="#DejaVuSans-31"/>
       <use xlink:href="#DejaVuSans-30" transform="translate(63.623047 0)"/>
       <use xlink:href="#DejaVuSans-30" transform="translate(127.246094 0)"/>
       <use xlink:href="#DejaVuSans-30" transform="translate(190.869141 0)"/>
      </g>
     </g>
    </g>
    <g id="ytick_3">
     <g id="line2d_23">
      <path d="M 108 244.665773 
L 777.6 244.665773 
" clip-path="url(#pa8dd0b0cfb)" style="fill: none; stroke-dasharray: 5.12,1.28,0.8,1.28; stroke-dashoffset: 0; stroke: #b0b0b0; stroke-width: 0.8"/>
     </g>
     <g id="line2d_24">
      <g>
       <use xlink:href="#mdf9aecbb17" x="108" y="244.665773" style="fill: #a9a9a9; stroke: #a9a9a9; stroke-width: 0.8"/>
      </g>
     </g>
     <g id="text_12">
      <!-- 2000 -->
      <g style="fill: #a9a9a9" transform="translate(75.55 248.464991) scale(0.1 -0.1)">
       <use xlink:href="#DejaVuSans-32"/>
       <use xlink:href="#DejaVuSans-30" transform="translate(63.623047 0)"/>
       <use xlink:href="#DejaVuSans-30" transform="translate(127.246094 0)"/>
       <use xlink:href="#DejaVuSans-30" transform="translate(190.869141 0)"/>
      </g>
     </g>
    </g>
    <g id="ytick_4">
     <g id="line2d_25">
      <path d="M 108 213.082868 
L 777.6 213.082868 
" clip-path="url(#pa8dd0b0cfb)" style="fill: none; stroke-dasharray: 5.12,1.28,0.8,1.28; stroke-dashoffset: 0; stroke: #b0b0b0; stroke-width: 0.8"/>
     </g>
     <g id="line2d_26">
      <g>
       <use xlink:href="#mdf9aecbb17" x="108" y="213.082868" style="fill: #a9a9a9; stroke: #a9a9a9; stroke-width: 0.8"/>
      </g>
     </g>
     <g id="text_13">
      <!-- 3000 -->
      <g style="fill: #a9a9a9" transform="translate(75.55 216.882086) scale(0.1 -0.1)">
       <use xlink:href="#DejaVuSans-33"/>
       <use xlink:href="#DejaVuSans-30" transform="translate(63.623047 0)"/>
       <use xlink:href="#DejaVuSans-30" transform="translate(127.246094 0)"/>
       <use xlink:href="#DejaVuSans-30" transform="translate(190.869141 0)"/>
      </g>
     </g>
    </g>
    <g id="ytick_5">
     <g id="line2d_27">
      <path d="M 108 181.499962 
L 777.6 181.499962 
" clip-path="url(#pa8dd0b0cfb)" style="fill: none; stroke-dasharray: 5.12,1.28,0.8,1.28; stroke-dashoffset: 0; stroke: #b0b0b0; stroke-width: 0.8"/>
     </g>
     <g id="line2d_28">
      <g>
       <use xlink:href="#mdf9aecbb17" x="108" y="181.499962" style="fill: #a9a9a9; stroke: #a9a9a9; stroke-width: 0.8"/>
      </g>
     </g>
     <g id="text_14">
      <!-- 4000 -->
      <g style="fill: #a9a9a9" transform="translate(75.55 185.299181) scale(0.1 -0.1)">
       <use xlink:href="#DejaVuSans-34"/>
       <use xlink:href="#DejaVuSans-30" transform="translate(63.623047 0)"/>
       <use xlink:href="#DejaVuSans-30" transform="translate(127.246094 0)"/>
       <use xlink:href="#DejaVuSans-30" transform="translate(190.869141 0)"/>
      </g>
     </g>
    </g>
    <g id="ytick_6">
     <g id="line2d_29">
      <path d="M 108 149.917057 
L 777.6 149.917057 
" clip-path="url(#pa8dd0b0cfb)" style="fill: none; stroke-dasharray: 5.12,1.28,0.8,1.28; stroke-dashoffset: 0; stroke: #b0b0b0; stroke-width: 0.8"/>
     </g>
     <g id="line2d_30">
      <g>
       <use xlink:href="#mdf9aecbb17" x="108" y="149.917057" style="fill: #a9a9a9; stroke: #a9a9a9; stroke-width: 0.8"/>
      </g>
     </g>
     <g id="text_15">
      <!-- 5000 -->
      <g style="fill: #a9a9a9" transform="translate(75.55 153.716276) scale(0.1 -0.1)">
       <use xlink:href="#DejaVuSans-35"/>
       <use xlink:href="#DejaVuSans-30" transform="translate(63.623047 0)"/>
       <use xlink:href="#DejaVuSans-30" transform="translate(127.246094 0)"/>
       <use xlink:href="#DejaVuSans-30" transform="translate(190.869141 0)"/>
      </g>
     </g>
    </g>
    <g id="ytick_7">
     <g id="line2d_31">
      <path d="M 108 118.334152 
L 777.6 118.334152 
" clip-path="url(#pa8dd0b0cfb)" style="fill: none; stroke-dasharray: 5.12,1.28,0.8,1.28; stroke-dashoffset: 0; stroke: #b0b0b0; stroke-width: 0.8"/>
     </g>
     <g id="line2d_32">
      <g>
       <use xlink:href="#mdf9aecbb17" x="108" y="118.334152" style="fill: #a9a9a9; stroke: #a9a9a9; stroke-width: 0.8"/>
      </g>
     </g>
     <g id="text_16">
      <!-- 6000 -->
      <g style="fill: #a9a9a9" transform="translate(75.55 122.133371) scale(0.1 -0.1)">
       <defs>
        <path id="DejaVuSans-36" d="M 2113 2584 
Q 1688 2584 1439 2293 
Q 1191 2003 1191 1497 
Q 1191 994 1439 701 
Q 1688 409 2113 409 
Q 2538 409 2786 701 
Q 3034 994 3034 1497 
Q 3034 2003 2786 2293 
Q 2538 2584 2113 2584 
z
M 3366 4563 
L 3366 3988 
Q 3128 4100 2886 4159 
Q 2644 4219 2406 4219 
Q 1781 4219 1451 3797 
Q 1122 3375 1075 2522 
Q 1259 2794 1537 2939 
Q 1816 3084 2150 3084 
Q 2853 3084 3261 2657 
Q 3669 2231 3669 1497 
Q 3669 778 3244 343 
Q 2819 -91 2113 -91 
Q 1303 -91 875 529 
Q 447 1150 447 2328 
Q 447 3434 972 4092 
Q 1497 4750 2381 4750 
Q 2619 4750 2861 4703 
Q 3103 4656 3366 4563 
z
" transform="scale(0.015625)"/>
       </defs>
       <use xlink:href="#DejaVuSans-36"/>
       <use xlink:href="#DejaVuSans-30" transform="translate(63.623047 0)"/>
       <use xlink:href="#DejaVuSans-30" transform="translate(127.246094 0)"/>
       <use xlink:href="#DejaVuSans-30" transform="translate(190.869141 0)"/>
      </g>
     </g>
    </g>
    <g id="ytick_8">
     <g id="line2d_33">
      <path d="M 108 86.751247 
L 777.6 86.751247 
" clip-path="url(#pa8dd0b0cfb)" style="fill: none; stroke-dasharray: 5.12,1.28,0.8,1.28; stroke-dashoffset: 0; stroke: #b0b0b0; stroke-width: 0.8"/>
     </g>
     <g id="line2d_34">
      <g>
       <use xlink:href="#mdf9aecbb17" x="108" y="86.751247" style="fill: #a9a9a9; stroke: #a9a9a9; stroke-width: 0.8"/>
      </g>
     </g>
     <g id="text_17">
      <!-- 7000 -->
      <g style="fill: #a9a9a9" transform="translate(75.55 90.550466) scale(0.1 -0.1)">
       <use xlink:href="#DejaVuSans-37"/>
       <use xlink:href="#DejaVuSans-30" transform="translate(63.623047 0)"/>
       <use xlink:href="#DejaVuSans-30" transform="translate(127.246094 0)"/>
       <use xlink:href="#DejaVuSans-30" transform="translate(190.869141 0)"/>
      </g>
     </g>
    </g>
    <g id="ytick_9">
     <g id="line2d_35">
      <path d="M 108 55.168342 
L 777.6 55.168342 
" clip-path="url(#pa8dd0b0cfb)" style="fill: none; stroke-dasharray: 5.12,1.28,0.8,1.28; stroke-dashoffset: 0; stroke: #b0b0b0; stroke-width: 0.8"/>
     </g>
     <g id="line2d_36">
      <g>
       <use xlink:href="#mdf9aecbb17" x="108" y="55.168342" style="fill: #a9a9a9; stroke: #a9a9a9; stroke-width: 0.8"/>
      </g>
     </g>
     <g id="text_18">
      <!-- 8000 -->
      <g style="fill: #a9a9a9" transform="translate(75.55 58.967561) scale(0.1 -0.1)">
       <defs>
        <path id="DejaVuSans-38" d="M 2034 2216 
Q 1584 2216 1326 1975 
Q 1069 1734 1069 1313 
Q 1069 891 1326 650 
Q 1584 409 2034 409 
Q 2484 409 2743 651 
Q 3003 894 3003 1313 
Q 3003 1734 2745 1975 
Q 2488 2216 2034 2216 
z
M 1403 2484 
Q 997 2584 770 2862 
Q 544 3141 544 3541 
Q 544 4100 942 4425 
Q 1341 4750 2034 4750 
Q 2731 4750 3128 4425 
Q 3525 4100 3525 3541 
Q 3525 3141 3298 2862 
Q 3072 2584 2669 2484 
Q 3125 2378 3379 2068 
Q 3634 1759 3634 1313 
Q 3634 634 3220 271 
Q 2806 -91 2034 -91 
Q 1263 -91 848 271 
Q 434 634 434 1313 
Q 434 1759 690 2068 
Q 947 2378 1403 2484 
z
M 1172 3481 
Q 1172 3119 1398 2916 
Q 1625 2713 2034 2713 
Q 2441 2713 2670 2916 
Q 2900 3119 2900 3481 
Q 2900 3844 2670 4047 
Q 2441 4250 2034 4250 
Q 1625 4250 1398 4047 
Q 1172 3844 1172 3481 
z
" transform="scale(0.015625)"/>
       </defs>
       <use xlink:href="#DejaVuSans-38"/>
       <use xlink:href="#DejaVuSans-30" transform="translate(63.623047 0)"/>
       <use xlink:href="#DejaVuSans-30" transform="translate(127.246094 0)"/>
       <use xlink:href="#DejaVuSans-30" transform="translate(190.869141 0)"/>
      </g>
     </g>
    </g>
   </g>
   <g id="line2d_37">
    <path d="M 138.436364 307.736834 
L 140.912542 307.515754 
L 141.325239 307.326256 
L 142.976025 307.105176 
L 144.62681 306.757764 
L 145.452203 306.631433 
L 147.515686 306.441935 
L 148.341079 306.094523 
L 148.753775 305.526031 
L 149.166471 305.241785 
L 149.579168 304.294298 
L 149.991864 304.231132 
L 150.404561 303.88372 
L 151.229954 303.441559 
L 152.88074 302.051911 
L 154.531525 301.199173 
L 155.769615 300.599098 
L 156.182311 299.904274 
L 157.007704 299.272616 
L 157.420401 299.083118 
L 161.547365 298.45146 
L 161.960062 298.261963 
L 164.848937 298.009299 
L 166.499723 297.598722 
L 169.801294 297.124978 
L 170.213991 296.903898 
L 170.626687 296.840732 
L 171.45208 296.556486 
L 174.340955 296.051159 
L 175.166348 295.798496 
L 178.880616 295.166838 
L 179.706009 294.977341 
L 180.531402 294.945758 
L 182.182188 294.53518 
L 182.594884 293.935105 
L 183.832974 293.429778 
L 185.071063 293.082366 
L 185.48376 292.861286 
L 186.309153 292.703371 
L 187.959938 292.198045 
L 188.785331 292.134879 
L 189.610724 291.913799 
L 191.26151 291.471638 
L 191.674206 291.440055 
L 192.499599 291.029477 
L 192.912296 290.966312 
L 193.324992 290.745231 
L 197.864653 289.955659 
L 199.515439 289.450332 
L 199.928136 289.166086 
L 201.991618 288.471262 
L 202.817011 287.871187 
L 204.0551 287.618524 
L 209.420154 286.039378 
L 209.832851 285.976213 
L 211.483636 285.312972 
L 211.896333 285.249806 
L 212.721726 284.902394 
L 213.547119 284.870811 
L 214.785208 284.491816 
L 215.197904 284.491816 
L 215.610601 284.302319 
L 216.435994 284.20757 
L 216.84869 284.049655 
L 218.499476 283.98649 
L 219.324869 283.828575 
L 220.150262 283.386414 
L 221.388351 282.912671 
L 222.213744 282.47051 
L 223.039137 282.028349 
L 223.86453 281.744103 
L 224.277227 281.617772 
L 225.102619 281.080862 
L 225.515316 280.607119 
L 226.340709 279.280637 
L 226.753405 279.154305 
L 227.166102 279.154305 
L 228.816888 278.206818 
L 229.229584 278.112069 
L 229.64228 277.701491 
L 230.467673 277.354079 
L 231.293066 276.975085 
L 231.705763 276.469758 
L 232.118459 275.774934 
L 232.531156 275.490688 
L 232.943852 274.732698 
L 233.356549 274.258955 
L 235.832727 272.869307 
L 237.483513 271.353327 
L 237.89621 270.374257 
L 238.308906 269.742599 
L 238.721602 269.395187 
L 239.134299 269.20569 
L 242.435871 266.078982 
L 243.261263 265.28941 
L 245.737442 263.678682 
L 246.150139 263.520767 
L 247.800924 262.510114 
L 248.213621 262.320617 
L 250.277103 260.362477 
L 251.102496 260.015065 
L 251.927889 259.414989 
L 252.340586 259.162326 
L 252.753282 259.09916 
L 253.991371 258.372753 
L 254.404068 257.89901 
L 256.46755 256.730442 
L 256.880247 256.572528 
L 258.118336 255.688207 
L 264.308783 253.414237 
L 265.134176 252.624665 
L 266.372265 251.993007 
L 267.197658 251.456097 
L 268.023051 251.203434 
L 268.435747 250.919188 
L 268.848444 250.792856 
L 270.086533 249.940118 
L 272.150015 249.466374 
L 273.388105 248.708385 
L 274.626194 248.424138 
L 275.038891 248.32939 
L 276.27698 247.381902 
L 277.927766 246.908159 
L 278.340462 246.560747 
L 280.816641 245.676426 
L 281.642034 245.518511 
L 282.467427 245.171099 
L 285.356302 244.065697 
L 286.181695 243.970949 
L 287.419784 243.528788 
L 289.483267 242.486552 
L 291.959445 241.065321 
L 292.784838 240.844241 
L 294.022928 240.212583 
L 294.84832 240.054669 
L 295.673713 239.549342 
L 296.499106 239.328262 
L 297.737196 238.822935 
L 299.387982 238.601855 
L 300.213374 238.159694 
L 300.626071 237.780699 
L 301.038767 237.02271 
L 302.689553 236.548966 
L 303.927643 235.885725 
L 304.753035 235.601479 
L 305.991125 234.969821 
L 308.054607 234.117082 
L 308.88 233.927585 
L 310.118089 233.295927 
L 310.530786 233.232761 
L 312.594268 232.190525 
L 313.419661 231.653616 
L 314.65775 231.400953 
L 316.721233 230.864043 
L 317.133929 230.516631 
L 317.959322 230.232385 
L 320.022804 229.379647 
L 320.435501 229.063818 
L 320.848197 228.905903 
L 321.67359 228.432159 
L 323.324376 227.89525 
L 324.149769 227.358341 
L 324.562465 226.91618 
L 324.975162 226.663517 
L 325.387858 226.568768 
L 326.213251 225.873944 
L 326.625948 225.810778 
L 327.038644 225.115954 
L 327.451341 224.926457 
L 327.864037 224.579045 
L 328.276733 224.515879 
L 329.102126 223.97897 
L 329.927519 223.694724 
L 330.340216 223.378895 
L 330.752912 223.22098 
L 332.403698 222.083995 
L 333.641787 221.452337 
L 334.46718 221.231257 
L 335.292573 220.757513 
L 335.70527 220.031107 
L 336.530663 219.399449 
L 336.943359 219.3047 
L 339.419538 218.072967 
L 340.244931 217.725555 
L 341.070324 217.125479 
L 342.308413 215.956912 
L 343.133806 215.451585 
L 343.546502 214.977842 
L 345.197288 213.809274 
L 346.022681 212.956536 
L 346.848074 212.67229 
L 347.673467 212.103797 
L 348.911556 211.440556 
L 349.324253 211.377391 
L 350.562342 210.682567 
L 351.387735 210.145657 
L 355.5147 208.566512 
L 355.927396 208.2191 
L 357.578182 207.555859 
L 357.990878 207.429528 
L 358.816271 206.892618 
L 359.641664 206.545206 
L 360.467057 205.945131 
L 361.29245 204.239654 
L 362.117843 203.229001 
L 363.355932 202.56576 
L 364.181325 202.218348 
L 364.594022 202.155182 
L 365.419414 201.776187 
L 367.0702 201.207695 
L 367.895593 200.733952 
L 368.720986 200.323374 
L 369.133683 200.197042 
L 371.609861 198.681063 
L 372.022558 198.207319 
L 373.260647 197.480912 
L 373.673344 197.322998 
L 374.498737 196.817671 
L 376.149522 195.901767 
L 376.562219 195.807018 
L 376.974915 195.459606 
L 379.86379 194.480536 
L 380.276487 194.164707 
L 381.10188 193.912044 
L 381.927273 193.564632 
L 382.339969 193.21722 
L 383.990755 192.617145 
L 384.816148 192.01707 
L 385.641541 191.669658 
L 386.466934 191.006417 
L 387.292327 190.753754 
L 387.705023 190.374759 
L 388.11772 190.311593 
L 388.943112 189.648352 
L 391.006595 188.416619 
L 391.831988 188.163955 
L 392.244684 187.911292 
L 392.657381 187.848126 
L 393.89547 187.153302 
L 400.085917 185.195162 
L 401.324006 184.279258 
L 401.736703 184.121344 
L 402.562096 183.6476 
L 402.974792 183.521268 
L 405.450971 182.100038 
L 405.863667 182.005289 
L 407.101757 181.247299 
L 408.339846 180.805138 
L 409.165239 180.520892 
L 410.816025 179.9524 
L 411.641418 179.668154 
L 413.292203 179.320742 
L 413.7049 179.131245 
L 414.530293 178.910164 
L 414.942989 178.720667 
L 415.355686 178.657501 
L 415.768382 178.436421 
L 416.593775 178.278506 
L 417.831864 177.804763 
L 419.069954 177.615265 
L 421.546133 177.141521 
L 422.784222 176.857275 
L 423.196918 176.667778 
L 424.022311 176.509863 
L 424.847704 176.288783 
L 425.673097 175.909788 
L 426.085794 175.751874 
L 426.49849 175.751874 
L 431.038151 174.330643 
L 431.450847 174.109563 
L 431.863544 174.109563 
L 432.688937 173.793734 
L 433.101633 173.351573 
L 435.577812 172.309337 
L 437.228598 171.740845 
L 437.641294 171.488181 
L 438.879384 171.109187 
L 439.704777 170.888106 
L 440.117473 170.60386 
L 440.530169 170.509111 
L 440.942866 170.130117 
L 442.180955 169.877453 
L 443.006348 169.498458 
L 443.419045 168.993132 
L 447.958706 167.982479 
L 448.371402 167.982479 
L 448.784099 167.792982 
L 450.434884 167.477153 
L 450.847581 167.287655 
L 452.498367 166.971826 
L 453.32376 166.624414 
L 454.149153 166.4665 
L 456.212635 165.92959 
L 457.863421 165.392681 
L 458.276117 165.297932 
L 458.688814 165.076852 
L 459.514206 164.855771 
L 460.339599 164.508359 
L 461.164992 164.19253 
L 461.577689 163.908284 
L 462.403082 163.655621 
L 465.291957 162.550219 
L 466.942743 162.360722 
L 470.244314 161.128989 
L 470.657011 160.81316 
L 471.069707 160.718411 
L 471.482404 160.49733 
L 471.8951 160.465748 
L 476.434761 158.791854 
L 478.498243 158.223361 
L 479.323636 157.812784 
L 480.561726 157.528537 
L 482.212512 156.13889 
L 483.863297 155.412483 
L 484.68869 155.033488 
L 487.164869 154.054418 
L 487.577565 153.770172 
L 489.641048 153.075348 
L 493.768012 150.959293 
L 494.593405 150.580298 
L 495.006102 150.264469 
L 495.831495 149.980223 
L 497.894977 148.906404 
L 499.133066 148.464244 
L 500.371156 147.9905 
L 502.434638 147.200927 
L 503.260031 147.074596 
L 503.672727 146.79035 
L 505.323513 146.474521 
L 506.148906 146.127109 
L 507.799692 145.337536 
L 513.577442 142.747738 
L 514.815532 142.33716 
L 515.228228 142.052914 
L 516.053621 141.958165 
L 516.466317 141.673919 
L 517.29171 141.547587 
L 518.117103 141.13701 
L 518.5298 140.947512 
L 519.355193 140.726432 
L 520.180586 140.473769 
L 521.418675 140.000025 
L 522.656764 139.589447 
L 523.894854 139.305201 
L 525.545639 138.610377 
L 526.371032 138.168217 
L 528.021818 137.315478 
L 528.847211 137.125981 
L 529.259908 136.873317 
L 529.672604 136.778569 
L 530.910693 136.052162 
L 531.736086 135.70475 
L 537.10114 133.683444 
L 537.513837 133.620278 
L 539.164622 132.830706 
L 539.990015 132.672791 
L 540.815408 132.199047 
L 542.466194 131.409475 
L 546.593159 129.767164 
L 547.418552 129.356586 
L 547.831248 129.261837 
L 548.243945 129.040757 
L 549.89473 128.567013 
L 551.545516 127.177366 
L 551.958213 127.051034 
L 552.370909 126.798371 
L 553.608998 126.450959 
L 554.021695 126.13513 
L 554.434391 126.040381 
L 555.672481 125.282391 
L 556.085177 124.998145 
L 557.323267 124.524402 
L 557.735963 124.303321 
L 558.974052 124.019075 
L 561.037535 123.292668 
L 561.862928 123.040005 
L 563.101017 122.376764 
L 563.92641 121.966186 
L 564.751803 121.745106 
L 565.989892 121.145031 
L 570.116857 119.471137 
L 572.180339 118.460484 
L 573.005732 118.144655 
L 573.418428 117.76566 
L 574.243821 117.418248 
L 575.481911 116.976087 
L 575.894607 116.628675 
L 576.307304 116.597092 
L 577.132696 116.344429 
L 577.958089 116.060183 
L 578.370786 115.870686 
L 578.783482 115.80752 
L 579.608875 115.460108 
L 580.846965 115.175862 
L 581.672357 114.702118 
L 582.085054 114.544204 
L 582.49775 114.228374 
L 583.73584 113.912545 
L 584.148536 113.659882 
L 584.973929 113.438802 
L 586.212018 112.743978 
L 586.624715 112.712395 
L 587.862804 112.301817 
L 588.688197 112.238651 
L 589.100894 112.017571 
L 589.926287 111.796491 
L 590.338983 111.57541 
L 592.402465 111.164833 
L 593.227858 111.006918 
L 594.465948 110.533175 
L 595.704037 110.248928 
L 596.942126 109.585687 
L 597.354823 109.206693 
L 598.592912 108.448703 
L 599.005609 108.132874 
L 600.243698 107.722296 
L 601.069091 107.501216 
L 603.54527 106.364231 
L 603.957966 106.301065 
L 604.783359 105.890488 
L 606.434145 105.448327 
L 607.259538 105.069332 
L 607.672234 104.848252 
L 608.497627 104.595588 
L 608.910324 104.374508 
L 609.735716 104.216594 
L 613.037288 102.76378 
L 613.449985 102.700614 
L 614.688074 101.879459 
L 615.10077 101.816293 
L 616.751556 101.153052 
L 618.402342 100.742474 
L 618.815039 100.679308 
L 619.227735 100.489811 
L 619.640431 100.458228 
L 620.465824 100.173982 
L 620.878521 100.142399 
L 622.11661 99.668655 
L 623.767396 99.194912 
L 624.592789 98.563254 
L 626.243575 97.647349 
L 626.656271 97.552601 
L 627.068968 97.33152 
L 627.894361 97.047274 
L 628.307057 96.920942 
L 628.719753 96.573531 
L 629.957843 96.099787 
L 630.783236 95.626043 
L 631.195932 95.404963 
L 631.608629 95.025968 
L 633.672111 94.520642 
L 634.9102 93.952149 
L 635.735593 93.731069 
L 636.14829 93.509989 
L 636.560986 93.162577 
L 638.211772 92.720416 
L 638.624468 92.404587 
L 643.989522 90.446447 
L 644.814915 90.288532 
L 646.878398 89.625291 
L 647.70379 89.277879 
L 648.529183 88.96205 
L 649.354576 88.74097 
L 649.767273 88.551473 
L 650.179969 88.551473 
L 651.005362 88.204061 
L 651.830755 87.730317 
L 654.71963 86.751247 
L 656.370416 86.182755 
L 657.608505 85.898509 
L 658.846595 85.487931 
L 659.259291 85.393182 
L 659.671988 85.108936 
L 660.497381 84.919439 
L 662.148166 84.445695 
L 662.560863 84.414112 
L 663.386256 84.035117 
L 666.275131 83.30871 
L 667.925917 82.708635 
L 668.338613 82.708635 
L 669.576703 82.424389 
L 670.402096 82.266474 
L 671.227488 82.045394 
L 672.465578 81.382153 
L 673.703667 81.003158 
L 676.592542 80.024088 
L 677.005239 79.803008 
L 677.417935 79.708259 
L 678.656025 79.076601 
L 679.481418 78.918687 
L 680.30681 78.666023 
L 681.132203 78.255446 
L 681.5449 77.908034 
L 682.370293 77.65537 
L 682.782989 77.402707 
L 683.608382 77.307958 
L 686.497257 76.486803 
L 687.735347 76.23414 
L 688.973436 75.918311 
L 689.798829 75.728813 
L 691.036918 75.097155 
L 692.687704 74.465497 
L 693.513097 74.023336 
L 693.925794 73.991753 
L 694.751186 73.581176 
L 697.640062 72.76002 
L 698.878151 72.570523 
L 699.703544 72.317859 
L 700.941633 71.938865 
L 704.655901 70.896629 
L 705.481294 70.675548 
L 705.893991 70.5808 
L 706.306687 70.328136 
L 707.13208 70.170222 
L 707.957473 70.075473 
L 708.370169 69.854393 
L 708.782866 69.82281 
L 709.608259 69.2859 
L 711.259045 68.938489 
L 712.084438 68.591077 
L 712.909831 68.30683 
L 713.735223 68.08575 
L 714.560616 67.738338 
L 715.386009 67.454092 
L 717.036795 66.980348 
L 717.862188 66.917183 
L 718.687581 66.632936 
L 719.100277 66.475022 
L 719.92567 66.34869 
L 721.576456 65.622283 
L 721.989153 65.559118 
L 722.401849 65.338037 
L 723.227242 65.180123 
L 724.052635 65.116957 
L 726.528814 64.485299 
L 727.354206 64.137887 
L 727.766903 64.074721 
L 728.179599 63.853641 
L 729.004992 63.158817 
L 733.131957 61.642837 
L 733.95735 61.390174 
L 734.782743 61.169094 
L 735.608136 60.948014 
L 736.020832 60.632184 
L 737.258921 60.095275 
L 738.084314 59.653114 
L 738.497011 59.558366 
L 738.909707 59.242537 
L 740.147797 58.895125 
L 740.560493 58.674044 
L 741.385886 58.389798 
L 742.211279 58.042386 
L 743.862065 56.968567 
L 744.274761 56.873819 
L 745.512851 56.242161 
L 746.338243 55.926332 
L 746.75094 55.8 
L 747.163636 55.8 
L 747.163636 55.8 
" clip-path="url(#pa8dd0b0cfb)" style="fill: none; stroke: #1f77b4; stroke-width: 1.5; stroke-linecap: square"/>
   </g>
   <g id="line2d_38">
    <path d="M 138.84906 307.8 
L 142.563328 307.705251 
L 145.8649 307.547337 
L 147.515686 307.547337 
L 147.928382 307.421005 
L 149.991864 307.326256 
L 152.468043 307.04201 
L 154.944222 306.947262 
L 155.769615 306.852513 
L 158.65849 306.726181 
L 161.547365 306.631433 
L 163.610847 306.568267 
L 168.975901 306.473518 
L 171.039384 306.410352 
L 174.753652 306.315603 
L 176.404438 306.284021 
L 180.531402 306.189272 
L 182.182188 306.031357 
L 183.832974 305.999774 
L 186.309153 305.905026 
L 187.959938 305.873443 
L 190.023421 305.810277 
L 191.674206 305.652362 
L 195.388475 305.557614 
L 196.213867 305.494448 
L 197.864653 305.399699 
L 200.340832 305.30495 
L 201.991618 305.210202 
L 209.420154 304.736458 
L 212.309029 304.641709 
L 213.547119 304.515378 
L 215.610601 304.420629 
L 219.737565 304.199549 
L 223.86453 304.136383 
L 225.515316 303.946886 
L 227.578798 303.852137 
L 231.705763 303.441559 
L 234.181941 303.12573 
L 235.832727 303.062564 
L 239.134299 302.620404 
L 241.610478 302.557238 
L 242.848567 302.430906 
L 244.086656 302.336157 
L 255.642157 301.420253 
L 256.46755 301.262339 
L 258.943729 301.16759 
L 265.546872 300.757012 
L 268.435747 300.662263 
L 270.086533 300.472766 
L 272.150015 300.378017 
L 274.626194 300.283269 
L 276.689676 300.18852 
L 278.340462 300.156937 
L 280.403945 300.093771 
L 281.229337 299.96744 
L 287.007088 299.872691 
L 287.832481 299.777942 
L 292.784838 299.683193 
L 296.499106 299.493696 
L 299.387982 299.398947 
L 301.038767 299.20945 
L 303.927643 299.114701 
L 304.753035 298.988369 
L 306.816518 298.925204 
L 310.943482 298.862038 
L 312.594268 298.704123 
L 314.245054 298.67254 
L 315.483143 298.577792 
L 317.133929 298.419877 
L 321.260894 298.198797 
L 325.387858 298.104048 
L 329.102126 297.914551 
L 330.340216 297.882968 
L 331.165609 297.756636 
L 333.229091 297.661887 
L 334.054484 297.598722 
L 334.879877 297.535556 
L 335.70527 297.47239 
L 339.832234 297.377641 
L 348.911556 296.777566 
L 349.736949 296.7144 
L 350.975039 296.619652 
L 353.863914 296.524903 
L 355.927396 296.461737 
L 361.705146 296.366988 
L 362.530539 296.240657 
L 368.30829 296.145908 
L 372.435254 295.924828 
L 373.260647 295.893245 
L 374.08604 295.798496 
L 376.149522 295.703747 
L 378.213005 295.640582 
L 380.276487 295.545833 
L 382.339969 295.482667 
L 386.054237 295.387918 
L 388.530416 295.29317 
L 394.308166 295.198421 
L 398.847827 294.945758 
L 400.498613 294.882592 
L 401.736703 294.787843 
L 407.514453 294.693094 
L 409.990632 294.598346 
L 417.419168 294.503597 
L 419.069954 294.472014 
L 424.022311 294.408848 
L 424.847704 294.345682 
L 430.625455 294.250934 
L 432.27624 294.219351 
L 443.006348 294.124602 
L 445.482527 294.029853 
L 462.815778 293.935105 
L 464.87926 293.871939 
L 475.609368 293.808773 
L 476.434761 293.745607 
L 478.498243 293.682441 
L 479.736333 293.55611 
L 482.212512 293.461361 
L 485.101387 293.335029 
L 488.815655 293.240281 
L 490.879137 293.177115 
L 493.768012 293.082366 
L 497.069584 292.924452 
L 499.133066 292.829703 
L 500.783852 292.79812 
L 507.799692 292.703371 
L 510.275871 292.608623 
L 514.815532 292.513874 
L 517.704407 292.387542 
L 520.593282 292.324376 
L 521.418675 292.261211 
L 531.32339 292.166462 
L 535.450354 291.945382 
L 538.33923 291.850633 
L 542.878891 291.59797 
L 545.767766 291.503221 
L 547.418552 291.471638 
L 550.307427 291.376889 
L 552.370909 291.155809 
L 556.497874 291.06106 
L 557.323267 290.966312 
L 561.450231 290.871563 
L 563.513713 290.808397 
L 568.053374 290.776814 
L 568.878767 290.682065 
L 573.418428 290.587317 
L 574.243821 290.524151 
L 583.323143 290.429402 
L 585.799322 290.334653 
L 591.989769 290.239905 
L 593.640555 290.208322 
L 597.354823 290.145156 
L 598.180216 290.050407 
L 603.54527 289.955659 
L 605.608752 289.892493 
L 613.037288 289.797744 
L 614.275378 289.702995 
L 615.513467 289.608247 
L 616.751556 289.513498 
L 622.942003 289.418749 
L 625.418182 289.324001 
L 636.560986 289.229252 
L 640.275254 289.039754 
L 645.227612 288.976589 
L 646.053005 288.913423 
L 652.243451 288.850257 
L 653.068844 288.787091 
L 657.608505 288.692342 
L 659.259291 288.660759 
L 666.275131 288.566011 
L 667.100524 288.502845 
L 674.52906 288.408096 
L 676.179846 288.376513 
L 679.894114 288.281765 
L 683.195686 288.12385 
L 687.735347 288.029101 
L 690.624222 287.90277 
L 694.33849 287.808021 
L 695.163883 287.744855 
L 703.417812 287.650107 
L 705.481294 287.586941 
L 707.957473 287.492192 
L 710.433652 287.397443 
L 722.814545 287.302695 
L 725.703421 287.176363 
L 730.655778 287.081614 
L 732.306564 287.050031 
L 738.909707 286.955283 
L 740.147797 286.860534 
L 743.449368 286.765785 
L 747.163636 286.576288 
L 747.163636 286.576288 
" clip-path="url(#pa8dd0b0cfb)" style="fill: none; stroke: #ff7f0e; stroke-width: 1.5; stroke-linecap: square"/>
   </g>
   <g id="patch_3">
    <path d="M 108 320.4 
L 108 43.2 
" style="fill: none; stroke: #a9a9a9; stroke-width: 0.8; stroke-linejoin: miter; stroke-linecap: square"/>
   </g>
   <g id="patch_4">
    <path d="M 777.6 320.4 
L 777.6 43.2 
" style="fill: none"/>
   </g>
   <g id="patch_5">
    <path d="M 108 320.4 
L 777.6 320.4 
" style="fill: none; stroke: #a9a9a9; stroke-width: 0.8; stroke-linejoin: miter; stroke-linecap: square"/>
   </g>
   <g id="patch_6">
    <path d="M 108 43.2 
L 777.6 43.2 
" style="fill: none"/>
   </g>
   <g id="text_19">
    <!-- get_subscribe history -->
    <g style="fill: #a9a9a9" transform="translate(378.6075 37.2) scale(0.12 -0.12)">
     <defs>
      <path id="DejaVuSans-67" d="M 2906 1791 
Q 2906 2416 2648 2759 
Q 2391 3103 1925 3103 
Q 1463 3103 1205 2759 
Q 947 2416 947 1791 
Q 947 1169 1205 825 
Q 1463 481 1925 481 
Q 2391 481 2648 825 
Q 2906 1169 2906 1791 
z
M 3481 434 
Q 3481 -459 3084 -895 
Q 2688 -1331 1869 -1331 
Q 1566 -1331 1297 -1286 
Q 1028 -1241 775 -1147 
L 775 -588 
Q 1028 -725 1275 -790 
Q 1522 -856 1778 -856 
Q 2344 -856 2625 -561 
Q 2906 -266 2906 331 
L 2906 616 
Q 2728 306 2450 153 
Q 2172 0 1784 0 
Q 1141 0 747 490 
Q 353 981 353 1791 
Q 353 2603 747 3093 
Q 1141 3584 1784 3584 
Q 2172 3584 2450 3431 
Q 2728 3278 2906 2969 
L 2906 3500 
L 3481 3500 
L 3481 434 
z
" transform="scale(0.015625)"/>
      <path id="DejaVuSans-65" d="M 3597 1894 
L 3597 1613 
L 953 1613 
Q 991 1019 1311 708 
Q 1631 397 2203 397 
Q 2534 397 2845 478 
Q 3156 559 3463 722 
L 3463 178 
Q 3153 47 2828 -22 
Q 2503 -91 2169 -91 
Q 1331 -91 842 396 
Q 353 884 353 1716 
Q 353 2575 817 3079 
Q 1281 3584 2069 3584 
Q 2775 3584 3186 3129 
Q 3597 2675 3597 1894 
z
M 3022 2063 
Q 3016 2534 2758 2815 
Q 2500 3097 2075 3097 
Q 1594 3097 1305 2825 
Q 1016 2553 972 2059 
L 3022 2063 
z
" transform="scale(0.015625)"/>
      <path id="DejaVuSans-74" d="M 1172 4494 
L 1172 3500 
L 2356 3500 
L 2356 3053 
L 1172 3053 
L 1172 1153 
Q 1172 725 1289 603 
Q 1406 481 1766 481 
L 2356 481 
L 2356 0 
L 1766 0 
Q 1100 0 847 248 
Q 594 497 594 1153 
L 594 3053 
L 172 3053 
L 172 3500 
L 594 3500 
L 594 4494 
L 1172 4494 
z
" transform="scale(0.015625)"/>
      <path id="DejaVuSans-5f" d="M 3263 -1063 
L 3263 -1509 
L -63 -1509 
L -63 -1063 
L 3263 -1063 
z
" transform="scale(0.015625)"/>
      <path id="DejaVuSans-73" d="M 2834 3397 
L 2834 2853 
Q 2591 2978 2328 3040 
Q 2066 3103 1784 3103 
Q 1356 3103 1142 2972 
Q 928 2841 928 2578 
Q 928 2378 1081 2264 
Q 1234 2150 1697 2047 
L 1894 2003 
Q 2506 1872 2764 1633 
Q 3022 1394 3022 966 
Q 3022 478 2636 193 
Q 2250 -91 1575 -91 
Q 1294 -91 989 -36 
Q 684 19 347 128 
L 347 722 
Q 666 556 975 473 
Q 1284 391 1588 391 
Q 1994 391 2212 530 
Q 2431 669 2431 922 
Q 2431 1156 2273 1281 
Q 2116 1406 1581 1522 
L 1381 1569 
Q 847 1681 609 1914 
Q 372 2147 372 2553 
Q 372 3047 722 3315 
Q 1072 3584 1716 3584 
Q 2034 3584 2315 3537 
Q 2597 3491 2834 3397 
z
" transform="scale(0.015625)"/>
      <path id="DejaVuSans-75" d="M 544 1381 
L 544 3500 
L 1119 3500 
L 1119 1403 
Q 1119 906 1312 657 
Q 1506 409 1894 409 
Q 2359 409 2629 706 
Q 2900 1003 2900 1516 
L 2900 3500 
L 3475 3500 
L 3475 0 
L 2900 0 
L 2900 538 
Q 2691 219 2414 64 
Q 2138 -91 1772 -91 
Q 1169 -91 856 284 
Q 544 659 544 1381 
z
M 1991 3584 
L 1991 3584 
z
" transform="scale(0.015625)"/>
      <path id="DejaVuSans-62" d="M 3116 1747 
Q 3116 2381 2855 2742 
Q 2594 3103 2138 3103 
Q 1681 3103 1420 2742 
Q 1159 2381 1159 1747 
Q 1159 1113 1420 752 
Q 1681 391 2138 391 
Q 2594 391 2855 752 
Q 3116 1113 3116 1747 
z
M 1159 2969 
Q 1341 3281 1617 3432 
Q 1894 3584 2278 3584 
Q 2916 3584 3314 3078 
Q 3713 2572 3713 1747 
Q 3713 922 3314 415 
Q 2916 -91 2278 -91 
Q 1894 -91 1617 61 
Q 1341 213 1159 525 
L 1159 0 
L 581 0 
L 581 4863 
L 1159 4863 
L 1159 2969 
z
" transform="scale(0.015625)"/>
      <path id="DejaVuSans-63" d="M 3122 3366 
L 3122 2828 
Q 2878 2963 2633 3030 
Q 2388 3097 2138 3097 
Q 1578 3097 1268 2742 
Q 959 2388 959 1747 
Q 959 1106 1268 751 
Q 1578 397 2138 397 
Q 2388 397 2633 464 
Q 2878 531 3122 666 
L 3122 134 
Q 2881 22 2623 -34 
Q 2366 -91 2075 -91 
Q 1284 -91 818 406 
Q 353 903 353 1747 
Q 353 2603 823 3093 
Q 1294 3584 2113 3584 
Q 2378 3584 2631 3529 
Q 2884 3475 3122 3366 
z
" transform="scale(0.015625)"/>
      <path id="DejaVuSans-72" d="M 2631 2963 
Q 2534 3019 2420 3045 
Q 2306 3072 2169 3072 
Q 1681 3072 1420 2755 
Q 1159 2438 1159 1844 
L 1159 0 
L 581 0 
L 581 3500 
L 1159 3500 
L 1159 2956 
Q 1341 3275 1631 3429 
Q 1922 3584 2338 3584 
Q 2397 3584 2469 3576 
Q 2541 3569 2628 3553 
L 2631 2963 
z
" transform="scale(0.015625)"/>
      <path id="DejaVuSans-69" d="M 603 3500 
L 1178 3500 
L 1178 0 
L 603 0 
L 603 3500 
z
M 603 4863 
L 1178 4863 
L 1178 4134 
L 603 4134 
L 603 4863 
z
" transform="scale(0.015625)"/>
      <path id="DejaVuSans-20" transform="scale(0.015625)"/>
      <path id="DejaVuSans-68" d="M 3513 2113 
L 3513 0 
L 2938 0 
L 2938 2094 
Q 2938 2591 2744 2837 
Q 2550 3084 2163 3084 
Q 1697 3084 1428 2787 
Q 1159 2491 1159 1978 
L 1159 0 
L 581 0 
L 581 4863 
L 1159 4863 
L 1159 2956 
Q 1366 3272 1645 3428 
Q 1925 3584 2291 3584 
Q 2894 3584 3203 3211 
Q 3513 2838 3513 2113 
z
" transform="scale(0.015625)"/>
      <path id="DejaVuSans-6f" d="M 1959 3097 
Q 1497 3097 1228 2736 
Q 959 2375 959 1747 
Q 959 1119 1226 758 
Q 1494 397 1959 397 
Q 2419 397 2687 759 
Q 2956 1122 2956 1747 
Q 2956 2369 2687 2733 
Q 2419 3097 1959 3097 
z
M 1959 3584 
Q 2709 3584 3137 3096 
Q 3566 2609 3566 1747 
Q 3566 888 3137 398 
Q 2709 -91 1959 -91 
Q 1206 -91 779 398 
Q 353 888 353 1747 
Q 353 2609 779 3096 
Q 1206 3584 1959 3584 
z
" transform="scale(0.015625)"/>
      <path id="DejaVuSans-79" d="M 2059 -325 
Q 1816 -950 1584 -1140 
Q 1353 -1331 966 -1331 
L 506 -1331 
L 506 -850 
L 844 -850 
Q 1081 -850 1212 -737 
Q 1344 -625 1503 -206 
L 1606 56 
L 191 3500 
L 800 3500 
L 1894 763 
L 2988 3500 
L 3597 3500 
L 2059 -325 
z
" transform="scale(0.015625)"/>
     </defs>
     <use xlink:href="#DejaVuSans-67"/>
     <use xlink:href="#DejaVuSans-65" transform="translate(63.476562 0)"/>
     <use xlink:href="#DejaVuSans-74" transform="translate(125 0)"/>
     <use xlink:href="#DejaVuSans-5f" transform="translate(164.208984 0)"/>
     <use xlink:href="#DejaVuSans-73" transform="translate(214.208984 0)"/>
     <use xlink:href="#DejaVuSans-75" transform="translate(266.308594 0)"/>
     <use xlink:href="#DejaVuSans-62" transform="translate(329.6875 0)"/>
     <use xlink:href="#DejaVuSans-73" transform="translate(393.164062 0)"/>
     <use xlink:href="#DejaVuSans-63" transform="translate(445.263672 0)"/>
     <use xlink:href="#DejaVuSans-72" transform="translate(500.244141 0)"/>
     <use xlink:href="#DejaVuSans-69" transform="translate(541.357422 0)"/>
     <use xlink:href="#DejaVuSans-62" transform="translate(569.140625 0)"/>
     <use xlink:href="#DejaVuSans-65" transform="translate(632.617188 0)"/>
     <use xlink:href="#DejaVuSans-20" transform="translate(694.140625 0)"/>
     <use xlink:href="#DejaVuSans-68" transform="translate(725.927734 0)"/>
     <use xlink:href="#DejaVuSans-69" transform="translate(789.306641 0)"/>
     <use xlink:href="#DejaVuSans-73" transform="translate(817.089844 0)"/>
     <use xlink:href="#DejaVuSans-74" transform="translate(869.189453 0)"/>
     <use xlink:href="#DejaVuSans-6f" transform="translate(908.398438 0)"/>
     <use xlink:href="#DejaVuSans-72" transform="translate(969.580078 0)"/>
     <use xlink:href="#DejaVuSans-79" transform="translate(1010.693359 0)"/>
    </g>
   </g>
   <g id="legend_1">
    <g id="line2d_39">
     <path d="M 815.08 328.498438 
L 825.08 328.498438 
L 835.08 328.498438 
" style="fill: none; stroke: #1f77b4; stroke-width: 1.5; stroke-linecap: square"/>
    </g>
    <g id="text_20">
     <!-- star -->
     <g style="fill: #a9a9a9" transform="translate(843.08 331.998438) scale(0.1 -0.1)">
      <defs>
       <path id="DejaVuSans-61" d="M 2194 1759 
Q 1497 1759 1228 1600 
Q 959 1441 959 1056 
Q 959 750 1161 570 
Q 1363 391 1709 391 
Q 2188 391 2477 730 
Q 2766 1069 2766 1631 
L 2766 1759 
L 2194 1759 
z
M 3341 1997 
L 3341 0 
L 2766 0 
L 2766 531 
Q 2569 213 2275 61 
Q 1981 -91 1556 -91 
Q 1019 -91 701 211 
Q 384 513 384 1019 
Q 384 1609 779 1909 
Q 1175 2209 1959 2209 
L 2766 2209 
L 2766 2266 
Q 2766 2663 2505 2880 
Q 2244 3097 1772 3097 
Q 1472 3097 1187 3025 
Q 903 2953 641 2809 
L 641 3341 
Q 956 3463 1253 3523 
Q 1550 3584 1831 3584 
Q 2591 3584 2966 3190 
Q 3341 2797 3341 1997 
z
" transform="scale(0.015625)"/>
      </defs>
      <use xlink:href="#DejaVuSans-73"/>
      <use xlink:href="#DejaVuSans-74" transform="translate(52.099609 0)"/>
      <use xlink:href="#DejaVuSans-61" transform="translate(91.308594 0)"/>
      <use xlink:href="#DejaVuSans-72" transform="translate(152.587891 0)"/>
     </g>
    </g>
    <g id="line2d_40">
     <path d="M 815.08 343.176562 
L 825.08 343.176562 
L 835.08 343.176562 
" style="fill: none; stroke: #ff7f0e; stroke-width: 1.5; stroke-linecap: square"/>
    </g>
    <g id="text_21">
     <!-- fork -->
     <g style="fill: #a9a9a9" transform="translate(843.08 346.676562) scale(0.1 -0.1)">
      <defs>
       <path id="DejaVuSans-66" d="M 2375 4863 
L 2375 4384 
L 1825 4384 
Q 1516 4384 1395 4259 
Q 1275 4134 1275 3809 
L 1275 3500 
L 2222 3500 
L 2222 3053 
L 1275 3053 
L 1275 0 
L 697 0 
L 697 3053 
L 147 3053 
L 147 3500 
L 697 3500 
L 697 3744 
Q 697 4328 969 4595 
Q 1241 4863 1831 4863 
L 2375 4863 
z
" transform="scale(0.015625)"/>
       <path id="DejaVuSans-6b" d="M 581 4863 
L 1159 4863 
L 1159 1991 
L 2875 3500 
L 3609 3500 
L 1753 1863 
L 3688 0 
L 2938 0 
L 1159 1709 
L 1159 0 
L 581 0 
L 581 4863 
z
" transform="scale(0.015625)"/>
      </defs>
      <use xlink:href="#DejaVuSans-66"/>
      <use xlink:href="#DejaVuSans-6f" transform="translate(35.205078 0)"/>
      <use xlink:href="#DejaVuSans-72" transform="translate(96.386719 0)"/>
      <use xlink:href="#DejaVuSans-6b" transform="translate(137.5 0)"/>
     </g>
    </g>
   </g>
  </g>
 </g>
 <defs>
  <clipPath id="pa8dd0b0cfb">
   <rect x="108" y="43.2" width="669.6" height="277.2"/>
  </clipPath>
 </defs>
</svg>
