<?xml version="1.0" encoding="utf-8" standalone="no"?>
<!DOCTYPE svg PUBLIC "-//W3C//DTD SVG 1.1//EN"
  "http://www.w3.org/Graphics/SVG/1.1/DTD/svg11.dtd">
<svg xmlns:xlink="http://www.w3.org/1999/xlink" width="864pt" height="360pt" viewBox="0 0 864 360" xmlns="http://www.w3.org/2000/svg" version="1.1">
 <metadata>
  <rdf:RDF xmlns:dc="http://purl.org/dc/elements/1.1/" xmlns:cc="http://creativecommons.org/ns#" xmlns:rdf="http://www.w3.org/1999/02/22-rdf-syntax-ns#">
   <cc:Work>
    <dc:type rdf:resource="http://purl.org/dc/dcmitype/StillImage"/>
    <dc:date>2025-08-05T08:18:17.858672</dc:date>
    <dc:format>image/svg+xml</dc:format>
    <dc:creator>
     <cc:Agent>
      <dc:title>Matplotlib v3.10.5, https://matplotlib.org/</dc:title>
     </cc:Agent>
    </dc:creator>
   </cc:Work>
  </rdf:RDF>
 </metadata>
 <defs>
  <style type="text/css">*{stroke-linejoin: round; stroke-linecap: butt}</style>
 </defs>
 <g id="figure_1">
  <g id="patch_1">
   <path d="M 0 360 
L 864 360 
L 864 0 
L 0 0 
L 0 360 
z
" style="fill: none; opacity: 0"/>
  </g>
  <g id="axes_1">
   <g id="patch_2">
    <path d="M 108 320.4 
L 777.6 320.4 
L 777.6 43.2 
L 108 43.2 
L 108 320.4 
z
" style="fill: none; opacity: 0"/>
   </g>
   <g id="matplotlib.axis_1">
    <g id="xtick_1">
     <g id="line2d_1">
      <path d="M 128.931457 320.4 
L 128.931457 43.2 
" clip-path="url(#p6a4e144c8c)" style="fill: none; stroke-dasharray: 5.12,1.28,0.8,1.28; stroke-dashoffset: 0; stroke: #b0b0b0; stroke-width: 0.8"/>
     </g>
     <g id="line2d_2">
      <defs>
       <path id="m406187e74b" d="M 0 0 
L 0 3.5 
" style="stroke: #a9a9a9; stroke-width: 0.8"/>
      </defs>
      <g>
       <use xlink:href="#m406187e74b" x="128.931457" y="320.4" style="fill: #a9a9a9; stroke: #a9a9a9; stroke-width: 0.8"/>
      </g>
     </g>
     <g id="text_1">
      <!-- 2021-07 -->
      <g style="fill: #a9a9a9" transform="translate(108.040051 334.998438) scale(0.1 -0.1)">
       <defs>
        <path id="DejaVuSans-32" d="M 1228 531 
L 3431 531 
L 3431 0 
L 469 0 
L 469 531 
Q 828 903 1448 1529 
Q 2069 2156 2228 2338 
Q 2531 2678 2651 2914 
Q 2772 3150 2772 3378 
Q 2772 3750 2511 3984 
Q 2250 4219 1831 4219 
Q 1534 4219 1204 4116 
Q 875 4013 500 3803 
L 500 4441 
Q 881 4594 1212 4672 
Q 1544 4750 1819 4750 
Q 2544 4750 2975 4387 
Q 3406 4025 3406 3419 
Q 3406 3131 3298 2873 
Q 3191 2616 2906 2266 
Q 2828 2175 2409 1742 
Q 1991 1309 1228 531 
z
" transform="scale(0.015625)"/>
        <path id="DejaVuSans-30" d="M 2034 4250 
Q 1547 4250 1301 3770 
Q 1056 3291 1056 2328 
Q 1056 1369 1301 889 
Q 1547 409 2034 409 
Q 2525 409 2770 889 
Q 3016 1369 3016 2328 
Q 3016 3291 2770 3770 
Q 2525 4250 2034 4250 
z
M 2034 4750 
Q 2819 4750 3233 4129 
Q 3647 3509 3647 2328 
Q 3647 1150 3233 529 
Q 2819 -91 2034 -91 
Q 1250 -91 836 529 
Q 422 1150 422 2328 
Q 422 3509 836 4129 
Q 1250 4750 2034 4750 
z
" transform="scale(0.015625)"/>
        <path id="DejaVuSans-31" d="M 794 531 
L 1825 531 
L 1825 4091 
L 703 3866 
L 703 4441 
L 1819 4666 
L 2450 4666 
L 2450 531 
L 3481 531 
L 3481 0 
L 794 0 
L 794 531 
z
" transform="scale(0.015625)"/>
        <path id="DejaVuSans-2d" d="M 313 2009 
L 1997 2009 
L 1997 1497 
L 313 1497 
L 313 2009 
z
" transform="scale(0.015625)"/>
        <path id="DejaVuSans-37" d="M 525 4666 
L 3525 4666 
L 3525 4397 
L 1831 0 
L 1172 0 
L 2766 4134 
L 525 4134 
L 525 4666 
z
" transform="scale(0.015625)"/>
       </defs>
       <use xlink:href="#DejaVuSans-32"/>
       <use xlink:href="#DejaVuSans-30" transform="translate(63.623047 0)"/>
       <use xlink:href="#DejaVuSans-32" transform="translate(127.246094 0)"/>
       <use xlink:href="#DejaVuSans-31" transform="translate(190.869141 0)"/>
       <use xlink:href="#DejaVuSans-2d" transform="translate(254.492188 0)"/>
       <use xlink:href="#DejaVuSans-30" transform="translate(290.576172 0)"/>
       <use xlink:href="#DejaVuSans-37" transform="translate(354.199219 0)"/>
      </g>
     </g>
    </g>
    <g id="xtick_2">
     <g id="line2d_3">
      <path d="M 204.970709 320.4 
L 204.970709 43.2 
" clip-path="url(#p6a4e144c8c)" style="fill: none; stroke-dasharray: 5.12,1.28,0.8,1.28; stroke-dashoffset: 0; stroke: #b0b0b0; stroke-width: 0.8"/>
     </g>
     <g id="line2d_4">
      <g>
       <use xlink:href="#m406187e74b" x="204.970709" y="320.4" style="fill: #a9a9a9; stroke: #a9a9a9; stroke-width: 0.8"/>
      </g>
     </g>
     <g id="text_2">
      <!-- 2022-01 -->
      <g style="fill: #a9a9a9" transform="translate(184.079303 334.998438) scale(0.1 -0.1)">
       <use xlink:href="#DejaVuSans-32"/>
       <use xlink:href="#DejaVuSans-30" transform="translate(63.623047 0)"/>
       <use xlink:href="#DejaVuSans-32" transform="translate(127.246094 0)"/>
       <use xlink:href="#DejaVuSans-32" transform="translate(190.869141 0)"/>
       <use xlink:href="#DejaVuSans-2d" transform="translate(254.492188 0)"/>
       <use xlink:href="#DejaVuSans-30" transform="translate(290.576172 0)"/>
       <use xlink:href="#DejaVuSans-31" transform="translate(354.199219 0)"/>
      </g>
     </g>
    </g>
    <g id="xtick_3">
     <g id="line2d_5">
      <path d="M 279.770191 320.4 
L 279.770191 43.2 
" clip-path="url(#p6a4e144c8c)" style="fill: none; stroke-dasharray: 5.12,1.28,0.8,1.28; stroke-dashoffset: 0; stroke: #b0b0b0; stroke-width: 0.8"/>
     </g>
     <g id="line2d_6">
      <g>
       <use xlink:href="#m406187e74b" x="279.770191" y="320.4" style="fill: #a9a9a9; stroke: #a9a9a9; stroke-width: 0.8"/>
      </g>
     </g>
     <g id="text_3">
      <!-- 2022-07 -->
      <g style="fill: #a9a9a9" transform="translate(258.878784 334.998438) scale(0.1 -0.1)">
       <use xlink:href="#DejaVuSans-32"/>
       <use xlink:href="#DejaVuSans-30" transform="translate(63.623047 0)"/>
       <use xlink:href="#DejaVuSans-32" transform="translate(127.246094 0)"/>
       <use xlink:href="#DejaVuSans-32" transform="translate(190.869141 0)"/>
       <use xlink:href="#DejaVuSans-2d" transform="translate(254.492188 0)"/>
       <use xlink:href="#DejaVuSans-30" transform="translate(290.576172 0)"/>
       <use xlink:href="#DejaVuSans-37" transform="translate(354.199219 0)"/>
      </g>
     </g>
    </g>
    <g id="xtick_4">
     <g id="line2d_7">
      <path d="M 355.809443 320.4 
L 355.809443 43.2 
" clip-path="url(#p6a4e144c8c)" style="fill: none; stroke-dasharray: 5.12,1.28,0.8,1.28; stroke-dashoffset: 0; stroke: #b0b0b0; stroke-width: 0.8"/>
     </g>
     <g id="line2d_8">
      <g>
       <use xlink:href="#m406187e74b" x="355.809443" y="320.4" style="fill: #a9a9a9; stroke: #a9a9a9; stroke-width: 0.8"/>
      </g>
     </g>
     <g id="text_4">
      <!-- 2023-01 -->
      <g style="fill: #a9a9a9" transform="translate(334.918036 334.998438) scale(0.1 -0.1)">
       <defs>
        <path id="DejaVuSans-33" d="M 2597 2516 
Q 3050 2419 3304 2112 
Q 3559 1806 3559 1356 
Q 3559 666 3084 287 
Q 2609 -91 1734 -91 
Q 1441 -91 1130 -33 
Q 819 25 488 141 
L 488 750 
Q 750 597 1062 519 
Q 1375 441 1716 441 
Q 2309 441 2620 675 
Q 2931 909 2931 1356 
Q 2931 1769 2642 2001 
Q 2353 2234 1838 2234 
L 1294 2234 
L 1294 2753 
L 1863 2753 
Q 2328 2753 2575 2939 
Q 2822 3125 2822 3475 
Q 2822 3834 2567 4026 
Q 2313 4219 1838 4219 
Q 1578 4219 1281 4162 
Q 984 4106 628 3988 
L 628 4550 
Q 988 4650 1302 4700 
Q 1616 4750 1894 4750 
Q 2613 4750 3031 4423 
Q 3450 4097 3450 3541 
Q 3450 3153 3228 2886 
Q 3006 2619 2597 2516 
z
" transform="scale(0.015625)"/>
       </defs>
       <use xlink:href="#DejaVuSans-32"/>
       <use xlink:href="#DejaVuSans-30" transform="translate(63.623047 0)"/>
       <use xlink:href="#DejaVuSans-32" transform="translate(127.246094 0)"/>
       <use xlink:href="#DejaVuSans-33" transform="translate(190.869141 0)"/>
       <use xlink:href="#DejaVuSans-2d" transform="translate(254.492188 0)"/>
       <use xlink:href="#DejaVuSans-30" transform="translate(290.576172 0)"/>
       <use xlink:href="#DejaVuSans-31" transform="translate(354.199219 0)"/>
      </g>
     </g>
    </g>
    <g id="xtick_5">
     <g id="line2d_9">
      <path d="M 430.608924 320.4 
L 430.608924 43.2 
" clip-path="url(#p6a4e144c8c)" style="fill: none; stroke-dasharray: 5.12,1.28,0.8,1.28; stroke-dashoffset: 0; stroke: #b0b0b0; stroke-width: 0.8"/>
     </g>
     <g id="line2d_10">
      <g>
       <use xlink:href="#m406187e74b" x="430.608924" y="320.4" style="fill: #a9a9a9; stroke: #a9a9a9; stroke-width: 0.8"/>
      </g>
     </g>
     <g id="text_5">
      <!-- 2023-07 -->
      <g style="fill: #a9a9a9" transform="translate(409.717518 334.998438) scale(0.1 -0.1)">
       <use xlink:href="#DejaVuSans-32"/>
       <use xlink:href="#DejaVuSans-30" transform="translate(63.623047 0)"/>
       <use xlink:href="#DejaVuSans-32" transform="translate(127.246094 0)"/>
       <use xlink:href="#DejaVuSans-33" transform="translate(190.869141 0)"/>
       <use xlink:href="#DejaVuSans-2d" transform="translate(254.492188 0)"/>
       <use xlink:href="#DejaVuSans-30" transform="translate(290.576172 0)"/>
       <use xlink:href="#DejaVuSans-37" transform="translate(354.199219 0)"/>
      </g>
     </g>
    </g>
    <g id="xtick_6">
     <g id="line2d_11">
      <path d="M 506.648176 320.4 
L 506.648176 43.2 
" clip-path="url(#p6a4e144c8c)" style="fill: none; stroke-dasharray: 5.12,1.28,0.8,1.28; stroke-dashoffset: 0; stroke: #b0b0b0; stroke-width: 0.8"/>
     </g>
     <g id="line2d_12">
      <g>
       <use xlink:href="#m406187e74b" x="506.648176" y="320.4" style="fill: #a9a9a9; stroke: #a9a9a9; stroke-width: 0.8"/>
      </g>
     </g>
     <g id="text_6">
      <!-- 2024-01 -->
      <g style="fill: #a9a9a9" transform="translate(485.75677 334.998438) scale(0.1 -0.1)">
       <defs>
        <path id="DejaVuSans-34" d="M 2419 4116 
L 825 1625 
L 2419 1625 
L 2419 4116 
z
M 2253 4666 
L 3047 4666 
L 3047 1625 
L 3713 1625 
L 3713 1100 
L 3047 1100 
L 3047 0 
L 2419 0 
L 2419 1100 
L 313 1100 
L 313 1709 
L 2253 4666 
z
" transform="scale(0.015625)"/>
       </defs>
       <use xlink:href="#DejaVuSans-32"/>
       <use xlink:href="#DejaVuSans-30" transform="translate(63.623047 0)"/>
       <use xlink:href="#DejaVuSans-32" transform="translate(127.246094 0)"/>
       <use xlink:href="#DejaVuSans-34" transform="translate(190.869141 0)"/>
       <use xlink:href="#DejaVuSans-2d" transform="translate(254.492188 0)"/>
       <use xlink:href="#DejaVuSans-30" transform="translate(290.576172 0)"/>
       <use xlink:href="#DejaVuSans-31" transform="translate(354.199219 0)"/>
      </g>
     </g>
    </g>
    <g id="xtick_7">
     <g id="line2d_13">
      <path d="M 581.860915 320.4 
L 581.860915 43.2 
" clip-path="url(#p6a4e144c8c)" style="fill: none; stroke-dasharray: 5.12,1.28,0.8,1.28; stroke-dashoffset: 0; stroke: #b0b0b0; stroke-width: 0.8"/>
     </g>
     <g id="line2d_14">
      <g>
       <use xlink:href="#m406187e74b" x="581.860915" y="320.4" style="fill: #a9a9a9; stroke: #a9a9a9; stroke-width: 0.8"/>
      </g>
     </g>
     <g id="text_7">
      <!-- 2024-07 -->
      <g style="fill: #a9a9a9" transform="translate(560.969508 334.998438) scale(0.1 -0.1)">
       <use xlink:href="#DejaVuSans-32"/>
       <use xlink:href="#DejaVuSans-30" transform="translate(63.623047 0)"/>
       <use xlink:href="#DejaVuSans-32" transform="translate(127.246094 0)"/>
       <use xlink:href="#DejaVuSans-34" transform="translate(190.869141 0)"/>
       <use xlink:href="#DejaVuSans-2d" transform="translate(254.492188 0)"/>
       <use xlink:href="#DejaVuSans-30" transform="translate(290.576172 0)"/>
       <use xlink:href="#DejaVuSans-37" transform="translate(354.199219 0)"/>
      </g>
     </g>
    </g>
    <g id="xtick_8">
     <g id="line2d_15">
      <path d="M 657.900167 320.4 
L 657.900167 43.2 
" clip-path="url(#p6a4e144c8c)" style="fill: none; stroke-dasharray: 5.12,1.28,0.8,1.28; stroke-dashoffset: 0; stroke: #b0b0b0; stroke-width: 0.8"/>
     </g>
     <g id="line2d_16">
      <g>
       <use xlink:href="#m406187e74b" x="657.900167" y="320.4" style="fill: #a9a9a9; stroke: #a9a9a9; stroke-width: 0.8"/>
      </g>
     </g>
     <g id="text_8">
      <!-- 2025-01 -->
      <g style="fill: #a9a9a9" transform="translate(637.00876 334.998438) scale(0.1 -0.1)">
       <defs>
        <path id="DejaVuSans-35" d="M 691 4666 
L 3169 4666 
L 3169 4134 
L 1269 4134 
L 1269 2991 
Q 1406 3038 1543 3061 
Q 1681 3084 1819 3084 
Q 2600 3084 3056 2656 
Q 3513 2228 3513 1497 
Q 3513 744 3044 326 
Q 2575 -91 1722 -91 
Q 1428 -91 1123 -41 
Q 819 9 494 109 
L 494 744 
Q 775 591 1075 516 
Q 1375 441 1709 441 
Q 2250 441 2565 725 
Q 2881 1009 2881 1497 
Q 2881 1984 2565 2268 
Q 2250 2553 1709 2553 
Q 1456 2553 1204 2497 
Q 953 2441 691 2322 
L 691 4666 
z
" transform="scale(0.015625)"/>
       </defs>
       <use xlink:href="#DejaVuSans-32"/>
       <use xlink:href="#DejaVuSans-30" transform="translate(63.623047 0)"/>
       <use xlink:href="#DejaVuSans-32" transform="translate(127.246094 0)"/>
       <use xlink:href="#DejaVuSans-35" transform="translate(190.869141 0)"/>
       <use xlink:href="#DejaVuSans-2d" transform="translate(254.492188 0)"/>
       <use xlink:href="#DejaVuSans-30" transform="translate(290.576172 0)"/>
       <use xlink:href="#DejaVuSans-31" transform="translate(354.199219 0)"/>
      </g>
     </g>
    </g>
    <g id="xtick_9">
     <g id="line2d_17">
      <path d="M 732.699648 320.4 
L 732.699648 43.2 
" clip-path="url(#p6a4e144c8c)" style="fill: none; stroke-dasharray: 5.12,1.28,0.8,1.28; stroke-dashoffset: 0; stroke: #b0b0b0; stroke-width: 0.8"/>
     </g>
     <g id="line2d_18">
      <g>
       <use xlink:href="#m406187e74b" x="732.699648" y="320.4" style="fill: #a9a9a9; stroke: #a9a9a9; stroke-width: 0.8"/>
      </g>
     </g>
     <g id="text_9">
      <!-- 2025-07 -->
      <g style="fill: #a9a9a9" transform="translate(711.808242 334.998438) scale(0.1 -0.1)">
       <use xlink:href="#DejaVuSans-32"/>
       <use xlink:href="#DejaVuSans-30" transform="translate(63.623047 0)"/>
       <use xlink:href="#DejaVuSans-32" transform="translate(127.246094 0)"/>
       <use xlink:href="#DejaVuSans-35" transform="translate(190.869141 0)"/>
       <use xlink:href="#DejaVuSans-2d" transform="translate(254.492188 0)"/>
       <use xlink:href="#DejaVuSans-30" transform="translate(290.576172 0)"/>
       <use xlink:href="#DejaVuSans-37" transform="translate(354.199219 0)"/>
      </g>
     </g>
    </g>
   </g>
   <g id="matplotlib.axis_2">
    <g id="ytick_1">
     <g id="line2d_19">
      <path d="M 108 307.831611 
L 777.6 307.831611 
" clip-path="url(#p6a4e144c8c)" style="fill: none; stroke-dasharray: 5.12,1.28,0.8,1.28; stroke-dashoffset: 0; stroke: #b0b0b0; stroke-width: 0.8"/>
     </g>
     <g id="line2d_20">
      <defs>
       <path id="mf30fc53292" d="M 0 0 
L -3.5 0 
" style="stroke: #a9a9a9; stroke-width: 0.8"/>
      </defs>
      <g>
       <use xlink:href="#mf30fc53292" x="108" y="307.831611" style="fill: #a9a9a9; stroke: #a9a9a9; stroke-width: 0.8"/>
      </g>
     </g>
     <g id="text_10">
      <!-- 0 -->
      <g style="fill: #a9a9a9" transform="translate(94.6375 311.630829) scale(0.1 -0.1)">
       <use xlink:href="#DejaVuSans-30"/>
      </g>
     </g>
    </g>
    <g id="ytick_2">
     <g id="line2d_21">
      <path d="M 108 276.220973 
L 777.6 276.220973 
" clip-path="url(#p6a4e144c8c)" style="fill: none; stroke-dasharray: 5.12,1.28,0.8,1.28; stroke-dashoffset: 0; stroke: #b0b0b0; stroke-width: 0.8"/>
     </g>
     <g id="line2d_22">
      <g>
       <use xlink:href="#mf30fc53292" x="108" y="276.220973" style="fill: #a9a9a9; stroke: #a9a9a9; stroke-width: 0.8"/>
      </g>
     </g>
     <g id="text_11">
      <!-- 1000 -->
      <g style="fill: #a9a9a9" transform="translate(75.55 280.020192) scale(0.1 -0.1)">
       <use xlink:href="#DejaVuSans-31"/>
       <use xlink:href="#DejaVuSans-30" transform="translate(63.623047 0)"/>
       <use xlink:href="#DejaVuSans-30" transform="translate(127.246094 0)"/>
       <use xlink:href="#DejaVuSans-30" transform="translate(190.869141 0)"/>
      </g>
     </g>
    </g>
    <g id="ytick_3">
     <g id="line2d_23">
      <path d="M 108 244.610336 
L 777.6 244.610336 
" clip-path="url(#p6a4e144c8c)" style="fill: none; stroke-dasharray: 5.12,1.28,0.8,1.28; stroke-dashoffset: 0; stroke: #b0b0b0; stroke-width: 0.8"/>
     </g>
     <g id="line2d_24">
      <g>
       <use xlink:href="#mf30fc53292" x="108" y="244.610336" style="fill: #a9a9a9; stroke: #a9a9a9; stroke-width: 0.8"/>
      </g>
     </g>
     <g id="text_12">
      <!-- 2000 -->
      <g style="fill: #a9a9a9" transform="translate(75.55 248.409555) scale(0.1 -0.1)">
       <use xlink:href="#DejaVuSans-32"/>
       <use xlink:href="#DejaVuSans-30" transform="translate(63.623047 0)"/>
       <use xlink:href="#DejaVuSans-30" transform="translate(127.246094 0)"/>
       <use xlink:href="#DejaVuSans-30" transform="translate(190.869141 0)"/>
      </g>
     </g>
    </g>
    <g id="ytick_4">
     <g id="line2d_25">
      <path d="M 108 212.999699 
L 777.6 212.999699 
" clip-path="url(#p6a4e144c8c)" style="fill: none; stroke-dasharray: 5.12,1.28,0.8,1.28; stroke-dashoffset: 0; stroke: #b0b0b0; stroke-width: 0.8"/>
     </g>
     <g id="line2d_26">
      <g>
       <use xlink:href="#mf30fc53292" x="108" y="212.999699" style="fill: #a9a9a9; stroke: #a9a9a9; stroke-width: 0.8"/>
      </g>
     </g>
     <g id="text_13">
      <!-- 3000 -->
      <g style="fill: #a9a9a9" transform="translate(75.55 216.798918) scale(0.1 -0.1)">
       <use xlink:href="#DejaVuSans-33"/>
       <use xlink:href="#DejaVuSans-30" transform="translate(63.623047 0)"/>
       <use xlink:href="#DejaVuSans-30" transform="translate(127.246094 0)"/>
       <use xlink:href="#DejaVuSans-30" transform="translate(190.869141 0)"/>
      </g>
     </g>
    </g>
    <g id="ytick_5">
     <g id="line2d_27">
      <path d="M 108 181.389062 
L 777.6 181.389062 
" clip-path="url(#p6a4e144c8c)" style="fill: none; stroke-dasharray: 5.12,1.28,0.8,1.28; stroke-dashoffset: 0; stroke: #b0b0b0; stroke-width: 0.8"/>
     </g>
     <g id="line2d_28">
      <g>
       <use xlink:href="#mf30fc53292" x="108" y="181.389062" style="fill: #a9a9a9; stroke: #a9a9a9; stroke-width: 0.8"/>
      </g>
     </g>
     <g id="text_14">
      <!-- 4000 -->
      <g style="fill: #a9a9a9" transform="translate(75.55 185.18828) scale(0.1 -0.1)">
       <use xlink:href="#DejaVuSans-34"/>
       <use xlink:href="#DejaVuSans-30" transform="translate(63.623047 0)"/>
       <use xlink:href="#DejaVuSans-30" transform="translate(127.246094 0)"/>
       <use xlink:href="#DejaVuSans-30" transform="translate(190.869141 0)"/>
      </g>
     </g>
    </g>
    <g id="ytick_6">
     <g id="line2d_29">
      <path d="M 108 149.778424 
L 777.6 149.778424 
" clip-path="url(#p6a4e144c8c)" style="fill: none; stroke-dasharray: 5.12,1.28,0.8,1.28; stroke-dashoffset: 0; stroke: #b0b0b0; stroke-width: 0.8"/>
     </g>
     <g id="line2d_30">
      <g>
       <use xlink:href="#mf30fc53292" x="108" y="149.778424" style="fill: #a9a9a9; stroke: #a9a9a9; stroke-width: 0.8"/>
      </g>
     </g>
     <g id="text_15">
      <!-- 5000 -->
      <g style="fill: #a9a9a9" transform="translate(75.55 153.577643) scale(0.1 -0.1)">
       <use xlink:href="#DejaVuSans-35"/>
       <use xlink:href="#DejaVuSans-30" transform="translate(63.623047 0)"/>
       <use xlink:href="#DejaVuSans-30" transform="translate(127.246094 0)"/>
       <use xlink:href="#DejaVuSans-30" transform="translate(190.869141 0)"/>
      </g>
     </g>
    </g>
    <g id="ytick_7">
     <g id="line2d_31">
      <path d="M 108 118.167787 
L 777.6 118.167787 
" clip-path="url(#p6a4e144c8c)" style="fill: none; stroke-dasharray: 5.12,1.28,0.8,1.28; stroke-dashoffset: 0; stroke: #b0b0b0; stroke-width: 0.8"/>
     </g>
     <g id="line2d_32">
      <g>
       <use xlink:href="#mf30fc53292" x="108" y="118.167787" style="fill: #a9a9a9; stroke: #a9a9a9; stroke-width: 0.8"/>
      </g>
     </g>
     <g id="text_16">
      <!-- 6000 -->
      <g style="fill: #a9a9a9" transform="translate(75.55 121.967006) scale(0.1 -0.1)">
       <defs>
        <path id="DejaVuSans-36" d="M 2113 2584 
Q 1688 2584 1439 2293 
Q 1191 2003 1191 1497 
Q 1191 994 1439 701 
Q 1688 409 2113 409 
Q 2538 409 2786 701 
Q 3034 994 3034 1497 
Q 3034 2003 2786 2293 
Q 2538 2584 2113 2584 
z
M 3366 4563 
L 3366 3988 
Q 3128 4100 2886 4159 
Q 2644 4219 2406 4219 
Q 1781 4219 1451 3797 
Q 1122 3375 1075 2522 
Q 1259 2794 1537 2939 
Q 1816 3084 2150 3084 
Q 2853 3084 3261 2657 
Q 3669 2231 3669 1497 
Q 3669 778 3244 343 
Q 2819 -91 2113 -91 
Q 1303 -91 875 529 
Q 447 1150 447 2328 
Q 447 3434 972 4092 
Q 1497 4750 2381 4750 
Q 2619 4750 2861 4703 
Q 3103 4656 3366 4563 
z
" transform="scale(0.015625)"/>
       </defs>
       <use xlink:href="#DejaVuSans-36"/>
       <use xlink:href="#DejaVuSans-30" transform="translate(63.623047 0)"/>
       <use xlink:href="#DejaVuSans-30" transform="translate(127.246094 0)"/>
       <use xlink:href="#DejaVuSans-30" transform="translate(190.869141 0)"/>
      </g>
     </g>
    </g>
    <g id="ytick_8">
     <g id="line2d_33">
      <path d="M 108 86.55715 
L 777.6 86.55715 
" clip-path="url(#p6a4e144c8c)" style="fill: none; stroke-dasharray: 5.12,1.28,0.8,1.28; stroke-dashoffset: 0; stroke: #b0b0b0; stroke-width: 0.8"/>
     </g>
     <g id="line2d_34">
      <g>
       <use xlink:href="#mf30fc53292" x="108" y="86.55715" style="fill: #a9a9a9; stroke: #a9a9a9; stroke-width: 0.8"/>
      </g>
     </g>
     <g id="text_17">
      <!-- 7000 -->
      <g style="fill: #a9a9a9" transform="translate(75.55 90.356369) scale(0.1 -0.1)">
       <use xlink:href="#DejaVuSans-37"/>
       <use xlink:href="#DejaVuSans-30" transform="translate(63.623047 0)"/>
       <use xlink:href="#DejaVuSans-30" transform="translate(127.246094 0)"/>
       <use xlink:href="#DejaVuSans-30" transform="translate(190.869141 0)"/>
      </g>
     </g>
    </g>
    <g id="ytick_9">
     <g id="line2d_35">
      <path d="M 108 54.946513 
L 777.6 54.946513 
" clip-path="url(#p6a4e144c8c)" style="fill: none; stroke-dasharray: 5.12,1.28,0.8,1.28; stroke-dashoffset: 0; stroke: #b0b0b0; stroke-width: 0.8"/>
     </g>
     <g id="line2d_36">
      <g>
       <use xlink:href="#mf30fc53292" x="108" y="54.946513" style="fill: #a9a9a9; stroke: #a9a9a9; stroke-width: 0.8"/>
      </g>
     </g>
     <g id="text_18">
      <!-- 8000 -->
      <g style="fill: #a9a9a9" transform="translate(75.55 58.745732) scale(0.1 -0.1)">
       <defs>
        <path id="DejaVuSans-38" d="M 2034 2216 
Q 1584 2216 1326 1975 
Q 1069 1734 1069 1313 
Q 1069 891 1326 650 
Q 1584 409 2034 409 
Q 2484 409 2743 651 
Q 3003 894 3003 1313 
Q 3003 1734 2745 1975 
Q 2488 2216 2034 2216 
z
M 1403 2484 
Q 997 2584 770 2862 
Q 544 3141 544 3541 
Q 544 4100 942 4425 
Q 1341 4750 2034 4750 
Q 2731 4750 3128 4425 
Q 3525 4100 3525 3541 
Q 3525 3141 3298 2862 
Q 3072 2584 2669 2484 
Q 3125 2378 3379 2068 
Q 3634 1759 3634 1313 
Q 3634 634 3220 271 
Q 2806 -91 2034 -91 
Q 1263 -91 848 271 
Q 434 634 434 1313 
Q 434 1759 690 2068 
Q 947 2378 1403 2484 
z
M 1172 3481 
Q 1172 3119 1398 2916 
Q 1625 2713 2034 2713 
Q 2441 2713 2670 2916 
Q 2900 3119 2900 3481 
Q 2900 3844 2670 4047 
Q 2441 4250 2034 4250 
Q 1625 4250 1398 4047 
Q 1172 3844 1172 3481 
z
" transform="scale(0.015625)"/>
       </defs>
       <use xlink:href="#DejaVuSans-38"/>
       <use xlink:href="#DejaVuSans-30" transform="translate(63.623047 0)"/>
       <use xlink:href="#DejaVuSans-30" transform="translate(127.246094 0)"/>
       <use xlink:href="#DejaVuSans-30" transform="translate(190.869141 0)"/>
      </g>
     </g>
    </g>
   </g>
   <g id="line2d_37">
    <path d="M 138.436364 307.736779 
L 140.915904 307.515504 
L 141.329161 307.32584 
L 142.982188 307.104566 
L 144.635216 306.756849 
L 145.461729 306.630406 
L 147.528013 306.440743 
L 148.354527 306.093026 
L 148.767784 305.524034 
L 149.181041 305.239538 
L 149.594297 304.291219 
L 150.007554 304.227998 
L 150.420811 303.880281 
L 151.247325 303.437732 
L 152.900352 302.046864 
L 154.553379 301.193377 
L 155.793149 300.592775 
L 156.206406 299.897341 
L 157.03292 299.265128 
L 157.446177 299.075464 
L 161.578745 298.443251 
L 161.992001 298.253588 
L 164.884799 298.000702 
L 166.537826 297.589764 
L 169.843881 297.115605 
L 170.257138 296.89433 
L 170.670394 296.831109 
L 171.496908 296.546613 
L 174.389706 296.040843 
L 175.216219 295.787958 
L 178.93553 295.155745 
L 179.762044 294.966081 
L 180.588558 294.934471 
L 182.241585 294.523532 
L 182.654842 293.92293 
L 183.894612 293.41716 
L 185.134383 293.069443 
L 185.547639 292.848169 
L 186.374153 292.690115 
L 188.02718 292.184345 
L 188.853694 292.121124 
L 189.680207 291.899849 
L 191.333235 291.457301 
L 191.746491 291.42569 
L 192.573005 291.014752 
L 192.986262 290.95153 
L 193.399519 290.730256 
L 197.945343 289.93999 
L 199.598371 289.43422 
L 200.011627 289.149724 
L 202.077911 288.45429 
L 202.904425 287.853688 
L 204.144196 287.600803 
L 209.516534 286.020271 
L 209.929791 285.95705 
L 211.582818 285.293226 
L 211.996075 285.230005 
L 212.822588 284.882288 
L 213.649102 284.850677 
L 214.888872 284.47135 
L 215.302129 284.47135 
L 215.715386 284.281686 
L 216.5419 284.186854 
L 216.955156 284.028801 
L 218.608184 283.96558 
L 219.434697 283.807526 
L 220.261211 283.364977 
L 221.500981 282.890818 
L 222.327495 282.448269 
L 223.154009 282.00572 
L 223.980522 281.721224 
L 224.393779 281.594782 
L 225.220293 281.057401 
L 225.633549 280.583241 
L 226.460063 279.255595 
L 226.87332 279.129152 
L 227.286577 279.129152 
L 228.939604 278.180833 
L 229.352861 278.086001 
L 229.766117 277.675063 
L 230.592631 277.327346 
L 231.419145 276.948018 
L 231.832401 276.442248 
L 232.245658 275.746814 
L 232.658915 275.462318 
L 233.072172 274.703663 
L 233.485429 274.229503 
L 235.964969 272.838635 
L 237.617997 271.321325 
L 238.031253 270.341395 
L 238.44451 269.709182 
L 238.857767 269.361465 
L 239.271024 269.171801 
L 242.577078 266.042348 
L 243.403592 265.252082 
L 245.883133 263.63994 
L 246.29639 263.481887 
L 247.949417 262.470346 
L 248.362674 262.280682 
L 250.428958 260.320823 
L 251.255471 259.973106 
L 252.081985 259.372504 
L 252.495242 259.119619 
L 252.908498 259.056397 
L 254.148269 258.329353 
L 254.561526 257.855193 
L 256.62781 256.6856 
L 257.041066 256.527546 
L 258.280837 255.642449 
L 264.479689 253.366483 
L 265.306203 252.576217 
L 266.545973 251.944004 
L 267.372487 251.406623 
L 268.199 251.153738 
L 268.612257 250.869242 
L 269.025514 250.7428 
L 270.265284 249.889313 
L 272.331568 249.415153 
L 273.571339 248.656498 
L 274.811109 248.372002 
L 275.224366 248.27717 
L 276.464136 247.328851 
L 278.117163 246.854691 
L 278.53042 246.506974 
L 281.009961 245.621877 
L 281.836475 245.463823 
L 282.662988 245.116106 
L 285.555786 244.009734 
L 286.3823 243.914902 
L 287.62207 243.472353 
L 289.688354 242.429202 
L 292.167895 241.006724 
L 292.994408 240.785449 
L 294.234179 240.153236 
L 295.060692 239.995183 
L 295.887206 239.489413 
L 296.71372 239.268138 
L 297.95349 238.762368 
L 299.606517 238.541094 
L 300.433031 238.098545 
L 300.846288 237.719217 
L 301.259545 236.960562 
L 302.912572 236.486402 
L 304.152342 235.822579 
L 304.978856 235.538083 
L 306.218626 234.905871 
L 308.28491 234.052383 
L 309.111424 233.86272 
L 310.351194 233.230507 
L 310.764451 233.167285 
L 312.830735 232.124134 
L 313.657249 231.586754 
L 314.897019 231.333869 
L 316.963303 230.796488 
L 317.37656 230.448771 
L 318.203074 230.164275 
L 320.269358 229.310788 
L 320.682614 228.994681 
L 321.095871 228.836628 
L 321.922385 228.362469 
L 323.575412 227.825088 
L 324.401926 227.287707 
L 324.815182 226.845158 
L 325.228439 226.592273 
L 325.641696 226.497441 
L 326.46821 225.802007 
L 326.881466 225.738786 
L 327.294723 225.043352 
L 327.70798 224.853688 
L 328.121237 224.505971 
L 328.534494 224.44275 
L 329.361007 223.905369 
L 330.187521 223.620873 
L 330.600778 223.304767 
L 331.014034 223.146713 
L 332.667062 222.008731 
L 333.906832 221.376518 
L 334.733346 221.155243 
L 335.559859 220.681084 
L 335.973116 219.954039 
L 336.79963 219.321826 
L 337.212887 219.226994 
L 339.692427 217.99418 
L 340.518941 217.646463 
L 341.345455 217.045861 
L 342.585225 215.876267 
L 343.411739 215.370497 
L 343.824995 214.896337 
L 345.478023 213.726744 
L 346.304536 212.873256 
L 347.13105 212.588761 
L 347.957563 212.019769 
L 349.197334 211.355946 
L 349.610591 211.292725 
L 350.850361 210.597291 
L 351.676875 210.05991 
L 355.809443 208.479378 
L 356.2227 208.131661 
L 357.875727 207.467837 
L 358.288984 207.341395 
L 359.115497 206.804014 
L 359.942011 206.456297 
L 360.768524 205.855695 
L 361.595038 204.148721 
L 362.421552 203.13718 
L 363.661322 202.473357 
L 364.487836 202.12564 
L 364.901092 202.062418 
L 365.727606 201.683091 
L 367.380633 201.114099 
L 368.207147 200.63994 
L 369.03366 200.229002 
L 369.446917 200.102559 
L 371.926458 198.585248 
L 372.339715 198.111089 
L 373.579485 197.384044 
L 373.992742 197.225991 
L 374.819256 196.720221 
L 376.472283 195.803512 
L 376.88554 195.70868 
L 377.298797 195.360963 
L 380.191594 194.381034 
L 380.604851 194.064927 
L 381.431365 193.812042 
L 382.257878 193.464325 
L 382.671135 193.116608 
L 384.324162 192.516006 
L 385.150676 191.915404 
L 385.977189 191.567687 
L 386.803703 190.903864 
L 387.630217 190.650978 
L 388.043473 190.271651 
L 388.45673 190.20843 
L 389.283244 189.544606 
L 391.349528 188.311791 
L 392.176041 188.058906 
L 392.589298 187.806021 
L 393.002555 187.7428 
L 394.242325 187.047366 
L 400.441178 185.087506 
L 401.680948 184.170798 
L 402.094205 184.012745 
L 402.920718 183.538585 
L 403.333975 183.412142 
L 405.813516 181.989664 
L 406.226773 181.894832 
L 407.466543 181.136177 
L 408.706314 180.693628 
L 409.532827 180.409132 
L 411.185854 179.84014 
L 412.012368 179.555645 
L 413.665395 179.207928 
L 414.078652 179.018264 
L 414.905166 178.796989 
L 415.318423 178.607326 
L 415.731679 178.544104 
L 416.144936 178.32283 
L 416.97145 178.164777 
L 418.21122 177.690617 
L 419.450991 177.500953 
L 421.930531 177.026794 
L 423.170302 176.742298 
L 423.583559 176.552634 
L 424.410072 176.394581 
L 425.236586 176.173307 
L 426.063099 175.793979 
L 426.476356 175.635926 
L 426.889613 175.635926 
L 431.435438 174.213447 
L 431.848695 173.992173 
L 432.261951 173.992173 
L 433.088465 173.676066 
L 433.501722 173.233517 
L 435.981263 172.190366 
L 437.63429 171.621375 
L 438.047547 171.36849 
L 439.287317 170.989162 
L 440.113831 170.767888 
L 440.527088 170.483392 
L 440.940344 170.38856 
L 441.353601 170.009232 
L 442.593372 169.756347 
L 443.419885 169.37702 
L 443.833142 168.871249 
L 448.378967 167.859709 
L 448.792224 167.859709 
L 449.20548 167.670045 
L 450.858508 167.353939 
L 451.271764 167.164275 
L 452.924792 166.848169 
L 453.751305 166.500452 
L 454.577819 166.342398 
L 456.644103 165.805018 
L 458.29713 165.267637 
L 458.710387 165.172805 
L 459.123644 164.95153 
L 459.950157 164.730256 
L 460.776671 164.382539 
L 461.603185 164.066433 
L 462.016441 163.781937 
L 462.842955 163.529052 
L 465.735753 162.422679 
L 467.38878 162.233016 
L 470.694834 161.000201 
L 471.108091 160.684094 
L 471.521348 160.589262 
L 471.934605 160.367988 
L 472.347862 160.336377 
L 476.893686 158.661014 
L 478.95997 158.092022 
L 479.786484 157.681084 
L 481.026254 157.396588 
L 482.679282 156.00572 
L 484.332309 155.278675 
L 485.158822 154.899348 
L 487.638363 153.919418 
L 488.05162 153.634922 
L 490.117904 152.939488 
L 494.250472 150.821576 
L 495.076986 150.442248 
L 495.490243 150.126141 
L 496.316756 149.841646 
L 498.38304 148.766884 
L 499.622811 148.324335 
L 500.862581 147.850176 
L 502.928865 147.05991 
L 503.755379 146.933467 
L 504.168635 146.648971 
L 505.821663 146.332865 
L 506.648176 145.985148 
L 508.301203 145.194882 
L 514.086799 142.60281 
L 515.326569 142.191872 
L 515.739826 141.907376 
L 516.56634 141.812544 
L 516.979596 141.528048 
L 517.80611 141.401606 
L 518.632624 140.990667 
L 519.04588 140.801004 
L 519.872394 140.579729 
L 520.698908 140.326844 
L 521.938678 139.852684 
L 523.178448 139.441746 
L 524.418219 139.15725 
L 526.071246 138.461816 
L 526.89776 138.019267 
L 528.550787 137.16578 
L 529.3773 136.976116 
L 529.790557 136.723231 
L 530.203814 136.628399 
L 531.443585 135.901355 
L 532.270098 135.553638 
L 537.642437 133.530557 
L 538.055693 133.467336 
L 539.708721 132.67707 
L 540.535234 132.519017 
L 541.361748 132.044857 
L 543.014775 131.254591 
L 547.147343 129.610838 
L 547.973857 129.1999 
L 548.387113 129.105068 
L 548.80037 128.883793 
L 550.453398 128.409634 
L 552.106425 127.018766 
L 552.519682 126.892323 
L 552.932938 126.639438 
L 554.172709 126.291721 
L 554.585966 125.975615 
L 554.999222 125.880783 
L 556.238993 125.122127 
L 556.65225 124.837632 
L 557.89202 124.363472 
L 558.305277 124.142198 
L 559.545047 123.857702 
L 561.611331 123.130657 
L 562.437845 122.877772 
L 563.677615 122.213949 
L 564.504129 121.803011 
L 565.330642 121.581736 
L 566.570413 120.981134 
L 570.702981 119.30577 
L 572.769265 118.29423 
L 573.595779 117.978123 
L 574.009035 117.598796 
L 574.835549 117.251079 
L 576.075319 116.80853 
L 576.488576 116.460813 
L 576.901833 116.429202 
L 577.728347 116.176317 
L 578.55486 115.891821 
L 578.968117 115.702158 
L 579.381374 115.638936 
L 580.207887 115.291219 
L 581.447658 115.006724 
L 582.274171 114.532564 
L 582.687428 114.374511 
L 583.100685 114.058404 
L 584.340455 113.742298 
L 584.753712 113.489413 
L 585.580226 113.268138 
L 586.819996 112.572704 
L 587.233253 112.541094 
L 588.473024 112.130156 
L 589.299537 112.066934 
L 589.712794 111.84566 
L 590.539308 111.624385 
L 590.952564 111.403111 
L 593.018848 110.992173 
L 593.845362 110.834119 
L 595.085132 110.35996 
L 596.324903 110.075464 
L 597.564673 109.411641 
L 597.97793 109.032313 
L 599.2177 108.273658 
L 599.630957 107.957551 
L 600.870728 107.546613 
L 601.697241 107.325339 
L 604.176782 106.187356 
L 604.590039 106.124134 
L 605.416552 105.713196 
L 607.06958 105.270647 
L 607.896093 104.89132 
L 608.30935 104.670045 
L 609.135864 104.41716 
L 609.549121 104.195886 
L 610.375634 104.037832 
L 613.681689 102.583743 
L 614.094945 102.520522 
L 615.334716 101.698645 
L 615.747973 101.635424 
L 617.401 100.971601 
L 619.054027 100.560662 
L 619.467284 100.497441 
L 619.880541 100.307777 
L 620.293797 100.276167 
L 621.120311 99.991671 
L 621.533568 99.96006 
L 622.773338 99.485901 
L 624.426365 99.011741 
L 625.252879 98.379528 
L 626.905906 97.46282 
L 627.319163 97.367988 
L 627.73242 97.146713 
L 628.558934 96.862218 
L 628.97219 96.735775 
L 629.385447 96.388058 
L 630.625218 95.913899 
L 631.451731 95.439739 
L 631.864988 95.218465 
L 632.278245 94.839137 
L 634.344529 94.333367 
L 635.584299 93.764375 
L 636.410813 93.543101 
L 636.82407 93.321826 
L 637.237326 92.974109 
L 638.890354 92.53156 
L 639.30361 92.215454 
L 644.675949 90.255595 
L 645.502463 90.097541 
L 647.568747 89.433718 
L 648.39526 89.086001 
L 649.221774 88.769895 
L 650.048287 88.54862 
L 650.461544 88.358956 
L 650.874801 88.358956 
L 651.701315 88.011239 
L 652.527828 87.53708 
L 655.420626 86.55715 
L 657.073653 85.988159 
L 658.313423 85.703663 
L 659.553194 85.292725 
L 659.966451 85.197893 
L 660.379707 84.913397 
L 661.206221 84.723733 
L 662.859248 84.249574 
L 663.272505 84.217963 
L 664.099019 83.838635 
L 666.991816 83.111591 
L 668.644844 82.510988 
L 669.0581 82.510988 
L 670.297871 82.226493 
L 671.124384 82.06844 
L 671.950898 81.847165 
L 673.190668 81.183342 
L 674.430439 80.804014 
L 677.323236 79.824084 
L 677.736493 79.60281 
L 678.14975 79.507978 
L 679.38952 78.875765 
L 680.216034 78.717712 
L 681.042548 78.464827 
L 681.869061 78.053889 
L 682.282318 77.706172 
L 683.108832 77.453287 
L 683.522089 77.200401 
L 684.348602 77.105569 
L 687.2414 76.283693 
L 688.48117 76.030808 
L 689.720941 75.714701 
L 690.547454 75.525038 
L 691.787225 74.892825 
L 693.440252 74.260612 
L 694.266765 73.818063 
L 694.680022 73.786453 
L 695.506536 73.375514 
L 698.399333 72.553638 
L 699.639104 72.363974 
L 700.465617 72.111089 
L 701.705388 71.731761 
L 705.424699 70.68861 
L 706.251213 70.467336 
L 706.66447 70.372504 
L 707.077726 70.119619 
L 707.90424 69.961565 
L 708.730754 69.866734 
L 709.14401 69.645459 
L 709.557267 69.613848 
L 710.383781 69.076468 
L 712.036808 68.728751 
L 712.863322 68.381034 
L 713.689835 68.096538 
L 714.516349 67.875263 
L 715.342862 67.527546 
L 716.169376 67.243051 
L 717.822403 66.768891 
L 718.648917 66.70567 
L 719.47543 66.421174 
L 719.888687 66.263121 
L 720.715201 66.136678 
L 722.368228 65.409634 
L 722.781485 65.346412 
L 723.194742 65.125138 
L 724.021255 64.967085 
L 724.847769 64.903864 
L 727.32731 64.271651 
L 728.153823 63.923934 
L 728.56708 63.860712 
L 728.980337 63.639438 
L 729.806851 62.944004 
L 735.179189 60.984145 
L 736.418959 60.699649 
L 736.832216 60.383542 
L 738.071987 59.846162 
L 738.8985 59.403613 
L 739.311757 59.308781 
L 739.725014 58.992674 
L 740.964784 58.644957 
L 741.378041 58.423683 
L 742.204555 58.139187 
L 743.031068 57.79147 
L 744.684096 56.716708 
L 745.097352 56.621877 
L 746.337123 55.989664 
L 746.75038 55.8 
L 747.163636 55.8 
L 747.163636 55.8 
" clip-path="url(#p6a4e144c8c)" style="fill: none; stroke: #1f77b4; stroke-width: 1.5; stroke-linecap: square"/>
   </g>
   <g id="line2d_38">
    <path d="M 138.84962 307.8 
L 142.568932 307.705168 
L 145.874986 307.547115 
L 147.528013 307.547115 
L 147.94127 307.420672 
L 150.007554 307.32584 
L 152.487095 307.041345 
L 154.966636 306.946513 
L 155.793149 306.851681 
L 158.685947 306.725238 
L 161.578745 306.630406 
L 163.645029 306.567185 
L 169.017367 306.472353 
L 171.083651 306.409132 
L 174.802962 306.3143 
L 176.45599 306.282689 
L 180.588558 306.187858 
L 182.241585 306.029804 
L 183.894612 305.998194 
L 186.374153 305.903362 
L 188.02718 305.871751 
L 190.093464 305.80853 
L 191.746491 305.650477 
L 195.465803 305.555645 
L 196.292316 305.492423 
L 197.945343 305.397592 
L 200.424884 305.30276 
L 202.077911 305.207928 
L 209.516534 304.733768 
L 212.409332 304.638936 
L 213.649102 304.512494 
L 215.715386 304.417662 
L 219.847954 304.196387 
L 223.980522 304.133166 
L 225.633549 303.943502 
L 227.699833 303.84867 
L 231.832401 303.437732 
L 234.311942 303.121626 
L 235.964969 303.058404 
L 239.271024 302.615855 
L 241.750565 302.552634 
L 242.990335 302.426192 
L 244.230106 302.33136 
L 255.801296 301.414651 
L 256.62781 301.256598 
L 259.10735 301.161766 
L 265.719459 300.750828 
L 268.612257 300.655996 
L 270.265284 300.466332 
L 272.331568 300.3715 
L 274.811109 300.276668 
L 276.877393 300.181836 
L 278.53042 300.150226 
L 280.596704 300.087005 
L 281.423218 299.960562 
L 287.208813 299.86573 
L 288.035327 299.770898 
L 292.994408 299.676066 
L 296.71372 299.486402 
L 299.606517 299.39157 
L 301.259545 299.201907 
L 304.152342 299.107075 
L 304.978856 298.980632 
L 307.04514 298.917411 
L 311.177708 298.85419 
L 312.830735 298.696136 
L 314.483762 298.664526 
L 315.723533 298.569694 
L 317.37656 298.411641 
L 321.509128 298.190366 
L 325.641696 298.095534 
L 329.361007 297.905871 
L 330.600778 297.87426 
L 331.427291 297.747817 
L 333.493575 297.652985 
L 334.320089 297.589764 
L 335.146602 297.526543 
L 335.973116 297.463322 
L 340.105684 297.36849 
L 349.197334 296.767888 
L 350.023847 296.704666 
L 351.263618 296.609834 
L 354.156415 296.515003 
L 356.2227 296.451781 
L 362.008295 296.356949 
L 362.834808 296.230507 
L 368.620404 296.135675 
L 372.752972 295.9144 
L 373.579485 295.88279 
L 374.405999 295.787958 
L 376.472283 295.693126 
L 378.538567 295.629905 
L 380.604851 295.535073 
L 382.671135 295.471851 
L 386.390446 295.37702 
L 388.869987 295.282188 
L 394.655582 295.187356 
L 399.201407 294.934471 
L 400.854434 294.871249 
L 402.094205 294.776417 
L 407.8798 294.681586 
L 410.359341 294.586754 
L 417.797963 294.491922 
L 419.450991 294.460311 
L 424.410072 294.39709 
L 425.236586 294.333869 
L 431.022181 294.239037 
L 432.675208 294.207426 
L 443.419885 294.112594 
L 445.899426 294.017762 
L 463.256212 293.92293 
L 465.322496 293.859709 
L 476.067173 293.796488 
L 476.893686 293.733266 
L 478.95997 293.670045 
L 480.199741 293.543603 
L 482.679282 293.448771 
L 485.572079 293.322328 
L 489.29139 293.227496 
L 491.357675 293.164275 
L 494.250472 293.069443 
L 497.556527 292.91139 
L 499.622811 292.816558 
L 501.275838 292.784947 
L 508.301203 292.690115 
L 510.780744 292.595283 
L 515.326569 292.500452 
L 518.219367 292.374009 
L 521.112164 292.310788 
L 521.938678 292.247566 
L 531.856841 292.152735 
L 535.989409 291.93146 
L 538.882207 291.836628 
L 543.428032 291.583743 
L 546.320829 291.488911 
L 547.973857 291.457301 
L 550.866654 291.362469 
L 552.932938 291.141194 
L 557.065506 291.046362 
L 557.89202 290.95153 
L 562.024588 290.856698 
L 564.090872 290.793477 
L 568.636697 290.761867 
L 569.463211 290.667035 
L 574.009035 290.572203 
L 574.835549 290.508981 
L 583.927199 290.41415 
L 586.406739 290.319318 
L 592.605592 290.224486 
L 594.258619 290.192875 
L 597.97793 290.129654 
L 598.804444 290.034822 
L 604.176782 289.93999 
L 606.243066 289.876769 
L 613.681689 289.781937 
L 614.921459 289.687105 
L 616.161229 289.592273 
L 617.401 289.497441 
L 623.599852 289.402609 
L 626.079393 289.307777 
L 637.237326 289.212945 
L 640.956638 289.023281 
L 645.915719 288.96006 
L 646.742233 288.896839 
L 652.941085 288.833618 
L 653.767599 288.770396 
L 658.313423 288.675564 
L 659.966451 288.643954 
L 666.991816 288.549122 
L 667.81833 288.485901 
L 675.256952 288.391069 
L 676.90998 288.359458 
L 680.629291 288.264626 
L 683.935345 288.106573 
L 688.48117 288.011741 
L 691.373968 287.885299 
L 695.093279 287.790467 
L 695.919793 287.727245 
L 704.184929 287.632413 
L 706.251213 287.569192 
L 708.730754 287.47436 
L 711.210294 287.379528 
L 723.607999 287.284696 
L 726.500796 287.158254 
L 731.459878 287.063422 
L 733.112905 287.031811 
L 739.725014 286.936979 
L 740.964784 286.842148 
L 744.270839 286.747316 
L 747.163636 286.620873 
L 747.163636 286.620873 
" clip-path="url(#p6a4e144c8c)" style="fill: none; stroke: #ff7f0e; stroke-width: 1.5; stroke-linecap: square"/>
   </g>
   <g id="patch_3">
    <path d="M 108 320.4 
L 108 43.2 
" style="fill: none; stroke: #a9a9a9; stroke-width: 0.8; stroke-linejoin: miter; stroke-linecap: square"/>
   </g>
   <g id="patch_4">
    <path d="M 777.6 320.4 
L 777.6 43.2 
" style="fill: none"/>
   </g>
   <g id="patch_5">
    <path d="M 108 320.4 
L 777.6 320.4 
" style="fill: none; stroke: #a9a9a9; stroke-width: 0.8; stroke-linejoin: miter; stroke-linecap: square"/>
   </g>
   <g id="patch_6">
    <path d="M 108 43.2 
L 777.6 43.2 
" style="fill: none"/>
   </g>
   <g id="text_19">
    <!-- get_subscribe history -->
    <g style="fill: #a9a9a9" transform="translate(378.6075 37.2) scale(0.12 -0.12)">
     <defs>
      <path id="DejaVuSans-67" d="M 2906 1791 
Q 2906 2416 2648 2759 
Q 2391 3103 1925 3103 
Q 1463 3103 1205 2759 
Q 947 2416 947 1791 
Q 947 1169 1205 825 
Q 1463 481 1925 481 
Q 2391 481 2648 825 
Q 2906 1169 2906 1791 
z
M 3481 434 
Q 3481 -459 3084 -895 
Q 2688 -1331 1869 -1331 
Q 1566 -1331 1297 -1286 
Q 1028 -1241 775 -1147 
L 775 -588 
Q 1028 -725 1275 -790 
Q 1522 -856 1778 -856 
Q 2344 -856 2625 -561 
Q 2906 -266 2906 331 
L 2906 616 
Q 2728 306 2450 153 
Q 2172 0 1784 0 
Q 1141 0 747 490 
Q 353 981 353 1791 
Q 353 2603 747 3093 
Q 1141 3584 1784 3584 
Q 2172 3584 2450 3431 
Q 2728 3278 2906 2969 
L 2906 3500 
L 3481 3500 
L 3481 434 
z
" transform="scale(0.015625)"/>
      <path id="DejaVuSans-65" d="M 3597 1894 
L 3597 1613 
L 953 1613 
Q 991 1019 1311 708 
Q 1631 397 2203 397 
Q 2534 397 2845 478 
Q 3156 559 3463 722 
L 3463 178 
Q 3153 47 2828 -22 
Q 2503 -91 2169 -91 
Q 1331 -91 842 396 
Q 353 884 353 1716 
Q 353 2575 817 3079 
Q 1281 3584 2069 3584 
Q 2775 3584 3186 3129 
Q 3597 2675 3597 1894 
z
M 3022 2063 
Q 3016 2534 2758 2815 
Q 2500 3097 2075 3097 
Q 1594 3097 1305 2825 
Q 1016 2553 972 2059 
L 3022 2063 
z
" transform="scale(0.015625)"/>
      <path id="DejaVuSans-74" d="M 1172 4494 
L 1172 3500 
L 2356 3500 
L 2356 3053 
L 1172 3053 
L 1172 1153 
Q 1172 725 1289 603 
Q 1406 481 1766 481 
L 2356 481 
L 2356 0 
L 1766 0 
Q 1100 0 847 248 
Q 594 497 594 1153 
L 594 3053 
L 172 3053 
L 172 3500 
L 594 3500 
L 594 4494 
L 1172 4494 
z
" transform="scale(0.015625)"/>
      <path id="DejaVuSans-5f" d="M 3263 -1063 
L 3263 -1509 
L -63 -1509 
L -63 -1063 
L 3263 -1063 
z
" transform="scale(0.015625)"/>
      <path id="DejaVuSans-73" d="M 2834 3397 
L 2834 2853 
Q 2591 2978 2328 3040 
Q 2066 3103 1784 3103 
Q 1356 3103 1142 2972 
Q 928 2841 928 2578 
Q 928 2378 1081 2264 
Q 1234 2150 1697 2047 
L 1894 2003 
Q 2506 1872 2764 1633 
Q 3022 1394 3022 966 
Q 3022 478 2636 193 
Q 2250 -91 1575 -91 
Q 1294 -91 989 -36 
Q 684 19 347 128 
L 347 722 
Q 666 556 975 473 
Q 1284 391 1588 391 
Q 1994 391 2212 530 
Q 2431 669 2431 922 
Q 2431 1156 2273 1281 
Q 2116 1406 1581 1522 
L 1381 1569 
Q 847 1681 609 1914 
Q 372 2147 372 2553 
Q 372 3047 722 3315 
Q 1072 3584 1716 3584 
Q 2034 3584 2315 3537 
Q 2597 3491 2834 3397 
z
" transform="scale(0.015625)"/>
      <path id="DejaVuSans-75" d="M 544 1381 
L 544 3500 
L 1119 3500 
L 1119 1403 
Q 1119 906 1312 657 
Q 1506 409 1894 409 
Q 2359 409 2629 706 
Q 2900 1003 2900 1516 
L 2900 3500 
L 3475 3500 
L 3475 0 
L 2900 0 
L 2900 538 
Q 2691 219 2414 64 
Q 2138 -91 1772 -91 
Q 1169 -91 856 284 
Q 544 659 544 1381 
z
M 1991 3584 
L 1991 3584 
z
" transform="scale(0.015625)"/>
      <path id="DejaVuSans-62" d="M 3116 1747 
Q 3116 2381 2855 2742 
Q 2594 3103 2138 3103 
Q 1681 3103 1420 2742 
Q 1159 2381 1159 1747 
Q 1159 1113 1420 752 
Q 1681 391 2138 391 
Q 2594 391 2855 752 
Q 3116 1113 3116 1747 
z
M 1159 2969 
Q 1341 3281 1617 3432 
Q 1894 3584 2278 3584 
Q 2916 3584 3314 3078 
Q 3713 2572 3713 1747 
Q 3713 922 3314 415 
Q 2916 -91 2278 -91 
Q 1894 -91 1617 61 
Q 1341 213 1159 525 
L 1159 0 
L 581 0 
L 581 4863 
L 1159 4863 
L 1159 2969 
z
" transform="scale(0.015625)"/>
      <path id="DejaVuSans-63" d="M 3122 3366 
L 3122 2828 
Q 2878 2963 2633 3030 
Q 2388 3097 2138 3097 
Q 1578 3097 1268 2742 
Q 959 2388 959 1747 
Q 959 1106 1268 751 
Q 1578 397 2138 397 
Q 2388 397 2633 464 
Q 2878 531 3122 666 
L 3122 134 
Q 2881 22 2623 -34 
Q 2366 -91 2075 -91 
Q 1284 -91 818 406 
Q 353 903 353 1747 
Q 353 2603 823 3093 
Q 1294 3584 2113 3584 
Q 2378 3584 2631 3529 
Q 2884 3475 3122 3366 
z
" transform="scale(0.015625)"/>
      <path id="DejaVuSans-72" d="M 2631 2963 
Q 2534 3019 2420 3045 
Q 2306 3072 2169 3072 
Q 1681 3072 1420 2755 
Q 1159 2438 1159 1844 
L 1159 0 
L 581 0 
L 581 3500 
L 1159 3500 
L 1159 2956 
Q 1341 3275 1631 3429 
Q 1922 3584 2338 3584 
Q 2397 3584 2469 3576 
Q 2541 3569 2628 3553 
L 2631 2963 
z
" transform="scale(0.015625)"/>
      <path id="DejaVuSans-69" d="M 603 3500 
L 1178 3500 
L 1178 0 
L 603 0 
L 603 3500 
z
M 603 4863 
L 1178 4863 
L 1178 4134 
L 603 4134 
L 603 4863 
z
" transform="scale(0.015625)"/>
      <path id="DejaVuSans-20" transform="scale(0.015625)"/>
      <path id="DejaVuSans-68" d="M 3513 2113 
L 3513 0 
L 2938 0 
L 2938 2094 
Q 2938 2591 2744 2837 
Q 2550 3084 2163 3084 
Q 1697 3084 1428 2787 
Q 1159 2491 1159 1978 
L 1159 0 
L 581 0 
L 581 4863 
L 1159 4863 
L 1159 2956 
Q 1366 3272 1645 3428 
Q 1925 3584 2291 3584 
Q 2894 3584 3203 3211 
Q 3513 2838 3513 2113 
z
" transform="scale(0.015625)"/>
      <path id="DejaVuSans-6f" d="M 1959 3097 
Q 1497 3097 1228 2736 
Q 959 2375 959 1747 
Q 959 1119 1226 758 
Q 1494 397 1959 397 
Q 2419 397 2687 759 
Q 2956 1122 2956 1747 
Q 2956 2369 2687 2733 
Q 2419 3097 1959 3097 
z
M 1959 3584 
Q 2709 3584 3137 3096 
Q 3566 2609 3566 1747 
Q 3566 888 3137 398 
Q 2709 -91 1959 -91 
Q 1206 -91 779 398 
Q 353 888 353 1747 
Q 353 2609 779 3096 
Q 1206 3584 1959 3584 
z
" transform="scale(0.015625)"/>
      <path id="DejaVuSans-79" d="M 2059 -325 
Q 1816 -950 1584 -1140 
Q 1353 -1331 966 -1331 
L 506 -1331 
L 506 -850 
L 844 -850 
Q 1081 -850 1212 -737 
Q 1344 -625 1503 -206 
L 1606 56 
L 191 3500 
L 800 3500 
L 1894 763 
L 2988 3500 
L 3597 3500 
L 2059 -325 
z
" transform="scale(0.015625)"/>
     </defs>
     <use xlink:href="#DejaVuSans-67"/>
     <use xlink:href="#DejaVuSans-65" transform="translate(63.476562 0)"/>
     <use xlink:href="#DejaVuSans-74" transform="translate(125 0)"/>
     <use xlink:href="#DejaVuSans-5f" transform="translate(164.208984 0)"/>
     <use xlink:href="#DejaVuSans-73" transform="translate(214.208984 0)"/>
     <use xlink:href="#DejaVuSans-75" transform="translate(266.308594 0)"/>
     <use xlink:href="#DejaVuSans-62" transform="translate(329.6875 0)"/>
     <use xlink:href="#DejaVuSans-73" transform="translate(393.164062 0)"/>
     <use xlink:href="#DejaVuSans-63" transform="translate(445.263672 0)"/>
     <use xlink:href="#DejaVuSans-72" transform="translate(500.244141 0)"/>
     <use xlink:href="#DejaVuSans-69" transform="translate(541.357422 0)"/>
     <use xlink:href="#DejaVuSans-62" transform="translate(569.140625 0)"/>
     <use xlink:href="#DejaVuSans-65" transform="translate(632.617188 0)"/>
     <use xlink:href="#DejaVuSans-20" transform="translate(694.140625 0)"/>
     <use xlink:href="#DejaVuSans-68" transform="translate(725.927734 0)"/>
     <use xlink:href="#DejaVuSans-69" transform="translate(789.306641 0)"/>
     <use xlink:href="#DejaVuSans-73" transform="translate(817.089844 0)"/>
     <use xlink:href="#DejaVuSans-74" transform="translate(869.189453 0)"/>
     <use xlink:href="#DejaVuSans-6f" transform="translate(908.398438 0)"/>
     <use xlink:href="#DejaVuSans-72" transform="translate(969.580078 0)"/>
     <use xlink:href="#DejaVuSans-79" transform="translate(1010.693359 0)"/>
    </g>
   </g>
   <g id="legend_1">
    <g id="line2d_39">
     <path d="M 815.08 328.498438 
L 825.08 328.498438 
L 835.08 328.498438 
" style="fill: none; stroke: #1f77b4; stroke-width: 1.5; stroke-linecap: square"/>
    </g>
    <g id="text_20">
     <!-- star -->
     <g style="fill: #a9a9a9" transform="translate(843.08 331.998438) scale(0.1 -0.1)">
      <defs>
       <path id="DejaVuSans-61" d="M 2194 1759 
Q 1497 1759 1228 1600 
Q 959 1441 959 1056 
Q 959 750 1161 570 
Q 1363 391 1709 391 
Q 2188 391 2477 730 
Q 2766 1069 2766 1631 
L 2766 1759 
L 2194 1759 
z
M 3341 1997 
L 3341 0 
L 2766 0 
L 2766 531 
Q 2569 213 2275 61 
Q 1981 -91 1556 -91 
Q 1019 -91 701 211 
Q 384 513 384 1019 
Q 384 1609 779 1909 
Q 1175 2209 1959 2209 
L 2766 2209 
L 2766 2266 
Q 2766 2663 2505 2880 
Q 2244 3097 1772 3097 
Q 1472 3097 1187 3025 
Q 903 2953 641 2809 
L 641 3341 
Q 956 3463 1253 3523 
Q 1550 3584 1831 3584 
Q 2591 3584 2966 3190 
Q 3341 2797 3341 1997 
z
" transform="scale(0.015625)"/>
      </defs>
      <use xlink:href="#DejaVuSans-73"/>
      <use xlink:href="#DejaVuSans-74" transform="translate(52.099609 0)"/>
      <use xlink:href="#DejaVuSans-61" transform="translate(91.308594 0)"/>
      <use xlink:href="#DejaVuSans-72" transform="translate(152.587891 0)"/>
     </g>
    </g>
    <g id="line2d_40">
     <path d="M 815.08 343.176562 
L 825.08 343.176562 
L 835.08 343.176562 
" style="fill: none; stroke: #ff7f0e; stroke-width: 1.5; stroke-linecap: square"/>
    </g>
    <g id="text_21">
     <!-- fork -->
     <g style="fill: #a9a9a9" transform="translate(843.08 346.676562) scale(0.1 -0.1)">
      <defs>
       <path id="DejaVuSans-66" d="M 2375 4863 
L 2375 4384 
L 1825 4384 
Q 1516 4384 1395 4259 
Q 1275 4134 1275 3809 
L 1275 3500 
L 2222 3500 
L 2222 3053 
L 1275 3053 
L 1275 0 
L 697 0 
L 697 3053 
L 147 3053 
L 147 3500 
L 697 3500 
L 697 3744 
Q 697 4328 969 4595 
Q 1241 4863 1831 4863 
L 2375 4863 
z
" transform="scale(0.015625)"/>
       <path id="DejaVuSans-6b" d="M 581 4863 
L 1159 4863 
L 1159 1991 
L 2875 3500 
L 3609 3500 
L 1753 1863 
L 3688 0 
L 2938 0 
L 1159 1709 
L 1159 0 
L 581 0 
L 581 4863 
z
" transform="scale(0.015625)"/>
      </defs>
      <use xlink:href="#DejaVuSans-66"/>
      <use xlink:href="#DejaVuSans-6f" transform="translate(35.205078 0)"/>
      <use xlink:href="#DejaVuSans-72" transform="translate(96.386719 0)"/>
      <use xlink:href="#DejaVuSans-6b" transform="translate(137.5 0)"/>
     </g>
    </g>
   </g>
  </g>
 </g>
 <defs>
  <clipPath id="p6a4e144c8c">
   <rect x="108" y="43.2" width="669.6" height="277.2"/>
  </clipPath>
 </defs>
</svg>
