<?xml version="1.0" encoding="utf-8" standalone="no"?>
<!DOCTYPE svg PUBLIC "-//W3C//DTD SVG 1.1//EN"
  "http://www.w3.org/Graphics/SVG/1.1/DTD/svg11.dtd">
<svg xmlns:xlink="http://www.w3.org/1999/xlink" width="864pt" height="360pt" viewBox="0 0 864 360" xmlns="http://www.w3.org/2000/svg" version="1.1">
 <metadata>
  <rdf:RDF xmlns:dc="http://purl.org/dc/elements/1.1/" xmlns:cc="http://creativecommons.org/ns#" xmlns:rdf="http://www.w3.org/1999/02/22-rdf-syntax-ns#">
   <cc:Work>
    <dc:type rdf:resource="http://purl.org/dc/dcmitype/StillImage"/>
    <dc:date>2025-08-07T20:07:46.129447</dc:date>
    <dc:format>image/svg+xml</dc:format>
    <dc:creator>
     <cc:Agent>
      <dc:title>Matplotlib v3.10.5, https://matplotlib.org/</dc:title>
     </cc:Agent>
    </dc:creator>
   </cc:Work>
  </rdf:RDF>
 </metadata>
 <defs>
  <style type="text/css">*{stroke-linejoin: round; stroke-linecap: butt}</style>
 </defs>
 <g id="figure_1">
  <g id="patch_1">
   <path d="M 0 360 
L 864 360 
L 864 0 
L 0 0 
L 0 360 
z
" style="fill: none; opacity: 0"/>
  </g>
  <g id="axes_1">
   <g id="patch_2">
    <path d="M 108 320.4 
L 777.6 320.4 
L 777.6 43.2 
L 108 43.2 
L 108 320.4 
z
" style="fill: none; opacity: 0"/>
   </g>
   <g id="matplotlib.axis_1">
    <g id="xtick_1">
     <g id="line2d_1">
      <path d="M 128.944345 320.4 
L 128.944345 43.2 
" clip-path="url(#p33b7477600)" style="fill: none; stroke-dasharray: 5.12,1.28,0.8,1.28; stroke-dashoffset: 0; stroke: #b0b0b0; stroke-width: 0.8"/>
     </g>
     <g id="line2d_2">
      <defs>
       <path id="m8810d71994" d="M 0 0 
L 0 3.5 
" style="stroke: #a9a9a9; stroke-width: 0.8"/>
      </defs>
      <g>
       <use xlink:href="#m8810d71994" x="128.944345" y="320.4" style="fill: #a9a9a9; stroke: #a9a9a9; stroke-width: 0.8"/>
      </g>
     </g>
     <g id="text_1">
      <!-- 2021-07 -->
      <g style="fill: #a9a9a9" transform="translate(108.052939 334.998438) scale(0.1 -0.1)">
       <defs>
        <path id="DejaVuSans-32" d="M 1228 531 
L 3431 531 
L 3431 0 
L 469 0 
L 469 531 
Q 828 903 1448 1529 
Q 2069 2156 2228 2338 
Q 2531 2678 2651 2914 
Q 2772 3150 2772 3378 
Q 2772 3750 2511 3984 
Q 2250 4219 1831 4219 
Q 1534 4219 1204 4116 
Q 875 4013 500 3803 
L 500 4441 
Q 881 4594 1212 4672 
Q 1544 4750 1819 4750 
Q 2544 4750 2975 4387 
Q 3406 4025 3406 3419 
Q 3406 3131 3298 2873 
Q 3191 2616 2906 2266 
Q 2828 2175 2409 1742 
Q 1991 1309 1228 531 
z
" transform="scale(0.015625)"/>
        <path id="DejaVuSans-30" d="M 2034 4250 
Q 1547 4250 1301 3770 
Q 1056 3291 1056 2328 
Q 1056 1369 1301 889 
Q 1547 409 2034 409 
Q 2525 409 2770 889 
Q 3016 1369 3016 2328 
Q 3016 3291 2770 3770 
Q 2525 4250 2034 4250 
z
M 2034 4750 
Q 2819 4750 3233 4129 
Q 3647 3509 3647 2328 
Q 3647 1150 3233 529 
Q 2819 -91 2034 -91 
Q 1250 -91 836 529 
Q 422 1150 422 2328 
Q 422 3509 836 4129 
Q 1250 4750 2034 4750 
z
" transform="scale(0.015625)"/>
        <path id="DejaVuSans-31" d="M 794 531 
L 1825 531 
L 1825 4091 
L 703 3866 
L 703 4441 
L 1819 4666 
L 2450 4666 
L 2450 531 
L 3481 531 
L 3481 0 
L 794 0 
L 794 531 
z
" transform="scale(0.015625)"/>
        <path id="DejaVuSans-2d" d="M 313 2009 
L 1997 2009 
L 1997 1497 
L 313 1497 
L 313 2009 
z
" transform="scale(0.015625)"/>
        <path id="DejaVuSans-37" d="M 525 4666 
L 3525 4666 
L 3525 4397 
L 1831 0 
L 1172 0 
L 2766 4134 
L 525 4134 
L 525 4666 
z
" transform="scale(0.015625)"/>
       </defs>
       <use xlink:href="#DejaVuSans-32"/>
       <use xlink:href="#DejaVuSans-30" transform="translate(63.623047 0)"/>
       <use xlink:href="#DejaVuSans-32" transform="translate(127.246094 0)"/>
       <use xlink:href="#DejaVuSans-31" transform="translate(190.869141 0)"/>
       <use xlink:href="#DejaVuSans-2d" transform="translate(254.492188 0)"/>
       <use xlink:href="#DejaVuSans-30" transform="translate(290.576172 0)"/>
       <use xlink:href="#DejaVuSans-37" transform="translate(354.199219 0)"/>
      </g>
     </g>
    </g>
    <g id="xtick_2">
     <g id="line2d_3">
      <path d="M 204.880493 320.4 
L 204.880493 43.2 
" clip-path="url(#p33b7477600)" style="fill: none; stroke-dasharray: 5.12,1.28,0.8,1.28; stroke-dashoffset: 0; stroke: #b0b0b0; stroke-width: 0.8"/>
     </g>
     <g id="line2d_4">
      <g>
       <use xlink:href="#m8810d71994" x="204.880493" y="320.4" style="fill: #a9a9a9; stroke: #a9a9a9; stroke-width: 0.8"/>
      </g>
     </g>
     <g id="text_2">
      <!-- 2022-01 -->
      <g style="fill: #a9a9a9" transform="translate(183.989087 334.998438) scale(0.1 -0.1)">
       <use xlink:href="#DejaVuSans-32"/>
       <use xlink:href="#DejaVuSans-30" transform="translate(63.623047 0)"/>
       <use xlink:href="#DejaVuSans-32" transform="translate(127.246094 0)"/>
       <use xlink:href="#DejaVuSans-32" transform="translate(190.869141 0)"/>
       <use xlink:href="#DejaVuSans-2d" transform="translate(254.492188 0)"/>
       <use xlink:href="#DejaVuSans-30" transform="translate(290.576172 0)"/>
       <use xlink:href="#DejaVuSans-31" transform="translate(354.199219 0)"/>
      </g>
     </g>
    </g>
    <g id="xtick_3">
     <g id="line2d_5">
      <path d="M 279.578552 320.4 
L 279.578552 43.2 
" clip-path="url(#p33b7477600)" style="fill: none; stroke-dasharray: 5.12,1.28,0.8,1.28; stroke-dashoffset: 0; stroke: #b0b0b0; stroke-width: 0.8"/>
     </g>
     <g id="line2d_6">
      <g>
       <use xlink:href="#m8810d71994" x="279.578552" y="320.4" style="fill: #a9a9a9; stroke: #a9a9a9; stroke-width: 0.8"/>
      </g>
     </g>
     <g id="text_3">
      <!-- 2022-07 -->
      <g style="fill: #a9a9a9" transform="translate(258.687145 334.998438) scale(0.1 -0.1)">
       <use xlink:href="#DejaVuSans-32"/>
       <use xlink:href="#DejaVuSans-30" transform="translate(63.623047 0)"/>
       <use xlink:href="#DejaVuSans-32" transform="translate(127.246094 0)"/>
       <use xlink:href="#DejaVuSans-32" transform="translate(190.869141 0)"/>
       <use xlink:href="#DejaVuSans-2d" transform="translate(254.492188 0)"/>
       <use xlink:href="#DejaVuSans-30" transform="translate(290.576172 0)"/>
       <use xlink:href="#DejaVuSans-37" transform="translate(354.199219 0)"/>
      </g>
     </g>
    </g>
    <g id="xtick_4">
     <g id="line2d_7">
      <path d="M 355.5147 320.4 
L 355.5147 43.2 
" clip-path="url(#p33b7477600)" style="fill: none; stroke-dasharray: 5.12,1.28,0.8,1.28; stroke-dashoffset: 0; stroke: #b0b0b0; stroke-width: 0.8"/>
     </g>
     <g id="line2d_8">
      <g>
       <use xlink:href="#m8810d71994" x="355.5147" y="320.4" style="fill: #a9a9a9; stroke: #a9a9a9; stroke-width: 0.8"/>
      </g>
     </g>
     <g id="text_4">
      <!-- 2023-01 -->
      <g style="fill: #a9a9a9" transform="translate(334.623293 334.998438) scale(0.1 -0.1)">
       <defs>
        <path id="DejaVuSans-33" d="M 2597 2516 
Q 3050 2419 3304 2112 
Q 3559 1806 3559 1356 
Q 3559 666 3084 287 
Q 2609 -91 1734 -91 
Q 1441 -91 1130 -33 
Q 819 25 488 141 
L 488 750 
Q 750 597 1062 519 
Q 1375 441 1716 441 
Q 2309 441 2620 675 
Q 2931 909 2931 1356 
Q 2931 1769 2642 2001 
Q 2353 2234 1838 2234 
L 1294 2234 
L 1294 2753 
L 1863 2753 
Q 2328 2753 2575 2939 
Q 2822 3125 2822 3475 
Q 2822 3834 2567 4026 
Q 2313 4219 1838 4219 
Q 1578 4219 1281 4162 
Q 984 4106 628 3988 
L 628 4550 
Q 988 4650 1302 4700 
Q 1616 4750 1894 4750 
Q 2613 4750 3031 4423 
Q 3450 4097 3450 3541 
Q 3450 3153 3228 2886 
Q 3006 2619 2597 2516 
z
" transform="scale(0.015625)"/>
       </defs>
       <use xlink:href="#DejaVuSans-32"/>
       <use xlink:href="#DejaVuSans-30" transform="translate(63.623047 0)"/>
       <use xlink:href="#DejaVuSans-32" transform="translate(127.246094 0)"/>
       <use xlink:href="#DejaVuSans-33" transform="translate(190.869141 0)"/>
       <use xlink:href="#DejaVuSans-2d" transform="translate(254.492188 0)"/>
       <use xlink:href="#DejaVuSans-30" transform="translate(290.576172 0)"/>
       <use xlink:href="#DejaVuSans-31" transform="translate(354.199219 0)"/>
      </g>
     </g>
    </g>
    <g id="xtick_5">
     <g id="line2d_9">
      <path d="M 430.212758 320.4 
L 430.212758 43.2 
" clip-path="url(#p33b7477600)" style="fill: none; stroke-dasharray: 5.12,1.28,0.8,1.28; stroke-dashoffset: 0; stroke: #b0b0b0; stroke-width: 0.8"/>
     </g>
     <g id="line2d_10">
      <g>
       <use xlink:href="#m8810d71994" x="430.212758" y="320.4" style="fill: #a9a9a9; stroke: #a9a9a9; stroke-width: 0.8"/>
      </g>
     </g>
     <g id="text_5">
      <!-- 2023-07 -->
      <g style="fill: #a9a9a9" transform="translate(409.321352 334.998438) scale(0.1 -0.1)">
       <use xlink:href="#DejaVuSans-32"/>
       <use xlink:href="#DejaVuSans-30" transform="translate(63.623047 0)"/>
       <use xlink:href="#DejaVuSans-32" transform="translate(127.246094 0)"/>
       <use xlink:href="#DejaVuSans-33" transform="translate(190.869141 0)"/>
       <use xlink:href="#DejaVuSans-2d" transform="translate(254.492188 0)"/>
       <use xlink:href="#DejaVuSans-30" transform="translate(290.576172 0)"/>
       <use xlink:href="#DejaVuSans-37" transform="translate(354.199219 0)"/>
      </g>
     </g>
    </g>
    <g id="xtick_6">
     <g id="line2d_11">
      <path d="M 506.148906 320.4 
L 506.148906 43.2 
" clip-path="url(#p33b7477600)" style="fill: none; stroke-dasharray: 5.12,1.28,0.8,1.28; stroke-dashoffset: 0; stroke: #b0b0b0; stroke-width: 0.8"/>
     </g>
     <g id="line2d_12">
      <g>
       <use xlink:href="#m8810d71994" x="506.148906" y="320.4" style="fill: #a9a9a9; stroke: #a9a9a9; stroke-width: 0.8"/>
      </g>
     </g>
     <g id="text_6">
      <!-- 2024-01 -->
      <g style="fill: #a9a9a9" transform="translate(485.2575 334.998438) scale(0.1 -0.1)">
       <defs>
        <path id="DejaVuSans-34" d="M 2419 4116 
L 825 1625 
L 2419 1625 
L 2419 4116 
z
M 2253 4666 
L 3047 4666 
L 3047 1625 
L 3713 1625 
L 3713 1100 
L 3047 1100 
L 3047 0 
L 2419 0 
L 2419 1100 
L 313 1100 
L 313 1709 
L 2253 4666 
z
" transform="scale(0.015625)"/>
       </defs>
       <use xlink:href="#DejaVuSans-32"/>
       <use xlink:href="#DejaVuSans-30" transform="translate(63.623047 0)"/>
       <use xlink:href="#DejaVuSans-32" transform="translate(127.246094 0)"/>
       <use xlink:href="#DejaVuSans-34" transform="translate(190.869141 0)"/>
       <use xlink:href="#DejaVuSans-2d" transform="translate(254.492188 0)"/>
       <use xlink:href="#DejaVuSans-30" transform="translate(290.576172 0)"/>
       <use xlink:href="#DejaVuSans-31" transform="translate(354.199219 0)"/>
      </g>
     </g>
    </g>
    <g id="xtick_7">
     <g id="line2d_13">
      <path d="M 581.259661 320.4 
L 581.259661 43.2 
" clip-path="url(#p33b7477600)" style="fill: none; stroke-dasharray: 5.12,1.28,0.8,1.28; stroke-dashoffset: 0; stroke: #b0b0b0; stroke-width: 0.8"/>
     </g>
     <g id="line2d_14">
      <g>
       <use xlink:href="#m8810d71994" x="581.259661" y="320.4" style="fill: #a9a9a9; stroke: #a9a9a9; stroke-width: 0.8"/>
      </g>
     </g>
     <g id="text_7">
      <!-- 2024-07 -->
      <g style="fill: #a9a9a9" transform="translate(560.368255 334.998438) scale(0.1 -0.1)">
       <use xlink:href="#DejaVuSans-32"/>
       <use xlink:href="#DejaVuSans-30" transform="translate(63.623047 0)"/>
       <use xlink:href="#DejaVuSans-32" transform="translate(127.246094 0)"/>
       <use xlink:href="#DejaVuSans-34" transform="translate(190.869141 0)"/>
       <use xlink:href="#DejaVuSans-2d" transform="translate(254.492188 0)"/>
       <use xlink:href="#DejaVuSans-30" transform="translate(290.576172 0)"/>
       <use xlink:href="#DejaVuSans-37" transform="translate(354.199219 0)"/>
      </g>
     </g>
    </g>
    <g id="xtick_8">
     <g id="line2d_15">
      <path d="M 657.195809 320.4 
L 657.195809 43.2 
" clip-path="url(#p33b7477600)" style="fill: none; stroke-dasharray: 5.12,1.28,0.8,1.28; stroke-dashoffset: 0; stroke: #b0b0b0; stroke-width: 0.8"/>
     </g>
     <g id="line2d_16">
      <g>
       <use xlink:href="#m8810d71994" x="657.195809" y="320.4" style="fill: #a9a9a9; stroke: #a9a9a9; stroke-width: 0.8"/>
      </g>
     </g>
     <g id="text_8">
      <!-- 2025-01 -->
      <g style="fill: #a9a9a9" transform="translate(636.304403 334.998438) scale(0.1 -0.1)">
       <defs>
        <path id="DejaVuSans-35" d="M 691 4666 
L 3169 4666 
L 3169 4134 
L 1269 4134 
L 1269 2991 
Q 1406 3038 1543 3061 
Q 1681 3084 1819 3084 
Q 2600 3084 3056 2656 
Q 3513 2228 3513 1497 
Q 3513 744 3044 326 
Q 2575 -91 1722 -91 
Q 1428 -91 1123 -41 
Q 819 9 494 109 
L 494 744 
Q 775 591 1075 516 
Q 1375 441 1709 441 
Q 2250 441 2565 725 
Q 2881 1009 2881 1497 
Q 2881 1984 2565 2268 
Q 2250 2553 1709 2553 
Q 1456 2553 1204 2497 
Q 953 2441 691 2322 
L 691 4666 
z
" transform="scale(0.015625)"/>
       </defs>
       <use xlink:href="#DejaVuSans-32"/>
       <use xlink:href="#DejaVuSans-30" transform="translate(63.623047 0)"/>
       <use xlink:href="#DejaVuSans-32" transform="translate(127.246094 0)"/>
       <use xlink:href="#DejaVuSans-35" transform="translate(190.869141 0)"/>
       <use xlink:href="#DejaVuSans-2d" transform="translate(254.492188 0)"/>
       <use xlink:href="#DejaVuSans-30" transform="translate(290.576172 0)"/>
       <use xlink:href="#DejaVuSans-31" transform="translate(354.199219 0)"/>
      </g>
     </g>
    </g>
    <g id="xtick_9">
     <g id="line2d_17">
      <path d="M 731.893867 320.4 
L 731.893867 43.2 
" clip-path="url(#p33b7477600)" style="fill: none; stroke-dasharray: 5.12,1.28,0.8,1.28; stroke-dashoffset: 0; stroke: #b0b0b0; stroke-width: 0.8"/>
     </g>
     <g id="line2d_18">
      <g>
       <use xlink:href="#m8810d71994" x="731.893867" y="320.4" style="fill: #a9a9a9; stroke: #a9a9a9; stroke-width: 0.8"/>
      </g>
     </g>
     <g id="text_9">
      <!-- 2025-07 -->
      <g style="fill: #a9a9a9" transform="translate(711.002461 334.998438) scale(0.1 -0.1)">
       <use xlink:href="#DejaVuSans-32"/>
       <use xlink:href="#DejaVuSans-30" transform="translate(63.623047 0)"/>
       <use xlink:href="#DejaVuSans-32" transform="translate(127.246094 0)"/>
       <use xlink:href="#DejaVuSans-35" transform="translate(190.869141 0)"/>
       <use xlink:href="#DejaVuSans-2d" transform="translate(254.492188 0)"/>
       <use xlink:href="#DejaVuSans-30" transform="translate(290.576172 0)"/>
       <use xlink:href="#DejaVuSans-37" transform="translate(354.199219 0)"/>
      </g>
     </g>
    </g>
   </g>
   <g id="matplotlib.axis_2">
    <g id="ytick_1">
     <g id="line2d_19">
      <path d="M 108 307.831579 
L 777.6 307.831579 
" clip-path="url(#p33b7477600)" style="fill: none; stroke-dasharray: 5.12,1.28,0.8,1.28; stroke-dashoffset: 0; stroke: #b0b0b0; stroke-width: 0.8"/>
     </g>
     <g id="line2d_20">
      <defs>
       <path id="m79e50eca9b" d="M 0 0 
L -3.5 0 
" style="stroke: #a9a9a9; stroke-width: 0.8"/>
      </defs>
      <g>
       <use xlink:href="#m79e50eca9b" x="108" y="307.831579" style="fill: #a9a9a9; stroke: #a9a9a9; stroke-width: 0.8"/>
      </g>
     </g>
     <g id="text_10">
      <!-- 0 -->
      <g style="fill: #a9a9a9" transform="translate(94.6375 311.630798) scale(0.1 -0.1)">
       <use xlink:href="#DejaVuSans-30"/>
      </g>
     </g>
    </g>
    <g id="ytick_2">
     <g id="line2d_21">
      <path d="M 108 276.252632 
L 777.6 276.252632 
" clip-path="url(#p33b7477600)" style="fill: none; stroke-dasharray: 5.12,1.28,0.8,1.28; stroke-dashoffset: 0; stroke: #b0b0b0; stroke-width: 0.8"/>
     </g>
     <g id="line2d_22">
      <g>
       <use xlink:href="#m79e50eca9b" x="108" y="276.252632" style="fill: #a9a9a9; stroke: #a9a9a9; stroke-width: 0.8"/>
      </g>
     </g>
     <g id="text_11">
      <!-- 1000 -->
      <g style="fill: #a9a9a9" transform="translate(75.55 280.05185) scale(0.1 -0.1)">
       <use xlink:href="#DejaVuSans-31"/>
       <use xlink:href="#DejaVuSans-30" transform="translate(63.623047 0)"/>
       <use xlink:href="#DejaVuSans-30" transform="translate(127.246094 0)"/>
       <use xlink:href="#DejaVuSans-30" transform="translate(190.869141 0)"/>
      </g>
     </g>
    </g>
    <g id="ytick_3">
     <g id="line2d_23">
      <path d="M 108 244.673684 
L 777.6 244.673684 
" clip-path="url(#p33b7477600)" style="fill: none; stroke-dasharray: 5.12,1.28,0.8,1.28; stroke-dashoffset: 0; stroke: #b0b0b0; stroke-width: 0.8"/>
     </g>
     <g id="line2d_24">
      <g>
       <use xlink:href="#m79e50eca9b" x="108" y="244.673684" style="fill: #a9a9a9; stroke: #a9a9a9; stroke-width: 0.8"/>
      </g>
     </g>
     <g id="text_12">
      <!-- 2000 -->
      <g style="fill: #a9a9a9" transform="translate(75.55 248.472903) scale(0.1 -0.1)">
       <use xlink:href="#DejaVuSans-32"/>
       <use xlink:href="#DejaVuSans-30" transform="translate(63.623047 0)"/>
       <use xlink:href="#DejaVuSans-30" transform="translate(127.246094 0)"/>
       <use xlink:href="#DejaVuSans-30" transform="translate(190.869141 0)"/>
      </g>
     </g>
    </g>
    <g id="ytick_4">
     <g id="line2d_25">
      <path d="M 108 213.094737 
L 777.6 213.094737 
" clip-path="url(#p33b7477600)" style="fill: none; stroke-dasharray: 5.12,1.28,0.8,1.28; stroke-dashoffset: 0; stroke: #b0b0b0; stroke-width: 0.8"/>
     </g>
     <g id="line2d_26">
      <g>
       <use xlink:href="#m79e50eca9b" x="108" y="213.094737" style="fill: #a9a9a9; stroke: #a9a9a9; stroke-width: 0.8"/>
      </g>
     </g>
     <g id="text_13">
      <!-- 3000 -->
      <g style="fill: #a9a9a9" transform="translate(75.55 216.893956) scale(0.1 -0.1)">
       <use xlink:href="#DejaVuSans-33"/>
       <use xlink:href="#DejaVuSans-30" transform="translate(63.623047 0)"/>
       <use xlink:href="#DejaVuSans-30" transform="translate(127.246094 0)"/>
       <use xlink:href="#DejaVuSans-30" transform="translate(190.869141 0)"/>
      </g>
     </g>
    </g>
    <g id="ytick_5">
     <g id="line2d_27">
      <path d="M 108 181.515789 
L 777.6 181.515789 
" clip-path="url(#p33b7477600)" style="fill: none; stroke-dasharray: 5.12,1.28,0.8,1.28; stroke-dashoffset: 0; stroke: #b0b0b0; stroke-width: 0.8"/>
     </g>
     <g id="line2d_28">
      <g>
       <use xlink:href="#m79e50eca9b" x="108" y="181.515789" style="fill: #a9a9a9; stroke: #a9a9a9; stroke-width: 0.8"/>
      </g>
     </g>
     <g id="text_14">
      <!-- 4000 -->
      <g style="fill: #a9a9a9" transform="translate(75.55 185.315008) scale(0.1 -0.1)">
       <use xlink:href="#DejaVuSans-34"/>
       <use xlink:href="#DejaVuSans-30" transform="translate(63.623047 0)"/>
       <use xlink:href="#DejaVuSans-30" transform="translate(127.246094 0)"/>
       <use xlink:href="#DejaVuSans-30" transform="translate(190.869141 0)"/>
      </g>
     </g>
    </g>
    <g id="ytick_6">
     <g id="line2d_29">
      <path d="M 108 149.936842 
L 777.6 149.936842 
" clip-path="url(#p33b7477600)" style="fill: none; stroke-dasharray: 5.12,1.28,0.8,1.28; stroke-dashoffset: 0; stroke: #b0b0b0; stroke-width: 0.8"/>
     </g>
     <g id="line2d_30">
      <g>
       <use xlink:href="#m79e50eca9b" x="108" y="149.936842" style="fill: #a9a9a9; stroke: #a9a9a9; stroke-width: 0.8"/>
      </g>
     </g>
     <g id="text_15">
      <!-- 5000 -->
      <g style="fill: #a9a9a9" transform="translate(75.55 153.736061) scale(0.1 -0.1)">
       <use xlink:href="#DejaVuSans-35"/>
       <use xlink:href="#DejaVuSans-30" transform="translate(63.623047 0)"/>
       <use xlink:href="#DejaVuSans-30" transform="translate(127.246094 0)"/>
       <use xlink:href="#DejaVuSans-30" transform="translate(190.869141 0)"/>
      </g>
     </g>
    </g>
    <g id="ytick_7">
     <g id="line2d_31">
      <path d="M 108 118.357895 
L 777.6 118.357895 
" clip-path="url(#p33b7477600)" style="fill: none; stroke-dasharray: 5.12,1.28,0.8,1.28; stroke-dashoffset: 0; stroke: #b0b0b0; stroke-width: 0.8"/>
     </g>
     <g id="line2d_32">
      <g>
       <use xlink:href="#m79e50eca9b" x="108" y="118.357895" style="fill: #a9a9a9; stroke: #a9a9a9; stroke-width: 0.8"/>
      </g>
     </g>
     <g id="text_16">
      <!-- 6000 -->
      <g style="fill: #a9a9a9" transform="translate(75.55 122.157113) scale(0.1 -0.1)">
       <defs>
        <path id="DejaVuSans-36" d="M 2113 2584 
Q 1688 2584 1439 2293 
Q 1191 2003 1191 1497 
Q 1191 994 1439 701 
Q 1688 409 2113 409 
Q 2538 409 2786 701 
Q 3034 994 3034 1497 
Q 3034 2003 2786 2293 
Q 2538 2584 2113 2584 
z
M 3366 4563 
L 3366 3988 
Q 3128 4100 2886 4159 
Q 2644 4219 2406 4219 
Q 1781 4219 1451 3797 
Q 1122 3375 1075 2522 
Q 1259 2794 1537 2939 
Q 1816 3084 2150 3084 
Q 2853 3084 3261 2657 
Q 3669 2231 3669 1497 
Q 3669 778 3244 343 
Q 2819 -91 2113 -91 
Q 1303 -91 875 529 
Q 447 1150 447 2328 
Q 447 3434 972 4092 
Q 1497 4750 2381 4750 
Q 2619 4750 2861 4703 
Q 3103 4656 3366 4563 
z
" transform="scale(0.015625)"/>
       </defs>
       <use xlink:href="#DejaVuSans-36"/>
       <use xlink:href="#DejaVuSans-30" transform="translate(63.623047 0)"/>
       <use xlink:href="#DejaVuSans-30" transform="translate(127.246094 0)"/>
       <use xlink:href="#DejaVuSans-30" transform="translate(190.869141 0)"/>
      </g>
     </g>
    </g>
    <g id="ytick_8">
     <g id="line2d_33">
      <path d="M 108 86.778947 
L 777.6 86.778947 
" clip-path="url(#p33b7477600)" style="fill: none; stroke-dasharray: 5.12,1.28,0.8,1.28; stroke-dashoffset: 0; stroke: #b0b0b0; stroke-width: 0.8"/>
     </g>
     <g id="line2d_34">
      <g>
       <use xlink:href="#m79e50eca9b" x="108" y="86.778947" style="fill: #a9a9a9; stroke: #a9a9a9; stroke-width: 0.8"/>
      </g>
     </g>
     <g id="text_17">
      <!-- 7000 -->
      <g style="fill: #a9a9a9" transform="translate(75.55 90.578166) scale(0.1 -0.1)">
       <use xlink:href="#DejaVuSans-37"/>
       <use xlink:href="#DejaVuSans-30" transform="translate(63.623047 0)"/>
       <use xlink:href="#DejaVuSans-30" transform="translate(127.246094 0)"/>
       <use xlink:href="#DejaVuSans-30" transform="translate(190.869141 0)"/>
      </g>
     </g>
    </g>
    <g id="ytick_9">
     <g id="line2d_35">
      <path d="M 108 55.2 
L 777.6 55.2 
" clip-path="url(#p33b7477600)" style="fill: none; stroke-dasharray: 5.12,1.28,0.8,1.28; stroke-dashoffset: 0; stroke: #b0b0b0; stroke-width: 0.8"/>
     </g>
     <g id="line2d_36">
      <g>
       <use xlink:href="#m79e50eca9b" x="108" y="55.2" style="fill: #a9a9a9; stroke: #a9a9a9; stroke-width: 0.8"/>
      </g>
     </g>
     <g id="text_18">
      <!-- 8000 -->
      <g style="fill: #a9a9a9" transform="translate(75.55 58.999219) scale(0.1 -0.1)">
       <defs>
        <path id="DejaVuSans-38" d="M 2034 2216 
Q 1584 2216 1326 1975 
Q 1069 1734 1069 1313 
Q 1069 891 1326 650 
Q 1584 409 2034 409 
Q 2484 409 2743 651 
Q 3003 894 3003 1313 
Q 3003 1734 2745 1975 
Q 2488 2216 2034 2216 
z
M 1403 2484 
Q 997 2584 770 2862 
Q 544 3141 544 3541 
Q 544 4100 942 4425 
Q 1341 4750 2034 4750 
Q 2731 4750 3128 4425 
Q 3525 4100 3525 3541 
Q 3525 3141 3298 2862 
Q 3072 2584 2669 2484 
Q 3125 2378 3379 2068 
Q 3634 1759 3634 1313 
Q 3634 634 3220 271 
Q 2806 -91 2034 -91 
Q 1263 -91 848 271 
Q 434 634 434 1313 
Q 434 1759 690 2068 
Q 947 2378 1403 2484 
z
M 1172 3481 
Q 1172 3119 1398 2916 
Q 1625 2713 2034 2713 
Q 2441 2713 2670 2916 
Q 2900 3119 2900 3481 
Q 2900 3844 2670 4047 
Q 2441 4250 2034 4250 
Q 1625 4250 1398 4047 
Q 1172 3844 1172 3481 
z
" transform="scale(0.015625)"/>
       </defs>
       <use xlink:href="#DejaVuSans-38"/>
       <use xlink:href="#DejaVuSans-30" transform="translate(63.623047 0)"/>
       <use xlink:href="#DejaVuSans-30" transform="translate(127.246094 0)"/>
       <use xlink:href="#DejaVuSans-30" transform="translate(190.869141 0)"/>
      </g>
     </g>
    </g>
   </g>
   <g id="line2d_37">
    <path d="M 138.436364 307.736842 
L 140.912542 307.515789 
L 141.325239 307.326316 
L 142.976025 307.105263 
L 144.62681 306.757895 
L 145.452203 306.631579 
L 147.515686 306.442105 
L 148.341079 306.094737 
L 148.753775 305.526316 
L 149.166471 305.242105 
L 149.579168 304.294737 
L 149.991864 304.231579 
L 150.404561 303.884211 
L 151.229954 303.442105 
L 152.88074 302.052632 
L 154.531525 301.2 
L 155.769615 300.6 
L 156.182311 299.905263 
L 157.007704 299.273684 
L 157.420401 299.084211 
L 161.547365 298.452632 
L 161.960062 298.263158 
L 164.848937 298.010526 
L 166.499723 297.6 
L 169.801294 297.126316 
L 170.213991 296.905263 
L 170.626687 296.842105 
L 171.45208 296.557895 
L 174.340955 296.052632 
L 175.166348 295.8 
L 178.880616 295.168421 
L 179.706009 294.978947 
L 180.531402 294.947368 
L 182.182188 294.536842 
L 182.594884 293.936842 
L 183.832974 293.431579 
L 185.071063 293.084211 
L 185.48376 292.863158 
L 186.309153 292.705263 
L 187.959938 292.2 
L 188.785331 292.136842 
L 189.610724 291.915789 
L 191.26151 291.473684 
L 191.674206 291.442105 
L 192.499599 291.031579 
L 192.912296 290.968421 
L 193.324992 290.747368 
L 197.864653 289.957895 
L 199.515439 289.452632 
L 199.928136 289.168421 
L 201.991618 288.473684 
L 202.817011 287.873684 
L 204.0551 287.621053 
L 209.420154 286.042105 
L 209.832851 285.978947 
L 211.483636 285.315789 
L 211.896333 285.252632 
L 212.721726 284.905263 
L 213.547119 284.873684 
L 214.785208 284.494737 
L 215.197904 284.494737 
L 215.610601 284.305263 
L 216.435994 284.210526 
L 216.84869 284.052632 
L 218.499476 283.989474 
L 219.324869 283.831579 
L 220.150262 283.389474 
L 221.388351 282.915789 
L 222.213744 282.473684 
L 223.039137 282.031579 
L 223.86453 281.747368 
L 224.277227 281.621053 
L 225.102619 281.084211 
L 225.515316 280.610526 
L 226.340709 279.284211 
L 226.753405 279.157895 
L 227.166102 279.157895 
L 228.816888 278.210526 
L 229.229584 278.115789 
L 229.64228 277.705263 
L 230.467673 277.357895 
L 231.293066 276.978947 
L 231.705763 276.473684 
L 232.118459 275.778947 
L 232.531156 275.494737 
L 232.943852 274.736842 
L 233.356549 274.263158 
L 235.832727 272.873684 
L 237.483513 271.357895 
L 237.89621 270.378947 
L 238.308906 269.747368 
L 238.721602 269.4 
L 239.134299 269.210526 
L 242.435871 266.084211 
L 243.261263 265.294737 
L 245.737442 263.684211 
L 246.150139 263.526316 
L 247.800924 262.515789 
L 248.213621 262.326316 
L 250.277103 260.368421 
L 251.102496 260.021053 
L 251.927889 259.421053 
L 252.340586 259.168421 
L 252.753282 259.105263 
L 253.991371 258.378947 
L 254.404068 257.905263 
L 256.46755 256.736842 
L 256.880247 256.578947 
L 258.118336 255.694737 
L 264.308783 253.421053 
L 265.134176 252.631579 
L 266.372265 252 
L 267.197658 251.463158 
L 268.023051 251.210526 
L 268.435747 250.926316 
L 268.848444 250.8 
L 270.086533 249.947368 
L 272.150015 249.473684 
L 273.388105 248.715789 
L 274.626194 248.431579 
L 275.038891 248.336842 
L 276.27698 247.389474 
L 277.927766 246.915789 
L 278.340462 246.568421 
L 280.816641 245.684211 
L 281.642034 245.526316 
L 282.467427 245.178947 
L 285.356302 244.073684 
L 286.181695 243.978947 
L 287.419784 243.536842 
L 289.483267 242.494737 
L 291.959445 241.073684 
L 292.784838 240.852632 
L 294.022928 240.221053 
L 294.84832 240.063158 
L 295.673713 239.557895 
L 296.499106 239.336842 
L 297.737196 238.831579 
L 299.387982 238.610526 
L 300.213374 238.168421 
L 300.626071 237.789474 
L 301.038767 237.031579 
L 302.689553 236.557895 
L 303.927643 235.894737 
L 304.753035 235.610526 
L 305.991125 234.978947 
L 308.054607 234.126316 
L 308.88 233.936842 
L 310.118089 233.305263 
L 310.530786 233.242105 
L 312.594268 232.2 
L 313.419661 231.663158 
L 314.65775 231.410526 
L 316.721233 230.873684 
L 317.133929 230.526316 
L 317.959322 230.242105 
L 320.022804 229.389474 
L 320.435501 229.073684 
L 320.848197 228.915789 
L 321.67359 228.442105 
L 323.324376 227.905263 
L 324.149769 227.368421 
L 324.562465 226.926316 
L 324.975162 226.673684 
L 325.387858 226.578947 
L 326.213251 225.884211 
L 326.625948 225.821053 
L 327.038644 225.126316 
L 327.451341 224.936842 
L 327.864037 224.589474 
L 328.276733 224.526316 
L 329.102126 223.989474 
L 329.927519 223.705263 
L 330.340216 223.389474 
L 330.752912 223.231579 
L 332.403698 222.094737 
L 333.641787 221.463158 
L 334.46718 221.242105 
L 335.292573 220.768421 
L 335.70527 220.042105 
L 336.530663 219.410526 
L 336.943359 219.315789 
L 339.419538 218.084211 
L 340.244931 217.736842 
L 341.070324 217.136842 
L 342.308413 215.968421 
L 343.133806 215.463158 
L 343.546502 214.989474 
L 345.197288 213.821053 
L 346.022681 212.968421 
L 346.848074 212.684211 
L 347.673467 212.115789 
L 348.911556 211.452632 
L 349.324253 211.389474 
L 350.562342 210.694737 
L 351.387735 210.157895 
L 355.5147 208.578947 
L 355.927396 208.231579 
L 357.578182 207.568421 
L 357.990878 207.442105 
L 358.816271 206.905263 
L 359.641664 206.557895 
L 360.467057 205.957895 
L 361.29245 204.252632 
L 362.117843 203.242105 
L 363.355932 202.578947 
L 364.181325 202.231579 
L 364.594022 202.168421 
L 365.419414 201.789474 
L 367.0702 201.221053 
L 367.895593 200.747368 
L 368.720986 200.336842 
L 369.133683 200.210526 
L 371.609861 198.694737 
L 372.022558 198.221053 
L 373.260647 197.494737 
L 373.673344 197.336842 
L 374.498737 196.831579 
L 376.149522 195.915789 
L 376.562219 195.821053 
L 376.974915 195.473684 
L 379.86379 194.494737 
L 380.276487 194.178947 
L 381.10188 193.926316 
L 381.927273 193.578947 
L 382.339969 193.231579 
L 383.990755 192.631579 
L 384.816148 192.031579 
L 385.641541 191.684211 
L 386.466934 191.021053 
L 387.292327 190.768421 
L 387.705023 190.389474 
L 388.11772 190.326316 
L 388.943112 189.663158 
L 391.006595 188.431579 
L 391.831988 188.178947 
L 392.244684 187.926316 
L 392.657381 187.863158 
L 393.89547 187.168421 
L 400.085917 185.210526 
L 401.324006 184.326316 
L 401.736703 184.168421 
L 402.562096 183.694737 
L 402.974792 183.568421 
L 405.450971 182.147368 
L 405.863667 182.052632 
L 407.101757 181.294737 
L 408.339846 180.852632 
L 409.165239 180.568421 
L 410.816025 180 
L 411.641418 179.715789 
L 413.292203 179.368421 
L 413.7049 179.178947 
L 414.530293 178.957895 
L 414.942989 178.768421 
L 415.355686 178.705263 
L 415.768382 178.484211 
L 416.593775 178.326316 
L 417.831864 177.852632 
L 419.069954 177.663158 
L 421.546133 177.189474 
L 422.784222 176.905263 
L 423.196918 176.715789 
L 424.022311 176.557895 
L 424.847704 176.336842 
L 425.673097 175.957895 
L 426.085794 175.8 
L 426.49849 175.8 
L 431.038151 174.378947 
L 431.450847 174.157895 
L 431.863544 174.157895 
L 432.688937 173.842105 
L 433.101633 173.4 
L 435.577812 172.357895 
L 437.228598 171.789474 
L 437.641294 171.536842 
L 438.879384 171.157895 
L 439.704777 170.936842 
L 440.117473 170.652632 
L 440.530169 170.557895 
L 440.942866 170.178947 
L 442.180955 169.926316 
L 443.006348 169.547368 
L 443.419045 169.042105 
L 447.958706 168.031579 
L 448.371402 168.031579 
L 448.784099 167.842105 
L 450.434884 167.526316 
L 450.847581 167.336842 
L 452.498367 167.021053 
L 453.32376 166.673684 
L 454.149153 166.515789 
L 456.212635 165.978947 
L 457.863421 165.442105 
L 458.276117 165.347368 
L 458.688814 165.126316 
L 459.514206 164.905263 
L 460.339599 164.557895 
L 461.164992 164.242105 
L 461.577689 163.957895 
L 462.403082 163.705263 
L 465.291957 162.6 
L 466.942743 162.410526 
L 470.244314 161.178947 
L 470.657011 160.863158 
L 471.069707 160.768421 
L 471.482404 160.547368 
L 471.8951 160.515789 
L 476.434761 158.842105 
L 478.498243 158.273684 
L 479.323636 157.863158 
L 480.561726 157.578947 
L 482.212512 156.189474 
L 483.863297 155.463158 
L 484.68869 155.084211 
L 487.164869 154.105263 
L 487.577565 153.821053 
L 489.641048 153.126316 
L 493.768012 151.010526 
L 494.593405 150.631579 
L 495.006102 150.315789 
L 495.831495 150.031579 
L 497.894977 148.957895 
L 499.133066 148.515789 
L 500.371156 148.042105 
L 502.434638 147.252632 
L 503.260031 147.126316 
L 503.672727 146.842105 
L 505.323513 146.526316 
L 506.148906 146.178947 
L 507.799692 145.389474 
L 513.577442 142.8 
L 514.815532 142.389474 
L 515.228228 142.105263 
L 516.053621 142.010526 
L 516.466317 141.726316 
L 517.29171 141.6 
L 518.117103 141.189474 
L 518.5298 141 
L 519.355193 140.778947 
L 520.180586 140.526316 
L 521.418675 140.052632 
L 522.656764 139.642105 
L 523.894854 139.357895 
L 525.545639 138.663158 
L 526.371032 138.221053 
L 528.021818 137.368421 
L 528.847211 137.178947 
L 529.259908 136.926316 
L 529.672604 136.831579 
L 530.910693 136.105263 
L 531.736086 135.757895 
L 537.10114 133.736842 
L 537.513837 133.673684 
L 539.164622 132.884211 
L 539.990015 132.726316 
L 540.815408 132.252632 
L 542.466194 131.463158 
L 546.593159 129.821053 
L 547.418552 129.410526 
L 547.831248 129.315789 
L 548.243945 129.094737 
L 549.89473 128.621053 
L 551.545516 127.231579 
L 551.958213 127.105263 
L 552.370909 126.852632 
L 553.608998 126.505263 
L 554.021695 126.189474 
L 554.434391 126.094737 
L 555.672481 125.336842 
L 556.085177 125.052632 
L 557.323267 124.578947 
L 557.735963 124.357895 
L 558.974052 124.073684 
L 561.037535 123.347368 
L 561.862928 123.094737 
L 563.101017 122.431579 
L 563.92641 122.021053 
L 564.751803 121.8 
L 565.989892 121.2 
L 570.116857 119.526316 
L 572.180339 118.515789 
L 573.005732 118.2 
L 573.418428 117.821053 
L 574.243821 117.473684 
L 575.481911 117.031579 
L 575.894607 116.684211 
L 576.307304 116.652632 
L 577.132696 116.4 
L 577.958089 116.115789 
L 578.370786 115.926316 
L 578.783482 115.863158 
L 579.608875 115.515789 
L 580.846965 115.231579 
L 581.672357 114.757895 
L 582.085054 114.6 
L 582.49775 114.284211 
L 583.73584 113.968421 
L 584.148536 113.715789 
L 584.973929 113.494737 
L 586.212018 112.8 
L 586.624715 112.768421 
L 587.862804 112.357895 
L 588.688197 112.294737 
L 589.100894 112.073684 
L 589.926287 111.852632 
L 590.338983 111.631579 
L 592.402465 111.221053 
L 593.227858 111.063158 
L 594.465948 110.589474 
L 595.704037 110.305263 
L 596.942126 109.642105 
L 597.354823 109.263158 
L 598.592912 108.505263 
L 599.005609 108.189474 
L 600.243698 107.778947 
L 601.069091 107.557895 
L 603.54527 106.421053 
L 603.957966 106.357895 
L 604.783359 105.947368 
L 606.434145 105.505263 
L 607.259538 105.126316 
L 607.672234 104.905263 
L 608.497627 104.652632 
L 608.910324 104.431579 
L 609.735716 104.273684 
L 613.037288 102.821053 
L 613.449985 102.757895 
L 614.688074 101.936842 
L 615.10077 101.873684 
L 616.751556 101.210526 
L 618.402342 100.8 
L 618.815039 100.736842 
L 619.227735 100.547368 
L 619.640431 100.515789 
L 620.465824 100.231579 
L 620.878521 100.2 
L 622.11661 99.726316 
L 623.767396 99.252632 
L 624.592789 98.621053 
L 626.243575 97.705263 
L 626.656271 97.610526 
L 627.068968 97.389474 
L 627.894361 97.105263 
L 628.307057 96.978947 
L 628.719753 96.631579 
L 629.957843 96.157895 
L 630.783236 95.684211 
L 631.195932 95.463158 
L 631.608629 95.084211 
L 633.672111 94.578947 
L 634.9102 94.010526 
L 635.735593 93.789474 
L 636.14829 93.568421 
L 636.560986 93.221053 
L 638.211772 92.778947 
L 638.624468 92.463158 
L 643.989522 90.505263 
L 644.814915 90.347368 
L 646.878398 89.684211 
L 647.70379 89.336842 
L 648.529183 89.021053 
L 649.354576 88.8 
L 649.767273 88.610526 
L 650.179969 88.610526 
L 651.005362 88.263158 
L 651.830755 87.789474 
L 654.71963 86.810526 
L 656.370416 86.242105 
L 657.608505 85.957895 
L 658.846595 85.547368 
L 659.259291 85.452632 
L 659.671988 85.168421 
L 660.497381 84.978947 
L 662.148166 84.505263 
L 662.560863 84.473684 
L 663.386256 84.094737 
L 666.275131 83.368421 
L 667.925917 82.768421 
L 668.338613 82.768421 
L 669.576703 82.484211 
L 670.402096 82.326316 
L 671.227488 82.105263 
L 672.465578 81.442105 
L 673.703667 81.063158 
L 676.592542 80.084211 
L 677.005239 79.863158 
L 677.417935 79.768421 
L 678.656025 79.136842 
L 679.481418 78.978947 
L 680.30681 78.726316 
L 681.132203 78.315789 
L 681.5449 77.968421 
L 682.370293 77.715789 
L 682.782989 77.463158 
L 683.608382 77.368421 
L 686.497257 76.547368 
L 687.735347 76.294737 
L 688.973436 75.978947 
L 689.798829 75.789474 
L 691.036918 75.157895 
L 692.687704 74.526316 
L 693.513097 74.084211 
L 693.925794 74.052632 
L 694.751186 73.642105 
L 697.640062 72.821053 
L 698.878151 72.631579 
L 699.703544 72.378947 
L 700.941633 72 
L 704.655901 70.957895 
L 705.481294 70.736842 
L 705.893991 70.642105 
L 706.306687 70.389474 
L 707.13208 70.231579 
L 707.957473 70.136842 
L 708.370169 69.915789 
L 708.782866 69.884211 
L 709.608259 69.347368 
L 711.259045 69 
L 712.084438 68.652632 
L 712.909831 68.368421 
L 713.735223 68.147368 
L 714.560616 67.8 
L 715.386009 67.515789 
L 717.036795 67.042105 
L 717.862188 66.978947 
L 718.687581 66.694737 
L 719.100277 66.536842 
L 719.92567 66.410526 
L 721.576456 65.684211 
L 721.989153 65.621053 
L 722.401849 65.4 
L 723.227242 65.242105 
L 724.052635 65.178947 
L 726.528814 64.547368 
L 727.354206 64.2 
L 727.766903 64.136842 
L 728.179599 63.915789 
L 729.004992 63.221053 
L 733.131957 61.705263 
L 733.95735 61.452632 
L 734.782743 61.231579 
L 735.608136 61.010526 
L 736.020832 60.694737 
L 737.258921 60.157895 
L 738.084314 59.715789 
L 738.497011 59.621053 
L 738.909707 59.305263 
L 740.147797 58.957895 
L 740.560493 58.736842 
L 741.385886 58.452632 
L 742.211279 58.105263 
L 743.862065 57.031579 
L 744.274761 56.936842 
L 745.512851 56.305263 
L 746.338243 55.989474 
L 747.163636 55.8 
L 747.163636 55.8 
" clip-path="url(#p33b7477600)" style="fill: none; stroke: #1f77b4; stroke-width: 1.5; stroke-linecap: square"/>
   </g>
   <g id="line2d_38">
    <path d="M 138.84906 307.8 
L 142.563328 307.705263 
L 145.8649 307.547368 
L 147.515686 307.547368 
L 147.928382 307.421053 
L 149.991864 307.326316 
L 152.468043 307.042105 
L 154.944222 306.947368 
L 155.769615 306.852632 
L 158.65849 306.726316 
L 161.547365 306.631579 
L 163.610847 306.568421 
L 168.975901 306.473684 
L 171.039384 306.410526 
L 174.753652 306.315789 
L 176.404438 306.284211 
L 180.531402 306.189474 
L 182.182188 306.031579 
L 183.832974 306 
L 186.309153 305.905263 
L 187.959938 305.873684 
L 190.023421 305.810526 
L 191.674206 305.652632 
L 195.388475 305.557895 
L 196.213867 305.494737 
L 197.864653 305.4 
L 200.340832 305.305263 
L 201.991618 305.210526 
L 209.420154 304.736842 
L 212.309029 304.642105 
L 213.547119 304.515789 
L 215.610601 304.421053 
L 219.737565 304.2 
L 223.86453 304.136842 
L 225.515316 303.947368 
L 227.578798 303.852632 
L 231.705763 303.442105 
L 234.181941 303.126316 
L 235.832727 303.063158 
L 239.134299 302.621053 
L 241.610478 302.557895 
L 242.848567 302.431579 
L 244.086656 302.336842 
L 255.642157 301.421053 
L 256.46755 301.263158 
L 258.943729 301.168421 
L 265.546872 300.757895 
L 268.435747 300.663158 
L 270.086533 300.473684 
L 272.150015 300.378947 
L 274.626194 300.284211 
L 276.689676 300.189474 
L 278.340462 300.157895 
L 280.403945 300.094737 
L 281.229337 299.968421 
L 287.007088 299.873684 
L 287.832481 299.778947 
L 292.784838 299.684211 
L 296.499106 299.494737 
L 299.387982 299.4 
L 301.038767 299.210526 
L 303.927643 299.115789 
L 304.753035 298.989474 
L 306.816518 298.926316 
L 310.943482 298.863158 
L 312.594268 298.705263 
L 314.245054 298.673684 
L 315.483143 298.578947 
L 317.133929 298.421053 
L 321.260894 298.2 
L 325.387858 298.105263 
L 329.102126 297.915789 
L 330.340216 297.884211 
L 331.165609 297.757895 
L 333.229091 297.663158 
L 334.054484 297.6 
L 334.879877 297.536842 
L 335.70527 297.473684 
L 339.832234 297.378947 
L 348.911556 296.778947 
L 349.736949 296.715789 
L 350.975039 296.621053 
L 353.863914 296.526316 
L 355.927396 296.463158 
L 361.705146 296.368421 
L 362.530539 296.242105 
L 368.30829 296.147368 
L 372.435254 295.926316 
L 373.260647 295.894737 
L 374.08604 295.8 
L 376.149522 295.705263 
L 378.213005 295.642105 
L 380.276487 295.547368 
L 382.339969 295.484211 
L 386.054237 295.389474 
L 388.530416 295.294737 
L 394.308166 295.2 
L 398.847827 294.947368 
L 400.498613 294.884211 
L 401.736703 294.789474 
L 407.514453 294.694737 
L 409.990632 294.6 
L 417.419168 294.505263 
L 419.069954 294.473684 
L 424.022311 294.410526 
L 424.847704 294.347368 
L 430.625455 294.252632 
L 432.27624 294.221053 
L 443.006348 294.126316 
L 445.482527 294.031579 
L 462.815778 293.936842 
L 464.87926 293.873684 
L 475.609368 293.810526 
L 476.434761 293.747368 
L 478.498243 293.684211 
L 479.736333 293.557895 
L 482.212512 293.463158 
L 485.101387 293.336842 
L 488.815655 293.242105 
L 490.879137 293.178947 
L 493.768012 293.084211 
L 497.069584 292.926316 
L 499.133066 292.831579 
L 500.783852 292.8 
L 507.799692 292.705263 
L 510.275871 292.610526 
L 514.815532 292.515789 
L 517.704407 292.389474 
L 520.593282 292.326316 
L 521.418675 292.263158 
L 531.32339 292.168421 
L 535.450354 291.947368 
L 538.33923 291.852632 
L 542.878891 291.6 
L 545.767766 291.505263 
L 547.418552 291.473684 
L 550.307427 291.378947 
L 552.370909 291.157895 
L 556.497874 291.063158 
L 557.323267 290.968421 
L 561.450231 290.873684 
L 563.513713 290.810526 
L 568.053374 290.778947 
L 568.878767 290.684211 
L 573.418428 290.589474 
L 574.243821 290.526316 
L 583.323143 290.431579 
L 585.799322 290.336842 
L 591.989769 290.242105 
L 593.640555 290.210526 
L 597.354823 290.147368 
L 598.180216 290.052632 
L 603.54527 289.957895 
L 605.608752 289.894737 
L 613.037288 289.8 
L 614.275378 289.705263 
L 615.513467 289.610526 
L 616.751556 289.515789 
L 622.942003 289.421053 
L 625.418182 289.326316 
L 636.560986 289.231579 
L 640.275254 289.042105 
L 645.227612 288.978947 
L 646.053005 288.915789 
L 652.243451 288.852632 
L 653.068844 288.789474 
L 657.608505 288.694737 
L 659.259291 288.663158 
L 666.275131 288.568421 
L 667.100524 288.505263 
L 674.52906 288.410526 
L 676.179846 288.378947 
L 679.894114 288.284211 
L 683.195686 288.126316 
L 687.735347 288.031579 
L 690.624222 287.905263 
L 694.33849 287.810526 
L 695.163883 287.747368 
L 703.417812 287.652632 
L 705.481294 287.589474 
L 707.957473 287.494737 
L 710.433652 287.4 
L 722.814545 287.305263 
L 725.703421 287.178947 
L 730.655778 287.084211 
L 732.306564 287.052632 
L 738.909707 286.957895 
L 740.147797 286.863158 
L 743.449368 286.768421 
L 747.163636 286.578947 
L 747.163636 286.578947 
" clip-path="url(#p33b7477600)" style="fill: none; stroke: #ff7f0e; stroke-width: 1.5; stroke-linecap: square"/>
   </g>
   <g id="patch_3">
    <path d="M 108 320.4 
L 108 43.2 
" style="fill: none; stroke: #a9a9a9; stroke-width: 0.8; stroke-linejoin: miter; stroke-linecap: square"/>
   </g>
   <g id="patch_4">
    <path d="M 777.6 320.4 
L 777.6 43.2 
" style="fill: none"/>
   </g>
   <g id="patch_5">
    <path d="M 108 320.4 
L 777.6 320.4 
" style="fill: none; stroke: #a9a9a9; stroke-width: 0.8; stroke-linejoin: miter; stroke-linecap: square"/>
   </g>
   <g id="patch_6">
    <path d="M 108 43.2 
L 777.6 43.2 
" style="fill: none"/>
   </g>
   <g id="text_19">
    <!-- get_subscribe history -->
    <g style="fill: #a9a9a9" transform="translate(378.6075 37.2) scale(0.12 -0.12)">
     <defs>
      <path id="DejaVuSans-67" d="M 2906 1791 
Q 2906 2416 2648 2759 
Q 2391 3103 1925 3103 
Q 1463 3103 1205 2759 
Q 947 2416 947 1791 
Q 947 1169 1205 825 
Q 1463 481 1925 481 
Q 2391 481 2648 825 
Q 2906 1169 2906 1791 
z
M 3481 434 
Q 3481 -459 3084 -895 
Q 2688 -1331 1869 -1331 
Q 1566 -1331 1297 -1286 
Q 1028 -1241 775 -1147 
L 775 -588 
Q 1028 -725 1275 -790 
Q 1522 -856 1778 -856 
Q 2344 -856 2625 -561 
Q 2906 -266 2906 331 
L 2906 616 
Q 2728 306 2450 153 
Q 2172 0 1784 0 
Q 1141 0 747 490 
Q 353 981 353 1791 
Q 353 2603 747 3093 
Q 1141 3584 1784 3584 
Q 2172 3584 2450 3431 
Q 2728 3278 2906 2969 
L 2906 3500 
L 3481 3500 
L 3481 434 
z
" transform="scale(0.015625)"/>
      <path id="DejaVuSans-65" d="M 3597 1894 
L 3597 1613 
L 953 1613 
Q 991 1019 1311 708 
Q 1631 397 2203 397 
Q 2534 397 2845 478 
Q 3156 559 3463 722 
L 3463 178 
Q 3153 47 2828 -22 
Q 2503 -91 2169 -91 
Q 1331 -91 842 396 
Q 353 884 353 1716 
Q 353 2575 817 3079 
Q 1281 3584 2069 3584 
Q 2775 3584 3186 3129 
Q 3597 2675 3597 1894 
z
M 3022 2063 
Q 3016 2534 2758 2815 
Q 2500 3097 2075 3097 
Q 1594 3097 1305 2825 
Q 1016 2553 972 2059 
L 3022 2063 
z
" transform="scale(0.015625)"/>
      <path id="DejaVuSans-74" d="M 1172 4494 
L 1172 3500 
L 2356 3500 
L 2356 3053 
L 1172 3053 
L 1172 1153 
Q 1172 725 1289 603 
Q 1406 481 1766 481 
L 2356 481 
L 2356 0 
L 1766 0 
Q 1100 0 847 248 
Q 594 497 594 1153 
L 594 3053 
L 172 3053 
L 172 3500 
L 594 3500 
L 594 4494 
L 1172 4494 
z
" transform="scale(0.015625)"/>
      <path id="DejaVuSans-5f" d="M 3263 -1063 
L 3263 -1509 
L -63 -1509 
L -63 -1063 
L 3263 -1063 
z
" transform="scale(0.015625)"/>
      <path id="DejaVuSans-73" d="M 2834 3397 
L 2834 2853 
Q 2591 2978 2328 3040 
Q 2066 3103 1784 3103 
Q 1356 3103 1142 2972 
Q 928 2841 928 2578 
Q 928 2378 1081 2264 
Q 1234 2150 1697 2047 
L 1894 2003 
Q 2506 1872 2764 1633 
Q 3022 1394 3022 966 
Q 3022 478 2636 193 
Q 2250 -91 1575 -91 
Q 1294 -91 989 -36 
Q 684 19 347 128 
L 347 722 
Q 666 556 975 473 
Q 1284 391 1588 391 
Q 1994 391 2212 530 
Q 2431 669 2431 922 
Q 2431 1156 2273 1281 
Q 2116 1406 1581 1522 
L 1381 1569 
Q 847 1681 609 1914 
Q 372 2147 372 2553 
Q 372 3047 722 3315 
Q 1072 3584 1716 3584 
Q 2034 3584 2315 3537 
Q 2597 3491 2834 3397 
z
" transform="scale(0.015625)"/>
      <path id="DejaVuSans-75" d="M 544 1381 
L 544 3500 
L 1119 3500 
L 1119 1403 
Q 1119 906 1312 657 
Q 1506 409 1894 409 
Q 2359 409 2629 706 
Q 2900 1003 2900 1516 
L 2900 3500 
L 3475 3500 
L 3475 0 
L 2900 0 
L 2900 538 
Q 2691 219 2414 64 
Q 2138 -91 1772 -91 
Q 1169 -91 856 284 
Q 544 659 544 1381 
z
M 1991 3584 
L 1991 3584 
z
" transform="scale(0.015625)"/>
      <path id="DejaVuSans-62" d="M 3116 1747 
Q 3116 2381 2855 2742 
Q 2594 3103 2138 3103 
Q 1681 3103 1420 2742 
Q 1159 2381 1159 1747 
Q 1159 1113 1420 752 
Q 1681 391 2138 391 
Q 2594 391 2855 752 
Q 3116 1113 3116 1747 
z
M 1159 2969 
Q 1341 3281 1617 3432 
Q 1894 3584 2278 3584 
Q 2916 3584 3314 3078 
Q 3713 2572 3713 1747 
Q 3713 922 3314 415 
Q 2916 -91 2278 -91 
Q 1894 -91 1617 61 
Q 1341 213 1159 525 
L 1159 0 
L 581 0 
L 581 4863 
L 1159 4863 
L 1159 2969 
z
" transform="scale(0.015625)"/>
      <path id="DejaVuSans-63" d="M 3122 3366 
L 3122 2828 
Q 2878 2963 2633 3030 
Q 2388 3097 2138 3097 
Q 1578 3097 1268 2742 
Q 959 2388 959 1747 
Q 959 1106 1268 751 
Q 1578 397 2138 397 
Q 2388 397 2633 464 
Q 2878 531 3122 666 
L 3122 134 
Q 2881 22 2623 -34 
Q 2366 -91 2075 -91 
Q 1284 -91 818 406 
Q 353 903 353 1747 
Q 353 2603 823 3093 
Q 1294 3584 2113 3584 
Q 2378 3584 2631 3529 
Q 2884 3475 3122 3366 
z
" transform="scale(0.015625)"/>
      <path id="DejaVuSans-72" d="M 2631 2963 
Q 2534 3019 2420 3045 
Q 2306 3072 2169 3072 
Q 1681 3072 1420 2755 
Q 1159 2438 1159 1844 
L 1159 0 
L 581 0 
L 581 3500 
L 1159 3500 
L 1159 2956 
Q 1341 3275 1631 3429 
Q 1922 3584 2338 3584 
Q 2397 3584 2469 3576 
Q 2541 3569 2628 3553 
L 2631 2963 
z
" transform="scale(0.015625)"/>
      <path id="DejaVuSans-69" d="M 603 3500 
L 1178 3500 
L 1178 0 
L 603 0 
L 603 3500 
z
M 603 4863 
L 1178 4863 
L 1178 4134 
L 603 4134 
L 603 4863 
z
" transform="scale(0.015625)"/>
      <path id="DejaVuSans-20" transform="scale(0.015625)"/>
      <path id="DejaVuSans-68" d="M 3513 2113 
L 3513 0 
L 2938 0 
L 2938 2094 
Q 2938 2591 2744 2837 
Q 2550 3084 2163 3084 
Q 1697 3084 1428 2787 
Q 1159 2491 1159 1978 
L 1159 0 
L 581 0 
L 581 4863 
L 1159 4863 
L 1159 2956 
Q 1366 3272 1645 3428 
Q 1925 3584 2291 3584 
Q 2894 3584 3203 3211 
Q 3513 2838 3513 2113 
z
" transform="scale(0.015625)"/>
      <path id="DejaVuSans-6f" d="M 1959 3097 
Q 1497 3097 1228 2736 
Q 959 2375 959 1747 
Q 959 1119 1226 758 
Q 1494 397 1959 397 
Q 2419 397 2687 759 
Q 2956 1122 2956 1747 
Q 2956 2369 2687 2733 
Q 2419 3097 1959 3097 
z
M 1959 3584 
Q 2709 3584 3137 3096 
Q 3566 2609 3566 1747 
Q 3566 888 3137 398 
Q 2709 -91 1959 -91 
Q 1206 -91 779 398 
Q 353 888 353 1747 
Q 353 2609 779 3096 
Q 1206 3584 1959 3584 
z
" transform="scale(0.015625)"/>
      <path id="DejaVuSans-79" d="M 2059 -325 
Q 1816 -950 1584 -1140 
Q 1353 -1331 966 -1331 
L 506 -1331 
L 506 -850 
L 844 -850 
Q 1081 -850 1212 -737 
Q 1344 -625 1503 -206 
L 1606 56 
L 191 3500 
L 800 3500 
L 1894 763 
L 2988 3500 
L 3597 3500 
L 2059 -325 
z
" transform="scale(0.015625)"/>
     </defs>
     <use xlink:href="#DejaVuSans-67"/>
     <use xlink:href="#DejaVuSans-65" transform="translate(63.476562 0)"/>
     <use xlink:href="#DejaVuSans-74" transform="translate(125 0)"/>
     <use xlink:href="#DejaVuSans-5f" transform="translate(164.208984 0)"/>
     <use xlink:href="#DejaVuSans-73" transform="translate(214.208984 0)"/>
     <use xlink:href="#DejaVuSans-75" transform="translate(266.308594 0)"/>
     <use xlink:href="#DejaVuSans-62" transform="translate(329.6875 0)"/>
     <use xlink:href="#DejaVuSans-73" transform="translate(393.164062 0)"/>
     <use xlink:href="#DejaVuSans-63" transform="translate(445.263672 0)"/>
     <use xlink:href="#DejaVuSans-72" transform="translate(500.244141 0)"/>
     <use xlink:href="#DejaVuSans-69" transform="translate(541.357422 0)"/>
     <use xlink:href="#DejaVuSans-62" transform="translate(569.140625 0)"/>
     <use xlink:href="#DejaVuSans-65" transform="translate(632.617188 0)"/>
     <use xlink:href="#DejaVuSans-20" transform="translate(694.140625 0)"/>
     <use xlink:href="#DejaVuSans-68" transform="translate(725.927734 0)"/>
     <use xlink:href="#DejaVuSans-69" transform="translate(789.306641 0)"/>
     <use xlink:href="#DejaVuSans-73" transform="translate(817.089844 0)"/>
     <use xlink:href="#DejaVuSans-74" transform="translate(869.189453 0)"/>
     <use xlink:href="#DejaVuSans-6f" transform="translate(908.398438 0)"/>
     <use xlink:href="#DejaVuSans-72" transform="translate(969.580078 0)"/>
     <use xlink:href="#DejaVuSans-79" transform="translate(1010.693359 0)"/>
    </g>
   </g>
   <g id="legend_1">
    <g id="line2d_39">
     <path d="M 815.08 328.498438 
L 825.08 328.498438 
L 835.08 328.498438 
" style="fill: none; stroke: #1f77b4; stroke-width: 1.5; stroke-linecap: square"/>
    </g>
    <g id="text_20">
     <!-- star -->
     <g style="fill: #a9a9a9" transform="translate(843.08 331.998438) scale(0.1 -0.1)">
      <defs>
       <path id="DejaVuSans-61" d="M 2194 1759 
Q 1497 1759 1228 1600 
Q 959 1441 959 1056 
Q 959 750 1161 570 
Q 1363 391 1709 391 
Q 2188 391 2477 730 
Q 2766 1069 2766 1631 
L 2766 1759 
L 2194 1759 
z
M 3341 1997 
L 3341 0 
L 2766 0 
L 2766 531 
Q 2569 213 2275 61 
Q 1981 -91 1556 -91 
Q 1019 -91 701 211 
Q 384 513 384 1019 
Q 384 1609 779 1909 
Q 1175 2209 1959 2209 
L 2766 2209 
L 2766 2266 
Q 2766 2663 2505 2880 
Q 2244 3097 1772 3097 
Q 1472 3097 1187 3025 
Q 903 2953 641 2809 
L 641 3341 
Q 956 3463 1253 3523 
Q 1550 3584 1831 3584 
Q 2591 3584 2966 3190 
Q 3341 2797 3341 1997 
z
" transform="scale(0.015625)"/>
      </defs>
      <use xlink:href="#DejaVuSans-73"/>
      <use xlink:href="#DejaVuSans-74" transform="translate(52.099609 0)"/>
      <use xlink:href="#DejaVuSans-61" transform="translate(91.308594 0)"/>
      <use xlink:href="#DejaVuSans-72" transform="translate(152.587891 0)"/>
     </g>
    </g>
    <g id="line2d_40">
     <path d="M 815.08 343.176562 
L 825.08 343.176562 
L 835.08 343.176562 
" style="fill: none; stroke: #ff7f0e; stroke-width: 1.5; stroke-linecap: square"/>
    </g>
    <g id="text_21">
     <!-- fork -->
     <g style="fill: #a9a9a9" transform="translate(843.08 346.676562) scale(0.1 -0.1)">
      <defs>
       <path id="DejaVuSans-66" d="M 2375 4863 
L 2375 4384 
L 1825 4384 
Q 1516 4384 1395 4259 
Q 1275 4134 1275 3809 
L 1275 3500 
L 2222 3500 
L 2222 3053 
L 1275 3053 
L 1275 0 
L 697 0 
L 697 3053 
L 147 3053 
L 147 3500 
L 697 3500 
L 697 3744 
Q 697 4328 969 4595 
Q 1241 4863 1831 4863 
L 2375 4863 
z
" transform="scale(0.015625)"/>
       <path id="DejaVuSans-6b" d="M 581 4863 
L 1159 4863 
L 1159 1991 
L 2875 3500 
L 3609 3500 
L 1753 1863 
L 3688 0 
L 2938 0 
L 1159 1709 
L 1159 0 
L 581 0 
L 581 4863 
z
" transform="scale(0.015625)"/>
      </defs>
      <use xlink:href="#DejaVuSans-66"/>
      <use xlink:href="#DejaVuSans-6f" transform="translate(35.205078 0)"/>
      <use xlink:href="#DejaVuSans-72" transform="translate(96.386719 0)"/>
      <use xlink:href="#DejaVuSans-6b" transform="translate(137.5 0)"/>
     </g>
    </g>
   </g>
  </g>
 </g>
 <defs>
  <clipPath id="p33b7477600">
   <rect x="108" y="43.2" width="669.6" height="277.2"/>
  </clipPath>
 </defs>
</svg>
