<?xml version="1.0" encoding="utf-8" standalone="no"?>
<!DOCTYPE svg PUBLIC "-//W3C//DTD SVG 1.1//EN"
  "http://www.w3.org/Graphics/SVG/1.1/DTD/svg11.dtd">
<svg xmlns:xlink="http://www.w3.org/1999/xlink" width="864pt" height="360pt" viewBox="0 0 864 360" xmlns="http://www.w3.org/2000/svg" version="1.1">
 <metadata>
  <rdf:RDF xmlns:dc="http://purl.org/dc/elements/1.1/" xmlns:cc="http://creativecommons.org/ns#" xmlns:rdf="http://www.w3.org/1999/02/22-rdf-syntax-ns#">
   <cc:Work>
    <dc:type rdf:resource="http://purl.org/dc/dcmitype/StillImage"/>
    <dc:date>2025-08-04T08:19:21.906014</dc:date>
    <dc:format>image/svg+xml</dc:format>
    <dc:creator>
     <cc:Agent>
      <dc:title>Matplotlib v3.10.5, https://matplotlib.org/</dc:title>
     </cc:Agent>
    </dc:creator>
   </cc:Work>
  </rdf:RDF>
 </metadata>
 <defs>
  <style type="text/css">*{stroke-linejoin: round; stroke-linecap: butt}</style>
 </defs>
 <g id="figure_1">
  <g id="patch_1">
   <path d="M 0 360 
L 864 360 
L 864 0 
L 0 0 
L 0 360 
z
" style="fill: none; opacity: 0"/>
  </g>
  <g id="axes_1">
   <g id="patch_2">
    <path d="M 108 320.4 
L 777.6 320.4 
L 777.6 43.2 
L 108 43.2 
L 108 320.4 
z
" style="fill: none; opacity: 0"/>
   </g>
   <g id="matplotlib.axis_1">
    <g id="xtick_1">
     <g id="line2d_1">
      <path d="M 128.925 320.4 
L 128.925 43.2 
" clip-path="url(#p868d86337f)" style="fill: none; stroke-dasharray: 5.12,1.28,0.8,1.28; stroke-dashoffset: 0; stroke: #b0b0b0; stroke-width: 0.8"/>
     </g>
     <g id="line2d_2">
      <defs>
       <path id="mb4db96e3c6" d="M 0 0 
L 0 3.5 
" style="stroke: #a9a9a9; stroke-width: 0.8"/>
      </defs>
      <g>
       <use xlink:href="#mb4db96e3c6" x="128.925" y="320.4" style="fill: #a9a9a9; stroke: #a9a9a9; stroke-width: 0.8"/>
      </g>
     </g>
     <g id="text_1">
      <!-- 2021-07 -->
      <g style="fill: #a9a9a9" transform="translate(108.033594 334.998438) scale(0.1 -0.1)">
       <defs>
        <path id="DejaVuSans-32" d="M 1228 531 
L 3431 531 
L 3431 0 
L 469 0 
L 469 531 
Q 828 903 1448 1529 
Q 2069 2156 2228 2338 
Q 2531 2678 2651 2914 
Q 2772 3150 2772 3378 
Q 2772 3750 2511 3984 
Q 2250 4219 1831 4219 
Q 1534 4219 1204 4116 
Q 875 4013 500 3803 
L 500 4441 
Q 881 4594 1212 4672 
Q 1544 4750 1819 4750 
Q 2544 4750 2975 4387 
Q 3406 4025 3406 3419 
Q 3406 3131 3298 2873 
Q 3191 2616 2906 2266 
Q 2828 2175 2409 1742 
Q 1991 1309 1228 531 
z
" transform="scale(0.015625)"/>
        <path id="DejaVuSans-30" d="M 2034 4250 
Q 1547 4250 1301 3770 
Q 1056 3291 1056 2328 
Q 1056 1369 1301 889 
Q 1547 409 2034 409 
Q 2525 409 2770 889 
Q 3016 1369 3016 2328 
Q 3016 3291 2770 3770 
Q 2525 4250 2034 4250 
z
M 2034 4750 
Q 2819 4750 3233 4129 
Q 3647 3509 3647 2328 
Q 3647 1150 3233 529 
Q 2819 -91 2034 -91 
Q 1250 -91 836 529 
Q 422 1150 422 2328 
Q 422 3509 836 4129 
Q 1250 4750 2034 4750 
z
" transform="scale(0.015625)"/>
        <path id="DejaVuSans-31" d="M 794 531 
L 1825 531 
L 1825 4091 
L 703 3866 
L 703 4441 
L 1819 4666 
L 2450 4666 
L 2450 531 
L 3481 531 
L 3481 0 
L 794 0 
L 794 531 
z
" transform="scale(0.015625)"/>
        <path id="DejaVuSans-2d" d="M 313 2009 
L 1997 2009 
L 1997 1497 
L 313 1497 
L 313 2009 
z
" transform="scale(0.015625)"/>
        <path id="DejaVuSans-37" d="M 525 4666 
L 3525 4666 
L 3525 4397 
L 1831 0 
L 1172 0 
L 2766 4134 
L 525 4134 
L 525 4666 
z
" transform="scale(0.015625)"/>
       </defs>
       <use xlink:href="#DejaVuSans-32"/>
       <use xlink:href="#DejaVuSans-30" transform="translate(63.623047 0)"/>
       <use xlink:href="#DejaVuSans-32" transform="translate(127.246094 0)"/>
       <use xlink:href="#DejaVuSans-31" transform="translate(190.869141 0)"/>
       <use xlink:href="#DejaVuSans-2d" transform="translate(254.492188 0)"/>
       <use xlink:href="#DejaVuSans-30" transform="translate(290.576172 0)"/>
       <use xlink:href="#DejaVuSans-37" transform="translate(354.199219 0)"/>
      </g>
     </g>
    </g>
    <g id="xtick_2">
     <g id="line2d_3">
      <path d="M 205.015909 320.4 
L 205.015909 43.2 
" clip-path="url(#p868d86337f)" style="fill: none; stroke-dasharray: 5.12,1.28,0.8,1.28; stroke-dashoffset: 0; stroke: #b0b0b0; stroke-width: 0.8"/>
     </g>
     <g id="line2d_4">
      <g>
       <use xlink:href="#mb4db96e3c6" x="205.015909" y="320.4" style="fill: #a9a9a9; stroke: #a9a9a9; stroke-width: 0.8"/>
      </g>
     </g>
     <g id="text_2">
      <!-- 2022-01 -->
      <g style="fill: #a9a9a9" transform="translate(184.124503 334.998438) scale(0.1 -0.1)">
       <use xlink:href="#DejaVuSans-32"/>
       <use xlink:href="#DejaVuSans-30" transform="translate(63.623047 0)"/>
       <use xlink:href="#DejaVuSans-32" transform="translate(127.246094 0)"/>
       <use xlink:href="#DejaVuSans-32" transform="translate(190.869141 0)"/>
       <use xlink:href="#DejaVuSans-2d" transform="translate(254.492188 0)"/>
       <use xlink:href="#DejaVuSans-30" transform="translate(290.576172 0)"/>
       <use xlink:href="#DejaVuSans-31" transform="translate(354.199219 0)"/>
      </g>
     </g>
    </g>
    <g id="xtick_3">
     <g id="line2d_5">
      <path d="M 279.866206 320.4 
L 279.866206 43.2 
" clip-path="url(#p868d86337f)" style="fill: none; stroke-dasharray: 5.12,1.28,0.8,1.28; stroke-dashoffset: 0; stroke: #b0b0b0; stroke-width: 0.8"/>
     </g>
     <g id="line2d_6">
      <g>
       <use xlink:href="#mb4db96e3c6" x="279.866206" y="320.4" style="fill: #a9a9a9; stroke: #a9a9a9; stroke-width: 0.8"/>
      </g>
     </g>
     <g id="text_3">
      <!-- 2022-07 -->
      <g style="fill: #a9a9a9" transform="translate(258.974799 334.998438) scale(0.1 -0.1)">
       <use xlink:href="#DejaVuSans-32"/>
       <use xlink:href="#DejaVuSans-30" transform="translate(63.623047 0)"/>
       <use xlink:href="#DejaVuSans-32" transform="translate(127.246094 0)"/>
       <use xlink:href="#DejaVuSans-32" transform="translate(190.869141 0)"/>
       <use xlink:href="#DejaVuSans-2d" transform="translate(254.492188 0)"/>
       <use xlink:href="#DejaVuSans-30" transform="translate(290.576172 0)"/>
       <use xlink:href="#DejaVuSans-37" transform="translate(354.199219 0)"/>
      </g>
     </g>
    </g>
    <g id="xtick_4">
     <g id="line2d_7">
      <path d="M 355.957115 320.4 
L 355.957115 43.2 
" clip-path="url(#p868d86337f)" style="fill: none; stroke-dasharray: 5.12,1.28,0.8,1.28; stroke-dashoffset: 0; stroke: #b0b0b0; stroke-width: 0.8"/>
     </g>
     <g id="line2d_8">
      <g>
       <use xlink:href="#mb4db96e3c6" x="355.957115" y="320.4" style="fill: #a9a9a9; stroke: #a9a9a9; stroke-width: 0.8"/>
      </g>
     </g>
     <g id="text_4">
      <!-- 2023-01 -->
      <g style="fill: #a9a9a9" transform="translate(335.065708 334.998438) scale(0.1 -0.1)">
       <defs>
        <path id="DejaVuSans-33" d="M 2597 2516 
Q 3050 2419 3304 2112 
Q 3559 1806 3559 1356 
Q 3559 666 3084 287 
Q 2609 -91 1734 -91 
Q 1441 -91 1130 -33 
Q 819 25 488 141 
L 488 750 
Q 750 597 1062 519 
Q 1375 441 1716 441 
Q 2309 441 2620 675 
Q 2931 909 2931 1356 
Q 2931 1769 2642 2001 
Q 2353 2234 1838 2234 
L 1294 2234 
L 1294 2753 
L 1863 2753 
Q 2328 2753 2575 2939 
Q 2822 3125 2822 3475 
Q 2822 3834 2567 4026 
Q 2313 4219 1838 4219 
Q 1578 4219 1281 4162 
Q 984 4106 628 3988 
L 628 4550 
Q 988 4650 1302 4700 
Q 1616 4750 1894 4750 
Q 2613 4750 3031 4423 
Q 3450 4097 3450 3541 
Q 3450 3153 3228 2886 
Q 3006 2619 2597 2516 
z
" transform="scale(0.015625)"/>
       </defs>
       <use xlink:href="#DejaVuSans-32"/>
       <use xlink:href="#DejaVuSans-30" transform="translate(63.623047 0)"/>
       <use xlink:href="#DejaVuSans-32" transform="translate(127.246094 0)"/>
       <use xlink:href="#DejaVuSans-33" transform="translate(190.869141 0)"/>
       <use xlink:href="#DejaVuSans-2d" transform="translate(254.492188 0)"/>
       <use xlink:href="#DejaVuSans-30" transform="translate(290.576172 0)"/>
       <use xlink:href="#DejaVuSans-31" transform="translate(354.199219 0)"/>
      </g>
     </g>
    </g>
    <g id="xtick_5">
     <g id="line2d_9">
      <path d="M 430.807411 320.4 
L 430.807411 43.2 
" clip-path="url(#p868d86337f)" style="fill: none; stroke-dasharray: 5.12,1.28,0.8,1.28; stroke-dashoffset: 0; stroke: #b0b0b0; stroke-width: 0.8"/>
     </g>
     <g id="line2d_10">
      <g>
       <use xlink:href="#mb4db96e3c6" x="430.807411" y="320.4" style="fill: #a9a9a9; stroke: #a9a9a9; stroke-width: 0.8"/>
      </g>
     </g>
     <g id="text_5">
      <!-- 2023-07 -->
      <g style="fill: #a9a9a9" transform="translate(409.916005 334.998438) scale(0.1 -0.1)">
       <use xlink:href="#DejaVuSans-32"/>
       <use xlink:href="#DejaVuSans-30" transform="translate(63.623047 0)"/>
       <use xlink:href="#DejaVuSans-32" transform="translate(127.246094 0)"/>
       <use xlink:href="#DejaVuSans-33" transform="translate(190.869141 0)"/>
       <use xlink:href="#DejaVuSans-2d" transform="translate(254.492188 0)"/>
       <use xlink:href="#DejaVuSans-30" transform="translate(290.576172 0)"/>
       <use xlink:href="#DejaVuSans-37" transform="translate(354.199219 0)"/>
      </g>
     </g>
    </g>
    <g id="xtick_6">
     <g id="line2d_11">
      <path d="M 506.89832 320.4 
L 506.89832 43.2 
" clip-path="url(#p868d86337f)" style="fill: none; stroke-dasharray: 5.12,1.28,0.8,1.28; stroke-dashoffset: 0; stroke: #b0b0b0; stroke-width: 0.8"/>
     </g>
     <g id="line2d_12">
      <g>
       <use xlink:href="#mb4db96e3c6" x="506.89832" y="320.4" style="fill: #a9a9a9; stroke: #a9a9a9; stroke-width: 0.8"/>
      </g>
     </g>
     <g id="text_6">
      <!-- 2024-01 -->
      <g style="fill: #a9a9a9" transform="translate(486.006914 334.998438) scale(0.1 -0.1)">
       <defs>
        <path id="DejaVuSans-34" d="M 2419 4116 
L 825 1625 
L 2419 1625 
L 2419 4116 
z
M 2253 4666 
L 3047 4666 
L 3047 1625 
L 3713 1625 
L 3713 1100 
L 3047 1100 
L 3047 0 
L 2419 0 
L 2419 1100 
L 313 1100 
L 313 1709 
L 2253 4666 
z
" transform="scale(0.015625)"/>
       </defs>
       <use xlink:href="#DejaVuSans-32"/>
       <use xlink:href="#DejaVuSans-30" transform="translate(63.623047 0)"/>
       <use xlink:href="#DejaVuSans-32" transform="translate(127.246094 0)"/>
       <use xlink:href="#DejaVuSans-34" transform="translate(190.869141 0)"/>
       <use xlink:href="#DejaVuSans-2d" transform="translate(254.492188 0)"/>
       <use xlink:href="#DejaVuSans-30" transform="translate(290.576172 0)"/>
       <use xlink:href="#DejaVuSans-31" transform="translate(354.199219 0)"/>
      </g>
     </g>
    </g>
    <g id="xtick_7">
     <g id="line2d_13">
      <path d="M 582.162154 320.4 
L 582.162154 43.2 
" clip-path="url(#p868d86337f)" style="fill: none; stroke-dasharray: 5.12,1.28,0.8,1.28; stroke-dashoffset: 0; stroke: #b0b0b0; stroke-width: 0.8"/>
     </g>
     <g id="line2d_14">
      <g>
       <use xlink:href="#mb4db96e3c6" x="582.162154" y="320.4" style="fill: #a9a9a9; stroke: #a9a9a9; stroke-width: 0.8"/>
      </g>
     </g>
     <g id="text_7">
      <!-- 2024-07 -->
      <g style="fill: #a9a9a9" transform="translate(561.270748 334.998438) scale(0.1 -0.1)">
       <use xlink:href="#DejaVuSans-32"/>
       <use xlink:href="#DejaVuSans-30" transform="translate(63.623047 0)"/>
       <use xlink:href="#DejaVuSans-32" transform="translate(127.246094 0)"/>
       <use xlink:href="#DejaVuSans-34" transform="translate(190.869141 0)"/>
       <use xlink:href="#DejaVuSans-2d" transform="translate(254.492188 0)"/>
       <use xlink:href="#DejaVuSans-30" transform="translate(290.576172 0)"/>
       <use xlink:href="#DejaVuSans-37" transform="translate(354.199219 0)"/>
      </g>
     </g>
    </g>
    <g id="xtick_8">
     <g id="line2d_15">
      <path d="M 658.253063 320.4 
L 658.253063 43.2 
" clip-path="url(#p868d86337f)" style="fill: none; stroke-dasharray: 5.12,1.28,0.8,1.28; stroke-dashoffset: 0; stroke: #b0b0b0; stroke-width: 0.8"/>
     </g>
     <g id="line2d_16">
      <g>
       <use xlink:href="#mb4db96e3c6" x="658.253063" y="320.4" style="fill: #a9a9a9; stroke: #a9a9a9; stroke-width: 0.8"/>
      </g>
     </g>
     <g id="text_8">
      <!-- 2025-01 -->
      <g style="fill: #a9a9a9" transform="translate(637.361657 334.998438) scale(0.1 -0.1)">
       <defs>
        <path id="DejaVuSans-35" d="M 691 4666 
L 3169 4666 
L 3169 4134 
L 1269 4134 
L 1269 2991 
Q 1406 3038 1543 3061 
Q 1681 3084 1819 3084 
Q 2600 3084 3056 2656 
Q 3513 2228 3513 1497 
Q 3513 744 3044 326 
Q 2575 -91 1722 -91 
Q 1428 -91 1123 -41 
Q 819 9 494 109 
L 494 744 
Q 775 591 1075 516 
Q 1375 441 1709 441 
Q 2250 441 2565 725 
Q 2881 1009 2881 1497 
Q 2881 1984 2565 2268 
Q 2250 2553 1709 2553 
Q 1456 2553 1204 2497 
Q 953 2441 691 2322 
L 691 4666 
z
" transform="scale(0.015625)"/>
       </defs>
       <use xlink:href="#DejaVuSans-32"/>
       <use xlink:href="#DejaVuSans-30" transform="translate(63.623047 0)"/>
       <use xlink:href="#DejaVuSans-32" transform="translate(127.246094 0)"/>
       <use xlink:href="#DejaVuSans-35" transform="translate(190.869141 0)"/>
       <use xlink:href="#DejaVuSans-2d" transform="translate(254.492188 0)"/>
       <use xlink:href="#DejaVuSans-30" transform="translate(290.576172 0)"/>
       <use xlink:href="#DejaVuSans-31" transform="translate(354.199219 0)"/>
      </g>
     </g>
    </g>
    <g id="xtick_9">
     <g id="line2d_17">
      <path d="M 733.10336 320.4 
L 733.10336 43.2 
" clip-path="url(#p868d86337f)" style="fill: none; stroke-dasharray: 5.12,1.28,0.8,1.28; stroke-dashoffset: 0; stroke: #b0b0b0; stroke-width: 0.8"/>
     </g>
     <g id="line2d_18">
      <g>
       <use xlink:href="#mb4db96e3c6" x="733.10336" y="320.4" style="fill: #a9a9a9; stroke: #a9a9a9; stroke-width: 0.8"/>
      </g>
     </g>
     <g id="text_9">
      <!-- 2025-07 -->
      <g style="fill: #a9a9a9" transform="translate(712.211953 334.998438) scale(0.1 -0.1)">
       <use xlink:href="#DejaVuSans-32"/>
       <use xlink:href="#DejaVuSans-30" transform="translate(63.623047 0)"/>
       <use xlink:href="#DejaVuSans-32" transform="translate(127.246094 0)"/>
       <use xlink:href="#DejaVuSans-35" transform="translate(190.869141 0)"/>
       <use xlink:href="#DejaVuSans-2d" transform="translate(254.492188 0)"/>
       <use xlink:href="#DejaVuSans-30" transform="translate(290.576172 0)"/>
       <use xlink:href="#DejaVuSans-37" transform="translate(354.199219 0)"/>
      </g>
     </g>
    </g>
   </g>
   <g id="matplotlib.axis_2">
    <g id="ytick_1">
     <g id="line2d_19">
      <path d="M 108 307.83163 
L 777.6 307.83163 
" clip-path="url(#p868d86337f)" style="fill: none; stroke-dasharray: 5.12,1.28,0.8,1.28; stroke-dashoffset: 0; stroke: #b0b0b0; stroke-width: 0.8"/>
     </g>
     <g id="line2d_20">
      <defs>
       <path id="m27b90e9a05" d="M 0 0 
L -3.5 0 
" style="stroke: #a9a9a9; stroke-width: 0.8"/>
      </defs>
      <g>
       <use xlink:href="#m27b90e9a05" x="108" y="307.83163" style="fill: #a9a9a9; stroke: #a9a9a9; stroke-width: 0.8"/>
      </g>
     </g>
     <g id="text_10">
      <!-- 0 -->
      <g style="fill: #a9a9a9" transform="translate(94.6375 311.630849) scale(0.1 -0.1)">
       <use xlink:href="#DejaVuSans-30"/>
      </g>
     </g>
    </g>
    <g id="ytick_2">
     <g id="line2d_21">
      <path d="M 108 276.201155 
L 777.6 276.201155 
" clip-path="url(#p868d86337f)" style="fill: none; stroke-dasharray: 5.12,1.28,0.8,1.28; stroke-dashoffset: 0; stroke: #b0b0b0; stroke-width: 0.8"/>
     </g>
     <g id="line2d_22">
      <g>
       <use xlink:href="#m27b90e9a05" x="108" y="276.201155" style="fill: #a9a9a9; stroke: #a9a9a9; stroke-width: 0.8"/>
      </g>
     </g>
     <g id="text_11">
      <!-- 1000 -->
      <g style="fill: #a9a9a9" transform="translate(75.55 280.000374) scale(0.1 -0.1)">
       <use xlink:href="#DejaVuSans-31"/>
       <use xlink:href="#DejaVuSans-30" transform="translate(63.623047 0)"/>
       <use xlink:href="#DejaVuSans-30" transform="translate(127.246094 0)"/>
       <use xlink:href="#DejaVuSans-30" transform="translate(190.869141 0)"/>
      </g>
     </g>
    </g>
    <g id="ytick_3">
     <g id="line2d_23">
      <path d="M 108 244.570679 
L 777.6 244.570679 
" clip-path="url(#p868d86337f)" style="fill: none; stroke-dasharray: 5.12,1.28,0.8,1.28; stroke-dashoffset: 0; stroke: #b0b0b0; stroke-width: 0.8"/>
     </g>
     <g id="line2d_24">
      <g>
       <use xlink:href="#m27b90e9a05" x="108" y="244.570679" style="fill: #a9a9a9; stroke: #a9a9a9; stroke-width: 0.8"/>
      </g>
     </g>
     <g id="text_12">
      <!-- 2000 -->
      <g style="fill: #a9a9a9" transform="translate(75.55 248.369898) scale(0.1 -0.1)">
       <use xlink:href="#DejaVuSans-32"/>
       <use xlink:href="#DejaVuSans-30" transform="translate(63.623047 0)"/>
       <use xlink:href="#DejaVuSans-30" transform="translate(127.246094 0)"/>
       <use xlink:href="#DejaVuSans-30" transform="translate(190.869141 0)"/>
      </g>
     </g>
    </g>
    <g id="ytick_4">
     <g id="line2d_25">
      <path d="M 108 212.940203 
L 777.6 212.940203 
" clip-path="url(#p868d86337f)" style="fill: none; stroke-dasharray: 5.12,1.28,0.8,1.28; stroke-dashoffset: 0; stroke: #b0b0b0; stroke-width: 0.8"/>
     </g>
     <g id="line2d_26">
      <g>
       <use xlink:href="#m27b90e9a05" x="108" y="212.940203" style="fill: #a9a9a9; stroke: #a9a9a9; stroke-width: 0.8"/>
      </g>
     </g>
     <g id="text_13">
      <!-- 3000 -->
      <g style="fill: #a9a9a9" transform="translate(75.55 216.739422) scale(0.1 -0.1)">
       <use xlink:href="#DejaVuSans-33"/>
       <use xlink:href="#DejaVuSans-30" transform="translate(63.623047 0)"/>
       <use xlink:href="#DejaVuSans-30" transform="translate(127.246094 0)"/>
       <use xlink:href="#DejaVuSans-30" transform="translate(190.869141 0)"/>
      </g>
     </g>
    </g>
    <g id="ytick_5">
     <g id="line2d_27">
      <path d="M 108 181.309728 
L 777.6 181.309728 
" clip-path="url(#p868d86337f)" style="fill: none; stroke-dasharray: 5.12,1.28,0.8,1.28; stroke-dashoffset: 0; stroke: #b0b0b0; stroke-width: 0.8"/>
     </g>
     <g id="line2d_28">
      <g>
       <use xlink:href="#m27b90e9a05" x="108" y="181.309728" style="fill: #a9a9a9; stroke: #a9a9a9; stroke-width: 0.8"/>
      </g>
     </g>
     <g id="text_14">
      <!-- 4000 -->
      <g style="fill: #a9a9a9" transform="translate(75.55 185.108946) scale(0.1 -0.1)">
       <use xlink:href="#DejaVuSans-34"/>
       <use xlink:href="#DejaVuSans-30" transform="translate(63.623047 0)"/>
       <use xlink:href="#DejaVuSans-30" transform="translate(127.246094 0)"/>
       <use xlink:href="#DejaVuSans-30" transform="translate(190.869141 0)"/>
      </g>
     </g>
    </g>
    <g id="ytick_6">
     <g id="line2d_29">
      <path d="M 108 149.679252 
L 777.6 149.679252 
" clip-path="url(#p868d86337f)" style="fill: none; stroke-dasharray: 5.12,1.28,0.8,1.28; stroke-dashoffset: 0; stroke: #b0b0b0; stroke-width: 0.8"/>
     </g>
     <g id="line2d_30">
      <g>
       <use xlink:href="#m27b90e9a05" x="108" y="149.679252" style="fill: #a9a9a9; stroke: #a9a9a9; stroke-width: 0.8"/>
      </g>
     </g>
     <g id="text_15">
      <!-- 5000 -->
      <g style="fill: #a9a9a9" transform="translate(75.55 153.478471) scale(0.1 -0.1)">
       <use xlink:href="#DejaVuSans-35"/>
       <use xlink:href="#DejaVuSans-30" transform="translate(63.623047 0)"/>
       <use xlink:href="#DejaVuSans-30" transform="translate(127.246094 0)"/>
       <use xlink:href="#DejaVuSans-30" transform="translate(190.869141 0)"/>
      </g>
     </g>
    </g>
    <g id="ytick_7">
     <g id="line2d_31">
      <path d="M 108 118.048776 
L 777.6 118.048776 
" clip-path="url(#p868d86337f)" style="fill: none; stroke-dasharray: 5.12,1.28,0.8,1.28; stroke-dashoffset: 0; stroke: #b0b0b0; stroke-width: 0.8"/>
     </g>
     <g id="line2d_32">
      <g>
       <use xlink:href="#m27b90e9a05" x="108" y="118.048776" style="fill: #a9a9a9; stroke: #a9a9a9; stroke-width: 0.8"/>
      </g>
     </g>
     <g id="text_16">
      <!-- 6000 -->
      <g style="fill: #a9a9a9" transform="translate(75.55 121.847995) scale(0.1 -0.1)">
       <defs>
        <path id="DejaVuSans-36" d="M 2113 2584 
Q 1688 2584 1439 2293 
Q 1191 2003 1191 1497 
Q 1191 994 1439 701 
Q 1688 409 2113 409 
Q 2538 409 2786 701 
Q 3034 994 3034 1497 
Q 3034 2003 2786 2293 
Q 2538 2584 2113 2584 
z
M 3366 4563 
L 3366 3988 
Q 3128 4100 2886 4159 
Q 2644 4219 2406 4219 
Q 1781 4219 1451 3797 
Q 1122 3375 1075 2522 
Q 1259 2794 1537 2939 
Q 1816 3084 2150 3084 
Q 2853 3084 3261 2657 
Q 3669 2231 3669 1497 
Q 3669 778 3244 343 
Q 2819 -91 2113 -91 
Q 1303 -91 875 529 
Q 447 1150 447 2328 
Q 447 3434 972 4092 
Q 1497 4750 2381 4750 
Q 2619 4750 2861 4703 
Q 3103 4656 3366 4563 
z
" transform="scale(0.015625)"/>
       </defs>
       <use xlink:href="#DejaVuSans-36"/>
       <use xlink:href="#DejaVuSans-30" transform="translate(63.623047 0)"/>
       <use xlink:href="#DejaVuSans-30" transform="translate(127.246094 0)"/>
       <use xlink:href="#DejaVuSans-30" transform="translate(190.869141 0)"/>
      </g>
     </g>
    </g>
    <g id="ytick_8">
     <g id="line2d_33">
      <path d="M 108 86.4183 
L 777.6 86.4183 
" clip-path="url(#p868d86337f)" style="fill: none; stroke-dasharray: 5.12,1.28,0.8,1.28; stroke-dashoffset: 0; stroke: #b0b0b0; stroke-width: 0.8"/>
     </g>
     <g id="line2d_34">
      <g>
       <use xlink:href="#m27b90e9a05" x="108" y="86.4183" style="fill: #a9a9a9; stroke: #a9a9a9; stroke-width: 0.8"/>
      </g>
     </g>
     <g id="text_17">
      <!-- 7000 -->
      <g style="fill: #a9a9a9" transform="translate(75.55 90.217519) scale(0.1 -0.1)">
       <use xlink:href="#DejaVuSans-37"/>
       <use xlink:href="#DejaVuSans-30" transform="translate(63.623047 0)"/>
       <use xlink:href="#DejaVuSans-30" transform="translate(127.246094 0)"/>
       <use xlink:href="#DejaVuSans-30" transform="translate(190.869141 0)"/>
      </g>
     </g>
    </g>
    <g id="ytick_9">
     <g id="line2d_35">
      <path d="M 108 54.787825 
L 777.6 54.787825 
" clip-path="url(#p868d86337f)" style="fill: none; stroke-dasharray: 5.12,1.28,0.8,1.28; stroke-dashoffset: 0; stroke: #b0b0b0; stroke-width: 0.8"/>
     </g>
     <g id="line2d_36">
      <g>
       <use xlink:href="#m27b90e9a05" x="108" y="54.787825" style="fill: #a9a9a9; stroke: #a9a9a9; stroke-width: 0.8"/>
      </g>
     </g>
     <g id="text_18">
      <!-- 8000 -->
      <g style="fill: #a9a9a9" transform="translate(75.55 58.587044) scale(0.1 -0.1)">
       <defs>
        <path id="DejaVuSans-38" d="M 2034 2216 
Q 1584 2216 1326 1975 
Q 1069 1734 1069 1313 
Q 1069 891 1326 650 
Q 1584 409 2034 409 
Q 2484 409 2743 651 
Q 3003 894 3003 1313 
Q 3003 1734 2745 1975 
Q 2488 2216 2034 2216 
z
M 1403 2484 
Q 997 2584 770 2862 
Q 544 3141 544 3541 
Q 544 4100 942 4425 
Q 1341 4750 2034 4750 
Q 2731 4750 3128 4425 
Q 3525 4100 3525 3541 
Q 3525 3141 3298 2862 
Q 3072 2584 2669 2484 
Q 3125 2378 3379 2068 
Q 3634 1759 3634 1313 
Q 3634 634 3220 271 
Q 2806 -91 2034 -91 
Q 1263 -91 848 271 
Q 434 634 434 1313 
Q 434 1759 690 2068 
Q 947 2378 1403 2484 
z
M 1172 3481 
Q 1172 3119 1398 2916 
Q 1625 2713 2034 2713 
Q 2441 2713 2670 2916 
Q 2900 3119 2900 3481 
Q 2900 3844 2670 4047 
Q 2441 4250 2034 4250 
Q 1625 4250 1398 4047 
Q 1172 3844 1172 3481 
z
" transform="scale(0.015625)"/>
       </defs>
       <use xlink:href="#DejaVuSans-38"/>
       <use xlink:href="#DejaVuSans-30" transform="translate(63.623047 0)"/>
       <use xlink:href="#DejaVuSans-30" transform="translate(127.246094 0)"/>
       <use xlink:href="#DejaVuSans-30" transform="translate(190.869141 0)"/>
      </g>
     </g>
    </g>
   </g>
   <g id="line2d_37">
    <path d="M 138.436364 307.736739 
L 140.917589 307.515326 
L 141.331126 307.325543 
L 142.985277 307.10413 
L 144.639427 306.756194 
L 145.466502 306.629672 
L 147.53419 306.43989 
L 148.361265 306.091954 
L 148.774802 305.522606 
L 149.18834 305.237931 
L 149.601877 304.289017 
L 150.015415 304.225756 
L 150.428953 303.877821 
L 151.256028 303.434994 
L 152.910178 302.043253 
L 154.564328 301.189231 
L 155.804941 300.588252 
L 156.218478 299.892381 
L 157.045553 299.259772 
L 157.459091 299.069989 
L 161.594466 298.437379 
L 162.008004 298.247596 
L 164.902767 297.994553 
L 166.556917 297.583356 
L 169.865217 297.108899 
L 170.278755 296.887486 
L 170.692292 296.824225 
L 171.519368 296.539551 
L 174.41413 296.033463 
L 175.241206 295.780419 
L 178.963043 295.14781 
L 179.790119 294.958027 
L 180.617194 294.926396 
L 182.271344 294.5152 
L 182.684881 293.914221 
L 183.925494 293.408134 
L 185.166107 293.060198 
L 185.579644 292.838785 
L 186.406719 292.680633 
L 188.06087 292.174545 
L 188.887945 292.111284 
L 189.71502 291.889871 
L 191.36917 291.447044 
L 191.782708 291.415414 
L 192.609783 291.004217 
L 193.02332 290.940956 
L 193.436858 290.719543 
L 197.985771 289.928781 
L 199.639921 289.422694 
L 200.053458 289.138019 
L 202.121146 288.442149 
L 202.948221 287.84117 
L 204.188834 287.588126 
L 209.564822 286.006602 
L 209.97836 285.943341 
L 211.63251 285.279101 
L 212.046047 285.21584 
L 212.873123 284.867905 
L 213.700198 284.836275 
L 214.94081 284.456709 
L 215.354348 284.456709 
L 215.767885 284.266926 
L 216.59496 284.172035 
L 217.008498 284.013882 
L 218.662648 283.950621 
L 219.489723 283.792469 
L 220.316798 283.349642 
L 221.557411 282.875185 
L 222.384486 282.432358 
L 223.211561 281.989532 
L 224.038636 281.704858 
L 224.452174 281.578336 
L 225.279249 281.040618 
L 225.692787 280.56616 
L 226.519862 279.23768 
L 226.933399 279.111159 
L 227.346937 279.111159 
L 229.001087 278.162244 
L 229.414625 278.067353 
L 229.828162 277.656157 
L 230.655237 277.308221 
L 231.482312 276.928656 
L 231.89585 276.422568 
L 232.309387 275.726698 
L 232.722925 275.442023 
L 233.136462 274.682892 
L 233.55 274.208435 
L 236.031225 272.816694 
L 237.685375 271.298431 
L 238.098913 270.317886 
L 238.512451 269.685277 
L 238.925988 269.337342 
L 239.339526 269.147559 
L 242.647826 266.016142 
L 243.474901 265.22538 
L 245.956126 263.612225 
L 246.369664 263.454073 
L 248.023814 262.441898 
L 248.437352 262.252115 
L 250.50504 260.291025 
L 251.332115 259.94309 
L 252.15919 259.342111 
L 252.572727 259.089067 
L 252.986265 259.025806 
L 254.226877 258.298306 
L 254.640415 257.823848 
L 256.708103 256.653521 
L 257.12164 256.495368 
L 258.362253 255.609715 
L 264.565316 253.332321 
L 265.392391 252.541559 
L 266.633004 251.908949 
L 267.460079 251.371231 
L 268.287154 251.118188 
L 268.700692 250.833513 
L 269.114229 250.706991 
L 270.354842 249.852968 
L 272.42253 249.378511 
L 273.663142 248.61938 
L 274.903755 248.334706 
L 275.317292 248.239814 
L 276.557905 247.2909 
L 278.212055 246.816443 
L 278.625593 246.468508 
L 281.106818 245.582854 
L 281.933893 245.424702 
L 282.760968 245.076767 
L 285.655731 243.9697 
L 286.482806 243.874809 
L 287.723419 243.431982 
L 289.791107 242.388176 
L 292.272332 240.964805 
L 293.099407 240.743391 
L 294.34002 240.110782 
L 295.167095 239.95263 
L 295.99417 239.446542 
L 296.821245 239.225129 
L 298.061858 238.719041 
L 299.716008 238.497628 
L 300.543083 238.054801 
L 300.956621 237.675235 
L 301.370158 236.916104 
L 303.024308 236.441647 
L 304.264921 235.777407 
L 305.091996 235.492733 
L 306.332609 234.860123 
L 308.400296 234.0061 
L 309.227372 233.816317 
L 310.467984 233.183708 
L 310.881522 233.120447 
L 312.949209 232.076641 
L 313.776285 231.538923 
L 315.016897 231.285879 
L 317.084585 230.748161 
L 317.498123 230.400226 
L 318.325198 230.115552 
L 320.392885 229.261529 
L 320.806423 228.945224 
L 321.21996 228.787072 
L 322.047036 228.312615 
L 323.701186 227.774896 
L 324.528261 227.237178 
L 324.941798 226.794352 
L 325.355336 226.541308 
L 325.768874 226.446416 
L 326.595949 225.750546 
L 327.009486 225.687285 
L 327.423024 224.991415 
L 327.836561 224.801632 
L 328.250099 224.453696 
L 328.663636 224.390436 
L 329.490711 223.852717 
L 330.317787 223.568043 
L 330.731324 223.251738 
L 331.144862 223.093586 
L 332.799012 221.954889 
L 334.039625 221.322279 
L 334.8667 221.100866 
L 335.693775 220.626409 
L 336.107312 219.898908 
L 336.934387 219.266298 
L 337.347925 219.171407 
L 339.82915 217.937819 
L 340.656225 217.589883 
L 341.4833 216.988904 
L 342.723913 215.818577 
L 343.550988 215.312489 
L 343.964526 214.838032 
L 345.618676 213.667704 
L 346.445751 212.813681 
L 347.272826 212.529007 
L 348.099901 211.959659 
L 349.340514 211.295419 
L 349.754051 211.232158 
L 350.994664 210.536287 
L 351.821739 209.998569 
L 355.957115 208.417045 
L 356.370652 208.06911 
L 358.024802 207.40487 
L 358.43834 207.278348 
L 359.265415 206.74063 
L 360.09249 206.392695 
L 360.919565 205.791716 
L 361.74664 204.08367 
L 362.573715 203.071495 
L 363.814328 202.407255 
L 364.641403 202.05932 
L 365.054941 201.996059 
L 365.882016 201.616493 
L 367.536166 201.047144 
L 368.363241 200.572687 
L 369.190316 200.161491 
L 369.603854 200.034969 
L 372.085079 198.516706 
L 372.498617 198.042249 
L 373.739229 197.314748 
L 374.152767 197.156596 
L 374.979842 196.650508 
L 376.633992 195.733225 
L 377.04753 195.638333 
L 377.461067 195.290398 
L 380.35583 194.309853 
L 380.769368 193.993548 
L 381.596443 193.740505 
L 382.423518 193.392569 
L 382.837055 193.044634 
L 384.491206 192.443655 
L 385.318281 191.842676 
L 386.145356 191.494741 
L 386.972431 190.830501 
L 387.799506 190.577457 
L 388.213043 190.197891 
L 388.626581 190.13463 
L 389.453656 189.47039 
L 391.521344 188.236802 
L 392.348419 187.983758 
L 392.761957 187.730714 
L 393.175494 187.667453 
L 394.416107 186.971583 
L 400.61917 185.010493 
L 401.859783 184.093209 
L 402.27332 183.935057 
L 403.100395 183.4606 
L 403.513933 183.334078 
L 405.995158 181.910707 
L 406.408696 181.815815 
L 407.649308 181.056684 
L 408.889921 180.613857 
L 409.716996 180.329183 
L 411.371146 179.759834 
L 412.198221 179.47516 
L 413.852372 179.127225 
L 414.265909 178.937442 
L 415.092984 178.716029 
L 415.506522 178.526246 
L 415.920059 178.462985 
L 416.333597 178.241571 
L 417.160672 178.083419 
L 418.401285 177.608962 
L 419.641897 177.419179 
L 422.123123 176.944722 
L 423.363735 176.660048 
L 423.777273 176.470265 
L 424.604348 176.312112 
L 425.431423 176.090699 
L 426.258498 175.711133 
L 426.672036 175.552981 
L 427.085573 175.552981 
L 431.634486 174.12961 
L 432.048024 173.908196 
L 432.461561 173.908196 
L 433.288636 173.591892 
L 433.702174 173.149065 
L 436.183399 172.105259 
L 437.837549 171.535911 
L 438.251087 171.282867 
L 439.4917 170.903301 
L 440.318775 170.681888 
L 440.732312 170.397214 
L 441.14585 170.302322 
L 441.559387 169.922756 
L 442.8 169.669713 
L 443.627075 169.290147 
L 444.040613 168.784059 
L 448.589526 167.771884 
L 449.003063 167.771884 
L 449.416601 167.582101 
L 451.070751 167.265796 
L 451.484289 167.076014 
L 453.138439 166.759709 
L 453.965514 166.411774 
L 454.792589 166.253621 
L 456.860277 165.715903 
L 458.514427 165.178185 
L 458.927964 165.083294 
L 459.341502 164.86188 
L 460.168577 164.640467 
L 460.995652 164.292532 
L 461.822727 163.976227 
L 462.236265 163.691553 
L 463.06334 163.438509 
L 465.958103 162.331442 
L 467.612253 162.141659 
L 470.920553 160.908071 
L 471.334091 160.591766 
L 471.747628 160.496875 
L 472.161166 160.275461 
L 472.574704 160.243831 
L 477.123617 158.567416 
L 479.191304 157.998067 
L 480.018379 157.586871 
L 481.258992 157.302197 
L 482.913142 155.910456 
L 484.567292 155.182955 
L 485.394368 154.803389 
L 487.875593 153.822844 
L 488.28913 153.53817 
L 490.356818 152.842299 
L 494.492194 150.723058 
L 495.319269 150.343492 
L 495.732806 150.027187 
L 496.559881 149.742513 
L 498.627569 148.667077 
L 499.868182 148.22425 
L 501.108794 147.749793 
L 503.176482 146.959031 
L 504.003557 146.832509 
L 504.417095 146.547835 
L 506.071245 146.23153 
L 506.89832 145.883595 
L 508.55247 145.092833 
L 514.341996 142.499134 
L 515.582609 142.087938 
L 515.996146 141.803263 
L 516.823221 141.708372 
L 517.236759 141.423698 
L 518.063834 141.297176 
L 518.890909 140.88598 
L 519.304447 140.696197 
L 520.131522 140.474783 
L 520.958597 140.22174 
L 522.199209 139.747283 
L 523.439822 139.336086 
L 524.680435 139.051412 
L 526.334585 138.355542 
L 527.16166 137.912715 
L 528.81581 137.058692 
L 529.642885 136.868909 
L 530.056423 136.615865 
L 530.46996 136.520974 
L 531.710573 135.793473 
L 532.537648 135.445538 
L 537.913636 133.421187 
L 538.327174 133.357926 
L 539.981324 132.567165 
L 540.808399 132.409012 
L 541.635474 131.934555 
L 543.289625 131.143793 
L 547.425 129.499008 
L 548.252075 129.087812 
L 548.665613 128.992921 
L 549.07915 128.771507 
L 550.7333 128.29705 
L 552.387451 126.905309 
L 552.800988 126.778787 
L 553.214526 126.525744 
L 554.455138 126.177808 
L 554.868676 125.861504 
L 555.282213 125.766612 
L 556.522826 125.007481 
L 556.936364 124.722807 
L 558.176976 124.248349 
L 558.590514 124.026936 
L 559.831126 123.742262 
L 561.898814 123.014761 
L 562.725889 122.761717 
L 563.966502 122.097477 
L 564.793577 121.686281 
L 565.620652 121.464868 
L 566.861265 120.863889 
L 570.99664 119.187473 
L 573.064328 118.175298 
L 573.891403 117.858993 
L 574.304941 117.479428 
L 575.132016 117.131492 
L 576.372628 116.688666 
L 576.786166 116.340731 
L 577.199704 116.3091 
L 578.026779 116.056056 
L 578.853854 115.771382 
L 579.267391 115.581599 
L 579.680929 115.518338 
L 580.508004 115.170403 
L 581.748617 114.885729 
L 582.575692 114.411271 
L 582.989229 114.253119 
L 583.402767 113.936814 
L 584.643379 113.62051 
L 585.056917 113.367466 
L 585.883992 113.146052 
L 587.124605 112.450182 
L 587.538142 112.418552 
L 588.778755 112.007355 
L 589.60583 111.944094 
L 590.019368 111.722681 
L 590.846443 111.501268 
L 591.25998 111.279854 
L 593.327668 110.868658 
L 594.154743 110.710506 
L 595.395356 110.236049 
L 596.635968 109.951374 
L 597.876581 109.287134 
L 598.290119 108.907569 
L 599.530731 108.148437 
L 599.944269 107.832133 
L 601.184881 107.420936 
L 602.011957 107.199523 
L 604.493182 106.060826 
L 604.906719 105.997565 
L 605.733794 105.586369 
L 607.387945 105.143542 
L 608.21502 104.763976 
L 608.628557 104.542563 
L 609.455632 104.289519 
L 609.86917 104.068106 
L 610.696245 103.909954 
L 614.004545 102.454952 
L 614.418083 102.391691 
L 615.658696 101.569298 
L 616.072233 101.506037 
L 617.726383 100.841797 
L 619.380534 100.430601 
L 619.794071 100.36734 
L 620.207609 100.177557 
L 620.621146 100.145927 
L 621.448221 99.861253 
L 621.861759 99.829622 
L 623.102372 99.355165 
L 624.756522 98.880708 
L 625.583597 98.248098 
L 627.237747 97.330815 
L 627.651285 97.235923 
L 628.064822 97.01451 
L 628.891897 96.729836 
L 629.305435 96.603314 
L 629.718972 96.255378 
L 630.959585 95.780921 
L 631.78666 95.306464 
L 632.200198 95.085051 
L 632.613735 94.705485 
L 634.681423 94.199398 
L 635.922036 93.630049 
L 636.749111 93.408636 
L 637.162648 93.187222 
L 637.576186 92.839287 
L 639.230336 92.39646 
L 639.643874 92.080156 
L 645.019862 90.119066 
L 645.846937 89.960914 
L 647.914625 89.296674 
L 648.7417 88.948739 
L 649.568775 88.632434 
L 650.39585 88.41102 
L 650.809387 88.221238 
L 651.222925 88.221238 
L 652.05 87.873302 
L 652.877075 87.398845 
L 655.771838 86.4183 
L 657.425988 85.848952 
L 658.666601 85.564278 
L 659.907213 85.153081 
L 660.320751 85.05819 
L 660.734289 84.773516 
L 661.561364 84.583733 
L 663.215514 84.109276 
L 663.629051 84.077645 
L 664.456126 83.69808 
L 667.350889 82.970579 
L 669.00504 82.3696 
L 669.418577 82.3696 
L 670.65919 82.084925 
L 671.486265 81.926773 
L 672.31334 81.70536 
L 673.553953 81.04112 
L 674.794565 80.661554 
L 677.689328 79.681009 
L 678.102866 79.459596 
L 678.516403 79.364704 
L 679.757016 78.732095 
L 680.584091 78.573943 
L 681.411166 78.320899 
L 682.238241 77.909703 
L 682.651779 77.561767 
L 683.478854 77.308723 
L 683.892391 77.05568 
L 684.719466 76.960788 
L 687.614229 76.138396 
L 688.854842 75.885352 
L 690.095455 75.569047 
L 690.92253 75.347634 
L 692.163142 74.715024 
L 693.817292 74.082415 
L 694.644368 73.639588 
L 695.057905 73.607958 
L 695.88498 73.196762 
L 698.779743 72.374369 
L 700.020356 72.184586 
L 700.847431 71.931543 
L 702.088043 71.551977 
L 705.809881 70.508171 
L 706.636957 70.286758 
L 707.050494 70.191866 
L 707.464032 69.938823 
L 708.291107 69.78067 
L 709.118182 69.685779 
L 709.531719 69.464366 
L 709.945257 69.432735 
L 710.772332 68.895017 
L 712.426482 68.547082 
L 713.253557 68.199146 
L 714.080632 67.914472 
L 714.907708 67.693059 
L 715.734783 67.345124 
L 716.561858 67.060449 
L 718.216008 66.585992 
L 719.043083 66.522731 
L 719.870158 66.238057 
L 720.283696 66.079905 
L 721.110771 65.953383 
L 722.764921 65.225882 
L 723.178458 65.162621 
L 723.591996 64.941207 
L 724.419071 64.783055 
L 725.246146 64.719794 
L 727.727372 64.087185 
L 728.554447 63.739249 
L 728.967984 63.675988 
L 729.381522 63.454575 
L 730.208597 62.758705 
L 735.584585 60.797615 
L 736.825198 60.512941 
L 737.238735 60.196636 
L 738.479348 59.658918 
L 739.306423 59.216091 
L 739.71996 59.1212 
L 740.133498 58.804895 
L 741.374111 58.45696 
L 741.787648 58.235547 
L 742.614723 57.950872 
L 743.441798 57.602937 
L 745.095949 56.527501 
L 745.509486 56.43261 
L 746.750099 55.8 
L 747.163636 55.8 
L 747.163636 55.8 
" clip-path="url(#p868d86337f)" style="fill: none; stroke: #1f77b4; stroke-width: 1.5; stroke-linecap: square"/>
   </g>
   <g id="line2d_38">
    <path d="M 138.849901 307.8 
L 142.571739 307.705109 
L 145.88004 307.546956 
L 147.53419 307.546956 
L 147.947727 307.420434 
L 150.015415 307.325543 
L 152.49664 307.040869 
L 154.977866 306.945977 
L 155.804941 306.851086 
L 158.699704 306.724564 
L 161.594466 306.629672 
L 163.662154 306.566411 
L 169.038142 306.47152 
L 171.10583 306.408259 
L 174.827668 306.313368 
L 176.481818 306.281737 
L 180.617194 306.186846 
L 182.271344 306.028693 
L 183.925494 305.997063 
L 186.406719 305.902171 
L 188.06087 305.870541 
L 190.128557 305.80728 
L 191.782708 305.649128 
L 195.504545 305.554236 
L 196.331621 305.490975 
L 197.985771 305.396084 
L 200.466996 305.301192 
L 202.121146 305.206301 
L 209.564822 304.731844 
L 212.459585 304.636952 
L 213.700198 304.510431 
L 215.767885 304.415539 
L 219.903261 304.194126 
L 224.038636 304.130865 
L 225.692787 303.941082 
L 227.760474 303.846191 
L 231.89585 303.434994 
L 234.377075 303.11869 
L 236.031225 303.055429 
L 239.339526 302.612602 
L 241.820751 302.549341 
L 243.061364 302.422819 
L 244.301976 302.327928 
L 255.881028 301.410644 
L 256.708103 301.252492 
L 259.189328 301.1576 
L 265.805929 300.746404 
L 268.700692 300.651512 
L 270.354842 300.46173 
L 272.42253 300.366838 
L 274.903755 300.271947 
L 276.971443 300.177055 
L 278.625593 300.145425 
L 280.693281 300.082164 
L 281.520356 299.955642 
L 287.309881 299.860751 
L 288.136957 299.765859 
L 293.099407 299.670968 
L 296.821245 299.481185 
L 299.716008 299.386293 
L 301.370158 299.196511 
L 304.264921 299.101619 
L 305.091996 298.975097 
L 307.159684 298.911836 
L 311.295059 298.848575 
L 312.949209 298.690423 
L 314.60336 298.658793 
L 315.843972 298.563901 
L 317.498123 298.405749 
L 321.633498 298.184335 
L 325.768874 298.089444 
L 329.490711 297.899661 
L 330.731324 297.868031 
L 331.558399 297.741509 
L 333.626087 297.646617 
L 334.453162 297.583356 
L 335.280237 297.520095 
L 336.107312 297.456834 
L 340.242688 297.361943 
L 349.340514 296.760964 
L 350.167589 296.697703 
L 351.408202 296.602812 
L 354.302964 296.50792 
L 356.370652 296.444659 
L 362.160178 296.349768 
L 362.987253 296.223246 
L 368.776779 296.128354 
L 372.912154 295.906941 
L 373.739229 295.875311 
L 374.566304 295.780419 
L 376.633992 295.685528 
L 378.70168 295.622267 
L 380.769368 295.527375 
L 382.837055 295.464114 
L 386.558893 295.369223 
L 389.040119 295.274332 
L 394.829644 295.17944 
L 399.378557 294.926396 
L 401.032708 294.863135 
L 402.27332 294.768244 
L 408.062846 294.673353 
L 410.544071 294.578461 
L 417.987747 294.48357 
L 419.641897 294.451939 
L 424.604348 294.388678 
L 425.431423 294.325417 
L 431.220949 294.230526 
L 432.875099 294.198895 
L 443.627075 294.104004 
L 446.1083 294.009113 
L 463.476877 293.914221 
L 465.544565 293.85096 
L 476.296542 293.787699 
L 477.123617 293.724438 
L 479.191304 293.661177 
L 480.431917 293.534655 
L 482.913142 293.439764 
L 485.807905 293.313242 
L 489.529743 293.218351 
L 491.597431 293.15509 
L 494.492194 293.060198 
L 497.800494 292.902046 
L 499.868182 292.807155 
L 501.522332 292.775524 
L 508.55247 292.680633 
L 511.033696 292.585741 
L 515.582609 292.49085 
L 518.477372 292.364328 
L 521.372134 292.301067 
L 522.199209 292.237806 
L 532.124111 292.142915 
L 536.259486 291.921501 
L 539.154249 291.82661 
L 543.703162 291.573566 
L 546.597925 291.478675 
L 548.252075 291.447044 
L 551.146838 291.352153 
L 553.214526 291.130739 
L 557.349901 291.035848 
L 558.176976 290.940956 
L 562.312352 290.846065 
L 564.38004 290.782804 
L 568.928953 290.751174 
L 569.756028 290.656282 
L 574.304941 290.561391 
L 575.132016 290.49813 
L 584.229842 290.403238 
L 586.711067 290.308347 
L 592.91413 290.213456 
L 594.568281 290.181825 
L 598.290119 290.118564 
L 599.117194 290.023673 
L 604.493182 289.928781 
L 606.56087 289.86552 
L 614.004545 289.770629 
L 615.245158 289.675737 
L 616.485771 289.580846 
L 617.726383 289.485955 
L 623.929447 289.391063 
L 626.410672 289.296172 
L 637.576186 289.20128 
L 641.298024 289.011497 
L 646.260474 288.948236 
L 647.087549 288.884976 
L 653.290613 288.821715 
L 654.117688 288.758454 
L 658.666601 288.663562 
L 660.320751 288.631932 
L 667.350889 288.53704 
L 668.177964 288.473779 
L 675.62164 288.378888 
L 677.275791 288.347257 
L 680.997628 288.252366 
L 684.305929 288.094214 
L 688.854842 287.999322 
L 691.749605 287.8728 
L 695.471443 287.777909 
L 696.298518 287.714648 
L 704.569269 287.619756 
L 706.636957 287.556496 
L 709.118182 287.461604 
L 711.599407 287.366713 
L 724.005534 287.271821 
L 726.900296 287.145299 
L 731.862747 287.050408 
L 733.516897 287.018777 
L 740.133498 286.923886 
L 741.374111 286.828995 
L 744.682411 286.734103 
L 747.163636 286.639212 
L 747.163636 286.639212 
" clip-path="url(#p868d86337f)" style="fill: none; stroke: #ff7f0e; stroke-width: 1.5; stroke-linecap: square"/>
   </g>
   <g id="patch_3">
    <path d="M 108 320.4 
L 108 43.2 
" style="fill: none; stroke: #a9a9a9; stroke-width: 0.8; stroke-linejoin: miter; stroke-linecap: square"/>
   </g>
   <g id="patch_4">
    <path d="M 777.6 320.4 
L 777.6 43.2 
" style="fill: none"/>
   </g>
   <g id="patch_5">
    <path d="M 108 320.4 
L 777.6 320.4 
" style="fill: none; stroke: #a9a9a9; stroke-width: 0.8; stroke-linejoin: miter; stroke-linecap: square"/>
   </g>
   <g id="patch_6">
    <path d="M 108 43.2 
L 777.6 43.2 
" style="fill: none"/>
   </g>
   <g id="text_19">
    <!-- get_subscribe history -->
    <g style="fill: #a9a9a9" transform="translate(378.6075 37.2) scale(0.12 -0.12)">
     <defs>
      <path id="DejaVuSans-67" d="M 2906 1791 
Q 2906 2416 2648 2759 
Q 2391 3103 1925 3103 
Q 1463 3103 1205 2759 
Q 947 2416 947 1791 
Q 947 1169 1205 825 
Q 1463 481 1925 481 
Q 2391 481 2648 825 
Q 2906 1169 2906 1791 
z
M 3481 434 
Q 3481 -459 3084 -895 
Q 2688 -1331 1869 -1331 
Q 1566 -1331 1297 -1286 
Q 1028 -1241 775 -1147 
L 775 -588 
Q 1028 -725 1275 -790 
Q 1522 -856 1778 -856 
Q 2344 -856 2625 -561 
Q 2906 -266 2906 331 
L 2906 616 
Q 2728 306 2450 153 
Q 2172 0 1784 0 
Q 1141 0 747 490 
Q 353 981 353 1791 
Q 353 2603 747 3093 
Q 1141 3584 1784 3584 
Q 2172 3584 2450 3431 
Q 2728 3278 2906 2969 
L 2906 3500 
L 3481 3500 
L 3481 434 
z
" transform="scale(0.015625)"/>
      <path id="DejaVuSans-65" d="M 3597 1894 
L 3597 1613 
L 953 1613 
Q 991 1019 1311 708 
Q 1631 397 2203 397 
Q 2534 397 2845 478 
Q 3156 559 3463 722 
L 3463 178 
Q 3153 47 2828 -22 
Q 2503 -91 2169 -91 
Q 1331 -91 842 396 
Q 353 884 353 1716 
Q 353 2575 817 3079 
Q 1281 3584 2069 3584 
Q 2775 3584 3186 3129 
Q 3597 2675 3597 1894 
z
M 3022 2063 
Q 3016 2534 2758 2815 
Q 2500 3097 2075 3097 
Q 1594 3097 1305 2825 
Q 1016 2553 972 2059 
L 3022 2063 
z
" transform="scale(0.015625)"/>
      <path id="DejaVuSans-74" d="M 1172 4494 
L 1172 3500 
L 2356 3500 
L 2356 3053 
L 1172 3053 
L 1172 1153 
Q 1172 725 1289 603 
Q 1406 481 1766 481 
L 2356 481 
L 2356 0 
L 1766 0 
Q 1100 0 847 248 
Q 594 497 594 1153 
L 594 3053 
L 172 3053 
L 172 3500 
L 594 3500 
L 594 4494 
L 1172 4494 
z
" transform="scale(0.015625)"/>
      <path id="DejaVuSans-5f" d="M 3263 -1063 
L 3263 -1509 
L -63 -1509 
L -63 -1063 
L 3263 -1063 
z
" transform="scale(0.015625)"/>
      <path id="DejaVuSans-73" d="M 2834 3397 
L 2834 2853 
Q 2591 2978 2328 3040 
Q 2066 3103 1784 3103 
Q 1356 3103 1142 2972 
Q 928 2841 928 2578 
Q 928 2378 1081 2264 
Q 1234 2150 1697 2047 
L 1894 2003 
Q 2506 1872 2764 1633 
Q 3022 1394 3022 966 
Q 3022 478 2636 193 
Q 2250 -91 1575 -91 
Q 1294 -91 989 -36 
Q 684 19 347 128 
L 347 722 
Q 666 556 975 473 
Q 1284 391 1588 391 
Q 1994 391 2212 530 
Q 2431 669 2431 922 
Q 2431 1156 2273 1281 
Q 2116 1406 1581 1522 
L 1381 1569 
Q 847 1681 609 1914 
Q 372 2147 372 2553 
Q 372 3047 722 3315 
Q 1072 3584 1716 3584 
Q 2034 3584 2315 3537 
Q 2597 3491 2834 3397 
z
" transform="scale(0.015625)"/>
      <path id="DejaVuSans-75" d="M 544 1381 
L 544 3500 
L 1119 3500 
L 1119 1403 
Q 1119 906 1312 657 
Q 1506 409 1894 409 
Q 2359 409 2629 706 
Q 2900 1003 2900 1516 
L 2900 3500 
L 3475 3500 
L 3475 0 
L 2900 0 
L 2900 538 
Q 2691 219 2414 64 
Q 2138 -91 1772 -91 
Q 1169 -91 856 284 
Q 544 659 544 1381 
z
M 1991 3584 
L 1991 3584 
z
" transform="scale(0.015625)"/>
      <path id="DejaVuSans-62" d="M 3116 1747 
Q 3116 2381 2855 2742 
Q 2594 3103 2138 3103 
Q 1681 3103 1420 2742 
Q 1159 2381 1159 1747 
Q 1159 1113 1420 752 
Q 1681 391 2138 391 
Q 2594 391 2855 752 
Q 3116 1113 3116 1747 
z
M 1159 2969 
Q 1341 3281 1617 3432 
Q 1894 3584 2278 3584 
Q 2916 3584 3314 3078 
Q 3713 2572 3713 1747 
Q 3713 922 3314 415 
Q 2916 -91 2278 -91 
Q 1894 -91 1617 61 
Q 1341 213 1159 525 
L 1159 0 
L 581 0 
L 581 4863 
L 1159 4863 
L 1159 2969 
z
" transform="scale(0.015625)"/>
      <path id="DejaVuSans-63" d="M 3122 3366 
L 3122 2828 
Q 2878 2963 2633 3030 
Q 2388 3097 2138 3097 
Q 1578 3097 1268 2742 
Q 959 2388 959 1747 
Q 959 1106 1268 751 
Q 1578 397 2138 397 
Q 2388 397 2633 464 
Q 2878 531 3122 666 
L 3122 134 
Q 2881 22 2623 -34 
Q 2366 -91 2075 -91 
Q 1284 -91 818 406 
Q 353 903 353 1747 
Q 353 2603 823 3093 
Q 1294 3584 2113 3584 
Q 2378 3584 2631 3529 
Q 2884 3475 3122 3366 
z
" transform="scale(0.015625)"/>
      <path id="DejaVuSans-72" d="M 2631 2963 
Q 2534 3019 2420 3045 
Q 2306 3072 2169 3072 
Q 1681 3072 1420 2755 
Q 1159 2438 1159 1844 
L 1159 0 
L 581 0 
L 581 3500 
L 1159 3500 
L 1159 2956 
Q 1341 3275 1631 3429 
Q 1922 3584 2338 3584 
Q 2397 3584 2469 3576 
Q 2541 3569 2628 3553 
L 2631 2963 
z
" transform="scale(0.015625)"/>
      <path id="DejaVuSans-69" d="M 603 3500 
L 1178 3500 
L 1178 0 
L 603 0 
L 603 3500 
z
M 603 4863 
L 1178 4863 
L 1178 4134 
L 603 4134 
L 603 4863 
z
" transform="scale(0.015625)"/>
      <path id="DejaVuSans-20" transform="scale(0.015625)"/>
      <path id="DejaVuSans-68" d="M 3513 2113 
L 3513 0 
L 2938 0 
L 2938 2094 
Q 2938 2591 2744 2837 
Q 2550 3084 2163 3084 
Q 1697 3084 1428 2787 
Q 1159 2491 1159 1978 
L 1159 0 
L 581 0 
L 581 4863 
L 1159 4863 
L 1159 2956 
Q 1366 3272 1645 3428 
Q 1925 3584 2291 3584 
Q 2894 3584 3203 3211 
Q 3513 2838 3513 2113 
z
" transform="scale(0.015625)"/>
      <path id="DejaVuSans-6f" d="M 1959 3097 
Q 1497 3097 1228 2736 
Q 959 2375 959 1747 
Q 959 1119 1226 758 
Q 1494 397 1959 397 
Q 2419 397 2687 759 
Q 2956 1122 2956 1747 
Q 2956 2369 2687 2733 
Q 2419 3097 1959 3097 
z
M 1959 3584 
Q 2709 3584 3137 3096 
Q 3566 2609 3566 1747 
Q 3566 888 3137 398 
Q 2709 -91 1959 -91 
Q 1206 -91 779 398 
Q 353 888 353 1747 
Q 353 2609 779 3096 
Q 1206 3584 1959 3584 
z
" transform="scale(0.015625)"/>
      <path id="DejaVuSans-79" d="M 2059 -325 
Q 1816 -950 1584 -1140 
Q 1353 -1331 966 -1331 
L 506 -1331 
L 506 -850 
L 844 -850 
Q 1081 -850 1212 -737 
Q 1344 -625 1503 -206 
L 1606 56 
L 191 3500 
L 800 3500 
L 1894 763 
L 2988 3500 
L 3597 3500 
L 2059 -325 
z
" transform="scale(0.015625)"/>
     </defs>
     <use xlink:href="#DejaVuSans-67"/>
     <use xlink:href="#DejaVuSans-65" transform="translate(63.476562 0)"/>
     <use xlink:href="#DejaVuSans-74" transform="translate(125 0)"/>
     <use xlink:href="#DejaVuSans-5f" transform="translate(164.208984 0)"/>
     <use xlink:href="#DejaVuSans-73" transform="translate(214.208984 0)"/>
     <use xlink:href="#DejaVuSans-75" transform="translate(266.308594 0)"/>
     <use xlink:href="#DejaVuSans-62" transform="translate(329.6875 0)"/>
     <use xlink:href="#DejaVuSans-73" transform="translate(393.164062 0)"/>
     <use xlink:href="#DejaVuSans-63" transform="translate(445.263672 0)"/>
     <use xlink:href="#DejaVuSans-72" transform="translate(500.244141 0)"/>
     <use xlink:href="#DejaVuSans-69" transform="translate(541.357422 0)"/>
     <use xlink:href="#DejaVuSans-62" transform="translate(569.140625 0)"/>
     <use xlink:href="#DejaVuSans-65" transform="translate(632.617188 0)"/>
     <use xlink:href="#DejaVuSans-20" transform="translate(694.140625 0)"/>
     <use xlink:href="#DejaVuSans-68" transform="translate(725.927734 0)"/>
     <use xlink:href="#DejaVuSans-69" transform="translate(789.306641 0)"/>
     <use xlink:href="#DejaVuSans-73" transform="translate(817.089844 0)"/>
     <use xlink:href="#DejaVuSans-74" transform="translate(869.189453 0)"/>
     <use xlink:href="#DejaVuSans-6f" transform="translate(908.398438 0)"/>
     <use xlink:href="#DejaVuSans-72" transform="translate(969.580078 0)"/>
     <use xlink:href="#DejaVuSans-79" transform="translate(1010.693359 0)"/>
    </g>
   </g>
   <g id="legend_1">
    <g id="line2d_39">
     <path d="M 815.08 328.498438 
L 825.08 328.498438 
L 835.08 328.498438 
" style="fill: none; stroke: #1f77b4; stroke-width: 1.5; stroke-linecap: square"/>
    </g>
    <g id="text_20">
     <!-- star -->
     <g style="fill: #a9a9a9" transform="translate(843.08 331.998438) scale(0.1 -0.1)">
      <defs>
       <path id="DejaVuSans-61" d="M 2194 1759 
Q 1497 1759 1228 1600 
Q 959 1441 959 1056 
Q 959 750 1161 570 
Q 1363 391 1709 391 
Q 2188 391 2477 730 
Q 2766 1069 2766 1631 
L 2766 1759 
L 2194 1759 
z
M 3341 1997 
L 3341 0 
L 2766 0 
L 2766 531 
Q 2569 213 2275 61 
Q 1981 -91 1556 -91 
Q 1019 -91 701 211 
Q 384 513 384 1019 
Q 384 1609 779 1909 
Q 1175 2209 1959 2209 
L 2766 2209 
L 2766 2266 
Q 2766 2663 2505 2880 
Q 2244 3097 1772 3097 
Q 1472 3097 1187 3025 
Q 903 2953 641 2809 
L 641 3341 
Q 956 3463 1253 3523 
Q 1550 3584 1831 3584 
Q 2591 3584 2966 3190 
Q 3341 2797 3341 1997 
z
" transform="scale(0.015625)"/>
      </defs>
      <use xlink:href="#DejaVuSans-73"/>
      <use xlink:href="#DejaVuSans-74" transform="translate(52.099609 0)"/>
      <use xlink:href="#DejaVuSans-61" transform="translate(91.308594 0)"/>
      <use xlink:href="#DejaVuSans-72" transform="translate(152.587891 0)"/>
     </g>
    </g>
    <g id="line2d_40">
     <path d="M 815.08 343.176562 
L 825.08 343.176562 
L 835.08 343.176562 
" style="fill: none; stroke: #ff7f0e; stroke-width: 1.5; stroke-linecap: square"/>
    </g>
    <g id="text_21">
     <!-- fork -->
     <g style="fill: #a9a9a9" transform="translate(843.08 346.676562) scale(0.1 -0.1)">
      <defs>
       <path id="DejaVuSans-66" d="M 2375 4863 
L 2375 4384 
L 1825 4384 
Q 1516 4384 1395 4259 
Q 1275 4134 1275 3809 
L 1275 3500 
L 2222 3500 
L 2222 3053 
L 1275 3053 
L 1275 0 
L 697 0 
L 697 3053 
L 147 3053 
L 147 3500 
L 697 3500 
L 697 3744 
Q 697 4328 969 4595 
Q 1241 4863 1831 4863 
L 2375 4863 
z
" transform="scale(0.015625)"/>
       <path id="DejaVuSans-6b" d="M 581 4863 
L 1159 4863 
L 1159 1991 
L 2875 3500 
L 3609 3500 
L 1753 1863 
L 3688 0 
L 2938 0 
L 1159 1709 
L 1159 0 
L 581 0 
L 581 4863 
z
" transform="scale(0.015625)"/>
      </defs>
      <use xlink:href="#DejaVuSans-66"/>
      <use xlink:href="#DejaVuSans-6f" transform="translate(35.205078 0)"/>
      <use xlink:href="#DejaVuSans-72" transform="translate(96.386719 0)"/>
      <use xlink:href="#DejaVuSans-6b" transform="translate(137.5 0)"/>
     </g>
    </g>
   </g>
  </g>
 </g>
 <defs>
  <clipPath id="p868d86337f">
   <rect x="108" y="43.2" width="669.6" height="277.2"/>
  </clipPath>
 </defs>
</svg>
